<?xml version="1.0" standalone="no"?>
<!DOCTYPE svg PUBLIC "-//W3C//DTD SVG 1.1//EN" "http://www.w3.org/Graphics/SVG/1.1/DTD/svg11.dtd" >
<svg xmlns="http://www.w3.org/2000/svg" xmlns:xlink="http://www.w3.org/1999/xlink" version="1.1">
<metadata>
Created by FontForge 20170731 at Tue Apr 10 06:58:47 2018
 By Aleksey,,,
Attribution-ShareAlike 4.0 International
</metadata>
<defs>
<font id="Bookinsanity" horiz-adv-x="578" >
  <font-face 
    font-family="Bookinsanity"
    font-weight="400"
    font-style="italic"
    font-stretch="normal"
    units-per-em="1000"
    panose-1="2 0 5 3 7 0 0 9 0 3"
    ascent="750"
    descent="-250"
    x-height="451"
    cap-height="700"
    bbox="-89 -215 1041 825"
    underline-thickness="50"
    underline-position="-175"
    slope="-12"
    unicode-range="U+001D-2260"
  />
<missing-glyph horiz-adv-x="789" 
d="M250 0v700h539v-700h-539zM305 656v-612h429v612h-429z" />
    <glyph glyph-name=".notdef" horiz-adv-x="789" 
d="M250 0v700h539v-700h-539zM305 656v-612h429v612h-429z" />
    <glyph glyph-name=".null" horiz-adv-x="0" 
 />
    <glyph glyph-name=".null" horiz-adv-x="0" 
 />
    <glyph glyph-name="nonmarkingreturn" horiz-adv-x="333" 
 />
    <glyph glyph-name="space" unicode=" " horiz-adv-x="251" 
 />
    <glyph glyph-name="exclam" unicode="!" horiz-adv-x="240" 
d="M195 186h-36q-2 100 -8 159q-5 53 -15 105q-22 113 -22 156q0 109 63 109t63 -109q0 -43 -22 -156q-10 -52 -15 -105q-6 -59 -8 -159zM131 97q18 18 46 18q29 0 45 -18q18 -17 18 -44t-18 -45t-45 -18q-28 0 -46 18q-17 19 -17 45q0 27 17 44z" />
    <glyph glyph-name="quotedbl" unicode="&#x22;" horiz-adv-x="423" 
d="M383 436h-28q-3 44 -10 78q-4 24 -14 59q-16 63 -16 83q0 27 16 43q15 16 38 16t38 -16q16 -16 16 -42q0 -22 -16 -83q-10 -38 -14 -60q-7 -34 -10 -78zM200 436h-28q-3 44 -10 78q-4 24 -14 59q-16 63 -16 83q0 27 16 43q15 16 38 16t38 -16q16 -16 16 -42
q0 -22 -16 -83q-10 -38 -14 -60q-7 -34 -10 -78z" />
    <glyph glyph-name="numbersign" unicode="#" horiz-adv-x="552" 
d="M261 0l57 204h-148l-57 -204h-43l57 204h-107v39h119l60 214h-125v40h136l58 203h43l-58 -203h147l58 203h43l-58 -203h109v-40h-120l-60 -214h125v-39h-136l-57 -204h-43zM242 457l-60 -214h147l60 214h-147z" />
    <glyph glyph-name="dollar" unicode="$" 
d="M312 -111v97q-81 6 -133 48l-14 -34h-30l-65 215l23 7q101 -192 219 -195v293l-37 14q-21 8 -36 15q-42 20 -66 40q-64 52 -64 144q0 64 47 116q56 60 157 65v46h42v-47q65 -6 99 -39l12 26h29l62 -195l-22 -8q-78 166 -180 175v-270l38 -14q10 -4 38 -16q43 -19 69 -40
q69 -56 69 -150q0 -80 -56 -133q-59 -55 -159 -63v-97h-42zM443 251q-28 27 -89 53v-275q63 9 98 50q29 35 29 79q0 55 -38 93zM313 419v252q-115 -13 -115 -121q0 -85 115 -131z" />
    <glyph glyph-name="percent" unicode="%" horiz-adv-x="823" 
d="M103 649q42 60 118 60q77 0 119 -60q41 -59 41 -159t-41 -159q-42 -60 -119 -60q-76 0 -118 60q-41 59 -41 159t41 159zM157 351q18 -50 64 -50q47 0 65 50q15 42 15 139q0 98 -15 140q-18 49 -65 49q-46 0 -64 -49q-15 -42 -15 -140q0 -97 15 -139zM193 0l456 700h43
l-456 -700h-43zM545 369q42 60 118 60q77 0 119 -60q41 -59 41 -159t-41 -159q-42 -60 -119 -60q-76 0 -118 60q-41 59 -41 159t41 159zM599 71q18 -50 64 -50q47 0 65 50q15 42 15 139q0 98 -15 140q-18 49 -65 49q-46 0 -64 -49q-15 -42 -15 -140q0 -97 15 -139z" />
    <glyph glyph-name="ampersand" unicode="&#x26;" horiz-adv-x="748" 
d="M566 131q22 -56 44 -77q22 -22 58 -22q44 0 83 15v-36q-40 -25 -115 -25q-96 0 -143 72q-94 -73 -213 -73q-99 0 -158 54q-56 51 -56 128q0 86 62 153q42 44 135 96q-86 77 -86 155q0 52 38 93q47 51 126 51q70 0 111 -40q38 -38 38 -93q0 -50 -37 -90q-23 -27 -85 -67
q111 -85 181 -252q56 85 56 184q0 46 -22 64q-19 14 -71 19v26h239v-26q-51 -5 -70 -21q-22 -18 -28 -69q-15 -124 -87 -219zM474 94v2l-1 2q-89 212 -171 285q-126 -83 -126 -190q0 -64 37 -105q39 -46 108 -46q86 0 153 52zM267 511q17 -24 62 -58q113 66 113 129
q0 40 -24 65q-26 26 -72 26q-43 0 -71 -26q-28 -25 -28 -71q0 -36 20 -65z" />
    <glyph glyph-name="quotesingle" unicode="'" horiz-adv-x="240" 
d="M200 436h-28q-3 44 -10 78q-4 24 -14 59q-16 63 -16 83q0 27 16 43q15 16 38 16t38 -16q16 -16 16 -42q0 -22 -16 -83q-10 -38 -14 -60q-7 -34 -10 -78z" />
    <glyph glyph-name="parenleft" unicode="(" horiz-adv-x="309" 
d="M137 542q67 120 175 193l22 -26q-82 -61 -135 -187q-54 -126 -54 -262q0 -134 54 -262q52 -124 135 -187l-22 -26q-108 73 -175 193q-75 132 -75 282t75 282z" />
    <glyph glyph-name="parenright" unicode=")" horiz-adv-x="309" 
d="M210 -22q-67 -119 -176 -193l-22 26q83 63 135 187q54 128 54 262q0 136 -54 262q-53 126 -135 187l22 26q109 -74 176 -193q75 -132 75 -282t-75 -282z" />
    <glyph glyph-name="asterisk" unicode="*" horiz-adv-x="384" 
d="M236 625q-6 -19 -9 -31q-6 -26 -7 -42q18 14 33 27q3 3 10.5 11t12.5 13q24 25 36 33q17 9 32 5q15 -3 23 -17q18 -33 -17 -53q-17 -9 -47 -16l-15 -3q-8 -1 -17 -5q-18 -6 -40 -14q18 -8 40 -15q6 -2 32 -8q34 -7 46 -15q36 -21 18 -53q-18 -31 -55 -12q-12 7 -37 33
q-5 5 -12 12.5t-10 10.5l-33 27q4 -28 7 -41l5 -17l4 -14q10 -33 10 -49q0 -41 -37 -41t-37 41q0 16 10 49q6 19 9 31q5 20 6 42q-22 -18 -32 -28q-4 -3 -13 -12l-10 -11q-22 -25 -36 -33q-37 -19 -55 12q-18 32 18 53q12 8 46 15q28 7 31 8q20 6 39 15q-26 10 -39 14
q-9 4 -17 5l-14 3q-29 7 -46 16t-21 24q-5 15 3 29t23 17q15 4 32 -5q11 -7 37 -33q10 -10 22 -24l33 -27q-1 16 -7 42q-3 12 -9 31q-10 33 -10 49q0 17 11 30q11 11 26 11q37 0 37 -41q0 -16 -10 -49z" />
    <glyph glyph-name="plus" unicode="+" horiz-adv-x="552" 
d="M20 326v50h240v240h50v-240h242v-50h-242v-241h-50v241h-240z" />
    <glyph glyph-name="comma" unicode="," horiz-adv-x="240" 
d="M131 97q18 18 46 18q29 0 45 -19q18 -20 18 -54q0 -46 -30 -105q-29 -57 -65 -90l-20 15q51 66 61 128q-34 0 -54 18q-18 18 -18 45t17 44z" />
    <glyph glyph-name="hyphen" unicode="-" horiz-adv-x="243" 
d="M20 196v59h223v-59h-223z" />
    <glyph glyph-name="period" unicode="." horiz-adv-x="240" 
d="M131 97q18 18 46 18q29 0 45 -18q18 -17 18 -44t-18 -45t-45 -18q-28 0 -46 18q-17 19 -17 45q0 27 17 44z" />
    <glyph glyph-name="slash" unicode="/" horiz-adv-x="309" 
d="M0 -214l266 944h43l-266 -944h-43z" />
    <glyph glyph-name="zero" unicode="0" 
d="M149 611q66 104 184 104t184 -104q61 -97 61 -261q0 -163 -61 -260q-66 -105 -184 -105t-184 105q-61 97 -61 260q0 164 61 261zM219 119q33 -90 114 -90t114 90q26 75 26 231q0 157 -26 232q-31 90 -114 90t-114 -90q-26 -75 -26 -232q0 -156 26 -231z" />
    <glyph glyph-name="one" unicode="1" 
d="M578 0h-350v25q83 5 102 17q25 15 25 70v453q0 32 -31 32h-95v21l185 97h37v-603q0 -55 26 -70q19 -12 101 -17v-25z" />
    <glyph glyph-name="two" unicode="2" 
d="M181 497h-49q0 99 62 161q58 57 149 57q97 0 158 -57t61 -146q0 -108 -95 -221q-71 -85 -222 -199h248q27 0 37 12q13 17 23 75h27l-24 -201h-27q0 10 -3 14q-5 8 -14 8h-372v44l28 26l28 26q10 9 28.5 27.5t27.5 26.5q65 65 102 113q103 133 103 249q0 158 -129 158
q-65 0 -104 -42q-43 -46 -43 -131z" />
    <glyph glyph-name="three" unicode="3" 
d="M518 461q-32 -43 -90 -59q67 -12 111 -64q45 -52 45 -118q0 -102 -68 -167q-74 -68 -197 -68q-80 0 -134 25q-63 28 -63 78q0 21 14 37q15 15 35 15q26 0 46 -17q7 -7 15 -18l13 -20q34 -55 78 -55q156 0 156 166q0 70 -43 116q-46 51 -128 51h-18v44h24q64 0 100 42
q32 38 32 95q0 53 -28 87q-31 39 -88 39q-55 0 -93 -35q-39 -36 -44 -106h-49q8 85 60 135q54 51 144 51q96 0 152 -49q51 -45 51 -107q0 -57 -33 -98z" />
    <glyph glyph-name="four" unicode="4" 
d="M464 0h-96v180h-282v34l302 486h76v-475h114v-45h-114v-180zM368 582l-223 -357h223v357z" />
    <glyph glyph-name="five" unicode="5" 
d="M510 393q68 -68 68 -168q0 -101 -66 -168q-70 -72 -188 -72q-81 0 -138 25q-66 28 -66 78q0 21 14 37q14 15 33 15q27 0 47 -17q11 -11 17 -18l15 -20q37 -55 85 -55q79 0 123 47q41 44 41 119t-52 123t-137 48q-76 0 -134 -31l-25 10l52 354h284q25 0 28 22h27l-13 -113
h-295l-23 -164q45 19 111 19q118 0 192 -71z" />
    <glyph glyph-name="six" unicode="6" 
d="M521 715v-42q-262 -30 -315 -266q67 44 139 44q110 0 174 -73q59 -67 59 -161q0 -93 -68 -161q-71 -71 -177 -71q-114 0 -180 87q-65 85 -65 221q0 183 127 298q118 107 306 124zM197 353q-4 -28 -4 -72q0 -122 28 -181q35 -71 112 -71q69 0 106 54q34 49 34 134
q0 83 -36 134q-39 55 -109 55q-75 0 -131 -53z" />
    <glyph glyph-name="seven" unicode="7" 
d="M341 0h-105q35 314 256 609h-281q-27 0 -37 -13q-13 -18 -23 -74h-27l23 200h27q0 -10 3 -14q5 -8 14 -8h380v-43q-195 -273 -230 -657z" />
    <glyph glyph-name="eight" unicode="8" 
d="M510 448q-30 -33 -93 -63q76 -33 112 -72q49 -52 49 -131q0 -86 -64 -140q-68 -57 -185 -57q-113 0 -180 58q-61 52 -61 124q0 122 148 189q-118 63 -118 184q0 64 51 114q62 61 175 61q94 0 152 -49q53 -45 53 -110q0 -64 -39 -108zM196 73q46 -45 130 -45q82 0 124 42
q35 35 35 87q0 67 -62 111q-22 16 -62 33l-35 14l-35 15q-65 -29 -95 -60q-40 -40 -40 -99q0 -61 40 -98zM256 466q26 -23 104 -56q61 28 89 55q38 36 38 87q0 53 -34 86q-37 34 -103 34q-64 0 -101 -29q-37 -30 -37 -83q0 -56 44 -94z" />
    <glyph glyph-name="nine" unicode="9" 
d="M145 -15v43q263 29 315 265q-68 -44 -139 -44q-109 0 -173 73q-60 66 -60 161q0 94 68 162q70 70 177 70q113 0 181 -86q64 -83 64 -222q0 -182 -126 -298q-118 -107 -307 -124zM469 346q4 41 4 73q0 123 -28 182q-35 71 -112 71q-69 0 -106 -54q-34 -50 -34 -135
q0 -83 36 -134q39 -55 109 -55q75 0 131 52z" />
    <glyph glyph-name="colon" unicode=":" horiz-adv-x="240" 
d="M131 442q18 18 46 18q29 0 45 -18q18 -16 18 -44q0 -27 -18 -45t-45 -18q-28 0 -46 18q-17 19 -17 45q0 27 17 44zM131 97q18 18 46 18q29 0 45 -18q18 -17 18 -44t-18 -45t-45 -18q-28 0 -46 18q-17 19 -17 45q0 27 17 44z" />
    <glyph glyph-name="semicolon" unicode=";" horiz-adv-x="240" 
d="M131 97q18 18 46 18q29 0 45 -19q18 -20 18 -54q0 -46 -30 -105q-29 -57 -65 -90l-20 15q51 66 61 128q-34 0 -54 18q-18 18 -18 45t17 44zM131 442q18 18 46 18q29 0 45 -18q18 -16 18 -44q0 -27 -18 -45t-45 -18q-28 0 -46 18q-17 19 -17 45q0 27 17 44z" />
    <glyph glyph-name="less" unicode="&#x3c;" horiz-adv-x="552" 
d="M552 170v-55l-490 203v55l490 202v-54l-424 -176z" />
    <glyph glyph-name="equal" unicode="=" horiz-adv-x="552" 
d="M20 425v50h532v-50h-532zM20 227v50h532v-50h-532z" />
    <glyph glyph-name="greater" unicode="&#x3e;" horiz-adv-x="552" 
d="M60 115v55l425 175l-425 176v54l491 -202v-55z" />
    <glyph glyph-name="question" unicode="?" horiz-adv-x="469" 
d="M246 285l-2 -99h-42l-1 189q190 0 190 145q0 59 -40 102q-42 44 -107 44q-42 0 -70 -46q-29 -47 -65 -47q-19 0 -33 14q-14 16 -14 38q0 44 43 68q38 22 102 22q124 0 197 -73q65 -65 65 -156q0 -98 -63 -151q-59 -49 -160 -50zM178 97q18 18 46 18t45 -18q18 -17 18 -44
t-18 -45t-45 -18q-28 0 -46 18t-18 45t18 44z" />
    <glyph glyph-name="at" unicode="@" horiz-adv-x="935" 
d="M582 101q-60 -60 -143 -60q-88 0 -128 70q-40 69 -15 166q21 86 92 145q73 59 160 59q78 0 109 -51l71 51h28l-81 -324q-8 -32 -3 -47q7 -22 37 -22q69 0 127 75q61 77 61 185q0 150 -103 232q-91 73 -238 73q-170 0 -297 -117q-129 -118 -129 -279q0 -179 115 -287
q110 -104 283 -104q159 0 311 109l21 -32q-166 -115 -333 -115q-187 0 -309 111q-130 118 -130 318q0 174 142 304q140 130 325 130q165 0 271 -89q109 -94 109 -254q0 -132 -79 -220q-78 -87 -189 -87q-73 0 -85 60zM583 151l58 231q-17 56 -86 56q-119 0 -162 -177
q-44 -176 73 -176q72 0 117 66z" />
    <glyph glyph-name="glyph36" unicode="A" horiz-adv-x="665" 
d="M295 700h57l229 -602q13 -36 31 -52q20 -17 53 -21v-25h-260v25q57 5 72 17q16 13 4 45l-50 128h-272l-48 -128q-11 -28 10 -43t75 -19v-25h-222v25q68 8 90 68zM294 572l-118 -313h238z" />
    <glyph glyph-name="glyph37" unicode="B" horiz-adv-x="704" 
d="M611 51q-77 -51 -206 -51h-345v25q64 5 79 17q18 15 18 70v476q0 56 -18 71q-16 11 -79 16v25h328q282 0 282 -173q0 -121 -155 -151q84 -17 130 -64q45 -48 45 -113q0 -96 -79 -148zM537 311q-43 43 -120 43h-161v-279q0 -30 30 -30h119q87 0 133 43q42 39 42 111
q0 70 -43 112zM391 655h-105q-30 0 -30 -30v-227h141q163 0 163 129q0 128 -169 128z" />
    <glyph glyph-name="glyph38" unicode="C" horiz-adv-x="700" 
d="M643 700l62 -195l-23 -8q-96 175 -254 175q-115 0 -175 -91q-55 -83 -55 -231t55 -231q60 -90 175 -90q85 0 149 43q69 45 92 122l45 -15q-72 -194 -292 -194q-146 0 -240 103t-94 262t94 262t240 103q107 0 177 -50l15 35h29z" />
    <glyph glyph-name="glyph39" unicode="D" horiz-adv-x="764" 
d="M563 596q-62 59 -188 59h-89q-30 0 -30 -30v-550q0 -30 30 -30h89q127 0 188 60q77 72 77 245q0 172 -77 246zM648 87q-98 -87 -273 -87h-315v25q64 5 79 17q18 15 18 70v476q0 56 -18 71q-16 11 -79 16v25h315q175 0 273 -87q102 -91 102 -263t-102 -263z" />
    <glyph glyph-name="glyph40" unicode="E" horiz-adv-x="688" 
d="M286 45h104q105 0 179 42q62 37 121 110l21 -13l-98 -184h-553v25q64 5 79 17q18 15 18 70v476q0 56 -18 71q-16 11 -79 16v25h554l67 -163l-21 -11q-50 68 -107 96q-61 33 -155 33h-112q-30 0 -30 -30v-237h162q52 0 73 25q17 19 21 72h26v-239h-26q-5 54 -21 73
q-21 24 -73 24h-162v-268q0 -30 30 -30z" />
    <glyph glyph-name="glyph41" unicode="F" horiz-adv-x="658" 
d="M256 625v-237h162q52 0 73 25q17 19 21 72h26v-239h-26q-5 54 -21 73q-21 24 -73 24h-162v-231q0 -55 19 -70q14 -12 78 -17v-25h-293v25q64 5 79 17q18 15 18 70v476q0 56 -18 71q-16 11 -79 16v25h554l67 -163l-21 -11q-50 68 -107 96q-61 33 -155 33h-112
q-30 0 -30 -30z" />
    <glyph glyph-name="glyph42" unicode="G" horiz-adv-x="759" 
d="M669 0l-38 57q-77 -72 -210 -72q-146 0 -240 103q-93 104 -93 262q0 159 94 262t240 103q105 0 175 -50l14 35h30l61 -195l-23 -8q-96 175 -250 175q-115 0 -175 -91q-56 -85 -56 -231q0 -148 55 -231q60 -90 173 -90q61 0 112 25q41 18 62 46v108q0 55 -18 70
q-15 12 -78 17v25h289v-25q-61 -5 -75 -17q-19 -15 -19 -70v-208h-30z" />
    <glyph glyph-name="glyph43" unicode="H" horiz-adv-x="789" 
d="M789 0h-293v25q64 5 79 17q18 15 18 70v231h-337v-231q0 -55 19 -70q14 -12 78 -17v-25h-293v25q64 5 79 17q18 15 18 70v476q0 56 -18 71q-16 11 -79 16v25h293v-25q-64 -5 -78 -16q-19 -15 -19 -71v-200h337v200q0 56 -18 71q-16 11 -79 16v25h293v-25q-64 -5 -78 -16
q-19 -15 -19 -71v-476q0 -55 19 -70q14 -12 78 -17v-25z" />
    <glyph glyph-name="glyph44" unicode="I" horiz-adv-x="353" 
d="M353 0h-293v25q64 5 79 17q18 15 18 70v476q0 56 -18 71q-16 11 -79 16v25h293v-25q-64 -5 -78 -16q-19 -15 -19 -71v-476q0 -55 19 -70q14 -12 78 -17v-25z" />
    <glyph glyph-name="glyph45" unicode="J" horiz-adv-x="344" 
d="M247 588v-560q0 -233 -201 -233q-67 0 -104 30q-31 25 -31 57q0 24 15 39q14 15 36 15q36 0 57 -45q21 -46 47 -46q41 0 61 35q21 40 21 134v574q0 56 -18 71q-16 11 -79 16v25h293v-25q-63 -5 -79 -16q-18 -15 -18 -71z" />
    <glyph glyph-name="glyph46" unicode="K" horiz-adv-x="737" 
d="M353 0h-293v25q64 5 79 17q18 15 18 70v476q0 56 -18 71q-16 11 -79 16v25h293v-25q-64 -5 -78 -16q-19 -15 -19 -71v-244l284 258q11 9 15 19q6 14 2 23q-10 26 -81 31v25h270v-25q-43 -5 -70 -19q-26 -15 -75 -60l-191 -172l271 -340q23 -29 56 -46q25 -13 46 -13v-25
h-296v25q111 7 53 83l-202 249l-82 -73v-172q0 -55 19 -70q14 -12 78 -17v-25z" />
    <glyph glyph-name="glyph47" unicode="L" horiz-adv-x="639" 
d="M286 45h65q97 0 171 42q60 36 119 110l20 -13l-98 -184h-503v25q64 5 79 17q18 15 18 70v476q0 56 -18 71q-16 11 -79 16v25h293v-25q-64 -5 -78 -16q-19 -15 -19 -71v-513q0 -30 30 -30z" />
    <glyph glyph-name="glyph48" unicode="M" horiz-adv-x="894" 
d="M894 0h-293v25q64 5 79 17q18 15 18 70v513l-228 -625h-33l-228 624v-512q0 -55 19 -70q14 -12 78 -17v-25h-246v25q64 5 79 17q19 15 19 70v476q0 55 -19 71q-16 11 -79 16v25h227l192 -527l193 527h222v-25q-64 -5 -78 -16q-19 -15 -19 -71v-476q0 -55 19 -70
q14 -12 78 -17v-25z" />
    <glyph glyph-name="glyph49" unicode="N" horiz-adv-x="758" 
d="M307 0h-247v25q64 5 79 17q19 15 19 70v476q0 55 -19 71q-16 11 -79 16v25h218l342 -523v411q0 56 -17 71q-14 11 -78 16v25h242v-25q-64 -5 -78 -16q-18 -15 -18 -71v-588h-54l-408 624v-512q0 -55 19 -70q15 -12 79 -17v-25z" />
    <glyph glyph-name="glyph50" unicode="O" horiz-adv-x="753" 
d="M177 612q91 103 243 103q153 0 244 -103q89 -101 89 -262t-89 -262q-91 -103 -244 -103q-152 0 -243 103q-89 101 -89 262t89 262zM420 29q223 0 223 321q0 322 -223 322q-222 0 -222 -322q0 -321 222 -321z" />
    <glyph glyph-name="glyph51" unicode="P" horiz-adv-x="689" 
d="M353 0h-293v25q64 5 79 17q18 15 18 70v476q0 56 -17 71q-14 11 -80 16v25h347q283 0 283 -178t-284 -178h-150v-232q0 -55 19 -70q14 -12 78 -17v-25zM407 655h-121q-30 0 -30 -30v-237h150q174 0 174 134q0 133 -173 133z" />
    <glyph glyph-name="glyph52" unicode="Q" horiz-adv-x="753" 
d="M177 612q91 103 243 103q153 0 244 -103q89 -101 89 -262q0 -144 -74 -244q-76 -100 -203 -116q3 -125 102 -125q52 0 83 33q32 34 32 88h48q0 -82 -54 -129q-49 -43 -127 -43q-87 0 -140 47q-51 46 -54 128q-128 17 -204 117q-74 98 -74 244q0 161 89 262zM420 29
q223 0 223 321q0 322 -223 322q-222 0 -222 -322q0 -321 222 -321z" />
    <glyph glyph-name="glyph53" unicode="R" horiz-adv-x="722" 
d="M461 347l187 -262q39 -54 116 -60v-25h-171l-243 344h-94v-232q0 -55 19 -70q14 -12 78 -17v-25h-293v25q64 5 79 17q18 15 18 70v476q0 56 -17 71q-14 11 -80 16v25h347q283 0 283 -178q0 -162 -229 -175zM407 655h-121q-30 0 -30 -30v-237h150q174 0 174 134
q0 133 -173 133z" />
    <glyph glyph-name="glyph54" unicode="S" horiz-adv-x="686" 
d="M272 467q28 -13 77 -27l43 -12l45 -11q116 -32 165 -68q75 -53 75 -146q0 -95 -77 -157q-76 -61 -195 -61q-122 0 -223 56l-17 -41h-30l-65 215l23 7q102 -194 309 -194q77 0 132 41t53 103q0 68 -75 106q-30 16 -77 29l-43 12l-44 12q-114 30 -164 63q-75 50 -75 137
q0 80 70 132q67 52 169 52q119 0 199 -50l14 35h30l61 -195l-22 -8q-85 175 -276 175q-72 0 -116 -33q-41 -32 -41 -78q0 -59 75 -94z" />
    <glyph glyph-name="glyph55" unicode="T" horiz-adv-x="667" 
d="M297 112v513q0 30 -30 30q-80 0 -123 -26q-39 -25 -90 -103l-22 11l77 185h25q7 -22 30 -22h371q23 0 30 22h25l77 -185l-21 -11q-47 76 -93 103q-46 26 -127 26q-30 0 -30 -30v-513q0 -55 19 -70q14 -12 78 -17v-25h-293v25q64 5 79 17q18 15 18 70z" />
    <glyph glyph-name="glyph56" unicode="U" horiz-adv-x="766" 
d="M238 588v-382q0 -88 56 -133q51 -42 142 -42q78 0 128 42q54 46 54 131v384q0 56 -18 71q-16 11 -79 16v25h245v-25q-64 -5 -78 -16q-19 -15 -19 -71v-384q0 -94 -62 -154q-68 -65 -188 -65q-134 0 -205 55q-75 57 -75 164v384q0 56 -18 71q-16 11 -79 16v25h293v-25
q-64 -5 -78 -16q-19 -15 -19 -71z" />
    <glyph glyph-name="glyph57" unicode="V" horiz-adv-x="665" 
d="M345 0h-57l-229 602q-13 35 -32 52q-20 17 -53 21v25h261v-25q-57 -5 -72 -17q-16 -12 -4 -44l187 -485l183 485q10 27 -11.5 42t-74.5 19v25h222v-25q-68 -8 -90 -68z" />
    <glyph glyph-name="glyph58" unicode="W" horiz-adv-x="975" 
d="M238 700v-25q-59 -5 -75 -22q-15 -19 0 -65l139 -433l146 450q-14 38 -28 51q-16 15 -50 19v25h263v-25q-60 -5 -75 -22q-15 -19 0 -65l139 -433l140 433q15 46 1 65q-15 17 -74 22v25h211v-25q-37 -5 -54 -22t-34 -65l-189 -588h-56l-169 528l-170 -528h-56l-188 588
q-16 48 -30 65q-16 17 -55 22v25h264z" />
    <glyph glyph-name="glyph59" unicode="X" horiz-adv-x="683" 
d="M240 0h-256v25q58 5 88 23q26 16 57 64l156 239l-154 237q-32 50 -48 65q-23 19 -73 22v25h283v-25q-60 -5 -67 -22q-8 -18 22 -64l105 -158l103 157q31 46 23 65q-9 17 -68 22v25h244v-25q-57 -5 -86 -22q-27 -17 -58 -65l-130 -202l179 -274q31 -47 54 -64
q24 -18 69 -23v-25h-286v25q59 5 68 23q8 18 -23 64l-129 195l-128 -196q-29 -45 -17 -64q10 -17 72 -22v-25z" />
    <glyph glyph-name="glyph60" unicode="Y" horiz-adv-x="630" 
d="M158 0v25q64 5 79 17q18 15 18 70v157l-182 319q-29 50 -43 64q-20 18 -56 23v25h263v-25q-54 -5 -65 -23q-14 -20 12 -63l147 -258l140 257q24 44 10 64q-13 18 -66 23v25h215v-25q-40 -4 -62 -22q-17 -15 -44 -65l-170 -316v-160q0 -55 19 -70q14 -12 78 -17v-25h-293z
" />
    <glyph glyph-name="glyph61" unicode="Z" horiz-adv-x="652" 
d="M62 25l443 630h-141q-92 0 -154 -33q-56 -28 -105 -96l-21 11l67 163h486v-25l-442 -630h147q106 0 178 42q53 31 117 110l20 -13l-98 -184h-497v25z" />
    <glyph glyph-name="bracketleft" unicode="[" horiz-adv-x="325" 
d="M170 -200v920h219v-40h-139v-840h139v-40h-219z" />
    <glyph glyph-name="backslash" unicode="\" horiz-adv-x="309" 
d="M43 730l266 -944h-43l-266 944h43z" />
    <glyph glyph-name="bracketright" unicode="]" horiz-adv-x="325" 
d="M261 720v-920h-219v40h139v840h-139v40h219z" />
    <glyph glyph-name="asciicircum" unicode="^" horiz-adv-x="552" 
d="M513 350l-186 233l-185 -233h-38l202 350h43l203 -350h-39z" />
    <glyph glyph-name="underscore" unicode="_" horiz-adv-x="552" 
d="M0 -111v42h553v-42h-553z" />
    <glyph glyph-name="grave" unicode="`" horiz-adv-x="516" 
d="M283 654l92 -145h-41l-133 117q-21 18 -21 29q0 15 16 15h59q18 0 28 -16z" />
    <glyph glyph-name="A" unicode="a" horiz-adv-x="518" 
d="M371 51q-91 -64 -166 -64q-63 0 -99 27q-36 28 -36 80q0 75 85 117q68 32 214 56v60q0 55 -15 78q-17 23 -57 23q-86 0 -104 -73q-13 -48 -50 -48q-39 0 -39 45t53 78q57 36 145 36q156 0 156 -141v-235q0 -54 32 -54q15 0 37 11v-36q-32 -22 -78 -22q-66 0 -78 62z
M369 90v139q-101 -15 -147 -39q-56 -30 -56 -84q0 -68 71 -68q58 0 132 52z" />
    <glyph glyph-name="B" unicode="b" horiz-adv-x="548" 
d="M32 617v20l125 78h31v-300q50 51 133 51q97 0 154 -69q54 -66 54 -171q0 -107 -55 -171q-58 -70 -159 -70q-87 0 -136 52l-44 -52h-35v595q0 37 -31 37h-37zM188 368v-285q40 -55 111 -55q134 0 134 198q0 197 -134 197q-71 0 -111 -55z" />
    <glyph glyph-name="C" unicode="c" horiz-adv-x="482" 
d="M423 307q-37 0 -48 48q-12 72 -83 72q-126 0 -126 -201q0 -90 36 -143q39 -56 111 -56q95 0 145 117l36 -19q-57 -140 -190 -140q-108 0 -173 69q-61 65 -61 172q0 104 63 171q63 69 159 69q76 0 128 -36q49 -33 49 -77q0 -46 -46 -46z" />
    <glyph glyph-name="D" unicode="d" horiz-adv-x="558" 
d="M344 617v20l124 78h31v-638q0 -28 13 -38q12 -9 55 -14v-25q-79 0 -156 -15v52q-46 -52 -133 -52q-97 0 -154 70q-54 66 -54 171t54 171q57 69 154 69q87 0 133 -52v170q0 33 -32 33h-35zM411 83v285q-40 55 -111 55q-134 0 -134 -197q0 -198 134 -198q71 0 111 55z" />
    <glyph glyph-name="E" unicode="e" horiz-adv-x="509" 
d="M493 274h-325q-2 -42 -2 -48q0 -199 156 -199q102 0 151 115l37 -17q-59 -140 -194 -140q-116 0 -183 69q-63 66 -63 172q0 104 60 171q63 69 166 69q89 0 142 -50q55 -51 55 -142zM173 314h231q0 53 -31 84q-29 29 -76 29q-103 0 -124 -113z" />
    <glyph glyph-name="F" unicode="f" horiz-adv-x="300" 
d="M52 410v41h68v59q0 94 52 150q49 55 131 55q35 0 57 -15t22 -38q0 -21 -13 -34q-14 -14 -34 -14q-15 0 -26 8q-10 6 -16 16q-19 24 -37 24q-48 0 -48 -75v-136h98v-41h-98v-333q0 -28 16 -38q13 -9 56 -14v-25h-228v25q43 5 55 14q13 10 13 38v333h-68z" />
    <glyph glyph-name="G" unicode="g" horiz-adv-x="525" 
d="M508 430q-15 0 -31 13l-6 4l-6 4q-7 4 -15 4q-22 0 -38 -31q59 -53 59 -135q0 -77 -50 -125q-53 -51 -141 -51q-38 0 -76 11q-36 8 -58 -4q-20 -11 -20 -28q0 -25 40 -32q38 -8 156 -12q114 -5 159 -32q43 -25 43 -82q0 -64 -60 -98q-61 -35 -163 -35q-227 0 -230 107
q-1 52 55 81q-54 23 -54 81q0 36 21 60q19 22 53 27q-58 49 -58 132q0 78 50 126q52 51 142 51q60 0 101 -22q45 71 109 71q56 0 56 -46q0 -39 -38 -39zM280 152q100 0 100 137q0 138 -100 138q-101 0 -101 -138q0 -137 101 -137zM179 -27q-46 -16 -46 -56q0 -77 168 -77
q75 0 118 21q41 20 41 51q0 30 -32 39q-31 9 -119 10q-81 3 -130 12z" />
    <glyph glyph-name="H" unicode="h" horiz-adv-x="572" 
d="M572 0h-223v25q42 5 54 14q13 10 13 38v254q0 84 -78 84q-69 0 -130 -43v-295q0 -28 13 -38q12 -9 54 -14v-25h-223v25q43 5 55 14q13 10 13 38v507q0 33 -31 33h-37v20l125 78h31v-299q32 20 72 34q44 16 83 16q58 0 93 -25q49 -34 49 -110v-254q0 -28 13 -38
q12 -9 54 -14v-25z" />
    <glyph glyph-name="I" unicode="i" horiz-adv-x="276" 
d="M275 0h-223v25q43 5 55 14q13 10 13 38v258q0 33 -31 33h-37v20l125 78h31v-389q0 -28 13 -38q12 -9 54 -14v-25zM123 667q17 17 43 17t43 -17q16 -16 16 -40q0 -23 -16 -39q-17 -17 -43 -17t-43 17q-16 16 -16 39q0 24 16 40z" />
    <glyph glyph-name="J" unicode="j" horiz-adv-x="266" 
d="M-58 -143q0 19 13 32t32 13q16 0 26 -7q6 -4 16 -17q18 -24 34 -24q52 0 52 75v406q0 33 -31 33h-37v20l125 78h31v-448q0 -106 -53 -164q-50 -53 -131 -53q-77 0 -77 56zM118 667q17 17 43 17t43 -17q16 -16 16 -40q0 -23 -16 -39q-17 -17 -43 -17t-43 17q-16 16 -16 39
q0 24 16 40z" />
    <glyph glyph-name="K" unicode="k" horiz-adv-x="537" 
d="M275 0h-223v25q43 5 55 14q13 10 13 38v507q0 33 -31 33h-37v20l125 78h31v-483l135 136q22 21 16 36q-7 19 -62 22v25h235v-25q-72 -6 -133 -65l-70 -70l166 -207q43 -51 87 -59v-25h-248v25q47 3 58 23q9 16 -9 38l-117 143l-58 -58v-94q0 -28 13 -38q12 -9 54 -14v-25
z" />
    <glyph glyph-name="L" unicode="l" horiz-adv-x="276" 
d="M275 0h-223v25q43 5 55 14q13 10 13 38v507q0 33 -31 33h-37v20l125 78h31v-638q0 -28 13 -38q12 -9 54 -14v-25z" />
    <glyph glyph-name="M" unicode="m" horiz-adv-x="869" 
d="M572 0h-223v25q42 5 54 14q13 10 13 38v254q0 84 -78 84q-69 0 -130 -43v-295q0 -28 13 -38q12 -9 54 -14v-25h-223v25q43 5 55 14q13 10 13 38v258q0 33 -31 33h-37v20l125 78h31v-50q32 20 72 34q44 16 83 16q38 0 68 -12q39 -15 57 -48q86 60 171 60q57 0 94 -25
q48 -34 48 -110v-254q0 -28 13 -38q12 -9 55 -14v-25h-223v25q42 5 54 14q13 10 13 38v254q0 84 -78 84q-69 0 -135 -45q5 -22 5 -39v-254q0 -28 13 -38q12 -9 54 -14v-25z" />
    <glyph glyph-name="N" unicode="n" horiz-adv-x="572" 
d="M572 0h-223v25q42 5 54 14q13 10 13 38v254q0 84 -78 84q-69 0 -130 -43v-295q0 -28 13 -38q12 -9 54 -14v-25h-223v25q43 5 55 14q13 10 13 38v258q0 33 -31 33h-37v20l125 78h31v-50q32 20 72 34q44 16 83 16q58 0 93 -25q49 -34 49 -110v-254q0 -28 13 -38
q12 -9 54 -14v-25z" />
    <glyph glyph-name="O" unicode="o" horiz-adv-x="541" 
d="M135 397q66 69 170 69q103 0 171 -69q65 -68 65 -171q0 -104 -65 -172q-66 -69 -171 -69q-104 0 -170 69q-65 68 -65 172q0 103 65 171zM305 24q140 0 140 202q0 201 -140 201q-139 0 -139 -201q0 -202 139 -202z" />
    <glyph glyph-name="P" unicode="p" horiz-adv-x="553" 
d="M262 -184h-223v25q43 5 55 14q13 10 13 37v443q0 33 -31 33h-40v20l128 78h31v-51q49 51 133 51q97 0 154 -69q54 -66 54 -171q0 -107 -55 -171q-58 -70 -159 -70q-80 0 -127 46v-139q0 -27 13 -37q12 -9 54 -14v-25zM195 368v-285q40 -55 111 -55q134 0 134 198
q0 197 -134 197q-71 0 -111 -55z" />
    <glyph glyph-name="Q" unicode="q" horiz-adv-x="544" 
d="M567 -184h-223v25q42 5 54 14q13 10 13 37v145q-46 -52 -133 -52q-97 0 -154 70q-54 66 -54 171t54 171q57 69 154 69q87 0 137 -56l53 56h31v-574q0 -27 13 -37q12 -9 55 -14v-25zM411 83v285q-40 55 -111 55q-134 0 -134 -197q0 -198 134 -198q71 0 111 55z" />
    <glyph glyph-name="R" unicode="r" horiz-adv-x="401" 
d="M369 354q-22 0 -45 23l-8 8l-8 8q-10 7 -21 7q-45 0 -79 -51v-272q0 -28 13 -38q12 -9 54 -14v-25h-223v25q43 5 55 14q13 10 13 38v258q0 33 -31 33h-37v20l125 78h31v-66q56 66 133 66t77 -61q0 -51 -49 -51z" />
    <glyph glyph-name="S" unicode="s" horiz-adv-x="464" 
d="M196 305q23 -10 51 -16l28 -7l30 -7q76 -20 109 -44q50 -35 50 -98q0 -67 -51 -108q-49 -40 -128 -40q-97 0 -159 48l-12 -33h-26l-36 151l22 7q86 -134 210 -134q45 0 73 19q33 23 33 62q0 42 -50 65q-21 10 -52 17l-29 7l-30 7q-79 20 -111 41q-50 33 -50 93
q0 55 45 93q47 38 118 38q86 0 138 -40l10 25h25l29 -129l-22 -8q-65 114 -174 114q-91 0 -91 -65q0 -38 50 -58z" />
    <glyph glyph-name="T" unicode="t" horiz-adv-x="319" 
d="M311 47v-39q-39 -19 -91 -19q-117 0 -117 117v304h-67v21q56 20 86 62q26 38 38 106h31v-148h120v-41h-120v-305q0 -70 58 -70q31 0 62 12z" />
    <glyph glyph-name="U" unicode="u" horiz-adv-x="564" 
d="M332 368v20l125 78h31v-389q0 -28 13 -38q12 -9 54 -14v-25q-78 0 -155 -15v49q-33 -20 -72 -33q-44 -16 -83 -16q-56 0 -93 26q-49 34 -49 109v215q0 33 -31 33h-36v20l125 78h30v-346q0 -84 79 -84q63 0 130 43v256q0 33 -32 33h-36z" />
    <glyph glyph-name="V" unicode="v" horiz-adv-x="463" 
d="M247 0h-57l-129 339q-18 49 -30 64q-16 18 -49 23v25h220v-25q-50 -5 -58 -20q-7 -13 8 -54l91 -244l95 239q16 38 4 58q-12 17 -55 21v25h176v-25q-29 -4 -46 -22q-18 -21 -35 -65z" />
    <glyph glyph-name="W" unicode="w" horiz-adv-x="762" 
d="M490 0l-118 308l-120 -308h-59l-132 339q-20 52 -30 64q-17 20 -49 23v25h221v-25q-52 -5 -59 -22q-7 -16 12 -65l88 -229l104 256q-26 56 -74 60v25h227v-25q-52 -5 -59 -22q-6 -17 13 -65l88 -231l90 231q18 46 5 65q-12 18 -61 22v25h185v-25q-29 -5 -45 -22
q-17 -20 -36 -65l-131 -339h-60z" />
    <glyph glyph-name="X" unicode="x" horiz-adv-x="512" 
d="M336 72l-90 119l-92 -119q-32 -41 46 -47v-25h-180v25q47 5 80 47l120 156l-111 151q-22 28 -32 34q-17 12 -41 13v25h220v-25q-72 -6 -40 -47l69 -92l71 92q33 41 -45 47v25h185v-25q-53 -5 -85 -47l-100 -129l132 -178q33 -43 69 -47v-25h-215v25q43 1 51 14
q6 11 -12 33z" />
    <glyph glyph-name="Y" unicode="y" horiz-adv-x="463" 
d="M374 339l-171 -427q-43 -111 -140 -111q-40 0 -68 17q-29 18 -29 46q0 19 14 33t35 14q23 0 45 -24q22 -25 39 -25q38 0 64 68l23 59l-133 350q-20 51 -30 65q-16 18 -49 22v25h220v-25q-50 -5 -57 -22q-7 -15 11 -65l87 -230l92 230q18 45 6 65q-10 17 -55 22v25h177
v-25q-29 -5 -45 -22q-17 -20 -36 -65z" />
    <glyph glyph-name="Z" unicode="z" horiz-adv-x="472" 
d="M52 25l279 387h-62q-73 0 -112 -19q-42 -22 -76 -75l-23 10l42 123h348v-25l-279 -387h85q72 0 122 33q39 26 81 86l20 -11l-64 -147h-361v25z" />
    <glyph glyph-name="braceleft" unicode="{" horiz-adv-x="309" 
d="M309 -185v-27q-173 0 -173 199v164q0 47 -18 70q-21 25 -74 25v32q53 0 74 25q18 21 18 69v164q0 199 173 199v-27q-90 0 -90 -113v-165q0 -143 -112 -168q112 -25 112 -169v-165q0 -113 90 -113z" />
    <glyph glyph-name="bar" unicode="|" horiz-adv-x="309" 
d="M266 -214v944h42v-944h-42z" />
    <glyph glyph-name="braceright" unicode="}" horiz-adv-x="309" 
d="M44 -212v27q90 0 90 113v165q0 144 112 169q-112 25 -112 168v165q0 113 -90 113v27q174 0 174 -199v-164q0 -48 18 -69q19 -25 73 -25v-32q-52 0 -73 -25q-18 -21 -18 -70v-164q0 -199 -174 -199z" />
    <glyph glyph-name="asciitilde" unicode="~" horiz-adv-x="516" 
d="M480 414h35q0 -144 -121 -144q-52 0 -110 48l-21 17q-12 11 -21 15q-22 15 -42 15q-58 0 -58 -78h-38q0 143 121 143q50 0 111 -47l22 -17q12 -10 21 -15q23 -15 42 -15q59 0 59 78z" />
    <glyph glyph-name="nbspace" unicode="&#xa0;" horiz-adv-x="251" 
 />
    <glyph glyph-name="currency" unicode="&#xa4;" 
d="M205 244q44 -44 106 -44q61 0 107 44q44 44 44 106q0 61 -44 107q-46 44 -107 44q-62 0 -106 -44q-44 -46 -44 -107q0 -62 44 -106zM141 473l-97 98l46 46l97 -97q53 40 124 40t123 -40l98 98l47 -47l-98 -97q40 -53 40 -124t-40 -124l98 -97l-47 -46l-98 97
q-50 -40 -123 -40q-72 0 -124 40l-97 -97l-46 47l97 96q-40 52 -40 124q0 73 40 123z" />
    <glyph glyph-name="dieresis" unicode="&#xa8;" horiz-adv-x="498" 
d="M239 653q15 15 38 15q24 0 39 -15t15 -37q0 -21 -15 -36q-16 -15 -39 -15t-38 15t-15 36q0 22 15 37zM405 653q15 15 39 15q22 0 39 -15q14 -16 14 -37q0 -20 -14 -36q-17 -15 -39 -15q-24 0 -39 15t-15 36q0 22 15 37z" />
    <glyph glyph-name="copyright" unicode="&#xa9;" horiz-adv-x="791" 
d="M169 608q107 107 258 107t258 -107t107 -258t-107 -258t-258 -107t-258 107t-107 258t107 258zM192 116q97 -97 235 -97q137 0 234 97t97 234q0 138 -97 235t-234 97q-138 0 -235 -97t-97 -235q0 -137 97 -234zM563 562l33 -119l-19 -6q-53 101 -140 101
q-121 0 -121 -186t121 -186q48 0 86 29q36 28 49 71l34 -11q-47 -122 -176 -122q-92 0 -149 61q-57 62 -57 158t57 158q57 61 149 61q61 0 101 -28l8 19h24z" />
    <glyph glyph-name="registered" unicode="&#xae;" horiz-adv-x="449" 
d="M114 658q57 57 138 57q80 0 139 -57q57 -58 57 -139q0 -79 -57 -138q-59 -57 -139 -57q-81 0 -138 57q-58 58 -58 138q0 81 58 139zM136 403q49 -47 116 -47t116 47q48 48 48 116q0 69 -48 117q-49 47 -116 47t-116 -47q-48 -48 -48 -117q0 -68 48 -116zM299 517l42 -62
q11 -17 30 -18v-17h-66l-61 94h-17v-54q0 -13 5 -18q5 -4 21 -5v-17h-104v17q17 1 20 5q5 5 5 18v127q0 14 -4 17q-9 3 -21 4v17h119q83 0 83 -54q0 -45 -52 -54zM258 601h-22q-9 0 -9 -9v-53h31q39 0 39 32q0 30 -39 30z" />
    <glyph glyph-name="macron" unicode="&#xaf;" horiz-adv-x="516" 
d="M264 579v52h251v-52h-251z" />
    <glyph glyph-name="acute" unicode="&#xb4;" horiz-adv-x="516" 
d="M452 509l91 145q10 16 28 16h60q16 0 16 -15q0 -9 -21 -29l-134 -117h-40z" />
    <glyph glyph-name="periodcentered" unicode="&#xb7;" horiz-adv-x="240" 
d="M131 276q18 18 46 18q29 0 45 -18q18 -17 18 -44t-18 -45t-45 -18q-28 0 -46 18q-17 19 -17 45q0 27 17 44z" />
    <glyph glyph-name="AE" unicode="&#xc6;" horiz-adv-x="1065" 
d="M617 45h103q106 0 180 42q62 37 121 110l20 -13l-98 -184h-552v25q64 5 79 17q18 15 18 70v105h-277l-75 -109q-26 -35 -6 -58q16 -20 67 -25v-25h-229v25q55 1 115 87l378 544q-21 15 -95 19v25h578l67 -163l-21 -11q-50 68 -107 96q-62 33 -155 33h-111q-30 0 -30 -30
v-237h162q53 0 72 25q17 19 21 72h26v-239h-26q-4 52 -21 73q-19 24 -72 24h-162v-268q0 -30 30 -30zM488 262v326q0 6 -2 24l-243 -350h245z" />
    <glyph glyph-name="multiply" unicode="&#xd7;" horiz-adv-x="552" 
d="M167 142l-35 35l174 173l-174 174l35 35l174 -174l175 175l35 -35l-175 -175l175 -174l-35 -35l-175 174z" />
    <glyph glyph-name="Oslash" unicode="&#xd8;" horiz-adv-x="753" 
d="M177 612q91 103 243 103q125 0 213 -74l49 59h55l-73 -89q89 -101 89 -261q0 -161 -89 -262q-91 -103 -244 -103q-127 0 -213 73l-48 -58h-55l73 88q-89 101 -89 262t89 262zM230 153l359 434q-57 85 -169 85q-222 0 -222 -322q0 -119 32 -197zM610 546l-358 -433
q57 -84 168 -84q223 0 223 321q0 120 -33 196z" />
    <glyph glyph-name="divide" unicode="&#xf7;" horiz-adv-x="552" 
d="M20 326v50h532v-50h-532zM239 569q18 18 46 18q29 0 45 -18q18 -17 18 -44t-18 -45t-45 -18q-28 0 -46 18q-17 19 -17 45q0 27 17 44zM239 220q18 18 46 18q29 0 45 -18q18 -16 18 -44q0 -27 -18 -45t-45 -18q-28 0 -46 18q-17 19 -17 45q0 27 17 44z" />
    <glyph glyph-name="circumflex" unicode="&#x2c6;" horiz-adv-x="516" 
d="M210 508l100 147q12 18 31 18h43q20 0 30 -18l100 -147h-41l-111 106l-111 -106h-41z" />
    <glyph glyph-name="breve" unicode="&#x2d8;" horiz-adv-x="516" 
d="M480 654h35q-7 -42 -41 -70q-37 -30 -94 -30q-58 0 -95 30q-34 28 -41 70h37q17 -45 99 -45q84 0 100 45z" />
    <glyph glyph-name="dotaccent" unicode="&#x2d9;" horiz-adv-x="498" 
d="M405 653q15 15 38 15q24 0 39 -15t15 -37q0 -21 -15 -36t-39 -15q-23 0 -38 15t-15 36q0 22 15 37z" />
    <glyph glyph-name="ring" unicode="&#x2da;" horiz-adv-x="498" 
d="M327 686q29 29 70 29t72 -29q29 -31 29 -71t-29 -69q-30 -30 -72 -30q-41 0 -70 30q-29 29 -29 69t29 71zM354 571q18 -18 43 -18t45 18q18 18 18 44t-18 44q-20 18 -45 18t-43 -18q-17 -19 -17 -44t17 -44z" />
    <glyph glyph-name="tilde" unicode="&#x2dc;" horiz-adv-x="516" 
d="M485 658h30q-7 -100 -82 -100q-25 0 -64 27l-14 9l-14 9q-16 8 -27 8q-30 0 -38 -44h-32q7 100 82 100q25 0 65 -26l14 -10l14 -9q16 -8 27 -8q31 0 39 44z" />
    <glyph glyph-name="endash" unicode="&#x2013;" horiz-adv-x="552" 
d="M20 330v40h532v-40h-532z" />
    <glyph glyph-name="emdash" unicode="&#x2014;" horiz-adv-x="817" 
d="M20 330v40h797v-40h-797z" />
    <glyph glyph-name="quoteleft" unicode="&#x2018;" horiz-adv-x="240" 
d="M221 472q-18 -18 -46 -18q-29 0 -45 19q-18 19 -18 54q0 47 30 105q29 57 65 90l20 -15q-51 -66 -61 -128q34 0 54 -18q18 -18 18 -45t-17 -44z" />
    <glyph glyph-name="quoteright" unicode="&#x2019;" horiz-adv-x="240" 
d="M131 697q18 18 46 18q29 0 45 -19q18 -20 18 -54q0 -46 -30 -105q-29 -57 -65 -90l-20 15q51 66 61 128q-34 0 -54 18q-18 18 -18 45t17 44z" />
    <glyph glyph-name="quotesinglbase" unicode="&#x201a;" horiz-adv-x="240" 
d="M131 97q18 18 46 18q29 0 45 -19q18 -20 18 -54q0 -46 -30 -105q-29 -57 -65 -90l-20 15q51 66 61 128q-34 0 -54 18q-18 18 -18 45t17 44z" />
    <glyph glyph-name="quotedblleft" unicode="&#x201c;" horiz-adv-x="423" 
d="M405 472q-18 -18 -46 -18q-29 0 -45 19q-18 19 -18 54q0 47 30 105q29 57 65 90l20 -15q-51 -66 -61 -128q34 0 54 -18q18 -18 18 -45t-17 -44zM221 472q-18 -18 -46 -18q-29 0 -45 19q-18 19 -18 54q0 47 30 105q29 57 65 90l20 -15q-51 -66 -61 -128q34 0 54 -18
q18 -18 18 -45t-17 -44z" />
    <glyph glyph-name="quotedblright" unicode="&#x201d;" horiz-adv-x="423" 
d="M314 697q18 18 46 18q29 0 45 -19q18 -20 18 -54q0 -46 -30 -105q-29 -57 -65 -90l-20 15q51 66 61 128q-35 0 -54 18q-18 18 -18 45t17 44zM131 697q18 18 46 18q29 0 45 -19q18 -20 18 -54q0 -46 -30 -105q-29 -57 -65 -90l-20 15q51 66 61 128q-34 0 -54 18
q-18 18 -18 45t17 44z" />
    <glyph glyph-name="quotedblbase" unicode="&#x201e;" horiz-adv-x="423" 
d="M314 97q18 18 46 18q29 0 45 -19q18 -20 18 -54q0 -46 -30 -105q-29 -57 -65 -90l-20 15q51 66 61 128q-35 0 -54 18q-18 18 -18 45t17 44zM131 97q18 18 46 18q29 0 45 -19q18 -20 18 -54q0 -46 -30 -105q-29 -57 -65 -90l-20 15q51 66 61 128q-34 0 -54 18
q-18 18 -18 45t17 44z" />
    <glyph glyph-name="ellipsis" unicode="&#x2026;" horiz-adv-x="719" 
d="M131 97q18 18 46 18q29 0 45 -18q18 -17 18 -44t-18 -45t-45 -18q-28 0 -46 18q-17 19 -17 45q0 27 17 44zM370 97q18 18 46 18t45 -18q18 -17 18 -44t-18 -45t-45 -18q-28 0 -46 18q-17 19 -17 45q0 27 17 44zM610 97q18 18 46 18t45 -18q18 -17 18 -44t-18 -45t-45 -18
q-28 0 -46 18q-17 19 -17 45q0 27 17 44z" />
    <glyph glyph-name="trademark" unicode="&#x2122;" horiz-adv-x="483" 
d="M471 490h-96v11q16 1 21 5q5 5 5 18v139l-64 -173h-15l-62 173v-139q0 -13 5 -18q3 -4 20 -5v-11h-72v11q16 1 21 5q5 5 5 18v142q0 13 -5 18q-5 4 -21 5v11h81l49 -135l49 135h79v-11q-17 -1 -20 -5q-5 -5 -5 -18v-142q0 -13 5 -18q3 -4 20 -5v-11zM82 524v149q0 9 -9 9
q-35 0 -57 -39l-10 4l21 60h11q3 -7 10 -7h116q8 0 9 7h12l20 -60l-10 -4q-23 39 -58 39q-9 0 -9 -9v-149q0 -13 5 -18q6 -4 20 -5v-11h-96v11q17 1 20 5q5 5 5 18z" />
    <glyph glyph-name="infinity" unicode="&#x221e;" horiz-adv-x="857" 
d="M527 196q-41 33 -84 105q-44 -74 -82 -105q-55 -46 -131 -46q-79 0 -137 58q-59 59 -59 142q0 84 59 143q58 58 137 58t135 -46q39 -33 83 -106q42 72 82 106q55 46 131 46q79 0 137 -58q59 -59 59 -143q0 -83 -59 -142q-58 -58 -137 -58t-134 46zM344 243q34 33 74 102
q-44 78 -75 107q-47 46 -113 46q-62 0 -104 -42q-42 -44 -42 -106q0 -64 42 -107q42 -44 104 -44q64 0 114 44zM548 456q-33 -30 -75 -102q43 -75 75 -105q47 -46 113 -46q62 0 104 42q42 43 42 105q0 64 -42 107q-42 44 -104 44q-65 0 -113 -45z" />
    <glyph glyph-name="notequal" unicode="&#x2260;" horiz-adv-x="552" 
d="M20 425v50h274l40 141h52l-40 -141h206v-50h-220l-42 -148h262v-50h-276l-40 -142h-52l40 142h-204v50h218l42 148h-260z" />
    <glyph glyph-name="_4" horiz-adv-x="0" 
 />
    <glyph glyph-name="zero.1" horiz-adv-x="557" 
d="M129 611q66 104 184 104t184 -104q61 -97 61 -261q0 -163 -61 -260q-66 -105 -184 -105t-184 105q-61 97 -61 260q0 164 61 261zM199 119q33 -90 114 -90t114 90q26 75 26 231q0 157 -26 232q-31 90 -114 90t-114 -90q-26 -75 -26 -232q0 -156 26 -231z" />
    <glyph glyph-name="one.1" horiz-adv-x="352" 
d="M352 0h-290v25q64 5 79 17q18 15 18 70v453q0 32 -31 32h-65v21l155 97h37v-603q0 -55 19 -70q14 -12 78 -17v-25z" />
    <glyph glyph-name="two.1" horiz-adv-x="511" 
d="M113 497h-49q0 99 62 161q58 57 149 57q97 0 158 -57t61 -146q0 -108 -95 -221q-71 -85 -222 -199h248q27 0 37 12q13 17 23 75h27l-24 -201h-27q0 10 -3 14q-5 8 -14 8h-372v44l28 26l28 26q10 9 28.5 27.5t27.5 26.5q65 65 102 113q103 133 103 249q0 158 -129 158
q-65 0 -104 -42q-43 -46 -43 -131z" />
    <glyph glyph-name="three.1" horiz-adv-x="525" 
d="M456 461q-32 -43 -90 -59q67 -12 111 -64q45 -52 45 -118q0 -102 -68 -167q-74 -68 -197 -68q-80 0 -134 25q-63 28 -63 78q0 21 14 37q15 15 35 15q26 0 46 -17q7 -7 15 -18l13 -20q34 -55 78 -55q156 0 156 166q0 70 -43 116q-46 51 -128 51h-18v44h24q64 0 100 42
q32 38 32 95q0 53 -28 87q-31 39 -88 39q-55 0 -93 -35q-39 -36 -44 -106h-49q8 85 60 135q54 51 144 51q96 0 152 -49q51 -45 51 -107q0 -57 -33 -98z" />
    <glyph glyph-name="four.1" horiz-adv-x="554" 
d="M440 0h-96v180h-282v34l302 486h76v-475h114v-45h-114v-180zM344 582l-223 -357h223v357z" />
    <glyph glyph-name="five.1" horiz-adv-x="514" 
d="M438 393q68 -68 68 -168q0 -101 -66 -168q-70 -72 -188 -72q-81 0 -138 25q-66 28 -66 78q0 21 14 37q14 15 33 15q27 0 47 -17q11 -11 17 -18l15 -20q37 -55 85 -55q79 0 123 47q41 44 41 119t-52 123t-137 48q-76 0 -134 -31l-25 10l52 354h284q25 0 28 22h27l-13 -113
h-295l-23 -164q45 19 111 19q118 0 192 -71z" />
    <glyph glyph-name="six.1" horiz-adv-x="557" 
d="M501 715v-42q-262 -30 -315 -266q67 44 139 44q110 0 174 -73q59 -67 59 -161q0 -93 -68 -161q-71 -71 -177 -71q-114 0 -180 87q-65 85 -65 221q0 183 127 298q118 107 306 124zM177 353q-4 -28 -4 -72q0 -122 28 -181q35 -71 112 -71q69 0 106 54q34 49 34 134
q0 83 -36 134q-39 55 -109 55q-75 0 -131 -53z" />
    <glyph glyph-name="seven.1" horiz-adv-x="482" 
d="M253 0h-105q35 314 256 609h-281q-27 0 -37 -13q-13 -18 -23 -74h-27l23 200h27q0 -10 3 -14q5 -8 14 -8h380v-43q-195 -273 -230 -657z" />
    <glyph glyph-name="eight.1" horiz-adv-x="557" 
d="M490 448q-30 -33 -93 -63q76 -33 112 -72q49 -52 49 -131q0 -86 -64 -140q-68 -57 -185 -57q-113 0 -180 58q-61 52 -61 124q0 122 148 189q-118 63 -118 184q0 64 51 114q62 61 175 61q94 0 152 -49q53 -45 53 -110q0 -64 -39 -108zM176 73q46 -45 130 -45q82 0 124 42
q35 35 35 87q0 67 -62 111q-22 16 -62 33l-35 14l-35 15q-65 -29 -95 -60q-40 -40 -40 -99q0 -61 40 -98zM236 466q26 -23 104 -56q61 28 89 55q38 36 38 87q0 53 -34 86q-37 34 -103 34q-64 0 -101 -29q-37 -30 -37 -83q0 -56 44 -94z" />
    <glyph glyph-name="nine.1" horiz-adv-x="557" 
d="M125 -15v43q263 29 315 265q-68 -44 -139 -44q-109 0 -173 73q-60 66 -60 161q0 94 68 162q70 70 177 70q113 0 181 -86q64 -83 64 -222q0 -182 -126 -298q-118 -107 -307 -124zM449 346q4 41 4 73q0 123 -28 182q-35 71 -112 71q-69 0 -106 -54q-34 -50 -34 -135
q0 -83 36 -134q39 -55 109 -55q75 0 131 52z" />
    <glyph glyph-name="zero.2" 
d="M149 445q69 86 184 86t184 -86q61 -77 61 -187t-61 -187q-69 -86 -184 -86t-184 86q-61 77 -61 187t61 187zM333 28q140 0 140 230q0 105 -26 160q-34 70 -114 70t-114 -70q-26 -55 -26 -160q0 -230 140 -230z" />
    <glyph glyph-name="one.2" 
d="M578 0h-350v25q83 5 102 17q25 15 25 70v269q0 32 -31 32h-96v21l186 97h37v-419q0 -55 26 -70q19 -12 101 -17v-25z" />
    <glyph glyph-name="one.3" 
d="M355 112v292q0 54 -26 71q-20 11 -101 16v25h350v-25q-82 -5 -101 -16q-26 -17 -26 -71v-292q0 -55 26 -70q19 -12 101 -17v-25h-350v25q83 5 102 17q25 15 25 70z" />
    <glyph glyph-name="two.2" 
d="M149 313h-49q0 99 63 161q59 57 151 57q96 0 155 -44q59 -45 59 -119q0 -156 -285 -281h219q28 0 38 12q13 17 23 75h27l-24 -196h-27q0 10 -3 14q-5 8 -14 8h-374v51q158 90 219 143q98 86 98 172q0 117 -128 117q-65 0 -105 -42q-43 -46 -43 -128z" />
    <glyph glyph-name="three.2" 
d="M398 218q67 -12 110 -64q45 -52 45 -118q0 -102 -68 -167q-73 -68 -196 -68q-80 0 -134 25q-63 28 -63 77q0 22 14 38q14 14 35 14q39 0 74 -54q33 -55 77 -55q156 0 156 166q0 70 -42 116q-46 51 -128 51h-18v44h23q64 0 100 42q32 38 32 95q0 53 -28 87q-32 39 -88 39
q-55 0 -92 -35q-40 -37 -45 -106h-49q7 85 60 135q54 51 144 51q97 0 153 -49q50 -45 50 -107q0 -118 -122 -157z" />
    <glyph glyph-name="four.2" 
d="M464 -184h-96v184h-282v34l299 482h79v-471h114v-45h-114v-184zM368 402l-223 -357h223v357z" />
    <glyph glyph-name="five.2" 
d="M488 209q68 -68 68 -168q0 -101 -66 -168q-71 -72 -187 -72q-81 0 -138 25q-67 28 -67 77q0 22 14 38q14 14 34 14q27 0 47 -17q13 -14 16 -17l15 -20q39 -55 86 -55q79 0 122 46q41 44 41 120q0 75 -52 123q-53 48 -137 48q-75 0 -133 -31l-26 10l52 354h284q26 0 29 22
h27l-14 -113h-295l-22 -164q42 19 110 19q119 0 192 -71z" />
    <glyph glyph-name="six.2" 
d="M521 715v-42q-262 -30 -315 -266q67 44 139 44q110 0 174 -73q59 -67 59 -161q0 -93 -68 -161q-71 -71 -177 -71q-114 0 -180 87q-65 85 -65 221q0 183 127 298q118 107 306 124zM197 353q-4 -28 -4 -72q0 -122 28 -181q35 -71 112 -71q69 0 106 54q34 49 34 134
q0 83 -36 134q-39 55 -109 55q-75 0 -131 -53z" />
    <glyph glyph-name="seven.2" 
d="M341 -184h-105q35 314 256 609h-281q-27 0 -37 -13q-13 -18 -23 -74h-27l23 200h27q0 -10 3 -14q5 -8 14 -8h380v-43q-195 -273 -230 -657z" />
    <glyph glyph-name="eight.2" 
d="M510 448q-30 -33 -93 -63q76 -33 112 -72q49 -52 49 -131q0 -86 -64 -140q-68 -57 -185 -57q-113 0 -180 58q-61 52 -61 124q0 122 148 189q-118 63 -118 184q0 64 51 114q62 61 175 61q94 0 152 -49q53 -45 53 -110q0 -64 -39 -108zM196 73q46 -45 130 -45q82 0 124 42
q35 35 35 87q0 67 -62 111q-22 16 -62 33l-35 14l-35 15q-65 -29 -95 -60q-40 -40 -40 -99q0 -61 40 -98zM256 466q26 -23 104 -56q61 28 89 55q38 36 38 87q0 53 -34 86q-37 34 -103 34q-64 0 -101 -29q-37 -30 -37 -83q0 -56 44 -94z" />
    <glyph glyph-name="nine.2" 
d="M145 -199v42q262 30 315 266q-68 -44 -139 -44q-109 0 -173 73q-60 66 -60 161q0 94 68 162q70 70 177 70q113 0 181 -86q64 -83 64 -222q0 -182 -126 -298q-118 -107 -307 -124zM469 162q4 41 4 73q0 123 -28 182q-35 71 -112 71q-69 0 -106 -54q-34 -50 -34 -135
q0 -83 36 -134q39 -55 109 -55q75 0 131 52z" />
    <glyph glyph-name="zero.3" horiz-adv-x="557" 
d="M129 445q69 86 184 86t184 -86q61 -77 61 -187t-61 -187q-69 -86 -184 -86t-184 86q-61 77 -61 187t61 187zM313 28q140 0 140 230q0 105 -26 160q-34 70 -114 70t-114 -70q-26 -55 -26 -160q0 -230 140 -230z" />
    <glyph glyph-name="one.4" horiz-adv-x="352" 
d="M352 0h-290v25q64 5 79 17q18 15 18 70v269q0 32 -31 32h-66v21l156 97h37v-419q0 -55 19 -70q14 -12 78 -17v-25z" />
    <glyph glyph-name="one.5" horiz-adv-x="352" 
d="M159 112v292q0 56 -18 71q-16 11 -79 16v25h290v-25q-64 -5 -78 -16q-19 -15 -19 -71v-292q0 -55 19 -70q14 -12 78 -17v-25h-290v25q64 5 79 17q18 15 18 70z" />
    <glyph glyph-name="two.3" horiz-adv-x="512" 
d="M113 313h-49q0 99 63 161q58 57 151 57q96 0 155 -44q59 -45 59 -119q0 -156 -285 -281h219q27 0 38 12q13 17 23 75h27l-24 -196h-27q0 10 -3 14q-5 8 -14 8h-374v51q158 90 219 143q98 86 98 172q0 117 -128 117q-65 0 -105 -42q-43 -46 -43 -128z" />
    <glyph glyph-name="three.3" horiz-adv-x="525" 
d="M366 218q67 -12 110 -64q45 -52 45 -118q0 -102 -68 -167q-73 -68 -196 -68q-80 0 -134 25q-63 28 -63 77q0 22 14 38q14 14 35 14q39 0 74 -54q33 -55 77 -55q156 0 156 166q0 70 -42 116q-46 51 -128 51h-18v44h23q64 0 100 42q32 38 32 95q0 53 -28 87q-31 39 -88 39
q-55 0 -92 -35q-40 -37 -45 -106h-49q7 85 60 135q54 51 144 51q97 0 153 -49q50 -45 50 -107q0 -118 -122 -157z" />
    <glyph glyph-name="four.3" horiz-adv-x="536" 
d="M422 -184h-96v184h-282v34l299 482h79v-471h114v-45h-114v-184zM326 402l-223 -357h223v357z" />
    <glyph glyph-name="five.3" horiz-adv-x="515" 
d="M438 209q68 -68 68 -168q0 -101 -66 -168q-70 -72 -187 -72q-81 0 -138 25q-67 28 -67 77q0 22 14 38q14 14 34 14q27 0 47 -17q14 -14 16 -17l15 -20q39 -55 86 -55q79 0 122 46q41 44 41 120q0 75 -52 123q-53 48 -137 48q-75 0 -133 -31l-26 10l52 354h284q26 0 29 22
h27l-14 -113h-295l-22 -164q42 19 110 19q119 0 192 -71z" />
    <glyph glyph-name="six.3" horiz-adv-x="557" 
d="M501 715v-42q-262 -30 -315 -266q67 44 139 44q110 0 174 -73q59 -67 59 -161q0 -93 -68 -161q-71 -71 -177 -71q-114 0 -180 87q-65 85 -65 221q0 183 127 298q118 107 306 124zM177 353q-4 -28 -4 -72q0 -122 28 -181q35 -71 112 -71q69 0 106 54q34 49 34 134
q0 83 -36 134q-39 55 -109 55q-75 0 -131 -53z" />
    <glyph glyph-name="seven.3" horiz-adv-x="482" 
d="M253 -184h-105q35 314 256 609h-281q-27 0 -37 -13q-13 -18 -23 -74h-27l23 200h27q0 -10 3 -14q5 -8 14 -8h380v-43q-195 -273 -230 -657z" />
    <glyph glyph-name="eight.3" horiz-adv-x="557" 
d="M490 448q-30 -33 -93 -63q76 -33 112 -72q49 -52 49 -131q0 -86 -64 -140q-68 -57 -185 -57q-113 0 -180 58q-61 52 -61 124q0 122 148 189q-118 63 -118 184q0 64 51 114q62 61 175 61q94 0 152 -49q53 -45 53 -110q0 -64 -39 -108zM176 73q46 -45 130 -45q82 0 124 42
q35 35 35 87q0 67 -62 111q-22 16 -62 33l-35 14l-35 15q-65 -29 -95 -60q-40 -40 -40 -99q0 -61 40 -98zM236 466q26 -23 104 -56q61 28 89 55q38 36 38 87q0 53 -34 86q-37 34 -103 34q-64 0 -101 -29q-37 -30 -37 -83q0 -56 44 -94z" />
    <glyph glyph-name="nine.3" horiz-adv-x="557" 
d="M125 -199v42q262 30 315 266q-68 -44 -139 -44q-109 0 -173 73q-60 66 -60 161q0 94 68 162q70 70 177 70q113 0 181 -86q64 -83 64 -222q0 -182 -126 -298q-118 -107 -307 -124zM449 162q4 41 4 73q0 123 -28 182q-35 71 -112 71q-69 0 -106 -54q-34 -50 -34 -135
q0 -83 36 -134q39 -55 109 -55q75 0 131 52z" />
    <glyph glyph-name="periodcentered.1" horiz-adv-x="240" 
d="M131 394q18 18 46 18q29 0 45 -18q18 -17 18 -44t-18 -45t-45 -18q-28 0 -46 18q-17 19 -17 45q0 27 17 44z" />
    <glyph glyph-name="bullet.1" horiz-adv-x="280" 
d="M89 429q33 33 79 33t79 -33q32 -32 32 -79q0 -45 -32 -79q-32 -32 -79 -32t-79 32q-33 33 -33 79q0 48 33 79z" />
    <glyph glyph-name="exclam.1" horiz-adv-x="227" 
d="M187 150h-33q-2 64 -8 106q-5 41 -13 74q-19 80 -19 112q0 85 57 85q56 0 56 -85q0 -32 -19 -112q-8 -33 -13 -74q-6 -42 -8 -106zM129 85q17 17 42 17q24 0 41 -17q15 -15 15 -38t-15 -39q-17 -17 -41 -17q-25 0 -42 17q-15 16 -15 39t15 38z" />
    <glyph glyph-name="question.1" horiz-adv-x="385" 
d="M213 213l-1 -63h-37l-1 142q139 0 139 96q0 38 -27 67q-30 30 -76 30q-33 0 -55 -37q-23 -38 -52 -38q-17 0 -29 12q-12 14 -12 32q0 36 36 56q32 17 85 17q94 0 151 -54q51 -48 51 -116q0 -71 -48 -108q-45 -35 -124 -36zM152 85q17 17 42 17q24 0 41 -17q15 -15 15 -38
t-15 -39q-17 -17 -41 -17q-25 0 -42 17q-15 16 -15 39t15 38z" />
    <glyph glyph-name="guillemotleft.1" horiz-adv-x="509" 
d="M324 149l-20 -14l-171 190q-11 14 -11 27q0 17 11 28l171 191l20 -15l-97 -204zM509 149l-20 -14l-171 190q-11 14 -11 27q0 17 11 28l171 191l20 -15l-97 -204z" />
    <glyph glyph-name="guillemotright.1" horiz-adv-x="509" 
d="M140 135l-20 14l97 203l-97 204l20 15l171 -191q11 -11 11 -28q0 -13 -11 -27zM326 135l-20 14l97 203l-97 204l20 15l171 -191q11 -11 11 -28q0 -13 -11 -27z" />
    <glyph glyph-name="guilsinglleft.1" horiz-adv-x="324" 
d="M324 149l-20 -14l-171 190q-11 14 -11 27q0 17 11 28l171 191l20 -15l-97 -204z" />
    <glyph glyph-name="guilsinglright.1" horiz-adv-x="324" 
d="M140 135l-20 14l97 203l-97 204l20 15l171 -191q11 -11 11 -28q0 -13 -11 -27z" />
    <glyph glyph-name="hyphen.case" horiz-adv-x="243" 
d="M20 321v59h223v-59h-223z" />
    <glyph glyph-name="endash.1" horiz-adv-x="552" 
d="M20 330v40h532v-40h-532z" />
    <glyph glyph-name="emdash.1" horiz-adv-x="817" 
d="M20 330v40h797v-40h-797z" />
    <glyph glyph-name="parenleft.case" horiz-adv-x="309" 
d="M137 632q67 120 175 193l22 -26q-82 -61 -135 -187q-54 -126 -54 -262q0 -134 54 -262q52 -124 135 -187l-22 -26q-108 73 -175 193q-75 132 -75 282t75 282z" />
    <glyph glyph-name="braceleft.c2sc" horiz-adv-x="253" 
d="M253 -67v-25q-65 0 -102 36q-39 38 -39 108v122q0 70 -68 70v27q68 0 68 71v121q0 71 39 108q37 36 102 36v-24q-67 0 -67 -79v-120q0 -107 -91 -126q91 -21 91 -127v-121q0 -77 67 -77z" />
    <glyph glyph-name="braceright.c2sc" horiz-adv-x="253" 
d="M44 -92v25q67 0 67 77v121q0 106 90 127q-90 20 -90 126v120q0 79 -67 79v24q64 0 102 -36q39 -37 39 -108v-121q0 -71 68 -71v-27q-68 0 -68 -70v-122q0 -70 -39 -108q-38 -36 -102 -36z" />
    <glyph glyph-name="numbersign.1" horiz-adv-x="434" 
d="M204 0l43 146h-106l-43 -146h-39l43 146h-82v35h92l46 154h-93v35h104l43 146h39l-44 -146h106l44 146h37l-43 -146h83v-35h-93l-46 -154h94v-35h-104l-43 -146h-38zM197 335l-46 -154h106l46 154h-106z" />
    <glyph glyph-name="dollar.1" 
d="M321 -111v96q-108 1 -174 58q-59 50 -59 117q0 41 23 69q23 26 58 26q26 0 42 -16q18 -17 18 -41q0 -27 -19 -43q-16 -13 -42 -15q-16 0 -16 -11q0 -39 55 -70q53 -31 114 -32v293l-37 14q-21 8 -36 15q-42 20 -66 40q-64 52 -64 144q0 66 46 115q55 60 158 66v46h42v-46
q84 -4 137 -51q48 -42 48 -95q0 -42 -23 -70q-23 -26 -56 -26q-27 0 -44 17q-15 16 -15 38q0 24 17 41q16 13 41 15q16 1 16 11q0 32 -37 54q-34 21 -84 24v-270l38 -14q10 -4 38 -16q43 -19 69 -40q69 -56 69 -150q0 -80 -55 -132q-59 -56 -160 -63v-98h-42zM452 251
q-28 27 -89 53v-275q63 9 98 50q29 35 29 79q0 55 -38 93zM322 419v252q-115 -13 -115 -121q0 -85 115 -131z" />
    </font>
</defs>
</svg>
