<?xml version="1.0" standalone="no"?>
<!DOCTYPE svg PUBLIC "-//W3C//DTD SVG 1.1//EN" "http://www.w3.org/Graphics/SVG/1.1/DTD/svg11.dtd" >
<svg xmlns="http://www.w3.org/2000/svg" xmlns:xlink="http://www.w3.org/1999/xlink" version="1.1">
<metadata>
Created by FontForge 20170731 at Fri Jan  1 02:30:17 1904
 By Aleksey,,,
Attribution-ShareAlike 4.0 International 
</metadata>
<defs>
<font id="Bookinsanity-Italic" horiz-adv-x="578" >
  <font-face 
    font-family="Bookinsanity"
    font-weight="400"
    font-style="italic"
    font-stretch="normal"
    units-per-em="1000"
    panose-1="2 0 5 3 7 0 0 9 0 3"
    ascent="750"
    descent="-250"
    x-height="451"
    cap-height="700"
    bbox="-278.485 -215 1267 825"
    underline-thickness="50"
    underline-position="-150"
    slope="-12"
    unicode-range="U+0020-2260"
  />
<missing-glyph horiz-adv-x="789" 
d="M250 0l149 700h539l-149 -700h-539zM444 656l-130 -612h429l130 612h-429z" />
    <glyph glyph-name=".notdef" horiz-adv-x="789" 
d="M250 0l149 700h539l-149 -700h-539zM444 656l-130 -612h429l130 612h-429z" />
    <glyph glyph-name="glyph1" horiz-adv-x="0" 
 />
    <glyph glyph-name="nonmarkingreturn" horiz-adv-x="333" 
 />
    <glyph glyph-name="controlHT" unicode=" " horiz-adv-x="251" 
 />
    <glyph glyph-name="exclam" unicode="!" horiz-adv-x="240" 
d="M241 186h-36q19 101 25 159q7 58 8 105q1 113 11 156q22 109 86 109q62 0 40 -109q-10 -43 -55 -156q-19 -44 -38 -105q-19 -60 -41 -159zM158 97q21 18 49 18q29 0 42 -18q14 -17 8 -44q-5 -27 -27 -45t-49 -18q-29 0 -42 18q-13 17 -8 45q6 28 27 44z" />
    <glyph glyph-name="quotedbl" unicode="&#x22;" horiz-adv-x="423" 
d="M609 436h-28q5 40 6 78q1 18 -1 59q-3 65 1 83q6 26 26 43q17 16 41 16q23 0 35 -16t7 -42q-4 -16 -34 -83q-16 -33 -27 -60q-16 -41 -26 -78zM426 436h-28q4 40 6 78q1 18 -1 59q-3 65 1 83q6 26 26 43q17 16 41 16q23 0 35 -16t7 -42q-4 -16 -34 -83q-17 -33 -27 -60
q-16 -41 -26 -78z" />
    <glyph glyph-name="numbersign" unicode="#" horiz-adv-x="552" 
d="M304 0l100 204h-148l-100 -204h-43l100 204h-107l9 39h119l105 214h-125l9 40h136l101 203h43l-101 -203h147l101 203h43l-101 -203h109l-9 -40h-120l-105 -214h125l-9 -39h-136l-100 -204h-43zM382 457l-105 -214h147l105 214h-147z" />
    <glyph glyph-name="dollar" unicode="$" 
d="M334 -111l21 97q-79 6 -123 48l-21 -34h-30l-19 215l24 7q58 -192 178 -195l62 293l-34 14q-20 8 -33 15q-37 20 -57 40q-53 53 -34 144q14 65 72 116q70 61 171 65l10 46h42l-10 -47q63 -6 90 -39l18 26h29l20 -195l-23 -8q-43 166 -143 175l-58 -270l35 -14
q17 -6 35 -16q40 -19 61 -40q57 -55 37 -150q-17 -80 -85 -133q-69 -56 -172 -63l-21 -97h-42zM542 251q-22 28 -77 53l-59 -275q65 9 109 50q36 34 46 79q11 56 -19 93zM448 419l54 252q-119 -14 -141 -121q-18 -84 87 -131z" />
    <glyph glyph-name="percent" unicode="%" horiz-adv-x="823" 
d="M324 649q56 60 131 60q77 0 106 -60t7 -159q-21 -100 -75 -159q-54 -60 -131 -60q-76 0 -106 60q-28 58 -7 159q23 100 75 159zM315 351q8 -50 53 -50q47 0 76 50q25 44 44 139q21 98 15 140q-7 49 -55 49q-46 0 -74 -49q-24 -42 -45 -140q-20 -99 -14 -139zM276 0
l605 700h43l-605 -700h-43zM706 369q56 60 131 60q77 0 106 -60q29 -59 8 -159q-23 -100 -75 -159q-56 -60 -132 -60t-105 60t-7 159q21 100 74 159zM697 71q8 -50 53 -50q47 0 76 50q24 42 45 139q20 99 14 140q-7 49 -54 49t-75 -49q-25 -43 -44 -140q-21 -97 -15 -139z
" />
    <glyph glyph-name="ampersand" unicode="&#x26;" horiz-adv-x="748" 
d="M613 131q11 -56 27 -77q19 -22 54 -22q44 0 86 15l-8 -36q-46 -25 -120 -25q-96 0 -128 72q-109 -73 -228 -73q-99 0 -147 54q-45 52 -29 128q20 88 95 153q50 43 155 96q-69 77 -53 155q10 51 58 93q57 51 137 51q69 0 102 -40q31 -37 19 -93q-10 -49 -56 -90
q-32 -29 -100 -67q92 -85 128 -252q74 85 95 184q10 46 -9 64q-16 14 -66 19l5 26h239l-5 -26q-51 -4 -75 -21q-27 -19 -43 -69q-40 -123 -133 -219zM513 94l-2 2h2v2q-43 212 -111 285q-143 -83 -166 -190q-14 -63 15 -105q28 -46 98 -46q85 0 164 52zM393 513
q12 -25 49 -58q128 66 141 129q7 40 -10 65q-21 26 -67 26q-44 0 -76 -26q-33 -25 -44 -71q-7 -35 7 -65z" />
    <glyph glyph-name="quotesingle" unicode="'" horiz-adv-x="240" 
d="M426 436h-28q4 40 6 78q1 18 -1 59q-3 65 1 83q6 26 26 43q17 16 41 16q23 0 35 -16t7 -42q-4 -16 -34 -83q-17 -33 -27 -60q-16 -41 -26 -78z" />
    <glyph glyph-name="parenleft" unicode="(" horiz-adv-x="309" 
d="M275 542q92 119 216 193l17 -26q-95 -62 -175 -187q-82 -127 -110 -262q-28 -134 -1 -262q25 -123 95 -187l-28 -26q-92 74 -134 193q-47 132 -15 282t135 282z" />
    <glyph glyph-name="parenright" unicode=")" horiz-adv-x="309" 
d="M165 -22q-93 -120 -217 -193l-16 26q97 65 175 187q80 127 109 262q29 137 2 262q-26 125 -95 187l27 26q93 -74 135 -193q47 -132 15 -282t-135 -282z" />
    <glyph glyph-name="asterisk" unicode="*" horiz-adv-x="384" 
d="M470 625q-9 -16 -16 -31q-7 -16 -16 -42q21 14 39 27q19 17 28 24q31 26 43 33q19 9 33 5q15 -3 20 -17q11 -34 -29 -53q-16 -9 -50 -16l-16 -3q-6 -1 -18 -5q-7 -2 -43 -14q19 -9 37 -15q4 -2 30 -8q32 -7 43 -15q32 -22 7 -53t-58 -12q-10 8 -30 33q-3 4 -8.5 12
t-8.5 11l-27 27q0 -7 -0.5 -20.5t-1.5 -20.5l2 -17l1 -14q3 -35 -1 -49q-8 -41 -45 -41t-29 41q3 15 21 49q11 19 15 31q9 20 15 42q-26 -18 -38 -28q-7 -4 -15 -12l-13 -11q-29 -26 -43 -33q-41 -20 -52 12t29 53q13 7 49 15q29 7 33 8q19 6 42 15q-24 10 -36 14
q-10 4 -16 5l-13 3q-28 7 -43 16q-15 10 -16 24t10 29q11 14 26 17q17 5 31 -5q10 -8 30 -33q4 -5 10.5 -14t6.5 -10l27 -27q3 25 2 42q0 7 -2 31q-3 34 0 49q4 18 18 30q14 11 28 11q37 0 28 -41q-2 -12 -20 -49z" />
    <glyph glyph-name="plus" unicode="+" horiz-adv-x="552" 
d="M158 326l11 50h240l51 240h50l-51 -240h242l-11 -50h-242l-51 -241h-50l51 241h-240z" />
    <glyph glyph-name="comma" unicode="," horiz-adv-x="240" 
d="M134 97q21 18 49 18t41 -19q14 -21 7 -54q-11 -48 -52 -105q-41 -56 -85 -90l-16 15q62 63 88 128q-34 0 -50 18q-14 18 -9 45q6 28 27 44z" />
    <glyph glyph-name="hyphen" unicode="-" horiz-adv-x="243" 
d="M104 196l12 59h223l-12 -59h-223z" />
    <glyph glyph-name="period" unicode="." horiz-adv-x="240" 
d="M158 97q21 18 49 18q29 0 42 -18q14 -17 8 -44q-5 -27 -27 -45t-49 -18q-29 0 -42 18q-13 17 -8 45q6 28 27 44z" />
    <glyph glyph-name="slash" unicode="/" horiz-adv-x="309" 
d="M-90 -214l466 944h43l-466 -944h-43z" />
    <glyph glyph-name="zero" unicode="0" 
d="M319 611q89 104 206 104q118 0 162 -104q40 -96 5 -261q-35 -164 -116 -260q-88 -105 -206 -105t-162 105q-40 97 -6 260q34 164 117 261zM284 119q14 -90 95 -90t133 90q42 73 75 231q35 158 24 232q-13 90 -95 90t-133 -90q-41 -71 -76 -232q-33 -159 -23 -231z" />
    <glyph glyph-name="one" unicode="1" 
d="M578 0h-350l5 25q84 5 106 17q28 15 40 70l96 453q8 32 -24 32h-95l4 21l206 97h37l-128 -603q-12 -55 11 -70q17 -12 97 -17z" />
    <glyph glyph-name="two" unicode="2" 
d="M295 497h-49q21 99 96 161q70 57 161 57q97 0 146 -57q50 -57 30 -146q-22 -107 -142 -221q-90 -86 -264 -199h248q27 0 39 12q16 16 39 75h27l-67 -201h-27q2 9 0 14q-3 8 -12 8h-372l9 44l34 26l33 26q13 10 36 28t32 26q80 67 126 113q130 133 156 249q33 158 -96 158
q-65 0 -113 -42q-52 -46 -70 -131z" />
    <glyph glyph-name="three" unicode="3" 
d="M624 461q-41 -42 -103 -59q64 -12 98 -64q34 -51 20 -118q-22 -103 -104 -167q-88 -68 -211 -68q-80 0 -129 25q-57 28 -46 78q4 22 22 37t38 15q27 0 42 -17q6 -6 11 -18l9 -20q22 -55 66 -55q156 0 192 166q15 70 -19 116q-36 51 -117 51h-18l10 44h24q65 0 108 42
q41 38 53 95q11 53 -10 87q-22 39 -80 39q-56 0 -100 -35q-47 -37 -67 -106h-49q27 85 89 135q65 51 155 51q96 0 142 -49q41 -46 28 -107q-12 -58 -54 -98z" />
    <glyph glyph-name="four" unicode="4" 
d="M502 0h-96l38 180h-282l7 34l406 486h76l-101 -475h114l-10 -45h-114zM530 582l-299 -357h223z" />
    <glyph glyph-name="five" unicode="5" 
d="M602 393q53 -68 32 -168q-22 -101 -102 -168q-86 -72 -203 -72q-82 0 -133 25q-60 28 -49 78q4 22 22 37q17 15 36 15q26 0 43 -17q6 -6 13 -18l11 -20q25 -55 73 -55q78 0 133 47q50 43 67 119q16 75 -26 123q-43 48 -127 48q-78 0 -141 -31l-22 10l127 354h284
q25 0 32 22h27l-37 -113h-295l-57 -164q48 19 115 19q118 0 177 -71z" />
    <glyph glyph-name="six" unicode="6" 
d="M706 715l-9 -42q-267 -30 -371 -266q76 44 148 44q109 0 158 -73q45 -66 25 -161q-19 -93 -102 -161q-86 -71 -192 -71q-114 0 -162 87q-47 84 -18 221q39 182 191 298q140 107 332 124zM305 353q-13 -38 -19 -72q-26 -122 -11 -181q20 -71 97 -71q68 0 118 54
q44 50 62 134t-7 134q-28 55 -98 55q-74 0 -142 -53z" />
    <glyph glyph-name="seven" unicode="7" 
d="M452 0h-105q100 312 385 609h-281q-27 0 -39 -13q-17 -17 -39 -74h-27l65 200h27q-2 -9 0 -14q5 -8 13 -8h380l-9 -43q-254 -274 -370 -657z" />
    <glyph glyph-name="eight" unicode="8" 
d="M625 448q-38 -33 -106 -63q68 -33 97 -72q37 -52 21 -131q-20 -87 -94 -140q-79 -57 -197 -57q-113 0 -168 58q-50 53 -35 124q25 121 189 189q-104 63 -79 184q13 64 75 114q76 61 188 61q94 0 142 -49q43 -44 29 -110t-62 -108zM232 73q36 -45 120 -45q82 0 133 42
q43 35 53 87q15 67 -38 111q-18 15 -55 33l-32 14l-32 15q-71 -28 -108 -60q-47 -40 -61 -99q-12 -60 20 -98zM375 466q22 -23 92 -56q67 28 101 55q46 36 56 87q12 53 -15 86q-30 34 -96 34q-64 0 -107 -29q-45 -31 -55 -83q-12 -57 24 -94z" />
    <glyph glyph-name="nine" unicode="9" 
d="M196 -15l9 43q268 28 371 265q-77 -44 -148 -44q-109 0 -158 73q-46 66 -25 161q19 95 102 162q85 70 192 70q113 0 163 -86q46 -83 17 -222q-39 -183 -190 -298q-142 -107 -333 -124zM597 346q12 41 19 73q26 123 11 182q-20 71 -97 71q-68 0 -118 -54q-44 -52 -62 -135
q-18 -84 7 -134q27 -55 97 -55q75 0 143 52z" />
    <glyph glyph-name="colon" unicode=":" horiz-adv-x="240" 
d="M231 442q23 18 50 18t41 -18q14 -17 9 -44q-6 -27 -28 -45q-23 -18 -49 -18q-28 0 -42 18q-13 17 -7 45q5 27 26 44zM158 97q21 18 49 18q29 0 42 -18q14 -17 8 -44q-5 -27 -27 -45t-49 -18q-29 0 -42 18q-13 17 -8 45q6 28 27 44z" />
    <glyph glyph-name="semicolon" unicode=";" horiz-adv-x="240" 
d="M134 97q21 18 49 18t41 -19q14 -21 7 -54q-11 -48 -52 -105q-41 -56 -85 -90l-16 15q62 63 88 128q-34 0 -50 18q-14 18 -9 45q6 28 27 44zM207 442q23 18 50 18t41 -18q14 -17 9 -44q-6 -27 -28 -45q-23 -18 -49 -18q-28 0 -42 18q-13 17 -7 45q5 27 26 44z" />
    <glyph glyph-name="less" unicode="&#x3c;" horiz-adv-x="552" 
d="M656 170l-12 -55l-446 203l11 55l533 202l-11 -54l-462 -176z" />
    <glyph glyph-name="equal" unicode="=" horiz-adv-x="552" 
d="M158 425l11 50h532l-11 -50h-532zM116 227l11 50h532l-11 -50h-532z" />
    <glyph glyph-name="greater" unicode="&#x3e;" horiz-adv-x="552" 
d="M108 115l12 55l462 175l-387 176l11 54l448 -202l-11 -55z" />
    <glyph glyph-name="question" unicode="?" horiz-adv-x="469" 
d="M411 285l-23 -99h-42l39 189q190 0 221 145q12 59 -19 102q-32 44 -97 44q-41 0 -80 -46q-39 -47 -75 -47q-19 0 -30 14q-11 15 -6 38q9 44 57 68q43 22 107 22q123 0 181 -73q52 -64 32 -156q-21 -98 -95 -151q-68 -49 -170 -50zM303 97q21 18 49 18t42 -18
q14 -17 8 -44q-4 -27 -27 -45t-49 -18q-28 0 -42 18t-9 45q6 28 28 44z" />
    <glyph glyph-name="at" unicode="@" horiz-adv-x="935" 
d="M615 101q-72 -60 -155 -60q-88 0 -113 70q-26 70 20 166q39 86 123 145q85 59 172 59q77 0 98 -51l82 51h28l-150 -324q-13 -30 -13 -47q3 -22 33 -22q70 0 143 75q78 79 100 185q31 150 -54 232q-76 73 -222 73q-169 0 -322 -117q-153 -118 -188 -279q-38 -179 54 -287
q89 -104 261 -104q159 0 334 109l14 -32q-190 -115 -358 -115q-188 0 -285 111q-105 119 -62 318q36 173 206 304q169 130 353 130q166 0 252 -89q89 -95 55 -254q-29 -132 -126 -220q-96 -87 -207 -87q-73 0 -73 60zM627 151l107 231q-5 56 -74 56q-119 0 -200 -177
q-81 -176 36 -176q72 0 131 66z" />
    <glyph glyph-name="A" unicode="A" horiz-adv-x="665" 
d="M444 700h57l101 -602q4 -35 20 -52q15 -16 48 -21l-5 -25h-260l5 25q58 5 76 17q19 13 13 45l-22 128h-272l-76 -128q-16 -28 1.5 -43t70.5 -19l-5 -25h-222l5 25q71 8 105 68zM416 572l-185 -313h238z" />
    <glyph glyph-name="B" unicode="B" horiz-adv-x="704" 
d="M622 51q-88 -51 -217 -51h-345l5 25q65 5 83 17q21 15 33 70l101 476q12 56 -3 71q-13 11 -76 16l6 25h328q141 0 202.5 -43.5t42.5 -129.5q-25 -121 -187 -151q81 -17 116 -64q35 -48 21 -113q-20 -95 -110 -148zM603 311q-34 43 -111 43h-161l-59 -279q-6 -30 24 -30
h119q87 0 142 43q50 39 65 111q15 71 -19 112zM530 655h-105q-30 0 -36 -30l-48 -227h141q163 0 190 129q14 64 -21.5 96t-120.5 32z" />
    <glyph glyph-name="C" unicode="C" horiz-adv-x="700" 
d="M833 700l20 -195l-24 -8q-58 175 -217 175q-116 0 -195 -91q-73 -85 -104 -231q-31 -147 6 -231q41 -90 156 -90q85 0 158 43q78 44 118 122l42 -15q-113 -194 -333 -194q-146 0 -218 103t-39 262q34 158 150 262q115 103 262 103q107 0 166 -50l23 35h29z" />
    <glyph glyph-name="D" unicode="D" horiz-adv-x="764" 
d="M690 596q-50 59 -176 59h-89q-30 0 -36 -30l-117 -550q-6 -30 24 -30h89q127 0 200 60q93 72 129 245q38 172 -24 246zM666 87q-116 -87 -291 -87h-315l5 25q65 5 83 17q21 15 33 70l101 476q12 56 -3 71q-13 11 -76 16l6 25h315q176 0 254 -87q83 -92 46 -263
q-36 -171 -158 -263z" />
    <glyph glyph-name="E" unicode="E" horiz-adv-x="688" 
d="M296 45h104q104 0 187 42q69 35 145 110l18 -13l-137 -184h-553l5 25q65 5 83 17q21 15 33 70l101 476q12 56 -3 71q-13 11 -76 16l6 25h554l32 -163l-23 -11q-34 68 -87 96q-55 33 -148 33h-112q-30 0 -36 -30l-51 -237h162q53 0 79 25q19 19 36 72h26l-51 -239h-26
q8 53 -5 73q-17 24 -68 24h-162l-57 -268q-6 -30 24 -30z" />
    <glyph glyph-name="F" unicode="F" horiz-adv-x="658" 
d="M389 625l-51 -237h162q53 0 79 25q19 19 36 72h26l-51 -239h-26q8 53 -5 73q-17 24 -68 24h-162l-49 -231q-12 -55 4 -70q11 -12 74 -17l-5 -25h-293l5 25q65 5 83 17q21 15 33 70l101 476q12 56 -3 71q-13 11 -76 16l6 25h554l32 -163l-23 -11q-34 68 -87 96
q-55 33 -148 33h-112q-30 0 -36 -30z" />
    <glyph glyph-name="G" unicode="G" horiz-adv-x="759" 
d="M710 0l-26 57q-92 -72 -225 -72q-146 0 -218 103q-71 104 -38 262q34 158 150 262q115 103 262 103q105 0 164 -50l22 35h30l19 -195l-24 -8q-58 175 -213 175q-116 0 -195 -91q-74 -84 -105 -231t6 -231q41 -90 154 -90q61 0 117 25q46 19 72 46l23 108q12 55 -3 70
q-12 12 -74 17l5 25h289l-5 -25q-62 -5 -79 -17q-22 -15 -34 -70l-44 -208h-30z" />
    <glyph glyph-name="H" unicode="H" horiz-adv-x="789" 
d="M789 0h-293l5 25q65 5 83 17q21 15 33 70l49 231h-337l-49 -231q-12 -55 4 -70q11 -12 74 -17l-5 -25h-293l5 25q65 5 83 17q21 15 33 70l101 476q12 56 -3 71q-13 11 -76 16l6 25h293l-6 -25q-64 -5 -81 -16q-22 -15 -34 -71l-43 -200h337l43 200q12 56 -3 71
q-13 11 -76 16l6 25h293l-6 -25q-64 -5 -81 -16q-22 -15 -34 -71l-101 -476q-12 -55 4 -70q11 -12 74 -17z" />
    <glyph glyph-name="I" unicode="I" horiz-adv-x="353" 
d="M353 0h-293l5 25q65 5 83 17q21 15 33 70l101 476q12 56 -3 71q-13 11 -76 16l6 25h293l-6 -25q-64 -5 -81 -16q-22 -15 -34 -71l-101 -476q-12 -55 4 -70q11 -12 74 -17z" />
    <glyph glyph-name="J" unicode="J" horiz-adv-x="344" 
d="M209 588l-119 -560q-50 -233 -251 -233q-67 0 -97 30q-26 26 -19 57q4 24 23 39q16 15 39 15q36 0 48 -45q10 -46 37 -46q42 0 68 35q31 42 50 134l122 574q12 56 -3 71q-13 11 -76 16l6 25h293l-6 -25q-63 -5 -82 -16q-21 -15 -33 -71z" />
    <glyph glyph-name="K" unicode="K" horiz-adv-x="737" 
d="M353 0h-293l5 25q65 5 83 17q21 15 33 70l101 476q12 56 -3 71q-13 11 -76 16l6 25h293l-6 -25q-64 -5 -81 -16q-22 -15 -34 -71l-52 -244l339 258q12 9 19 19q8 13 7 23q-4 26 -75 31l6 25h270l-6 -25q-44 -5 -74 -19q-29 -15 -87 -60l-228 -172l199 -340q16 -28 46 -46
q22 -13 43 -13l-5 -25h-296l5 25q114 7 71 83l-149 249l-98 -73l-36 -172q-12 -55 4 -70q11 -12 74 -17z" />
    <glyph glyph-name="L" unicode="L" horiz-adv-x="639" 
d="M296 45h65q98 0 179 42q68 36 143 110l17 -13l-137 -184h-503l5 25q65 5 83 17q21 15 33 70l101 476q12 56 -3 71q-13 11 -76 16l6 25h293l-6 -25q-64 -5 -81 -16q-22 -15 -34 -71l-109 -513q-6 -30 24 -30z" />
    <glyph glyph-name="M" unicode="M" horiz-adv-x="894" 
d="M894 0h-293l5 25q65 5 83 17q21 15 33 70l109 513l-361 -625h-33l-95 624l-109 -512q-12 -55 4 -70q11 -12 74 -17l-5 -25h-246l5 25q65 5 83 17q22 15 34 70l101 476q12 55 -4 71q-13 11 -76 16l6 25h227l80 -527l305 527h222l-6 -25q-64 -5 -81 -16q-22 -15 -34 -71
l-101 -476q-12 -55 4 -70q11 -12 74 -17z" />
    <glyph glyph-name="N" unicode="N" horiz-adv-x="758" 
d="M307 0h-247l5 25q65 5 83 17q22 15 34 70l101 476q12 55 -4 71q-13 11 -76 16l6 25h218l231 -523l87 411q12 55 -2 71q-11 11 -75 16l6 25h242l-6 -25q-64 -5 -81 -16q-21 -15 -33 -71l-125 -588h-54l-275 624l-109 -512q-12 -55 4 -70q12 -12 75 -17z" />
    <glyph glyph-name="O" unicode="O" horiz-adv-x="753" 
d="M347 612q113 103 265 103t222 -103q68 -101 33 -262q-35 -162 -144 -262q-113 -103 -266 -103q-151 0 -221 103q-68 102 -34 262q35 161 145 262zM466 29q224 0 291 321q69 322 -154 322q-222 0 -291 -322q-68 -321 154 -321z" />
    <glyph glyph-name="P" unicode="P" horiz-adv-x="689" 
d="M353 0h-293l5 25q65 5 83 17q21 15 33 70l101 476q12 55 -2 71q-11 11 -77 16l6 25h347q142 0 203 -44.5t42 -133.5q-37 -178 -322 -178h-150l-49 -232q-12 -55 4 -70q11 -12 74 -17zM546 655h-121q-30 0 -36 -30l-51 -237h150q174 0 203 134q14 67 -22.5 100t-122.5 33z
" />
    <glyph glyph-name="Q" unicode="Q" horiz-adv-x="753" 
d="M350 612q113 103 265 103t222 -103q68 -101 33 -262q-30 -144 -125 -244q-96 -99 -228 -116q-24 -125 75 -125q51 0 90 33t51 88h48q-17 -82 -81 -129q-59 -43 -137 -43q-88 0 -130 47q-41 47 -26 128q-125 17 -179 117q-55 98 -23 244q35 161 145 262zM469 29
q223 0 291 321q69 322 -154 322q-222 0 -291 -322q-67 -321 154 -321z" />
    <glyph glyph-name="R" unicode="R" horiz-adv-x="722" 
d="M535 347l131 -262q29 -54 103 -60l-5 -25h-171l-170 344h-94l-49 -232q-12 -55 4 -70q11 -12 74 -17l-5 -25h-293l5 25q65 5 83 17q21 15 33 70l101 476q12 55 -2 71q-11 11 -77 16l6 25h347q142 0 203 -44.5t42 -133.5q-35 -162 -266 -175zM546 655h-121q-30 0 -36 -30
l-51 -237h150q174 0 203 134q14 67 -22.5 100t-122.5 33z" />
    <glyph glyph-name="S" unicode="S" horiz-adv-x="686" 
d="M417 467q25 -13 72 -27l40 -12l43 -11q108 -32 150 -68q64 -52 44 -146q-19 -95 -110 -157q-88 -61 -208 -61q-122 0 -211 56l-26 -41h-30l-19 215l24 7q62 -194 268 -194q77 0 141 41q61 40 75 103q14 69 -53 106q-27 16 -71 29l-40 12l-42 12q-108 30 -150 63
q-65 50 -46 137q16 79 98 132q79 52 180 52q120 0 188 -50l22 35h30l19 -195l-23 -8q-49 175 -239 175q-72 0 -123 -33q-47 -31 -58 -78q-13 -59 55 -94z" />
    <glyph glyph-name="T" unicode="T" horiz-adv-x="667" 
d="M435 112l109 513q6 30 -24 30q-81 0 -128 -26t-112 -103l-20 11l116 185h25q3 -22 26 -22h371q24 0 34 22h25l38 -185l-23 -11q-31 75 -71 103q-41 26 -122 26q-30 0 -36 -30l-109 -513q-12 -55 4 -70q11 -12 74 -17l-5 -25h-293l5 25q65 5 83 17q21 15 33 70z" />
    <glyph glyph-name="U" unicode="U" horiz-adv-x="766" 
d="M481 588l-81 -382q-19 -87 28 -133q42 -42 133 -42q79 0 137 42q64 46 81 131l82 384q12 56 -3 71q-13 11 -76 16l6 25h245l-6 -25q-64 -5 -81 -16q-22 -15 -34 -71l-82 -384q-19 -93 -94 -154q-82 -65 -202 -65q-134 0 -193 55q-64 57 -41 164l82 384q12 56 -3 71
q-13 11 -76 16l6 25h293l-6 -25q-64 -5 -81 -16q-22 -15 -34 -71z" />
    <glyph glyph-name="V" unicode="V" horiz-adv-x="665" 
d="M488 0h-57l-101 602q-6 35 -21 52t-49 21l6 25h261l-6 -25q-57 -5 -75 -17q-19 -12 -13 -44l83 -485l287 485q16 27 -2.5 42t-71.5 19l6 25h222l-6 -25q-69 -8 -104 -68z" />
    <glyph glyph-name="W" unicode="W" horiz-adv-x="975" 
d="M530 700l-6 -25q-60 -5 -79 -22q-19 -19 -14 -65l47 -433l242 450q-6 37 -18 51q-12 15 -46 19l6 25h263l-6 -25q-60 -5 -79 -22q-18 -19 -14 -65l47 -433l232 433q26 47 15 65q-10 17 -70 22l6 25h211l-6 -25q-36 -5 -58 -22q-22 -18 -48 -65l-314 -588h-56l-57 528
l-282 -528h-56l-63 588q-6 49 -16 65q-13 17 -51 22l6 25h264z" />
    <glyph glyph-name="X" unicode="X" horiz-adv-x="683" 
d="M240 0h-256l5 25q61 5 93 23q28 15 71 64l207 239l-104 237q-22 52 -34 65q-19 19 -69 22l6 25h283l-6 -25q-59 -5 -71 -22q-12 -16 8 -64l72 -158l136 157q41 48 37 65t-64 22l6 25h244l-6 -25q-57 -5 -90 -22q-31 -18 -72 -65l-173 -202l121 -274q22 -48 40 -64
q20 -18 64 -23l-5 -25h-286l5 25q60 5 73 23q12 17 -9 64l-88 195l-169 -196q-39 -44 -31 -64q7 -18 67 -22z" />
    <glyph glyph-name="Y" unicode="Y" horiz-adv-x="630" 
d="M301 0l5 25q65 5 83 17q21 15 33 70l33 157l-114 319q-17 47 -29 64q-15 18 -52 23l6 25h263l-6 -25q-53 -5 -69 -23q-18 -20 -2 -63l92 -258l195 257q33 44 24 64q-8 18 -62 23l6 25h215l-6 -25q-41 -5 -66 -22q-24 -17 -58 -65l-237 -316l-34 -160q-12 -55 4 -70
q11 -12 74 -17l-5 -25h-293z" />
    <glyph glyph-name="Z" unicode="Z" horiz-adv-x="652" 
d="M67 25l577 630h-141q-93 0 -161 -33q-60 -28 -125 -96l-19 11l102 163h486l-6 -25l-575 -630h147q106 0 186 42q60 31 141 110l17 -13l-137 -184h-497z" />
    <glyph glyph-name="bracketleft" unicode="[" horiz-adv-x="325" 
d="M84 -200l196 920h219l-8 -40h-139l-179 -840h139l-9 -40h-219z" />
    <glyph glyph-name="backslash" unicode="\" horiz-adv-x="309" 
d="M353 730l66 -944h-43l-66 944h43z" />
    <glyph glyph-name="bracketright" unicode="]" horiz-adv-x="325" 
d="M371 720l-196 -920h-219l9 40h139l179 840h-139l8 40h219z" />
    <glyph glyph-name="asciicircum" unicode="^" horiz-adv-x="552" 
d="M661 350l-136 233l-235 -233h-38l277 350h43l128 -350h-39z" />
    <glyph glyph-name="underscore" unicode="_" horiz-adv-x="552" 
d="M-48 -111l9 42h553l-9 -42h-553z" />
    <glyph glyph-name="grave" unicode="`" horiz-adv-x="516" 
d="M559 654l61 -145h-41l-108 117q-17 18 -15 29q3 15 19 15h59q18 0 25 -16z" />
    <glyph glyph-name="a" unicode="a" horiz-adv-x="518" 
d="M391 51q-106 -64 -180 -64q-63 0 -93 27q-29 28 -19 80q17 75 110 117q76 32 226 56l13 60q11 57 1 78q-11 23 -52 23q-86 0 -120 -73q-23 -48 -60 -48q-39 0 -29 45q9 45 69 78q65 36 153 36q156 0 126 -141l-50 -235q-10 -54 21 -54q15 0 39 11l-8 -36q-37 -22 -82 -22
q-33 0 -49.5 15.5t-15.5 46.5zM397 90l30 139q-105 -15 -156 -39q-63 -31 -73 -84q-15 -68 56 -68q58 0 143 52z" />
    <glyph glyph-name="b" unicode="b" horiz-adv-x="548" 
d="M228 617l4 20l142 78h31l-64 -300q60 51 144 51q97 0 139 -69q40 -66 18 -171q-23 -107 -91 -171q-73 -70 -174 -70q-88 0 -125 52l-55 -52h-35l126 595q7 37 -23 37h-37zM331 368l-60 -285q28 -55 99 -55q134 0 176 198q42 197 -92 197q-71 0 -123 -55z" />
    <glyph glyph-name="c" unicode="c" horiz-adv-x="482" 
d="M514 307q-38 0 -38 48q4 72 -67 72q-125 0 -169 -201q-19 -91 6 -143q27 -56 99 -56q95 0 170 117l32 -19q-87 -140 -220 -140q-109 0 -159 69q-46 66 -24 172q22 104 99 171q78 69 174 69q77 0 120 -36q42 -33 33 -77q-10 -46 -56 -46z" />
    <glyph glyph-name="d" unicode="d" horiz-adv-x="558" 
d="M501 617l4 20l141 78h31l-136 -638q-5 -28 5 -38q11 -9 52 -14l-5 -25q-79 0 -159 -15l11 52q-58 -52 -144 -52q-97 0 -139 70q-40 66 -18 171t90 171q72 69 169 69q86 0 122 -52l36 170q7 33 -25 33h-35zM455 83l60 285q-28 55 -99 55q-134 0 -176 -197
q-42 -198 92 -198q71 0 123 55z" />
    <glyph glyph-name="e" unicode="e" horiz-adv-x="509" 
d="M577 274h-325q-9 -32 -12 -48q-42 -199 114 -199q102 0 175 115l34 -17q-89 -140 -224 -140q-117 0 -169 69q-48 66 -26 172q22 104 96 171q78 69 181 69q89 0 131 -50q45 -50 25 -142zM266 314h231q11 53 -13 84q-23 29 -70 29q-103 0 -148 -113z" />
    <glyph glyph-name="f" unicode="f" horiz-adv-x="300" 
d="M139 410l9 41h68l12 59q20 93 84 150q61 55 143 55q35 0 54 -15q19 -14 14 -38q-4 -20 -21 -34t-36 -14q-14 0 -25 8q-8 5 -12 16q-14 24 -32 24q-47 0 -64 -75l-29 -136h98l-9 -41h-98l-71 -333q-5 -28 8 -38q12 -9 53 -14l-5 -25h-228l5 25q43 5 58 14q16 10 21 38
l71 333h-68z" />
    <glyph glyph-name="g" unicode="g" horiz-adv-x="525" 
d="M561 430q-15 0 -28 13l-5 4l-5 4q-5 4 -14 4q-21 0 -45 -31q48 -52 30 -135q-17 -78 -76 -125q-64 -51 -152 -51q-38 0 -74 11q-35 8 -58 -4q-23 -11 -26 -28q-6 -24 33 -32q35 -8 153 -12q113 -5 152 -32q38 -26 26 -82q-14 -64 -81 -98q-68 -35 -170 -35
q-113 0 -165.5 27t-42.5 80q11 53 73 81q-49 22 -37 81q7 35 34 60q24 23 58 27q-47 49 -30 132q16 78 77 126q64 51 153 51q59 0 96 -22q60 71 124 71q28 0 39.5 -11.5t7.5 -34.5q-9 -39 -47 -39zM274 152q100 0 129 137q30 138 -70 138q-101 0 -131 -138q-29 -137 72 -137
zM135 -27q-49 -16 -58 -56q-8 -38 30 -57.5t122 -19.5q74 0 122 21q46 19 52 51q7 30 -23 39q-29 9 -117 10q-80 3 -128 12z" />
    <glyph glyph-name="h" unicode="h" horiz-adv-x="572" 
d="M572 0h-223l5 25q44 5 57 14q16 10 21 38l54 254q18 84 -60 84q-69 0 -139 -43l-63 -295q-5 -28 5 -38q11 -9 51 -14l-5 -25h-223l5 25q43 5 58 14q16 10 21 38l108 507q8 33 -24 33h-37l4 20l142 78h31l-64 -299q36 19 80 34q47 16 86 16q57 0 88 -25q41 -35 25 -110
l-54 -254q-5 -28 5 -38q11 -9 51 -14z" />
    <glyph glyph-name="i" unicode="i" horiz-adv-x="276" 
d="M275 0h-223l5 25q43 5 58 14q16 10 21 38l55 258q7 33 -24 33h-37l4 20l142 78h31l-83 -389q-5 -28 5 -38q11 -9 51 -14zM265 667q20 17 46 17t40 -17q12 -16 7 -40q-4 -23 -24 -39q-22 -17 -47 -17t-39 17q-13 16 -8 39q4 22 25 40z" />
    <glyph glyph-name="j" unicode="j" horiz-adv-x="266" 
d="M-230 -143q3 19 19 32t35 13q15 0 25 -7q6 -4 12 -17q14 -24 29 -24q52 0 68 75l86 406q8 33 -24 33h-37l4 20l142 78h31l-95 -448q-22 -106 -88 -164q-61 -53 -142 -53q-38 0 -54.5 14t-10.5 42zM118 667q20 17 46 17t40 -17q12 -16 7 -40q-5 -23 -24 -39
q-22 -17 -47 -17t-39 17q-13 16 -8 39q4 22 25 40z" />
    <glyph glyph-name="k" unicode="k" horiz-adv-x="537" 
d="M275 0h-223l5 25q43 5 58 14q16 10 21 38l108 507q8 33 -24 33h-37l4 20l142 78h31l-103 -483l164 136q27 21 24 36q-4 19 -57 22l5 25h235l-5 -25q-74 -6 -147 -65l-85 -70l122 -207q31 -51 74 -59l-5 -25h-248l5 25q49 3 63 23q13 15 -1 38l-86 143l-71 -58l-20 -94
q-5 -28 5 -38q11 -9 51 -14z" />
    <glyph glyph-name="l" unicode="l" horiz-adv-x="276" 
d="M275 0h-223l5 25q43 5 58 14q16 10 21 38l108 507q8 33 -24 33h-37l4 20l142 78h31l-136 -638q-5 -28 5 -38q11 -9 51 -14z" />
    <glyph glyph-name="m" unicode="m" horiz-adv-x="869" 
d="M572 0h-223l5 25q44 5 57 14q16 10 21 38l54 254q18 84 -60 84q-69 0 -139 -43l-63 -295q-5 -28 5 -38q11 -9 51 -14l-5 -25h-223l5 25q43 5 58 14q16 10 21 38l55 258q7 33 -24 33h-37l4 20l142 78h31l-11 -50q36 19 80 34q47 16 86 16q38 0 66 -12q36 -16 46 -48
q98 60 184 60q58 0 89 -25q41 -35 24 -110l-54 -254q-5 -28 5 -38q11 -9 52 -14l-5 -25h-223l5 25q42 5 57 14q16 10 21 38l54 254q18 84 -60 84q-69 0 -144 -45q0 -22 -4 -39l-54 -254q-5 -28 5 -38q11 -9 51 -14z" />
    <glyph glyph-name="n" unicode="n" horiz-adv-x="572" 
d="M572 0h-223l5 25q44 5 57 14q16 10 21 38l54 254q18 84 -60 84q-69 0 -139 -43l-63 -295q-5 -28 5 -38q11 -9 51 -14l-5 -25h-223l5 25q43 5 58 14q16 10 21 38l55 258q7 33 -24 33h-37l4 20l142 78h31l-11 -50q36 19 80 34q47 16 86 16q57 0 88 -25q41 -35 25 -110
l-54 -254q-5 -28 5 -38q11 -9 51 -14z" />
    <glyph glyph-name="o" unicode="o" horiz-adv-x="541" 
d="M245 397q81 69 185 69t156 -69q51 -68 29 -171q-23 -105 -102 -172q-79 -69 -185 -69q-104 0 -156 69q-50 69 -28 172q23 105 101 171zM336 24q140 0 183 202q43 201 -97 201q-138 0 -182 -201q-43 -202 96 -202z" />
    <glyph glyph-name="p" unicode="p" horiz-adv-x="553" 
d="M187 -184h-223l5 25q43 5 58 14q15 11 21 37l94 443q8 33 -24 33h-40l4 20l145 78h31l-11 -51q60 51 144 51q97 0 139 -69q40 -66 18 -171q-23 -107 -91 -171q-73 -70 -174 -70q-80 0 -117 46l-30 -139q-5 -27 5 -37q11 -9 51 -14zM237 368l-60 -285q28 -55 99 -55
q134 0 176 198q42 197 -92 197q-71 0 -123 -55z" />
    <glyph glyph-name="q" unicode="q" horiz-adv-x="544" 
d="M554 -184h-223l5 25q42 5 57 14q16 10 21 37l31 145q-58 -52 -144 -52q-97 0 -139 70q-40 66 -18 171t90 171q72 69 169 69q87 0 125 -56l65 56h31l-122 -574q-6 -26 5 -37q11 -9 52 -14zM455 83l60 285q-28 55 -99 55q-134 0 -176 -197q-42 -198 92 -198q71 0 123 55z
" />
    <glyph glyph-name="r" unicode="r" horiz-adv-x="401" 
d="M444 354q-23 0 -40 23l-6 8l-6 8q-8 7 -20 7q-45 0 -90 -51l-58 -272q-5 -28 5 -38q11 -9 51 -14l-5 -25h-223l5 25q43 5 58 14q16 10 21 38l55 258q7 33 -24 33h-37l4 20l142 78h31l-14 -66q69 66 147 66q38 0 54.5 -15t9.5 -46q-10 -51 -60 -51z" />
    <glyph glyph-name="s" unicode="s" horiz-adv-x="464" 
d="M293 305q22 -10 47 -16l27 -7l28 -7q74 -20 100 -44q43 -34 29 -98q-13 -67 -74 -108q-58 -40 -136 -40q-96 0 -149 48l-19 -33h-26l-4 151l24 7q56 -134 181 -134q45 0 77 19q39 23 46 62q9 42 -36 65q-20 10 -48 17l-28 7l-28 7q-75 20 -103 41q-43 33 -30 93
q12 55 65 93q56 38 126 38q87 0 130 -40l15 25h25l1 -129l-23 -8q-40 114 -150 114q-91 0 -105 -65q-8 -39 38 -58z" />
    <glyph glyph-name="t" unicode="t" horiz-adv-x="319" 
d="M386 47l-8 -39q-42 -19 -95 -19q-117 0 -92 117l64 304h-67l5 21q59 19 99 62q34 37 60 106h31l-31 -148h120l-9 -41h-120l-65 -305q-15 -70 43 -70q30 0 65 12z" />
    <glyph glyph-name="u" unicode="u" horiz-adv-x="564" 
d="M487 368l4 20l142 78h31l-83 -389q-5 -28 5 -38q11 -9 51 -14l-5 -25q-78 0 -158 -15l10 49q-38 -20 -79 -33q-47 -16 -86 -16q-56 0 -88 26q-41 35 -25 109l45 215q7 33 -24 33h-36l4 20l142 78h30l-73 -346q-18 -84 61 -84q63 0 139 43l54 256q8 33 -25 33h-36z" />
    <glyph glyph-name="v" unicode="v" horiz-adv-x="463" 
d="M338 0h-57l-57 339q-7 46 -16 64q-11 18 -44 23l5 25h220l-5 -25q-50 -5 -63 -20q-11 -14 -3 -54l39 -244l146 239q24 38 16 58q-7 16 -50 21l5 25h176l-5 -25q-29 -5 -51 -22q-21 -20 -49 -65z" />
    <glyph glyph-name="w" unicode="w" horiz-adv-x="762" 
d="M581 0l-53 308l-185 -308h-59l-60 339q-7 48 -16 64q-12 20 -44 23l5 25h221l-5 -25q-52 -4 -64 -22q-11 -17 -2 -65l39 -229l159 256q-14 56 -61 60l5 25h227l-5 -25q-52 -4 -64 -22q-10 -16 -1 -65l39 -231l139 231q28 45 19 65q-7 17 -56 22l5 25h185l-5 -25
q-30 -5 -50 -22q-24 -22 -50 -65l-203 -339h-60z" />
    <glyph glyph-name="x" unicode="x" horiz-adv-x="512" 
d="M351 72l-64 119l-118 -119q-41 -41 36 -47l-5 -25h-180l5 25q47 4 90 47l153 156l-78 151q-14 26 -25 34q-15 12 -38 13l5 25h220l-5 -25q-37 -3 -49.5 -15t-0.5 -32l49 -92l91 92q41 41 -35 47l5 25h185l-5 -25q-54 -4 -95 -47l-128 -129l94 -178q24 -42 59 -47l-5 -25
h-215l5 25q43 1 54 14q8 11 -5 33z" />
    <glyph glyph-name="y" unicode="y" horiz-adv-x="463" 
d="M411 339l-262 -427q-67 -111 -163 -111q-40 0 -65 17q-25 18 -19 46q4 20 21 33q17 14 38 14q23 0 40 -24q18 -25 34 -25q39 0 78 68l36 59l-59 350q-7 47 -16 65q-12 17 -44 22l5 25h220l-5 -25q-52 -5 -62 -22q-11 -15 -3 -65l38 -230l141 230q28 44 20 65
q-7 18 -50 22l5 25h177l-5 -25q-30 -5 -50 -22q-24 -22 -50 -65z" />
    <glyph glyph-name="z" unicode="z" horiz-adv-x="472" 
d="M57 25l362 387h-62q-74 0 -116 -19q-45 -20 -92 -75l-21 10l68 123h348l-5 -25l-362 -387h85q72 0 129 33q48 28 100 86l17 -11l-95 -147h-361z" />
    <glyph glyph-name="braceleft" unicode="{" horiz-adv-x="309" 
d="M317 -185l-6 -27q-173 0 -131 199l35 164q10 48 -3 70q-16 25 -69 25l7 32q54 0 79 25q23 21 33 69l35 164q42 199 215 199l-6 -27q-90 0 -114 -113l-35 -165q-30 -142 -147 -168q106 -25 76 -169l-35 -165q-24 -113 66 -113z" />
    <glyph glyph-name="bar" unicode="|" horiz-adv-x="309" 
d="M176 -214l200 944h42l-200 -944h-42z" />
    <glyph glyph-name="braceright" unicode="}" horiz-adv-x="309" 
d="M-46 -212l6 27q90 0 114 113l35 165q30 144 148 169q-107 26 -77 168l35 165q24 113 -66 113l6 27q174 0 132 -199l-35 -164q-10 -48 3 -69q15 -25 68 -25l-7 -32q-53 0 -78 -25q-23 -21 -33 -70l-35 -164q-42 -199 -216 -199z" />
    <glyph glyph-name="asciitilde" unicode="~" horiz-adv-x="516" 
d="M629 414h35q-32 -144 -152 -144q-51 0 -99 48l-18 17q-11 11 -18 15q-19 15 -38 15q-59 0 -75 -78h-38q30 143 151 143q51 0 101 -47l19 -17q11 -10 18 -15q19 -15 38 -15q59 0 76 78z" />
    <glyph glyph-name="nbspace" unicode="&#xa0;" horiz-adv-x="251" 
 />
    <glyph glyph-name="currency" unicode="&#xa4;" 
d="M285 244q35 -44 97 -44q61 0 116 44q52 43 66 106q14 62 -21 107q-36 44 -98 44t-115 -44q-54 -46 -67 -107t22 -106zM270 473l-77 98l56 46l77 -97q61 40 132 40t115 -40l118 98l37 -47l-118 -97q28 -53 13 -124q-13 -70 -66 -124l77 -97l-56 -46l-78 97
q-58 -40 -131 -40q-72 0 -116 40l-117 -97l-36 47l117 96q-29 53 -14 124q17 73 67 123z" />
    <glyph glyph-name="dieresis" unicode="&#xa8;" horiz-adv-x="498" 
d="M504 653q18 15 41 15q24 0 36 -15q12 -14 7 -37q-4 -20 -23 -36q-19 -15 -42 -15t-35 15t-7 36q4 21 23 37zM670 653q18 15 42 15q22 0 36 -15q10 -15 6 -37q-4 -20 -22 -36q-20 -15 -42 -15q-24 0 -36 15t-7 36q4 21 23 37z" />
    <glyph glyph-name="copyright" unicode="&#xa9;" horiz-adv-x="791" 
d="M340 608q131 107 281 107q151 0 235 -107q84 -106 52 -258q-31 -151 -161 -258q-131 -107 -281 -107q-151 0 -235 107q-85 106 -53 258t162 258zM259 116q76 -97 214 -97q137 0 255 97q118 98 146 234q30 137 -47 235q-76 97 -213 97q-138 0 -256 -97q-117 -97 -147 -235
q-29 -136 48 -234zM724 562l8 -119l-20 -6q-32 101 -119 101q-121 0 -160 -186q-41 -186 81 -186q48 0 92 29q44 30 65 71l31 -11q-72 -122 -202 -122q-93 0 -136 61q-44 62 -23 158q19 96 90 158q70 61 162 61q61 0 95 -28l12 19h24z" />
    <glyph glyph-name="registered" unicode="&#xae;" horiz-adv-x="449" 
d="M347 658q69 57 150 57t127 -57q45 -58 27 -139q-16 -79 -86 -138q-71 -57 -151 -57q-81 0 -126 57q-46 58 -29 138q18 81 88 139zM315 403q38 -47 106 -47q67 0 126 47q58 48 72 116q15 68 -23 117q-38 47 -106 47q-67 0 -126 -47q-58 -48 -73 -117q-14 -68 24 -116z
M502 517l29 -62q8 -17 26 -18l-4 -17h-66l-41 94h-17l-11 -54q-3 -14 1 -18q3 -4 20 -5l-4 -17h-104l4 17q16 1 21 5q6 4 9 18l27 127q3 14 -1 17q-5 3 -20 4l4 17h119q41 0 59 -13.5t12 -40.5q-9 -45 -63 -54zM479 601h-22q-9 0 -11 -9l-11 -53h31q39 0 45 32q4 15 -4 22.5
t-28 7.5z" />
    <glyph glyph-name="macron" unicode="&#xaf;" horiz-adv-x="516" 
d="M510 579l11 52h251l-11 -52h-251z" />
    <glyph glyph-name="acute" unicode="&#xb4;" horiz-adv-x="516" 
d="M668 509l122 145q13 16 31 16h60q16 0 13 -15q-2 -10 -27 -29l-159 -117h-40z" />
    <glyph glyph-name="periodcentered" unicode="&#xb7;" horiz-adv-x="240" 
d="M234 276q21 18 49 18q29 0 42 -18q14 -17 8 -44q-5 -27 -27 -45t-49 -18q-29 0 -42 18q-13 17 -8 45q6 28 27 44z" />
    <glyph glyph-name="AE" unicode="&#xc6;" horiz-adv-x="1065" 
d="M627 45h103q106 0 188 42q69 35 145 110l17 -13l-137 -184h-552l5 25q65 5 83 17q21 15 33 70l22 105h-277l-98 -109q-32 -35 -18 -58q12 -21 61 -25l-5 -25h-229l5 25q56 2 134 87l493 544q-18 15 -91 19l6 25h578l32 -163l-23 -11q-34 68 -87 96q-55 33 -148 33h-111
q-30 0 -36 -30l-51 -237h162q53 0 78 25q21 19 36 72h26l-51 -239h-26q7 51 -5 73q-15 24 -67 24h-162l-57 -268q-6 -30 24 -30zM544 262l69 326q1 10 3 24l-317 -350h245z" />
    <glyph glyph-name="multiply" unicode="&#xd7;" horiz-adv-x="552" 
d="M235 142l-27 35l210 173l-137 174l43 35l137 -174l212 175l28 -35l-213 -175l138 -174l-42 -35l-138 174z" />
    <glyph glyph-name="Oslash" unicode="&#xd8;" horiz-adv-x="753" 
d="M323 612q113 103 265 103q126 0 197 -74l62 59h55l-92 -89q68 -101 33 -261q-35 -162 -144 -262q-113 -103 -266 -103q-126 0 -198 73l-60 -58h-55l92 88q-68 102 -34 262q35 161 145 262zM279 153l451 434q-39 85 -151 85q-222 0 -291 -322q-26 -120 -9 -197zM742 546
l-450 -433q39 -84 150 -84q224 0 291 321q25 120 9 196z" />
    <glyph glyph-name="divide" unicode="&#xf7;" horiz-adv-x="552" 
d="M158 326l11 50h532l-11 -50h-532zM429 569q23 18 50 18t41 -18q14 -17 9 -44q-6 -27 -28 -45q-23 -18 -49 -18q-28 0 -42 18q-13 17 -7 45q5 27 26 44zM355 220q23 18 50 18t41 -18q14 -17 8 -44q-4 -27 -27 -45t-49 -18q-28 0 -42 18q-13 17 -8 45q6 28 27 44z" />
    <glyph glyph-name="circumflex" unicode="&#x2c6;" horiz-adv-x="516" 
d="M426 508l131 147q17 18 35 18h43q20 0 26 -18l69 -147h-41l-88 106l-134 -106h-41z" />
    <glyph glyph-name="breve" unicode="&#x2d8;" horiz-adv-x="516" 
d="M757 654h35q-16 -42 -56 -70q-44 -30 -100 -30q-58 0 -89 30q-27 27 -26 70h37q6 -45 89 -45q85 0 110 45z" />
    <glyph glyph-name="dotaccent" unicode="&#x2d9;" horiz-adv-x="498" 
d="M670 653q18 15 41 15q24 0 36 -15q12 -14 7 -37q-4 -20 -23 -36q-18 -15 -42 -15q-23 0 -35 15t-7 36q4 21 23 37z" />
    <glyph glyph-name="ring" unicode="&#x2da;" horiz-adv-x="498" 
d="M595 686q35 29 76 29q42 0 66 -29q22 -29 14 -71q-9 -40 -44 -69q-36 -30 -78 -30q-41 0 -64 30q-23 29 -14 69q8 41 44 71zM597 571q15 -18 40 -18t48 18q22 17 28 44q5 26 -9 44q-15 18 -41 18q-25 0 -47 -18q-21 -18 -26 -44q-6 -26 7 -44z" />
    <glyph glyph-name="tilde" unicode="&#x2dc;" horiz-adv-x="516" 
d="M746 658h30q-28 -100 -103 -100q-25 0 -59 27l-12 9l-12 9q-14 8 -25 8q-30 0 -47 -44h-32q28 100 103 100q25 0 59 -26l12 -10l12 -9q14 -8 26 -8q31 0 48 44z" />
    <glyph glyph-name="endash" unicode="&#x2013;" horiz-adv-x="552" 
d="M160 330l9 40h532l-9 -40h-532z" />
    <glyph glyph-name="emdash" unicode="&#x2014;" horiz-adv-x="817" 
d="M160 330l9 40h797l-9 -40h-797z" />
    <glyph glyph-name="quoteleft" unicode="&#x2018;" horiz-adv-x="240" 
d="M426 472q-21 -18 -49 -18t-41 19q-14 21 -7 54q11 48 52 105q41 56 84 90l17 -15q-63 -63 -88 -128q34 0 50 -18q14 -18 9 -45q-6 -28 -27 -44z" />
    <glyph glyph-name="quoteright" unicode="&#x2019;" horiz-adv-x="240" 
d="M388 697q22 18 50 18t41 -19q13 -20 6 -54q-9 -47 -52 -105q-41 -55 -84 -90l-17 15q63 63 88 128q-34 0 -50 18q-14 19 -8 45q6 27 26 44z" />
    <glyph glyph-name="quotesinglbase" unicode="&#x201a;" horiz-adv-x="240" 
d="M134 97q21 18 49 18t41 -19q14 -21 7 -54q-11 -48 -52 -105q-41 -56 -85 -90l-16 15q62 63 88 128q-34 0 -50 18q-14 18 -9 45q6 28 27 44z" />
    <glyph glyph-name="quotedblleft" unicode="&#x201c;" horiz-adv-x="423" 
d="M610 472q-21 -18 -49 -18t-41 19q-14 21 -7 54q11 48 52 105q41 56 84 90l17 -15q-63 -63 -88 -128q34 0 50 -18q14 -18 9 -45q-6 -28 -27 -44zM426 472q-21 -18 -49 -18t-41 19q-14 21 -7 54q11 48 52 105q41 56 84 90l17 -15q-63 -63 -88 -128q34 0 50 -18
q14 -18 9 -45q-6 -28 -27 -44z" />
    <glyph glyph-name="quotedblright" unicode="&#x201d;" horiz-adv-x="423" 
d="M571 697q23 18 50 18q28 0 41 -19q14 -20 6 -54q-9 -47 -52 -105q-40 -55 -84 -90l-17 15q63 63 88 128q-33 0 -50 18q-14 19 -8 45q6 27 26 44zM388 697q22 18 50 18t41 -19q13 -20 6 -54q-9 -47 -52 -105q-41 -55 -84 -90l-17 15q63 63 88 128q-34 0 -50 18
q-14 19 -8 45q6 27 26 44z" />
    <glyph glyph-name="quotedblbase" unicode="&#x201e;" horiz-adv-x="423" 
d="M317 97q21 18 49 18t41 -19q14 -21 7 -54q-11 -48 -52 -105q-41 -56 -85 -90l-16 15q62 63 88 128q-33 0 -50 18q-13 18 -9 45q6 28 27 44zM134 97q21 18 49 18t41 -19q14 -21 7 -54q-11 -48 -52 -105q-41 -56 -85 -90l-16 15q62 63 88 128q-34 0 -50 18q-14 18 -9 45
q6 28 27 44z" />
    <glyph glyph-name="ellipsis" unicode="&#x2026;" horiz-adv-x="719" 
d="M158 97q21 18 49 18q29 0 42 -18q14 -17 8 -44q-5 -27 -27 -45t-49 -18q-29 0 -42 18q-13 17 -8 45q6 28 27 44zM397 97q21 18 49 18t42 -18q14 -17 8 -44q-4 -27 -27 -45q-22 -18 -49 -18q-28 0 -42 18q-13 17 -8 45q6 28 27 44zM637 97q21 18 49 18t42 -18
q14 -17 8 -44q-4 -27 -27 -45t-49 -18q-28 0 -42 18q-13 17 -8 45q6 28 27 44z" />
    <glyph glyph-name="trademark" unicode="&#x2122;" horiz-adv-x="483" 
d="M713 490h-96l2 11q18 1 23 5q5 5 8 18l30 139l-101 -173h-15l-25 173l-30 -139q-3 -13 2 -18q2 -4 18 -5l-2 -11h-72l2 11q18 1 23 5q5 5 8 18l31 142q3 13 -2 18q-3 4 -20 5l3 11h81l20 -135l78 135h79l-3 -11q-16 -1 -21 -5q-5 -5 -8 -18l-31 -142q-3 -13 2 -18
q2 -4 18 -5zM331 524l32 149q1 9 -7 9q-34 0 -65 -39l-9 4l33 60h11q1 -7 9 -7h116q9 0 10 7h12l8 -60l-11 -4q-14 39 -50 39q-10 0 -11 -9l-32 -149q-3 -13 2 -18q4 -4 18 -5l-2 -11h-96l2 11q17 1 22 5q5 5 8 18z" />
    <glyph glyph-name="infinity" unicode="&#x221e;" horiz-adv-x="857" 
d="M626 196q-33 31 -62 105q-58 -73 -104 -105q-64 -46 -141 -46q-79 0 -125 58t-29 142q18 85 90 143q70 58 149 58t125 -46q32 -34 61 -106q55 70 104 106q64 46 141 46q79 0 125 -58t28 -143q-17 -83 -89 -142q-70 -58 -149 -58q-78 0 -124 46zM453 243q40 33 95 102
q-28 78 -52 107q-37 46 -103 46q-62 0 -113 -42q-52 -44 -65 -106q-13 -63 20 -107q32 -44 94 -44q65 0 124 44zM702 456q-38 -29 -97 -102q27 -74 53 -105q37 -46 103 -46q62 0 113 42q50 43 64 105q14 64 -19 107q-33 44 -95 44q-65 0 -122 -45z" />
    <glyph glyph-name="notequal" unicode="&#x2260;" horiz-adv-x="552" 
d="M158 425l11 50h274l70 141h52l-70 -141h206l-11 -50h-220l-73 -148h262l-11 -50h-276l-70 -142h-52l70 142h-204l11 50h218l73 148h-260z" />
    <glyph glyph-name="_4" horiz-adv-x="0" 
 />
    <glyph glyph-name="zero.1" horiz-adv-x="557" 
d="M299 611q89 104 206 104q118 0 162 -104q40 -96 5 -261q-35 -164 -116 -260q-88 -105 -206 -105t-162 105q-40 97 -6 260q34 164 117 261zM264 119q14 -90 95 -90q80 0 133 90q42 73 75 231q35 158 24 232q-13 90 -95 90t-133 -90q-41 -71 -76 -232q-33 -159 -23 -231z
" />
    <glyph glyph-name="one.1" horiz-adv-x="352" 
d="M352 0h-290l5 25q65 5 83 17q21 15 33 70l96 453q8 32 -24 32h-65l4 21l176 97h37l-128 -603q-12 -55 4 -70q11 -12 74 -17z" />
    <glyph glyph-name="two.1" horiz-adv-x="511" 
d="M227 497h-49q21 99 96 161q70 57 161 57q97 0 146 -57q50 -57 30 -146q-22 -107 -142 -221q-90 -86 -264 -199h248q27 0 39 12q16 16 39 75h27l-67 -201h-27q2 9 0 14q-3 8 -12 8h-372l9 44l34 26l33 26q13 10 36 28t32 26q80 67 126 113q130 133 156 249q33 158 -96 158
q-65 0 -113 -42q-52 -46 -70 -131z" />
    <glyph glyph-name="three.1" horiz-adv-x="525" 
d="M562 461q-41 -42 -103 -59q64 -12 98 -64q34 -51 20 -118q-22 -103 -104 -167q-88 -68 -211 -68q-80 0 -129 25q-57 28 -46 78q4 22 22 37t38 15q27 0 42 -17q6 -6 11 -18l9 -20q22 -55 66 -55q156 0 192 166q15 70 -19 116q-36 51 -117 51h-18l10 44h24q65 0 108 42
q41 38 53 95q11 53 -10 87q-22 39 -80 39q-56 0 -100 -35q-47 -37 -67 -106h-49q27 85 89 135q65 51 155 51q96 0 142 -49q41 -46 28 -107q-12 -58 -54 -98z" />
    <glyph glyph-name="four.1" horiz-adv-x="554" 
d="M478 0h-96l38 180h-282l7 34l406 486h76l-101 -475h114l-10 -45h-114zM506 582l-299 -357h223z" />
    <glyph glyph-name="five.1" horiz-adv-x="514" 
d="M530 393q53 -68 32 -168q-22 -101 -102 -168q-86 -72 -203 -72q-82 0 -133 25q-60 28 -49 78q4 22 22 37q17 15 36 15q26 0 43 -17q6 -6 13 -18l11 -20q25 -55 73 -55q78 0 133 47q50 43 67 119q16 75 -26 123q-43 48 -127 48q-78 0 -141 -31l-22 10l127 354h284
q25 0 32 22h27l-37 -113h-295l-57 -164q48 19 115 19q118 0 177 -71z" />
    <glyph glyph-name="six.1" horiz-adv-x="557" 
d="M686 715l-9 -42q-267 -30 -371 -266q76 44 148 44q109 0 158 -73q45 -66 25 -161q-19 -93 -102 -161q-86 -71 -192 -71q-114 0 -162 87q-47 84 -18 221q39 182 191 298q140 107 332 124zM285 353q-13 -38 -19 -72q-26 -122 -11 -181q20 -71 97 -71q68 0 118 54
q44 50 62 134t-7 134q-28 55 -98 55q-74 0 -142 -53z" />
    <glyph glyph-name="seven.1" horiz-adv-x="482" 
d="M364 0h-105q100 312 385 609h-281q-27 0 -39 -13q-17 -17 -39 -74h-27l65 200h27q-2 -9 0 -14q5 -8 13 -8h380l-9 -43q-254 -274 -370 -657z" />
    <glyph glyph-name="eight.1" horiz-adv-x="557" 
d="M605 448q-38 -33 -106 -63q68 -33 97 -72q37 -52 21 -131q-20 -87 -94 -140q-79 -57 -197 -57q-113 0 -168 58q-50 53 -35 124q25 121 189 189q-104 63 -79 184q13 64 75 114q76 61 188 61q94 0 142 -49q43 -44 29 -110t-62 -108zM212 73q36 -45 120 -45q82 0 133 42
q43 35 53 87q15 67 -38 111q-18 15 -55 33l-32 14l-32 15q-71 -28 -108 -60q-47 -40 -61 -99q-12 -60 20 -98zM355 466q22 -23 92 -56q67 28 101 55q46 36 56 87q12 53 -15 86q-30 34 -96 34q-64 0 -107 -29q-45 -31 -55 -83q-12 -57 24 -94z" />
    <glyph glyph-name="nine.1" horiz-adv-x="557" 
d="M176 -15l9 43q268 28 371 265q-77 -44 -148 -44q-109 0 -158 73q-46 66 -25 161q19 95 102 162q85 70 192 70q113 0 163 -86q46 -83 17 -222q-39 -183 -190 -298q-142 -107 -333 -124zM577 346q12 41 19 73q26 123 11 182q-20 71 -97 71q-68 0 -118 -54q-44 -52 -62 -135
q-18 -84 7 -134q27 -55 97 -55q75 0 143 52z" />
    <glyph glyph-name="zero.2" 
d="M276 445q88 86 202 86q115 0 166 -86q43 -78 21 -187q-22 -108 -101 -187q-88 -86 -202 -86q-115 0 -166 86q-43 78 -21 187q22 108 101 187zM371 28q139 0 189 230q22 104 8 160q-19 70 -99 70t-129 -70q-38 -54 -60 -160q-50 -230 91 -230z" />
    <glyph glyph-name="one.2" 
d="M578 0h-350l5 25q84 5 106 17q28 15 40 70l57 269q8 32 -24 32h-96l4 21l207 97h37l-89 -419q-12 -55 11 -70q17 -12 97 -17z" />
    <glyph glyph-name="one.3" 
d="M379 112l62 292q12 54 -11 71q-17 11 -98 16l6 25h350l-6 -25q-83 -5 -104 -16q-29 -17 -41 -71l-62 -292q-12 -55 11 -70q17 -12 97 -17l-5 -25h-350l5 25q84 5 106 17q28 15 40 70z" />
    <glyph glyph-name="two.2" 
d="M224 313h-49q21 100 97 161q70 57 163 57q96 0 146 -44q50 -45 33 -119q-33 -157 -345 -281h219q28 0 41 12q15 17 39 75h27l-66 -196h-27q2 9 0 14q-3 8 -12 8h-374l11 51q177 91 249 143q116 86 135 172q25 117 -103 117q-64 0 -114 -42q-54 -48 -70 -128z" />
    <glyph glyph-name="three.2" 
d="M413 218q64 -12 97 -64q34 -51 20 -118q-22 -103 -104 -167q-86 -68 -210 -68q-80 0 -129 25q-57 29 -47 77q4 22 22 38q17 14 38 14q40 0 63 -54q21 -55 65 -55q156 0 192 166q13 70 -18 116q-36 51 -117 51h-18l9 44h23q64 0 109 42q39 36 53 95q11 53 -10 87
q-23 39 -80 39q-55 0 -99 -35q-48 -38 -68 -106h-49q27 85 89 135q65 51 155 51q96 0 142 -49q41 -46 28 -107q-25 -118 -156 -157z" />
    <glyph glyph-name="four.2" 
d="M425 -184h-96l39 184h-282l7 34l402 482h79l-100 -471h114l-10 -45h-114zM453 402l-298 -357h223z" />
    <glyph glyph-name="five.2" 
d="M501 209q54 -67 33 -168q-22 -101 -102 -168q-86 -72 -202 -72q-80 0 -133 25q-62 29 -51 77q4 22 22 38q17 14 37 14q27 0 44 -17q8 -10 12 -17l11 -20q27 -55 74 -55q80 0 132 46q51 45 67 120q15 75 -26 123q-43 48 -127 48q-77 0 -140 -31l-24 10l128 354h284
q26 0 33 22h27l-38 -113h-295l-57 -164q48 19 115 19q120 0 176 -71z" />
    <glyph glyph-name="six.2" 
d="M706 715l-9 -42q-267 -30 -371 -266q76 44 148 44q109 0 158 -73q45 -66 25 -161q-19 -93 -102 -161q-86 -71 -192 -71q-114 0 -162 87q-47 84 -18 221q39 182 191 298q140 107 332 124zM305 353q-13 -38 -19 -72q-26 -122 -11 -181q20 -71 97 -71q68 0 118 54
q44 50 62 134t-7 134q-28 55 -98 55q-74 0 -142 -53z" />
    <glyph glyph-name="seven.2" 
d="M374 -184h-105q100 312 385 609h-281q-27 0 -39 -13q-17 -17 -39 -74h-27l65 200h27q-2 -9 0 -14q5 -8 13 -8h380l-9 -43q-254 -274 -370 -657z" />
    <glyph glyph-name="eight.2" 
d="M625 448q-38 -33 -106 -63q68 -33 97 -72q37 -52 21 -131q-20 -87 -94 -140q-79 -57 -197 -57q-113 0 -168 58q-50 53 -35 124q25 121 189 189q-104 63 -79 184q13 64 75 114q76 61 188 61q94 0 142 -49q43 -44 29 -110t-62 -108zM232 73q36 -45 120 -45q82 0 133 42
q43 35 53 87q15 67 -38 111q-18 15 -55 33l-32 14l-32 15q-71 -28 -108 -60q-47 -40 -61 -99q-12 -60 20 -98zM375 466q22 -23 92 -56q67 28 101 55q46 36 56 87q12 53 -15 86q-30 34 -96 34q-64 0 -107 -29q-45 -31 -55 -83q-12 -57 24 -94z" />
    <glyph glyph-name="nine.2" 
d="M118 -199l9 42q267 30 371 266q-77 -44 -148 -44q-109 0 -158 73q-46 66 -25 161q19 95 102 162q85 70 192 70q113 0 163 -86q46 -83 16 -222q-38 -183 -189 -298q-142 -107 -333 -124zM518 162q16 55 20 73q26 123 11 182q-20 71 -97 71q-68 0 -118 -54
q-46 -52 -62 -135q-18 -84 7 -134q27 -55 97 -55q75 0 142 52z" />
    <glyph glyph-name="zero.3" horiz-adv-x="557" 
d="M256 445q88 86 202 86q115 0 166 -86q43 -78 21 -187q-22 -108 -101 -187q-88 -86 -202 -86q-115 0 -166 86q-43 78 -21 187q22 108 101 187zM351 28q139 0 189 230q22 104 8 160q-19 70 -99 70t-129 -70q-38 -54 -60 -160q-50 -230 91 -230z" />
    <glyph glyph-name="one.4" horiz-adv-x="352" 
d="M352 0h-290l5 25q65 5 83 17q21 15 33 70l57 269q8 32 -24 32h-66l4 21l177 97h37l-89 -419q-12 -55 4 -70q11 -12 74 -17z" />
    <glyph glyph-name="one.5" horiz-adv-x="352" 
d="M183 112l62 292q12 56 -3 71q-13 11 -76 16l6 25h290l-6 -25q-64 -5 -81 -16q-22 -15 -34 -71l-62 -292q-12 -55 4 -70q11 -12 74 -17l-5 -25h-290l5 25q65 5 83 17q21 15 33 70z" />
    <glyph glyph-name="two.3" horiz-adv-x="512" 
d="M188 313h-49q21 100 97 161q71 57 163 57q96 0 146 -44q50 -45 33 -119q-33 -157 -345 -281h219q27 0 41 12q15 17 39 75h27l-66 -196h-27q2 9 0 14q-3 8 -12 8h-374l11 51q177 91 249 143q116 86 135 172q25 117 -103 117q-64 0 -114 -42q-54 -48 -70 -128z" />
    <glyph glyph-name="three.3" horiz-adv-x="525" 
d="M381 218q64 -12 97 -64q34 -51 20 -118q-22 -103 -104 -167q-86 -68 -210 -68q-80 0 -129 25q-57 29 -47 77q4 22 22 38q17 14 38 14q40 0 63 -54q21 -55 65 -55q156 0 192 166q13 70 -18 116q-36 51 -117 51h-18l9 44h23q64 0 109 42q39 36 53 95q11 53 -10 87
q-23 39 -80 39q-55 0 -99 -35q-48 -38 -68 -106h-49q27 85 89 135q64 51 155 51q96 0 142 -49q41 -46 28 -107q-25 -118 -156 -157z" />
    <glyph glyph-name="four.3" horiz-adv-x="536" 
d="M383 -184h-96l39 184h-282l7 34l402 482h79l-100 -471h114l-10 -45h-114zM411 402l-298 -357h223z" />
    <glyph glyph-name="five.3" horiz-adv-x="515" 
d="M451 209q54 -67 33 -168q-22 -101 -102 -168q-86 -72 -202 -72q-80 0 -133 25q-62 29 -51 77q4 22 22 38q17 14 37 14q27 0 44 -17q8 -10 12 -17l11 -20q27 -55 74 -55q80 0 132 46q51 45 67 120q15 75 -26 123q-43 48 -127 48q-77 0 -140 -31l-24 10l128 354h284
q26 0 33 22h27l-38 -113h-295l-57 -164q48 19 115 19q120 0 176 -71z" />
    <glyph glyph-name="six.3" horiz-adv-x="557" 
d="M686 715l-9 -42q-267 -30 -371 -266q76 44 148 44q109 0 158 -73q45 -66 25 -161q-19 -93 -102 -161q-86 -71 -192 -71q-114 0 -162 87q-47 84 -18 221q39 182 191 298q140 107 332 124zM285 353q-13 -38 -19 -72q-26 -122 -11 -181q20 -71 97 -71q68 0 118 54
q44 50 62 134t-7 134q-28 55 -98 55q-74 0 -142 -53z" />
    <glyph glyph-name="seven.3" horiz-adv-x="482" 
d="M286 -184h-105q100 312 385 609h-281q-27 0 -39 -13q-17 -17 -39 -74h-27l65 200h27q-2 -9 0 -14q5 -8 13 -8h380l-9 -43q-254 -274 -370 -657z" />
    <glyph glyph-name="eight.3" horiz-adv-x="557" 
d="M605 448q-38 -33 -106 -63q68 -33 97 -72q37 -52 21 -131q-20 -87 -94 -140q-79 -57 -197 -57q-113 0 -168 58q-50 53 -35 124q25 121 189 189q-104 63 -79 184q13 64 75 114q76 61 188 61q94 0 142 -49q43 -44 29 -110t-62 -108zM212 73q36 -45 120 -45q82 0 133 42
q43 35 53 87q15 67 -38 111q-18 15 -55 33l-32 14l-32 15q-71 -28 -108 -60q-47 -40 -61 -99q-12 -60 20 -98zM355 466q22 -23 92 -56q67 28 101 55q46 36 56 87q12 53 -15 86q-30 34 -96 34q-64 0 -107 -29q-45 -31 -55 -83q-12 -57 24 -94z" />
    <glyph glyph-name="nine.3" horiz-adv-x="557" 
d="M98 -199l9 42q267 30 371 266q-77 -44 -148 -44q-109 0 -158 73q-46 66 -25 161q19 95 102 162q85 70 192 70q113 0 163 -86q46 -83 16 -222q-38 -183 -189 -298q-142 -107 -333 -124zM498 162q16 55 20 73q26 123 11 182q-20 71 -97 71q-68 0 -118 -54q-46 -52 -62 -135
q-18 -84 7 -134q27 -55 97 -55q75 0 142 52z" />
    <glyph glyph-name="periodcentered.1" horiz-adv-x="240" 
d="M284 394q22 18 50 18t41 -18q14 -17 8 -44q-5 -27 -27 -45t-49 -18q-29 0 -42 18q-13 17 -8 45q6 28 27 44z" />
    <glyph glyph-name="bullet.1" horiz-adv-x="280" 
d="M245 429q41 33 86 33q47 0 72 -33q26 -32 15 -79q-9 -46 -48 -79q-40 -32 -86 -32t-72 32q-26 33 -17 79q11 49 50 79z" />
    <glyph glyph-name="exclam.1" horiz-adv-x="227" 
d="M224 150h-33q11 61 14 106q5 35 3 74q-1 80 5 112q18 85 75 85q56 0 38 -85q-6 -31 -43 -112q-18 -43 -29 -74q-17 -51 -30 -106zM152 85q20 17 46 17q25 0 37 -17q12 -15 7 -38q-4 -22 -23 -39q-20 -17 -45 -17q-26 0 -38 17q-12 16 -7 39t23 38z" />
    <glyph glyph-name="question.1" horiz-adv-x="385" 
d="M338 213l-14 -63h-37l29 142q140 0 159 96q9 39 -12 67q-24 30 -70 30q-33 0 -63 -37q-32 -38 -60 -38q-17 0 -26 12q-10 12 -5 32q8 37 47 56q37 17 89 17q93 0 140 -54q40 -47 26 -116q-15 -70 -71 -108q-52 -35 -132 -36zM250 85q20 17 46 17q25 0 37 -17
q12 -15 7 -38q-4 -22 -23 -39q-20 -17 -45 -17q-26 0 -38 17q-12 16 -7 39t23 38z" />
    <glyph glyph-name="guillemotleft.1" horiz-adv-x="509" 
d="M428 149l-23 -14l-131 190q-8 14 -5 27q3 17 17 28l211 191l17 -15l-140 -204zM613 149l-23 -14l-131 190q-8 14 -5 27q3 17 17 28l211 191l17 -15l-140 -204z" />
    <glyph glyph-name="guillemotright.1" horiz-adv-x="509" 
d="M201 135l-17 14l140 203l-54 204l23 15l131 -191q8 -11 5 -28q-3 -13 -17 -27zM387 135l-17 14l140 203l-54 204l23 15l131 -191q8 -11 5 -28q-3 -13 -17 -27z" />
    <glyph glyph-name="guilsinglleft.1" horiz-adv-x="324" 
d="M428 149l-23 -14l-131 190q-8 14 -5 27q3 17 17 28l211 191l17 -15l-140 -204z" />
    <glyph glyph-name="guilsinglright.1" horiz-adv-x="324" 
d="M201 135l-17 14l140 203l-54 204l23 15l131 -191q8 -11 5 -28q-3 -13 -17 -27z" />
    <glyph glyph-name="hyphen.case" horiz-adv-x="243" 
d="M156 321l13 59h223l-13 -59h-223z" />
    <glyph glyph-name="endash.1" horiz-adv-x="552" 
d="M160 330l9 40h532l-9 -40h-532z" />
    <glyph glyph-name="emdash.1" horiz-adv-x="817" 
d="M160 330l9 40h797l-9 -40h-797z" />
    <glyph glyph-name="parenleft.case" horiz-adv-x="309" 
d="M314 632q92 119 216 193l17 -26q-95 -62 -175 -187q-82 -127 -110 -262q-28 -134 -1 -262q25 -123 95 -187l-28 -26q-92 74 -134 193q-46 132 -15 282t135 282z" />
    <glyph glyph-name="braceleft.c2sc" horiz-adv-x="253" 
d="M291 -67l-6 -25q-64 0 -94 36q-31 37 -16 108l26 122q15 70 -53 70l6 27q68 0 83 71l25 121q15 70 62 108q47 36 110 36l-5 -24q-68 0 -84 -79l-25 -120q-22 -106 -118 -126q86 -21 64 -127l-26 -121q-17 -77 51 -77z" />
    <glyph glyph-name="braceright.c2sc" horiz-adv-x="253" 
d="M4 -92l6 25q66 0 83 77l26 121q22 106 117 127q-86 20 -63 126l25 120q16 79 -50 79l5 24q64 0 94 -36q31 -37 16 -108l-25 -121q-15 -71 53 -71l-6 -27q-68 0 -83 -70l-26 -122q-15 -70 -62 -108q-47 -36 -110 -36z" />
    <glyph glyph-name="numbersign.1" horiz-adv-x="434" 
d="M235 0l74 146h-106l-74 -146h-39l74 146h-82l7 35h92l79 154h-93l8 35h104l74 146h39l-75 -146h106l75 146h37l-74 -146h83l-8 -35h-93l-79 -154h94l-7 -35h-104l-74 -146h-38zM299 335l-79 -154h106l79 154h-106z" />
    <glyph glyph-name="dollar.1" 
d="M317 -111l21 96q-109 1 -162 58q-48 49 -34 117q9 41 38 69q29 26 63 26q26 0 39 -16q14 -17 9 -41q-6 -27 -28 -43q-19 -13 -45 -15q-16 0 -19 -11q-8 -39 41 -70q46 -31 107 -32l62 293l-34 14q-19 8 -33 15q-37 20 -57 40q-53 53 -34 144q14 65 71 115q67 60 172 66
l10 46h42l-10 -46q84 -4 126 -51q39 -42 28 -95q-9 -42 -38 -70q-29 -26 -62 -26q-26 0 -40 17q-11 16 -7 38q4 24 26 41q19 13 44 15q16 1 18 11q7 31 -25 54q-32 21 -79 24l-58 -270l35 -14q17 -6 35 -16q40 -19 61 -40q57 -55 37 -150q-16 -79 -83 -132q-70 -56 -174 -63
l-21 -98h-42zM525 251q-22 28 -77 53l-59 -275q65 9 109 50q36 34 46 79q11 56 -19 93zM431 419l54 252q-119 -14 -141 -121q-18 -84 87 -131z" />
    </font>
</defs>
</svg>
