<?xml version="1.0" standalone="no"?>
<!DOCTYPE svg PUBLIC "-//W3C//DTD SVG 1.1//EN" "http://www.w3.org/Graphics/SVG/1.1/DTD/svg11.dtd" >
<svg xmlns="http://www.w3.org/2000/svg" xmlns:xlink="http://www.w3.org/1999/xlink" version="1.1">
<metadata>
Created by FontForge 20170731 at Tue Apr 10 07:03:59 2018
 By Aleksey,,,
Attribution-ShareAlike 4.0 International
</metadata>
<defs>
<font id="Bookinsanity-Bold" horiz-adv-x="578" >
  <font-face 
    font-family="Bookinsanity"
    font-weight="700"
    font-style="italic"
    font-stretch="normal"
    units-per-em="1000"
    panose-1="2 0 8 3 7 0 0 9 0 3"
    ascent="750"
    descent="-250"
    x-height="471"
    cap-height="720"
    bbox="-139 -244 1046 854"
    underline-thickness="50"
    underline-position="-175"
    slope="-12"
    unicode-range="U+001D-2260"
  />
<missing-glyph horiz-adv-x="789" 
d="M200 -20v740h589v-740h-589zM305 636v-572h379v572h-379z" />
    <glyph glyph-name=".notdef" horiz-adv-x="789" 
d="M200 -20v740h589v-740h-589zM305 636v-572h379v572h-379z" />
    <glyph glyph-name=".null" horiz-adv-x="0" 
 />
    <glyph glyph-name=".null" horiz-adv-x="0" 
 />
    <glyph glyph-name="nonmarkingreturn" horiz-adv-x="333" 
 />
    <glyph glyph-name="space" unicode=" " horiz-adv-x="251" 
 />
    <glyph glyph-name="exclam" unicode="!" horiz-adv-x="240" 
d="M195 166h-86q-2 118 -8 178q-4 50 -15 103q-22 116 -22 159q0 129 88 129t88 -129q0 -43 -22 -159q-11 -53 -15 -103q-6 -60 -8 -178zM88 111q24 24 64 24t64 -26q24 -23 24 -56q0 -34 -25 -59q-24 -24 -63 -24q-40 0 -66 26q-22 22 -22 57q0 34 24 58z" />
    <glyph glyph-name="quotedbl" unicode="&#x22;" horiz-adv-x="423" 
d="M382 416h-76q-5 65 -11 95q-2 11 -13 58q-17 68 -17 87q0 32 21 55q22 24 58 24t58 -24q21 -21 21 -54q0 -21 -17 -87q-11 -44 -13 -59q-6 -30 -11 -95zM199 416h-76q-5 65 -11 95q-2 11 -13 58q-17 68 -17 87q0 32 21 55q23 24 58 24t58 -24q21 -21 21 -54
q0 -21 -17 -87q-11 -44 -13 -59q-6 -30 -11 -95z" />
    <glyph glyph-name="numbersign" unicode="#" horiz-adv-x="552" 
d="M205 -20l57 204h-97l-57 -204h-94l57 204h-101v79h124l49 174h-119v80h141l58 203h94l-58 -203h96l58 203h94l-58 -203h103v-80h-125l-49 -174h119v-79h-141l-57 -204h-94zM237 437l-49 -174h96l49 174h-96z" />
    <glyph glyph-name="dollar" unicode="$" 
d="M258 -131v99q-65 4 -97 29l-7 -17h-68l-74 247l66 21q104 -199 180 -200v259l-22 9q-10 3 -38 16q-41 18 -72 43q-71 59 -71 158q0 72 52 128q63 67 152 72v47h92v-49q53 -5 66 -18l3 7h65l72 -226l-65 -24q-82 174 -141 180v-235l23 -9q21 -6 40 -17q46 -20 75 -43
q76 -61 76 -164q0 -87 -62 -146q-65 -62 -153 -68v-99h-92zM395 239q-26 25 -45 32v-218q24 3 52 37q25 28 25 68q0 49 -32 81zM259 452v196q-65 -8 -65 -98q0 -72 65 -98z" />
    <glyph glyph-name="percent" unicode="%" horiz-adv-x="823" 
d="M56 659q49 70 140 70q92 0 141 -70q44 -64 44 -169t-44 -169q-49 -70 -141 -70q-91 0 -140 70q-44 64 -44 169t44 169zM156 356q14 -35 40 -35q27 0 41 35q14 42 14 134q0 93 -14 135q-13 34 -41 34q-27 0 -40 -34q-14 -42 -14 -135q0 -92 14 -134zM127 -20l482 740h99
l-482 -740h-99zM498 379q49 70 140 70q92 0 141 -70q44 -64 44 -169t-44 -169q-49 -70 -141 -70q-91 0 -140 70q-44 64 -44 169t44 169zM598 76q14 -35 40 -35q27 0 41 35q14 42 14 134q0 93 -14 135q-13 34 -41 34q-27 0 -40 -34q-14 -42 -14 -135q0 -92 14 -134z" />
    <glyph glyph-name="ampersand" unicode="&#x26;" horiz-adv-x="748" 
d="M568 129q18 -46 36 -62q15 -15 39 -15q37 0 108 27v-78q-59 -35 -140 -35q-112 0 -150 59q-77 -60 -206 -60q-110 0 -177 61q-62 57 -62 141q0 94 67 165q46 47 118 87q-74 65 -74 152q0 59 43 105q53 59 146 59q80 0 130 -47q44 -44 44 -106q0 -56 -42 -101
q-29 -34 -67 -57q94 -71 148 -201q26 40 26 134q0 38 -14 50q-13 10 -79 15v64h289v-64q-63 -4 -77 -17q-16 -13 -21 -57q-17 -128 -85 -219zM424 102l10 -10h-10v-1q-88 210 -150 265q-98 -65 -98 -163q0 -57 33 -94q31 -37 87 -37q76 0 128 40zM274 511q16 -23 42 -42
q86 50 86 103q0 34 -19 53q-18 18 -52 18q-33 0 -52 -19q-22 -19 -22 -58q0 -30 17 -55z" />
    <glyph glyph-name="quotesingle" unicode="'" horiz-adv-x="240" 
d="M199 416h-76q-5 65 -11 95q-2 11 -13 58q-17 68 -17 87q0 32 21 55q23 24 58 24t58 -24q21 -21 21 -54q0 -21 -17 -87q-11 -44 -13 -59q-6 -30 -11 -95z" />
    <glyph glyph-name="parenleft" unicode="(" horiz-adv-x="309" 
d="M89 550q71 125 203 214l49 -58q-93 -71 -143 -190q-53 -124 -53 -256q0 -130 53 -256q51 -119 143 -190l-49 -58q-132 89 -203 214q-77 137 -77 290t77 290z" />
    <glyph glyph-name="parenright" unicode=")" horiz-adv-x="309" 
d="M201 -30q-70 -124 -204 -214l-49 58q92 71 143 190q53 126 53 256q0 132 -53 256q-50 119 -143 190l49 58q134 -90 204 -214q77 -137 77 -290t-77 -290z" />
    <glyph glyph-name="asterisk" unicode="*" horiz-adv-x="384" 
d="M229 620q-7 -18 -8 -30q-4 -16 -3 0v10l-19 -13q0 1 4 5q3 3 10 10.5t12 12.5q25 28 42 37q26 15 53 8q25 -4 39 -28q26 -49 -25 -77q-15 -10 -56 -19l-15 -3q-3 -1 -7.5 -2t-6.5 -2q-10 -3 -9 -2.5t13 5.5l-13 7q1 0 9 -2q4 -2 29 -8q38 -9 53 -17q54 -31 27 -80
q-29 -53 -91 -19q-14 8 -43 38q-5 5 -12 12.5t-9 9.5q-9 8 0 1q6 -3 19 -13q-1 5 -2 12l-1 10q1 -2 2 -7l4 -17l4 -14q11 -38 11 -53q0 -61 -62 -61t-62 61q0 15 11 54q7 18 8 29l2 7q1 -1 -1 -18q22 17 21 14q0 -1 -4 -5q-4 -3 -12 -11l-10 -11q-24 -26 -42 -37
q-62 -35 -91 18q-27 49 27 80q14 8 52 17q28 8 29 8q7 2 8 2l-13 -7q12 -5 13 -5l-9 2q-2 0 -6 1.5t-7 2.5l-15 3q-39 9 -54 19q-23 14 -30 34q-7 22 5 45q12 21 38 26q27 7 53 -8q15 -9 43 -37q11 -11 21 -23q8 -7 -1 -1q-1 1 -5 4l-10 7q2 -21 0 -19q-1 1 -2 7
q-1 12 -8 30q-11 39 -11 54q0 25 16 42q19 19 46 19q62 0 62 -61q0 -15 -11 -54z" />
    <glyph glyph-name="plus" unicode="+" horiz-adv-x="552" 
d="M-30 306v90h240v240h100v-240h242v-90h-242v-241h-100v241h-240z" />
    <glyph glyph-name="comma" unicode="," horiz-adv-x="240" 
d="M88 111q24 24 64 24q41 0 65 -27q23 -26 23 -66q0 -50 -32 -112q-28 -57 -86 -112l-54 41q58 74 64 111q-16 0 -44 25q-24 24 -24 58t24 58z" />
    <glyph glyph-name="hyphen" unicode="-" horiz-adv-x="243" 
d="M-30 176v99h273v-99h-273z" />
    <glyph glyph-name="period" unicode="." horiz-adv-x="240" 
d="M88 111q24 24 64 24t64 -26q24 -23 24 -56q0 -34 -25 -59q-24 -24 -63 -24q-40 0 -66 26q-22 22 -22 57q0 34 24 58z" />
    <glyph glyph-name="slash" unicode="/" horiz-adv-x="309" 
d="M-62 -234l277 984h94l-277 -984h-94z" />
    <glyph glyph-name="zero" unicode="0" 
d="M102 620q73 115 206 115t206 -115q64 -101 64 -270t-64 -269q-74 -116 -206 -116t-206 116q-64 100 -64 269t64 270zM218 124q28 -75 90 -75t90 75q25 69 25 226q0 156 -25 227q-27 75 -90 75t-90 -75q-25 -71 -25 -227q0 -157 25 -226z" />
    <glyph glyph-name="one" unicode="1" 
d="M578 -20h-400v64q96 4 112 14q15 9 15 54v453q0 12 -6 12h-120v52l203 106h69v-623q0 -45 16 -54q16 -10 111 -14v-64z" />
    <glyph glyph-name="two" unicode="2" 
d="M181 477h-99q0 126 68 194q65 64 168 64q107 0 177 -64q67 -63 67 -159q0 -114 -99 -232q-71 -86 -180 -168h185q14 0 16 3q8 11 22 84h76l-28 -241h-75v25q1 -3 8 -3h-397v71l36 34l26 24q10 9 28.5 27.5t27.5 26.5q56 55 100 110q99 127 99 239q0 138 -104 138
q-53 0 -84 -34q-38 -41 -38 -139z" />
    <glyph glyph-name="three" unicode="3" 
d="M514 451q-36 -48 -23 -44q-8 2 42 -56q51 -59 51 -131q0 -109 -74 -180q-81 -75 -216 -75q-86 0 -146 28q-76 34 -76 95q0 29 19 49q23 23 55 23q38 0 64 -24q13 -11 19 -22l13 -20q27 -44 56 -44q131 0 131 146q0 63 -38 104q-39 43 -108 43h-43v84h49q51 0 79 33
q28 32 28 84q0 48 -24 76q-24 30 -67 30q-46 0 -74 -28q-34 -33 -39 -113h-100q10 113 68 168q61 58 163 58q105 0 170 -56q58 -49 58 -120q0 -64 -37 -108z" />
    <glyph glyph-name="four" unicode="4" 
d="M464 -20h-146v180h-282v58l312 502h116v-475h114v-85h-114v-180zM318 497l-158 -252h158v252z" />
    <glyph glyph-name="five" unicode="5" 
d="M504 406q74 -74 74 -181t-71 -180q-80 -80 -208 -80q-85 0 -150 27q-79 34 -79 96q0 28 21 51q19 21 51 21q37 0 65 -23q9 -7 20 -22l16 -20q31 -45 63 -45q67 0 103 39q36 37 36 107q0 68 -46 110q-46 41 -118 41q-70 0 -132 -34l-54 21l57 386h306q3 0 6 22h76
l-17 -153h-296l-15 -109q9 4 81 4q131 0 211 -78z" />
    <glyph glyph-name="six" unicode="6" 
d="M521 737v-81q-266 -32 -303 -199q20 14 102 14q122 0 194 -82q64 -70 64 -172q0 -101 -74 -173q-78 -79 -196 -79q-128 0 -201 97q-69 88 -69 231q0 190 133 311q124 113 350 133zM196 345q-3 -24 -3 -64q0 -117 26 -174q28 -58 89 -58q54 0 84 43q31 46 31 125
q0 77 -33 124q-32 45 -87 45q-63 0 -107 -41z" />
    <glyph glyph-name="seven" unicode="7" 
d="M337 -20h-155q38 342 239 609h-237q-13 0 -16 -3q-10 -15 -23 -84h-75l27 240h75v-25q-2 3 -8 3h405v-68q-196 -274 -232 -672z" />
    <glyph glyph-name="eight" unicode="8" 
d="M505 436q-34 -37 -63 -50q43 -19 82 -61q54 -59 54 -143q0 -94 -71 -154q-73 -63 -203 -63q-124 0 -198 64q-68 59 -68 138q0 131 126 190q-96 51 -96 183q0 72 57 127q71 68 194 68q106 0 170 -55q60 -51 60 -124q0 -70 -44 -120zM190 86q40 -38 111 -38q70 0 106 36
q28 28 28 73q0 58 -53 96q-21 13 -57 30l-35 14l-24 10q-50 -21 -75 -49q-35 -35 -35 -87q0 -54 34 -85zM249 480q26 -23 85 -47q45 20 71 45q32 30 32 74q0 46 -28 73q-29 27 -84 27q-54 0 -83 -23q-30 -24 -30 -69q0 -49 37 -80z" />
    <glyph glyph-name="nine" unicode="9" 
d="M95 -37v82q266 29 304 199q-23 -15 -103 -15q-121 0 -193 81q-65 73 -65 173t74 174q78 78 196 78q128 0 202 -96q68 -89 68 -232q0 -189 -132 -311q-125 -113 -351 -133zM420 354q3 39 3 65q0 118 -26 175q-28 58 -89 58q-54 0 -84 -43q-31 -46 -31 -126q0 -78 33 -124
q32 -45 87 -45q64 0 107 40z" />
    <glyph glyph-name="colon" unicode=":" horiz-adv-x="240" 
d="M88 456q24 24 64 24t64 -26q24 -22 24 -56t-25 -59q-24 -24 -63 -24q-40 0 -66 26q-22 22 -22 57q0 34 24 58zM88 111q24 24 64 24t64 -26q24 -23 24 -56q0 -34 -25 -59q-24 -24 -63 -24q-40 0 -66 26q-22 22 -22 57q0 34 24 58z" />
    <glyph glyph-name="semicolon" unicode=";" horiz-adv-x="240" 
d="M88 111q24 24 64 24q41 0 65 -27q23 -26 23 -66q0 -50 -32 -112q-28 -57 -86 -112l-54 41q58 74 64 111q-16 0 -44 25q-24 24 -24 58t24 58zM88 456q24 24 64 24t64 -26q24 -22 24 -56t-25 -59q-24 -24 -63 -24q-40 0 -66 26q-22 22 -22 57q0 34 24 58z" />
    <glyph glyph-name="less" unicode="&#x3c;" horiz-adv-x="552" 
d="M552 182v-100l-540 224v79l540 223v-99l-395 -164z" />
    <glyph glyph-name="equal" unicode="=" horiz-adv-x="552" 
d="M-30 405v90h582v-90h-582zM-30 207v90h582v-90h-582z" />
    <glyph glyph-name="greater" unicode="&#x3e;" horiz-adv-x="552" 
d="M10 82v100l396 163l-396 164v99l541 -223v-79z" />
    <glyph glyph-name="question" unicode="?" horiz-adv-x="469" 
d="M246 265l-2 -99h-92l-1 229q190 0 190 125q0 52 -35 90q-34 36 -87 36q-25 0 -48 -35q-36 -58 -87 -58q-32 0 -53 22q-19 20 -19 50q0 54 54 84q46 26 116 26q135 0 216 -81q71 -71 71 -168q0 -107 -70 -165q-65 -55 -153 -56zM134 110q25 25 65 25t64 -26q24 -23 24 -56
q0 -34 -25 -59q-24 -24 -63 -24q-40 0 -64 24q-25 25 -25 59q0 35 24 57z" />
    <glyph glyph-name="at" unicode="@" horiz-adv-x="935" 
d="M541 53q-32 -32 -127 -32q-105 0 -151 82q-43 74 -17 178q23 94 99 155q80 65 178 65q91 0 117 -39l54 39h67l-86 -347q-7 -28 -4 -40q1 -6 13 -6q55 0 106 65q57 73 57 175q0 141 -95 218q-85 67 -221 67q-157 0 -278 -110q-123 -113 -123 -266q0 -172 109 -274
q101 -97 264 -97q149 0 318 121l45 -69q-187 -130 -364 -130q-200 0 -328 118q-136 124 -136 331q0 181 148 317q149 137 344 137q176 0 289 -95q116 -101 116 -268q0 -136 -84 -231q-85 -96 -209 -96q-93 0 -101 32zM534 158l56 224q-10 36 -60 36q-98 0 -137 -161
q-39 -152 48 -152q57 0 93 53z" />
    <glyph glyph-name="glyph36" unicode="A" horiz-adv-x="665" 
d="M252 720h93l235 -617q10 -29 25 -44q14 -11 60 -17v-62h-310v63q71 5 81 15q4 1 -4 23l-44 114h-235l-43 -114q-7 -16 14.5 -25t71.5 -13v-63h-272v63q75 8 91 55zM269 503l-84 -224h170z" />
    <glyph glyph-name="glyph37" unicode="B" horiz-adv-x="704" 
d="M602 36q-85 -56 -222 -56h-370v63q76 4 86 13q11 9 11 56v476q0 48 -10 57q-9 7 -87 12v63h353q307 0 307 -193q0 -137 -74 -151q-5 1 9 -15q11 -12 35 -37q50 -55 50 -125q0 -105 -88 -163zM493 298q-37 36 -101 36h-136v-259q0 -10 5 -10h119q76 0 114 36q36 33 36 98
q0 63 -37 99zM366 635h-105q-5 0 -5 -10v-207h116q138 0 138 109q0 108 -144 108z" />
    <glyph glyph-name="glyph38" unicode="C" horiz-adv-x="700" 
d="M637 720l72 -227l-65 -22q-99 181 -241 181q-100 0 -153 -80q-52 -79 -52 -222t52 -222t153 -79q74 0 133 38q62 40 91 134l92 -30q-82 -226 -322 -226q-159 0 -258 110q-101 110 -101 275t101 275q99 110 258 110q116 0 166 -35l8 20h66z" />
    <glyph glyph-name="glyph39" unicode="D" horiz-adv-x="764" 
d="M519 583q-53 52 -169 52h-89q-5 0 -5 -10v-550q0 -10 5 -10h89q113 0 169 53q71 66 71 232q0 165 -71 233zM642 74q-104 -94 -292 -94h-340v63q76 4 86 13q11 9 11 56v476q0 48 -10 57q-9 7 -87 12v63h340q188 0 292 -94q108 -98 108 -276t-108 -276z" />
    <glyph glyph-name="glyph40" unicode="E" horiz-adv-x="688" 
d="M261 65h104q97 0 165 38q56 31 129 123l57 -36l-112 -210h-594v63q76 4 86 13q11 9 11 56v476q0 48 -10 57q-9 7 -87 12v63h597l79 -191l-59 -31q-59 81 -112 107q-56 30 -142 30h-112q-5 0 -5 -10v-217h137q39 0 52 16q13 14 19 81h74v-279h-74q-6 68 -19 82
q-13 15 -52 15h-137v-248q0 -10 5 -10z" />
    <glyph glyph-name="glyph41" unicode="F" horiz-adv-x="658" 
d="M256 625v-217h137q39 0 52 16q13 14 19 81h74v-279h-74q-6 68 -19 82q-13 15 -52 15h-137v-211q0 -47 12 -56q10 -9 85 -13v-63h-343v63q76 4 86 13q11 9 11 56v476q0 48 -10 57q-9 7 -87 12v63h597l79 -191l-59 -31q-59 81 -112 107q-56 30 -142 30h-112q-5 0 -5 -10z
" />
    <glyph glyph-name="glyph42" unicode="G" horiz-adv-x="759" 
d="M629 -20l-28 42q-61 -57 -205 -57q-160 0 -260 111q-98 110 -98 274q0 165 101 275q99 110 258 110q116 0 163 -34l8 19h67l71 -227l-65 -22q-99 181 -237 181q-100 0 -153 -80t-53 -222q0 -143 52 -222t151 -79q55 0 100 22q37 18 49 34v103q0 47 -11 56q-10 9 -85 13
v63h339v-63q-72 -4 -82 -13q-12 -9 -12 -56v-228h-70z" />
    <glyph glyph-name="glyph43" unicode="H" horiz-adv-x="789" 
d="M789 -20h-343v63q76 4 86 13q11 9 11 56v211h-287v-211q0 -47 12 -56q10 -9 85 -13v-63h-343v63q76 4 86 13q11 9 11 56v476q0 48 -10 57q-9 7 -87 12v63h343v-63q-77 -5 -86 -12q-11 -9 -11 -57v-180h287v180q0 48 -10 57q-9 7 -87 12v63h343v-63q-77 -5 -86 -12
q-11 -9 -11 -57v-476q0 -47 12 -56q10 -9 85 -13v-63z" />
    <glyph glyph-name="glyph44" unicode="I" horiz-adv-x="353" 
d="M353 -20h-343v63q76 4 86 13q11 9 11 56v476q0 48 -10 57q-9 7 -87 12v63h343v-63q-77 -5 -86 -12q-11 -9 -11 -57v-476q0 -47 12 -56q10 -9 85 -13v-63z" />
    <glyph glyph-name="glyph45" unicode="J" horiz-adv-x="344" 
d="M247 588v-560q0 -253 -226 -253q-77 0 -122 36q-38 32 -38 71q0 31 20 51q23 23 56 23q53 0 80 -58q15 -33 24 -33q26 0 38 23q19 35 19 126v574q0 48 -10 57q-9 7 -87 12v63h343v-63q-78 -5 -87 -12q-10 -9 -10 -57z" />
    <glyph glyph-name="glyph46" unicode="K" horiz-adv-x="737" 
d="M353 -20h-343v63q76 4 86 13q11 9 11 56v476q0 48 -10 57q-9 7 -87 12v63h343v-63q-77 -5 -86 -12q-11 -9 -11 -57v-191l240 218q6 5 11 13q3 5 1 10q-4 13 -82 18v64h320v-63q-57 -4 -81 -17q-25 -15 -70 -57l-179 -161l261 -327q21 -26 46 -39q24 -11 60 -11v-65h-346
v63q95 6 57 54l-184 227l-54 -47v-165q0 -47 12 -56q10 -9 85 -13v-63z" />
    <glyph glyph-name="glyph47" unicode="L" horiz-adv-x="639" 
d="M261 65h65q89 0 156 38q55 32 128 123l56 -36l-112 -210h-544v63q76 4 86 13q11 9 11 56v476q0 48 -10 57q-9 7 -87 12v63h343v-63q-77 -5 -86 -12q-11 -9 -11 -57v-513q0 -10 5 -10z" />
    <glyph glyph-name="glyph48" unicode="M" horiz-adv-x="894" 
d="M894 -20h-343v63q76 4 86 13q11 9 11 56v373l-184 -505h-71l-184 504v-372q0 -47 12 -56q10 -9 85 -13v-63h-296v63q76 4 86 13q12 9 12 56v476q0 46 -11 57q-9 7 -87 12v63h271l173 -476l174 476h266v-63q-77 -5 -86 -12q-11 -9 -11 -57v-476q0 -47 12 -56q10 -9 85 -13
v-63z" />
    <glyph glyph-name="glyph49" unicode="N" horiz-adv-x="758" 
d="M307 -20h-297v63q76 4 86 13q12 9 12 56v476q0 46 -11 57q-9 7 -87 12v63h258l302 -462v330q0 48 -10 57q-7 7 -85 12v63h292v-63q-78 -5 -85 -12q-11 -9 -11 -57v-608h-94l-368 563v-431q0 -47 12 -56q10 -9 86 -13v-63z" />
    <glyph glyph-name="glyph50" unicode="O" horiz-adv-x="753" 
d="M132 623q99 112 263 112q165 0 264 -112q94 -106 94 -273t-94 -273q-99 -112 -264 -112q-164 0 -263 112q-94 106 -94 273t94 273zM395 49q198 0 198 301q0 302 -198 302q-197 0 -197 -302q0 -301 197 -301z" />
    <glyph glyph-name="glyph51" unicode="P" horiz-adv-x="689" 
d="M353 -20h-343v63q76 4 86 13q11 9 11 56v476q0 48 -10 57q-6 6 -87 11v64h372q308 0 308 -198t-309 -198h-125v-212q0 -47 12 -56q10 -9 85 -13v-63zM382 635h-121q-5 0 -5 -10v-217h125q149 0 149 114q0 113 -148 113z" />
    <glyph glyph-name="glyph52" unicode="Q" horiz-adv-x="753" 
d="M132 623q99 112 263 112q165 0 264 -112q94 -106 94 -273q0 -150 -78 -254q-83 -108 -199 -123q3 -88 77 -88q39 0 65 27q25 25 25 94h98q0 -111 -61 -163q-56 -49 -145 -49q-99 0 -159 54q-58 53 -59 124q-119 17 -201 124q-78 104 -78 254q0 167 94 273zM395 49
q198 0 198 301q0 302 -198 302q-197 0 -197 -302q0 -301 197 -301z" />
    <glyph glyph-name="glyph53" unicode="R" horiz-adv-x="722" 
d="M477 329l168 -234q31 -44 119 -52v-63h-210l-243 344h-55v-212q0 -47 12 -56q10 -9 85 -13v-63h-343v63q76 4 86 13q11 9 11 56v476q0 48 -10 57q-6 6 -87 11v64h372q308 0 308 -198q0 -180 -213 -193zM382 635h-121q-5 0 -5 -10v-217h125q149 0 149 114q0 113 -148 113z
" />
    <glyph glyph-name="glyph54" unicode="S" horiz-adv-x="686" 
d="M255 484q25 -13 73 -25l43 -12l44 -11q120 -32 174 -72q84 -59 84 -161q0 -104 -85 -171q-82 -67 -212 -67t-210 44l-12 -29h-68l-74 247l66 20q105 -199 295 -199q68 0 117 37q44 34 43 87q0 58 -63 89q-27 13 -72 27l-43 12l-44 12q-121 32 -172 67q-84 55 -84 152
q0 87 78 146q74 58 186 58q128 0 186 -37l9 22h67l71 -226l-65 -24q-89 182 -262 182q-62 0 -99 -28q-33 -24 -33 -63q0 -48 62 -77z" />
    <glyph glyph-name="glyph55" unicode="T" horiz-adv-x="667" 
d="M242 112v513q0 10 -5 10q-74 0 -108 -22q-36 -22 -95 -115l-62 30l89 214h62q7 -22 11 -22h371q4 0 11 22h62l89 -213l-61 -32q-60 93 -98 116q-37 22 -112 22q-5 0 -5 -10v-513q0 -47 12 -56q10 -9 85 -13v-63h-343v63q76 4 86 13q11 9 11 56z" />
    <glyph glyph-name="glyph56" unicode="U" horiz-adv-x="766" 
d="M238 588v-382q0 -80 49 -119q43 -36 124 -36q68 0 110 36q47 41 47 117v384q0 48 -10 57q-9 7 -87 12v63h295v-63q-77 -5 -86 -12q-11 -9 -11 -57v-384q0 -101 -68 -167q-73 -72 -207 -72q-143 0 -222 61q-83 63 -83 178v384q0 48 -10 57q-9 7 -87 12v63h343v-63
q-77 -5 -86 -12q-11 -9 -11 -57z" />
    <glyph glyph-name="glyph57" unicode="V" horiz-adv-x="665" 
d="M338 -20h-93l-235 616q-12 31 -26 45q-14 11 -60 17v62h311v-63q-68 -4 -80 -13q-5 -4 3 -24l163 -423l159 422q5 16 -16.5 25t-70.5 13v63h272v-63q-73 -7 -91 -56z" />
    <glyph glyph-name="glyph58" unicode="W" horiz-adv-x="975" 
d="M238 720v-63q-72 -5 -79 -15q-9 -11 3 -49l115 -358l120 370q-10 27 -21 38q-11 9 -56 15v62h313v-63q-72 -5 -79 -15q-9 -11 3 -49l115 -358l116 358q12 38 4 49q-8 10 -78 15v63h261v-62q-48 -6 -61 -19t-28 -56l-194 -603h-94l-150 468l-151 -468h-94l-193 603
q-14 45 -26 58q-12 12 -60 16v63h314z" />
    <glyph glyph-name="glyph59" unicode="X" horiz-adv-x="683" 
d="M240 -20h-306v63q72 4 98 21q21 13 50 57l150 230l-148 228q-31 49 -44 60q-17 14 -80 17v64h333v-63q-66 -5 -68 -11q-5 -10 20 -48l83 -124l81 123q26 41 22 49q-3 7 -70 11v63h294v-63q-71 -4 -96 -20q-23 -15 -51 -58l-124 -193l173 -265q30 -45 49 -58
q20 -16 77 -20v-63h-336v63q65 4 70 12q4 8 -22 48l-107 161l-106 -162q-23 -36 -17 -46q5 -9 75 -13v-63z" />
    <glyph glyph-name="glyph60" unicode="Y" horiz-adv-x="630" 
d="M108 -20v63q76 4 86 13q11 9 11 56v153l-180 315q-26 47 -39 59q-13 13 -62 19v62h313v-63q-62 -5 -68 -14q-7 -10 13 -46l123 -217l118 216q19 34 11 47q-6 10 -69 14v63h265v-63q-52 -5 -69 -18q-16 -13 -39 -59l-168 -312v-156q0 -47 12 -56q10 -9 85 -13v-63h-343z
" />
    <glyph glyph-name="glyph61" unicode="Z" horiz-adv-x="652" 
d="M12 30l425 605h-98q-86 0 -140 -30q-50 -25 -111 -107l-59 31l79 191h529v-50l-424 -605h104q98 0 163 38q51 30 126 123l56 -36l-112 -210h-538v50z" />
    <glyph glyph-name="bracketleft" unicode="[" horiz-adv-x="325" 
d="M120 -220v960h269v-80h-139v-800h139v-80h-269z" />
    <glyph glyph-name="backslash" unicode="\" horiz-adv-x="309" 
d="M32 750l277 -984h-94l-277 984h94z" />
    <glyph glyph-name="bracketright" unicode="]" horiz-adv-x="325" 
d="M261 740v-960h-269v80h139v800h-139v80h269z" />
    <glyph glyph-name="asciicircum" unicode="^" horiz-adv-x="552" 
d="M460 330l-172 216l-171 -216h-91l225 390h75l226 -390h-92z" />
    <glyph glyph-name="underscore" unicode="_" horiz-adv-x="552" 
d="M-50 -131v82h603v-82h-603z" />
    <glyph glyph-name="grave" unicode="`" horiz-adv-x="516" 
d="M280 663l111 -174h-93l-140 124q-28 22 -28 42q0 35 41 35h59q34 0 50 -27z" />
    <glyph glyph-name="A" unicode="a" horiz-adv-x="518" 
d="M328 12q-64 -45 -148 -45q-72 0 -116 33q-44 35 -44 94q0 86 97 134q69 34 202 55v44q0 51 -12 69q-9 12 -35 12q-66 0 -79 -57q-18 -64 -75 -64q-64 0 -64 65q0 55 63 94q64 40 160 40q181 0 181 -161v-235q0 -34 7 -34q10 0 62 28v-82q-49 -33 -103 -33q-87 0 -96 43z
M319 99v106q-70 -11 -108 -32q-45 -24 -45 -67q0 -48 46 -48q48 0 107 41z" />
    <glyph glyph-name="B" unicode="b" horiz-adv-x="548" 
d="M-18 597v50l142 88h64v-261q12 12 108 12q110 0 175 -78q58 -70 58 -182q0 -111 -59 -182q-66 -79 -180 -79q-99 0 -135 38l-32 -38h-73v615q0 17 -6 17h-62zM188 363v-275q28 -40 86 -40q109 0 109 178q0 177 -109 177q-58 0 -86 -40z" />
    <glyph glyph-name="C" unicode="c" horiz-adv-x="482" 
d="M398 287q-59 0 -73 65q-9 55 -58 55q-101 0 -101 -181q0 -86 33 -134q31 -45 89 -45q76 0 132 128l79 -42q-69 -168 -220 -168q-121 0 -193 77q-66 72 -66 184q0 109 68 183q71 77 179 77q85 0 144 -41q58 -39 58 -92q0 -66 -71 -66z" />
    <glyph glyph-name="D" unicode="d" horiz-adv-x="558" 
d="M294 597v50l141 88h64v-658q0 -19 5 -24q9 -6 63 -10v-63q-98 0 -206 -20v15q-9 -10 -108 -10q-111 0 -175 79q-58 70 -58 182t58 182q64 78 175 78q99 0 108 -10v108q0 13 -7 13h-60zM361 88v275q-28 40 -86 40q-109 0 -109 -177q0 -178 109 -178q58 0 86 40z" />
    <glyph glyph-name="E" unicode="e" horiz-adv-x="509" 
d="M493 254h-326q-1 -8 -1 -28q0 -179 131 -179q85 0 137 124l81 -37q-70 -169 -224 -169q-128 0 -203 77q-68 71 -68 184q0 109 65 183q71 77 186 77q99 0 161 -57q61 -57 61 -175zM177 334h177q0 26 -24 50q-23 23 -58 23q-82 0 -95 -73z" />
    <glyph glyph-name="F" unicode="f" horiz-adv-x="300" 
d="M2 390v81h68v39q0 99 57 162t151 63q44 0 71 -18q33 -23 33 -55q0 -28 -20 -48t-52 -20q-24 0 -41 12q-13 7 -23 22q-11 14 -15 14q-23 0 -23 -55v-116h98v-81h-98v-313q0 -19 7 -23q10 -7 65 -11v-63h-278v63q54 4 63 10q5 5 5 24v313h-68z" />
    <glyph glyph-name="G" unicode="g" horiz-adv-x="525" 
d="M483 410q-25 0 -48 18l-3 2l-7 5q-5 0 -9 -7q55 -49 55 -139q0 -84 -56 -138q-59 -58 -160 -58q-43 0 -84 12q-25 5 -37 -2q-8 -5 -8 -11q0 -8 21 -13q29 -6 151 -11q121 -5 173 -36q53 -32 53 -98q0 -73 -72 -115q-65 -38 -176 -38q-251 0 -255 127q-1 62 31 79
q-30 13 -30 83q0 42 26 71q8 9 14 16t8.5 10t1.5 3q-34 28 -34 119q0 85 56 139q59 58 161 58q66 0 91 -13q41 62 119 62q81 0 81 -66q0 -59 -63 -59zM255 172q75 0 75 117q0 118 -75 118q-76 0 -76 -118q0 -117 76 -117zM156 -48q-23 -8 -23 -35q0 -57 143 -57q68 0 105 18
q29 14 29 34q0 16 -15 20q-24 8 -112 9q-78 3 -127 11z" />
    <glyph glyph-name="H" unicode="h" horiz-adv-x="572" 
d="M572 -20h-273v63q53 4 61 10q6 5 6 24v254q0 64 -53 64q-58 0 -105 -32v-286q0 -19 5 -24q9 -6 62 -10v-63h-273v63q54 4 63 10q5 5 5 24v507q0 13 -6 13h-62v50l142 88h64v-278l37 11q49 18 93 18q66 0 109 -30q58 -40 58 -125v-254q0 -19 5 -24q9 -6 62 -10v-63z" />
    <glyph glyph-name="I" unicode="i" horiz-adv-x="276" 
d="M275 -20h-273v63q54 4 63 10q5 5 5 24v258q0 13 -6 13h-62v50l142 88h64v-409q0 -19 5 -24q9 -6 62 -10v-63zM80 681q23 23 61 23t61 -23t23 -54q0 -30 -23 -53t-61 -23t-61 23t-23 53q0 31 23 54z" />
    <glyph glyph-name="J" unicode="j" horiz-adv-x="266" 
d="M-105 -143q0 25 18 44q21 21 52 21q24 0 42 -12q10 -7 20 -20q12 -16 14 -16q27 0 27 55v406q0 13 -6 13h-62v50l142 88h64v-468q0 -114 -58 -176q-57 -61 -151 -61q-102 0 -102 76zM78 681q23 23 61 23t61 -23t23 -54q0 -30 -23 -53t-61 -23t-61 23t-23 53q0 31 23 54z
" />
    <glyph glyph-name="K" unicode="k" horiz-adv-x="537" 
d="M275 -20h-273v63q54 4 63 10q5 5 5 24v507q0 13 -6 13h-62v50l142 88h64v-446l91 92q13 11 11 17t-63 9v64h285v-63q-86 -8 -139 -59l-58 -59l156 -195q38 -45 91 -54v-61h-298v63q56 5 60 13q4 6 -5 17l-100 122l-31 -31v-87q0 -19 5 -24q9 -6 62 -10v-63z" />
    <glyph glyph-name="L" unicode="l" horiz-adv-x="276" 
d="M275 -20h-273v63q54 4 63 10q5 5 5 24v507q0 13 -6 13h-62v50l142 88h64v-658q0 -19 5 -24q9 -6 62 -10v-63z" />
    <glyph glyph-name="M" unicode="m" horiz-adv-x="869" 
d="M572 -20h-273v63q53 4 61 10q6 5 6 24v254q0 64 -53 64q-58 0 -105 -32v-286q0 -19 5 -24q9 -6 62 -10v-63h-273v63q54 4 63 10q5 5 5 24v258q0 13 -6 13h-62v50l142 88h64v-29l37 11q49 18 93 18q43 0 79 -14q48 -18 55 -33q68 47 162 47q66 0 110 -30q57 -40 57 -125
v-254q0 -19 5 -24q9 -6 63 -10v-63h-273v63q53 4 62 10q5 5 5 24v254q0 64 -53 64q-59 0 -108 -32q3 -11 3 -32v-254q0 -19 5 -24q9 -6 62 -10v-63z" />
    <glyph glyph-name="N" unicode="n" horiz-adv-x="572" 
d="M572 -20h-273v63q53 4 61 10q6 5 6 24v254q0 64 -53 64q-58 0 -105 -32v-286q0 -19 5 -24q9 -6 62 -10v-63h-273v63q54 4 63 10q5 5 5 24v258q0 13 -6 13h-62v50l142 88h64v-29l37 11q49 18 93 18q66 0 109 -30q58 -40 58 -125v-254q0 -19 5 -24q9 -6 62 -10v-63z" />
    <glyph glyph-name="O" unicode="o" horiz-adv-x="541" 
d="M90 409q74 77 190 77t191 -77q70 -73 70 -183q0 -111 -70 -184q-74 -77 -191 -77q-116 0 -190 77q-70 73 -70 184q0 110 70 183zM280 44q115 0 115 182q0 181 -115 181q-114 0 -114 -181q0 -182 114 -182z" />
    <glyph glyph-name="P" unicode="p" horiz-adv-x="553" 
d="M262 -204h-273v63q55 4 63 11q5 3 5 22v443q0 13 -6 13h-65v50l145 88h64v-12q12 12 108 12q111 0 175 -78q58 -70 58 -182q0 -111 -59 -182q-66 -79 -180 -79q-89 0 -102 11v-84q0 -18 5 -23q9 -6 62 -10v-63zM195 363v-275q28 -40 86 -40q109 0 109 178q0 177 -109 177
q-58 0 -86 -40z" />
    <glyph glyph-name="Q" unicode="q" horiz-adv-x="544" 
d="M567 -204h-273v63q53 4 62 10q5 5 5 23v83q-9 -10 -108 -10q-111 0 -175 79q-58 70 -58 182t58 182q64 78 175 78q101 0 138 -42l40 42h68v-594q0 -19 5 -22q8 -7 63 -11v-63zM361 88v275q-28 40 -86 40q-109 0 -109 -177q0 -178 109 -178q58 0 86 40z" />
    <glyph glyph-name="R" unicode="r" horiz-adv-x="401" 
d="M344 334q-35 0 -65 31l-6 6l-8 8q-1 1 -3 1q-30 0 -54 -36v-267q0 -19 5 -24q9 -6 62 -10v-63h-273v63q54 4 63 10q5 5 5 24v258q0 13 -6 13h-62v50l142 88h64v-20q17 20 108 20q102 0 102 -81q0 -71 -74 -71z" />
    <glyph glyph-name="S" unicode="s" horiz-adv-x="464" 
d="M179 323q16 -7 47 -15l28 -7l30 -7q80 -19 118 -48q59 -41 59 -113q0 -76 -58 -122t-146 -46q-107 0 -147 31l-5 -16h-66l-43 183l62 20q88 -139 198 -139q34 0 57 14q24 16 24 47q0 32 -37 48q-17 7 -47 15l-29 7l-30 7q-82 20 -120 45q-59 39 -59 108q0 64 52 107
q56 44 136 44q96 0 126 -24l4 9h64l36 -161l-62 -22q-69 120 -162 120q-66 0 -66 -45q0 -27 36 -40z" />
    <glyph glyph-name="T" unicode="t" horiz-adv-x="319" 
d="M311 79v-82q-57 -28 -116 -28q-142 0 -142 137v284h-67v54q63 23 89 59q25 36 38 116h78v-148h120v-81h-120v-285q0 -50 33 -50q26 0 87 24z" />
    <glyph glyph-name="U" unicode="u" horiz-adv-x="564" 
d="M282 348v50l142 88h64v-409q0 -19 5 -24q9 -6 62 -10v-63q-97 0 -205 -20v34l-35 -10l-2 -1q-49 -18 -93 -18q-66 0 -109 31q-58 40 -58 124v215q0 13 -6 13h-61v50l142 88h63v-366q0 -64 54 -64t105 33v246q0 13 -7 13h-61z" />
    <glyph glyph-name="V" unicode="v" horiz-adv-x="463" 
d="M240 -20h-93l-135 354q-16 46 -27 58q-9 12 -53 17v62h270v-63q-56 -4 -60 -10q-4 -7 9 -41l68 -181l70 177q13 31 6 43q-4 7 -58 12v63h226v-62q-40 -4 -51 -17q-16 -20 -31 -59z" />
    <glyph glyph-name="W" unicode="w" horiz-adv-x="762" 
d="M447 -20l-100 260l-102 -260h-95l-138 353q-18 49 -27 59q-9 11 -53 16v63h271v-63q-58 -4 -60 -10q-4 -10 12 -53l65 -169l77 190q-16 37 -73 42v63h277v-63q-58 -4 -60 -10q-4 -9 13 -53l64 -169l66 169q15 36 7 50q-7 9 -64 13v63h235v-62q-39 -5 -50 -17
q-15 -19 -32 -59l-137 -353h-96z" />
    <glyph glyph-name="X" unicode="x" horiz-adv-x="512" 
d="M290 62l-69 91l-71 -91q-10 -13 36 -18l14 -1v-63h-230v63q57 6 84 39l112 146l-104 141q-18 24 -26 29q-8 7 -50 10v63h270v-63q-50 -4 -45 -17l1 -2l48 -64l50 64q10 13 -35 18l-14 1v63h235v-63q-64 -6 -89 -39l-92 -119l124 -168q27 -34 73 -40v-62h-265v64
q51 1 54 4q-4 5 -11 14z" />
    <glyph glyph-name="Y" unicode="y" horiz-adv-x="463" 
d="M373 333l-171 -427q-50 -125 -164 -125q-49 0 -83 21q-39 24 -39 62q0 26 21 47q20 20 53 20q35 0 65 -32q15 -17 19 -17q20 0 40 54l21 53l-130 343q-20 50 -28 61q-8 10 -53 16v62h270v-63q-56 -5 -58 -10q-5 -12 11 -54l64 -168l68 170q13 37 6 50q-5 8 -57 12v63h227
v-62q-39 -5 -50 -17q-15 -19 -32 -59z" />
    <glyph glyph-name="Z" unicode="z" horiz-adv-x="472" 
d="M2 30l261 362h-19q-66 0 -99 -16q-36 -19 -79 -85l-62 27l52 153h392v-50l-261 -362h42q63 0 106 28q34 22 89 100l58 -32l-76 -175h-404v50z" />
    <glyph glyph-name="braceleft" unicode="{" horiz-adv-x="309" 
d="M309 -165v-67q-223 0 -223 219v164q0 42 -14 59q-13 16 -78 16v72q65 0 78 16q14 17 14 58v164q0 219 223 219v-67q-90 0 -90 -93v-165q0 -158 -46 -168q46 -10 46 -169v-165q0 -93 90 -93z" />
    <glyph glyph-name="bar" unicode="|" horiz-adv-x="309" 
d="M216 -234v984h92v-984h-92z" />
    <glyph glyph-name="braceright" unicode="}" horiz-adv-x="309" 
d="M-6 -232v67q90 0 90 93v165q0 159 46 169q-46 10 -46 168v165q0 93 -90 93v67q224 0 224 -219v-164q0 -41 14 -58q13 -16 77 -16v-72q-64 0 -77 -16q-14 -17 -14 -59v-164q0 -219 -224 -219z" />
    <glyph glyph-name="asciitilde" unicode="~" horiz-adv-x="516" 
d="M430 434h85q0 -184 -146 -184q-61 0 -128 54l-21 17q-9 7 -18 13q-17 11 -27 11q-33 0 -33 -78h-88q0 183 146 183q60 0 128 -53l23 -17q9 -7 18 -13q17 -11 27 -11q34 0 34 78z" />
    <glyph glyph-name="nbspace" unicode="&#xa0;" horiz-adv-x="251" 
 />
    <glyph glyph-name="currency" unicode="&#xa4;" 
d="M191 258q38 -38 88 -38q51 0 88 36q38 40 38 94t-38 95q-38 36 -88 36t-86 -36q-39 -41 -39 -95q0 -55 37 -92zM79 472l-99 99l78 78l100 -100q40 31 121 31q80 0 120 -31l101 101l79 -79l-100 -99q35 -47 35 -122t-35 -122l100 -99l-79 -78l-100 99q-39 -30 -121 -30
q-81 0 -121 31l-100 -100l-78 79l99 98q-35 47 -35 122q0 78 35 122z" />
    <glyph glyph-name="dieresis" unicode="&#xa8;" horiz-adv-x="498" 
d="M196 667q21 21 56 21q36 0 57 -21q22 -22 22 -51q0 -28 -21 -49q-23 -22 -58 -22t-56 21q-22 22 -22 50q0 29 22 51zM362 667q21 21 57 21q33 0 58 -23q20 -22 20 -49q0 -26 -20 -48q-25 -23 -58 -23q-36 0 -57 21q-22 22 -22 50q0 29 22 51z" />
    <glyph glyph-name="copyright" unicode="&#xa9;" horiz-adv-x="791" 
d="M126 622q113 113 276 113t276 -113q114 -114 114 -272t-114 -272q-113 -113 -276 -113t-276 113q-114 114 -114 272t114 272zM186 128q92 -89 216 -89q125 0 216 91q90 90 90 220q0 131 -91 223q-91 89 -215 89t-216 -89q-91 -92 -91 -223t91 -222zM558 582l42 -151
l-62 -20q-56 107 -126 107q-96 0 -96 -166t96 -166q37 0 69 23q29 23 49 84l81 -26q-57 -154 -206 -154q-104 0 -167 67q-64 68 -64 172t64 172q63 67 167 67q70 0 89 -13l2 4h62z" />
    <glyph glyph-name="registered" unicode="&#xae;" horiz-adv-x="449" 
d="M71 672q63 63 156 63t158 -65q63 -63 63 -151q0 -87 -63 -150q-65 -65 -158 -65t-156 63q-65 65 -65 152q0 88 65 153zM130 415q41 -39 97 -39q57 0 97 39q42 43 42 104t-42 105q-40 39 -97 39t-97 -39q-42 -44 -42 -105t42 -104zM312 503l26 -39q4 -6 33 -9v-55h-106
l-61 94h23v-34q0 -3 -0.5 -4t-2.5 0l29 -2v-54h-154v54q28 4 26 1l-1 5v127q0 5 6 1l-31 3v54h144q108 0 108 -74q0 -61 -39 -68zM233 581h-22q16 0 16 11v-33h6q14 0 14 12q0 10 -14 10z" />
    <glyph glyph-name="macron" unicode="&#xaf;" horiz-adv-x="516" 
d="M214 559v92h301v-92h-301z" />
    <glyph glyph-name="acute" unicode="&#xb4;" horiz-adv-x="516" 
d="M372 489l109 174q18 27 50 27h60q41 0 41 -35q0 -17 -27 -42l-142 -124h-91z" />
    <glyph glyph-name="periodcentered" unicode="&#xb7;" horiz-adv-x="240" 
d="M88 290q24 24 64 24t64 -26q24 -22 24 -56t-25 -59q-24 -24 -63 -24q-40 0 -66 26q-22 22 -22 57q0 34 24 58z" />
    <glyph glyph-name="AE" unicode="&#xc6;" horiz-adv-x="1065" 
d="M592 65h103q98 0 166 38q55 31 129 123l56 -36l-112 -210h-593v63q76 4 86 13q11 9 11 56v85h-237l-68 -99q-18 -23 -7 -37t71 -18v-63h-279v65q66 2 118 77l369 530q1 -1 -17.5 0.5t-71.5 4.5v63h621l79 -191l-59 -31q-59 81 -112 107q-56 30 -142 30h-111q-5 0 -5 -10
v-217h137q38 0 51 16q13 15 18 81h75v-279h-75q-4 65 -18 82q-12 15 -51 15h-137v-248q0 -10 5 -10zM438 282v306l7 -40l-185 -266h178z" />
    <glyph glyph-name="multiply" unicode="&#xd7;" horiz-adv-x="552" 
d="M135 110l-67 67l174 173l-174 174l67 67l174 -174l175 175l67 -67l-175 -175l175 -174l-67 -67l-175 174z" />
    <glyph glyph-name="Oslash" unicode="&#xd8;" horiz-adv-x="753" 
d="M127 623q99 112 263 112q136 0 210 -62l39 47h114l-89 -109q84 -95 84 -261q0 -167 -94 -273q-99 -112 -264 -112q-136 0 -209 61l-39 -46h-114l89 108q-84 95 -84 262t94 273zM208 198l322 390q-43 64 -140 64q-197 0 -197 -302q0 -118 15 -152zM573 501l-322 -389
q43 -63 139 -63q198 0 198 301q0 116 -15 151z" />
    <glyph glyph-name="divide" unicode="&#xf7;" horiz-adv-x="552" 
d="M-30 306v90h582v-90h-582zM196 583q24 24 64 24t64 -26q24 -23 24 -56q0 -34 -25 -59q-24 -24 -63 -24q-40 0 -66 26q-22 22 -22 57q0 34 24 58zM196 234q24 24 64 24t64 -26q24 -22 24 -56t-25 -59q-24 -24 -63 -24q-40 0 -66 26q-22 22 -22 57q0 34 24 58z" />
    <glyph glyph-name="circumflex" unicode="&#x2c6;" horiz-adv-x="516" 
d="M126 488l120 176q20 29 53 29h43q35 0 52 -29l120 -176h-94l-100 95l-100 -95h-94z" />
    <glyph glyph-name="breve" unicode="&#x2d8;" horiz-adv-x="516" 
d="M432 674h83q-14 -73 -52 -104q-45 -36 -112 -36q-68 0 -113 36q-38 31 -52 104h85q17 -45 80 -45q65 0 81 45z" />
    <glyph glyph-name="dotaccent" unicode="&#x2d9;" horiz-adv-x="498" 
d="M362 667q21 21 56 21q36 0 57 -21q22 -22 22 -51q0 -28 -22 -50q-21 -21 -57 -21q-35 0 -56 21q-22 22 -22 50q0 29 22 51z" />
    <glyph glyph-name="ring" unicode="&#x2da;" horiz-adv-x="498" 
d="M282 698q37 37 90 37q54 0 91 -37q35 -35 35 -83q0 -47 -36 -83t-90 -36q-52 0 -90 38q-34 34 -34 81q0 49 34 83zM349 583q10 -10 23 -10q15 0 26 11q12 12 12 31t-12 31q-11 11 -26 11q-13 0 -23 -10q-12 -13 -12 -32t12 -32z" />
    <glyph glyph-name="tilde" unicode="&#x2dc;" horiz-adv-x="516" 
d="M437 678h78q-9 -140 -108 -140q-33 0 -80 32l-12 7l-15 10q-7 4 -12 4q-8 0 -16 -44h-80q9 140 108 140q35 0 81 -31l14 -10l13 -8q7 -4 12 -4q9 0 17 44z" />
    <glyph glyph-name="endash" unicode="&#x2013;" horiz-adv-x="552" 
d="M-30 310v80h582v-80h-582z" />
    <glyph glyph-name="emdash" unicode="&#x2014;" horiz-adv-x="817" 
d="M-30 310v80h847v-80h-847z" />
    <glyph glyph-name="quoteleft" unicode="&#x2018;" horiz-adv-x="240" 
d="M214 458q-24 -24 -64 -24q-41 0 -65 27q-23 26 -23 66q0 50 32 112q28 57 86 112l54 -41q-58 -74 -64 -111q16 0 44 -25q24 -24 24 -58t-24 -58z" />
    <glyph glyph-name="quoteright" unicode="&#x2019;" horiz-adv-x="240" 
d="M88 711q24 24 64 24q41 0 65 -27q23 -26 23 -66q0 -50 -32 -112q-28 -57 -86 -112l-54 41q58 74 64 111q-16 0 -44 25q-24 24 -24 58t24 58z" />
    <glyph glyph-name="quotesinglbase" unicode="&#x201a;" horiz-adv-x="240" 
d="M88 111q24 24 64 24q41 0 65 -27q23 -26 23 -66q0 -50 -32 -112q-28 -57 -86 -112l-54 41q58 74 64 111q-16 0 -44 25q-24 24 -24 58t24 58z" />
    <glyph glyph-name="quotedblleft" unicode="&#x201c;" horiz-adv-x="423" 
d="M398 458q-24 -24 -64 -24q-41 0 -65 27q-23 26 -23 66q0 50 32 112q28 57 86 112l54 -41q-58 -74 -64 -111q16 0 44 -25q24 -24 24 -58t-24 -58zM214 458q-24 -24 -64 -24q-41 0 -65 27q-23 26 -23 66q0 50 32 112q28 57 86 112l54 -41q-58 -74 -64 -111q16 0 44 -25
q24 -24 24 -58t-24 -58z" />
    <glyph glyph-name="quotedblright" unicode="&#x201d;" horiz-adv-x="423" 
d="M271 711q24 24 64 24q41 0 65 -27q23 -26 23 -66q0 -50 -32 -112q-28 -57 -86 -112l-54 41q58 74 64 111q-16 0 -44 25q-24 24 -24 58t24 58zM88 711q24 24 64 24q41 0 65 -27q23 -26 23 -66q0 -50 -32 -112q-28 -57 -86 -112l-54 41q58 74 64 111q-16 0 -44 25
q-24 24 -24 58t24 58z" />
    <glyph glyph-name="quotedblbase" unicode="&#x201e;" horiz-adv-x="423" 
d="M271 111q24 24 64 24q41 0 65 -27q23 -26 23 -66q0 -50 -32 -112q-28 -57 -86 -112l-54 41q58 74 64 111q-16 0 -44 25q-24 24 -24 58t24 58zM88 111q24 24 64 24q41 0 65 -27q23 -26 23 -66q0 -50 -32 -112q-28 -57 -86 -112l-54 41q58 74 64 111q-16 0 -44 25
q-24 24 -24 58t24 58z" />
    <glyph glyph-name="ellipsis" unicode="&#x2026;" horiz-adv-x="719" 
d="M88 111q24 24 64 24t64 -26q24 -23 24 -56q0 -34 -25 -59q-24 -24 -63 -24q-40 0 -66 26q-22 22 -22 57q0 34 24 58zM327 111q24 24 64 24t64 -26q24 -23 24 -56q0 -34 -25 -59q-24 -24 -63 -24q-40 0 -66 26q-22 22 -22 57q0 34 24 58zM567 111q24 24 64 24t64 -26
q24 -23 24 -56q0 -34 -25 -59q-24 -24 -63 -24q-40 0 -66 26q-22 22 -22 57q0 34 24 58z" />
    <glyph glyph-name="trademark" unicode="&#x2122;" horiz-adv-x="483" 
d="M466 470h-146v48l29 2q-2 -1 -2.5 0t-0.5 4v1l-20 -55h-53l-18 51v3l-1 -5l6 1q7 0 20 -2v-48h-122v48l29 2q-2 -1 -2.5 0t-0.5 4v142q0 3 0.5 4t2.5 0l-29 2v48h125l30 -83l30 83h123v-48q-28 -4 -26 -1l1 -5v-142l-1 -5l6 1q7 0 20 -2v-48zM27 524v149q0 -11 16 -11
q-18 0 -45 -46l-52 21l32 90h48q1 -2 0.5 -4t-2.5 -2.5t-6 -0.5h116q-7 0 -10.5 1.5t-2.5 5.5h53l30 -91l-51 -20q-25 46 -46 46q16 0 16 11v-149q0 -3 -0.5 -4t-2.5 0l28 -2v-48h-146v48q28 4 26 1z" />
    <glyph glyph-name="infinity" unicode="&#x221e;" horiz-adv-x="857" 
d="M484 182q-42 34 -66 73q-24 -40 -64 -73q-62 -52 -149 -52q-91 0 -155 64q-66 66 -66 156q0 91 66 157q64 64 155 64q89 0 153 -52q42 -36 65 -73q21 36 64 73q62 52 149 52q91 0 155 -64q66 -66 66 -157q0 -90 -66 -156q-64 -64 -155 -64q-88 0 -152 52zM300 256
q31 28 66 89q-36 63 -67 94q-41 39 -94 39q-50 0 -84 -34q-37 -37 -37 -94q0 -55 35 -93q36 -38 86 -38q55 0 95 37zM542 443q-32 -29 -67 -89q37 -63 67 -92q40 -39 94 -39q50 0 84 34q37 37 37 93q0 55 -35 93q-36 38 -86 38q-53 0 -94 -38z" />
    <glyph glyph-name="notequal" unicode="&#x2260;" horiz-adv-x="552" 
d="M-30 405v90h279l40 141h103l-40 -141h200v-90h-225l-31 -108h256v-90h-281l-40 -142h-103l40 142h-198v90h223l31 108h-254z" />
    <glyph glyph-name="_4" horiz-adv-x="0" 
 />
    <glyph glyph-name="zero.1" horiz-adv-x="557" 
d="M82 620q73 115 206 115t206 -115q64 -101 64 -270t-64 -269q-74 -116 -206 -116t-206 116q-64 100 -64 269t64 270zM198 124q28 -75 90 -75t90 75q25 69 25 226q0 156 -25 227q-27 75 -90 75t-90 -75q-25 -71 -25 -227q0 -157 25 -226z" />
    <glyph glyph-name="one.1" horiz-adv-x="352" 
d="M352 -20h-340v63q76 4 86 13q11 9 11 56v453q0 12 -6 12h-90v51l172 107h70v-623q0 -47 12 -56q10 -9 85 -13v-63z" />
    <glyph glyph-name="two.1" horiz-adv-x="511" 
d="M113 477h-99q0 126 68 194q65 64 168 64q107 0 177 -64q67 -63 67 -159q0 -114 -99 -232q-71 -86 -180 -168h185q14 0 16 3q8 11 22 84h76l-28 -241h-75v25q1 -3 8 -3h-397v71l36 34l26 24q10 9 28.5 27.5t27.5 26.5q56 55 100 110q99 127 99 239q0 138 -104 138
q-53 0 -84 -34q-38 -41 -38 -139z" />
    <glyph glyph-name="three.1" horiz-adv-x="525" 
d="M452 451q-36 -48 -23 -44q-8 2 42 -56q51 -59 51 -131q0 -109 -74 -180q-81 -75 -216 -75q-86 0 -146 28q-76 34 -76 95q0 29 19 49q23 23 55 23q38 0 64 -24q13 -11 19 -22l13 -20q27 -44 56 -44q131 0 131 146q0 63 -38 104q-39 43 -108 43h-43v84h49q51 0 79 33
q28 32 28 84q0 48 -24 76q-24 30 -67 30q-46 0 -74 -28q-34 -33 -39 -113h-100q10 113 68 168q61 58 163 58q105 0 170 -56q58 -49 58 -120q0 -64 -37 -108z" />
    <glyph glyph-name="four.1" horiz-adv-x="554" 
d="M440 -20h-146v180h-282v58l312 502h116v-475h114v-85h-114v-180zM294 497l-158 -252h158v252z" />
    <glyph glyph-name="five.1" horiz-adv-x="514" 
d="M432 406q74 -74 74 -181t-71 -180q-80 -80 -208 -80q-85 0 -150 27q-79 34 -79 96q0 28 21 51q19 21 51 21q37 0 65 -23q9 -7 20 -22l16 -20q31 -45 63 -45q67 0 103 39q36 37 36 107q0 68 -46 110q-46 41 -118 41q-70 0 -132 -34l-54 21l57 386h306q3 0 6 22h76
l-17 -153h-296l-15 -109q9 4 81 4q131 0 211 -78z" />
    <glyph glyph-name="six.1" horiz-adv-x="557" 
d="M501 737v-81q-266 -32 -303 -199q20 14 102 14q122 0 194 -82q64 -70 64 -172q0 -101 -74 -173q-78 -79 -196 -79q-128 0 -201 97q-69 88 -69 231q0 190 133 311q124 113 350 133zM176 345q-3 -24 -3 -64q0 -117 26 -174q28 -58 89 -58q54 0 84 43q31 46 31 125
q0 77 -33 124q-32 45 -87 45q-63 0 -107 -41z" />
    <glyph glyph-name="seven.1" horiz-adv-x="482" 
d="M249 -20h-155q38 342 239 609h-237q-13 0 -16 -3q-10 -15 -23 -84h-75l27 240h75v-25q-2 3 -8 3h405v-68q-196 -274 -232 -672z" />
    <glyph glyph-name="eight.1" horiz-adv-x="557" 
d="M485 436q-34 -37 -63 -50q43 -19 82 -61q54 -59 54 -143q0 -94 -71 -154q-73 -63 -203 -63q-124 0 -198 64q-68 59 -68 138q0 131 126 190q-96 51 -96 183q0 72 57 127q71 68 194 68q106 0 170 -55q60 -51 60 -124q0 -70 -44 -120zM170 86q40 -38 111 -38q70 0 106 36
q28 28 28 73q0 58 -53 96q-21 13 -57 30l-35 14l-24 10q-50 -21 -75 -49q-35 -35 -35 -87q0 -54 34 -85zM229 480q26 -23 85 -47q45 20 71 45q32 30 32 74q0 46 -28 73q-29 27 -84 27q-54 0 -83 -23q-30 -24 -30 -69q0 -49 37 -80z" />
    <glyph glyph-name="nine.1" horiz-adv-x="557" 
d="M75 -37v82q266 29 304 199q-23 -15 -103 -15q-121 0 -193 81q-65 73 -65 173t74 174q78 78 196 78q129 0 202 -96q68 -89 68 -232q0 -189 -132 -311q-125 -113 -351 -133zM400 354q3 39 3 65q0 118 -26 175q-28 58 -89 58q-54 0 -84 -43q-31 -46 -31 -126q0 -78 33 -124
q32 -45 87 -45q64 0 107 40z" />
    <glyph glyph-name="zero.2" 
d="M103 456q77 95 205 95t205 -95q65 -83 65 -198t-65 -198q-77 -95 -205 -95t-205 95q-65 83 -65 198t65 198zM308 48q115 0 115 210q0 102 -24 153q-29 57 -91 57t-91 -57q-24 -51 -24 -153q0 -210 115 -210z" />
    <glyph glyph-name="one.2" 
d="M578 -20h-400v64q96 4 112 14q15 9 15 54v269q0 12 -6 12h-121v52l204 106h69v-439q0 -45 16 -54q16 -10 111 -14v-64z" />
    <glyph glyph-name="one.3" 
d="M305 112v292q0 45 -16 55q-15 9 -111 13v64h400v-64q-96 -4 -111 -13q-16 -10 -16 -55v-292q0 -45 16 -54q16 -10 111 -14v-64h-400v64q96 4 112 14q15 9 15 54z" />
    <glyph glyph-name="two.2" 
d="M149 293h-99q0 127 69 194q65 64 170 64q107 0 172 -49q67 -52 67 -134q0 -168 -213 -261h122q15 0 17 3q8 11 22 84h77l-29 -236h-75v25q1 -3 8 -3h-399v81q162 92 226 147q91 79 91 158q0 97 -103 97q-54 0 -85 -34q-38 -41 -38 -136z" />
    <glyph glyph-name="three.2" 
d="M457 223q-4 2 47 -58q49 -56 49 -129q0 -109 -74 -180q-80 -75 -215 -75q-86 0 -146 28q-76 33 -76 94q0 30 19 50q22 22 55 22q55 0 96 -65q27 -44 55 -44q131 0 131 146q0 64 -37 104q-39 43 -108 43h-43v84h48q50 0 79 33q28 32 28 84q0 48 -24 76q-24 30 -67 30
q-45 0 -73 -28q-36 -34 -40 -113h-100q10 113 68 168q61 58 163 58q106 0 171 -56q57 -51 57 -120q0 -131 -63 -152z" />
    <glyph glyph-name="four.2" 
d="M464 -204h-146v184h-282v58l309 498h119v-471h114v-85h-114v-184zM318 317l-158 -252h158v252z" />
    <glyph glyph-name="five.2" 
d="M482 221q74 -72 74 -180q0 -107 -71 -180q-78 -80 -207 -80q-86 0 -150 27q-80 35 -80 95q0 30 19 50q22 22 54 22q37 0 65 -23q9 -8 19 -21l16 -20q31 -45 64 -45q67 0 102 38q36 38 36 108q0 68 -46 110q-46 41 -118 41q-69 0 -131 -34l-55 21l57 386h306q4 0 7 22h77
l-19 -153h-296l-14 -108q7 3 80 3q132 0 211 -79z" />
    <glyph glyph-name="six.2" 
d="M521 737v-81q-266 -32 -303 -199q20 14 102 14q122 0 194 -82q64 -70 64 -172q0 -101 -74 -173q-78 -79 -196 -79q-128 0 -201 97q-69 88 -69 231q0 190 133 311q124 113 350 133zM196 345q-3 -24 -3 -64q0 -117 26 -174q28 -58 89 -58q54 0 84 43q31 46 31 125
q0 77 -33 124q-32 45 -87 45q-63 0 -107 -41z" />
    <glyph glyph-name="seven.2" 
d="M337 -204h-155q38 342 239 609h-237q-13 0 -16 -3q-10 -15 -23 -84h-75l27 240h75v-25q-2 3 -8 3h405v-68q-196 -274 -232 -672z" />
    <glyph glyph-name="eight.2" 
d="M505 436q-34 -37 -63 -50q43 -19 82 -61q54 -59 54 -143q0 -94 -71 -154q-73 -63 -203 -63q-124 0 -198 64q-68 59 -68 138q0 131 126 190q-96 51 -96 183q0 72 57 127q71 68 194 68q106 0 170 -55q60 -51 60 -124q0 -70 -44 -120zM190 86q40 -38 111 -38q70 0 106 36
q28 28 28 73q0 58 -53 96q-21 13 -57 30l-35 14l-24 10q-50 -21 -75 -49q-35 -35 -35 -87q0 -54 34 -85zM249 480q26 -23 85 -47q45 20 71 45q32 30 32 74q0 46 -28 73q-29 27 -84 27q-54 0 -83 -23q-30 -24 -30 -69q0 -49 37 -80z" />
    <glyph glyph-name="nine.2" 
d="M95 -221v81q267 32 304 200q-23 -15 -103 -15q-121 0 -193 81q-65 73 -65 173t74 174q78 78 196 78q128 0 202 -96q68 -89 68 -232q0 -189 -132 -311q-125 -113 -351 -133zM420 170q3 39 3 65q0 118 -26 175q-28 58 -89 58q-54 0 -84 -43q-31 -46 -31 -126q0 -78 33 -124
q32 -45 87 -45q64 0 107 40z" />
    <glyph glyph-name="zero.3" horiz-adv-x="557" 
d="M83 456q77 95 205 95t205 -95q65 -83 65 -198t-65 -198q-77 -95 -205 -95t-205 95q-65 83 -65 198t65 198zM288 48q115 0 115 210q0 102 -24 153q-29 57 -91 57t-91 -57q-24 -51 -24 -153q0 -210 115 -210z" />
    <glyph glyph-name="one.4" horiz-adv-x="352" 
d="M352 -20h-340v63q76 4 86 13q11 9 11 56v269q0 12 -6 12h-91v51l173 107h70v-439q0 -47 12 -56q10 -9 85 -13v-63z" />
    <glyph glyph-name="one.5" horiz-adv-x="352" 
d="M109 112v292q0 48 -10 57q-9 7 -87 12v63h340v-63q-77 -5 -86 -12q-11 -9 -11 -57v-292q0 -47 12 -56q10 -9 85 -13v-63h-340v63q76 4 86 13q11 9 11 56z" />
    <glyph glyph-name="two.3" horiz-adv-x="512" 
d="M113 293h-99q0 127 69 194q65 64 170 64q107 0 172 -49q67 -52 67 -134q0 -168 -213 -261h122q15 0 17 3q8 11 22 84h77l-29 -236h-75v25q1 -3 8 -3h-399v81q162 92 226 147q91 79 91 158q0 97 -103 97q-54 0 -85 -34q-38 -41 -38 -136z" />
    <glyph glyph-name="three.3" horiz-adv-x="525" 
d="M425 223q-4 2 47 -58q49 -56 49 -129q0 -109 -74 -180q-79 -75 -215 -75q-86 0 -146 28q-76 33 -76 94q0 30 19 50q22 22 55 22q55 0 96 -65q27 -44 55 -44q131 0 131 146q0 64 -37 104q-39 43 -108 43h-43v84h48q50 0 79 33q28 32 28 84q0 48 -24 76q-24 30 -67 30
q-45 0 -73 -28q-36 -34 -40 -113h-100q10 113 68 168q61 58 163 58q106 0 171 -56q57 -51 57 -120q0 -131 -63 -152z" />
    <glyph glyph-name="four.3" horiz-adv-x="536" 
d="M422 -204h-146v184h-282v58l309 498h119v-471h114v-85h-114v-184zM276 317l-158 -252h158v252z" />
    <glyph glyph-name="five.3" horiz-adv-x="515" 
d="M432 221q74 -72 74 -180q0 -107 -71 -180q-78 -80 -207 -80q-86 0 -150 27q-80 35 -80 95q0 30 19 50q22 22 54 22q37 0 65 -23q9 -8 19 -21l16 -20q31 -45 64 -45q67 0 102 38q36 38 36 108q0 68 -46 110q-46 41 -118 41q-69 0 -131 -34l-55 21l57 386h306q4 0 7 22h77
l-19 -153h-296l-14 -108q7 3 80 3q132 0 211 -79z" />
    <glyph glyph-name="six.3" horiz-adv-x="557" 
d="M501 737v-81q-266 -32 -303 -199q20 14 102 14q122 0 194 -82q64 -70 64 -172q0 -101 -74 -173q-78 -79 -196 -79q-128 0 -201 97q-69 88 -69 231q0 190 133 311q124 113 350 133zM176 345q-3 -24 -3 -64q0 -117 26 -174q28 -58 89 -58q54 0 84 43q31 46 31 125
q0 77 -33 124q-32 45 -87 45q-63 0 -107 -41z" />
    <glyph glyph-name="seven.3" horiz-adv-x="482" 
d="M249 -204h-155q38 342 239 609h-237q-13 0 -16 -3q-10 -15 -23 -84h-75l27 240h75v-25q-2 3 -8 3h405v-68q-196 -274 -232 -672z" />
    <glyph glyph-name="eight.3" horiz-adv-x="557" 
d="M485 436q-34 -37 -63 -50q43 -19 82 -61q54 -59 54 -143q0 -94 -71 -154q-73 -63 -203 -63q-124 0 -198 64q-68 59 -68 138q0 131 126 190q-96 51 -96 183q0 72 57 127q71 68 194 68q106 0 170 -55q60 -51 60 -124q0 -70 -44 -120zM170 86q40 -38 111 -38q70 0 106 36
q28 28 28 73q0 58 -53 96q-21 13 -57 30l-35 14l-24 10q-50 -21 -75 -49q-35 -35 -35 -87q0 -54 34 -85zM229 480q26 -23 85 -47q45 20 71 45q32 30 32 74q0 46 -28 73q-29 27 -84 27q-54 0 -83 -23q-30 -24 -30 -69q0 -49 37 -80z" />
    <glyph glyph-name="nine.3" horiz-adv-x="557" 
d="M75 -221v81q267 32 304 200q-23 -15 -103 -15q-121 0 -193 81q-65 73 -65 173t74 174q78 78 196 78q129 0 202 -96q68 -89 68 -232q0 -189 -132 -311q-125 -113 -351 -133zM400 170q3 39 3 65q0 118 -26 175q-28 58 -89 58q-54 0 -84 -43q-31 -46 -31 -126q0 -78 33 -124
q32 -45 87 -45q64 0 107 40z" />
    <glyph glyph-name="periodcentered.1" horiz-adv-x="240" 
d="M88 408q24 24 64 24t64 -26q24 -23 24 -56q0 -34 -25 -59q-24 -24 -63 -24q-40 0 -66 26q-22 22 -22 57q0 34 24 58z" />
    <glyph glyph-name="bullet.1" horiz-adv-x="280" 
d="M45 441q41 41 98 41q58 0 97 -39t39 -93t-37 -91q-40 -40 -99 -40t-97 38q-40 40 -40 93q0 54 39 91z" />
    <glyph glyph-name="exclam.1" horiz-adv-x="227" 
d="M187 130h-83q-2 83 -8 124q-5 38 -13 73q-19 80 -19 115q0 105 82 105q81 0 81 -105q0 -35 -19 -115q-8 -35 -13 -73q-6 -41 -8 -124zM84 97q24 25 62 25q37 0 61 -25q20 -20 20 -50q0 -28 -20 -51q-24 -25 -61 -25q-38 0 -62 25q-20 23 -20 51q0 30 20 50z" />
    <glyph glyph-name="question.1" horiz-adv-x="385" 
d="M213 193l-1 -63h-87l-1 182q139 0 139 76q0 33 -22 55t-56 22q-17 0 -32 -25q-30 -50 -75 -50q-29 0 -49 20q-17 20 -17 44q0 46 47 73q40 20 99 20q106 0 170 -61q57 -54 57 -129q0 -78 -56 -122q-53 -41 -116 -42zM107 97q24 25 62 25q37 0 61 -25q20 -20 20 -50
q0 -28 -20 -51q-24 -25 -61 -25q-38 0 -62 25q-20 23 -20 51q0 30 20 50z" />
    <glyph glyph-name="guillemotleft.1" horiz-adv-x="509" 
d="M328 143l-53 -37l-187 208q-16 17 -16 38q0 24 16 40l187 209l53 -40l-99 -209zM513 143l-53 -37l-187 208q-16 17 -16 38q0 24 16 40l187 209l53 -40l-99 -209z" />
    <glyph glyph-name="guillemotright.1" horiz-adv-x="509" 
d="M115 106l-53 37l99 209l-99 209l53 40l187 -209q16 -16 16 -40q0 -21 -16 -38zM301 106l-53 37l99 209l-99 209l53 40l187 -209q16 -16 16 -40q0 -21 -16 -38z" />
    <glyph glyph-name="guilsinglleft.1" horiz-adv-x="324" 
d="M328 143l-53 -37l-187 208q-16 17 -16 38q0 24 16 40l187 209l53 -40l-99 -209z" />
    <glyph glyph-name="guilsinglright.1" horiz-adv-x="324" 
d="M115 106l-53 37l99 209l-99 209l53 40l187 -209q16 -16 16 -40q0 -21 -16 -38z" />
    <glyph glyph-name="hyphen.case" horiz-adv-x="243" 
d="M-30 301v99h273v-99h-273z" />
    <glyph glyph-name="endash.1" horiz-adv-x="552" 
d="M-30 310v80h582v-80h-582z" />
    <glyph glyph-name="emdash.1" horiz-adv-x="817" 
d="M-30 310v80h847v-80h-847z" />
    <glyph glyph-name="parenleft.case" horiz-adv-x="309" 
d="M89 640q71 125 203 214l49 -58q-93 -71 -143 -190q-53 -124 -53 -256q0 -130 53 -256q51 -119 143 -190l-49 -58q-132 89 -203 214q-77 137 -77 290t77 290z" />
    <glyph glyph-name="braceleft.c2sc" horiz-adv-x="253" 
d="M253 -47v-65q-100 0 -146 43q-45 43 -45 121v122q0 50 -68 50v67q68 0 68 51v121q0 77 45 121q46 43 146 43v-64q-67 0 -67 -59v-120q0 -123 -22 -127q22 -4 22 -126v-121q0 -57 67 -57z" />
    <glyph glyph-name="braceright.c2sc" horiz-adv-x="253" 
d="M-6 -112v65q67 0 67 57v121q0 122 22 126q-22 4 -22 127v120q0 59 -67 59v64q100 0 146 -43q45 -44 45 -121v-121q0 -51 68 -51v-67q-68 0 -68 -50v-122q0 -78 -45 -121q-46 -43 -146 -43z" />
    <glyph glyph-name="numbersign.1" horiz-adv-x="434" 
d="M147 -20l43 146h-54l-43 -146h-91l43 146h-75v75h97l34 114h-86v75h109l43 146h91l-44 -146h54l44 146h89l-43 -146h76v-75h-98l-34 -114h87v-75h-109l-43 -146h-90zM192 315l-34 -114h54l34 114h-54z" />
    <glyph glyph-name="dollar.1" 
d="M271 -131v96q-94 1 -167 64q-66 55 -66 131q0 48 27 80q32 35 79 35q35 0 61 -23q24 -22 24 -54q0 -34 -26 -57q-24 -19 -59 -21q8 0 8 9q0 -28 44 -54q46 -25 75 -27v259l-22 9q-11 3 -38 16q-41 18 -72 43q-71 59 -71 158q0 71 51 127q63 67 153 73v47h92v-47
q71 -4 130 -57q55 -46 55 -108q0 -50 -27 -81q-30 -35 -77 -35q-39 0 -64 25q-20 23 -20 50q0 31 24 54q23 20 57 22q-7 -1 -7 -9q0 22 -27 38q-28 16 -44 18v-235l23 -9q21 -6 40 -17q46 -20 75 -43q76 -61 76 -164q0 -87 -61 -145q-63 -60 -154 -68v-100h-92zM408 239
q-26 25 -45 32v-218q24 3 52 37q25 28 25 68q0 49 -32 81zM272 452v196q-65 -8 -65 -98q0 -72 65 -98z" />
    </font>
</defs>
</svg>
