<?xml version="1.0" standalone="no"?>
<!DOCTYPE svg PUBLIC "-//W3C//DTD SVG 1.1//EN" "http://www.w3.org/Graphics/SVG/1.1/DTD/svg11.dtd" >
<svg xmlns="http://www.w3.org/2000/svg" xmlns:xlink="http://www.w3.org/1999/xlink" version="1.1">
<metadata>
Created by FontForge 20170731 at Fri Jan  1 02:30:17 1904
 By Aleksey,,,
Attribution-ShareAlike 4.0 International
</metadata>
<defs>
<font id="Bookinsanity-BoldItalic" horiz-adv-x="578" >
  <font-face 
    font-family="Bookinsanity"
    font-weight="700"
    font-style="italic"
    font-stretch="normal"
    units-per-em="1000"
    panose-1="2 0 8 3 7 0 0 9 0 3"
    ascent="750"
    descent="-250"
    x-height="471"
    cap-height="720"
    bbox="-391.2 -246 1553 856"
    underline-thickness="50"
    underline-position="-150"
    slope="-12"
    unicode-range="U+0020-2260"
  />
<missing-glyph horiz-adv-x="789" 
d="M180 -20l315 740h591l-314 -740h-592zM567 636l-243 -572h376l243 572h-376z" />
    <glyph glyph-name=".notdef" horiz-adv-x="789" 
d="M180 -20l315 740h591l-314 -740h-592zM567 636l-243 -572h376l243 572h-376z" />
    <glyph glyph-name="glyph1" horiz-adv-x="0" 
 />
    <glyph glyph-name="nonmarkingreturn" horiz-adv-x="333" 
 />
    <glyph glyph-name="controlHT" unicode=" " horiz-adv-x="251" 
 />
    <glyph glyph-name="exclam" unicode="!" horiz-adv-x="240" 
d="M276 166h-88q45 109 69 184q16 49 30 104q27 118 46 160q51 121 132 121q99 0 40 -137q-15 -35 -89 -157q-38 -63 -59 -103q-35 -66 -81 -172zM142 113q31 22 68 22q44 0 60 -30q15 -24 0 -60q-14 -31 -46 -53q-31 -22 -67 -22q-44 0 -62 30q-13 25 3 61q14 30 44 52z
" />
    <glyph glyph-name="quotedbl" unicode="&#x22;" horiz-adv-x="423" 
d="M777 416h-78q24 69 32 102q7 31 11 57q11 67 21 89q13 30 40 50q29 21 62 21q41 0 54 -28q13 -22 -2 -58q-6 -16 -52 -84q-23 -33 -39 -60q-30 -50 -49 -89zM594 416h-78q24 69 32 102q7 31 11 57q11 67 21 89q13 30 40 50q28 21 62 21q41 0 54 -28q13 -22 -2 -58
q-6 -16 -52 -84q-22 -33 -39 -60q-30 -50 -49 -89z" />
    <glyph glyph-name="numbersign" unicode="#" horiz-adv-x="552" 
d="M225 -20l144 204h-91l-144 -204h-100l144 204h-99l33 79h123l123 174h-118l34 80h140l144 203h100l-144 -203h90l144 203h100l-144 -203h101l-34 -80h-123l-123 -174h117l-33 -79h-140l-144 -204h-100zM458 437l-123 -174h90l123 174h-90z" />
    <glyph glyph-name="dollar" unicode="$" 
d="M267 -131l42 100q-57 5 -79 29l-15 -18h-71l31 250l72 19q20 -201 96 -202l112 264l-13 6q-10 4 -32 16q-37 22 -56 45q-48 59 -4 163q28 67 102 123q88 64 183 69l20 47h95l-21 -50q46 -5 53 -17l6 7h69l-25 -229l-72 -23q-8 177 -65 182l-102 -239l14 -5q23 -11 34 -18
q39 -20 58 -45q52 -62 7 -169q-35 -84 -119 -140q-88 -59 -184 -67l-41 -98h-95zM564 243q-13 22 -30 31l-94 -220q18 3 65 39q39 32 57 73q20 47 2 77zM515 449l84 198q-67 -8 -107 -105q-29 -68 23 -93z" />
    <glyph glyph-name="percent" unicode="%" horiz-adv-x="823" 
d="M437 662q74 67 162 67q97 0 118 -76q18 -64 -28 -171q-43 -101 -113 -164q-74 -67 -163 -67q-96 0 -117 76q-18 64 28 171q43 101 113 164zM408 350q-2 -29 18 -29q34 0 65 40q32 42 72 137q40 93 43 133q1 28 -19 28q-33 0 -64 -39q-30 -39 -73 -138q-39 -93 -42 -132z
M216 -20l796 740h109l-797 -740h-108zM760 382q74 67 162 67q97 0 118 -76q18 -64 -28 -171q-43 -101 -113 -164q-74 -67 -163 -67q-96 0 -117 76q-18 64 28 171q43 101 113 164zM731 70q-2 -29 18 -29q34 0 65 40q32 42 72 137q40 93 43 133q1 28 -19 28q-32 0 -64 -39
q-30 -39 -73 -138q-39 -93 -42 -132z" />
    <glyph glyph-name="ampersand" unicode="&#x26;" horiz-adv-x="748" 
d="M658 123q-2 -44 9 -61q6 -10 26 -10q39 0 130 30l-36 -84q-66 -32 -146 -32q-118 0 -130 57q-98 -58 -226 -58q-113 0 -157 65q-40 58 -3 145q37 88 133 160q65 46 159 89q-47 66 -9 155q22 54 83 100q76 56 165 56q84 0 116 -51q27 -46 -1 -110q-23 -52 -81 -96
q-44 -34 -95 -59q64 -71 64 -193q44 41 86 139q15 34 7 45q-6 7 -76 13l27 63h292l-28 -65q-59 -4 -82 -18q-24 -15 -49 -61q-71 -128 -178 -219zM504 106l-3 -7v-2q1 207 -34 258q-131 -67 -175 -170q-23 -56 -7 -91q14 -32 65 -32q77 0 154 44zM520 515q6 -22 19 -36
q114 53 138 111q14 32 4 49q-8 14 -38 14q-35 0 -66 -21q-34 -22 -51 -64q-14 -29 -6 -53z" />
    <glyph glyph-name="quotesingle" unicode="'" horiz-adv-x="240" 
d="M594 416h-78q24 69 32 102q7 31 11 57q11 67 21 89q13 30 40 50q28 21 62 21q41 0 54 -28q13 -22 -2 -58q-6 -16 -52 -84q-22 -33 -39 -60q-30 -50 -49 -89z" />
    <glyph glyph-name="parenleft" unicode="(" horiz-adv-x="309" 
d="M369 554q120 123 290 212l27 -65q-117 -66 -223 -190t-163 -259q-56 -132 -56 -254q0 -118 63 -189l-67 -53q-100 95 -116 220q-20 138 47 292q65 153 198 286z" />
    <glyph glyph-name="parenright" unicode=")" horiz-adv-x="309" 
d="M110 -34q-123 -124 -291 -212l-27 64q123 72 224 191q105 122 163 259q55 129 55 254q0 118 -63 189l67 53q99 -95 117 -220q20 -137 -46 -292q-65 -151 -199 -286z" />
    <glyph glyph-name="asterisk" unicode="*" horiz-adv-x="384" 
d="M698 615q-14 -18 -21 -30q-10 -14 -1 4q3 7 9 18l-1 -1l-2 -1l-28 -14q2 1 4 3q14 10 33 24q39 28 54 35q31 14 54 7q29 -6 33 -34q6 -47 -52 -72q-20 -10 -60 -18l-17 -3q-7 -1 -16 -5l-11 -2q1 0 8 3l-13 9q1 0 5 -2q4 -1 12.5 -3.5t13.5 -3.5q36 -9 48 -18
q45 -34 -2 -83q-47 -47 -94 -13q-16 11 -30 41l-12 21q-5 7 1 1q3 -3 12 -13q2 5 3 9q0 -2 -1 -5l-2 -16l-2 -14q-4 -35 -12 -55q-23 -53 -78 -53q-72 0 -42 69q5 11 32 51q13 18 21 30q5 7 4 6q0 -3 -14 -30l33 17q-2 -1 -5 -3q-9 -6 -17 -12l-14 -11q-39 -28 -55 -35
q-78 -35 -87 26q-6 46 55 74q20 9 57 16q26 6 32 8q10 3 10.5 2.5t-9.5 -4.5q26 -12 9 -6q-2 1 -6 2.5t-5 1.5l-13 3q-37 11 -50 21q-19 15 -18 40q1 19 23 41q16 17 42 22q29 7 52 -10q12 -10 29 -40q5 -9 12 -23l2 -3q-3 1 -14 14l-5 -9q0 1 2 8q0 1 1.5 12t2.5 18
q4 31 13 55q9 20 30 37q22 16 47 16q72 0 43 -69q-7 -15 -33 -51z" />
    <glyph glyph-name="plus" unicode="+" horiz-adv-x="552" 
d="M228 306l38 90h240l102 240h103l-102 -240h242l-39 -90h-242l-102 -241h-103l103 241h-240z" />
    <glyph glyph-name="comma" unicode="," horiz-adv-x="240" 
d="M78 113q31 22 68 22q45 0 60 -32q13 -26 -5 -69q-20 -48 -78 -109q-52 -57 -127 -107l-42 46q87 72 108 106q-9 0 -29 29q-15 26 1 62q14 30 44 52z" />
    <glyph glyph-name="hyphen" unicode="-" horiz-adv-x="243" 
d="M116 176l43 99h275l-42 -99h-276z" />
    <glyph glyph-name="period" unicode="." horiz-adv-x="240" 
d="M142 113q31 22 68 22q44 0 60 -30q15 -24 0 -60q-14 -31 -46 -53q-31 -22 -67 -22q-44 0 -62 30q-13 25 3 61q14 30 44 52z" />
    <glyph glyph-name="slash" unicode="/" horiz-adv-x="309" 
d="M-268 -234l696 984h100l-696 -984h-100z" />
    <glyph glyph-name="zero" unicode="0" 
d="M444 624q118 111 247 111q139 0 164 -121q21 -103 -51 -272q-71 -166 -178 -267q-116 -110 -245 -110q-140 0 -164 122q-21 102 51 271q72 167 176 266zM349 118q-5 -69 50 -69q68 0 131 80q55 69 123 229q66 157 70 225q5 69 -50 69q-69 0 -131 -80q-55 -71 -123 -230
q-65 -153 -70 -224z" />
    <glyph glyph-name="one" unicode="1" 
d="M561 -20h-403l27 64q94 4 115 15q23 10 45 61l192 453q1 4 6 4h-130l23 55l241 103h78l-268 -631q-18 -40 -10 -48q10 -9 111 -13z" />
    <glyph glyph-name="two" unicode="2" 
d="M383 477h-102q56 132 150 196q91 62 189 62q111 0 156 -68q40 -64 0 -163q-47 -112 -195 -227q-107 -84 -246 -165h170q17 0 24 6q15 13 58 81h80l-131 -241h-78l13 31q1 -9 14 -9h-407l32 76l47 31l37 24q14 9 40.5 27.5t38.5 26.5q94 66 148 112q155 129 204 243
q55 130 -39 130q-56 0 -105 -37q-57 -41 -98 -136z" />
    <glyph glyph-name="three" unicode="3" 
d="M719 447q-54 -45 -42 -42q-11 2 16 -59q26 -61 -5 -134q-46 -106 -147 -174q-109 -73 -241 -73q-86 0 -138 29q-66 38 -39 102q9 23 37 44q29 20 58 20q40 0 60 -27q7 -10 10 -25l5 -20q8 -38 30 -38q139 0 203 154q25 61 6 101q-20 38 -83 38h-53l36 84h42q54 0 101 36
q43 34 66 89q20 45 8 73q-9 25 -47 25q-47 0 -92 -30q-50 -34 -88 -111h-103q61 117 138 170q83 56 182 56q109 0 153 -59q37 -52 7 -125q-26 -60 -80 -104z" />
    <glyph glyph-name="four" unicode="4" 
d="M524 -20h-149l77 180h-282l27 64l519 496h122l-202 -475h114l-36 -85h-114zM591 488l-255 -243h152z" />
    <glyph glyph-name="five" unicode="5" 
d="M687 401q44 -74 -3 -184q-46 -105 -144 -175q-110 -77 -235 -77q-89 0 -141 28q-70 37 -43 103q10 25 38 45q25 19 55 19q42 0 61 -27q5 -8 12 -23l7 -21q10 -39 37 -39q69 0 126 42q55 40 85 112q28 64 2 106q-25 37 -95 37q-71 0 -148 -34l-52 25l219 382h300
q9 0 21 22h81l-83 -153h-295l-59 -105q-1 0 69 0q135 0 185 -83z" />
    <glyph glyph-name="six" unicode="6" 
d="M901 738l-35 -83q-278 -30 -381 -190q12 6 92 6q125 0 166 -86q34 -72 -10 -176q-40 -97 -143 -168q-107 -76 -223 -76q-133 0 -168 102q-31 89 31 234q80 187 261 305q170 113 410 132zM408 341q-14 -24 -33 -68q-49 -113 -47 -172q3 -52 57 -52q58 0 111 47
q52 47 86 129q33 77 20 122q-10 39 -61 39q-65 0 -133 -45z" />
    <glyph glyph-name="seven" unicode="7" 
d="M432 -20h-160q184 345 495 609h-223q-18 0 -25 -7q-18 -14 -57 -80h-80l130 240h78l-13 -31q-1 9 -14 9h414l-31 -73q-312 -273 -514 -667z" />
    <glyph glyph-name="eight" unicode="8" 
d="M731 433q-47 -35 -87 -51q32 -16 55 -62q31 -57 -7 -146q-37 -89 -131 -148q-97 -61 -224 -61q-126 0 -177 68q-44 62 -10 142q54 127 206 186q-75 53 -17 187q28 67 106 121q96 66 217 66q108 0 153 -59q39 -52 7 -128q-28 -67 -91 -115zM264 82q19 -34 88 -34
q72 0 127 38q43 30 64 79q24 56 -11 91q-12 12 -42 28l-29 14l-18 9q-59 -21 -102 -52q-52 -36 -75 -92q-22 -50 -2 -81zM490 476q14 -20 60 -43q60 23 95 47q48 33 68 80q18 44 3 69q-15 23 -66 23q-58 0 -99 -25q-43 -25 -64 -75q-20 -47 3 -76z" />
    <glyph glyph-name="nine" unicode="9" 
d="M116 -38l36 84q277 28 382 191q-16 -8 -93 -8q-125 0 -166 86q-34 73 9 176q42 97 144 169q108 75 223 75q133 0 169 -101q30 -89 -32 -235q-80 -188 -260 -305q-171 -113 -412 -132zM609 358q21 40 33 69q50 117 48 173q-3 52 -57 52q-58 0 -111 -47q-53 -48 -87 -130
q-32 -78 -19 -122q10 -39 61 -39q64 0 132 44z" />
    <glyph glyph-name="colon" unicode=":" horiz-adv-x="240" 
d="M289 458q29 22 68 22q43 0 60 -30q15 -24 -1 -60q-14 -31 -46 -53q-29 -22 -67 -22q-43 0 -61 30q-13 25 2 61q13 29 45 52zM142 113q31 22 68 22q44 0 60 -30q15 -24 0 -60q-14 -31 -46 -53q-31 -22 -67 -22q-44 0 -62 30q-13 25 3 61q14 30 44 52z" />
    <glyph glyph-name="semicolon" unicode=";" horiz-adv-x="240" 
d="M78 113q31 22 68 22q45 0 60 -32q13 -26 -5 -69q-20 -48 -78 -109q-52 -57 -127 -107l-42 46q87 72 108 106q-9 0 -29 29q-15 26 1 62q14 30 44 52zM225 458q29 22 68 22q43 0 60 -30q15 -24 -1 -60q-14 -31 -46 -53q-29 -22 -67 -22q-43 0 -61 30q-13 25 2 61
q13 29 45 52z" />
    <glyph glyph-name="less" unicode="&#x3c;" horiz-adv-x="552" 
d="M759 178l-40 -93l-447 225l33 78l638 223l-44 -105l-466 -164z" />
    <glyph glyph-name="equal" unicode="=" horiz-adv-x="552" 
d="M228 405l38 90h585l-38 -90h-585zM144 207l38 90h585l-39 -90h-584z" />
    <glyph glyph-name="greater" unicode="&#x3e;" horiz-adv-x="552" 
d="M74 79l45 106l467 163l-327 165l39 92l449 -223l-34 -79z" />
    <glyph glyph-name="question" unicode="?" horiz-adv-x="469" 
d="M467 265l-44 -99h-95l97 229q191 0 246 133q23 50 3 87q-16 31 -65 31q-29 0 -70 -39q-57 -54 -104 -54q-37 0 -51 27q-11 21 3 53q21 50 83 77q53 25 123 25q140 0 189 -85q41 -72 -1 -172q-43 -101 -136 -159q-84 -53 -178 -54zM285 112q34 23 70 23q43 0 60 -30
q15 -24 0 -60q-14 -31 -46 -53q-31 -22 -67 -22q-44 0 -60 28q-16 27 0 63q14 32 43 51z" />
    <glyph glyph-name="at" unicode="@" horiz-adv-x="935" 
d="M585 48q-39 -27 -132 -27q-110 0 -123 88q-11 76 59 177q59 89 161 152q104 63 199 63q99 0 106 -37l67 37h77l-238 -353q-18 -26 -20 -40h2q59 0 141 69q91 73 135 179q59 140 -2 213q-54 64 -186 64q-162 0 -331 -112q-174 -115 -241 -272q-72 -169 -7 -270
q58 -93 216 -93q152 0 375 123l17 -75q-236 -126 -409 -126q-203 0 -284 122q-85 124 4 335q75 178 279 311q202 135 396 135q180 0 254 -99q75 -102 3 -272q-57 -134 -179 -226q-122 -93 -243 -93q-102 0 -96 27zM624 162l152 226q2 15 -7.5 22.5t-30.5 7.5
q-104 0 -215 -166q-99 -147 -24 -147q61 0 125 57z" />
    <glyph glyph-name="A" unicode="A" horiz-adv-x="665" 
d="M544 720h96l-27 -623q-2 -32 5 -41q6 -9 56 -15l-26 -61h-313l27 64q67 4 85 15q9 5 11 29l4 107h-233l-95 -119q-22 -27 72 -33l-27 -63h-275l27 63q75 7 116 61zM474 500l-177 -221h168z" />
    <glyph glyph-name="B" unicode="B" horiz-adv-x="704" 
d="M611 34q-105 -54 -241 -54h-380l27 64q72 4 90 14q17 10 40 62l202 476q19 45 14 52q-3 5 -85 9l27 63h346q317 0 231 -201q-55 -130 -136 -145q-8 2 3 -21q6 -13 17 -33q28 -56 -3 -129q-44 -101 -152 -157zM612 303q-19 31 -80 31h-143l-113 -267q-2 -2 -6 -2h119
q77 0 136 38q54 37 82 104q25 60 5 96zM634 635h-105q-11 0 -19 -18l-85 -199h106q145 0 195 117q43 100 -92 100z" />
    <glyph glyph-name="C" unicode="C" horiz-adv-x="700" 
d="M1023 720l-25 -229l-71 -22q-23 183 -158 183q-103 0 -195 -84q-87 -80 -149 -226q-60 -140 -42 -219q18 -74 112 -74q78 0 154 40q84 43 148 131l84 -33q-177 -222 -410 -222q-163 0 -219 114q-54 112 17 279q69 162 213 270q143 107 299 107q121 0 155 -36l18 21h69z
" />
    <glyph glyph-name="D" unicode="D" horiz-adv-x="764" 
d="M759 587q-30 48 -141 48h-89q-11 0 -19 -18l-234 -550q-2 -2 -6 -2h89q118 0 198 55q102 69 174 238q69 164 28 229zM665 71q-139 -91 -325 -91h-350l27 64q72 4 90 14q17 10 40 62l202 476q19 45 14 52q-3 5 -85 9l27 63h333q189 0 257 -98q69 -97 -8 -280
q-76 -177 -222 -271z" />
    <glyph glyph-name="E" unicode="E" horiz-adv-x="688" 
d="M270 65h104q100 0 185 39q69 32 180 122l48 -41l-197 -205h-600l27 64q72 4 90 14q17 10 40 62l202 476q19 45 14 52q-3 5 -85 9l27 63h597l-3 -195l-67 -29q-25 85 -65 111q-41 28 -126 28h-112q-11 0 -19 -18l-89 -209h127q43 0 66 19q22 17 53 78h77l-119 -279h-76
q24 73 19 87q-4 10 -39 10h-144l-109 -256q-2 -2 -6 -2z" />
    <glyph glyph-name="F" unicode="F" horiz-adv-x="658" 
d="M510 617l-89 -209h127q43 0 66 19q22 17 53 78h77l-119 -279h-76q24 73 19 87q-4 10 -39 10h-144l-93 -219q-20 -44 -13 -52q3 -4 84 -9l-27 -63h-346l27 64q72 4 90 14q17 10 40 62l202 476q19 45 14 52q-3 5 -85 9l27 63h597l-3 -195l-67 -29q-25 85 -65 111
q-41 28 -126 28h-112q-11 0 -19 -18z" />
    <glyph glyph-name="G" unicode="G" horiz-adv-x="759" 
d="M703 -20l-9 40q-82 -55 -224 -55q-163 0 -220 116q-52 109 19 277q69 162 213 270q143 107 299 107q117 0 152 -36l17 21h71l-26 -229l-71 -22q-22 183 -154 183q-104 0 -195 -84q-89 -81 -150 -226q-60 -140 -42 -219q18 -74 110 -74q54 0 112 23q48 18 71 38l44 106
q19 44 14 52q-3 4 -83 9l26 63h342l-27 -64q-73 -5 -86 -14q-18 -10 -41 -62l-93 -220h-69z" />
    <glyph glyph-name="H" unicode="H" horiz-adv-x="789" 
d="M772 -20h-346l27 64q72 4 90 14q17 10 40 62l86 203h-284l-93 -219q-20 -44 -13 -52q3 -4 84 -9l-27 -63h-346l27 64q72 4 90 14q17 10 40 62l202 476q19 45 14 52q-3 5 -85 9l27 63h345l-27 -64q-73 -4 -88 -13q-18 -10 -41 -63l-73 -172h284l80 188q19 45 14 52
q-3 5 -85 9l27 63h345l-27 -64q-73 -4 -88 -13q-18 -10 -41 -63l-202 -476q-20 -44 -13 -52q3 -4 84 -9z" />
    <glyph glyph-name="I" unicode="I" horiz-adv-x="353" 
d="M336 -20h-346l27 64q72 4 90 14q17 10 40 62l202 476q19 45 14 52q-3 5 -85 9l27 63h345l-27 -64q-73 -4 -88 -13q-18 -10 -41 -63l-202 -476q-20 -44 -13 -52q3 -4 84 -9z" />
    <glyph glyph-name="J" unicode="J" horiz-adv-x="344" 
d="M298 580l-238 -560q-104 -245 -323 -245q-81 0 -112 39q-27 33 -9 76q11 26 38 46q28 20 59 20q60 0 63 -64q0 -27 2 -27q30 0 56 27q36 38 75 130l244 574q19 45 14 52q-3 5 -85 9l27 63h345l-27 -64q-72 -4 -89 -13q-17 -10 -40 -63z" />
    <glyph glyph-name="K" unicode="K" horiz-adv-x="737" 
d="M336 -20h-346l27 64q72 4 90 14q17 10 40 62l202 476q19 45 14 52q-3 5 -85 9l27 63h345l-27 -64q-73 -4 -88 -13q-18 -10 -41 -63l-75 -176l326 213q8 5 19 16q7 7 7 12q0 7 -77 12l27 63h322l-27 -63q-54 -5 -84 -18q-31 -16 -97 -58l-251 -164l122 -328q9 -23 26 -34
q14 -10 61 -10l-27 -65h-349l27 64q101 6 83 59l-85 220l-79 -51l-71 -168q-20 -44 -13 -52q3 -4 84 -9z" />
    <glyph glyph-name="L" unicode="L" horiz-adv-x="639" 
d="M270 65h65q91 0 177 39q67 33 179 122l45 -41l-196 -205h-550l27 64q72 4 90 14q17 10 40 62l202 476q19 45 14 52q-3 5 -85 9l27 63h345l-27 -64q-73 -4 -88 -13q-18 -10 -41 -63l-218 -513q-2 -2 -6 -2z" />
    <glyph glyph-name="M" unicode="M" horiz-adv-x="894" 
d="M877 -20h-346l27 64q72 4 90 14q17 10 40 62l149 352l-388 -492h-73l30 503l-161 -379q-20 -44 -13 -52q3 -4 84 -9l-27 -63h-299l27 64q72 4 90 14t41 62l202 476q19 44 13 52q-3 5 -85 9l27 63h271l-29 -472l374 472h270l-27 -64q-73 -4 -88 -13q-18 -10 -41 -63
l-202 -476q-20 -44 -13 -52q3 -4 84 -9z" />
    <glyph glyph-name="N" unicode="N" horiz-adv-x="758" 
d="M290 -20h-300l27 64q72 4 90 14t41 62l202 476q19 44 13 52q-3 5 -85 9l27 63h256l107 -464l144 340q19 46 15 53q-4 4 -84 8l27 63h294l-27 -64q-73 -4 -88 -13q-17 -10 -40 -63l-255 -600h-93l-129 565l-187 -441q-19 -43 -13 -51q4 -6 85 -10z" />
    <glyph glyph-name="O" unicode="O" horiz-adv-x="753" 
d="M474 626q142 109 304 109q168 0 224 -116q49 -107 -23 -277q-71 -165 -207 -268q-142 -109 -304 -109q-169 0 -223 116q-49 107 23 277q72 166 206 268zM486 49q205 0 337 309q125 294 -63 294q-204 0 -336 -310q-125 -293 62 -293z" />
    <glyph glyph-name="P" unicode="P" horiz-adv-x="689" 
d="M336 -20h-346l27 64q72 4 90 14q17 10 40 62l202 476q19 46 15 53q-4 3 -86 8l27 63h365q158 0 216 -51.5t14 -154.5q-81 -190 -383 -190h-132l-93 -220q-20 -44 -13 -52q3 -4 84 -9zM650 635h-121q-11 0 -19 -18l-89 -209h115q155 0 208 122q45 105 -94 105z" />
    <glyph glyph-name="Q" unicode="Q" horiz-adv-x="753" 
d="M481 626q142 109 304 109q168 0 224 -116q49 -107 -23 -277q-63 -146 -183 -250q-125 -105 -251 -120q-34 -87 30 -87q41 0 82 29q40 29 66 92h101q-49 -114 -129 -165q-76 -47 -160 -47q-103 0 -142 58q-36 53 -10 121q-109 17 -146 128q-34 102 31 257q72 166 206 268z
M493 49q205 0 337 309q124 294 -63 294q-204 0 -336 -310q-125 -293 62 -293z" />
    <glyph glyph-name="R" unicode="R" horiz-adv-x="722" 
d="M604 329l70 -240q10 -39 99 -47l-26 -62h-209l-97 344h-56l-93 -220q-20 -44 -13 -52q3 -4 84 -9l-27 -63h-346l27 64q72 4 90 14q17 10 40 62l202 476q19 46 15 53q-4 3 -86 8l27 63h365q158 0 216 -51.5t14 -154.5q-73 -172 -296 -185zM650 635h-121q-11 0 -19 -18
l-89 -209h115q155 0 208 122q45 105 -94 105z" />
    <glyph glyph-name="S" unicode="S" horiz-adv-x="686" 
d="M522 483q21 -12 60 -24l37 -12l41 -11q106 -33 147 -75q61 -61 16 -166q-42 -100 -152 -165q-109 -65 -235 -65q-134 0 -195 46l-26 -31h-71l31 250l72 19q19 -201 204 -201q69 0 137 38q62 35 85 92q24 55 -21 85q-18 12 -59 25l-37 12l-39 12q-108 32 -147 69
q-63 59 -21 158q35 83 135 140q97 56 205 56q130 0 174 -38l19 23h71l-26 -229l-72 -23q-12 184 -178 184q-64 0 -116 -29q-47 -27 -66 -70q-18 -44 27 -70z" />
    <glyph glyph-name="T" unicode="T" horiz-adv-x="667" 
d="M455 120l218 513q2 2 5 2q-73 0 -121 -23q-49 -25 -143 -114l-54 35l176 209h65q-1 -22 -6 -22h371q9 0 25 22h64l-2 -217l-69 -30q-20 97 -48 120q-26 20 -99 20q-11 0 -19 -18l-218 -513q-20 -44 -13 -52q3 -4 84 -9l-27 -63h-346l27 64q72 4 90 14q17 10 40 62z" />
    <glyph glyph-name="U" unicode="U" horiz-adv-x="766" 
d="M622 580l-162 -382q-33 -76 -3 -114q26 -33 103 -33q70 0 131 38q67 43 102 123l163 384q19 45 14 52q-3 5 -85 9l27 63h297l-27 -64q-73 -4 -88 -13q-18 -10 -41 -63l-163 -384q-41 -96 -135 -161q-100 -70 -231 -70q-147 0 -202 64q-58 64 -8 183l163 384q19 45 14 52
q-3 5 -85 9l27 63h345l-27 -64q-73 -4 -88 -13q-18 -10 -41 -63z" />
    <glyph glyph-name="V" unicode="V" horiz-adv-x="665" 
d="M612 -20h-96l28 623q1 29 -7 41q-6 9 -55 15l26 61h313l-27 -64q-68 -5 -83 -14q-10 -6 -12 -29l-16 -412l340 424q20 25 -63 31l-10 1l27 63h274l-26 -63q-73 -7 -117 -61z" />
    <glyph glyph-name="W" unicode="W" horiz-adv-x="975" 
d="M816 720l-27 -64q-70 -5 -85 -17q-15 -13 -20 -53l-36 -347l279 372q2 28 -4 36q-5 6 -53 12l26 61h315l-27 -64q-70 -5 -85 -17q-15 -13 -20 -53l-36 -347l268 359q30 40 27 49q-2 6 -75 10l27 63h263l-26 -63q-44 -4 -68 -20q-19 -14 -55 -59l-446 -598h-97l49 464
l-347 -464h-97l64 610q4 42 -1 56q-3 8 -55 12l26 62h316z" />
    <glyph glyph-name="X" unicode="X" horiz-adv-x="683" 
d="M223 -20h-309l27 64q69 4 104 21q30 15 78 60l250 232l-52 228q-11 49 -17 58q-7 9 -76 14l27 63h335l-27 -64q-66 -5 -74 -14q-9 -10 -1 -50l28 -117l136 126q45 41 45 51l-68 5l27 63h296l-27 -64q-67 -4 -101 -20q-35 -18 -79 -61l-208 -195l60 -265q10 -41 22 -55
q10 -12 73 -18l-26 -62h-339l27 64q66 4 76 16q9 10 0 49l-36 154l-178 -165q-40 -37 -38 -48q0 -2 72 -7z" />
    <glyph glyph-name="Y" unicode="Y" horiz-adv-x="630" 
d="M272 -20l27 64q72 4 90 14q17 10 40 62l64 151l-46 315q-8 48 -13 57q-7 10 -57 16l26 61h315l-27 -64q-62 -5 -74 -17q-13 -13 -9 -48l31 -209l211 218q36 38 33 48q-2 6 -66 10l27 62h267l-27 -63q-49 -4 -74 -20q-24 -15 -67 -61l-302 -313l-67 -159q-20 -44 -13 -52
q3 -4 84 -9l-27 -63h-346z" />
    <glyph glyph-name="Z" unicode="Z" horiz-adv-x="652" 
d="M16 35l676 600h-85q-87 0 -156 -31q-63 -26 -155 -105l-52 34l156 187h534l-23 -55l-676 -600h91q100 0 184 39q68 33 177 122l45 -41l-196 -205h-544z" />
    <glyph glyph-name="bracketleft" unicode="[" horiz-adv-x="325" 
d="M-70 -220l408 960h272l-34 -80h-139l-340 -800h139l-34 -80h-272z" />
    <glyph glyph-name="backslash" unicode="\" horiz-adv-x="309" 
d="M528 750l-141 -984h-93l141 984h93z" />
    <glyph glyph-name="bracketright" unicode="]" horiz-adv-x="325" 
d="M482 740l-408 -960h-272l34 80h139l340 800h-139l34 80h272z" />
    <glyph glyph-name="asciicircum" unicode="^" horiz-adv-x="552" 
d="M740 330l-80 215l-262 -215h-100l391 390h77l60 -390h-86z" />
    <glyph glyph-name="underscore" unicode="_" horiz-adv-x="552" 
d="M-164 -131l35 82h606l-35 -82h-606z" />
    <glyph glyph-name="grave" unicode="`" horiz-adv-x="516" 
d="M832 657l35 -168h-85l-91 127q-19 25 -10 47q12 27 46 27h59q38 0 46 -33z" />
    <glyph glyph-name="a" unicode="a" horiz-adv-x="518" 
d="M347 8q-77 -41 -158 -41q-75 0 -107 36t-5 99q34 80 147 127q81 32 230 55l21 51q21 50 17 66q-1 7 -23 7q-71 0 -113 -62q-41 -59 -92 -59q-74 0 -43 73q21 50 96 87q78 39 173 39q191 0 119 -169l-100 -235q-11 -26 -14 -26q8 0 86 32l-38 -90q-56 -29 -109 -29
q-96 0 -87 39zM376 103l43 101q-61 -9 -115 -32q-59 -26 -80 -74q-16 -40 19 -40q51 0 133 45z" />
    <glyph glyph-name="b" unicode="b" horiz-adv-x="548" 
d="M286 597l23 53l172 85h73l-108 -254q8 5 100 5q114 0 149 -83q28 -72 -20 -185q-47 -110 -133 -177q-94 -76 -206 -76q-104 0 -123 37l-47 -37h-80l265 623q3 9 7 9h-72zM393 358l-117 -276q10 -34 62 -34q116 0 195 186q72 169 -27 169q-60 0 -113 -45z" />
    <glyph glyph-name="c" unicode="c" horiz-adv-x="482" 
d="M578 287q-68 0 -53 72q13 48 -27 48q-110 0 -189 -189q-36 -85 -23 -131q10 -40 62 -40q82 0 190 126l66 -44q-137 -164 -282 -164q-127 0 -167 82q-37 72 12 187q45 106 142 178q100 74 205 74q89 0 132 -43q44 -42 20 -98q-25 -58 -88 -58z" />
    <glyph glyph-name="d" unicode="d" horiz-adv-x="558" 
d="M596 597l23 53l171 85h73l-283 -666q-8 -17 -6 -19t62 -8l-26 -62q-96 0 -218 -22l4 10q-4 -3 -99 -3q-116 0 -149 84q-28 72 20 185q46 108 132 177q94 75 201 75q103 0 110 -13l50 119q2 5 5 5h-70zM449 93l117 276q-10 34 -61 34q-115 0 -195 -185q-72 -170 27 -170
q59 0 112 45z" />
    <glyph glyph-name="e" unicode="e" horiz-adv-x="509" 
d="M651 254h-326q-3 -7 -8.5 -19t-7.5 -17q-73 -171 48 -171q89 0 194 123l70 -40q-140 -165 -287 -165q-134 0 -177 81q-39 74 10 188q47 109 139 178q100 74 212 74q104 0 143 -61q38 -59 -10 -171zM370 334h174q13 31 1 54q-10 19 -42 19q-88 0 -133 -73z" />
    <glyph glyph-name="f" unicode="f" horiz-adv-x="300" 
d="M156 390l35 81h68l20 47q40 95 122 157q79 60 171 60q46 0 68 -21q26 -26 11 -60q-11 -24 -36 -42t-54 -18q-26 0 -40 14q-12 7 -16 26l-3 8q-30 0 -56 -63l-46 -108h98l-35 -81h-98l-136 -321q-8 -15 -4 -17q4 -4 64 -10l-26 -62h-281l27 63q53 5 65 12q10 7 21 30
l129 305h-68z" />
    <glyph glyph-name="g" unicode="g" horiz-adv-x="525" 
d="M576 410q-30 0 -46 21l-1 1l-5 5l4 -2q-9 0 -21 -13q34 -49 -5 -141q-35 -82 -110 -132q-83 -56 -179 -56q-45 0 -80 12q-21 5 -39 -3q-16 -6 -21 -18l6 -4q2 0 4 -1q27 -6 145 -11q121 -5 162 -38q43 -34 14 -104q-28 -68 -114 -108q-78 -37 -189 -37q-131 0 -182.5 33
t-25.5 100q24 61 64 77q-25 13 7 87q17 40 52 66q34 26 42 28q-26 32 15 125q34 81 110 133q83 56 180 56q67 0 89 -14q68 63 142 63q91 0 59 -74q-21 -51 -77 -51zM230 172q82 0 135 125q47 110 -18 110q-85 0 -137 -126q-46 -109 20 -109zM54 -48q-35 -11 -48 -43
q-10 -25 17.5 -37t94.5 -12q69 0 116 19q41 17 51 41q4 10 -2 12q-19 7 -106 9q-79 3 -123 11z" />
    <glyph glyph-name="h" unicode="h" horiz-adv-x="572" 
d="M555 -20h-276l27 63q52 4 64 12q10 7 21 30l108 254q24 56 -20 56q-59 0 -127 -36l-123 -290q-8 -17 -6 -19q4 -2 61 -8l-26 -62h-276l27 63q53 5 65 12q10 7 21 30l215 507q2 5 6 5h-72l23 53l172 85h73l-116 -273q-6 -3 0 -2q5 1 32 9q57 17 98 17q69 0 102 -33
q43 -43 6 -130l-108 -254q-8 -17 -6 -19q4 -2 61 -8z" />
    <glyph glyph-name="i" unicode="i" horiz-adv-x="276" 
d="M258 -20h-276l27 63q53 5 65 12q10 7 21 30l109 258q3 5 6 5h-71l22 53l172 85h73l-177 -417q-8 -17 -6 -19q4 -2 61 -8zM357 683q30 21 65 21q42 0 57 -27q15 -25 1 -58q-12 -26 -42 -47q-28 -21 -64 -21q-42 0 -58 27q-14 26 0 57q10 27 41 48z" />
    <glyph glyph-name="j" unicode="j" horiz-adv-x="266" 
d="M-361 -135q9 21 33 39q26 18 54 18q25 0 42 -14q10 -10 14 -24q3 -10 0 -10q34 0 61 63l172 406q3 5 6 5h-71l22 53l172 85h73l-202 -476q-47 -110 -129 -171q-79 -58 -171 -58q-111 0 -76 84zM168 683q30 21 65 21q42 0 57 -27q15 -25 1 -58q-12 -26 -42 -47
q-29 -21 -64 -21q-41 0 -58 27q-13 26 0 57q10 27 41 48z" />
    <glyph glyph-name="k" unicode="k" horiz-adv-x="537" 
d="M258 -20h-276l27 63q53 5 65 12q10 7 21 30l215 507q2 5 6 5h-72l23 53l172 85h73l-187 -439l123 87q23 15 23 21q-21 1 -62 4l27 63h288l-27 -64q-84 -6 -163 -61l-88 -61l74 -195q17 -41 70 -50l-25 -60h-301l27 64q55 3 67 16q8 8 3 19l-45 115l-49 -34l-38 -91
q-8 -17 -6 -19q4 -2 61 -8z" />
    <glyph glyph-name="l" unicode="l" horiz-adv-x="276" 
d="M258 -20h-276l27 63q53 5 65 12q10 7 21 30l215 507q2 5 6 5h-72l23 53l172 85h73l-283 -666q-8 -17 -6 -19q4 -2 61 -8z" />
    <glyph glyph-name="m" unicode="m" horiz-adv-x="869" 
d="M555 -20h-276l27 63q52 4 64 12q10 7 21 30l108 254q24 56 -20 56q-59 0 -127 -36l-123 -290q-8 -17 -6 -19q4 -2 61 -8l-26 -62h-276l27 63q53 5 65 12q10 7 21 30l109 258q3 5 6 5h-71l22 53l172 85h73l-10 -24q-6 -3 0 -2q5 1 32 9q57 17 98 17q45 0 75 -15
q43 -19 45 -30q82 45 176 45q68 0 103 -33q41 -44 5 -130l-108 -254q-8 -17 -6 -19t62 -8l-26 -62h-276l27 63q52 4 64 12q11 7 21 30l108 254q24 56 -20 56q-61 0 -131 -37q-1 -11 -11 -35l-108 -254q-8 -17 -6 -19q4 -2 61 -8z" />
    <glyph glyph-name="n" unicode="n" horiz-adv-x="572" 
d="M555 -20h-276l27 63q52 4 64 12q10 7 21 30l108 254q24 56 -20 56q-59 0 -127 -36l-123 -290q-8 -17 -6 -19q4 -2 61 -8l-26 -62h-276l27 63q53 5 65 12q10 7 21 30l109 258q3 5 6 5h-71l22 53l172 85h73l-10 -24q-6 -3 0 -2q5 1 32 9q57 17 98 17q69 0 102 -33
q43 -43 6 -130l-108 -254q-8 -17 -6 -19q4 -2 61 -8z" />
    <glyph glyph-name="o" unicode="o" horiz-adv-x="541" 
d="M312 412q104 74 216 74q120 0 165 -81q40 -74 -8 -187q-47 -107 -144 -179q-104 -74 -217 -74q-120 0 -164 81q-40 75 8 188q45 106 144 178zM340 44q122 0 203 190q74 173 -31 173q-122 0 -202 -189q-74 -174 30 -174z" />
    <glyph glyph-name="p" unicode="p" horiz-adv-x="553" 
d="M92 -204h-276l27 63q51 4 65 12q11 6 20 29l188 443q3 5 6 5h-74l22 53l175 85h73l-2 -5q8 5 100 5q114 0 149 -83q28 -72 -20 -185q-47 -110 -133 -177q-94 -76 -206 -76q-95 0 -104 14l-40 -95q-7 -16 -5 -18t61 -8zM263 358l-117 -276q10 -34 62 -34q116 0 195 186
q72 169 -27 169q-60 0 -113 -45z" />
    <glyph glyph-name="q" unicode="q" horiz-adv-x="544" 
d="M532 -204h-276l27 63q50 4 64 12q12 8 20 29l29 68q-4 -3 -99 -3q-116 0 -149 84q-28 72 20 185q46 108 132 177q94 75 201 75q104 0 124 -41l57 41h75l-256 -602q-7 -16 -6 -17q3 -3 63 -9zM449 93l117 276q-10 34 -61 34q-115 0 -195 -185q-72 -170 27 -170
q59 0 112 45z" />
    <glyph glyph-name="r" unicode="r" horiz-adv-x="401" 
d="M484 334q-38 0 -58 35l-3 6l-4 8q1 -3 3 -3q-33 0 -79 -41l-114 -270q-8 -17 -6 -19q4 -2 61 -8l-26 -62h-276l27 63q53 5 65 12q10 7 21 30l109 258q3 5 6 5h-71l22 53l172 85h73l-5 -12q15 12 103 12q112 0 74 -89q-27 -63 -94 -63z" />
    <glyph glyph-name="s" unicode="s" horiz-adv-x="464" 
d="M346 322q9 -6 39 -14l25 -7l27 -7q73 -21 102 -51q43 -43 12 -118q-32 -72 -106 -116t-159 -44q-109 0 -138 32l-13 -17h-69l35 186l67 19q28 -141 133 -141q37 0 68 16q35 18 50 53q11 26 -14 41q-11 6 -38 14l-26 7l-27 7q-76 21 -105 47q-45 42 -15 114q26 59 93 101
q71 42 149 42q99 0 120 -25l8 10h68l-33 -163l-69 -22q-17 122 -104 122q-73 0 -96 -53q-9 -21 16 -33z" />
    <glyph glyph-name="t" unicode="t" horiz-adv-x="319" 
d="M399 82l-37 -88q-62 -25 -120 -25q-151 0 -90 145l117 276h-67l24 56q70 22 114 60q38 33 86 113h81l-62 -148h120l-35 -81h-120l-124 -293q-18 -42 5 -42q25 0 108 27z" />
    <glyph glyph-name="u" unicode="u" horiz-adv-x="564" 
d="M512 348l22 53l172 85h73l-177 -417q-8 -17 -6 -19q4 -2 61 -8l-26 -62q-95 0 -217 -22l13 31q6 3 0 2q-5 -1 -32 -9q-57 -17 -98 -17q-71 0 -102 34q-43 42 -6 129l91 215q3 5 6 5h-70l22 53l172 85h72l-159 -374q-24 -56 20 -56q55 0 128 36l106 251q3 5 5 5h-70z" />
    <glyph glyph-name="v" unicode="v" horiz-adv-x="463" 
d="M408 -20h-96l16 360q3 45 -2 57q-1 7 -48 13l26 61h273l-27 -64q-58 -5 -66 -13q-8 -9 -9 -43l-9 -172l147 179q27 31 25 43q-2 4 -55 8l26 62h229l-27 -63q-37 -4 -58 -19q-19 -14 -58 -61z" />
    <glyph glyph-name="w" unicode="w" horiz-adv-x="762" 
d="M612 -20l11 257l-210 -257h-98l13 360q2 50 -2 58q-1 6 -48 11l26 62h274l-28 -64q-58 -5 -66 -14q-9 -11 -11 -55l-6 -159l159 193q0 32 -57 37l27 62h280l-28 -64q-58 -5 -65 -14q-9 -11 -11 -55l-7 -159l139 171q32 38 29 51q-2 4 -61 8l27 62h238l-27 -63
q-35 -4 -56 -19q-20 -15 -60 -61l-283 -348h-99z" />
    <glyph glyph-name="x" unicode="x" horiz-adv-x="512" 
d="M307 67l-28 85l-112 -94q-9 -7 11 -12q11 -2 31 -4l-26 -62h-233l27 63q57 6 101 43l176 148l-43 140q-8 22 -12 26q-5 4 -51 9l27 62h273l-27 -64q-30 -2 -44 -8t-11 -15l19 -57l79 66q9 7 -11 12q-11 2 -30 4l27 62h238l-27 -63q-63 -6 -106 -43l-145 -121l53 -167
q10 -30 58 -37l-26 -60h-268l27 64q50 1 57 8q1 1 -4 15z" />
    <glyph glyph-name="y" unicode="y" horiz-adv-x="463" 
d="M441 328l-353 -427q-97 -120 -208 -120q-50 0 -78 23q-32 27 -15 68q10 22 37 41q26 18 55 18q40 0 58 -37q3 -7 4.5 -9.5t0.5 -2.5q25 0 72 59l45 54l15 345q2 49 -1 58q-3 6 -49 12l26 61h273l-28 -64q-56 -5 -64 -14q-9 -10 -12 -55l-7 -159l142 173q30 37 28 49
q-2 4 -54 8l26 62h230l-27 -63q-35 -4 -56 -19q-20 -15 -60 -61z" />
    <glyph glyph-name="z" unicode="z" horiz-adv-x="472" 
d="M6 35l409 357h-6q-64 0 -109 -17q-47 -20 -114 -83l-57 30l114 149h397l-24 -55l-409 -357h29q64 0 122 30q44 21 129 97l50 -36l-146 -170h-409z" />
    <glyph glyph-name="braceleft" unicode="{" horiz-adv-x="309" 
d="M232 -165l-28 -67q-226 0 -130 227l70 164q17 41 11 56q-5 11 -74 11l30 72q62 0 85 19q22 18 42 63l70 164q90 211 315 211l-28 -67q-89 0 -133 -101l-70 -165q-64 -151 -116 -162q42 -11 -27 -175l-71 -165q-36 -85 54 -85z" />
    <glyph glyph-name="bar" unicode="|" horiz-adv-x="309" 
d="M14 -234l419 984h94l-418 -984h-95z" />
    <glyph glyph-name="braceright" unicode="}" horiz-adv-x="309" 
d="M-206 -232l29 67q90 0 132 101l71 165q65 152 116 162q-44 11 27 175l70 165q36 85 -54 85l29 67q226 0 130 -227l-70 -164q-17 -41 -10 -55q5 -11 73 -11l-31 -72q-59 0 -84 -19q-23 -18 -42 -64l-70 -164q-88 -211 -316 -211z" />
    <glyph glyph-name="asciitilde" unicode="~" horiz-adv-x="516" 
d="M725 434h88q-78 -184 -217 -184q-64 0 -111 57l-14 17q-4 5 -11 12q-10 9 -18 9q-40 0 -73 -78h-91q78 183 217 183q64 0 111 -56l15 -17l12 -12q11 -9 18 -9q41 0 74 78z" />
    <glyph glyph-name="nbspace" unicode="&#xa0;" horiz-adv-x="251" 
 />
    <glyph glyph-name="currency" unicode="&#xa4;" 
d="M355 254q19 -34 66 -34q53 0 110 39q56 40 82 99q22 52 2 91q-20 32 -66 32q-53 0 -108 -39q-56 -39 -83 -100q-23 -53 -3 -88zM337 477l-56 99l105 74l57 -100q52 30 131 30q83 0 110 -31l144 102l49 -85l-142 -99q16 -48 -17 -125q-32 -73 -86 -120l57 -98l-105 -73
l-58 99q-51 -30 -130 -30q-84 0 -112 31l-143 -101l-47 85l140 98q-15 47 18 125q31 74 85 119z" />
    <glyph glyph-name="dieresis" unicode="&#xa8;" horiz-adv-x="498" 
d="M728 669q26 19 59 19q41 0 54 -25q14 -25 1 -55q-10 -22 -37 -43q-31 -20 -62 -20q-40 0 -53 25q-14 25 -1 54q11 26 39 45zM894 669q26 19 60 19q38 0 55 -27q12 -23 -1 -53q-10 -23 -36 -43q-31 -20 -62 -20q-41 0 -54 25q-14 25 -1 54q11 26 39 45z" />
    <glyph glyph-name="copyright" unicode="&#xa9;" horiz-adv-x="791" 
d="M471 624q157 111 318 111q167 0 234 -117q67 -115 -1 -276q-66 -154 -226 -266q-158 -111 -317 -111q-167 0 -235 117q-66 115 2 276q64 153 225 266zM322 124q49 -85 171 -85q127 0 261 93q131 92 188 226q54 128 3 219q-49 85 -170 85q-127 0 -260 -92
q-133 -94 -190 -228q-56 -128 -3 -218zM888 582l-23 -154l-67 -18q-11 108 -74 108q-104 0 -177 -174q-68 -158 19 -158q40 0 83 25t84 81l76 -29q-121 -150 -264 -150q-109 0 -146 72q-35 69 10 175q42 100 132 166q89 65 190 65q73 0 87 -15l5 6h65z" />
    <glyph glyph-name="registered" unicode="&#xae;" horiz-adv-x="449" 
d="M539 674q86 61 177 61q96 0 137 -69q37 -64 -1 -155q-37 -84 -123 -145q-89 -62 -179 -62q-97 0 -136 67q-38 67 0 156q36 83 125 147zM490 411q21 -35 73 -35q59 0 120 42q62 43 91 109q25 59 2 101q-21 35 -74 35q-59 0 -119 -42q-64 -43 -91 -110q-25 -58 -2 -100z
M708 501l11 -42q0 -2 31 -5l-23 -54h-104l-21 94h21l-17 -42q-2 -3 -6 1q-3 5 32 0l-23 -53h-156l23 55q5 1 13 1l12 2q2 0 6 10l54 127q1 1 2.5 0t5.5 -5h-13l-22 2l23 53h137q59 0 79.5 -20.5t3.5 -61.5q-23 -55 -69 -62zM673 581h-22q9 0 11 3l-11 -25h-4q21 0 30 20
q1 1 -0.5 1.5t-3.5 0.5z" />
    <glyph glyph-name="macron" unicode="&#xaf;" horiz-adv-x="516" 
d="M686 559l39 92h304l-39 -92h-304z" />
    <glyph glyph-name="acute" unicode="&#xb4;" horiz-adv-x="516" 
d="M778 489l187 178q26 23 54 23h60q51 0 32 -43q-4 -13 -40 -36l-191 -122h-102z" />
    <glyph glyph-name="periodcentered" unicode="&#xb7;" horiz-adv-x="240" 
d="M295 292q31 22 68 22q45 0 60 -30q15 -24 0 -60q-14 -31 -46 -53q-31 -22 -67 -22q-44 0 -61 30q-13 25 2 61q14 30 44 52z" />
    <glyph glyph-name="AE" unicode="&#xc6;" horiz-adv-x="1065" 
d="M601 65h103q100 0 186 39q68 32 181 122l45 -41l-196 -205h-599l27 64q72 4 90 14q17 10 40 62l32 77h-231l-114 -102q-30 -27 -25 -39q3 -8 66 -14l-26 -62h-282l28 65q64 2 151 80l595 532q4 -4 -43 -2q-18 0 -45 2l27 63h621l-3 -195l-67 -29q-25 85 -65 111
q-41 28 -126 28h-111q-12 0 -19 -18l-89 -209h127q43 0 65 19q22 16 52 78h78l-119 -279h-76q25 71 19 87q-4 10 -38 10h-144l-109 -256q-2 -2 -6 -2zM547 282l133 314l-8 -33q-4 -13 -6 -21l-291 -260h172z" />
    <glyph glyph-name="multiply" unicode="&#xd7;" horiz-adv-x="552" 
d="M264 110l-42 72l247 173l-100 174l89 63l100 -174l250 175l42 -73l-250 -175l101 -174l-89 -62l-101 174z" />
    <glyph glyph-name="Oslash" unicode="&#xd8;" horiz-adv-x="753" 
d="M376 626q142 109 304 109q139 0 186 -62l59 47h126l-142 -114q43 -95 -28 -264q-71 -165 -207 -268q-142 -109 -304 -109q-141 0 -187 61l-58 -46h-125l141 113q-44 96 29 265q72 166 206 268zM277 201l490 392q-14 59 -105 59q-204 0 -336 -310q-49 -114 -49 -141z
M774 498l-491 -391q15 -58 105 -58q205 0 337 309q49 114 49 140z" />
    <glyph glyph-name="divide" unicode="&#xf7;" horiz-adv-x="552" 
d="M228 306l38 90h585l-39 -90h-584zM571 585q29 22 68 22q43 0 60 -30q15 -24 -1 -60q-14 -31 -46 -53q-29 -22 -67 -22q-45 0 -61 30q-13 25 2 61q13 29 45 52zM422 236q31 22 68 22q45 0 60 -30q15 -24 0 -60q-14 -31 -46 -53q-31 -22 -67 -22q-45 0 -61 30q-13 25 2 61
q14 30 44 52z" />
    <glyph glyph-name="circumflex" unicode="&#x2c6;" horiz-adv-x="516" 
d="M532 488l199 180q26 25 57 25h43q42 0 47 -35l44 -170h-87l-59 94l-139 -94h-105z" />
    <glyph glyph-name="breve" unicode="&#x2d8;" horiz-adv-x="516" 
d="M985 674h89q-46 -76 -96 -106q-55 -34 -121 -34q-73 0 -104 39q-27 35 -11 101h84q-3 -45 54 -45q70 0 105 45z" />
    <glyph glyph-name="dotaccent" unicode="&#x2d9;" horiz-adv-x="498" 
d="M894 669q26 19 59 19q41 0 54 -25q14 -25 1 -55q-11 -25 -39 -44q-26 -19 -60 -19q-40 0 -53 25q-14 25 -1 54q11 26 39 45z" />
    <glyph glyph-name="ring" unicode="&#x2da;" horiz-adv-x="498" 
d="M820 701q49 34 99 34q56 0 82 -41q21 -38 -1 -87q-18 -43 -67 -77q-46 -34 -99 -34q-58 0 -80 42q-19 36 0 85q20 43 66 78zM838 579q3 -6 12 -6q18 0 37 13q20 14 29 37q8 18 2 28q-4 6 -15 6q-17 0 -34 -13q-19 -13 -30 -37q-8 -17 -1 -28z" />
    <glyph glyph-name="tilde" unicode="&#x2dc;" horiz-adv-x="516" 
d="M953 678h82q-69 -140 -161 -140q-37 0 -71 34l-8 7l-11 10q-4 2 -6 2q-15 0 -41 -44h-85q71 140 162 140q37 0 73 -33l9 -10l9 -8q4 -2 6 -2q16 0 42 44z" />
    <glyph glyph-name="endash" unicode="&#x2013;" horiz-adv-x="552" 
d="M230 310l34 80h585l-34 -80h-585z" />
    <glyph glyph-name="emdash" unicode="&#x2014;" horiz-adv-x="817" 
d="M230 310l34 80h850l-34 -80h-850z" />
    <glyph glyph-name="quoteleft" unicode="&#x2018;" horiz-adv-x="240" 
d="M619 456q-31 -22 -68 -22q-45 0 -60 32q-13 26 5 69q20 48 78 109q52 57 127 107l42 -46q-87 -72 -108 -106q9 0 29 -29q15 -26 -1 -62q-14 -30 -44 -52z" />
    <glyph glyph-name="quoteright" unicode="&#x2019;" horiz-adv-x="240" 
d="M588 713q31 22 68 22q45 0 60 -32q13 -26 -5 -69q-20 -48 -78 -109q-52 -57 -127 -107l-42 46q87 72 108 106q-9 0 -29 29q-15 26 1 62q14 30 44 52z" />
    <glyph glyph-name="quotesinglbase" unicode="&#x201a;" horiz-adv-x="240" 
d="M78 113q31 22 68 22q45 0 60 -32q13 -26 -5 -69q-20 -48 -78 -109q-52 -57 -127 -107l-42 46q87 72 108 106q-9 0 -29 29q-15 26 1 62q14 30 44 52z" />
    <glyph glyph-name="quotedblleft" unicode="&#x201c;" horiz-adv-x="423" 
d="M803 456q-31 -22 -68 -22q-45 0 -60 32q-13 26 5 69q20 48 78 109q52 57 127 107l42 -46q-87 -72 -108 -106q9 0 29 -29q15 -26 -1 -62q-14 -30 -44 -52zM619 456q-31 -22 -68 -22q-45 0 -60 32q-13 26 5 69q20 48 78 109q52 57 127 107l42 -46q-87 -72 -108 -106
q9 0 29 -29q15 -26 -1 -62q-14 -30 -44 -52z" />
    <glyph glyph-name="quotedblright" unicode="&#x201d;" horiz-adv-x="423" 
d="M771 713q31 22 68 22q45 0 60 -32q13 -26 -5 -69q-20 -48 -78 -109q-52 -57 -127 -107l-42 46q87 72 108 106q-9 0 -29 29q-15 26 1 62q14 30 44 52zM588 713q31 22 68 22q45 0 60 -32q13 -26 -5 -69q-20 -48 -78 -109q-52 -57 -127 -107l-42 46q87 72 108 106
q-9 0 -29 29q-15 26 1 62q14 30 44 52z" />
    <glyph glyph-name="quotedblbase" unicode="&#x201e;" horiz-adv-x="423" 
d="M261 113q31 22 68 22q45 0 60 -32q13 -26 -5 -69q-20 -48 -78 -109q-52 -57 -127 -107l-42 46q87 72 108 106q-9 0 -29 29q-15 26 1 62q14 30 44 52zM78 113q31 22 68 22q45 0 60 -32q13 -26 -5 -69q-20 -48 -78 -109q-52 -57 -127 -107l-42 46q87 72 108 106
q-9 0 -29 29q-15 26 1 62q14 30 44 52z" />
    <glyph glyph-name="ellipsis" unicode="&#x2026;" horiz-adv-x="719" 
d="M142 113q31 22 68 22q44 0 60 -30q15 -24 0 -60q-14 -31 -46 -53q-31 -22 -67 -22q-44 0 -62 30q-13 25 3 61q14 30 44 52zM381 113q31 22 68 22q43 0 60 -30q15 -24 0 -60q-14 -31 -46 -53q-31 -22 -67 -22q-44 0 -62 30q-13 25 3 61q14 30 44 52zM621 113q31 22 68 22
q43 0 60 -30q15 -24 0 -60q-14 -31 -46 -53q-31 -22 -67 -22q-44 0 -62 30q-13 25 3 61q14 30 44 52z" />
    <glyph glyph-name="trademark" unicode="&#x2122;" horiz-adv-x="483" 
d="M921 470h-149l21 49l28 3q1 3 4 10l-9 -20l-33 -42h-55l3 50l-1 -4q-2 -4 -4 0q-2 2 5 3q8 0 24 -2l-20 -47h-125l21 49l28 3q1 3 4 10l60 142q2 4 5 -1q3 -3 -13 -2q-7 1 -18 2l20 47h125l-5 -80l63 80h127l-20 -49l-26 -3q-1 0 -5 -10l-60 -142q-2 -4 -4 0q-2 2 5 3
q8 0 24 -2zM506 532l63 149q-7 -19 18 -19q-21 0 -68 -45l-48 23l67 87h49q1 -4 -3.5 -5.5t-13.5 -1.5h116q-8 0 -4 7h54l-8 -94l-57 -19q-6 48 -20 48q9 0 10 3l-63 -149q-2 -4 -5 1q-5 5 30 0l-20 -47h-149l21 49l26 3q1 0 5 10z" />
    <glyph glyph-name="infinity" unicode="&#x221e;" horiz-adv-x="857" 
d="M676 185q-31 38 -35 68q-41 -39 -95 -73q-82 -50 -165 -50q-95 0 -134 68t0 160q38 87 128 151q89 62 176 62q92 0 137 -56q28 -37 34 -68q38 38 95 74q82 50 165 50q95 0 134 -68t0 -161q-38 -87 -128 -150q-89 -62 -176 -62q-93 0 -136 55zM519 258q45 31 107 93
q-11 69 -26 92q-23 35 -71 35q-54 0 -106 -37q-54 -38 -80 -99q-23 -55 -5 -90q18 -33 64 -33q56 0 117 39zM845 441q-43 -29 -108 -93q9 -62 26 -90q23 -35 71 -35q54 0 106 37q54 38 80 98q23 55 4 90q-16 33 -63 33q-57 0 -116 -40z" />
    <glyph glyph-name="notequal" unicode="&#x2260;" horiz-adv-x="552" 
d="M228 405l38 90h278l99 141h110l-100 -141h198l-38 -90h-224l-76 -108h254l-39 -90h-279l-100 -142h-110l101 142h-196l38 90h221l77 108h-252z" />
    <glyph glyph-name="_4" horiz-adv-x="0" 
 />
    <glyph glyph-name="zero.1" horiz-adv-x="557" 
d="M424 624q118 111 247 111q139 0 164 -121q21 -103 -51 -272q-71 -166 -178 -267q-116 -110 -245 -110q-140 0 -164 122q-21 102 51 271q72 167 176 266zM329 118q-5 -69 50 -69q68 0 131 80q55 69 123 229q66 157 70 225q5 69 -50 69q-69 0 -131 -80q-55 -71 -123 -230
q-65 -153 -70 -224z" />
    <glyph glyph-name="one.1" horiz-adv-x="352" 
d="M335 -20h-343l27 64q72 4 90 14q17 10 40 62l192 453q1 4 6 4h-100l23 54l210 104h79l-268 -631q-20 -44 -13 -52q3 -4 84 -9z" />
    <glyph glyph-name="two.1" horiz-adv-x="511" 
d="M315 477h-102q56 132 150 196q91 62 189 62q111 0 156 -68q40 -64 0 -163q-47 -112 -195 -227q-107 -84 -246 -165h170q17 0 24 6q15 13 58 81h80l-131 -241h-78l13 31q1 -9 14 -9h-407l32 76l47 31l37 24q14 9 40.5 27.5t38.5 26.5q94 66 148 112q155 129 204 243
q55 130 -39 130q-56 0 -105 -37q-57 -41 -98 -136z" />
    <glyph glyph-name="three.1" horiz-adv-x="525" 
d="M657 447q-54 -45 -42 -42q-11 2 16 -59q26 -61 -5 -134q-46 -106 -147 -174q-109 -73 -241 -73q-86 0 -138 29q-66 38 -39 102q9 23 37 44q29 20 58 20q40 0 60 -27q7 -10 10 -25l5 -20q8 -38 30 -38q139 0 203 154q25 61 6 101q-20 38 -83 38h-53l36 84h42q54 0 101 36
q43 34 66 89q20 45 8 73q-9 25 -47 25q-47 0 -92 -30q-50 -34 -88 -111h-103q61 117 138 170q83 56 182 56q109 0 153 -59q37 -52 7 -125q-26 -60 -80 -104z" />
    <glyph glyph-name="four.1" horiz-adv-x="554" 
d="M500 -20h-149l77 180h-282l27 64l519 496h122l-202 -475h114l-36 -85h-114zM567 488l-255 -243h152z" />
    <glyph glyph-name="five.1" horiz-adv-x="514" 
d="M615 401q44 -74 -3 -184q-46 -105 -144 -175q-110 -77 -235 -77q-89 0 -141 28q-70 37 -43 103q10 25 38 45q25 19 55 19q42 0 61 -27q5 -8 12 -23l7 -21q10 -39 37 -39q69 0 126 42q55 40 85 112q28 64 2 106q-25 37 -95 37q-71 0 -148 -34l-52 25l219 382h300
q9 0 21 22h81l-83 -153h-295l-59 -105q-1 0 69 0q135 0 185 -83z" />
    <glyph glyph-name="six.1" horiz-adv-x="557" 
d="M881 738l-35 -83q-278 -30 -381 -190q12 6 92 6q125 0 166 -86q34 -72 -10 -176q-40 -97 -143 -168q-107 -76 -223 -76q-133 0 -168 102q-31 89 31 234q80 187 261 305q170 113 410 132zM388 341q-14 -24 -33 -68q-49 -113 -47 -172q3 -52 57 -52q58 0 111 47
q52 47 86 129q33 77 20 122q-10 39 -61 39q-66 0 -133 -45z" />
    <glyph glyph-name="seven.1" horiz-adv-x="482" 
d="M344 -20h-160q184 345 495 609h-223q-18 0 -25 -7q-18 -14 -57 -80h-80l130 240h78l-13 -31q-1 9 -14 9h414l-31 -73q-312 -273 -514 -667z" />
    <glyph glyph-name="eight.1" horiz-adv-x="557" 
d="M711 433q-47 -35 -87 -51q32 -16 55 -62q31 -57 -7 -146q-37 -89 -131 -148q-97 -61 -224 -61q-126 0 -177 68q-44 62 -10 142q54 127 206 186q-75 53 -17 187q28 67 106 121q96 66 217 66q108 0 153 -59q39 -52 7 -128q-28 -67 -91 -115zM244 82q19 -34 88 -34
q72 0 127 38q43 30 64 79q24 56 -11 91q-12 12 -42 28l-29 14l-18 9q-59 -21 -102 -52q-52 -36 -75 -92q-22 -50 -2 -81zM470 476q14 -20 60 -43q60 23 95 47q48 33 68 80q18 44 3 69q-15 23 -66 23q-58 0 -99 -25q-43 -25 -64 -75q-20 -47 3 -76z" />
    <glyph glyph-name="nine.1" horiz-adv-x="557" 
d="M96 -38l36 84q277 28 382 191q-16 -8 -93 -8q-125 0 -166 86q-34 73 9 176q42 97 144 169q108 75 223 75q133 0 169 -101q30 -89 -32 -235q-80 -188 -260 -305q-171 -113 -412 -132zM589 358q21 40 33 69q50 117 48 173q-3 52 -57 52q-58 0 -111 -47q-53 -48 -87 -130
q-32 -78 -19 -122q10 -39 61 -39q64 0 132 44z" />
    <glyph glyph-name="zero.2" 
d="M357 459q113 92 239 92q133 0 171 -101q30 -83 -19 -200q-47 -110 -146 -193q-113 -92 -238 -92q-134 0 -172 101q-30 82 20 200q46 109 145 193zM382 48q122 0 215 218q43 100 40 151t-60 51q-67 0 -123 -62q-48 -53 -91 -156q-85 -202 19 -202z" />
    <glyph glyph-name="one.2" 
d="M561 -20h-403l27 64q94 4 115 15q23 10 45 61l114 269q1 4 6 4h-131l23 55l242 103h78l-190 -447q-18 -40 -10 -48q10 -9 111 -13z" />
    <glyph glyph-name="one.3" 
d="M345 120l124 292q18 42 9 49q-7 6 -110 12l27 63h402l-27 -64q-92 -4 -113 -14q-25 -12 -46 -62l-124 -292q-18 -40 -10 -48q10 -9 111 -13l-27 -63h-403l27 64q94 4 115 15q23 10 45 61z" />
    <glyph glyph-name="two.2" 
d="M273 293h-102q56 132 150 196q92 62 192 62q108 0 156 -52q48 -54 11 -139q-69 -163 -313 -253h105q18 0 25 6q17 13 57 81h81l-129 -236h-78l13 31q1 -9 14 -9h-409l36 85q201 93 285 145q128 81 164 164q38 89 -56 89q-56 0 -106 -37q-57 -42 -96 -133z" />
    <glyph glyph-name="three.2" 
d="M486 221q-4 1 1 -13.5t18 -47.5q25 -58 -6 -132q-45 -106 -146 -174q-107 -73 -241 -73q-85 0 -137 29q-68 36 -39 101q10 25 36 45q28 19 58 19q61 0 76 -71q6 -38 29 -38q139 0 203 154q26 63 7 101q-20 38 -83 38h-53l36 84h41q54 0 100 36q45 35 67 89q19 44 8 73
q-9 25 -47 25q-48 0 -91 -30q-51 -34 -89 -111h-104q61 117 139 170q83 56 182 56q110 0 154 -59q36 -53 5 -125q-53 -126 -124 -146z" />
    <glyph glyph-name="four.2" 
d="M369 -204h-149l78 184h-282l27 64l515 492h125l-200 -471h114l-36 -85h-114zM438 308l-255 -243h151z" />
    <glyph glyph-name="five.2" 
d="M508 217q44 -74 -3 -184q-44 -105 -144 -175q-107 -77 -234 -77q-87 0 -140 28q-71 38 -44 102q11 25 36 45q28 19 57 19q41 0 61 -27q8 -9 12 -22l6 -21q11 -39 39 -39q68 0 124 41q55 40 86 113q29 65 1 106q-25 37 -94 37q-70 0 -147 -34l-53 25l218 382h300
q10 0 23 22h81l-84 -153h-295l-58 -104l68 -1q136 0 184 -83z" />
    <glyph glyph-name="six.2" 
d="M901 738l-35 -83q-278 -30 -381 -190q12 6 92 6q125 0 166 -86q34 -72 -10 -176q-40 -97 -143 -168q-107 -76 -223 -76q-133 0 -168 102q-31 89 31 234q80 187 261 305q170 113 410 132zM408 341q-14 -24 -33 -68q-49 -113 -47 -172q3 -52 57 -52q58 0 111 47
q52 47 86 129q33 77 20 122q-10 39 -61 39q-65 0 -133 -45z" />
    <glyph glyph-name="seven.2" 
d="M275 -204h-159q184 345 495 609h-223q-18 0 -25 -7q-18 -14 -57 -80h-80l129 240h79l-14 -31q-2 9 -14 9h415l-31 -73q-311 -272 -515 -667z" />
    <glyph glyph-name="eight.2" 
d="M731 433q-47 -35 -87 -51q32 -16 55 -62q31 -57 -7 -146q-37 -89 -131 -148q-97 -61 -224 -61q-126 0 -177 68q-44 62 -10 142q54 127 206 186q-75 53 -17 187q28 67 106 121q96 66 217 66q108 0 153 -59q39 -52 7 -128q-28 -67 -91 -115zM264 82q19 -34 88 -34
q72 0 127 38q43 30 64 79q24 56 -11 91q-12 12 -42 28l-29 14l-18 9q-59 -21 -102 -52q-52 -36 -75 -92q-22 -50 -2 -81zM490 476q14 -20 60 -43q60 23 95 47q48 33 68 80q18 44 3 69q-15 23 -66 23q-58 0 -99 -25q-43 -25 -64 -75q-20 -47 3 -76z" />
    <glyph glyph-name="nine.2" 
d="M-40 -222l36 83q277 30 382 192q-16 -8 -93 -8q-125 0 -166 86q-34 73 9 176q42 97 144 169q108 75 223 75q133 0 168 -101q31 -88 -31 -235q-80 -188 -260 -305q-171 -113 -412 -132zM453 174q21 40 33 69q50 118 47 173q-1 52 -57 52q-57 0 -110 -47q-53 -48 -87 -130
q-32 -78 -19 -122q10 -39 61 -39q64 0 132 44z" />
    <glyph glyph-name="zero.3" horiz-adv-x="557" 
d="M337 459q113 92 239 92q133 0 171 -101q30 -83 -19 -200q-47 -110 -146 -193q-113 -92 -238 -92q-134 0 -172 101q-30 82 20 200q46 109 145 193zM362 48q122 0 215 218q43 100 40 151t-60 51q-67 0 -123 -62q-48 -53 -91 -156q-85 -202 19 -202z" />
    <glyph glyph-name="one.4" horiz-adv-x="352" 
d="M335 -20h-343l27 64q72 4 90 14q17 10 40 62l114 269q1 4 6 4h-101l23 54l211 104h79l-190 -447q-20 -44 -13 -52q3 -4 84 -9z" />
    <glyph glyph-name="one.5" horiz-adv-x="352" 
d="M149 120l124 292q19 45 14 52q-3 5 -85 9l27 63h342l-27 -64q-73 -4 -88 -13q-18 -10 -41 -63l-124 -292q-20 -44 -13 -52q3 -4 84 -9l-27 -63h-343l27 64q72 4 90 14q17 10 40 62z" />
    <glyph glyph-name="two.3" horiz-adv-x="512" 
d="M237 293h-102q56 132 150 196q92 62 192 62q108 0 156 -52q48 -54 11 -139q-69 -163 -313 -253h105q18 0 25 6q17 13 57 81h81l-129 -236h-78l13 31q1 -9 14 -9h-409l36 85q201 93 285 145q128 81 164 164q38 89 -56 89q-56 0 -106 -37q-57 -42 -96 -133z" />
    <glyph glyph-name="three.3" horiz-adv-x="525" 
d="M454 221q-4 1 1 -13.5t18 -47.5q25 -58 -6 -132q-45 -106 -146 -174q-107 -73 -241 -73q-85 0 -137 29q-68 36 -39 101q10 25 36 45q28 19 58 19q61 0 76 -71q6 -38 29 -38q139 0 203 154q26 63 7 101q-20 38 -83 38h-53l36 84h41q54 0 100 36q45 35 67 89q19 44 8 73
q-9 25 -47 25q-48 0 -91 -30q-51 -34 -89 -111h-104q61 117 139 170q83 56 182 56q110 0 154 -59q36 -53 5 -125q-53 -126 -124 -146z" />
    <glyph glyph-name="four.3" horiz-adv-x="536" 
d="M327 -204h-149l78 184h-282l27 64l515 492h125l-200 -471h114l-36 -85h-114zM396 308l-255 -243h151z" />
    <glyph glyph-name="five.3" horiz-adv-x="515" 
d="M458 217q44 -74 -3 -184q-44 -105 -144 -175q-107 -77 -234 -77q-87 0 -140 28q-71 38 -44 102q11 25 36 45q28 19 57 19q42 0 61 -27q8 -9 12 -22l6 -21q11 -39 39 -39q68 0 124 41q55 40 86 113q29 65 1 106q-25 37 -94 37q-70 0 -147 -34l-53 25l218 382h300
q10 0 23 22h81l-84 -153h-295l-58 -104l68 -1q136 0 184 -83z" />
    <glyph glyph-name="six.3" horiz-adv-x="557" 
d="M881 738l-35 -83q-278 -30 -381 -190q12 6 92 6q125 0 166 -86q34 -72 -10 -176q-40 -97 -143 -168q-107 -76 -223 -76q-133 0 -168 102q-31 89 31 234q80 187 261 305q170 113 410 132zM388 341q-14 -24 -33 -68q-49 -113 -47 -172q3 -52 57 -52q58 0 111 47
q52 47 86 129q33 77 20 122q-10 39 -61 39q-66 0 -133 -45z" />
    <glyph glyph-name="seven.3" horiz-adv-x="482" 
d="M187 -204h-159q184 345 495 609h-223q-18 0 -25 -7q-18 -14 -57 -80h-80l129 240h79l-14 -31q-2 9 -14 9h415l-31 -73q-311 -272 -515 -667z" />
    <glyph glyph-name="eight.3" horiz-adv-x="557" 
d="M711 433q-47 -35 -87 -51q32 -16 55 -62q31 -57 -7 -146q-37 -89 -131 -148q-97 -61 -224 -61q-126 0 -177 68q-44 62 -10 142q54 127 206 186q-75 53 -17 187q28 67 106 121q96 66 217 66q108 0 153 -59q39 -52 7 -128q-28 -67 -91 -115zM244 82q19 -34 88 -34
q72 0 127 38q43 30 64 79q24 56 -11 91q-12 12 -42 28l-29 14l-18 9q-59 -21 -102 -52q-52 -36 -75 -92q-22 -50 -2 -81zM470 476q14 -20 60 -43q60 23 95 47q48 33 68 80q18 44 3 69q-15 23 -66 23q-58 0 -99 -25q-43 -25 -64 -75q-20 -47 3 -76z" />
    <glyph glyph-name="nine.3" horiz-adv-x="557" 
d="M-60 -222l36 83q277 30 382 192q-16 -8 -93 -8q-125 0 -166 86q-34 73 9 176q42 97 144 169q108 75 223 75q133 0 168 -101q31 -88 -31 -235q-80 -188 -260 -305q-171 -113 -412 -132zM433 174q21 40 33 69q50 118 47 173q-1 52 -57 52q-57 0 -110 -47q-53 -48 -87 -130
q-32 -78 -19 -122q11 -39 61 -39q64 0 132 44z" />
    <glyph glyph-name="periodcentered.1" horiz-adv-x="240" 
d="M395 410q31 22 68 22q45 0 60 -30q15 -24 0 -60q-14 -31 -46 -53q-31 -22 -67 -22q-44 0 -61 30q-13 25 2 61q14 30 44 52z" />
    <glyph glyph-name="bullet.1" horiz-adv-x="280" 
d="M357 444q55 38 109 38q62 0 87 -43q24 -41 0 -97q-20 -48 -72 -86q-52 -37 -109 -37q-63 0 -87 42q-25 41 -1 97q22 51 73 86z" />
    <glyph glyph-name="exclam.1" horiz-adv-x="227" 
d="M252 130h-85q32 76 47 130q13 42 19 73q17 84 30 117q40 97 116 97q91 0 43 -113q-16 -36 -68 -113q-21 -31 -43 -73q-25 -43 -59 -118zM133 100q29 22 65 22q42 0 57 -29q13 -22 -1 -54q-11 -26 -38 -46q-29 -22 -65 -22q-41 0 -58 30q-11 24 2 54q10 25 38 45z" />
    <glyph glyph-name="question.1" horiz-adv-x="385" 
d="M380 193l-28 -63h-89l76 182q139 0 175 84q13 29 2 51q-11 18 -41 18q-21 0 -51 -30q-46 -45 -88 -45q-34 0 -47 24q-10 19 2 48q18 42 71 66q44 19 104 19q109 0 150 -65q36 -55 3 -133q-31 -73 -103 -116q-65 -38 -136 -40zM231 100q29 22 65 22q42 0 57 -29
q13 -22 -1 -54q-11 -26 -38 -46q-29 -22 -65 -22q-41 0 -58 30q-11 24 2 54q10 25 38 45z" />
    <glyph glyph-name="guillemotleft.1" horiz-adv-x="509" 
d="M530 139l-64 -35l-101 215q-9 20 1 41q8 20 29 35l272 206l41 -45l-189 -210zM715 139l-64 -35l-101 215q-9 20 1 41q8 20 29 35l272 206l41 -45l-189 -210z" />
    <glyph glyph-name="guillemotright.1" horiz-adv-x="509" 
d="M227 106l-43 42l189 210l-10 208l64 36l101 -215q10 -16 -1 -43q-7 -16 -29 -33zM413 106l-43 42l189 210l-10 208l64 36l101 -215q10 -16 -1 -43q-7 -16 -29 -33z" />
    <glyph glyph-name="guilsinglleft.1" horiz-adv-x="324" 
d="M530 139l-64 -35l-101 215q-9 20 1 41q8 20 29 35l272 206l41 -45l-189 -210z" />
    <glyph glyph-name="guilsinglright.1" horiz-adv-x="324" 
d="M227 106l-43 42l189 210l-10 208l64 36l101 -215q10 -16 -1 -43q-7 -16 -29 -33z" />
    <glyph glyph-name="hyphen.case" horiz-adv-x="243" 
d="M224 301l42 99h275l-42 -99h-275z" />
    <glyph glyph-name="endash.1" horiz-adv-x="552" 
d="M230 310l34 80h585l-34 -80h-585z" />
    <glyph glyph-name="emdash.1" horiz-adv-x="817" 
d="M230 310l34 80h850l-34 -80h-850z" />
    <glyph glyph-name="parenleft.case" horiz-adv-x="309" 
d="M446 644q124 125 290 212l27 -65q-117 -66 -223 -190t-163 -259q-56 -132 -56 -254q1 -118 63 -189l-67 -53q-100 95 -116 220q-19 135 47 292q65 153 198 286z" />
    <glyph glyph-name="braceleft.c2sc" horiz-adv-x="253" 
d="M292 -47l-27 -65q-97 0 -127 47q-28 46 6 125l52 122q18 42 -50 42l28 67q67 0 93 59l52 121q32 74 92 115q61 41 168 41l-27 -64q-68 0 -96 -67l-51 -120q-50 -117 -75 -121q22 -4 -32 -132l-52 -121q-21 -49 46 -49z" />
    <glyph glyph-name="braceright.c2sc" horiz-adv-x="253" 
d="M-104 -112l28 65q67 0 94 65l52 121q48 116 73 120q-6 2 -5 17t11 44.5t28 71.5l51 120q22 51 -45 51l27 64q97 0 127 -47q27 -46 -6 -125l-52 -121q-18 -43 50 -43l-28 -67q-68 0 -93 -58l-52 -122q-32 -74 -92 -115q-61 -41 -168 -41z" />
    <glyph glyph-name="numbersign.1" horiz-adv-x="434" 
d="M157 -20l105 146h-49l-105 -146h-96l105 146h-74l32 75h96l82 114h-84l31 75h108l105 146h97l-106 -146h48l106 146h94l-105 -146h75l-32 -75h-96l-83 -114h86l-32 -75h-108l-105 -146h-95zM350 315l-83 -114h49l82 114h-48z" />
    <glyph glyph-name="dollar.1" 
d="M251 -131l41 97q-88 1 -136 67q-44 59 -11 135q20 46 58 75q43 32 86 32q41 0 58 -27q15 -25 1 -58q-14 -32 -45 -51q-28 -17 -63 -19q1 0 2 1q-10 -25 19 -47q32 -24 66 -26l112 263l-13 6q-10 4 -32 16q-37 22 -56 45q-48 59 -4 163q29 68 101 122q88 64 184 70l20 47
h95l-20 -48q63 -5 103 -59q35 -50 8 -113q-19 -46 -58 -76q-41 -32 -84 -32t-60 29q-12 23 1 54q13 30 42 49q29 17 60 19q1 0 1 -1q8 18 -9 32q-18 15 -39 17l-102 -240l14 -5q23 -11 34 -18q39 -20 58 -45q52 -62 7 -169q-34 -81 -118 -139q-89 -60 -184 -67l-42 -99h-95z
M548 243q-13 22 -30 31l-94 -220q18 3 65 39q39 32 57 73q20 47 2 77zM499 449l84 198q-67 -8 -107 -105q-29 -68 23 -93z" />
    </font>
</defs>
</svg>
