<?xml version="1.0" standalone="no"?>
<!DOCTYPE svg PUBLIC "-//W3C//DTD SVG 1.1//EN" "http://www.w3.org/Graphics/SVG/1.1/DTD/svg11.dtd" >
<svg xmlns="http://www.w3.org/2000/svg" xmlns:xlink="http://www.w3.org/1999/xlink" version="1.1">
<metadata>
Created by FontForge 20170731 at Sun Dec  6 16:36:37 2015
 By Aleksey,,,
Attribution-ShareAlike 4.0 International
</metadata>
<defs>
<font id="NodestoCapsCondensed-BoldItalic" horiz-adv-x="851" >
  <font-face 
    font-family="Nodesto Caps Condensed"
    font-weight="700"
    font-style="italic"
    font-variant="small-caps"
    font-stretch="condensed"
    units-per-em="2048"
    panose-1="2 0 8 0 0 0 0 9 0 0"
    ascent="1638"
    descent="-410"
    x-height="1038"
    cap-height="1453"
    bbox="-296.25 -178 1593 1461"
    underline-thickness="150"
    underline-position="-442"
    slope="-12"
    unicode-range="U+001D-2026"
  />
<missing-glyph horiz-adv-x="1024" 
d="M70 -20l314 1474h874l-313 -1474h-875zM190 70h674l275 1294h-674zM546 1158q45 34 77 50q66 33 132 33q104 0 157 -55t34 -144q-11 -51 -46 -103t-118 -133q-79 -80 -124.5 -130t-54.5 -93q-7 -35 -3 -149h-80q-17 117 -5 172q16 79 128 221t127 214q10 49 -9.5 74
t-63.5 25q-32 0 -60 -14q-27 -14 -114 -75zM442 348l70 58q21 16 39 16q23 0 41 -20l44 -62q11 -17 8 -33q-4 -16 -21 -31l-70 -63q-24 -20 -42 -20q-25 0 -40 21l-46 72q-8 14 -5 30q3 15 22 32z" />
    <glyph glyph-name=".notdef" horiz-adv-x="1024" 
d="M70 -20l314 1474h874l-313 -1474h-875zM190 70h674l275 1294h-674zM546 1158q45 34 77 50q66 33 132 33q104 0 157 -55t34 -144q-11 -51 -46 -103t-118 -133q-79 -80 -124.5 -130t-54.5 -93q-7 -35 -3 -149h-80q-17 117 -5 172q16 79 128 221t127 214q10 49 -9.5 74
t-63.5 25q-32 0 -60 -14q-27 -14 -114 -75zM442 348l70 58q21 16 39 16q23 0 41 -20l44 -62q11 -17 8 -33q-4 -16 -21 -31l-70 -63q-24 -20 -42 -20q-25 0 -40 21l-46 72q-8 14 -5 30q3 15 22 32z" />
    <glyph glyph-name=".null" horiz-adv-x="0" 
 />
    <glyph glyph-name=".null" horiz-adv-x="0" 
 />
    <glyph glyph-name="nonmarkingreturn" horiz-adv-x="508" 
 />
    <glyph glyph-name="space" unicode=" " horiz-adv-x="508" 
 />
    <glyph glyph-name="space" unicode="&#xa0;" horiz-adv-x="508" 
 />
    <glyph glyph-name="exclam" unicode="!" horiz-adv-x="497" 
d="M409 1436h280q58 0 46 -53q-48 -39 -51 -54q-25 -97 -46 -169h15l-25 -35q-70 -273 -173 -649q4 20 8 20q-23 -108 -68 -108h-116q-58 0 -43 68q4 20 7 20q111 688 133 860q9 0 -23 49l2 11q9 40 54 40zM301 252q118 0 116 -142q-19 -87 -148 -130h-17q-91 0 -113 110
q-1 19 2 35q60 127 160 127z" />
    <glyph glyph-name="quotedbl" unicode="&#x22;" horiz-adv-x="555" 
d="M389 1449h161l28 -22q-109 -362 -133 -362l-25 -4h-50q-62 0 -40 102q31 257 34 275zM625 1449h161l28 -22q-109 -362 -133 -362l-25 -4h-50q-62 0 -40 102q31 257 34 275z" />
    <glyph glyph-name="numbersign" unicode="#" horiz-adv-x="975" 
d="M707 1444h145l29 -23l-169 -393h95q162 379 181 409l35 7h127q49 -2 42 -33l-156 -383h92l48 -10q-70 -178 -106 -178h-115q-16 -35 -113 -272h93l47 -10q-63 -174 -101 -174h-128q8 0 -151 -389q-29 -15 -47 -15h-131l-48 10q165 402 163 394h-106q6 0 -116 -306
q-39 -98 -78 -98h-124q-29 0 -48 31q159 369 160 373h-97l-45 9l5 23q59 152 93 152h119q97 225 123 281q-2 6 -5 -9h-106q-50 0 -43 33q68 155 98 155h126q157 373 176 409zM636 840l-114 -272h93q21 43 121 289l-4 -17h-96z" />
    <glyph glyph-name="dollar" unicode="$" horiz-adv-x="732" 
d="M626 1440h71q26 0 35 -31l-17 -81q91 -16 103 -16q16 0 70 15q11 -68 -9 -291q-25 0 -74 -14q-30 82 -115 82h-20q-66 0 -86 -52l-9 -40q-9 -43 120 -218q132 -197 95 -374q-53 -250 -318 -328q-16 -1 -15 4l-16 -76q-9 -40 -54 -40h-56q-26 0 -35 31l19 89q-2 -10 -77 0
h-81q-36 0 -18 176q-3 0 6 96q18 36 91 36q14 -100 96 -100h64q92 23 106 88l7 32q22 107 -133 310q-113 170 -89 286l5 20q42 201 263 275q20 5 19 1l20 92q3 15 32 28z" />
    <glyph glyph-name="percent" unicode="%" horiz-adv-x="1279" 
d="M1113 1444h120q37 0 29 -37q-472 -903 -749 -1420l-36 -7h-119q-38 0 -31 33q517 996 749 1421q21 10 37 10zM619 1436q194 0 224 -210q5 -75 -12 -154l-2 -12q-60 -278 -265 -359q-51 -13 -84 -13h-28q-222 0 -200 304q-1 17 11 91q49 231 216 318q71 35 140 35z
M497 1100l-12 -56q-37 -176 1 -176h24q47 0 80 152l22 104q28 132 -19 132h-8q-55 0 -88 -156zM1112 728h24q186 0 213 -210q6 -68 -8 -134l-6 -28q-64 -300 -288 -367q-38 -9 -77 -9q-189 0 -213 206q-4 41 7 148l15 74q52 154 104 208q104 112 229 112zM1008 416l-22 -100
q-33 -156 10 -156h12q59 0 104 212q37 176 -9 176h-16q-51 0 -79 -132z" />
    <glyph glyph-name="ampersand" unicode="&#x26;" horiz-adv-x="1036" 
d="M1090 1448q46 0 37 -164q8 0 -3 -128l-26 -12h-61q-8 64 -36 64h-203l3 12q-2 -7 64 -528h-27q63 117 161 162q58 18 74 18h24q130 -34 98 -188q-23 -108 -80 -108q-26 0 -41 34l-10 2h-6q-60 0 -157 -167q47 -360 77 -366q-2 -12 36 -18l7 -24l-2 -9q-8 -40 -53 -40
h-240q-59 0 -60 63q-4 49 19 49q-128 -120 -277 -120h-16q-221 0 -251 255q-3 98 17 193l3 16q63 295 374 518l-1 -6q-12 70 -63 475l29 13h515q30 0 75 4zM464 484l-19 -92q-35 -164 55 -164q57 0 123 81q-41 327 -51 374q-76 -51 -108 -199z" />
    <glyph glyph-name="quotesingle" unicode="'" horiz-adv-x="346" 
d="M399 1448h160l28 -22q-108 -362 -132 -362l-25 -4h-50q-62 0 -40 102q30 257 34 275z" />
    <glyph glyph-name="parenleft" unicode="(" horiz-adv-x="530" 
d="M834 1444l7 -27l-12 -57q-4 -21 -101 -104q-159 -198 -233 -548q-97 -455 61 -635l-14 -65q-3 -15 -39 -31q-377 180 -273 722l5 20q120 542 569 725h30z" />
    <glyph glyph-name="parenright" unicode=")" horiz-adv-x="547" 
d="M374 1444q378 -186 267 -731l-5 -21q-106 -500 -530 -701q-24 -11 -59 -11l-14 30l10 50q4 19 102 108q158 191 234 548q96 454 -62 631l16 73q8 24 41 24z" />
    <glyph glyph-name="asterisk" unicode="*" horiz-adv-x="527" 
d="M504 1450h154l29 -23q-75 -172 -72 -157h-24q163 80 211 80q11 -147 4 -180q-4 -19 -186 -27l3 11l111 -136q-159 -104 -205 -104q-32 161 -34 164h22q-87 -141 -117 -164h-23q-124 96 -119 118q154 122 151 106h24q-196 21 -190 49l79 163h21q14 0 125 -65
q-3 -11 -1 -11q6 74 6 158z" />
    <glyph glyph-name="plus" unicode="+" horiz-adv-x="721" 
d="M521 1148h159q26 0 35 -31l-54 -253h206q54 0 44 -48l-27 -124q-8 -40 -53 -40h-215l-55 -256q-3 -15 -32 -28h-159q-25 0 -34 31l53 253h-206q-54 0 -44 48l27 124q8 40 53 40h215l55 256q3 15 32 28z" />
    <glyph glyph-name="comma" unicode="," horiz-adv-x="346" 
d="M232 262q136 0 124 -162q-39 -180 -275 -278h-14q-31 0 -49 78q138 63 146 102l-3 -14q-122 8 -94 138q51 132 140 132q0 4 25 4z" />
    <glyph glyph-name="hyphen" unicode="-" horiz-adv-x="509" 
d="M118 236h368q58 0 46 -52l-34 -160q-9 -44 -58 -44h-368q-58 0 -47 52l35 160q9 44 58 44z" />
    <glyph glyph-name="hyphen" unicode="&#xad;" horiz-adv-x="509" 
d="M118 236h368q58 0 46 -52l-34 -160q-9 -44 -58 -44h-368q-58 0 -47 52l35 160q9 44 58 44z" />
    <glyph glyph-name="period" unicode="." horiz-adv-x="309" 
d="M205 252q118 0 116 -142q-19 -87 -148 -130h-17q-91 0 -113 110q-1 19 2 35q60 127 160 127z" />
    <glyph glyph-name="slash" unicode="/" horiz-adv-x="531" 
d="M699 1444h133q34 -4 28 -33q-101 -230 -653 -1424l-37 -7h-121l-29 23l657 1431z" />
    <glyph glyph-name="zero" unicode="0" 
d="M731 1444h20q289 0 261 -453q-22 -177 -38 -255q-19 -88 -35 -140h3q-99 -322 -166 -406q-130 -210 -340 -210q-257 0 -260 365q19 221 20 227q4 20 7 20q6 58 25 148q122 575 396 682q64 22 107 22zM520 764l-15 -68q-92 -436 -44 -469q11 -7 14 -7h24q74 0 165 424
l40 188q79 376 1 376h-12q-79 0 -173 -444z" />
    <glyph glyph-name="one" unicode="1" 
d="M812 1448h101l29 -22q-20 -50 -35 -118l-256 -1208q-8 -36 52 -55l-8 -37q-3 -15 -33 -28h-346q-26 0 -35 31l2 9q7 32 58 46q19 14 24 38l200 944q18 0 13 3l-216 -29l-15 32l26 122q10 48 98 48q189 62 272 185q23 39 69 39z" />
    <glyph glyph-name="two" unicode="2" 
d="M713 1444q274 0 298 -239q-2 -89 -8 -113l-4 -20q-53 -251 -352 -532q-185 -198 -213 -308h237q55 0 101 76h23q62 0 53 -41q-117 -287 -146 -287q-70 0 -69 5q-9 -1 -30 -1h-488q-54 0 -44 44q74 350 518 811q90 115 117 241q22 103 -79 120h-42q-86 0 -149 -96h-27
q-25 0 -59 20l113 306q59 -6 75 -6q134 20 175 20z" />
    <glyph glyph-name="three" unicode="3" 
d="M696 1448q188 0 265 -200q21 -98 3 -180q-42 -200 -218 -311q158 -87 104 -341q-57 -268 -326 -410q-85 -26 -140 -26q-48 0 -210 20h-1l-76 -6l12 288q25 15 56 22q29 0 59 -58q35 -34 121 -34q179 0 225 216q33 157 -57 203q-22 9 -41 9h-48q-53 0 -41 56l26 124
q3 15 33 28h58q139 0 181 200q35 164 -103 164q-112 0 -182 -92q-53 0 -77 34q27 66 107 278h26q34 -8 40 -8q146 24 204 24z" />
    <glyph glyph-name="four" unicode="4" 
d="M709 1448h255l47 -10q-43 -112 -56 -174l-168 -792h-26q22 0 58 -4l106 17q-1 -9 7 -9q-97 -244 -129 -244h-79q12 1 13 8l-23 -108q-16 -76 27 -76l7 -27l-4 -21q-3 -15 -33 -28h-322q-26 0 -35 31l6 28q45 26 53 34q11 24 15 43l25 116h-290q-56 0 -56 100q-7 0 -4 60
l532 995q28 61 74 61zM661 1048q-302 -593 -298 -576h132l12 -2l-5 -7l124 585h35z" />
    <glyph glyph-name="five" unicode="5" 
d="M999 1448q4 -50 0 -280q-18 -36 -93 -36q-5 64 -59 64h-157q-52 -142 -71 -232q18 4 60 4h24q224 0 217 -336q2 -51 -9 -104l-20 -92q-31 -145 -162 -315q-143 -141 -256 -141h-64q-34 0 -161 36h-29l-52 -7q-8 43 6 304q32 23 97 23q17 -116 134 -116h20q77 0 127 89
q37 49 70 206q29 180 -28 204q-18 9 -15 9l-17 -8l-13 8q-28 0 -89 -60q-23 0 -189 38q8 41 48 162h-9q27 56 177 552l28 16h344q60 0 141 12z" />
    <glyph glyph-name="six" unicode="6" 
d="M807 1444h4q41 0 131 -31q18 3 35 3h35q5 -63 -12 -274q-5 -22 -87 -22q-21 96 -102 96h-28q-77 0 -135 -109q-26 -37 -73 -203q2 0 7 20q55 32 129 32h8q205 0 235 -214q11 -121 -13 -234l-14 -68q-45 -211 -197 -361q-121 -99 -234 -99h-40q-289 0 -258 413
q20 167 45 287q124 581 377 717q85 47 187 47zM507 556q-72 -340 3 -340h8q83 0 138 260q50 236 -20 236h-11q-86 -10 -95 -52z" />
    <glyph glyph-name="seven" unicode="7" 
d="M425 1446q81 -10 143 -10h488q57 0 63 -93q-446 -550 -599 -1271q-2 -9 50 -29l-8 -35q-3 -15 -33 -28h-312l-31 24l12 19l2 5q-3 -12 -9 -12q119 379 220 611q203 412 362 593q-4 0 -7 -12l-3 -16h-296q-64 -12 -74 -60h-59l-29 22z" />
    <glyph glyph-name="eight" unicode="8" 
d="M735 1444h12q215 0 263 -229q11 -46 -1 -146q-46 -214 -210 -329q136 -93 84 -336q-63 -299 -322 -407q-67 -17 -113 -17h-20q-280 0 -275 349q7 55 15 91q49 233 225 325q-116 113 -69 335q56 264 329 355q47 9 82 9zM572 1012q-28 -133 46 -152h1q71 0 122 168l4 16
q29 139 -19 168q-6 4 -15 4h-20q-63 0 -105 -140zM436 408q-43 -204 47 -204q87 0 134 220q34 161 -29 187q-1 1 -6 1h-20q-83 0 -126 -204z" />
    <glyph glyph-name="nine" unicode="9" 
d="M732 1448q234 0 264 -246q20 -175 -33 -422l-14 -68q-156 -732 -561 -732q-29 0 -134 35q-36 -7 -69 -7q2 201 19 280q4 20 86 20q24 -96 107 -96h16q143 0 207 300l-3 -10q-55 -26 -73 -26l-54 -8q-228 0 -248 243q-10 106 22 253q36 173 151 327q136 157 317 157z
M556 1012l-27 -128q-36 -172 40 -172q92 13 98 44l39 184q57 264 -10 264h-24q-75 0 -116 -192z" />
    <glyph glyph-name="colon" unicode=":" horiz-adv-x="362" 
d="M431 1162q110 0 115 -141q-20 -93 -153 -135h-12q-95 0 -118 110q-1 19 3 35q54 127 139 127q1 4 26 4zM303 562q70 0 114 -83q5 -45 1 -62q-66 -131 -165 -131q-69 0 -114 83q-6 36 -1 62q56 127 135 127q1 4 30 4z" />
    <glyph glyph-name="semicolon" unicode=";" horiz-adv-x="378" 
d="M438 1176q110 0 115 -141q-20 -93 -153 -135h-12q-95 0 -118 110q-1 19 3 35q54 127 139 127q1 4 26 4zM301 572h16q120 0 108 -158q-32 -154 -234 -255q-21 -11 -39 -11h-10q-24 10 -43 59l3 17q130 62 138 100l-4 -16q-120 0 -92 132l2 9q58 123 155 123z" />
    <glyph glyph-name="semicolon" unicode="&#x37e;" horiz-adv-x="378" 
d="M438 1176q110 0 115 -141q-20 -93 -153 -135h-12q-95 0 -118 110q-1 19 3 35q54 127 139 127q1 4 26 4zM301 572h16q120 0 108 -158q-32 -154 -234 -255q-21 -11 -39 -11h-10q-24 10 -43 59l3 17q130 62 138 100l-4 -16q-120 0 -92 132l2 9q58 123 155 123z" />
    <glyph glyph-name="less" unicode="&#x3c;" horiz-adv-x="777" 
d="M937 1133q40 -5 34 -33l-36 -172q-9 -39 -85 -55q-348 -126 -347 -126q-2 14 216 -73q148 -62 142 -90l-39 -184q-5 -24 -41 -24q-505 243 -634 309v33l18 82q8 40 141 82q553 223 631 251z" />
    <glyph glyph-name="equal" unicode="=" horiz-adv-x="771" 
d="M306 1062h654q26 0 35 -31l-36 -173q-3 -15 -33 -28h-654q-26 0 -35 31l36 173q4 15 33 28zM257 762h640q26 0 35 -31l-35 -161q-8 -40 -61 -40h-616q-58 0 -47 52l30 140q9 40 54 40z" />
    <glyph glyph-name="greater" unicode="&#x3e;" horiz-adv-x="771" 
d="M335 1136q524 -243 631 -308q7 -18 3 -32l-17 -80q-8 -41 -113 -70q-45 -23 -684 -275l-11 36l39 181q7 37 84 55q348 126 351 128q-4 -17 -215 71q-148 61 -149 84l40 186q8 24 41 24z" />
    <glyph glyph-name="question" unicode="?" horiz-adv-x="629" 
d="M537 1436h64q196 0 246 -181q11 -65 -2 -127q-35 -165 -287 -396q-63 -84 -88 -204l-8 -36q-4 -18 48 -36l-7 -32q-8 -40 -53 -40h-184q-66 0 -52 66q7 70 17 114q56 170 127 267q172 180 190 265l4 20q17 80 -74 80h-12q-100 0 -145 -66q-2 -10 -38 -37q-68 20 -62 47
q94 252 114 284q-2 0 2 18q40 -22 61 -22h13q97 16 126 16zM325 252q118 0 116 -142q-19 -87 -148 -130h-17q-91 0 -113 110q-1 19 2 35q60 127 160 127z" />
    <glyph glyph-name="at" unicode="@" horiz-adv-x="1457" 
d="M1053 1440q389 0 504 -336q43 -165 7 -332l-6 -32q-68 -317 -328 -431q-55 -13 -115 -21q-149 0 -212 76h16q-74 -64 -156 -64h-32q-138 0 -159 139q0 61 3 77q45 211 367 331v0v1q13 60 -35 60q1 8 -17 8q-64 0 -117 -68h-18q-25 0 -48 29q67 196 82 225q51 -6 64 -6
q95 16 126 16h24q165 0 190 -167q1 -53 -9 -101l-76 -356q-3 -14 21 -16h43q124 27 169 240l10 48q75 353 -151 471q-84 33 -188 33q-311 0 -514 -348q-31 -57 -76 -212q-89 -417 212 -530q52 -18 130 -18h12q103 0 264 64h34l37 -154q-187 -86 -368 -86q-516 0 -553 507
q-3 104 21 217l3 12q87 409 474 633q178 91 365 91zM821 548l-1 -2q-3 -42 10 -42h12q27 0 39 56l19 92q-61 -19 -79 -104z" />
    <glyph glyph-name="A" unicode="A" horiz-adv-x="917" 
d="M560 1448h404q53 0 43 -48q-4 -18 -49 -45l-1 -2v-1q-1 -4 3 -14q-9 -13 -9 -12q-66 -1083 -71 -1255q7 -15 45 -15l-1 -42l-1 -6q-3 -15 -33 -28h-342q-26 0 -35 31l4 21q4 18 52 34l10 13q19 124 19 125h18q-15 -10 -117 -24q-68 9 -120 24q12 0 -27 -136q-2 -8 41 -16
l-1 -38l-1 -6q-3 -15 -33 -28h-322q-26 0 -35 31l6 28q55 31 56 38q76 186 469 1267l5 20q-1 -1 -35 25l5 23q7 36 53 36zM715 1156q-7 -15 -233 -709q9 -7 59 -7h24q38 0 53 13l65 703h32z" />
    <glyph glyph-name="B" unicode="B" horiz-adv-x="919" 
d="M485 1448h298q95 0 214 -83q97 -116 61 -285q-43 -200 -213 -303l4 16q174 -103 115 -381q-67 -313 -380 -407q-98 -25 -185 -25h-60q-294 0 -286 35q-3 7 0 21l2 8q7 21 55 33q20 18 23 31l258 1214q3 42 -42 42l-8 27l5 21q3 15 32 28h11q5 0 96 8zM665 1208l-67 -316
h11q103 21 127 137q7 14 13 39q26 124 -44 140h-40zM545 644l-89 -420h38q72 0 122 85q29 46 40 99l17 80q24 111 -52 153q-35 7 -50 7q-28 -4 -26 -4z" />
    <glyph glyph-name="C" unicode="C" horiz-adv-x="784" 
d="M806 1444q39 0 119 -12h33l68 7l-12 -289q-40 -26 -94 -26q-10 80 -105 80h-8q-137 0 -245 -309l-17 -48l3 -10q-9 -13 -18 -37q-12 -76 -17 -100q-4 -19 -23 -91q-34 -247 -11 -304q24 -97 112 -97h12q93 0 130 70q7 22 34 22q10 0 64 -15q-109 -305 -140 -305
q-34 0 -33 3q-71 -3 -119 -3h-104q-153 0 -235 211q-56 216 9 521l1 3q131 574 466 708q85 21 130 21z" />
    <glyph glyph-name="D" unicode="D" horiz-adv-x="947" 
d="M459 1448h333q136 -12 226 -109q131 -169 45 -575l-5 -20q-121 -570 -412 -710q-132 -54 -253 -54q-33 4 -53 4h-12q-286 0 -276 48l1 4q8 38 66 46q12 12 23 35l6 46l248 1165q6 29 -50 46l-2 31q9 43 115 43zM669 1208l-211 -994q1 14 -19 14h32q171 0 264 436l36 172
q79 372 -63 372h-39z" />
    <glyph glyph-name="E" unicode="E" horiz-adv-x="819" 
d="M1020 1449q0 -189 -5 -301q-37 -9 -38 -17q-43 0 -73 59q-6 6 -14 10l-43 -4h-180l-12 2l6 7l-64 -299h158q72 3 82 51l29 17h28q26 0 35 -31l-68 -319q-3 -15 -33 -28h-26q-31 0 -38 60q-9 8 -36 8h-179l-91 -431h202q47 0 101 69q56 0 73 -35q-92 -238 -123 -294
q-47 19 -77 19h-548q-26 0 -35 31l4 21q4 17 57 36q19 22 23 41l256 1203q7 32 -43 46l-6 22l4 21q3 15 33 28h548q60 8 93 8z" />
    <glyph glyph-name="F" unicode="F" horiz-adv-x="768" 
d="M996 1453q36 0 28 -296q-36 -22 -88 -22q-16 65 -50 65h-223l-67 -319h194q37 0 71 63q20 10 40 10q40 -10 32 -48l-66 -310q-3 -15 -33 -28h-10q-58 0 -46 57q-7 11 -24 11h-206l-115 -539q-7 -35 58 -45l-13 -64l-40 -8h-355q-26 0 -35 31l6 28l61 37q6 0 23 37l6 47
l236 1112q4 17 13 44q9 41 -44 59l-7 21l2 9q9 40 54 40h530q60 8 68 8z" />
    <glyph glyph-name="G" unicode="G" horiz-adv-x="893" 
d="M821 1453q119 -12 134 -12l56 6q13 -33 -8 -295q-36 -9 -37 -17q-47 0 -75 61q-24 16 -62 16h-28q-187 0 -291 -491q-86 -402 -11 -479q22 -21 67 -21h13h2l90 427q7 29 -42 45q-8 21 -4 36l1 4q2 13 31 28h360q25 0 34 -31l-4 -22q-3 -13 -65 -42q-12 -18 -15 -30
l-98 -463q-7 -32 3 -98q-187 -95 -389 -95q-271 0 -308 345q-9 184 37 400l3 16q96 450 362 636q126 76 244 76z" />
    <glyph glyph-name="H" unicode="H" horiz-adv-x="1023" 
d="M381 1453h362l44 -9l-6 -31q-7 -33 -62 -49q-21 -19 -31 -68l-85 -400q1 14 -19 14h207l89 418q8 40 -44 59q-7 20 -4 34l1 4q3 15 32 28h367q25 0 34 -31l-6 -30q-75 -32 -79 -55l-7 -48l-243 -1144q-4 -17 -13 -43q1 -46 45 -46l7 -27l-4 -21q-3 -15 -33 -28h-366
q-26 0 -35 31l4 21q5 23 49 31q30 19 37 50l117 551h-197q12 1 13 8l-116 -547q-13 -61 23 -69h30l-14 -68l-40 -8h-355q-26 0 -35 31l6 28l59 35l22 29q4 36 9 58l250 1175q7 32 -27 45q-28 0 -22 28l4 16q3 15 32 28z" />
    <glyph glyph-name="I" unicode="I" horiz-adv-x="543" 
d="M408 1453h344q25 0 34 -31l-7 -34q-59 -26 -63 -31q-20 -40 -18 -40l-2 -22l-255 -1197q-2 -42 42 -42l7 -27l-4 -21q-3 -15 -33 -28h-370q-26 0 -35 31l2 9q8 38 60 47q25 16 37 73l249 1169q11 54 -11 64q-47 0 -38 44q8 36 61 36z" />
    <glyph glyph-name="J" unicode="J" horiz-adv-x="698" 
d="M584 1444h363q26 0 35 -31l-6 -28q-69 -39 -70 -45l-9 -24l-220 -1036q-10 -44 5 -69l-3 -13q-86 -127 -273 -196q-69 -22 -122 -22h-20q-163 0 -285 97l3 16q23 45 145 239h19q66 0 53 -60q-9 -42 62 -48q4 0 24 -4q68 0 101 96l213 1004q8 36 -45 53l-7 22l5 21
q3 15 32 28z" />
    <glyph glyph-name="K" unicode="K" horiz-adv-x="988" 
d="M381 1453h355q53 0 43 -48l-2 -11q-73 -42 -77 -58q-8 -21 -12 -39l-90 -422h-28q-4 -1 194 318q92 134 96 156l5 20l-42 13q-7 21 -4 35q8 36 53 36h336q53 0 43 -48q-6 -29 -69 -43q-16 -7 -267 -385q-48 -62 -51 -74q-21 -102 43 -793q12 -54 64 -54l7 -27l-4 -21
q-3 -15 -33 -28h-310q-40 0 -52 288q-8 245 -6 376l25 -14q-70 -84 -71 -92l-86 -402q-17 -80 38 -80l7 -27l-4 -21q-3 -15 -33 -28h-366q-26 0 -35 31l6 28l61 36q13 12 16 25l262 1233q7 34 -53 51l9 41q3 15 32 28z" />
    <glyph glyph-name="L" unicode="L" horiz-adv-x="770" 
d="M381 1453h355q53 0 43 -48l-1 -4q-3 -16 -67 -44q-18 -20 -23 -41l-229 -1078h230q36 0 95 70q72 -7 66 -38q-112 -290 -143 -290q-70 0 -68 6q-30 -2 -59 -2h-496q-26 0 -35 31l7 32l62 38q11 7 16 28l260 1223q6 31 -43 46l-7 22l5 21q3 15 32 28z" />
    <glyph glyph-name="M" unicode="M" horiz-adv-x="1223" 
d="M381 1453h319q31 0 49 -33l-10 -14l-3 -17q-14 -64 31 -335q24 -227 23 -226q-13 -11 164 336q99 169 113 233l3 16q9 40 54 40h296q53 0 43 -48q-5 -24 -63 -47q-20 -25 -24 -41l-258 -1213q-7 -37 46 -53l6 -22l-4 -21q-3 -15 -33 -28h-366q-26 0 -35 31l6 28l60 35
q15 15 19 34l153 723q37 0 -216 -481q-29 -65 -70 -65h-36q-59 0 -55 119q-6 7 -52 427h36l-155 -731q-8 -35 25 -41q32 -11 24 -47l-1 -4q-3 -15 -33 -28h-354q-26 0 -35 31l6 28l62 36q7 6 20 30l6 47l242 1140q4 17 14 45q6 27 -58 48l9 40q3 15 32 28z" />
    <glyph glyph-name="N" unicode="N" horiz-adv-x="999" 
d="M381 1453h287q53 0 39 -65q3 -75 73 -384q28 -135 25 -132h-30l100 468q4 23 -58 50l5 23q9 40 54 40h320q53 0 43 -48q-5 -23 -64 -49q-18 -19 -22 -36l-260 -1223q-7 -33 16 -45q26 0 20 -28l-3 -16q-3 -15 -33 -28h-261l-45 9l80 374q-112 514 -110 513h26l-167 -783
q-5 -25 47 -47q7 -20 4 -34l-1 -4q-3 -15 -33 -28h-350q-26 0 -35 31l6 28l62 38q12 7 16 28l261 1227q7 32 -52 58l8 35q3 15 32 28z" />
    <glyph glyph-name="O" unicode="O" horiz-adv-x="887" 
d="M760 1453q252 0 282 -312q7 -177 -31 -358l-19 -89q-152 -714 -541 -714q-398 0 -233 775q120 565 415 676q66 22 127 22zM535 859q3 16 10 16q-20 -64 -25 -84l-23 -109q-4 -21 -9 -66l-7 -9q-43 -276 -27 -330q12 -56 28 -56h32q65 0 154 337q-4 -20 -8 -20q6 28 14 49
q11 47 39 163q17 97 27 144l-4 12l8 11q29 201 14 262q-15 34 -33 41h-6q-82 0 -152 -249q-8 -36 -32 -112z" />
    <glyph glyph-name="P" unicode="P" horiz-adv-x="854" 
d="M620 1453h56q342 0 368 -321q6 -90 -17 -198q-75 -352 -326 -465q-107 -34 -177 -34h-30l9 4l-1 -18l-59 -276q-4 -17 -13 -43q0 -46 49 -46l7 -27l-4 -21q-3 -15 -33 -28h-366q-26 0 -35 31l6 28l61 37q6 0 23 37l6 47l232 1092q4 22 15 55q6 58 -41 58l-8 27l2 13
q9 40 49 40q156 8 227 8zM669 1208l-2 -8v-2l-107 -502l-8 -28l-14 8h16q115 0 164 230l16 76q41 190 -44 225q-2 1 -6 1h-15z" />
    <glyph glyph-name="Q" unicode="Q" horiz-adv-x="907" 
d="M760 1453q308 0 278 -464q2 -69 -33 -234l-9 -40q-87 -411 -239 -570q5 -24 15 -24h4q20 0 51 41h18q44 0 46 -37q-20 -91 -106 -175q-40 -26 -86 -26h-20q-76 0 -126 76q-37 -11 -76 -11h-44q-267 0 -260 419q1 99 45 346q116 544 405 673q67 26 137 26zM528 816
q0 -10 -4 -29l-24 -113q-5 -20 -13 -40q-52 -319 -31 -362q8 -54 33 -54h24q65 0 151 319q-4 -20 -8 -20q10 48 14 48q26 106 39 166q87 411 37 476q-13 12 -24 12h-8q-77 0 -150 -262q-35 -141 -36 -141z" />
    <glyph glyph-name="R" unicode="R" horiz-adv-x="971" 
d="M747 1453q312 0 376 -231q18 -110 -5 -216q-61 -290 -243 -374l1 7q-7 -219 11 -494q5 -86 58 -86l13 -30l-4 -21q-3 -15 -33 -28h-301q-60 11 -41 99q-13 244 21 495l-4 -19h-58l-94 -442q-10 -48 43 -63q8 -21 4 -35l-1 -7q-3 -15 -33 -28h-374q-26 0 -35 31l2 9
q6 29 66 51q20 15 30 61l247 1165q14 62 -38 62l-14 29l2 10q8 39 71 39q87 12 333 16zM679 1215l-94 -440q1 14 -20 14l43 4l29 -4q61 0 125 93q28 61 32 81l17 80q15 160 -106 160q1 4 -5 4h-34q11 1 13 8z" />
    <glyph glyph-name="S" unicode="S" horiz-adv-x="763" 
d="M716 1453q17 0 159 -24q49 8 83 8l-10 -280q-32 -23 -96 -23q-22 83 -146 83q-87 0 -122 -110l-2 -8q-18 -85 52 -182q214 -317 173 -509l-7 -35q-59 -275 -307 -368q-86 -25 -150 -25q-29 0 -173 24q-3 0 -80 -6q3 112 23 325q51 19 95 19q2 -122 130 -122h20
q85 0 135 96q9 24 14 49q32 148 -102 320q-160 235 -120 422q44 207 239 308q95 38 192 38z" />
    <glyph glyph-name="T" unicode="T" horiz-adv-x="769" 
d="M384 1449q44 -12 129 -12h444q73 0 156 18l-5 -304l-50 -18q-30 0 -58 55q-19 7 -38 7h-127l-232 -1094q-8 -35 25 -46q33 0 24 -43l-1 -4q-3 -15 -33 -28h-378q-26 0 -35 31l2 9q7 34 69 52q18 20 22 37l229 1079l1 3q-4 0 -3 3l3 1h-122q-55 0 -83 -59q-4 0 -6 -10
q-48 14 -80 14l9 44q103 265 130 265h8z" />
    <glyph glyph-name="U" unicode="U" horiz-adv-x="1023" 
d="M381 1453h367q25 0 34 -31l-3 -16q-3 -13 -66 -43q-15 -17 -21 -47l-209 -984q-17 -79 21 -99q18 -6 23 -6h49q85 16 99 82l219 1030q7 31 -46 48q-7 21 -4 35q14 31 52 31h336q25 0 34 -31l-6 -29q-74 -31 -79 -53l-6 -47l-203 -957q-7 -31 -21 -80l5 -76
q-240 -200 -449 -200q-216 0 -364 191q-6 13 -3 29q30 66 29 66q5 36 10 62l205 961q4 21 15 54q6 26 -58 47l8 35q3 15 32 28z" />
    <glyph glyph-name="V" unicode="V" horiz-adv-x="894" 
d="M330 1453h359q25 0 34 -31l-4 -20q-4 -18 -55 -35l-7 -14q-5 -24 -96 -1021h-30l341 1008l3 15q4 19 -49 33l8 37q3 15 32 28h339q25 0 34 -31l-4 -22q-14 -21 -60 -35q-17 -13 -67 -167l-449 -1202l-27 -16h-308q-44 0 -24 251q43 1012 46 1133q-5 9 -56 26l8 35
q3 15 32 28z" />
    <glyph glyph-name="W" unicode="W" horiz-adv-x="1248" 
d="M340 1453h362l44 -9l-13 -64q-62 -7 -66 -27l-101 -862h-31q4 4 116 233q117 227 142 262h106q54 0 48 -83q36 -410 28 -392q-22 -22 -22 -20l259 860q5 24 -45 29l-8 25l5 20q3 15 32 28h363q25 0 34 -31l-4 -20q-3 -15 -72 -44q-3 0 -151 -440l-323 -931l-38 -7h-183
q-58 0 -49 94l-38 397h15q6 0 -144 -307q-87 -166 -110 -184h-194q-54 0 -40 65l93 1316q-5 11 -55 29l8 35q3 15 32 28z" />
    <glyph glyph-name="X" unicode="X" horiz-adv-x="932" 
d="M380 1453h364q25 0 34 -31l-4 -20q-6 -21 -55 -33q-9 -8 -12 -18l-1 -5q9 -348 13 -356q-22 0 122 330h-14l26 34q6 24 -37 24l-8 27l5 20q3 15 32 28h355q25 0 34 -31l-1 -9q-7 -33 -69 -49q-22 -14 -226 -395q-132 -226 -133 -234q73 -641 91 -641q-6 -28 39 -45
q8 -20 4 -34l-1 -7q-3 -15 -33 -28h-382q-26 0 -35 31l2 9q6 29 59 51q-1 -5 7 14q3 88 -6 401h34q-167 -371 -177 -418q0 -6 46 -26l-11 -54l-40 -8h-347q-26 0 -35 31l3 12q7 34 64 46q29 19 169 297q182 329 205 383l1 4l-85 608q-5 8 -54 36l5 25q14 31 52 31z" />
    <glyph glyph-name="Y" unicode="Y" horiz-adv-x="839" 
d="M319 1453h370l44 -9l-13 -64q-53 -5 -57 -23q-3 -70 -2 -515h-34q42 86 230 518q3 14 -43 21l-8 24l5 20q3 15 32 28h343q25 0 34 -31l-4 -20q-3 -15 -60 -39q-47 -68 -445 -851l-86 -406q-8 -38 44 -57q8 -20 5 -33l-2 -8q-3 -15 -33 -28h-369l-45 9l12 54l65 32
q12 11 19 43l85 399q6 31 -67 844q-8 13 -60 28l8 36q3 15 32 28z" />
    <glyph glyph-name="Z" unicode="Z" horiz-adv-x="801" 
d="M390 1453h34q37 -8 39 -8h532q46 0 60 -83l-3 -14q-619 -1123 -621 -1132l4 16h230q54 0 90 67h20q60 0 65 -42q-109 -277 -139 -277q-43 8 -59 8h-552q-43 0 -55 71l4 18l630 1124h-213q-53 0 -102 -70q-80 15 -74 43q2 9 110 279z" />
    <glyph glyph-name="bracketleft" unicode="[" horiz-adv-x="758" 
d="M327 1444h284q53 0 43 -48l-9 -44q-3 -15 -33 -28h-125l-263 -1238q1 14 -19 14h132q26 0 35 -31l-13 -61q-3 -15 -33 -28h-302q-54 0 -43 48l292 1376q9 40 54 40z" />
    <glyph glyph-name="backslash" unicode="\" horiz-adv-x="569" 
d="M304 1444h131q39 0 38 -260l42 -1186l-31 -18h-116q-66 0 -46 93q-51 1322 -43 1360z" />
    <glyph glyph-name="bracketright" unicode="]" horiz-adv-x="758" 
d="M327 1444h284q53 0 43 -48l-292 -1376q-9 -40 -54 -40h-296q-26 0 -35 31l13 61q3 15 33 28h138q-13 0 -15 -8l262 1232h-110q-26 0 -35 31l10 49q9 40 54 40z" />
    <glyph glyph-name="asciicircum" unicode="^" horiz-adv-x="1014" 
d="M599 1448h112q51 0 66 -121q121 -486 121 -519l-27 -12h-143q-54 0 -69 129q-61 267 -62 283h26q-231 -375 -256 -403q-18 -9 -35 -9h-140q-37 0 -30 34q344 539 402 609q18 9 35 9z" />
    <glyph glyph-name="underscore" unicode="_" horiz-adv-x="1024" 
d="M40 156h642q25 0 39 -30l-25 -118q-3 -16 -38 -28h-642q-25 0 -39 30l25 118q3 16 38 28z" />
    <glyph glyph-name="grave" unicode="`" horiz-adv-x="1024" 
d="M314 1443h152q48 0 94 -137q29 -48 23 -76l-25 -11h-99q-37 0 -181 193q10 31 36 31z" />
    <glyph glyph-name="a" unicode="a" horiz-adv-x="673" 
d="M414 1045h280q44 0 46 -44q-36 -29 -38 -36l-1 -6q-59 -821 -52 -905q37 -11 28 -57l-29 -17h-244q-37 0 -33 38q3 18 44 38l-2 -5q16 89 15 84q-49 -8 -67 -8l-66 9q-19 -48 -26 -83q31 -19 24 -56l-29 -17h-228q-37 0 -33 38q2 12 41 41q171 433 338 914q0 4 -23 34
q18 38 55 38zM360 326q2 -2 29 -2h19q36 3 35 -2q52 502 68 502q8 0 -83 -304q-5 -5 -68 -194z" />
    <glyph glyph-name="b" unicode="b" horiz-adv-x="680" 
d="M558 1045q153 0 209 -147q11 -65 -2 -127q-30 -142 -136 -207q114 -67 71 -270q-47 -223 -275 -293q-75 -21 -153 -21h-20q-234 0 -224 44q5 25 51 41q7 6 8 14l186 875q3 13 -36 33q-2 -6 -6 -6q14 64 127 64h200zM485 862l-46 -214v0q68 12 86 95l11 52q12 58 -43 67
h-8zM399 460l-62 -293h20q84 13 108 127l11 52q20 95 -45 112q-18 3 -23 3z" />
    <glyph glyph-name="c" unicode="c" horiz-adv-x="543" 
d="M597 1048q83 -8 97 -8h32q36 0 23 -199q-11 -33 -90 -33q11 48 -56 56h-14q-88 0 -165 -217q-20 -56 -34 -123l-4 -16q-75 -352 44 -352h20q53 0 79 38q6 30 38 30q49 -9 43 -36q-23 -73 -78 -203q-104 -5 -147 -5h-52q-181 0 -201 283q-5 109 21 233l9 43
q96 392 323 487q65 22 112 22z" />
    <glyph glyph-name="d" unicode="d" horiz-adv-x="692" 
d="M342 1044h216q151 0 217 -162q34 -133 0 -291l-22 -102q-89 -388 -314 -479q-106 -30 -161 -30l-27 4h-50q-182 0 -172 44l2 11l52 33l5 12l185 869q3 15 -41 32l6 27q7 32 104 32zM484 861l-146 -690h2q69 0 120 117q37 101 75 259q67 314 -28 314h-23z" />
    <glyph glyph-name="e" unicode="e" horiz-adv-x="604" 
d="M739 1052q-2 -207 -7 -232q-30 -16 -67 -16q-18 44 -25 44h-162l-42 -196h118q26 0 55 48h28q25 0 34 -31l-47 -225q-6 -28 -43 -28q-32 0 -41 49q-2 3 -12 3h-142q11 1 12 8l-64 -304h158q31 19 37 44h41q37 0 30 -36q-58 -157 -80 -201l-64 5h-395q-37 0 -34 38
q4 18 51 41q8 8 11 25l182 856q5 22 -10 28q-32 0 -25 32l1 4q3 15 33 28h394q16 0 75 16z" />
    <glyph glyph-name="f" unicode="f" horiz-adv-x="553" 
d="M744 1050q-1 -196 -8 -227q-34 -15 -68 -15q-14 48 -38 48h-151l-46 -216h139q12 0 53 48h17q26 0 35 -31l-48 -225q-3 -15 -33 -28h-10q-24 0 -39 47q-1 1 -11 1h-139l-83 -393q0 -7 36 -21q7 -20 3 -41l-29 -17h-264q-37 0 -33 38q3 18 50 41q8 8 12 25l183 864
q5 24 -39 41l5 24q14 31 52 31h378z" />
    <glyph glyph-name="g" unicode="g" horiz-adv-x="662" 
d="M612 1044q70 -8 84 -8l1 4q69 0 47 -175h12q-25 -56 -63 -56h-22q-20 52 -59 52h-32q-85 0 -160 -213q-16 -59 -27 -110l-15 -68q-49 -232 -1 -292q13 -15 46 -15h2h1l65 303q3 14 -41 34l5 22q3 15 32 28h255q41 0 33 -40q-3 -13 -50 -40l-10 -24l-4 -31l-55 -256
q-3 -16 -12 -41l3 -69q-146 -69 -286 -69q-245 0 -227 368q8 94 27 186q76 356 307 479q70 31 144 31z" />
    <glyph glyph-name="h" unicode="h" horiz-adv-x="744" 
d="M271 1044h263q26 0 35 -31l-4 -16q-50 -29 -51 -32q-11 -15 -16 -41l-61 -285q1 15 -18 15h139l63 298q5 24 -39 41l5 23q3 15 32 28h263q26 0 35 -31l-4 -16l-54 -34l-1 -2l-193 -906q0 -6 33 -23q6 -19 3 -35l-29 -17h-264q-26 0 -35 31l3 16q50 28 52 37q5 6 8 16
l83 390h-129q12 1 13 8l-82 -385q-7 -49 32 -49l2 -46l-31 -18h-264q-26 0 -35 31l3 16q55 31 59 49l185 872q6 26 -38 46l5 22q3 15 32 28z" />
    <glyph glyph-name="i" unicode="i" horiz-adv-x="396" 
d="M290 1045h244q26 0 35 -31l-4 -20l-53 -33l-5 -13l-186 -873q-5 -23 39 -45l-7 -33l-29 -17h-264q-37 0 -33 38q4 22 51 38q11 11 18 43l177 835q9 43 -39 43q5 23 2 33q17 35 54 35z" />
    <glyph glyph-name="j" unicode="j" horiz-adv-x="499" 
d="M424 1044h259q26 0 35 -31l-5 -21q-53 -29 -57 -43l-160 -754q-3 -11 6 -57q-144 -158 -297 -158h-12q-128 0 -210 74l3 16q97 173 130 173q48 0 40 -64q12 -16 35 -16h16q55 0 73 84l146 685q9 44 -29 44l-8 27l3 13q3 15 32 28z" />
    <glyph glyph-name="k" unicode="k" horiz-adv-x="724" 
d="M271 1044h254l44 -9l-11 -55q-51 -10 -58 -47l-68 -316q2 14 -33 14q205 318 209 333l3 14q-1 -5 -38 11l5 24q14 31 52 31h240q26 0 35 -31l-5 -20l-63 -38q-210 -305 -211 -312q-19 -92 38 -586q2 -3 48 -28l-7 -32l-29 -17h-213q-59 6 -44 76q-15 79 -16 392h33
q-51 -53 -54 -67l-61 -290q-9 -43 39 -43l-13 -60l-40 -8h-247q-26 0 -35 31l3 13q3 13 49 35q8 8 11 24l184 866q5 23 -39 39l6 28q3 15 32 28z" />
    <glyph glyph-name="l" unicode="l" horiz-adv-x="589" 
d="M271 1044h259q26 0 35 -31l-5 -21q-52 -29 -61 -42l-168 -792q1 14 -19 14h172q31 0 74 52h23q37 -15 32 -36q-23 -73 -89 -210q-63 6 -83 6h-380q-26 0 -35 31l3 16q55 31 59 49l184 868q6 25 -39 39l6 29q3 15 32 28z" />
    <glyph glyph-name="m" unicode="m" horiz-adv-x="888" 
d="M271 1044h245l31 -24l-13 -19l-2 -9q-9 -42 45 -388q0 -20 -33 -20q205 367 214 408l5 24q3 15 32 28h231q26 0 35 -31l-5 -21q-54 -30 -58 -47l-185 -870q-5 -24 40 -38l-6 -29q-3 -15 -33 -28h-258q-26 0 -35 31l4 20l46 26q12 30 13 30q3 30 8 52l94 440
q35 0 -161 -374l-36 -7h-19q-54 0 -54 102q-2 4 -35 283h36l-108 -508q-5 -23 39 -45l-7 -33l-29 -17h-252q-26 0 -35 31l4 20l53 33l5 12l187 881q3 16 -41 31l6 28q3 15 32 28z" />
    <glyph glyph-name="n" unicode="n" horiz-adv-x="724" 
d="M271 1044h211q39 0 30 -90q14 -47 71 -322h-34l69 324q3 14 -39 45l4 15q3 15 32 28h247q26 0 35 -31l-4 -16q-55 -32 -58 -49l-187 -880q-4 -19 27 -40l-4 -20q-3 -15 -33 -28h-186q-26 0 -35 31l53 249q-40 200 -86 360h37l-117 -552q-3 -14 39 -39l-6 -32l-29 -17
h-248q-37 0 -33 38q3 18 50 41q8 8 12 25l183 864q5 25 -38 46l5 22q3 15 32 28z" />
    <glyph glyph-name="o" unicode="o" horiz-adv-x="673" 
d="M563 1044q217 0 208 -327q-14 -123 -28 -189q-117 -548 -406 -548q-294 0 -175 560q108 504 401 504zM403 607q5 20 12 20l-18 -52l-23 -105l-1 -28q-6 -8 -7 -9q-46 -218 -6 -269l6 -1h13q59 0 139 373l1 8q69 321 14 321h-12q-39 0 -94 -166q-6 -30 -24 -92z" />
    <glyph glyph-name="p" unicode="p" horiz-adv-x="593" 
d="M458 1045h16q256 0 280 -230q1 -93 -11 -149q-77 -363 -381 -363l-49 -227q-5 -28 43 -44l-5 -24q-3 -15 -33 -28h-258q-26 0 -35 31l3 16q55 31 59 49l183 861q6 28 -28 43q-7 19 -4 33q6 30 220 32zM481 865l-79 -374h10q50 0 89 143l16 72q27 127 -20 148l-17 3h-12
q12 1 13 8z" />
    <glyph glyph-name="q" unicode="q" horiz-adv-x="622" 
d="M559 1044q160 0 194 -220q4 -94 -14 -240q-5 -21 -8 -21l-4 -33l-3 -13q-3 -17 -13 -45q4 19 8 19q-52 -241 -167 -390v-1q2 -9 8 -9q5 0 23 29h27q26 0 35 -33q-54 -147 -141 -147h-4q-77 0 -104 58h13q-45 -13 -71 -13h-12q-210 0 -194 317q-3 43 30 234
q77 365 271 480q71 28 126 28zM391 566l-18 -82q-68 -323 -14 -323h12q55 0 117 294l34 156q53 253 3 253h-12q-59 0 -122 -298z" />
    <glyph glyph-name="r" unicode="r" horiz-adv-x="669" 
d="M526 1045q218 0 265 -163q18 -75 -2 -167q-42 -198 -168 -264v0q-12 -395 14 -395q45 -23 41 -44l-1 -4q-3 -15 -33 -28h-202q-55 0 -47 89q1 189 15 324h-23l-68 -318q-5 -24 29 -37q7 -20 3 -41l-29 -17h-260q-26 0 -35 31l3 16q55 32 56 38q9 21 12 34l176 827
q8 39 -24 39l-14 30q11 50 292 50zM485 866l-62 -294h22q69 0 105 123l12 56q20 93 -54 107h-36q12 1 13 8z" />
    <glyph glyph-name="s" unicode="s" horiz-adv-x="548" 
d="M510 1044q17 0 103 -15q29 7 65 7q-8 -185 -14 -212q-29 -18 -48 -18h-38q9 43 -54 57h-40q-38 0 -63 -54l-7 -35q-13 -59 78 -193q102 -163 72 -307l-1 -4q-43 -201 -214 -272q-58 -18 -97 -18h-42l-101 16q1 0 -55 -8q-2 131 22 246q24 12 40 12h25q20 -85 81 -85h25
q77 14 90 77l13 60q14 64 -126 275q-52 130 -33 221q42 196 255 250h64z" />
    <glyph glyph-name="t" unicode="t" horiz-adv-x="566" 
d="M237 1046l65 -6h409l69 7q-5 -98 -4 -217l-31 -18h-37q-20 40 -27 40h-99l-165 -776q-5 -25 29 -38q7 -20 3 -41l-29 -17h-260q-37 0 -33 38q4 20 50 38q12 11 19 44l160 752h-87q-22 0 -57 -47q-60 12 -53 43q56 149 78 198z" />
    <glyph glyph-name="u" unicode="u" horiz-adv-x="674" 
d="M271 1043h238q54 0 43 -54q-52 -17 -58 -46l-155 -726q-3 -50 32 -50h22q59 7 69 56l155 728q5 22 -35 42l9 42l40 8h226q26 0 35 -31l-3 -16q-50 -28 -54 -45l-162 -766q-4 -57 -7 -68q-177 -137 -318 -137q-153 0 -261 151l2 13q14 26 16 35l166 780q2 11 -36 41l3 15
q4 15 33 28z" />
    <glyph glyph-name="v" unicode="v" horiz-adv-x="656" 
d="M242 1044h276l-1 -52q-40 -17 -43 -25q-3 -11 -69 -724h-36l-2 -12l246 744q0 2 -27 17l-6 23q8 12 12 29h259q34 -4 28 -32l-3 -16q-59 -32 -68 -76q-26 -83 -340 -933l-38 -7h-187q-66 0 -36 138l35 854l-35 29l3 15q3 15 32 28z" />
    <glyph glyph-name="w" unicode="w" horiz-adv-x="885" 
d="M205 1044h279q34 -4 28 -32l-5 -27q-43 -11 -43 -13q-6 -29 -76 -613h-33q172 354 200 354h52q58 0 51 -107q19 -242 20 -243h-33q164 534 181 613q1 3 -30 14l-7 25q8 12 12 29h306l-1 -54q-54 -16 -62 -54q-223 -654 -326 -945l-24 -11h-130q-58 0 -49 96l-24 255h30
q-6 -6 -149 -298q-22 -53 -64 -53h-116q-44 0 -19 220l54 771q-37 23 -32 48q6 8 10 25z" />
    <glyph glyph-name="x" unicode="x" horiz-adv-x="650" 
d="M282 1044h289l-1 -53q-45 -15 -47 -25q1 -235 7 -249h-31q103 220 108 243l2 12q2 8 -31 20l5 27q6 8 10 25h294l-1 -52q-63 -26 -70 -58q-194 -344 -228 -415q50 -453 55 -463q44 -11 34 -59l-29 -17h-264q-26 0 -35 31q4 17 46 47v-2q9 42 1 283h20q8 0 -100 -271
l-4 -16q-1 -6 32 -22l-7 -33l-29 -17h-248q-37 0 -33 38q3 15 52 44q42 59 253 473v0q-38 361 -56 441q-9 4 -37 4l8 40q9 24 35 24z" />
    <glyph glyph-name="y" unicode="y" horiz-adv-x="652" 
d="M220 1044h318q-5 -23 -2 -31q-5 -21 -45 -41l-2 -10q-10 -350 -24 -350h-14q156 355 158 362q0 4 -30 17l-7 24q8 12 12 29h290l-1 -52q-55 -22 -61 -53q-290 -555 -294 -575l-61 -284q-6 -28 39 -44l-6 -28q-3 -15 -33 -28h-246q-44 0 -46 37q5 23 52 39q11 11 18 44
l57 269q-35 580 -46 603q-43 13 -36 47q6 8 10 25z" />
    <glyph glyph-name="z" unicode="z" horiz-adv-x="584" 
d="M287 1038l65 -6h351q46 0 56 -67l-438 -814l4 17h150q32 0 58 48h23l54 -8q-10 -46 -85 -230q-64 6 -84 6h-362q-59 6 -45 70l436 794h-138q-25 0 -69 -48h-26q-11 8 -39 8q11 52 89 230z" />
    <glyph glyph-name="braceleft" unicode="{" horiz-adv-x="1014" 
d="M683 1444q39 -10 31 -48l-8 -36q-8 -40 -81 -48q-69 -21 -79 -68l-77 -360q-27 -126 -147 -184l4 18q95 -44 75 -134q4 0 -8 -60l-69 -324q-14 -64 17 -82q96 -24 90 -54l-9 -44q-9 -40 -50 -40q-259 0 -274 184q3 55 15 108l67 316q9 42 -54 76q-6 18 -3 32l7 36
q9 40 68 54q29 24 35 54l67 312q45 213 186 258q87 34 197 34z" />
    <glyph glyph-name="bar" unicode="|" horiz-adv-x="1014" 
d="M327 1444h108q53 0 43 -48l-292 -1376q-9 -40 -54 -40h-108q-54 0 -43 48l292 1376q9 40 54 40z" />
    <glyph glyph-name="braceright" unicode="}" horiz-adv-x="1014" 
d="M323 1444q257 0 271 -173q8 -28 -14 -127l-66 -312q-9 -46 58 -72v-34l-8 -38q-6 -28 -78 -63q-22 -29 -25 -45l-68 -316q-42 -201 -179 -246q-96 -38 -202 -38q-39 10 -31 48l7 36q9 40 82 48q64 19 73 61q8 15 12 35l69 324q29 136 136 185q20 11 13 11l-5 -25
q-95 58 -68 189l73 340q13 65 -36 81q-81 9 -72 51l8 40q9 40 50 40z" />
    <glyph glyph-name="asciitilde" unicode="~" horiz-adv-x="1014" 
d="M560 949q90 0 268 -92h13q45 0 82 82l23 10h94q26 0 35 -31q-27 -131 -169 -241q-66 -32 -110 -32q-77 0 -263 87q-8 5 -17 5h-20q-35 0 -70 -78l-22 -10h-95q-37 0 -33 38q31 145 191 239q48 23 93 23z" />
    <glyph glyph-name="brokenbar" unicode="&#xa6;" horiz-adv-x="1014" 
d="M327 1444h108q53 0 43 -48l-119 -560q-3 -15 -33 -28h-138q-26 0 -35 31l120 565q9 40 54 40zM133 620h139q25 0 34 -31l-120 -569q-9 -40 -54 -40h-108q-54 0 -43 48l120 564q3 15 32 28z" />
    <glyph glyph-name="AE" unicode="&#xc6;" horiz-adv-x="917" 
d="M535 1452h404q54 0 44 -48q-4 -18 -49 -45l-1 -2v-1q-1 -4 3 -14q-9 -13 -9 -12q-66 -1083 -72 -1255q8 -15 46 -15l-1 -42l-1 -6q-3 -15 -33 -28h-342q-26 0 -35 31l4 21q4 18 52 34l10 13q19 124 19 125h18q-16 -10 -117 -24q-68 9 -120 24q12 0 -27 -136q-2 -8 41 -16
l-1 -38l-1 -6q-3 -15 -33 -28h-322q-26 0 -35 31l6 28q54 31 56 38q76 186 469 1267l4 20q0 -1 -34 25l5 23q7 36 52 36zM691 1160q-7 -15 -234 -709q10 -7 60 -7h24q38 0 53 13l65 703h32zM1487 1461q0 -191 -6 -304q-36 -9 -38 -18q-43 0 -72 60q-6 6 -14 10l-43 -4h-180
l-12 2l5 7l-64 -303h158q72 3 82 52l29 17h28q26 0 35 -31l-69 -323q-3 -15 -32 -28h-27q-30 0 -38 60q-9 9 -35 9h-179l-93 -437h203q46 0 101 70q56 0 72 -37q-92 -240 -123 -296q-48 19 -78 19h-548q-26 0 -35 31l5 22q4 17 57 36q19 22 23 41l259 1219q7 32 -43 46
l-6 24l5 20q3 15 32 28h549q59 8 92 8z" />
    <glyph glyph-name="multiply" unicode="&#xd7;" horiz-adv-x="1014" 
d="M356 1142l165 -203q-17 0 217 192q29 0 136 -143l-242 -202q2 6 153 -187l-3 -12q-2 -10 -155 -132h-27l-156 192q17 0 -217 -192h-14q-19 0 -118 132l4 17l234 196l-2 -9l-151 196q4 18 176 155z" />
    <glyph glyph-name="divide" unicode="&#xf7;" horiz-adv-x="1014" 
d="M502 1075h158q26 0 35 -31l-19 -89q-3 -15 -32 -28h-159q-26 0 -35 31l19 89q3 15 33 28zM219 879h648q53 0 43 -48l-27 -128q-9 -40 -54 -40h-648q-53 0 -43 48l27 128q8 40 54 40zM404 615h146q54 0 44 -48l-15 -72q-4 -15 -33 -28h-158q-26 0 -35 31l18 89q4 15 33 28
z" />
    <glyph glyph-name="tilde" unicode="&#x2dc;" horiz-adv-x="1024" 
d="M420 941q89 0 267 -92h13q46 0 83 82l22 10h95q26 0 35 -31q-28 -131 -170 -241q-65 -32 -109 -32q-78 0 -264 87q-8 5 -17 5h-20q-35 0 -69 -78l-23 -10h-95q-36 0 -33 38q31 145 191 239q48 23 94 23z" />
    <glyph glyph-name="quoteleft" unicode="&#x2018;" horiz-adv-x="346" 
d="M399 1448h160l28 -22q-108 -362 -132 -362l-25 -4h-50q-62 0 -40 102q30 257 34 275z" />
    <glyph glyph-name="quoteright" unicode="&#x2019;" horiz-adv-x="346" 
d="M399 1448h160l28 -22q-108 -362 -132 -362l-25 -4h-50q-62 0 -40 102q30 257 34 275z" />
    <glyph glyph-name="quotesinglbase" unicode="&#x201a;" horiz-adv-x="346" 
d="M232 262q136 0 124 -162q-39 -180 -275 -278h-14q-31 0 -49 78q138 63 146 102l-3 -14q-122 8 -94 138q51 132 140 132q0 4 25 4z" />
    <glyph glyph-name="quotedblleft" unicode="&#x201c;" horiz-adv-x="555" 
d="M389 1449h161l28 -22q-109 -362 -133 -362l-25 -4h-50q-62 0 -40 102q31 257 34 275zM625 1449h161l28 -22q-109 -362 -133 -362l-25 -4h-50q-62 0 -40 102q31 257 34 275z" />
    <glyph glyph-name="quotedblright" unicode="&#x201d;" horiz-adv-x="555" 
d="M389 1449h161l28 -22q-109 -362 -133 -362l-25 -4h-50q-62 0 -40 102q31 257 34 275zM625 1449h161l28 -22q-109 -362 -133 -362l-25 -4h-50q-62 0 -40 102q31 257 34 275z" />
    <glyph glyph-name="quotedblbase" unicode="&#x201e;" horiz-adv-x="555" 
d="M159 367h161l28 -22q-109 -362 -133 -362l-25 -4h-50q-62 0 -40 102q31 257 34 275zM395 367h161l28 -22q-109 -362 -133 -362l-25 -4h-50q-62 0 -40 102q31 257 34 275z" />
    <glyph glyph-name="bullet" unicode="&#x2022;" horiz-adv-x="1024" 
d="M441 967q178 0 209 -190q1 -33 -5 -62q-35 -166 -234 -235q-37 -9 -67 -9q-178 0 -208 190q-2 33 4 62q36 166 235 235q37 9 66 9z" />
    <glyph glyph-name="ellipsis" unicode="&#x2026;" horiz-adv-x="309" 
d="M205 252q118 0 116 -142q-19 -87 -148 -130h-17q-91 0 -113 110q-1 19 2 35q60 127 160 127zM-134 252q118 0 116 -142q-19 -87 -148 -130h-17q-91 0 -113 110q-1 19 2 35q60 127 160 127zM523 252q118 0 116 -142q-19 -87 -148 -130h-17q-91 0 -113 110q-1 19 2 35
q60 127 160 127z" />
  </font>
</defs>
</svg>
