<?xml version="1.0" standalone="no"?>
<!DOCTYPE svg PUBLIC "-//W3C//DTD SVG 1.1//EN" "http://www.w3.org/Graphics/SVG/1.1/DTD/svg11.dtd" >
<svg xmlns="http://www.w3.org/2000/svg" xmlns:xlink="http://www.w3.org/1999/xlink" version="1.1">
<metadata>
Created by FontForge 20170731 at Sun Dec  6 16:36:58 2015
 By Aleksey,,,
Attribution-ShareAlike 4.0 International
</metadata>
<defs>
<font id="NodestoCapsCondensed" horiz-adv-x="851" >
  <font-face 
    font-family="Nodesto Caps Condensed"
    font-weight="400"
    font-style="italic"
    font-variant="small-caps"
    font-stretch="condensed"
    units-per-em="2048"
    panose-1="2 0 5 0 0 0 0 9 0 0"
    ascent="1638"
    descent="-410"
    x-height="1016"
    cap-height="1433"
    bbox="-295 -158 1375 1441"
    underline-thickness="150"
    underline-position="-442"
    slope="-12"
    unicode-range="U+001D-2026"
  />
<missing-glyph horiz-adv-x="1024" 
d="M100 0v1434h824v-1434h-824zM150 50h724v1334h-724v-1334zM325 1148q31 28 58 43q53 30 112 30q92 0 148 -47.5t56 -127.5q0 -49 -23 -98.5t-87 -129.5q-63 -80 -99 -132t-36 -99q0 -38 24 -133h-32q-35 97 -35 148q0 76 81.5 218t81.5 217q0 57 -33 90t-91 33
q-38 0 -69 -17q-26 -15 -56 -40v45zM389 334l57 58q11 10 20 10q10 0 22 -11l56 -60q9 -11 9 -20q0 -11 -10 -22l-56 -62q-14 -14 -21 -14q-11 0 -20 10l-61 71q-7 9 -7 18q0 10 11 22z" />
    <glyph glyph-name=".notdef" horiz-adv-x="1024" 
d="M100 0v1434h824v-1434h-824zM150 50h724v1334h-724v-1334zM325 1148q31 28 58 43q53 30 112 30q92 0 148 -47.5t56 -127.5q0 -49 -23 -98.5t-87 -129.5q-63 -80 -99 -132t-36 -99q0 -38 24 -133h-32q-35 97 -35 148q0 76 81.5 218t81.5 217q0 57 -33 90t-91 33
q-38 0 -69 -17q-26 -15 -56 -40v45zM389 334l57 58q11 10 20 10q10 0 22 -11l56 -60q9 -11 9 -20q0 -11 -10 -22l-56 -62q-14 -14 -21 -14q-11 0 -20 10l-61 71q-7 9 -7 18q0 10 11 22z" />
    <glyph glyph-name=".null" horiz-adv-x="0" 
 />
    <glyph glyph-name=".null" horiz-adv-x="0" 
 />
    <glyph glyph-name="nonmarkingreturn" horiz-adv-x="508" 
 />
    <glyph glyph-name="space" unicode=" " horiz-adv-x="508" 
 />
    <glyph glyph-name="space" unicode="&#xa0;" horiz-adv-x="508" 
 />
    <glyph glyph-name="exclam" unicode="!" horiz-adv-x="497" 
d="M108 1416h280q28 0 28 -24q-40 -39 -40 -60q-4 -96 -12 -192h4l-4 -8q-12 -276 -36 -652q0 -4 4 -4q0 -68 -24 -68h-116q-28 0 -28 44q0 4 4 4q-36 706 -52 900q-4 0 -32 32v4q0 24 24 24zM252 232q92 0 116 -120q0 -75 -104 -112h-12q-70 0 -108 92q-4 16 -4 28
q29 112 112 112z" />
    <glyph glyph-name="quotedbl" unicode="&#x22;" horiz-adv-x="555" 
d="M92 1429h144l12 -8q-29 -336 -36 -336l-24 -4h-48q-32 0 -32 80q-24 257 -24 264zM328 1429h144l12 -8q-29 -336 -36 -336l-24 -4h-48q-32 0 -32 80q-24 257 -24 264z" />
    <glyph glyph-name="numbersign" unicode="#" horiz-adv-x="975" 
d="M407 1424h132l12 -8l-88 -408h148q84 392 92 412l20 4h124q20 -1 20 -8l-80 -408h124l20 -4q-26 -144 -44 -144h-132q-12 -49 -64 -312h124l20 -4q-21 -140 -40 -140h-128q-10 0 -88 -396q-13 -8 -24 -8h-128l-20 4q76 383 76 400h-136q-12 0 -72 -320q-15 -84 -36 -84
h-124q-14 0 -24 12q80 363 80 392h-124l-20 4v4q24 136 40 136h136q52 238 68 300q-4 8 -4 12h-136q-20 0 -20 8q31 140 44 140h144q80 386 88 412zM435 860l-64 -312h144q16 57 64 304v8h-144z" />
    <glyph glyph-name="dollar" unicode="$" horiz-adv-x="732" 
d="M331 1420h64q6 0 12 -12v-96q122 -20 136 -20q20 0 48 8q15 -41 40 -244q-6 0 -32 -8q-44 76 -148 76h-20q-84 0 -96 -68v-40q0 -51 172 -232q168 -190 168 -360q0 -239 -232 -312q-32 -2 -32 -12v-76q0 -24 -24 -24h-56q-6 0 -12 12v84q0 10 -104 24h-84q-8 0 -28 176
q-3 0 -12 72q6 20 40 20q35 -100 140 -100h68q104 28 104 104v32q0 115 -204 324q-144 163 -144 272v20q0 191 192 260q32 8 32 16v92q0 6 12 12z" />
    <glyph glyph-name="percent" unicode="%" horiz-adv-x="1279" 
d="M810 1424h120q8 0 8 -12q-280 -900 -444 -1408l-20 -4h-116q-8 0 -8 8q304 993 444 1412q7 4 16 4zM318 1416q172 0 240 -192q20 -72 20 -148v-12q0 -269 -176 -344q-43 -12 -72 -12h-28q-196 0 -236 284q-4 16 -8 88q0 222 140 304q58 32 120 32zM238 1104v-56
q0 -200 68 -200h24q68 0 68 168v104q0 156 -76 156h-8q-76 0 -76 -172zM962 708h24q163 0 228 -192q20 -65 20 -128v-28q0 -289 -196 -352q-32 -8 -68 -8q-166 0 -228 188q-12 39 -24 144v72q18 149 56 200q75 104 188 104zM894 420v-100q0 -180 72 -180h12q80 0 80 228
q0 200 -76 200h-16q-72 0 -72 -148z" />
    <glyph glyph-name="ampersand" unicode="&#x26;" horiz-adv-x="1036" 
d="M788 1428q18 0 44 -164q8 0 20 -96l-8 -4h-32q-21 64 -72 64h-224v-4q0 -10 184 -552h12q40 123 120 164q48 16 60 16h20q112 -28 112 -164q0 -92 -36 -92q-8 0 -28 32l-28 4h-8q-76 0 -144 -184q130 -379 156 -384q0 -12 48 -20l4 -8v-4q0 -24 -24 -24h-240
q-34 0 -44 44q-20 68 -32 68q-102 -120 -240 -120h-16q-198 0 -276 236q-24 96 -24 188v16q0 289 264 512v4q-28 72 -160 464l8 4h508q32 0 76 4zM336 488v-92q0 -188 120 -188q70 0 128 96q-113 335 -148 416q-100 -78 -100 -232z" />
    <glyph glyph-name="quotesingle" unicode="'" horiz-adv-x="346" 
d="M102 1428h144l12 -8q-29 -336 -36 -336l-24 -4h-48q-32 0 -32 80q-24 257 -24 264z" />
    <glyph glyph-name="parenleft" unicode="(" horiz-adv-x="530" 
d="M511 1424l4 -8v-52q0 -16 -76 -96q-120 -203 -120 -556q0 -464 196 -644v-56q0 -6 -12 -12q-385 167 -396 696v20q5 532 400 708h4z" />
    <glyph glyph-name="parenright" unicode=")" horiz-adv-x="547" 
d="M64 1424q395 -176 400 -708v-20q0 -492 -372 -688q-16 -8 -28 -8l-8 12v44q0 14 76 100q120 196 120 556q0 463 -196 640v64q1 8 8 8z" />
    <glyph glyph-name="asterisk" unicode="*" horiz-adv-x="527" 
d="M208 1430h136l12 -8q-36 -162 -36 -172h12q146 80 164 80q36 -126 36 -156q0 -4 -180 -12v-4q0 -8 132 -136q-116 -88 -132 -88q-61 147 -76 164h-8q-60 -149 -76 -164h-4q-124 83 -124 88q128 122 128 136h-4q-172 18 -172 24l40 148h4q6 0 160 -80q0 4 4 4
q-12 93 -28 168z" />
    <glyph glyph-name="plus" unicode="+" horiz-adv-x="721" 
d="M288 1128h152q6 0 12 -12v-272h236q24 0 24 -24v-124q0 -24 -24 -24h-236v-272q0 -6 -12 -12h-152q-6 0 -12 12v272h-236q-24 0 -24 24v124q0 24 24 24h236v272q0 6 12 12z" />
    <glyph glyph-name="comma" unicode="," horiz-adv-x="346" 
d="M181 242q109 0 128 -140q0 -169 -200 -260h-8q-11 0 -32 48q120 60 120 108v8q-124 8 -124 116q21 116 112 116q0 4 4 4z" />
    <glyph glyph-name="hyphen" unicode="-" horiz-adv-x="509" 
d="M72 216h368q28 0 28 -28v-160q0 -28 -28 -28h-368q-28 0 -28 28v160q0 28 28 28z" />
    <glyph glyph-name="hyphen" unicode="&#xad;" horiz-adv-x="509" 
d="M72 216h368q28 0 28 -28v-160q0 -28 -28 -28h-368q-28 0 -28 28v160q0 28 28 28z" />
    <glyph glyph-name="period" unicode="." horiz-adv-x="309" 
d="M156 232q92 0 116 -120q0 -75 -104 -112h-12q-70 0 -108 92q-4 16 -4 28q29 112 112 112z" />
    <glyph glyph-name="slash" unicode="/" horiz-adv-x="531" 
d="M403 1424h124q8 -1 8 -8q-52 -228 -348 -1412l-20 -4h-108l-12 8l348 1412z" />
    <glyph glyph-name="zero" unicode="0" 
d="M428 1424h20q263 0 328 -432q16 -176 16 -252q0 -88 -8 -164h4q-28 -294 -76 -376q-81 -200 -276 -200q-232 0 -308 344q-28 220 -28 224t4 4q-8 76 -8 164q0 566 240 668q54 20 92 20zM332 768v-68q0 -448 68 -488q20 -12 32 -12h24q96 0 96 440v188q0 400 -108 400h-12
q-100 0 -100 -460z" />
    <glyph glyph-name="one" unicode="1" 
d="M508 1428h92l12 -8q-8 -39 -8 -108v-1208q0 -53 64 -72v-20q0 -6 -12 -12h-340q-6 0 -12 12v4q0 21 40 32q24 23 24 52v968q-4 0 -12 4l-200 -28l-8 12v116q0 32 72 32q188 66 248 196q10 28 40 28z" />
    <glyph glyph-name="two" unicode="2" 
d="M410 1424q251 0 320 -220q16 -86 16 -108v-20q0 -246 -236 -524q-146 -202 -152 -340h268q71 0 100 76h8q32 0 32 -16q-53 -272 -64 -272q-40 0 -40 8q-40 -4 -60 -4h-488q-24 0 -24 20q0 346 344 804q68 119 68 248q0 122 -132 144h-44q-101 0 -144 -96h-12q-17 0 -32 8
l44 276q40 -4 60 -4q130 20 168 20z" />
    <glyph glyph-name="three" unicode="3" 
d="M392 1428q170 0 280 -184q40 -94 40 -172q0 -193 -168 -316q192 -95 192 -336q0 -260 -228 -396q-73 -24 -124 -24q-46 0 -212 20h-4l-48 -4l-44 256q10 7 32 12q9 0 44 -48q55 -44 152 -44q200 0 200 232q0 171 -116 224q-31 12 -56 12h-48q-24 0 -24 32v124q0 6 12 12
h52q160 0 160 216q0 188 -168 188q-126 0 -176 -92q-25 0 -40 16q12 58 44 256h4q36 -8 48 -8q141 24 196 24z" />
    <glyph glyph-name="four" unicode="4" 
d="M405 1428h252l20 -4q-16 -94 -16 -156v-816h4q20 0 60 -4l72 12q0 -4 4 -4q-38 -204 -52 -204h-80q-8 -1 -8 -8v-108q0 -100 52 -100l4 -8v-16q0 -6 -12 -12h-316q-6 0 -12 12v16q35 23 44 36q8 28 8 48v140h-320q-31 0 -52 100q-6 0 -12 36l320 992q12 48 40 48z
M417 1068q-180 -608 -180 -616h160l28 -4l4 8v612h-12z" />
    <glyph glyph-name="five" unicode="5" 
d="M673 1424q8 -27 52 -252q-6 -20 -40 -20q-19 64 -96 64h-176q-24 -158 -24 -280q50 12 88 12h24q199 0 260 -316q12 -50 12 -100v-92q0 -142 -92 -308q-107 -132 -208 -132h-64q-30 0 -164 36h-36l-28 -4q-8 21 -48 272q14 12 48 12q41 -116 180 -116h20q94 0 128 100
q28 51 28 212q-10 194 -88 224q-26 12 -36 12l-8 -4q-7 4 -16 4q-40 0 -88 -60q-8 0 -156 32q0 23 16 168h-4q8 30 52 520l12 8h336q62 0 116 8z" />
    <glyph glyph-name="six" unicode="6" 
d="M504 1424h4q36 0 136 -32q22 4 36 4h12q12 -43 40 -252q0 -4 -40 -4q-42 96 -144 96h-28q-93 0 -132 -120q-19 -39 -32 -232q4 0 4 -4q86 56 152 56h8q183 0 252 -196q36 -118 36 -228v-68q0 -207 -116 -352q-93 -92 -196 -92h-40q-262 0 -316 392q-16 166 -16 284
q0 573 216 704q70 44 164 44zM364 560q0 -364 104 -364h8q104 0 104 276q0 260 -100 260h-12q-104 -12 -104 -68v-104z" />
    <glyph glyph-name="seven" unicode="7" 
d="M139 1424q64 -8 128 -8h488q33 0 52 -68q-328 -548 -328 -1272q0 -24 56 -44v-20q0 -6 -12 -12h-296l-12 8l4 8v8q0 12 -4 12q36 354 88 584q114 410 228 580q4 0 4 4v8h-328q-80 -16 -80 -60h-28l-12 8z" />
    <glyph glyph-name="eight" unicode="8" 
d="M432 1424h12q194 0 284 -212q20 -44 28 -140q0 -207 -152 -332q168 -101 168 -332q0 -290 -224 -392q-58 -16 -100 -16h-20q-255 0 -320 328q-4 53 -4 88q0 225 168 324q-152 123 -152 336q0 254 240 340q40 8 72 8zM332 1016q0 -151 104 -176h4q91 0 108 184v16
q0 151 -68 188q-15 8 -32 8h-20q-82 0 -96 -156v-64zM324 412q0 -228 120 -228q108 0 108 236q0 176 -84 208q-7 4 -20 4h-20q-104 0 -104 -220z" />
    <glyph glyph-name="nine" unicode="9" 
d="M428 1428q212 0 288 -228q56 -172 56 -416v-68q0 -716 -384 -716q-24 0 -140 36q-39 -8 -44 -8q-36 179 -36 256q0 4 40 4q45 -96 148 -96h16q164 0 164 316v32q-86 -44 -100 -44l-52 -8q-202 0 -268 224q-32 104 -32 248q0 170 80 320q96 148 264 148zM316 1016v-128
q0 -196 108 -196q108 16 108 60v184q0 288 -96 288h-24q-96 0 -96 -208z" />
    <glyph glyph-name="colon" unicode=":" horiz-adv-x="362" 
d="M188 1142q86 0 116 -120q0 -80 -108 -116h-8q-73 0 -112 92q-4 16 -4 28q24 112 112 112q0 4 4 4zM188 542q53 0 104 -68q12 -39 12 -52q-34 -116 -116 -116q-53 0 -104 68q-12 31 -12 52q25 112 108 112q0 4 8 4z" />
    <glyph glyph-name="semicolon" unicode=";" horiz-adv-x="378" 
d="M192 1156q86 0 116 -120q0 -80 -108 -116h-8q-73 0 -112 92q-4 16 -4 28q24 112 112 112q0 4 4 4zM184 552h16q93 0 112 -136q0 -144 -172 -240q-13 -8 -24 -8h-4q-10 4 -32 40v4q116 62 116 108v8q-120 0 -120 108v8q28 108 108 108z" />
    <glyph glyph-name="semicolon" unicode="&#x37e;" horiz-adv-x="378" 
d="M192 1156q86 0 116 -120q0 -80 -108 -116h-8q-73 0 -112 92q-4 16 -4 28q24 112 112 112q0 4 4 4zM184 552h16q93 0 112 -136q0 -144 -172 -240q-13 -8 -24 -8h-4q-10 4 -32 40v4q116 62 116 108v8q-120 0 -120 108v8q28 108 108 108z" />
    <glyph glyph-name="less" unicode="&#x3c;" horiz-adv-x="777" 
d="M704 1112q8 -1 8 -8v-172q0 -27 -60 -40q-325 -128 -336 -136q3 -8 252 -100q144 -55 144 -68v-184q0 -8 -8 -8q-550 240 -680 300l-4 20v80q0 30 112 68q506 223 572 248z" />
    <glyph glyph-name="equal" unicode="=" horiz-adv-x="771" 
d="M91 1042h648q6 0 12 -12v-168q0 -6 -12 -12h-648q-6 0 -12 12v168q0 6 12 12zM99 742h640q6 0 12 -12v-156q0 -24 -32 -24h-616q-28 0 -28 28v140q0 24 24 24z" />
    <glyph glyph-name="greater" unicode="&#x3e;" horiz-adv-x="771" 
d="M91 1116q568 -240 680 -300q4 -7 4 -16v-80q0 -30 -88 -56q-41 -24 -600 -264l-4 8v176q0 25 60 40q325 128 336 136q0 5 -248 100q-146 55 -148 64v184q1 8 8 8z" />
    <glyph glyph-name="question" unicode="?" horiz-adv-x="629" 
d="M236 1416h64q176 0 256 -164q24 -62 24 -120q0 -160 -200 -388q-48 -89 -48 -212v-36q0 -34 56 -52v-16q0 -24 -24 -24h-184q-36 0 -36 44q-8 70 -8 112q20 167 68 260q136 183 136 272v20q0 104 -120 104h-12q-115 0 -152 -80q0 -6 -16 -20q-36 10 -36 20q40 249 48 268
q4 0 4 4q16 -8 44 -8h16q93 16 120 16zM276 232q92 0 116 -120q0 -75 -104 -112h-12q-70 0 -108 92q-4 16 -4 28q29 112 112 112z" />
    <glyph glyph-name="at" unicode="@" horiz-adv-x="1457" 
d="M751 1420q370 0 548 -320q76 -161 76 -324v-32q0 -308 -224 -416q-49 -12 -104 -20q-133 0 -212 76h-8q-61 -64 -132 -64h-32q-116 0 -160 120q-12 58 -12 72q0 201 292 320l4 8v4q0 84 -48 84q0 8 -48 8q-78 0 -116 -68h-4q-12 0 -24 12q24 187 28 200q34 -4 52 -4
q91 16 120 16h24q143 0 196 -148q12 -51 12 -96v-356q0 -35 52 -40h48q136 31 136 256v48q0 367 -268 492q-98 36 -208 36q-327 0 -460 -360q-20 -59 -32 -216q0 -433 344 -552q61 -20 144 -20h12q109 0 256 64h8l56 -124q-149 -76 -324 -76q-492 0 -632 488
q-24 102 -24 212v12q0 402 332 620q152 88 332 88zM679 552v-4q9 -64 48 -64h12q48 0 48 72v128q-108 -37 -108 -132z" />
    <glyph glyph-name="A" unicode="A" horiz-adv-x="917" 
d="M256 1428h404q24 0 24 -24q0 -11 -36 -36l-4 -8v-4q0 -9 4 -16q-4 -8 -4 -12q164 -1084 196 -1260q23 -32 52 -32l4 -20v-4q0 -6 -12 -12h-336q-6 0 -12 12v16q0 8 44 24q0 7 8 20q-8 131 -16 152h-12q-15 -11 -104 -24q-63 8 -120 24q-12 0 -24 -152q0 -27 48 -36l4 -20
v-4q0 -6 -12 -12h-316q-6 0 -12 12v16q48 31 48 44q36 185 200 1268v20q0 10 -40 36v12q0 20 24 20zM448 1176q-8 -29 -88 -736q33 -20 92 -20h24q48 0 72 24l-88 732h-12z" />
    <glyph glyph-name="B" unicode="B" horiz-adv-x="919" 
d="M183 1428h296q86 0 212 -76q112 -107 112 -268q0 -193 -148 -296v-4q196 -103 196 -368q0 -302 -280 -392q-89 -24 -172 -24h-60q-264 0 -264 16q-4 7 -4 16v8q1 9 40 20q24 26 24 44v1216q-8 64 -60 64l-4 8v16q0 6 12 12h4q6 0 96 8zM383 1228v-356h44q116 25 116 152
q4 14 4 40q0 142 -100 164h-64zM383 664v-460h68q87 0 124 96q20 49 20 104v80q0 124 -104 176q-44 8 -64 8q-27 -4 -44 -4z" />
    <glyph glyph-name="C" unicode="C" horiz-adv-x="784" 
d="M503 1424q37 0 120 -12h36l40 4l44 -256q-21 -16 -44 -16q-27 80 -144 80h-8q-156 0 -200 -324l-8 -52l4 -8q-4 -8 -8 -36q4 -77 4 -100q0 -19 -4 -92q19 -252 56 -312q51 -112 160 -112h12q110 0 136 84q1 8 8 8q6 0 36 -8q-40 -272 -52 -272q-4 0 -4 4q-101 -4 -148 -4
h-104q-135 0 -252 196q-100 211 -100 512v4q9 564 304 692q75 20 116 20z" />
    <glyph glyph-name="D" unicode="D" horiz-adv-x="947" 
d="M155 1428h332q126 -11 228 -100q160 -162 160 -560v-20q0 -562 -252 -696q-115 -52 -228 -52q-34 4 -56 4h-12q-256 0 -256 24v4q0 25 48 32q16 20 24 48l-4 48v1164q0 46 -64 64l-4 16q0 24 84 24zM387 1228v-1012q1 -8 8 -8h32q192 0 192 452v172q0 396 -172 396h-60z
" />
    <glyph glyph-name="E" unicode="E" horiz-adv-x="819" 
d="M691 1429q36 -169 52 -266q-32 -9 -32 -12q-5 0 -40 49q-14 12 -36 20l-48 -4h-176l-28 4l-4 -8v-326h188q92 4 92 60l12 8h20q6 0 12 -12v-314q0 -6 -12 -12h-20q-8 0 -24 48q-27 20 -64 20h-200v-471h232q60 0 100 69q25 0 36 -16q-40 -230 -52 -266q-32 12 -68 12
h-548q-6 0 -12 12v16q0 7 44 24q20 31 20 53v1203q0 50 -60 65l-4 8v16q0 6 12 12h544q58 8 64 8z" />
    <glyph glyph-name="F" unicode="F" horiz-adv-x="768" 
d="M691 1433q11 0 60 -266q-17 -12 -40 -12q-30 65 -84 65h-244v-359h224q53 0 76 69q7 4 16 4q16 -4 16 -24v-310q0 -6 -12 -12h-4q-28 0 -28 40q-25 28 -56 28h-228v-555q0 -55 68 -65v-32l-20 -4h-352q-6 0 -12 12v16l40 28q15 0 28 53l-4 48v1111q0 17 4 44q0 57 -64 77
l-4 8v4q0 24 24 24h532q58 8 64 8z" />
    <glyph glyph-name="G" unicode="G" horiz-adv-x="893" 
d="M515 1433q121 -12 140 -12l36 4q8 -13 40 -258q-32 -9 -32 -12q-8 0 -44 53q-41 24 -88 24h-28q-208 0 -208 -507q0 -411 100 -496q36 -28 92 -28h16l20 4v439q0 45 -60 64q-4 7 -4 17v4q0 5 12 12h352q6 0 12 -12v-17q0 -5 -52 -32q-12 -26 -12 -40v-463q0 -35 20 -92
q-149 -85 -344 -85q-248 0 -352 326q-48 182 -48 395v16q0 444 220 624q104 72 212 72z" />
    <glyph glyph-name="H" unicode="H" horiz-adv-x="1023" 
d="M83 1433h352l20 -4v-12q0 -22 -44 -36q-24 -27 -24 -81v-402q1 -8 8 -8h228v434q0 56 -64 77q-4 7 -4 16v4q0 6 12 12h360q6 0 12 -12v-16q-68 -32 -68 -65l4 -48v-1143q0 -17 -4 -44q15 -69 64 -69l4 -8v-16q0 -6 -12 -12h-360q-6 0 -12 12v16q0 10 32 16q36 27 36 65
v575h-228q-8 -1 -8 -8v-547q0 -80 64 -93h4v-32l-20 -4h-352q-6 0 -12 12v16l48 32l20 37q-4 40 -4 60v1175q0 48 -60 69q-4 0 -4 4v16q0 6 12 12z" />
    <glyph glyph-name="I" unicode="I" horiz-adv-x="543" 
d="M103 1433h344q6 0 12 -12v-20q-50 -24 -56 -36q-8 -28 -12 -28l4 -40v-1197q11 -64 60 -64l4 -8v-16q0 -6 -12 -12h-364q-6 0 -12 12v4q0 25 40 32q32 25 32 88v1169q0 68 -48 88q-24 0 -24 20t32 20z" />
    <glyph glyph-name="J" unicode="J" horiz-adv-x="698" 
d="M288 1424h356q6 0 12 -12v-16q-60 -39 -60 -52l-4 -24v-1036q0 -51 20 -76v-4q-55 -118 -220 -184q-60 -20 -108 -20h-20q-153 0 -276 84v4q12 42 88 224h4q36 0 36 -36q0 -63 100 -72q3 0 24 -4q89 0 104 112v1004q0 53 -64 72l-4 8v16q0 6 12 12z" />
    <glyph glyph-name="K" unicode="K" horiz-adv-x="988" 
d="M83 1433h348q24 0 24 -24v-4q-64 -42 -64 -64q-4 -21 -4 -40v-446h4q10 2 144 329q64 137 64 161v20q0 16 -52 32q-4 7 -4 16q0 20 24 20h336q24 0 24 -24q0 -17 -48 -28q-23 -12 -196 -394q-36 -65 -36 -80q0 -105 212 -799q31 -72 84 -72l4 -8v-16q0 -6 -12 -12h-304
q-16 0 -84 269q-60 244 -88 385l-8 4q-64 -105 -64 -116v-402q0 -104 64 -104l4 -8v-16q0 -6 -12 -12h-360q-6 0 -12 12v16l48 32q16 18 16 36v1233q0 51 -64 68v24q0 6 12 12z" />
    <glyph glyph-name="L" unicode="L" horiz-adv-x="770" 
d="M83 1433h348q24 0 24 -24v-4q0 -7 -52 -33q-20 -27 -20 -52v-1102h260q49 0 92 69q32 -3 32 -13q-47 -274 -60 -274q-40 0 -40 8q-60 -4 -88 -4h-496q-6 0 -12 12v20l48 33q16 13 16 40v1223q0 48 -60 65l-4 8v16q0 6 12 12z" />
    <glyph glyph-name="M" unicode="M" horiz-adv-x="1223" 
d="M83 1433h312q15 0 24 -12l-4 -8v-20q0 -68 104 -341q72 -229 92 -261q16 15 120 365q64 171 64 237v16q0 24 24 24h296q24 0 24 -24q0 -15 -48 -36q-20 -33 -20 -52v-1213q0 -54 64 -72l4 -8v-16q0 -6 -12 -12h-360q-6 0 -12 12v16l48 32q16 21 16 44v747q-9 0 -164 -494
q-12 -52 -36 -52h-36q-33 0 -52 104q-8 8 -148 442h-8v-747q0 -54 56 -64q12 -4 12 -24v-4q0 -6 -12 -12h-348q-6 0 -12 12v16l48 32q10 9 20 40l-4 49v1139q0 17 4 45q0 43 -68 64v24q0 6 12 12z" />
    <glyph glyph-name="N" unicode="N" horiz-adv-x="999" 
d="M83 1433h280q24 0 24 -44q19 -78 156 -388q58 -140 68 -149h4v484q0 38 -68 65v8q0 24 24 24h320q24 0 24 -24q0 -14 -48 -37q-20 -27 -20 -48v-1223q0 -47 48 -69q4 0 4 -4v-16q0 -6 -12 -12h-252l-20 4v359q-226 525 -240 533h-4v-799q0 -40 64 -65q4 -7 4 -16v-4
q0 -6 -12 -12h-344q-6 0 -12 12v16l48 33q16 13 16 40v1227q0 47 -64 73v20q0 6 12 12z" />
    <glyph glyph-name="O" unicode="O" horiz-adv-x="887" 
d="M455 1433q229 0 320 -293q44 -175 44 -353v-89q0 -698 -368 -698t-368 751q0 555 260 662q56 20 112 20zM327 863q0 -8 4 -8q-4 -40 -4 -60v-109q0 -23 4 -64q-4 -8 -4 -12q16 -280 44 -337q31 -72 68 -72h32q86 0 104 353q0 4 -4 4q0 3 4 24q0 49 4 165q-4 97 -4 148
l-4 8l4 8q-15 208 -44 273q-29 44 -64 56h-12q-101 0 -120 -265q0 -36 -8 -112z" />
    <glyph glyph-name="P" unicode="P" horiz-adv-x="854" 
d="M315 1433h56q319 0 408 -302q24 -88 24 -193q0 -343 -216 -451q-94 -32 -160 -32h-36l-8 -4l4 -28v-274q0 -17 -4 -44q14 -69 68 -69l4 -8v-16q0 -6 -12 -12h-360q-6 0 -12 12v16l40 28q15 0 28 53l-4 48v1091q0 22 4 56q-10 81 -64 81l-4 8v8q0 24 20 24q154 8 224 8z
M387 1228q0 -8 -4 -8l4 -20v-500l-4 -40l8 -4h24q136 0 136 246v76q0 205 -108 246q-7 4 -20 4h-36z" />
    <glyph glyph-name="Q" unicode="Q" horiz-adv-x="907" 
d="M455 1433q282 0 348 -444q16 -68 16 -230v-40q0 -407 -120 -569q21 -49 52 -49h4q33 0 56 41h4q20 0 24 -16q0 -84 -64 -162q-27 -20 -64 -20h-20q-61 0 -132 81q-49 -16 -84 -16h-44q-242 0 -320 399q-20 98 -28 343q0 534 252 658q56 24 120 24zM327 836q4 -28 4 -45
v-113q0 -19 -4 -40q16 -325 48 -371q24 -69 72 -69h24q85 0 104 335q0 4 -4 4q0 8 4 8q4 123 4 182q0 419 -72 492q-27 20 -48 20h-8q-97 0 -116 -278q-4 -125 -8 -125z" />
    <glyph glyph-name="R" unicode="R" horiz-adv-x="971" 
d="M443 1433q291 0 396 -214q40 -107 40 -209q0 -281 -164 -365v-4q40 -221 116 -497q29 -105 88 -105l8 -12v-15q0 -6 -12 -12h-292q-36 6 -36 78q-64 244 -84 493v4h-108v-458q0 -65 64 -82q4 -7 4 -16v-7q0 -6 -12 -12h-368q-6 0 -12 12v4q0 19 48 38q24 23 24 74v1165
q0 86 -64 86l-8 11v4q0 23 44 23q85 12 328 16zM395 1219v-442q1 -8 8 -8l40 4l28 -4q78 0 128 105q16 64 16 85v82q-22 182 -140 182q0 4 -36 4h-36q-8 -1 -8 -8z" />
    <glyph glyph-name="S" unicode="S" horiz-adv-x="763" 
d="M411 1433q15 0 164 -24q50 8 56 8l44 -251q-14 -12 -48 -12q-40 83 -184 83q-106 0 -120 -126v-8q0 -93 96 -196q276 -310 276 -495v-35q0 -265 -216 -353q-76 -24 -136 -24q-27 0 -176 24q-6 0 -56 -4q-16 89 -40 290q30 12 44 12q28 -122 180 -122h20q102 0 136 110
q4 26 4 51q0 156 -176 334q-204 228 -204 408q0 199 164 295q81 35 172 35z" />
    <glyph glyph-name="T" unicode="T" horiz-adv-x="769" 
d="M76 1429q47 -12 136 -12h444q76 0 128 12l52 -265l-28 -11q-8 0 -44 50q-36 12 -60 12h-148v-1110q0 -51 60 -70q8 0 8 -19v-4q0 -6 -12 -12h-372q-6 0 -12 12v4q0 23 52 39q20 29 20 50v1079l4 27q-8 0 -8 8l-28 -4h-120q-72 0 -88 -59q-8 0 -8 -3q-25 7 -32 7v20
q44 249 52 249h4z" />
    <glyph glyph-name="U" unicode="U" horiz-adv-x="1023" 
d="M83 1433h360q6 0 12 -12v-11q0 -5 -52 -32q-16 -25 -16 -58v-984q0 -93 60 -121q26 -8 36 -8h52q100 20 100 98v1030q0 48 -64 67q-4 7 -4 15q4 16 24 16h336q6 0 12 -12v-15q-68 -31 -68 -63l4 -47v-956q0 -31 -4 -82l20 -71q-185 -187 -384 -187q-202 0 -380 180
q-4 6 -4 15q12 51 16 51q-4 53 -4 78v961q0 21 4 54q0 42 -68 63v19q0 6 12 12z" />
    <glyph glyph-name="V" unicode="V" horiz-adv-x="894" 
d="M32 1433h352q6 0 12 -12v-15q0 -8 -44 -24l-8 -23q0 -28 124 -1047h16l128 1024v15q0 37 -56 51v19q0 6 12 12h332q6 0 12 -12v-15q-5 -11 -44 -24q-22 -20 -40 -179l-192 -1195l-12 -8h-300q-17 0 -48 230q-172 1013 -196 1137q-14 21 -60 35v19q0 6 12 12z" />
    <glyph glyph-name="W" unicode="W" horiz-adv-x="1248" 
d="M42 1433h352l20 -4v-31q-60 -7 -60 -43l84 -884h8q12 13 76 246q68 225 80 249h92q27 0 36 -63q124 -414 136 -432q8 10 8 16l76 860q0 45 -60 51l-4 8v15q0 6 12 12h356q6 0 12 -12v-15q0 -6 -48 -28q-16 0 -72 -455l-124 -919l-20 -4h-180q-31 0 -40 74l-128 417h-8
q-11 0 -100 -320q-50 -162 -60 -171h-184q-24 0 -24 43l-188 1320q-14 24 -60 39v19q0 6 12 12z" />
    <glyph glyph-name="X" unicode="X" horiz-adv-x="932" 
d="M75 1433h364q6 0 12 -12v-15q-1 -9 -40 -20q-16 -16 -16 -31v-8q84 -352 100 -377q13 0 96 370h-4l4 7q0 51 -52 51l-4 8v15q0 6 12 12h348q6 0 12 -12v-4q0 -22 -48 -35q-27 -20 -152 -405q-84 -228 -84 -241q216 -662 228 -662q0 -19 56 -39q4 -7 4 -16v-7
q0 -6 -12 -12h-376q-6 0 -12 12v4q0 20 48 42q0 3 4 24q-16 91 -96 424h-8q-92 -386 -92 -436q4 -20 52 -39v-27l-20 -4h-344q-6 0 -12 12v7q0 22 44 32q34 25 116 307q112 330 124 386v8l-216 615q-13 15 -60 39v11q4 16 24 16z" />
    <glyph glyph-name="Y" unicode="Y" horiz-adv-x="839" 
d="M21 1433h360l20 -4v-31q-52 -5 -52 -39q12 -72 112 -537h8q28 99 124 533q0 35 -56 43l-4 8v15q0 6 12 12h336q6 0 12 -12v-15q0 -6 -48 -28q-36 -75 -268 -861v-407q0 -54 64 -75q4 -7 4 -15v-8q0 -6 -12 -12h-360l-20 4v27l52 28q16 18 16 55v399q0 34 -248 853
q-19 24 -64 36v19q0 6 12 12z" />
    <glyph glyph-name="Z" unicode="Z" horiz-adv-x="801" 
d="M104 1433h12q39 -8 44 -8h532q24 0 48 -63v-8q-380 -1123 -380 -1134v-8h260q70 0 92 67h4q37 0 44 -20q-47 -259 -56 -259q-45 8 -64 8h-552q-21 0 -40 51v12l400 1150h-252q-67 0 -100 -67q-40 7 -40 16q0 8 48 263z" />
    <glyph glyph-name="bracketleft" unicode="[" horiz-adv-x="758" 
d="M24 1424h284q24 0 24 -24v-44q0 -6 -12 -12h-140v-1256q1 -8 8 -8h132q6 0 12 -12v-56q0 -6 -12 -12h-296q-24 0 -24 24v1376q0 24 24 24z" />
    <glyph glyph-name="backslash" unicode="\" horiz-adv-x="569" 
d="M8 1424h124q14 0 64 -240l292 -1176l-12 -8h-108q-36 0 -36 72q-332 1322 -332 1348z" />
    <glyph glyph-name="bracketright" unicode="]" horiz-adv-x="758" 
d="M24 1424h284q24 0 24 -24v-1376q0 -24 -24 -24h-296q-6 0 -12 12v56q0 6 12 12h132q8 0 8 8v1256h-140q-6 0 -12 12v44q0 24 24 24z" />
    <glyph glyph-name="asciicircum" unicode="^" horiz-adv-x="1014" 
d="M295 1428h112q29 0 64 -104q224 -485 228 -504l-8 -4h-136q-32 0 -68 112q-118 266 -128 300h-12q-156 -385 -172 -408q-7 -4 -16 -4h-140q-8 0 -8 8q228 535 268 600q7 4 16 4z" />
    <glyph glyph-name="underscore" unicode="_" horiz-adv-x="1024" 
d="M16 136h637q8 0 16 -12v-112q0 -6 -16 -12h-637q-8 0 -16 12v112q0 6 16 12z" />
    <glyph glyph-name="grave" unicode="`" horiz-adv-x="1024" 
d="M12 1423h152q28 0 96 -124q36 -44 36 -56l-8 -4h-92q-23 0 -192 176q1 8 8 8z" />
    <glyph glyph-name="a" unicode="a" horiz-adv-x="673" 
d="M196 1025h280q20 0 24 -16q-28 -28 -28 -40v-8q116 -823 144 -921q36 -10 36 -32l-12 -8h-236q-10 0 -12 16q0 8 36 28v4q-4 91 -8 111q-75 -12 -88 -12l-88 12q-12 -67 -12 -115q36 -19 36 -36l-12 -8h-220q-10 0 -12 16q0 4 32 32q80 439 144 921q0 12 -28 40
q4 16 24 16zM264 320q23 -16 60 -16h20q56 4 56 16q-57 524 -68 524q-12 0 -40 -316q-3 -5 -28 -208z" />
    <glyph glyph-name="b" unicode="b" horiz-adv-x="680" 
d="M340 1025q135 0 212 -131q24 -61 24 -119q0 -135 -108 -211q144 -76 144 -266q0 -212 -200 -278q-66 -20 -140 -20h-20q-204 0 -204 20q0 15 36 28q12 14 12 27v875q0 27 -44 47q0 4 -4 4q0 24 92 24h200zM276 882v-254h32q84 15 84 111v52q0 77 -84 91h-32zM276 477
v-330h52q100 16 100 143v52q0 113 -92 135q-22 4 -32 4z" />
    <glyph glyph-name="c" unicode="c" horiz-adv-x="543" 
d="M377 1028q85 -8 100 -8h32q10 0 36 -176q-2 -16 -32 -16q0 45 -96 56h-16q-107 0 -140 -232q-8 -57 -8 -124v-16q0 -376 148 -376h20q68 0 92 52q0 16 8 16q24 -4 24 -12q-8 -72 -32 -188q-86 -4 -128 -4h-52q-157 0 -232 264q-28 107 -28 228v44q12 382 208 472
q55 20 96 20z" />
    <glyph glyph-name="d" unicode="d" horiz-adv-x="692" 
d="M124 1024h216q133 0 224 -147q60 -128 60 -282v-103q-7 -378 -200 -464q-95 -28 -144 -28l-28 4h-52q-152 0 -152 20v4l44 32l4 19v870q0 30 -48 47v12q0 16 76 16zM276 881v-730h32q87 0 116 131q16 103 20 262q0 337 -124 337h-44z" />
    <glyph glyph-name="e" unicode="e" horiz-adv-x="604" 
d="M496 1024q36 -177 36 -192q-13 -8 -24 -8q-28 44 -52 44h-184v-236h148q41 0 60 48h12q6 0 12 -12v-220q0 -12 -16 -12q-10 0 -24 36q-17 16 -40 16h-144q-8 -1 -8 -8v-328h196q40 28 40 44h20q8 0 8 -12q-24 -155 -32 -184l-48 4h-396q-10 0 -12 16q0 8 36 28
q12 15 12 36v856q0 37 -40 52q-8 0 -8 8v4q0 6 12 12h388q20 0 48 8z" />
    <glyph glyph-name="f" unicode="f" horiz-adv-x="553" 
d="M500 1028q36 -172 36 -192q-16 -8 -24 -8q-25 48 -68 48h-172v-256h168q25 0 56 48h4q6 0 12 -12v-220q0 -6 -12 -12h-4q-5 0 -24 36q-15 12 -36 12h-160v-412q6 -21 48 -36q4 -7 4 -16l-12 -8h-256q-10 0 -12 16q0 8 36 28q12 15 12 36v864q0 39 -48 56v8q4 16 24 16
h380z" />
    <glyph glyph-name="g" unicode="g" horiz-adv-x="662" 
d="M393 1024q71 -8 108 -8v4q21 0 36 -175h4q-4 -16 -24 -16h-4q-31 52 -88 52h-32q-104 0 -136 -228q-4 -60 -4 -111v-68q0 -240 68 -307q26 -24 72 -24h4l20 4v315q0 28 -48 48v8q0 6 12 12h248q12 0 12 -16q0 -6 -40 -32q-3 -16 -8 -16l4 -48v-255q0 -16 -4 -43l16 -60
q-115 -60 -248 -60q-219 0 -276 347q-12 93 -12 183q0 348 196 466q58 28 124 28z" />
    <glyph glyph-name="h" unicode="h" horiz-adv-x="744" 
d="M60 1024h256q6 0 12 -12v-4q-44 -29 -44 -36q-8 -15 -8 -44v-287q1 -7 8 -7h160v314q0 39 -48 56v8q0 6 12 12h256q6 0 12 -12v-4l-44 -32l-4 -8v-912q5 -18 44 -36q4 -8 4 -12l-12 -8h-256q-6 0 -12 12v4q44 28 44 40q4 6 4 20v414h-160q-8 -1 -8 -8v-386q5 -72 48 -72
l4 -16l-12 -8h-256q-6 0 -12 12v4q48 31 48 56v872q0 40 -48 60v8q0 6 12 12z" />
    <glyph glyph-name="i" unicode="i" horiz-adv-x="396" 
d="M72 1025h244q6 0 12 -12v-8l-44 -32l-4 -20v-874q0 -37 48 -59v-12l-12 -8h-256q-10 0 -12 16q0 10 36 24q16 18 16 55v835q0 67 -48 67q0 4 -4 12q4 16 24 16z" />
    <glyph glyph-name="j" unicode="j" horiz-adv-x="499" 
d="M213 1024h252q6 0 12 -12v-8q-47 -29 -48 -52v-753q0 -15 16 -56q-100 -143 -240 -143h-12q-117 0 -196 60v4q55 159 72 159q20 0 24 -48q30 -32 68 -32h16q76 0 76 100v685q0 68 -48 68l-4 8v8q0 6 12 12z" />
    <glyph glyph-name="k" unicode="k" horiz-adv-x="724" 
d="M60 1024h244l20 -4v-24q-48 -10 -48 -59v-318q1 -8 8 -8q144 332 144 349v16q-1 9 -40 24v8q4 16 24 16h240q6 0 12 -12v-8l-52 -36q-148 -312 -148 -321q0 -95 164 -595q10 -12 52 -32v-12l-12 -8h-204q-32 3 -32 56q-32 80 -104 412h-4q-48 -65 -48 -83v-290
q0 -67 48 -67v-24l-20 -4h-244q-6 0 -12 12v8q0 5 36 24q12 15 12 35v866q0 39 -48 55v12q0 6 12 12z" />
    <glyph glyph-name="l" unicode="l" horiz-adv-x="589" 
d="M60 1024h252q6 0 12 -12v-8q-43 -27 -52 -48v-796q1 -8 8 -8h172q44 0 76 52h4q16 -6 16 -12q-8 -71 -40 -192q-47 4 -68 4h-380q-6 0 -12 12v4q48 31 48 56v868q0 42 -48 56v12q0 6 12 12z" />
    <glyph glyph-name="m" unicode="m" horiz-adv-x="888" 
d="M60 1024h228l12 -8l-4 -8v-12q0 -46 128 -393q7 -39 16 -39q132 381 132 424v24q0 6 12 12h224q6 0 12 -12v-8q-48 -30 -48 -55v-870q0 -41 48 -55v-12q0 -6 -12 -12h-252q-6 0 -12 12v8q40 26 40 32q3 15 8 15q-4 47 -4 68v464q-11 0 -128 -377l-20 -4h-16q-29 0 -48 88
q-4 4 -100 297h-8v-524q0 -37 48 -59v-12l-12 -8h-244q-6 0 -12 12v8l44 32l4 19v882q0 32 -48 47v12q0 6 12 12z" />
    <glyph glyph-name="n" unicode="n" horiz-adv-x="724" 
d="M60 1024h204q12 0 20 -72q26 -49 148 -340h8v340q0 25 -48 56v4q0 6 12 12h240q6 0 12 -12v-4q-48 -32 -48 -56v-880q0 -31 36 -52v-8q0 -6 -12 -12h-180q-6 0 -12 12v248q-84 204 -172 380h-4v-568q0 -27 48 -52v-12l-12 -8h-240q-10 0 -12 16q0 8 36 28q12 15 12 36
v864q0 39 -48 60v8q0 6 12 12z" />
    <glyph glyph-name="o" unicode="o" horiz-adv-x="673" 
d="M345 1024q192 0 248 -306q12 -122 12 -186q0 -532 -268 -532q-264 0 -264 536q0 488 272 488zM249 611q0 -4 4 -4l-4 -28v-107l4 -24q-4 -7 -4 -11q0 -226 64 -290l20 -4h16q80 0 80 389v8q0 345 -84 345h-12q-58 0 -80 -182q0 -30 -4 -92z" />
    <glyph glyph-name="p" unicode="p" horiz-adv-x="593" 
d="M240 1025h16q233 0 300 -211q20 -90 20 -144q0 -347 -304 -347v-243q0 -44 52 -60v-8q0 -6 -12 -12h-252q-6 0 -12 12v4q48 31 48 56v861q0 42 -44 60q-4 7 -4 16q0 14 192 16zM272 869v-398h40q70 0 80 159v72q0 141 -72 171l-24 4h-16q-8 -1 -8 -8z" />
    <glyph glyph-name="q" unicode="q" horiz-adv-x="622" 
d="M341 1024q138 0 212 -202q24 -91 36 -235q0 -4 -4 -4l4 -50v-12q0 -17 -4 -45q0 -5 4 -5q0 -214 -84 -363v-8q14 -29 40 -29q21 0 32 29h12q6 0 12 -12q-20 -128 -88 -128h-4q-60 0 -100 58h-8q-42 -13 -64 -13h-12q-184 0 -232 297q-12 42 -20 231q0 357 160 466
q59 25 108 25zM245 570v-82q0 -347 84 -347h12q76 0 76 310v156q0 277 -80 277h-12q-80 0 -80 -314z" />
    <glyph glyph-name="r" unicode="r" horiz-adv-x="669" 
d="M308 1025q198 0 272 -147q32 -71 32 -159q0 -190 -108 -254q-4 -8 -4 -12q76 -417 120 -417q28 -13 28 -20v-4q0 -6 -12 -12h-196q-28 0 -36 68q-40 189 -56 345h-72v-334q0 -40 44 -55q4 -7 4 -16l-12 -8h-252q-6 0 -12 12v4q48 32 48 44q4 21 4 35v827q0 63 -44 63
l-8 12q0 28 260 28zM276 870v-318h52q88 0 100 139v56q0 112 -104 131h-40q-8 -1 -8 -8z" />
    <glyph glyph-name="s" unicode="s" horiz-adv-x="548" 
d="M292 1024q15 0 108 -16q30 8 36 8q28 -163 28 -181q-13 -9 -24 -9h-8q0 37 -92 57h-44q-55 0 -72 -69v-36q0 -66 124 -206q132 -157 132 -294v-4q0 -192 -144 -258q-49 -16 -84 -16h-40l-104 16q-3 0 -32 -4q-24 106 -24 210q7 4 16 4h4q38 -85 120 -85h28q92 18 92 93
v60q0 71 -188 287q-76 123 -76 209q0 185 184 234h60z" />
    <glyph glyph-name="t" unicode="t" horiz-adv-x="566" 
d="M36 1024l48 -4h412l40 4q12 -75 36 -184l-12 -8h-12q-29 40 -52 40h-120v-792q0 -41 44 -56q4 -7 4 -16l-12 -8h-252q-10 0 -12 16q0 9 36 24q16 18 16 56v776h-116q-36 0 -60 -44q-20 4 -20 16q24 147 32 180z" />
    <glyph glyph-name="u" unicode="u" horiz-adv-x="674" 
d="M60 1023h232q24 0 24 -20q-48 -17 -48 -56v-728q11 -72 72 -72h24q76 10 76 72v728q0 36 -44 56v16l20 4h224q6 0 12 -12v-4q-44 -28 -44 -52v-768q8 -57 8 -60q-137 -127 -268 -127q-139 0 -264 135v4q8 26 8 36v780q0 22 -44 52v4q0 6 12 12z" />
    <glyph glyph-name="v" unicode="v" horiz-adv-x="656" 
d="M31 1024h244l4 -20q-32 -15 -36 -32q0 -14 88 -749h12v4l88 745q-2 15 -36 32l-4 8q4 8 4 12h236q8 -1 8 -8v-8q-52 -32 -52 -84q-8 -82 -140 -920l-20 -4h-184q-36 0 -36 116l-148 864l-40 28v4q0 6 12 12z" />
    <glyph glyph-name="w" unicode="w" horiz-adv-x="885" 
d="M8 1024h256q8 -1 8 -8v-16q-40 -11 -40 -24q0 -31 56 -637h12q97 354 108 354h52q31 0 44 -87q72 -246 84 -263h4q52 550 52 629q0 19 -40 32l-4 8q4 8 4 12h260l4 -20q-48 -16 -48 -64q-84 -653 -124 -936l-8 -4h-124q-31 0 -40 76l-84 275h-4q-14 -15 -96 -311
q-8 -40 -32 -40h-116q-17 0 -36 199l-112 781q-40 22 -40 32q4 8 4 12z" />
    <glyph glyph-name="x" unicode="x" horiz-adv-x="650" 
d="M64 1024h264l4 -20q-40 -14 -40 -36q52 -240 72 -271h4q60 235 60 259v12q0 24 -36 36v8q4 8 4 12h248l4 -20q-56 -25 -56 -64q-120 -343 -140 -418q148 -461 164 -482q36 -9 36 -32l-12 -8h-256q-6 0 -12 12q0 6 36 36v4q0 45 -64 307h-4q-11 0 -64 -287v-16
q0 -20 36 -36v-12l-12 -8h-240q-10 0 -12 16q0 6 40 32q32 64 156 482v4q-116 365 -156 454q-27 12 -32 12v16q1 8 8 8z" />
    <glyph glyph-name="y" unicode="y" horiz-adv-x="652" 
d="M23 1024h268q0 -4 4 -12q0 -8 -36 -28v-20q69 -372 80 -372h4q84 370 84 380q-3 18 -40 32l-4 8q4 8 4 12h244l4 -20q-48 -21 -48 -60q-172 -555 -172 -576v-284q0 -44 48 -60v-12q0 -6 -12 -12h-240q-20 0 -24 16q0 10 36 24q16 18 16 56v272q-160 585 -184 620
q-36 10 -36 24q4 8 4 12z" />
    <glyph glyph-name="z" unicode="z" horiz-adv-x="584" 
d="M88 1016l48 -4h352q24 0 40 -44l-264 -812v-8h180q48 0 64 48h4l28 -4q0 -25 -32 -192q-47 4 -68 4h-360q-32 3 -32 44l276 820h-176q-38 0 -72 -48h-4q-13 8 -20 8q0 27 36 188z" />
    <glyph glyph-name="braceleft" unicode="{" horiz-adv-x="1014" 
d="M376 1424q16 -4 16 -24v-36q0 -26 -56 -32q-80 -27 -80 -84v-360q0 -118 -108 -176v-4q104 -44 104 -144q4 0 4 -36v-324q0 -76 52 -104q84 -20 84 -32v-44q0 -24 -20 -24q-236 0 -284 164q-8 53 -8 104v316q0 55 -76 92q-4 7 -4 16v36q0 28 48 40q32 33 32 68v312
q0 203 120 244q76 32 176 32z" />
    <glyph glyph-name="bar" unicode="|" horiz-adv-x="1014" 
d="M24 1424h108q24 0 24 -24v-1376q0 -24 -24 -24h-108q-24 0 -24 24v1376q0 24 24 24z" />
    <glyph glyph-name="braceright" unicode="}" horiz-adv-x="1014" 
d="M20 1424q234 0 280 -156q12 -25 12 -120v-312q0 -61 76 -88l4 -20v-36q0 -20 -60 -52q-20 -37 -20 -56v-316q0 -191 -116 -232q-84 -36 -180 -36q-16 4 -16 24v36q0 26 56 32q76 24 76 76q4 15 4 36v324q0 127 88 172q13 8 20 8v4q-108 58 -108 176v340q0 82 -76 104
q-60 7 -60 28v40q0 24 20 24z" />
    <glyph glyph-name="asciitilde" unicode="~" horiz-adv-x="1014" 
d="M363 929q82 0 280 -92h20q63 0 84 88l8 4h88q6 0 12 -12q0 -120 -112 -224q-51 -28 -88 -28q-71 0 -268 84q-15 8 -32 8h-20q-53 0 -72 -84l-8 -4h-88q-10 0 -12 16q0 136 132 224q37 20 76 20z" />
    <glyph glyph-name="brokenbar" unicode="&#xa6;" horiz-adv-x="1014" 
d="M24 1424h108q24 0 24 -24v-560q0 -6 -12 -12h-132q-6 0 -12 12v560q0 24 24 24zM12 600h132q6 0 12 -12v-564q0 -24 -24 -24h-108q-24 0 -24 24v564q0 6 12 12z" />
    <glyph glyph-name="AE" unicode="&#xc6;" horiz-adv-x="917" 
d="M231 1432h404q24 0 24 -24q0 -11 -36 -36l-4 -8v-4q0 -9 4 -16q-4 -8 -4 -12q164 -1084 196 -1260q23 -32 52 -32l4 -20v-4q0 -6 -12 -12h-336q-6 0 -12 12v16q0 8 44 24q0 7 8 20q-8 131 -16 152h-12q-15 -11 -104 -24q-63 8 -120 24q-12 0 -24 -152q0 -27 48 -36l4 -20
v-4q0 -6 -12 -12h-316q-6 0 -12 12v16q48 31 48 44q36 185 200 1268v20q0 10 -40 36v12q0 20 24 20zM423 1180q-8 -29 -88 -736q33 -20 92 -20h24q48 0 72 24l-88 732h-12zM1156 1441q36 -171 52 -269q-32 -9 -32 -13q-5 0 -40 50q-14 12 -36 20l-48 -4h-176l-28 4l-4 -8
v-330h188q92 4 92 61l12 8h20q6 0 12 -12v-318q0 -6 -12 -12h-20q-8 0 -24 48q-27 21 -64 21h-200v-477h232q60 0 100 70q25 0 36 -17q-40 -233 -52 -269q-32 12 -68 12h-548q-6 0 -12 12v17q0 7 44 24q20 31 20 53v1219q0 50 -60 65l-4 9v16q0 6 12 12h544q58 8 64 8z" />
    <glyph glyph-name="multiply" unicode="&#xd7;" horiz-adv-x="1014" 
d="M116 1111l196 -192q7 0 200 192q5 0 120 -120l-192 -196q0 -7 192 -200v-4q0 -5 -116 -116h-4l-196 192q-7 0 -200 -192h-4q-5 0 -116 116v4l192 196v4l-192 196q0 5 120 120z" />
    <glyph glyph-name="divide" unicode="&#xf7;" horiz-adv-x="1014" 
d="M284 1055h152q6 0 12 -12v-84q0 -6 -12 -12h-152q-6 0 -12 12v84q0 6 12 12zM36 859h648q24 0 24 -24v-128q0 -24 -24 -24h-648q-24 0 -24 24v128q0 24 24 24zM284 595h140q24 0 24 -24v-72q0 -6 -12 -12h-152q-6 0 -12 12v84q0 6 12 12z" />
    <glyph glyph-name="tilde" unicode="&#x2dc;" horiz-adv-x="1024" 
d="M224 921q82 0 280 -92h20q63 0 84 88l8 4h88q6 0 12 -12q0 -120 -112 -224q-51 -28 -88 -28q-71 0 -268 84q-15 8 -32 8h-20q-53 0 -72 -84l-8 -4h-88q-10 0 -12 16q0 136 132 224q37 20 76 20z" />
    <glyph glyph-name="quoteleft" unicode="&#x2018;" horiz-adv-x="346" 
d="M102 1428h144l12 -8q-29 -336 -36 -336l-24 -4h-48q-32 0 -32 80q-24 257 -24 264z" />
    <glyph glyph-name="quoteright" unicode="&#x2019;" horiz-adv-x="346" 
d="M102 1428h144l12 -8q-29 -336 -36 -336l-24 -4h-48q-32 0 -32 80q-24 257 -24 264z" />
    <glyph glyph-name="quotesinglbase" unicode="&#x201a;" horiz-adv-x="346" 
d="M181 242q109 0 128 -140q0 -169 -200 -260h-8q-11 0 -32 48q120 60 120 108v8q-124 8 -124 116q21 116 112 116q0 4 4 4z" />
    <glyph glyph-name="quotedblleft" unicode="&#x201c;" horiz-adv-x="555" 
d="M92 1429h144l12 -8q-29 -336 -36 -336l-24 -4h-48q-32 0 -32 80q-24 257 -24 264zM328 1429h144l12 -8q-29 -336 -36 -336l-24 -4h-48q-32 0 -32 80q-24 257 -24 264z" />
    <glyph glyph-name="quotedblright" unicode="&#x201d;" horiz-adv-x="555" 
d="M92 1429h144l12 -8q-29 -336 -36 -336l-24 -4h-48q-32 0 -32 80q-24 257 -24 264zM328 1429h144l12 -8q-29 -336 -36 -336l-24 -4h-48q-32 0 -32 80q-24 257 -24 264z" />
    <glyph glyph-name="quotedblbase" unicode="&#x201e;" horiz-adv-x="555" 
d="M92 347h144l12 -8q-29 -336 -36 -336l-24 -4h-48q-32 0 -32 80q-24 257 -24 264zM328 347h144l12 -8q-29 -336 -36 -336l-24 -4h-48q-32 0 -32 80q-24 257 -24 264z" />
    <glyph glyph-name="bullet" unicode="&#x2022;" horiz-adv-x="1024" 
d="M240 947q156 0 220 -172q8 -30 8 -56q0 -156 -172 -220q-30 -8 -56 -8q-156 0 -220 172q-8 30 -8 56q0 156 172 220q30 8 56 8z" />
    <glyph glyph-name="ellipsis" unicode="&#x2026;" horiz-adv-x="309" 
d="M156 232q92 0 116 -120q0 -75 -104 -112h-12q-70 0 -108 92q-4 16 -4 28q29 112 112 112zM-183 232q92 0 116 -120q0 -75 -104 -112h-12q-70 0 -108 92q-4 16 -4 28q29 112 112 112zM474 232q92 0 116 -120q0 -75 -104 -112h-12q-70 0 -108 92q-4 16 -4 28
q29 112 112 112z" />
  </font>
</defs>
</svg>
