<?xml version="1.0" standalone="no"?>
<!DOCTYPE svg PUBLIC "-//W3C//DTD SVG 1.1//EN" "http://www.w3.org/Graphics/SVG/1.1/DTD/svg11.dtd" >
<svg xmlns="http://www.w3.org/2000/svg" xmlns:xlink="http://www.w3.org/1999/xlink" version="1.1">
<metadata>
Created by FontForge 20170731 at Sun Dec  6 16:36:51 2015
 By Aleksey,,,
Attribution-ShareAlike 4.0 International
</metadata>
<defs>
<font id="NodestoCapsCondensed-Italic" horiz-adv-x="851" >
  <font-face 
    font-family="Nodesto Caps Condensed"
    font-weight="400"
    font-style="italic"
    font-variant="small-caps"
    font-stretch="condensed"
    units-per-em="2048"
    panose-1="2 0 5 0 0 0 0 9 0 0"
    ascent="1638"
    descent="-410"
    x-height="1016"
    cap-height="1433"
    bbox="-271.25 -158 1568 1441"
    underline-thickness="150"
    underline-position="-442"
    slope="-12"
    unicode-range="U+001D-2026"
  />
<missing-glyph horiz-adv-x="1024" 
d="M100 0l305 1434h824l-305 -1434h-824zM161 50h724l283 1334h-724zM569 1148q37 28 67 43q60 30 119 30q92 0 137.5 -47.5t28.5 -127.5q-10 -49 -43.5 -98.5t-114.5 -129.5q-80 -80 -127 -132t-57 -99q-8 -38 -4 -133h-32q-15 97 -4 148q16 76 127.5 218t127.5 217
q13 57 -13 90t-84 33q-38 0 -73 -17q-29 -15 -65 -40zM460 334l69 58q13 10 22 10q10 0 20 -11l43 -60q7 -11 5 -20q-2 -11 -15 -22l-69 -62q-17 -14 -24 -14q-11 0 -18 10l-46 71q-5 9 -3 18q2 10 16 22z" />
    <glyph glyph-name=".notdef" horiz-adv-x="1024" 
d="M100 0l305 1434h824l-305 -1434h-824zM161 50h724l283 1334h-724zM569 1148q37 28 67 43q60 30 119 30q92 0 137.5 -47.5t28.5 -127.5q-10 -49 -43.5 -98.5t-114.5 -129.5q-80 -80 -127 -132t-57 -99q-8 -38 -4 -133h-32q-15 97 -4 148q16 76 127.5 218t127.5 217
q13 57 -13 90t-84 33q-38 0 -73 -17q-29 -15 -65 -40zM460 334l69 58q13 10 22 10q10 0 20 -11l43 -60q7 -11 5 -20q-2 -11 -15 -22l-69 -62q-17 -14 -24 -14q-11 0 -18 10l-46 71q-5 9 -3 18q2 10 16 22z" />
    <glyph glyph-name=".null" horiz-adv-x="0" 
 />
    <glyph glyph-name=".null" horiz-adv-x="0" 
 />
    <glyph glyph-name="nonmarkingreturn" horiz-adv-x="508" 
 />
    <glyph glyph-name="space" unicode=" " horiz-adv-x="508" 
 />
    <glyph glyph-name="space" unicode="&#xa0;" horiz-adv-x="508" 
 />
    <glyph glyph-name="exclam" unicode="!" horiz-adv-x="497" 
d="M409 1416h280q28 0 23 -24q-48 -39 -53 -60q-24 -96 -53 -192h4l-5 -8q-71 -276 -175 -652q-1 -4 3 -4q-14 -68 -38 -68h-116q-28 0 -19 44q1 4 5 4q114 706 139 900q-4 0 -25 32l1 4q5 24 29 24zM301 232q92 0 91 -120q-16 -75 -128 -112h-12q-70 0 -88 92q-1 16 2 28
q52 112 135 112z" />
    <glyph glyph-name="quotedbl" unicode="&#x22;" horiz-adv-x="555" 
d="M396 1429h144l10 -8q-100 -336 -107 -336l-25 -4h-48q-32 0 -15 80q30 257 32 264zM632 1429h144l10 -8q-100 -336 -107 -336l-25 -4h-48q-32 0 -15 80q30 257 32 264z" />
    <glyph glyph-name="numbersign" unicode="#" horiz-adv-x="975" 
d="M710 1424h132l10 -8l-175 -408h148q168 392 180 412l21 4h124q19 -1 18 -8l-167 -408h124l19 -4q-56 -144 -74 -144h-132q-23 -49 -131 -312h124l20 -4q-51 -140 -70 -140h-128q-10 0 -172 -396q-15 -8 -26 -8h-128l-19 4q157 383 161 400h-136q-12 0 -140 -320
q-33 -84 -54 -84h-124q-14 0 -21 12q157 363 163 392h-124l-19 4l1 4q52 136 68 136h136q103 238 132 300q-2 8 -1 12h-136q-20 0 -19 8q61 140 74 140h144q162 386 176 412zM618 860l-131 -312h144q29 57 129 304l2 8h-144z" />
    <glyph glyph-name="dollar" unicode="$" horiz-adv-x="732" 
d="M633 1420h64q6 0 9 -12l-20 -96q118 -20 132 -20q20 0 49 8q7 -41 -12 -244q-6 0 -33 -8q-28 76 -132 76h-20q-84 0 -111 -68l-8 -40q-11 -51 123 -232q127 -190 91 -360q-51 -239 -298 -312q-33 -2 -35 -12l-16 -76q-5 -24 -29 -24h-56q-6 0 -9 12l17 84q3 10 -98 24
h-84q-8 0 9 176q-3 0 3 72q10 20 44 20q14 -100 119 -100h68q110 28 126 104l7 32q25 115 -135 324q-109 163 -86 272l4 20q41 191 247 260q34 8 36 16l19 92q2 6 15 12z" />
    <glyph glyph-name="percent" unicode="%" horiz-adv-x="1279" 
d="M1113 1424h120q8 0 5 -12q-471 -900 -743 -1408l-21 -4h-116q-8 0 -6 8q515 993 744 1412q8 4 17 4zM619 1416q172 0 199 -192q5 -72 -11 -148l-3 -12q-57 -269 -249 -344q-46 -12 -75 -12h-28q-196 0 -175 284q-1 16 11 88q47 222 204 304q65 32 127 32zM473 1104
l-12 -56q-43 -200 25 -200h24q68 0 104 168l22 104q33 156 -43 156h-8q-76 0 -112 -172zM1112 708h24q163 0 188 -192q6 -65 -8 -128l-5 -28q-62 -289 -271 -352q-34 -8 -70 -8q-166 0 -188 188q-4 39 7 144l15 72q50 149 98 200q97 104 210 104zM983 420l-21 -100
q-38 -180 34 -180h12q80 0 128 228q43 200 -33 200h-16q-72 0 -104 -148z" />
    <glyph glyph-name="ampersand" unicode="&#x26;" horiz-adv-x="1036" 
d="M1092 1428q18 0 9 -164q8 0 -1 -96l-9 -4h-32q-7 64 -58 64h-224l-1 -4q-2 -10 67 -552h12q66 123 155 164q51 16 63 16h20q106 -28 77 -164q-19 -92 -55 -92q-8 0 -22 32l-27 4h-8q-76 0 -183 -184q50 -379 75 -384q-3 -12 43 -20l3 -8l-1 -4q-5 -24 -29 -24h-240
q-34 0 -35 44q-5 68 -17 68q-128 -120 -266 -120h-16q-198 0 -226 236q-3 96 16 188l4 16q61 289 372 512l1 4q-12 72 -61 464l9 4h508q32 0 77 4zM440 488l-20 -92q-40 -188 80 -188q70 0 149 96q-42 335 -60 416q-117 -78 -149 -232z" />
    <glyph glyph-name="quotesingle" unicode="'" horiz-adv-x="346" 
d="M406 1428h144l10 -8q-101 -336 -108 -336l-24 -4h-48q-32 0 -15 80q30 257 32 264z" />
    <glyph glyph-name="parenleft" unicode="(" horiz-adv-x="530" 
d="M814 1424l2 -8l-11 -52q-3 -16 -96 -96q-164 -203 -239 -556q-98 -464 59 -644l-11 -56q-2 -6 -15 -12q-350 167 -248 696l4 20q118 532 551 708h4z" />
    <glyph glyph-name="parenright" unicode=")" horiz-adv-x="547" 
d="M367 1424q357 -176 249 -708l-4 -20q-105 -492 -518 -688q-18 -8 -30 -8l-5 12l9 44q3 14 97 100q162 196 238 556q99 463 -60 640l14 64q3 8 10 8z" />
    <glyph glyph-name="asterisk" unicode="*" horiz-adv-x="527" 
d="M512 1430h136l10 -8q-70 -162 -72 -172h12q163 80 181 80q9 -126 3 -156q-1 -4 -183 -12l-1 -4q-2 -8 103 -136q-134 -88 -150 -88q-30 147 -42 164h-8q-91 -149 -110 -164h-4q-107 83 -106 88q154 122 157 136h-4q-168 18 -167 24l72 148h4q6 0 143 -80q1 4 5 4
q7 93 7 168z" />
    <glyph glyph-name="plus" unicode="+" horiz-adv-x="721" 
d="M528 1128h152q6 0 9 -12l-58 -272h236q24 0 19 -24l-26 -124q-5 -24 -29 -24h-236l-58 -272q-1 -6 -15 -12h-152q-6 0 -9 12l58 272h-236q-24 0 -19 24l26 124q5 24 29 24h236l58 272q1 6 15 12z" />
    <glyph glyph-name="comma" unicode="," horiz-adv-x="346" 
d="M232 242q109 0 99 -140q-36 -169 -256 -260h-8q-11 0 -21 48q132 60 143 108l1 8q-122 8 -99 116q46 116 137 116q0 4 4 4z" />
    <glyph glyph-name="hyphen" unicode="-" horiz-adv-x="509" 
d="M118 216h368q28 0 22 -28l-34 -160q-6 -28 -34 -28h-368q-28 0 -22 28l34 160q6 28 34 28z" />
    <glyph glyph-name="hyphen" unicode="&#xad;" horiz-adv-x="509" 
d="M118 216h368q28 0 22 -28l-34 -160q-6 -28 -34 -28h-368q-28 0 -22 28l34 160q6 28 34 28z" />
    <glyph glyph-name="period" unicode="." horiz-adv-x="309" 
d="M205 232q92 0 91 -120q-16 -75 -128 -112h-12q-70 0 -88 92q-1 16 2 28q52 112 135 112z" />
    <glyph glyph-name="slash" unicode="/" horiz-adv-x="531" 
d="M706 1424h124q7 -1 6 -8q-100 -228 -648 -1412l-21 -4h-108l-10 8l648 1412z" />
    <glyph glyph-name="zero" unicode="0" 
d="M731 1424h20q263 0 236 -432q-22 -176 -38 -252q-18 -88 -43 -164h4q-90 -294 -155 -376q-124 -200 -319 -200q-232 0 -235 344q19 220 20 224t5 4q8 76 26 164q121 566 382 668q59 20 97 20zM495 768l-14 -68q-95 -448 -36 -488q18 -12 30 -12h24q96 0 189 440l40 188
q85 400 -23 400h-12q-100 0 -198 -460z" />
    <glyph glyph-name="one" unicode="1" 
d="M812 1428h92l10 -8q-16 -39 -31 -108l-257 -1208q-11 -53 49 -72l-4 -20q-2 -6 -15 -12h-340q-6 0 -9 12v4q5 21 47 32q29 23 35 52l206 968q-4 0 -11 4l-206 -28l-6 12l25 116q7 32 79 32q202 66 290 196q16 28 46 28z" />
    <glyph glyph-name="two" unicode="2" 
d="M713 1424q251 0 273 -220q-2 -86 -7 -108l-4 -20q-53 -246 -348 -524q-189 -202 -224 -340h268q71 0 116 76h8q32 0 29 -16q-111 -272 -122 -272q-40 0 -38 8q-41 -4 -61 -4h-488q-24 0 -20 20q74 346 515 804q93 119 121 248q26 122 -102 144h-44q-101 0 -164 -96h-12
q-17 0 -30 8l102 276q39 -4 59 -4q135 20 173 20z" />
    <glyph glyph-name="three" unicode="3" 
d="M696 1428q170 0 240 -184q20 -94 4 -172q-41 -193 -235 -316q171 -95 120 -336q-55 -260 -312 -396q-78 -24 -129 -24q-46 0 -208 20h-4l-49 -4l11 256q11 7 34 12q9 0 34 -48q46 -44 143 -44q200 0 249 232q36 171 -68 224q-29 12 -54 12h-48q-24 0 -17 32l26 124
q2 6 15 12h52q160 0 206 216q40 188 -128 188q-126 0 -196 -92q-25 0 -36 16q24 58 98 256h4q34 -8 46 -8q147 24 202 24z" />
    <glyph glyph-name="four" unicode="4" 
d="M709 1428h252l19 -4q-36 -94 -49 -156l-174 -816h4q20 0 59 -4l75 12q-1 -4 3 -4q-81 -204 -95 -204h-80q-9 -1 -10 -8l-23 -108q-21 -100 31 -100l2 -8l-3 -16q-2 -6 -15 -12h-316q-6 0 -9 12l3 16q40 23 52 36q14 28 18 48l30 140h-320q-31 0 -31 100q-6 0 -5 36
l531 992q23 48 51 48zM644 1068q-309 -608 -311 -616h160l27 -4l6 8l130 612h-12z" />
    <glyph glyph-name="five" unicode="5" 
d="M976 1424q2 -27 -2 -252q-10 -20 -44 -20q-6 64 -83 64h-176q-57 -158 -83 -280q53 12 91 12h24q199 0 192 -316q2 -50 -9 -100l-19 -92q-31 -142 -158 -308q-135 -132 -236 -132h-64q-30 0 -156 36h-36l-29 -4q-4 21 10 272q16 12 50 12q17 -116 156 -116h20
q94 0 149 100q39 51 73 212q31 194 -41 224q-23 12 -33 12l-9 -4q-6 4 -15 4q-40 0 -101 -60q-8 0 -149 32q5 23 52 168h-4q14 30 162 520l14 8h336q62 0 118 8z" />
    <glyph glyph-name="six" unicode="6" 
d="M807 1424h4q36 0 129 -32q23 4 37 4h12q3 -43 -14 -252q-1 -4 -41 -4q-21 96 -123 96h-28q-93 0 -158 -120q-27 -39 -81 -232q4 0 3 -4q98 56 164 56h8q183 0 210 -196q11 -118 -12 -228l-15 -68q-44 -207 -190 -352q-113 -92 -216 -92h-40q-262 0 -233 392
q20 166 45 284q121 573 365 704q80 44 174 44zM483 560q-77 -364 27 -364h8q104 0 162 276q56 260 -44 260h-12q-107 -12 -119 -68z" />
    <glyph glyph-name="seven" unicode="7" 
d="M442 1424q62 -8 126 -8h488q33 0 38 -68q-445 -548 -599 -1272q-5 -24 47 -44l-4 -20q-2 -6 -15 -12h-296l-10 8l5 8l2 8q3 12 -1 12q111 354 212 584q201 410 351 580q4 0 5 4l2 8h-328q-84 -16 -93 -60h-28l-10 8z" />
    <glyph glyph-name="eight" unicode="8" 
d="M735 1424h12q194 0 239 -212q10 -44 -2 -140q-44 -207 -223 -332q147 -101 98 -332q-62 -290 -308 -392q-61 -16 -103 -16h-20q-255 0 -250 328q7 53 14 88q48 225 237 324q-126 123 -80 336q54 254 312 340q42 8 74 8zM548 1016q-32 -151 67 -176h4q91 0 147 184l3 16
q32 151 -28 188q-13 8 -30 8h-20q-82 0 -129 -156zM412 412q-49 -228 71 -228q108 0 158 236q38 176 -40 208q-6 4 -19 4h-20q-104 0 -150 -220z" />
    <glyph glyph-name="nine" unicode="9" 
d="M732 1428q212 0 239 -228q20 -172 -32 -416l-15 -68q-152 -716 -536 -716q-24 0 -132 36q-41 -8 -46 -8q2 179 18 256q1 4 41 4q25 -96 128 -96h16q164 0 231 316l7 32q-96 -44 -110 -44l-53 -8q-202 0 -221 224q-10 104 21 248q36 170 148 320q128 148 296 148z
M532 1016l-27 -128q-42 -196 66 -196q111 16 121 60l39 184q61 288 -35 288h-24q-96 0 -140 -208z" />
    <glyph glyph-name="colon" unicode=":" horiz-adv-x="362" 
d="M431 1142q86 0 90 -120q-17 -80 -132 -116h-8q-73 0 -93 92q0 16 2 28q48 112 136 112q1 4 5 4zM303 542q53 0 90 -68q3 -39 1 -52q-59 -116 -141 -116q-53 0 -90 68q-5 31 0 52q48 112 131 112q1 4 9 4z" />
    <glyph glyph-name="semicolon" unicode=";" horiz-adv-x="378" 
d="M438 1156q86 0 90 -120q-17 -80 -132 -116h-8q-73 0 -93 92q0 16 2 28q48 112 136 112q1 4 5 4zM301 552h16q93 0 83 -136q-30 -144 -223 -240q-14 -8 -25 -8h-4q-9 4 -24 40l1 4q129 62 139 108l2 8q-120 0 -97 108l1 8q51 108 131 108z" />
    <glyph glyph-name="semicolon" unicode="&#x37e;" horiz-adv-x="378" 
d="M438 1156q86 0 90 -120q-17 -80 -132 -116h-8q-73 0 -93 92q0 16 2 28q48 112 136 112q1 4 5 4zM301 552h16q93 0 83 -136q-30 -144 -223 -240q-14 -8 -25 -8h-4q-9 4 -24 40l1 4q129 62 139 108l2 8q-120 0 -97 108l1 8q51 108 131 108z" />
    <glyph glyph-name="less" unicode="&#x3c;" horiz-adv-x="777" 
d="M940 1112q8 -1 7 -8l-37 -172q-6 -27 -68 -40q-353 -128 -365 -136q1 -8 230 -100q133 -55 130 -68l-39 -184q-2 -8 -10 -8q-499 240 -616 300v20l17 80q7 30 127 68q553 223 624 248z" />
    <glyph glyph-name="equal" unicode="=" horiz-adv-x="771" 
d="M312 1042h648q6 0 10 -12l-36 -168q-1 -6 -14 -12h-648q-6 0 -10 12l36 168q1 6 14 12zM257 742h640q6 0 9 -12l-33 -156q-5 -24 -37 -24h-616q-28 0 -22 28l30 140q5 24 29 24z" />
    <glyph glyph-name="greater" unicode="&#x3e;" horiz-adv-x="771" 
d="M328 1116q517 -240 616 -300q3 -7 1 -16l-17 -80q-6 -30 -100 -56q-46 -24 -656 -264l-2 8l37 176q5 25 69 40q352 128 365 136q1 5 -227 100q-135 55 -135 64l40 184q2 8 9 8z" />
    <glyph glyph-name="question" unicode="?" horiz-adv-x="629" 
d="M537 1416h64q176 0 221 -164q11 -62 -1 -120q-34 -160 -283 -388q-67 -89 -93 -212l-8 -36q-7 -34 45 -52l-3 -16q-5 -24 -29 -24h-184q-36 0 -27 44q7 70 16 112q56 167 123 260q175 183 194 272l4 20q22 104 -98 104h-12q-115 0 -169 -80q-1 -6 -20 -20q-34 10 -32 20
q93 249 105 268q4 0 5 4q15 -8 43 -8h16q96 16 123 16zM325 232q92 0 91 -120q-16 -75 -128 -112h-12q-70 0 -88 92q-1 16 2 28q52 112 135 112z" />
    <glyph glyph-name="at" unicode="@" horiz-adv-x="1457" 
d="M1053 1420q370 0 480 -320q42 -161 7 -324l-7 -32q-65 -308 -312 -416q-52 -12 -109 -20q-133 0 -195 76h-8q-75 -64 -146 -64h-32q-116 0 -134 120q0 58 3 72q43 201 360 320l6 8v4q18 84 -30 84q2 8 -46 8q-78 0 -131 -68h-4q-12 0 -21 12q64 187 71 200q33 -4 51 -4
q94 16 123 16h24q143 0 165 -148q1 -51 -9 -96l-75 -356q-8 -35 43 -40h48q143 31 190 256l11 48q78 367 -164 492q-90 36 -200 36q-327 0 -537 -360q-32 -59 -78 -216q-92 -433 227 -552q57 -20 140 -20h12q109 0 270 64h8l29 -124q-165 -76 -340 -76q-492 0 -528 488
q-3 102 21 212l2 12q86 402 464 620q171 88 351 88zM796 552l-1 -4q-4 -64 35 -64h12q48 0 63 72l27 128q-115 -37 -136 -132z" />
    <glyph glyph-name="A" unicode="A" horiz-adv-x="917" 
d="M560 1428h404q24 0 18 -24q-2 -11 -43 -36l-6 -8l-1 -4q-2 -9 1 -16q-6 -8 -7 -12q-66 -1084 -72 -1260q17 -32 46 -32l-1 -20v-4q-2 -6 -15 -12h-336q-6 0 -9 12l3 16q2 8 49 24q2 7 12 20q20 131 17 152h-12q-18 -11 -109 -24q-62 8 -115 24q-12 0 -57 -152
q-5 -27 41 -36l-1 -20v-4q-2 -6 -15 -12h-316q-6 0 -9 12l3 16q55 31 57 44q76 185 470 1268l4 20q2 10 -32 36l2 12q5 20 29 20zM698 1176q-14 -29 -244 -736q28 -20 87 -20h24q48 0 77 24l68 732h-12z" />
    <glyph glyph-name="B" unicode="B" horiz-adv-x="919" 
d="M487 1428h296q86 0 195 -76q90 -107 55 -268q-41 -193 -211 -296v-4q174 -103 117 -368q-64 -302 -363 -392q-94 -24 -177 -24h-60q-264 0 -261 16q-2 7 0 16l2 8q2 9 44 20q29 26 33 44l259 1216q5 64 -47 64l-2 8l3 16q2 6 15 12h4q6 0 98 8zM644 1228l-76 -356h44
q122 25 149 152q7 14 12 40q30 142 -65 164h-64zM524 664l-98 -460h68q87 0 145 96q30 49 42 104l17 80q26 124 -67 176q-42 8 -62 8q-28 -4 -45 -4z" />
    <glyph glyph-name="C" unicode="C" horiz-adv-x="784" 
d="M806 1424q37 0 117 -12h36l41 4l-10 -256q-25 -16 -48 -16q-10 80 -127 80h-8q-156 0 -269 -324l-19 -52l3 -8q-6 -8 -16 -36q-12 -77 -17 -100q-4 -19 -24 -92q-34 -252 -10 -312q27 -112 136 -112h12q110 0 154 84q3 8 10 8q6 0 34 -8q-98 -272 -110 -272q-4 0 -3 4
q-102 -4 -149 -4h-104q-135 0 -210 196q-55 211 8 512l1 4q129 564 451 692q80 20 121 20z" />
    <glyph glyph-name="D" unicode="D" horiz-adv-x="947" 
d="M459 1428h332q123 -11 206 -100q126 -162 41 -560l-4 -20q-119 -562 -400 -696q-126 -52 -239 -52q-33 4 -55 4h-12q-256 0 -251 24l1 4q5 25 55 32q20 20 34 48l6 48l247 1164q10 46 -50 64l-1 16q6 24 90 24zM648 1228l-215 -1012q-1 -8 6 -8h32q192 0 288 452l37 172
q84 396 -88 396h-60z" />
    <glyph glyph-name="E" unicode="E" horiz-adv-x="819" 
d="M995 1429q0 -169 -5 -266q-34 -9 -34 -12q-5 0 -30 49q-11 12 -32 20l-49 -4h-176l-27 4l-5 -8l-70 -326h188q93 4 105 60l14 8h20q6 0 9 -12l-67 -314q-1 -6 -14 -12h-20q-8 0 -14 48q-23 20 -60 20h-200l-100 -471h232q60 0 115 69q25 0 33 -16q-89 -230 -109 -266
q-29 12 -65 12h-548q-6 0 -10 12l4 16q1 7 49 24q26 31 31 53l256 1203q10 50 -47 65l-2 8l3 16q2 6 15 12h544q60 8 66 8z" />
    <glyph glyph-name="F" unicode="F" horiz-adv-x="768" 
d="M996 1433q11 0 3 -266q-19 -12 -42 -12q-17 65 -71 65h-244l-76 -359h224q53 0 91 69q8 4 17 4q15 -4 10 -24l-65 -310q-2 -6 -15 -12h-4q-28 0 -20 40q-19 28 -50 28h-228l-118 -555q-11 -55 55 -65l-7 -32l-21 -4h-352q-6 0 -9 12l3 16l46 28q15 0 39 53l6 48l237 1111
q3 17 13 44q12 57 -48 77l-2 8l1 4q5 24 29 24h532q60 8 66 8z" />
    <glyph glyph-name="G" unicode="G" horiz-adv-x="893" 
d="M820 1433q118 -12 137 -12l37 4q5 -13 -15 -258q-34 -9 -34 -12q-8 0 -33 53q-36 24 -83 24h-28q-208 0 -316 -507q-87 -411 -5 -496q30 -28 86 -28h16l21 4l93 439q9 45 -47 64q-2 7 0 17l1 4q1 5 15 12h352q6 0 9 -12l-4 -17q-1 -5 -58 -32q-18 -26 -21 -40l-98 -463
q-8 -35 0 -92q-167 -85 -362 -85q-248 0 -283 326q-9 182 36 395l4 16q94 444 352 624q120 72 228 72z" />
    <glyph glyph-name="H" unicode="H" horiz-adv-x="1023" 
d="M388 1433h352l19 -4l-3 -12q-4 -22 -51 -36q-30 -27 -42 -81l-85 -402q-1 -8 6 -8h228l92 434q12 56 -47 77q-3 7 -1 16l1 4q1 6 15 12h360q6 0 9 -12l-3 -16q-75 -32 -82 -65l-6 -48l-243 -1143q-4 -17 -14 -44q1 -69 50 -69l2 -8l-3 -16q-2 -6 -15 -12h-360q-6 0 -9 12
l3 16q2 10 35 16q42 27 50 65l122 575h-228q-8 -1 -9 -8l-117 -547q-17 -80 45 -93h4l-7 -32l-21 -4h-352q-6 0 -9 12l3 16l55 32l28 37q4 40 8 60l250 1175q10 48 -45 69q-4 0 -3 4l3 16q1 6 15 12z" />
    <glyph glyph-name="I" unicode="I" horiz-adv-x="543" 
d="M408 1433h344q6 0 9 -12l-4 -20q-55 -24 -64 -36q-14 -28 -18 -28l-4 -40l-255 -1197q-2 -64 47 -64l2 -8l-3 -16q-2 -6 -15 -12h-364q-6 0 -9 12v4q6 25 47 32q38 25 51 88l248 1169q15 68 -29 88q-24 0 -20 20q5 20 37 20z" />
    <glyph glyph-name="J" unicode="J" horiz-adv-x="698" 
d="M591 1424h356q6 0 9 -12l-3 -16q-69 -39 -71 -52l-9 -24l-221 -1036q-10 -51 4 -76l-1 -4q-80 -118 -259 -184q-64 -20 -112 -20h-20q-153 0 -258 84l1 4q21 42 135 224h4q36 0 29 -36q-14 -63 84 -72q3 0 24 -4q89 0 127 112l214 1004q11 53 -49 72l-2 8l3 16q1 6 15 12
z" />
    <glyph glyph-name="K" unicode="K" horiz-adv-x="988" 
d="M388 1433h348q24 0 18 -24v-4q-73 -42 -78 -64q-8 -21 -12 -40l-95 -446h4q10 2 214 329q93 137 98 161l4 20q4 16 -45 32q-3 7 -1 16q5 20 29 20h336q24 0 18 -24q-3 -17 -53 -28q-26 -12 -280 -394q-50 -65 -53 -80q-23 -105 42 -799q16 -72 69 -72l2 -8l-3 -16
q-2 -6 -15 -12h-304q-16 0 -27 269q-8 244 -6 385l-7 4q-86 -105 -89 -116l-85 -402q-22 -104 42 -104l2 -8l-3 -16q-2 -6 -15 -12h-360q-6 0 -9 12l3 16l55 32q20 18 23 36l262 1233q11 51 -49 68l5 24q1 6 15 12z" />
    <glyph glyph-name="L" unicode="L" horiz-adv-x="770" 
d="M388 1433h348q24 0 18 -24v-4q-2 -7 -59 -33q-26 -27 -31 -52l-235 -1102h260q49 0 107 69q31 -3 29 -13q-105 -274 -118 -274q-40 0 -38 8q-61 -4 -89 -4h-496q-6 0 -10 12l5 20l55 33q18 13 24 40l260 1223q10 48 -46 65l-2 8l3 16q1 6 15 12z" />
    <glyph glyph-name="M" unicode="M" horiz-adv-x="1223" 
d="M388 1433h312q15 0 21 -12l-6 -8l-4 -20q-14 -68 32 -341q23 -229 36 -261q19 15 198 365q100 171 114 237l3 16q6 24 30 24h296q24 0 18 -24q-3 -15 -55 -36q-27 -33 -31 -52l-258 -1213q-12 -54 49 -72l2 -8l-3 -16q-2 -6 -15 -12h-360q-6 0 -9 12l3 16l55 32
q20 21 25 44l159 747q-9 0 -269 -494q-23 -52 -47 -52h-36q-33 0 -30 104q-6 8 -54 442h-8l-159 -747q-11 -54 43 -64q11 -4 6 -24v-4q-2 -6 -15 -12h-348q-6 0 -9 12l3 16l55 32q12 9 28 40l7 49l242 1139q3 17 13 45q9 43 -54 64l5 24q1 6 15 12z" />
    <glyph glyph-name="N" unicode="N" horiz-adv-x="999" 
d="M388 1433h280q24 0 14 -44q3 -78 74 -388q28 -140 36 -149h4l103 484q8 38 -54 65l1 8q6 24 30 24h320q24 0 18 -24q-2 -14 -55 -37q-26 -27 -31 -48l-260 -1223q-10 -47 34 -69q4 0 3 -4l-3 -16q-2 -6 -15 -12h-252l-19 4l76 359q-114 525 -127 533h-4l-169 -799
q-9 -40 50 -65q2 -7 0 -16v-4q-2 -6 -15 -12h-344q-6 0 -9 12l3 16l55 33q19 13 24 40l261 1227q10 47 -48 73l4 20q1 6 15 12z" />
    <glyph glyph-name="O" unicode="O" horiz-adv-x="887" 
d="M760 1433q229 0 257 -293q7 -175 -31 -353l-19 -89q-148 -698 -516 -698t-208 751q118 555 400 662q61 20 117 20zM510 863q-1 -8 3 -8q-13 -40 -17 -60l-23 -109q-5 -23 -10 -64q-5 -8 -6 -12q-44 -280 -28 -337q16 -72 53 -72h32q86 0 179 353q1 4 -3 4q0 3 9 24
q10 49 39 165q16 97 27 148l-2 8l6 8q29 208 14 273q-20 44 -52 56h-12q-101 0 -177 -265q-7 -36 -32 -112z" />
    <glyph glyph-name="P" unicode="P" horiz-adv-x="854" 
d="M620 1433h56q319 0 343 -302q6 -88 -17 -193q-73 -343 -311 -451q-101 -32 -167 -32h-36l-9 -4l-2 -28l-58 -274q-4 -17 -14 -44q0 -69 54 -69l2 -8l-3 -16q-2 -6 -15 -12h-360q-6 0 -9 12l3 16l46 28q15 0 39 53l6 48l232 1091q5 22 16 56q7 81 -47 81l-2 8l2 8
q5 24 25 24q156 8 226 8zM648 1228q-2 -8 -6 -8v-20l-106 -500l-13 -40l7 -4h24q136 0 189 246l16 76q43 205 -56 246q-6 4 -19 4h-36z" />
    <glyph glyph-name="Q" unicode="Q" horiz-adv-x="907" 
d="M760 1433q282 0 253 -444q2 -68 -33 -230l-8 -40q-87 -407 -241 -569q10 -49 41 -49h4q33 0 65 41h4q20 0 21 -16q-18 -84 -99 -162q-31 -20 -68 -20h-20q-61 0 -115 81q-52 -16 -87 -16h-44q-242 0 -235 399q1 98 45 343q113 534 391 658q62 24 126 24zM505 836
q-2 -28 -6 -45l-24 -113q-4 -19 -12 -40q-53 -325 -31 -371q9 -69 57 -69h24q85 0 175 335q1 4 -3 4q2 8 6 8q30 123 43 182q89 419 32 492q-23 20 -44 20h-8q-97 0 -175 -278q-30 -125 -34 -125z" />
    <glyph glyph-name="R" unicode="R" horiz-adv-x="971" 
d="M748 1433q291 0 350 -214q17 -107 -4 -209q-60 -281 -242 -365l-1 -4q-7 -221 11 -497q6 -105 65 -105l6 -12l-3 -15q-2 -6 -15 -12h-292q-35 6 -19 78q-13 244 20 493l1 4h-108l-97 -458q-14 -65 46 -82q3 -7 1 -16l-1 -7q-2 -6 -15 -12h-368q-6 0 -9 12v4q4 19 56 38
q29 23 40 74l248 1165q18 86 -46 86l-6 11l1 4q5 23 49 23q88 12 332 16zM654 1219l-94 -442q-1 -8 6 -8l41 4l27 -4q78 0 151 105q29 64 34 85l17 82q17 182 -101 182q1 4 -35 4h-36q-8 -1 -10 -8z" />
    <glyph glyph-name="S" unicode="S" horiz-adv-x="763" 
d="M716 1433q15 0 158 -24q52 8 58 8l-9 -251q-17 -12 -51 -12q-22 83 -166 83q-106 0 -147 -126l-2 -8q-19 -93 55 -196q210 -310 171 -495l-8 -35q-56 -265 -291 -353q-81 -24 -141 -24q-27 0 -171 24q-6 0 -57 -4q3 89 22 290q32 12 46 12q3 -122 155 -122h20
q102 0 159 110q9 26 15 51q33 156 -105 334q-156 228 -118 408q43 199 227 295q89 35 180 35z" />
    <glyph glyph-name="T" unicode="T" horiz-adv-x="769" 
d="M380 1429q44 -12 133 -12h444q76 0 131 12l-5 -265l-30 -11q-8 0 -33 50q-34 12 -58 12h-148l-236 -1110q-11 -51 45 -70q8 0 4 -19v-4q-2 -6 -15 -12h-372q-6 0 -9 12v4q5 23 61 39q26 29 30 50l230 1079l9 27q-8 0 -6 8l-29 -4h-120q-72 0 -100 -59q-8 0 -9 -3
q-23 7 -30 7l4 20q97 249 105 249h4z" />
    <glyph glyph-name="U" unicode="U" horiz-adv-x="1023" 
d="M388 1433h360q6 0 9 -12l-2 -11q-1 -5 -59 -32q-21 -25 -28 -58l-210 -984q-19 -93 35 -121q24 -8 34 -8h52q104 20 121 98l219 1030q10 48 -50 67q-3 7 -1 15q8 16 28 16h336q6 0 9 -12l-3 -15q-75 -31 -82 -63l-6 -47l-203 -956q-6 -31 -21 -82l5 -71
q-225 -187 -424 -187q-202 0 -342 180q-2 6 -1 15q23 51 27 51q8 53 13 78l204 961q5 21 16 54q9 42 -55 63l4 19q1 6 15 12z" />
    <glyph glyph-name="V" unicode="V" horiz-adv-x="894" 
d="M337 1433h352q6 0 9 -12l-3 -15q-2 -8 -49 -24l-13 -23q-6 -28 -99 -1047h16l346 1024l3 15q8 37 -45 51l4 19q1 6 15 12h332q6 0 9 -12l-3 -15q-7 -11 -49 -24q-26 -20 -78 -179l-446 -1195l-14 -8h-300q-17 0 1 230q43 1013 46 1137q-10 21 -53 35l4 19q1 6 15 12z" />
    <glyph glyph-name="W" unicode="W" horiz-adv-x="1248" 
d="M347 1433h352l19 -4l-7 -31q-61 -7 -69 -43l-104 -884h8q15 13 128 246q116 225 133 249h92q27 0 23 -63q36 -414 44 -432q10 10 12 16l258 860q10 45 -49 51l-2 8l3 15q1 6 15 12h356q6 0 9 -12l-3 -15q-1 -6 -54 -28q-16 0 -169 -455l-319 -919l-21 -4h-180
q-31 0 -24 74l-40 417h-8q-11 0 -168 -320q-84 -162 -96 -171h-184q-24 0 -15 43l93 1320q-9 24 -52 39l4 19q1 6 15 12z" />
    <glyph glyph-name="X" unicode="X" horiz-adv-x="932" 
d="M380 1433h364q6 0 9 -12l-3 -15q-3 -9 -44 -20q-20 -16 -23 -31l-2 -8q9 -352 20 -377q13 0 175 370h-4l5 7q11 51 -41 51l-2 8l3 15q1 6 15 12h348q6 0 9 -12l-1 -4q-4 -22 -55 -35q-31 -20 -238 -405q-133 -228 -136 -241q76 -662 88 -662q-4 -19 47 -39q3 -7 1 -16
l-1 -7q-2 -6 -15 -12h-376q-6 0 -9 12v4q5 20 57 42q1 3 9 24q4 91 -5 424h-8q-174 -386 -185 -436q0 -20 44 -39l-6 -27l-21 -4h-344q-6 0 -9 12l1 7q5 22 51 32q39 25 181 307q182 330 206 386l2 8l-85 615q-10 15 -52 39l2 11q8 16 28 16z" />
    <glyph glyph-name="Y" unicode="Y" horiz-adv-x="839" 
d="M326 1433h360l19 -4l-7 -31q-53 -5 -60 -39q-3 -72 -2 -537h8q49 99 237 533q7 35 -47 43l-2 8l3 15q1 6 15 12h336q6 0 9 -12l-3 -15q-1 -6 -54 -28q-52 -75 -451 -861l-87 -407q-11 -54 48 -75q3 -7 1 -15l-1 -8q-2 -6 -15 -12h-360l-19 4l6 27l58 28q19 18 27 55
l85 399q7 34 -67 853q-14 24 -56 36l4 19q1 6 15 12z" />
    <glyph glyph-name="Z" unicode="Z" horiz-adv-x="801" 
d="M409 1433h12q37 -8 42 -8h532q24 0 35 -63l-2 -8q-619 -1123 -621 -1134l-2 -8h260q70 0 106 67h4q37 0 40 -20q-102 -259 -111 -259q-43 8 -62 8h-552q-21 0 -29 51l2 12l645 1150h-252q-67 0 -115 -67q-38 7 -36 16q1 8 104 263z" />
    <glyph glyph-name="bracketleft" unicode="[" horiz-adv-x="758" 
d="M327 1424h284q24 0 19 -24l-10 -44q-1 -6 -14 -12h-140l-267 -1256q-1 -8 6 -8h132q6 0 9 -12l-11 -56q-2 -6 -15 -12h-296q-24 0 -19 24l293 1376q5 24 29 24z" />
    <glyph glyph-name="backslash" unicode="\" horiz-adv-x="569" 
d="M311 1424h124q14 0 13 -240l42 -1176l-14 -8h-108q-36 0 -21 72q-51 1322 -45 1348z" />
    <glyph glyph-name="bracketright" unicode="]" horiz-adv-x="758" 
d="M327 1424h284q24 0 19 -24l-293 -1376q-5 -24 -29 -24h-296q-6 0 -9 12l11 56q2 6 15 12h132q8 0 10 8l267 1256h-140q-6 0 -10 12l10 44q5 24 29 24z" />
    <glyph glyph-name="asciicircum" unicode="^" horiz-adv-x="1014" 
d="M599 1428h112q29 0 41 -104q121 -485 121 -504l-9 -4h-136q-32 0 -44 112q-61 266 -64 300h-12q-238 -385 -259 -408q-8 -4 -17 -4h-140q-8 0 -6 8q342 535 396 600q8 4 17 4z" />
    <glyph glyph-name="underscore" unicode="_" horiz-adv-x="1024" 
d="M45 136h637q8 0 13 -12l-23 -112q-2 -6 -19 -12h-637q-8 0 -13 12l23 112q2 6 19 12z" />
    <glyph glyph-name="grave" unicode="`" horiz-adv-x="1024" 
d="M314 1423h152q28 0 70 -124q27 -44 24 -56l-9 -4h-92q-23 0 -154 176q2 8 9 8z" />
    <glyph glyph-name="a" unicode="a" horiz-adv-x="673" 
d="M414 1025h280q20 0 20 -16q-33 -28 -36 -40l-2 -8q-59 -823 -51 -921q33 -10 29 -32l-14 -8h-236q-10 0 -9 16q2 8 42 28l1 4q16 91 16 111q-78 -12 -91 -12l-85 12q-26 -67 -37 -115q32 -19 29 -36l-14 -8h-220q-10 0 -9 16q1 4 39 32q174 439 340 921q3 12 -20 40
q8 16 28 16zM332 320q20 -16 57 -16h20q56 4 59 16q54 524 43 524q-12 0 -107 -316q-4 -5 -72 -208z" />
    <glyph glyph-name="b" unicode="b" horiz-adv-x="680" 
d="M558 1025q135 0 184 -131q11 -61 -1 -119q-29 -135 -153 -211q128 -76 87 -266q-45 -212 -259 -278q-70 -20 -144 -20h-20q-204 0 -200 20q3 15 42 28q15 14 18 27l186 875q6 27 -34 47q1 4 -3 4q5 24 97 24h200zM463 882l-54 -254h32q88 15 108 111l11 52q16 77 -65 91
h-32zM377 477l-70 -330h52q104 16 131 143l11 52q24 113 -64 135q-21 4 -31 4z" />
    <glyph glyph-name="c" unicode="c" horiz-adv-x="543" 
d="M596 1028q83 -8 98 -8h32q10 0 -2 -176q-5 -16 -35 -16q10 45 -84 56h-16q-107 0 -189 -232q-21 -57 -35 -124l-3 -16q-80 -376 68 -376h20q68 0 103 52q3 16 11 16q24 -4 22 -12q-23 -72 -72 -188q-87 -4 -129 -4h-52q-157 0 -176 264q-5 107 21 228l9 44
q93 382 308 472q60 20 101 20z" />
    <glyph glyph-name="d" unicode="d" horiz-adv-x="692" 
d="M342 1024h216q133 0 192 -147q33 -128 0 -282l-21 -103q-88 -378 -299 -464q-101 -28 -150 -28l-27 4h-52q-152 0 -148 20l1 4l51 32l8 19l185 870q6 30 -38 47l2 12q4 16 80 16zM463 881l-155 -730h32q87 0 144 131q38 103 76 262q71 337 -53 337h-44z" />
    <glyph glyph-name="e" unicode="e" horiz-adv-x="604" 
d="M714 1024q-2 -177 -5 -192q-15 -8 -26 -8q-19 44 -43 44h-184l-50 -236h148q41 0 71 48h12q6 0 9 -12l-47 -220q-2 -12 -18 -12q-10 0 -17 36q-13 16 -36 16h-144q-8 -1 -10 -8l-70 -328h196q46 28 50 44h20q8 0 5 -12q-57 -155 -71 -184l-47 4h-396q-10 0 -9 16
q2 8 42 28q15 15 20 36l182 856q8 37 -29 52q-8 0 -6 8v4q2 6 15 12h388q20 0 50 8z" />
    <glyph glyph-name="f" unicode="f" horiz-adv-x="553" 
d="M719 1028q-1 -172 -5 -192q-18 -8 -26 -8q-15 48 -58 48h-172l-54 -256h168q25 0 66 48h4q6 0 9 -12l-46 -220q-2 -6 -15 -12h-4q-5 0 -16 36q-13 12 -34 12h-160l-87 -412q1 -21 40 -36q3 -7 1 -16l-14 -8h-256q-10 0 -9 16q2 8 42 28q16 15 20 36l184 864q8 39 -36 56
l1 8q8 16 28 16h380z" />
    <glyph glyph-name="g" unicode="g" horiz-adv-x="662" 
d="M611 1024q69 -8 106 -8l1 4q21 0 -1 -175h4q-8 -16 -28 -16h-4q-20 52 -77 52h-32q-104 0 -184 -228q-17 -60 -28 -111l-14 -68q-51 -240 2 -307q21 -24 67 -24h4l21 4l67 315q6 28 -38 48l2 8q1 6 15 12h248q12 0 8 -16q-1 -6 -47 -32q-6 -16 -11 -16l-6 -48l-54 -255
q-4 -16 -13 -43l3 -60q-128 -60 -261 -60q-219 0 -202 347q8 93 27 183q74 348 295 466q64 28 130 28z" />
    <glyph glyph-name="h" unicode="h" horiz-adv-x="744" 
d="M278 1024h256q6 0 9 -12l-1 -4q-50 -29 -51 -36q-12 -15 -18 -44l-61 -287q0 -7 7 -7h160l67 314q8 39 -37 56l2 8q1 6 15 12h256q6 0 9 -12l-1 -4l-51 -32l-5 -8l-194 -912q1 -18 36 -36q3 -8 2 -12l-14 -8h-256q-6 0 -9 12v4q50 28 53 40q5 6 8 20l88 414h-160
q-8 -1 -10 -8l-82 -386q-10 -72 33 -72l1 -16l-14 -8h-256q-6 0 -9 12v4q55 31 60 56l186 872q8 40 -36 60l2 8q1 6 15 12z" />
    <glyph glyph-name="i" unicode="i" horiz-adv-x="396" 
d="M290 1025h244q6 0 9 -12l-1 -8l-51 -32l-8 -20l-186 -874q-8 -37 35 -59l-2 -12l-14 -8h-256q-10 0 -9 16q3 10 42 24q19 18 27 55l178 835q14 67 -34 67q1 4 -2 12q8 16 28 16z" />
    <glyph glyph-name="j" unicode="j" horiz-adv-x="499" 
d="M431 1024h252q6 0 9 -12l-2 -8q-53 -29 -59 -52l-160 -753q-3 -15 4 -56q-130 -143 -270 -143h-12q-117 0 -183 60l1 4q88 159 105 159q20 0 14 -48q23 -32 61 -32h16q76 0 98 100l145 685q15 68 -33 68l-3 8l2 8q1 6 15 12z" />
    <glyph glyph-name="k" unicode="k" horiz-adv-x="724" 
d="M278 1024h244l19 -4l-5 -24q-50 -10 -61 -59l-67 -318q-1 -8 6 -8q214 332 218 349l3 16q1 9 -34 24l1 8q8 16 28 16h240q6 0 9 -12l-2 -8l-59 -36q-215 -312 -216 -321q-21 -95 37 -595q8 -12 45 -32l-2 -12l-14 -8h-204q-31 3 -20 56q-15 80 -17 412h-4
q-61 -65 -65 -83l-62 -290q-14 -67 34 -67l-5 -24l-21 -4h-244q-6 0 -9 12l1 8q1 5 41 24q16 15 20 35l184 866q8 39 -36 55l2 12q1 6 15 12z" />
    <glyph glyph-name="l" unicode="l" horiz-adv-x="589" 
d="M278 1024h252q6 0 9 -12l-2 -8q-48 -27 -62 -48l-169 -796q-1 -8 6 -8h172q44 0 87 52h4q15 -6 14 -12q-23 -71 -81 -192q-46 4 -67 4h-380q-6 0 -10 12l1 4q55 31 60 56l185 868q9 42 -36 56l2 12q1 6 15 12z" />
    <glyph glyph-name="m" unicode="m" horiz-adv-x="888" 
d="M278 1024h228l10 -8l-6 -8l-2 -12q-10 -46 44 -393q-1 -39 8 -39q213 381 222 424l5 24q1 6 15 12h224q6 0 9 -12l-2 -8q-54 -30 -59 -55l-185 -870q-9 -41 36 -55l-2 -12q-2 -6 -15 -12h-252q-6 0 -9 12l1 8q46 26 47 32q6 15 11 15q6 47 11 68l98 464q-11 0 -208 -377
l-21 -4h-16q-29 0 -29 88q-3 4 -37 297h-8l-111 -524q-8 -37 35 -59l-2 -12l-14 -8h-244q-6 0 -9 12l1 8l51 32l8 19l188 882q6 32 -38 47l2 12q1 6 15 12z" />
    <glyph glyph-name="n" unicode="n" horiz-adv-x="724" 
d="M278 1024h204q12 0 4 -72q16 -49 76 -340h8l72 340q6 25 -36 56l1 4q1 6 15 12h240q6 0 9 -12l-1 -4q-55 -32 -60 -56l-187 -880q-6 -31 25 -52l-1 -8q-2 -6 -15 -12h-180q-6 0 -9 12l52 248q-40 204 -91 380h-4l-121 -568q-5 -27 37 -52l-2 -12l-14 -8h-240q-10 0 -9 16
q2 8 42 28q16 15 20 36l184 864q8 39 -36 60l2 8q1 6 15 12z" />
    <glyph glyph-name="o" unicode="o" horiz-adv-x="673" 
d="M563 1024q192 0 183 -306q-14 -122 -28 -186q-113 -532 -381 -532q-264 0 -150 536q104 488 376 488zM379 611q-1 -4 3 -4l-10 -28l-23 -107l-1 -24q-5 -7 -6 -11q-48 -226 2 -290l19 -4h16q80 0 163 389l2 8q73 345 -11 345h-12q-58 0 -119 -182q-6 -30 -23 -92z" />
    <glyph glyph-name="p" unicode="p" horiz-adv-x="593" 
d="M458 1025h16q233 0 255 -211q1 -90 -11 -144q-73 -347 -377 -347l-52 -243q-9 -44 39 -60l-1 -8q-2 -6 -15 -12h-252q-6 0 -9 12v4q55 31 60 56l183 861q9 42 -31 60q-2 7 -1 16q3 14 196 16zM457 869l-85 -398h40q70 0 114 159l15 72q30 141 -35 171l-24 4h-16
q-8 -1 -9 -8z" />
    <glyph glyph-name="q" unicode="q" horiz-adv-x="622" 
d="M559 1024q138 0 169 -202q4 -91 -14 -235q-1 -4 -5 -4l-7 -50l-2 -12q-4 -17 -14 -45q-1 -5 3 -5q-45 -214 -161 -363l-2 -8q8 -29 34 -29q21 0 38 29h12q6 0 10 -12q-48 -128 -116 -128h-4q-60 0 -87 58h-8q-45 -13 -67 -13h-12q-184 0 -169 297q-3 42 29 231
q76 357 259 466q65 25 114 25zM366 570l-17 -82q-74 -347 10 -347h12q76 0 142 310l33 156q59 277 -21 277h-12q-80 0 -147 -314z" />
    <glyph glyph-name="r" unicode="r" horiz-adv-x="669" 
d="M526 1025q198 0 241 -147q17 -71 -2 -159q-41 -190 -162 -254q-6 -8 -7 -12q-12 -417 32 -417q25 -13 23 -20v-4q-2 -6 -15 -12h-196q-28 0 -22 68q1 189 18 345h-72l-71 -334q-9 -40 32 -55q3 -7 1 -16l-14 -8h-252q-6 0 -9 12v4q55 32 58 44q8 21 11 35l176 827
q13 63 -31 63l-5 12q6 28 266 28zM461 870l-68 -318h52q88 0 130 139l12 56q24 112 -76 131h-40q-9 -1 -10 -8z" />
    <glyph glyph-name="s" unicode="s" horiz-adv-x="548" 
d="M510 1024q15 0 104 -16q32 8 38 8q-7 -163 -11 -181q-14 -9 -25 -9h-8q7 37 -80 57h-44q-55 0 -87 -69l-8 -36q-14 -66 81 -206q98 -157 69 -294l-1 -4q-41 -192 -199 -258q-52 -16 -87 -16h-40l-101 16q-3 0 -32 -4q-2 106 20 210q8 4 17 4h4q20 -85 102 -85h28
q96 18 112 93l12 60q16 71 -127 287q-49 123 -31 209q39 185 234 234h60z" />
    <glyph glyph-name="t" unicode="t" horiz-adv-x="566" 
d="M254 1024l47 -4h412l41 4q-4 -75 -3 -184l-14 -8h-12q-21 40 -44 40h-120l-168 -792q-9 -41 32 -56q3 -7 1 -16l-14 -8h-252q-10 0 -9 16q2 9 42 24q19 18 27 56l165 776h-116q-36 0 -69 -44q-19 4 -17 16q56 147 71 180z" />
    <glyph glyph-name="u" unicode="u" horiz-adv-x="674" 
d="M277 1023h232q24 0 20 -20q-51 -17 -60 -56l-154 -728q-5 -72 56 -72h24q78 10 92 72l154 728q8 36 -32 56l4 16l20 4h224q6 0 10 -12l-1 -4q-50 -28 -55 -52l-163 -768q-4 -57 -5 -60q-164 -127 -295 -127q-139 0 -235 135l1 4q13 26 15 36l166 780q5 22 -33 52l1 4
q1 6 14 12z" />
    <glyph glyph-name="v" unicode="v" horiz-adv-x="656" 
d="M249 1024h244l-1 -20q-35 -15 -42 -32q-3 -14 -72 -749h12l1 4l247 745q1 15 -30 32l-2 8q6 8 7 12h236q7 -1 6 -8l-2 -8q-59 -32 -70 -84q-25 -82 -335 -920l-21 -4h-184q-36 0 -11 116l35 864l-34 28l1 4q1 6 15 12z" />
    <glyph glyph-name="w" unicode="w" horiz-adv-x="885" 
d="M226 1024h256q7 -1 6 -8l-3 -16q-43 -11 -46 -24q-6 -31 -79 -637h12q172 354 183 354h52q31 0 26 -87q20 -246 28 -263h4q169 550 186 629q4 19 -34 32l-2 8q6 8 7 12h260l-1 -20q-51 -16 -61 -64q-223 -653 -323 -936l-9 -4h-124q-31 0 -24 76l-25 275h-4
q-18 -15 -162 -311q-17 -40 -41 -40h-116q-17 0 6 199l54 781q-35 22 -33 32q6 8 7 12z" />
    <glyph glyph-name="x" unicode="x" horiz-adv-x="650" 
d="M282 1024h264l-1 -20q-43 -14 -47 -36q1 -240 14 -271h4q110 235 115 259l3 12q5 24 -29 36l2 8q6 8 7 12h248l-1 -20q-61 -25 -69 -64q-193 -343 -229 -418q50 -461 62 -482q34 -9 29 -32l-14 -8h-256q-6 0 -9 12q1 6 43 36l1 4q10 45 1 307h-4q-11 0 -125 -287l-3 -16
q-4 -20 28 -36l-2 -12l-14 -8h-240q-10 0 -9 16q2 6 47 32q46 64 259 482l1 4q-39 365 -60 454q-24 12 -29 12l3 16q3 8 10 8z" />
    <glyph glyph-name="y" unicode="y" horiz-adv-x="652" 
d="M241 1024h268q-1 -4 1 -12q-2 -8 -42 -28l-4 -20q-10 -372 1 -372h4q162 370 165 380q0 18 -34 32l-2 8q6 8 7 12h244l-1 -20q-52 -21 -60 -60q-290 -555 -295 -576l-60 -284q-9 -44 35 -60l-2 -12q-2 -6 -15 -12h-240q-20 0 -21 16q3 10 42 24q19 18 27 56l58 272
q-35 585 -52 620q-34 10 -31 24q6 8 7 12z" />
    <glyph glyph-name="z" unicode="z" horiz-adv-x="584" 
d="M304 1016l47 -4h352q24 0 31 -44l-437 -812l-2 -8h180q48 0 75 48h4l27 -4q-6 -25 -73 -192q-46 4 -67 4h-360q-32 3 -23 44l450 820h-176q-38 0 -82 -48h-4q-11 8 -18 8q6 27 76 188z" />
    <glyph glyph-name="braceleft" unicode="{" horiz-adv-x="1014" 
d="M679 1424q15 -4 11 -24l-8 -36q-6 -26 -63 -32q-86 -27 -98 -84l-76 -360q-25 -118 -146 -176l-1 -4q95 -44 74 -144q4 0 -4 -36l-69 -324q-16 -76 30 -104q80 -20 77 -32l-9 -44q-5 -24 -25 -24q-236 0 -249 164q3 53 14 104l67 316q12 55 -56 92q-3 7 -1 16l8 36
q6 28 56 40q39 33 47 68l66 312q43 203 172 244q83 32 183 32z" />
    <glyph glyph-name="bar" unicode="|" horiz-adv-x="1014" 
d="M327 1424h108q24 0 19 -24l-293 -1376q-5 -24 -29 -24h-108q-24 0 -19 24l293 1376q5 24 29 24z" />
    <glyph glyph-name="braceright" unicode="}" horiz-adv-x="1014" 
d="M323 1424q234 0 247 -156q6 -25 -14 -120l-66 -312q-13 -61 57 -88v-20l-8 -36q-4 -20 -71 -52q-28 -37 -32 -56l-67 -316q-41 -191 -165 -232q-92 -36 -188 -36q-15 4 -11 24l8 36q5 26 63 32q81 24 92 76q7 15 11 36l69 324q27 127 125 172q14 8 21 8l1 4
q-95 58 -70 176l72 340q17 82 -54 104q-58 7 -54 28l9 40q5 24 25 24z" />
    <glyph glyph-name="asciitilde" unicode="~" horiz-adv-x="1014" 
d="M560 929q82 0 261 -92h20q63 0 103 88l8 4h88q6 0 10 -12q-26 -120 -160 -224q-57 -28 -94 -28q-71 0 -250 84q-13 8 -30 8h-20q-53 0 -90 -84l-9 -4h-88q-10 0 -8 16q29 136 179 224q41 20 80 20z" />
    <glyph glyph-name="brokenbar" unicode="&#xa6;" horiz-adv-x="1014" 
d="M327 1424h108q24 0 19 -24l-119 -560q-2 -6 -15 -12h-132q-6 0 -9 12l119 560q5 24 29 24zM140 600h132q6 0 9 -12l-120 -564q-5 -24 -29 -24h-108q-24 0 -19 24l120 564q1 6 15 12z" />
    <glyph glyph-name="AE" unicode="&#xc6;" horiz-adv-x="917" 
d="M535 1432h404q24 0 19 -24q-2 -11 -43 -36l-6 -8l-1 -4q-2 -9 1 -16q-6 -8 -7 -12q-66 -1084 -72 -1260q17 -32 46 -32l-1 -20l-1 -4q-1 -6 -14 -12h-336q-6 0 -10 12l4 16q2 8 49 24q1 7 12 20q20 131 16 152h-12q-17 -11 -109 -24q-61 8 -115 24q-12 0 -56 -152
q-6 -27 41 -36l-1 -20l-1 -4q-1 -6 -14 -12h-316q-6 0 -10 12l4 16q54 31 57 44q75 185 470 1268l4 20q2 10 -32 36l2 12q4 20 28 20zM674 1180q-14 -29 -245 -736q29 -20 88 -20h24q48 0 77 24l68 732h-12zM1462 1441q0 -171 -5 -269q-34 -9 -35 -13q-5 0 -29 50
q-11 12 -32 20l-49 -4h-176l-27 4l-5 -8l-71 -330h188q93 4 105 61l14 8h20q6 0 10 -12l-68 -318q-1 -6 -15 -12h-20q-8 0 -13 48q-23 21 -60 21h-200l-101 -477h232q60 0 115 70q25 0 32 -17q-90 -233 -109 -269q-30 12 -66 12h-548q-6 0 -9 12l3 17q2 7 50 24q26 31 31 53
l259 1219q11 50 -46 65l-2 9l3 16q1 6 15 12h544q59 8 65 8z" />
    <glyph glyph-name="multiply" unicode="&#xd7;" horiz-adv-x="1014" 
d="M352 1111l155 -192q7 0 241 192q5 0 95 -120l-234 -196q-2 -7 149 -200v-4q-1 -5 -141 -116h-4l-155 192q-7 0 -241 -192h-4q-5 0 -91 116v4l234 196l1 4l-150 196q1 5 145 120z" />
    <glyph glyph-name="divide" unicode="&#xf7;" horiz-adv-x="1014" 
d="M508 1055h152q6 0 10 -12l-18 -84q-1 -6 -15 -12h-152q-6 0 -9 12l18 84q1 6 14 12zM219 859h648q24 0 18 -24l-27 -128q-5 -24 -29 -24h-648q-24 0 -19 24l27 128q6 24 30 24zM410 595h140q24 0 19 -24l-15 -72q-1 -6 -14 -12h-152q-6 0 -10 12l18 84q1 6 14 12z" />
    <glyph glyph-name="tilde" unicode="&#x2dc;" horiz-adv-x="1024" 
d="M420 921q82 0 260 -92h20q63 0 103 88l9 4h88q6 0 9 -12q-25 -120 -159 -224q-57 -28 -94 -28q-71 0 -250 84q-14 8 -31 8h-20q-53 0 -90 -84l-9 -4h-88q-10 0 -8 16q29 136 180 224q41 20 80 20z" />
    <glyph glyph-name="quoteleft" unicode="&#x2018;" horiz-adv-x="346" 
d="M406 1428h144l10 -8q-101 -336 -108 -336l-24 -4h-48q-32 0 -15 80q30 257 32 264z" />
    <glyph glyph-name="quoteright" unicode="&#x2019;" horiz-adv-x="346" 
d="M406 1428h144l10 -8q-101 -336 -108 -336l-24 -4h-48q-32 0 -15 80q30 257 32 264z" />
    <glyph glyph-name="quotesinglbase" unicode="&#x201a;" horiz-adv-x="346" 
d="M232 242q109 0 99 -140q-36 -169 -256 -260h-8q-11 0 -21 48q132 60 143 108l1 8q-122 8 -99 116q46 116 137 116q0 4 4 4z" />
    <glyph glyph-name="quotedblleft" unicode="&#x201c;" horiz-adv-x="555" 
d="M396 1429h144l10 -8q-100 -336 -107 -336l-25 -4h-48q-32 0 -15 80q30 257 32 264zM632 1429h144l10 -8q-100 -336 -107 -336l-25 -4h-48q-32 0 -15 80q30 257 32 264z" />
    <glyph glyph-name="quotedblright" unicode="&#x201d;" horiz-adv-x="555" 
d="M396 1429h144l10 -8q-100 -336 -107 -336l-25 -4h-48q-32 0 -15 80q30 257 32 264zM632 1429h144l10 -8q-100 -336 -107 -336l-25 -4h-48q-32 0 -15 80q30 257 32 264z" />
    <glyph glyph-name="quotedblbase" unicode="&#x201e;" horiz-adv-x="555" 
d="M166 347h144l10 -8q-100 -336 -107 -336l-25 -4h-48q-32 0 -15 80q30 257 32 264zM402 347h144l10 -8q-100 -336 -107 -336l-25 -4h-48q-32 0 -15 80q30 257 32 264z" />
    <glyph glyph-name="bullet" unicode="&#x2022;" horiz-adv-x="1024" 
d="M441 947q156 0 184 -172q1 -30 -4 -56q-33 -156 -219 -220q-32 -8 -58 -8q-156 0 -183 172q-2 30 4 56q33 156 219 220q31 8 57 8z" />
    <glyph glyph-name="ellipsis" unicode="&#x2026;" horiz-adv-x="309" 
d="M205 232q92 0 91 -120q-16 -75 -128 -112h-12q-70 0 -88 92q-1 16 2 28q52 112 135 112zM-134 232q92 0 91 -120q-16 -75 -128 -112h-12q-70 0 -88 92q-1 16 2 28q52 112 135 112zM523 232q92 0 91 -120q-16 -75 -128 -112h-12q-70 0 -88 92q-1 16 2 28q52 112 135 112z
" />
  </font>
</defs>
</svg>
