<?xml version="1.0" standalone="no"?>
<!DOCTYPE svg PUBLIC "-//W3C//DTD SVG 1.1//EN" "http://www.w3.org/Graphics/SVG/1.1/DTD/svg11.dtd" >
<svg xmlns="http://www.w3.org/2000/svg" xmlns:xlink="http://www.w3.org/1999/xlink" version="1.1">
<metadata>
Created by FontForge 20170731 at Sun Dec  6 16:37:33 2015
 By Aleksey,,,
Attribution-ShareAlike 4.0 International
</metadata>
<defs>
<font id="ScalySans-Italic" horiz-adv-x="587" >
  <font-face 
    font-family="Scaly Sans"
    font-weight="400"
    font-style="italic"
    font-stretch="normal"
    units-per-em="1000"
    panose-1="2 0 5 3 6 0 0 9 0 3"
    ascent="800"
    descent="-200"
    x-height="453"
    cap-height="660"
    bbox="-62 -256 1012 868"
    underline-thickness="37"
    underline-position="-201"
    slope="-12"
    unicode-range="U+001D-203A"
  />
<missing-glyph horiz-adv-x="250" 
 />
    <glyph glyph-name=".notdef" horiz-adv-x="250" 
 />
    <glyph glyph-name=".null" horiz-adv-x="0" 
 />
    <glyph glyph-name=".null" horiz-adv-x="0" 
 />
    <glyph glyph-name="nonmarkingreturn" horiz-adv-x="250" 
 />
    <glyph glyph-name="space" unicode=" " horiz-adv-x="250" 
 />
    <glyph glyph-name="space" unicode="&#xa0;" horiz-adv-x="250" 
 />
    <glyph glyph-name="exclam" unicode="!" horiz-adv-x="282" 
d="M207 44q-5 -23 -25.5 -40t-43.5 -17t-36.5 17t-8.5 40t25.5 40t43.5 17t36.5 -17t8.5 -40zM220 195h-76l109 541h88z" />
    <glyph glyph-name="numbersign" unicode="#" horiz-adv-x="626" 
d="M342 401l-53 -130h143l53 130h-143zM659 401h-112l-52 -130h114l-23 -57h-116l-86 -214h-62l86 214h-143l-88 -214h-61l88 214h-115l23 57h116l54 130h-116l22 57h116l83 200h60l-82 -200h143l82 200h62l-82 -200h111z" />
    <glyph glyph-name="dollar" unicode="$" horiz-adv-x="536" 
d="M438 162q8 35 2 49q-5 10 -50 54q-13 13 -22 13l-46 -215q46 8 77.5 35t38.5 64zM391 597q-105 -18 -121 -95q-10 -45 25 -72q31 -25 32 -26q6 -6 12.5 -11t7.5 -3zM569 548q-9 7 -16.5 11.5t-14 8.5t-14 7t-16.5 7q-11 4 -19 7t-16 4.5t-16.5 2.5t-20.5 2l-49 -230
q6 -5 10.5 -8l7.5 -5q36 -23 58 -39t32 -26q20 -19 27 -50.5t0 -67.5q-9 -41 -32 -76.5t-57 -59.5q-14 -10 -27 -17.5t-27 -12.5t-31 -9t-41 -7l-13 -59h-44l11 56q-43 2 -66.5 6.5t-46.5 15.5q-18 7 -32.5 17t-42.5 32l56 65q12 -9 21 -16t16.5 -12t14.5 -8.5t14 -7.5
q19 -9 35 -12.5t47 -5.5l51 240l-36 24q-34 23 -57 43t-35 40t-15 41t2 47q16 72 72.5 117t146.5 56l14 60h44l-13 -59q18 -1 31.5 -2t24 -2.5t21 -4t22.5 -6.5q19 -7 33 -15t39 -24z" />
    <glyph glyph-name="percent" unicode="%" horiz-adv-x="900" 
d="M454 495q5 24 0.5 44.5t-16.5 36.5t-31 25t-43 9t-46.5 -9t-41.5 -25t-32.5 -36.5t-18.5 -44.5t-0.5 -45t17 -36.5t31 -24.5t42.5 -9t47 9t41.5 24.5t32 36.5t18.5 45zM814 162q6 24 1 45t-17 36.5t-30.5 24.5t-42.5 9t-47 -9t-42 -24.5t-32 -36.5t-19 -45
q-5 -24 0 -44.5t17 -36t31 -24.5t43 -9t46.5 9t41.5 24.5t32 36t18 44.5zM514 495q-7 -36 -27.5 -68t-49.5 -56t-64 -37.5t-71 -13.5t-65 13.5t-47.5 37.5t-25.5 56t0 68q8 36 28.5 68t49.5 56t64 38t71 14t65 -14t47.5 -38t25.5 -56t-1 -68zM188 -44h-69l728 736h69z
M875 162q-7 -36 -28 -68t-49.5 -55.5t-63.5 -37.5t-71 -14t-65 14t-48 37.5t-25.5 55.5t0.5 68q8 36 28.5 68t49.5 56t64 37.5t71 13.5t65 -13.5t47.5 -37.5t25.5 -56t-1 -68z" />
    <glyph glyph-name="ampersand" unicode="&#x26;" horiz-adv-x="759" 
d="M335 342l-50 -34q-51 -35 -75.5 -64.5t-32.5 -67.5q-11 -55 18.5 -87.5t91.5 -32.5q40 0 76 14q16 7 32.5 16.5t51.5 33.5zM770 101q-12 -14 -21 -24t-16.5 -17.5t-15 -14t-15.5 -13.5q-54 -44 -110 -44q-14 0 -26.5 2.5t-23.5 7.5q-19 8 -33.5 22.5t-37.5 46.5
q-55 -43 -104.5 -61.5t-109.5 -18.5q-46 0 -80 13t-55.5 36.5t-29 56.5t0.5 74q6 26 17.5 48.5t30.5 45t47.5 46.5t70.5 53l50 35q-8 14 -14.5 26t-12.5 23q-21 40 -26.5 68.5t1.5 61.5q8 37 28.5 67.5t50.5 52.5t68.5 34t82.5 12q40 0 71 -10.5t51 -29t27.5 -45t0.5 -57.5
q-7 -33 -37.5 -68.5t-80.5 -67.5l-53 -34l-28 50l46 30q34 23 51 42.5t23 45.5q7 35 -16.5 57.5t-68.5 22.5q-49 0 -87.5 -27.5t-47.5 -69.5q-3 -13 -1 -30q0 -12 1.5 -21t5.5 -20.5t11.5 -27t20.5 -39.5l135 -266q15 12 25 22t18 19t14.5 18t13.5 20q6 11 12 21.5t10.5 22
t9.5 26.5t11 35h69q-7 -23 -12.5 -39.5t-10.5 -30t-11 -25t-14 -23.5q-9 -15 -18.5 -28t-22 -26.5t-29 -28.5l-38.5 -35q22 -38 39 -52t40 -14q24 0 48 16.5t63 60.5z" />
    <glyph glyph-name="quotesingle" unicode="'" horiz-adv-x="220" 
d="M169 434l48 226h69l-48 -226h-69z" />
    <glyph glyph-name="parenleft" unicode="(" horiz-adv-x="318" 
d="M183 -245q-10 16 -16.5 28t-11 26.5t-9.5 33t-10 48.5q-18 82 -18 160t18 162q18 83 50.5 159.5t86.5 161.5q21 33 34 53.5t23.5 33.5t20.5 23t26 22h75q-38 -35 -74 -86.5t-66.5 -112t-55 -127t-37.5 -130.5q-14 -65 -18 -131t1 -126.5t19 -111.5t37 -86h-75z" />
    <glyph glyph-name="parenright" unicode=")" horiz-adv-x="324" 
d="M277 213q-17 -83 -49 -158.5t-87 -163.5q-17 -27 -29.5 -45.5t-23.5 -33t-23 -27.5t-29 -30h-75q37 35 73 86t67 111.5t55 126.5t38 131q13 64 17.5 130.5t-1 127t-19.5 112t-36 86.5h75q9 -12 15.5 -22t11 -23t9.5 -33.5t12 -53.5q16 -85 16.5 -161.5t-17.5 -159.5z" />
    <glyph glyph-name="asterisk" unicode="*" horiz-adv-x="523" 
d="M200 232l-49 42l132 132l41 -34zM280 425l-152 46l37 68l146 -58zM405 232l-64 140l55 35l75 -133zM387 491h-58l30 169h71zM405 425l-7 56l172 58l7 -68z" />
    <glyph glyph-name="plus" unicode="+" horiz-adv-x="549" 
d="M335 208l-44 -208h-56l44 208h-209l12 57h209l45 209h56l-45 -209h209l-12 -57h-209z" />
    <glyph glyph-name="comma" unicode="," horiz-adv-x="212" 
d="M165 36q-5 -23 -20 -53q-5 -11 -11.5 -22t-14.5 -23t-18 -26t-24 -33l-18 -24h-44q11 16 17 26.5t17 30.5q5 10 9.5 17.5t7 14t6 13.5t7.5 17l-20 108q19 11 32 14.5t30 3.5q57 0 44 -64z" />
    <glyph glyph-name="hyphen" unicode="-" horiz-adv-x="300" 
d="M90 190l17 76h191l-17 -76h-191z" />
    <glyph glyph-name="hyphen" unicode="&#xad;" horiz-adv-x="300" 
d="M90 190l17 76h191l-17 -76h-191z" />
    <glyph glyph-name="period" unicode="." horiz-adv-x="198" 
d="M154 45q-6 -24 -26 -40.5t-43 -16.5q-24 0 -37 16.5t-7 40.5q4 23 24 39.5t44 16.5q23 0 36 -16.5t9 -39.5z" />
    <glyph glyph-name="slash" unicode="/" horiz-adv-x="347" 
d="M7 -245h-69l444 905h69z" />
    <glyph glyph-name="zero" unicode="0" 
d="M547 321q12 54 8 100t-20 81t-43 55.5t-63 20.5t-72 -20.5t-67.5 -55.5t-54.5 -81t-35 -100q-11 -53 -7.5 -100t20 -82t44 -55t63.5 -20t71.5 20t66.5 55t54.5 82t34.5 100zM622 321q-15 -70 -47.5 -132t-75.5 -107.5t-94.5 -72.5t-102.5 -27q-52 0 -91.5 27t-63.5 72.5
t-30.5 107.5t8.5 132t48 132.5t76 108t94 72.5t103 27q51 0 91 -27t64 -72.5t30 -108t-9 -132.5z" />
    <glyph glyph-name="one" unicode="1" 
d="M279 0l122 575h-151l19 87h251l-141 -662h-100z" />
    <glyph glyph-name="two" unicode="2" 
d="M86 0l11 52l290 274q62 57 78 132q11 50 -7 81t-57 31q-17 0 -36.5 -7t-34.5 -18q-10 -7 -17 -13t-16 -15.5t-22.5 -24t-34.5 -38.5l-40 52q22 26 35.5 41.5t22.5 25.5t16.5 17t18.5 16q29 26 64.5 40.5t70.5 14.5q73 0 104.5 -54t11.5 -145q-10 -49 -30 -87
q-8 -15 -17 -28.5t-23 -29.5t-34 -35.5t-50 -48.5l-161 -147h277l-18 -86h-402z" />
    <glyph glyph-name="three" unicode="3" 
d="M501 220q-12 -55 -43.5 -99t-78 -75.5t-107.5 -48.5t-131 -17h-25l13 64q35 1 60.5 3t47 6.5t40 11t37.5 16.5q44 22 73.5 56.5t37.5 75.5q13 58 -17 89t-98 31h-50l11 55q81 17 130 53.5t60 89.5q8 36 -7.5 57.5t-49.5 21.5q-13 0 -25 -2.5t-26 -9t-31.5 -17
t-39.5 -26.5l-33 50q13 10 24 17.5t20 12.5q32 19 69 30t70 11q61 0 89 -37t15 -100q-23 -104 -133 -154q20 -7 30 -11t19 -10q34 -21 46.5 -58t2.5 -86z" />
    <glyph glyph-name="four" unicode="4" 
d="M457 498l-220 -229l-23 -21l26 5h179l51 244l8 31zM477 190l-44 -210h-72l44 210h-315l4 19l451 465h35l-89 -421h116l-14 -63h-116z" />
    <glyph glyph-name="five" unicode="5" 
d="M500 225q-13 -60 -50 -109.5t-92 -80.5q-45 -26 -102 -37q-14 -3 -25.5 -4.5t-24 -3t-29 -2.5t-38.5 -2l13 63q26 1 43 2.5t30.5 3.5t25.5 5t27 7q57 17 94 56.5t49 96.5q16 77 -19 119q-15 17 -41 25t-72 10l-48 2l64 302h271l-13 -63h-199l-38 -176l39 -3
q82 -7 118.5 -62.5t16.5 -148.5z" />
    <glyph glyph-name="six" unicode="6" 
d="M481 202q6 28 2 51.5t-16 40.5t-32 26.5t-46 9.5q-11 0 -27.5 -2.5t-33.5 -6.5q-13 -3 -24.5 -6.5t-23.5 -8t-25 -10t-31 -13.5l-6 -24t-3 -16q-10 -44 -7.5 -80.5t16 -62.5t36 -40t54.5 -14q28 0 55 12t49.5 33t39 49.5t23.5 61.5zM549 210q-11 -50 -35 -92.5t-57.5 -73
t-74 -48t-84.5 -17.5q-49 0 -84.5 20t-55 57t-23 90t11.5 120q37 178 159 300q55 54 113.5 79t131.5 25q15 0 28 -1t37 -3l-14 -62q-18 2 -28 2.5t-24 0.5q-23 0 -45 -2.5t-38 -7.5q-58 -18 -116 -74q-20 -20 -35 -37t-28 -37t-24.5 -44.5t-25.5 -58.5q29 13 40 17.5t22 8.5
q33 12 62.5 17.5t55.5 5.5q38 0 66 -13.5t45.5 -38t22.5 -58.5t-3 -75z" />
    <glyph glyph-name="seven" unicode="7" 
d="M395 265q-15 -24 -33 -51t-42 -57q-19 -26 -34.5 -45t-31.5 -36.5t-34.5 -36.5t-44.5 -44l-48 49q18 16 30.5 28t20.5 20q44 45 88 101.5t75 109.5l177 296h-297l15 69h390l-8 -38z" />
    <glyph glyph-name="eight" unicode="8" 
d="M452 156q6 27 -4 51.5t-38 56.5l-51 57l-74 -51q-76 -52 -89 -114q-11 -51 15.5 -78t86.5 -27q62 0 103 28t51 77zM508 540q7 36 -16 57.5t-71 21.5q-45 0 -78.5 -24.5t-41.5 -62.5q-9 -43 31 -85l44 -45l65 45q26 18 43.5 43t23.5 50zM531 149q-8 -36 -30 -66t-55 -52
t-75 -34t-90 -12q-45 0 -79 12t-56 33.5t-30 51.5t-1 66q9 40 32 72q14 19 40 44t47 39l83 55l-53 55q-16 16 -26 29.5t-15 26.5t-5 26t4 30q7 34 26.5 62t48.5 48.5t65.5 31.5t78.5 11q39 0 69.5 -10t49.5 -28t26.5 -43.5t1.5 -56.5q-15 -68 -89 -119l-80 -56l67 -70
q14 -13 26 -35q19 -29 22.5 -52.5t-3.5 -58.5z" />
    <glyph glyph-name="nine" unicode="9" 
d="M524 412q9 45 7 81.5t-15 62.5t-36 40t-55 14q-28 0 -55 -12t-49.5 -33t-39 -50t-23.5 -62q-12 -56 13.5 -92t78.5 -36q11 0 27 2t34 7q26 6 47.5 14t55.5 24l6 24zM592 389q-19 -88 -59 -163.5t-100 -135.5q-54 -54 -113.5 -79.5t-132.5 -25.5q-15 0 -27.5 1t-35.5 3
l13 63q18 -2 27.5 -3t23.5 -1q49 0 85 11q27 8 56.5 27t58.5 46q20 19 35.5 36.5t28 37.5t24.5 45t25 59q-29 -13 -40.5 -17.5t-22.5 -8.5q-64 -24 -118 -24q-38 0 -66 13.5t-45.5 38t-22.5 58.5t4 75q10 50 34 92.5t57.5 73.5t74.5 48.5t85 17.5q100 0 139.5 -76.5
t11.5 -211.5z" />
    <glyph glyph-name="colon" unicode=":" horiz-adv-x="254" 
d="M190 45q-6 -24 -26 -40.5t-43 -16.5q-24 0 -37 16.5t-7 40.5q4 23 24 39.5t44 16.5q23 0 36 -16.5t9 -39.5zM267 409q-5 -24 -25 -40.5t-43 -16.5q-24 0 -37 16.5t-8 40.5q5 23 25 39.5t44 16.5q23 0 36 -16.5t8 -39.5z" />
    <glyph glyph-name="semicolon" unicode=";" horiz-adv-x="263" 
d="M190 36q-5 -23 -20 -53q-11 -23 -24.5 -45t-43.5 -59l-19 -24h-44q12 16 17.5 26.5t16.5 30.5l10.5 17.5t7 14t6 13.5t7.5 17l-20 108q19 11 31.5 14.5t30.5 3.5q57 0 44 -64zM276 409q-5 -24 -25 -40.5t-44 -16.5q-23 0 -36 16.5t-8 40.5q5 23 25 39.5t43 16.5
q24 0 37 -16.5t8 -39.5z" />
    <glyph glyph-name="semicolon" unicode="&#x37e;" horiz-adv-x="263" 
d="M190 36q-5 -23 -20 -53q-11 -23 -24.5 -45t-43.5 -59l-19 -24h-44q12 16 17.5 26.5t16.5 30.5l10.5 17.5t7 14t6 13.5t7.5 17l-20 108q19 11 31.5 14.5t30.5 3.5q57 0 44 -64zM276 409q-5 -24 -25 -40.5t-44 -16.5q-23 0 -36 16.5t-8 40.5q5 23 25 39.5t43 16.5
q24 0 37 -16.5t8 -39.5z" />
    <glyph glyph-name="less" unicode="&#x3c;" horiz-adv-x="568" 
d="M79 210l11 54l517 210l-14 -63l-433 -174l359 -174l-13 -63z" />
    <glyph glyph-name="equal" unicode="=" horiz-adv-x="632" 
d="M91 134l13 57h500l-13 -57h-500zM121 273l12 57h500l-12 -57h-500z" />
    <glyph glyph-name="greater" unicode="&#x3e;" horiz-adv-x="585" 
d="M65 0l13 63l433 174l-359 174l14 63l427 -210l-11 -54z" />
    <glyph glyph-name="question" unicode="?" horiz-adv-x="416" 
d="M196 45q-6 -24 -26 -40.5t-43 -16.5q-24 0 -37 16.5t-7 40.5q4 23 24 39.5t44 16.5q23 0 36 -16.5t9 -39.5zM443 446q-8 -39 -23.5 -66t-43.5 -50q-13 -11 -23 -17.5t-20 -10t-22.5 -5t-29.5 -1.5h-51l-23 -107h-75l38 176h151q20 23 29 39t14 40q10 43 3 80.5t-27 66
t-54 47t-78 24.5l41 76q21 -5 36 -8.5t26.5 -8t21.5 -9.5t21 -12q29 -19 49 -46.5t32 -60.5t14 -70.5t-6 -76.5z" />
    <glyph glyph-name="at" unicode="@" horiz-adv-x="964" 
d="M662 398q-24 8 -41 12t-34 4q-32 0 -64.5 -21.5t-61.5 -58.5t-51.5 -86.5t-34.5 -105.5q-13 -62 18 -62q10 0 31.5 13.5t50.5 38.5q12 10 26 24.5t31 32.5q40 45 65 80t41 74zM939 265q-13 -63 -41.5 -114t-68.5 -86.5t-90 -54.5t-108 -19q-104 0 -84 95q2 10 7 24.5
t12 31.5l10 23q-31 -39 -63 -70t-64.5 -52.5t-62.5 -33.5t-55 -12q-30 0 -39.5 40t5.5 108q15 70 46 131t72.5 106t89.5 70.5t98 25.5q13 0 27.5 -1.5t31.5 -3.5q11 -2 20 -4t19 -4.5t21 -6t26 -8.5l-122 -326q-5 -14 -8 -24.5l-5 -17.5q-3 -18 10 -30t36 -12q10 0 24 3.5
t28 8.5q130 53 163 207q14 66 1.5 123.5t-46.5 100t-87 67t-119 24.5q-77 0 -148 -26.5t-128.5 -73.5t-98 -112t-56.5 -142q-18 -82 -2 -143t68 -109q39 -37 84 -52.5t111 -15.5q23 0 42 1.5t38 5.5t38.5 10.5t42.5 15.5l10 -59q-25 -11 -36 -15q-67 -24 -151 -24
q-42 0 -76 4.5t-63 15t-54 27t-48 39.5q-59 57 -76 129t3 168q20 93 67.5 170t115.5 133t151.5 87t176.5 31q85 0 149.5 -27.5t105 -77t54.5 -118.5t-4 -151z" />
    <glyph glyph-name="A" unicode="A" horiz-adv-x="613" 
d="M421 572l-173 -302h215zM500 0l-27 195h-267l-109 -195h-88l390 679h88l101 -679h-88z" />
    <glyph glyph-name="B" unicode="B" horiz-adv-x="577" 
d="M457 182q12 58 -18 89t-98 31h-113l-49 -233h113q45 0 68 5.5t43 19.5q19 14 33.5 38t20.5 50zM497 491q11 49 -10 76q-11 14 -28.5 19t-55.5 5h-113l-46 -214h107q18 0 31.5 1.5t24.5 5t21 9t19 13.5q39 32 50 85zM542 176q-8 -39 -28 -71.5t-48.5 -56t-64 -36
t-75.5 -12.5h-244l140 660h214q48 0 75.5 -9t48.5 -32q19 -23 26 -54.5t0 -66.5q-12 -54 -50.5 -94t-94.5 -58q63 -13 89.5 -57t11.5 -113z" />
    <glyph glyph-name="C" unicode="C" horiz-adv-x="594" 
d="M652 547q-32 26 -67.5 38t-83.5 12q-53 0 -101 -19t-87 -53.5t-67 -82t-40 -104.5q-13 -62 -6 -113t33 -87t69 -55.5t101 -19.5q42 0 78.5 7t80.5 24l9 -64q-16 -7 -28 -11.5t-23 -8t-21.5 -6.5t-22.5 -6q-27 -6 -49 -8.5t-45 -2.5q-75 0 -132 25.5t-92 71.5t-46.5 109.5
t4.5 139.5q15 72 53.5 134t93 107.5t120.5 71.5t137 26q63 0 119 -22q20 -8 33 -16t34 -25z" />
    <glyph glyph-name="D" unicode="D" horiz-adv-x="698" 
d="M619 334q12 55 2.5 102t-37 81.5t-70.5 54t-99 19.5h-125l-111 -522h125q65 0 108.5 14t81.5 46q22 19 42.5 43.5t36.5 51.5t28 55t18 55zM705 333q-14 -65 -50 -126.5t-90 -110.5q-56 -52 -117 -74t-147 -22h-219l140 660h220q72 0 128 -24.5t91 -68t47 -103.5t-3 -131z
" />
    <glyph glyph-name="E" unicode="E" horiz-adv-x="511" 
d="M82 0l140 660h371l-14 -69h-289l-47 -220h239l-15 -69h-239l-49 -233h298l-15 -69h-380z" />
    <glyph glyph-name="F" unicode="F" horiz-adv-x="485" 
d="M290 591l-48 -226h239l-15 -70h-239l-63 -295h-82l140 660h371l-14 -69h-289z" />
    <glyph glyph-name="G" unicode="G" horiz-adv-x="680" 
d="M616 25q-17 -6 -30 -10t-21 -6q-36 -11 -82.5 -16.5t-88.5 -5.5q-75 0 -133 26.5t-96 72.5t-51.5 109t1.5 136q16 73 55.5 135.5t96 108t126 71t144.5 25.5q35 0 72 -4t61 -11q21 -6 35 -13t38 -22l-45 -68q-11 7 -18.5 11t-13.5 7q-26 12 -61.5 19t-75.5 7
q-70 0 -122 -19.5t-100 -64.5q-39 -36 -65.5 -81.5t-36.5 -94.5q-13 -60 -2.5 -110.5t41.5 -87t79 -57.5t110 -21q25 0 47.5 3t64.5 11l47 220h82z" />
    <glyph glyph-name="H" unicode="H" horiz-adv-x="729" 
d="M553 0l64 302h-389l-64 -302h-82l140 660h82l-60 -283h389l60 283h82l-140 -660h-82z" />
    <glyph glyph-name="I" unicode="I" horiz-adv-x="258" 
d="M82 0l140 660h82l-140 -660h-82z" />
    <glyph glyph-name="J" unicode="J" horiz-adv-x="264" 
d="M165 -19q-11 -21 -19 -36.5t-16.5 -28.5t-18 -25.5t-22.5 -27.5q-12 -14 -22.5 -25.5t-21.5 -22t-24.5 -22t-33.5 -26.5l-43 45q21 19 35.5 32.5t25 24t18 19.5t14.5 19q20 29 36.5 67t25.5 83l128 603h82z" />
    <glyph glyph-name="K" unicode="K" horiz-adv-x="552" 
d="M82 0l140 660h82l-140 -660h-82zM434 0l-193 333l327 327h94l-326 -321l199 -339h-101z" />
    <glyph glyph-name="L" unicode="L" horiz-adv-x="484" 
d="M82 0l140 660h82l-125 -591h295l-15 -69h-377z" />
    <glyph glyph-name="M" unicode="M" horiz-adv-x="836" 
d="M660 0l123 578q-6 -13 -10 -22t-8.5 -17.5t-10.5 -18.5t-13 -23l-301 -497h-75l-79 484q-2 14 -3.5 23.5t-2.5 19t-1.5 20t0.5 25.5l-122 -572h-75l140 660h113l89 -528q4 -20 3.5 -28t-1.5 -22q8 20 11.5 28t11.5 22l320 528h113l-140 -660h-82z" />
    <glyph glyph-name="N" unicode="N" horiz-adv-x="717" 
d="M527 -6l-224 515q-1 4 -3.5 9.5t-4.5 13.5q-2 5 -3 8.5t-2 6.5q-2 5 -3 10t-1 15l-122 -572h-82l140 660h107l220 -503q2 -3 3.5 -7t2.5 -9q1 -8 2 -12t4 -18v-4.5t1 -5.5l119 559h82l-141 -666h-95z" />
    <glyph glyph-name="O" unicode="O" horiz-adv-x="772" 
d="M688 330q12 55 3.5 104.5t-34 86t-64.5 58t-88 21.5q-50 0 -99 -21.5t-89.5 -58t-70 -86t-41.5 -104.5q-12 -56 -3.5 -105.5t34 -86t65 -58t89.5 -21.5q49 0 97.5 21.5t89 58t70 86t41.5 105.5zM778 330q-16 -75 -53.5 -137.5t-92 -108.5t-120.5 -71.5t-138 -25.5
t-127.5 25.5t-89.5 71.5t-46 108.5t4 137.5q16 74 54.5 137t92 108.5t120 71t138.5 25.5t127 -25.5t90 -71t46 -108.5t-5 -137z" />
    <glyph glyph-name="P" unicode="P" horiz-adv-x="559" 
d="M514 460q14 66 -15 103q-12 15 -34 21.5t-62 6.5h-113l-58 -272q33 -4 51.5 -5t35.5 -1q54 0 88 13q39 15 68 51t39 83zM600 465q-11 -52 -36.5 -93t-62 -70t-83.5 -44.5t-101 -15.5q-10 0 -18.5 0.5t-19.5 1.5t-25.5 2.5t-36.5 3.5l-53 -250h-82l140 660h207
q60 0 94 -11.5t56 -40.5q21 -26 26 -61t-5 -82z" />
    <glyph glyph-name="Q" unicode="Q" horiz-adv-x="772" 
d="M689 330q12 55 3.5 104.5t-34 86t-64.5 58t-89 21.5t-99 -21.5t-89.5 -58t-70.5 -86t-42 -104.5q-12 -56 -3.5 -105.5t34 -86t65.5 -58t90 -21.5t98.5 21.5t89 58t70 86t41.5 105.5zM778 329q-14 -65 -45.5 -122t-77 -101.5t-103 -75t-123.5 -42.5q8 -13 12.5 -19.5
t12.5 -18.5q22 -29 44 -48q11 -10 21 -18t21.5 -15t25.5 -14.5t35 -17.5l-59 -63q-21 13 -37 23t-28.5 19t-24 18.5t-24.5 21.5q-14 13 -25 25.5t-21 26t-19 28.5t-21 34l-11 17q-14 3 -24.5 4.5t-18.5 3.5t-14.5 4t-14.5 5q-44 16 -76 48t-51.5 75.5t-24 95t7.5 107.5
q16 74 54 137t92 108.5t120.5 71t138.5 25.5t127 -25.5t89.5 -71.5t46 -108.5t-4.5 -137.5z" />
    <glyph glyph-name="R" unicode="R" horiz-adv-x="577" 
d="M505 481q13 62 -16 91q-7 6 -14 9.5t-17 6t-24.5 3t-36.5 0.5h-107l-51 -239h107q132 0 159 129zM434 0l-122 283h-88l-60 -283h-82l140 660h201q30 0 52.5 -2.5t39.5 -8t30 -15t24 -23.5q19 -23 26 -57t-2 -72q-8 -39 -30.5 -75t-56.5 -62q-24 -20 -48 -31t-62 -19
l132 -295h-94z" />
    <glyph glyph-name="S" unicode="S" horiz-adv-x="506" 
d="M550 548q-22 15 -34 22t-27 12q-18 6 -43 10t-45 4q-57 0 -97 -25.5t-49 -67.5q-4 -18 -0.5 -33t18 -31t42.5 -35t72 -46q62 -37 90 -67q20 -20 26.5 -52t-1.5 -68q-18 -85 -87 -134.5t-169 -49.5q-67 0 -117 22q-18 7 -32.5 17t-42.5 32l56 65q24 -19 37.5 -27.5
t29.5 -15.5q41 -17 91 -17q59 0 97.5 26t49.5 74q6 30 0 47q-11 32 -45 54q-7 5 -31.5 19t-65.5 40q-67 40 -91 81t-14 92q9 39 31.5 71.5t55.5 55.5t76.5 35.5t92.5 12.5q29 0 56 -4t51 -12q19 -7 33 -15t39 -24z" />
    <glyph glyph-name="T" unicode="T" horiz-adv-x="509" 
d="M450 591l-126 -591h-82l126 591h-220l14 69h522l-14 -69h-220z" />
    <glyph glyph-name="U" unicode="U" horiz-adv-x="658" 
d="M638 226q-14 -66 -40.5 -108t-74.5 -76q-88 -61 -194 -61q-107 0 -169 61q-35 34 -43.5 76.5t5.5 107.5l92 434h82l-87 -409q-6 -31 -9 -51.5t-2.5 -36t5.5 -27.5t15 -25q38 -57 125 -57t151 57q14 13 24 25t17.5 27.5t13.5 36t12 51.5l87 409h82z" />
    <glyph glyph-name="V" unicode="V" horiz-adv-x="610" 
d="M330 -17h-50l-116 677h88l86 -515q0 -7 0.5 -14.5t-0.5 -17.5q2 9 5 16.5t8 15.5l297 515h82z" />
    <glyph glyph-name="W" unicode="W" horiz-adv-x="892" 
d="M619 -13h-51l-52 312l-187 -312h-44l-121 673h88l86 -545l162 271l-46 274h75l30 -173l103 173h68l-156 -262l48 -282l309 544h81z" />
    <glyph glyph-name="X" unicode="X" horiz-adv-x="599" 
d="M480 0l-125 269l-241 -269h-95l303 337l-152 323h94l121 -254l227 254h93l-290 -324l159 -336h-94z" />
    <glyph glyph-name="Y" unicode="Y" horiz-adv-x="518" 
d="M376 308l-65 -308h-82l64 302l-144 358h88l117 -283l242 283h87z" />
    <glyph glyph-name="Z" unicode="Z" horiz-adv-x="583" 
d="M44 0l8 38l500 553h-382l14 69h494l-9 -44l-498 -547h400l-15 -69h-512z" />
    <glyph glyph-name="bracketleft" unicode="[" horiz-adv-x="250" 
d="M21 -245l192 905h164l-12 -56h-88l-168 -793h88l-12 -56h-164z" />
    <glyph glyph-name="backslash" unicode="\" horiz-adv-x="409" 
d="M243 -245l-60 905h69l60 -905h-69z" />
    <glyph glyph-name="bracketright" unicode="]" horiz-adv-x="250" 
d="M-39 -245l12 56h88l168 793h-88l12 56h164l-192 -905h-164z" />
    <glyph glyph-name="asciicircum" unicode="^" horiz-adv-x="522" 
d="M435 1l-90 395l-258 -395h-63l311 472h54l109 -472h-63z" />
    <glyph glyph-name="underscore" unicode="_" horiz-adv-x="500" 
d="M-12 -57l12 57h500l-12 -57h-500z" />
    <glyph glyph-name="a" unicode="a" horiz-adv-x="437" 
d="M354 207l-179 -44q-12 -16 -16.5 -25.5t-7.5 -23.5q-6 -27 7.5 -43t41.5 -16q13 0 25 2.5t27 9t34.5 17.5t47.5 29zM402 -13q-46 3 -62 17t-12 46q-21 -15 -32.5 -22.5t-23.5 -13.5q-24 -12 -51 -19t-51 -7q-55 0 -81 32.5t-14 86.5q10 50 42.5 82t85.5 44l164 37l18 82
q12 56 -74 56q-69 0 -78 -39q-1 -6 1 -17l-80 -16q-3 9 -3 14.5t1 13.5q10 45 61 73t124 28q69 0 102 -30t22 -83l-52 -245l-7 -33q-1 -18 32 -24z" />
    <glyph glyph-name="b" unicode="b" horiz-adv-x="539" 
d="M456 244q15 71 -11.5 110.5t-89.5 39.5q-32 0 -60 -8.5t-60 -27.5l-61 -289q14 -8 28.5 -11t34.5 -3q22 0 40 4q20 4 40 12.5t38 19.5q44 27 66.5 61.5t34.5 91.5zM539 247q-13 -59 -42 -107t-71 -82t-95 -52.5t-113 -18.5q-20 0 -45.5 3t-43.5 7q-11 3 -19.5 5.5
t-22.5 10.5l152 716h75l-63 -295q20 9 31 13t26 8q18 5 42 7.5t45 2.5q43 0 74.5 -15.5t50.5 -44t24 -69t-5 -89.5z" />
    <glyph glyph-name="c" unicode="c" horiz-adv-x="482" 
d="M440 35q-11 -6 -19.5 -10.5t-13.5 -6.5q-64 -31 -133 -31q-52 0 -91 17t-62.5 48t-31.5 74t3 95q11 54 38 98.5t65.5 77t86 50.5t99.5 18q34 0 65 -9q21 -6 34 -13.5t33 -23.5l-56 -61q-21 22 -42 30.5t-52 8.5q-69 0 -120.5 -47.5t-67.5 -124.5q-17 -78 16 -123.5
t106 -45.5q33 0 59 8.5t58 29.5z" />
    <glyph glyph-name="d" unicode="d" horiz-adv-x="532" 
d="M447 295q5 26 6 37.5t-3 22.5q-11 38 -82 38q-72 0 -125.5 -48t-70.5 -130q-8 -34 -5 -63t14.5 -50t31.5 -32.5t46 -11.5q20 0 45.5 8t49.5 23q15 9 27 19t32 30zM384 0l12 57q-37 -34 -79.5 -52t-85.5 -18q-42 0 -73 16.5t-49.5 46.5t-23.5 72t5 92q12 55 39 101
t65 79.5t84.5 52t96.5 18.5q36 0 59.5 -7t41.5 -24l63 295h76l-155 -729h-76z" />
    <glyph glyph-name="e" unicode="e" horiz-adv-x="487" 
d="M413 289q11 53 -8.5 80.5t-66.5 27.5q-48 0 -85 -27.5t-62 -80.5h222zM174 233q-18 -83 11.5 -130t98.5 -47q30 0 57.5 9.5t69.5 35.5l18 -59q-28 -16 -51 -26.5t-43.5 -17t-40 -9t-41.5 -2.5q-47 0 -82.5 17t-56.5 48.5t-26.5 75.5t5.5 98q12 54 36.5 98t59.5 75.5
t78 48.5t91 17q40 0 69 -13.5t47 -38t23 -59.5t-4 -77l-9 -44h-310z" />
    <glyph glyph-name="f" unicode="f" horiz-adv-x="310" 
d="M510 654q-22 8 -38 11.5t-33 3.5q-115 0 -149 -160l-12 -56h107l-13 -63h-107l-83 -390h-75l83 390h-76l9 44l80 19l16 75q10 48 32 87t53.5 66.5t70.5 42.5t84 15q29 0 50.5 -5t44.5 -17z" />
    <glyph glyph-name="g" unicode="g" horiz-adv-x="515" 
d="M385 -71q10 46 -49 46h-169l-20 -23q-29 -34 -40.5 -50.5t-14.5 -29.5q-6 -26 20.5 -42t72.5 -16q34 0 68.5 9.5t61.5 25t46 36.5t24 44zM393 295q5 24 1.5 44.5t-14 35.5t-27.5 24t-38 9t-41 -9t-37 -24.5t-29 -36t-17 -43.5t-1.5 -43.5t14 -36t27 -24.5t37.5 -9t41 8.5
t37 24t29.5 36t17.5 44.5zM468 390q18 -41 7 -94q-8 -35 -28.5 -66t-49 -54t-63.5 -37t-71 -14q-5 0 -11.5 0.5t-16.5 1.5q-2 0 -6 0.5t-9 0.5q-37 -26 -54 -42t-19 -26q-2 -9 5.5 -12.5t28.5 -3.5h169q63 0 87.5 -25.5t12.5 -80.5q-9 -40 -35 -74.5t-65 -60.5t-87 -41
t-99 -15q-36 0 -66 8.5t-51 23.5t-31 35t-6 42q4 19 24 47q14 19 29.5 35t47.5 43q-33 10 -45.5 22t-8.5 32q5 22 32 48.5t81 64.5q-77 47 -56 144q8 38 28.5 70t49.5 55t64.5 35.5t75.5 12.5q12 0 22 -1t21 -3t22 -5.5t27 -9.5h69l83 7l-13 -63h-95z" />
    <glyph glyph-name="h" unicode="h" horiz-adv-x="533" 
d="M385 0l68 321q5 23 6 33t-2 20q-5 24 -39 24q-35 0 -81.5 -28t-118.5 -93l-59 -277h-75l155 729h75l-79 -371q15 13 24.5 22t17 15.5t15.5 12t17 12.5q31 22 65.5 33.5t66.5 11.5q119 0 92 -126l-72 -339h-76z" />
    <glyph glyph-name="i" unicode="i" horiz-adv-x="249" 
d="M90 0l96 453h75l-96 -453h-75zM307 611q-4 -20 -22 -34.5t-38 -14.5t-31 14.5t-7 34.5t21.5 34.5t37.5 14.5t31.5 -14.5t7.5 -34.5z" />
    <glyph glyph-name="j" unicode="j" horiz-adv-x="264" 
d="M143 -75q-12 -19 -21 -32.5t-17.5 -25t-16.5 -22t-18 -22.5q-9 -12 -17 -21t-16 -17.5t-17.5 -18t-21.5 -22.5l-41 42q16 18 27 30t19.5 22t15.5 19t15 21q19 26 30 53t19 63l97 459h75zM300 612q-4 -20 -21.5 -34.5t-37.5 -14.5t-31.5 14.5t-7.5 34.5t21.5 34.5
t37.5 14.5t31.5 -14.5t7.5 -34.5z" />
    <glyph glyph-name="k" unicode="k" horiz-adv-x="468" 
d="M84 0l155 729h75l-155 -729h-75zM348 0l-135 246l231 207h98l-237 -208l142 -245h-99z" />
    <glyph glyph-name="l" unicode="l" horiz-adv-x="231" 
d="M84 0l155 729h75l-155 -729h-75z" />
    <glyph glyph-name="m" unicode="m" horiz-adv-x="825" 
d="M678 0l68 321q6 25 6.5 33.5t-2.5 19.5q-2 11 -13 17.5t-27 6.5q-32 0 -72 -23t-102 -76l-26 -22l-59 -277h-75l68 321q6 25 6.5 33.5t-2.5 19.5q-2 11 -13 17.5t-27 6.5q-17 0 -37 -6.5t-44 -21t-53 -37.5t-66 -56l-59 -277h-75l96 453h75l-20 -95q15 13 25 22
t17.5 15.5t15.5 12t17 12.5q31 22 65 33.5t66 11.5q111 0 95 -108q15 13 24.5 22t18 16t16.5 12.5t17 12.5q31 22 65 33.5t66 11.5q119 0 92 -126l-72 -339h-75z" />
    <glyph glyph-name="n" unicode="n" horiz-adv-x="523" 
d="M376 0l68 321q5 23 5.5 33t-1.5 20q-2 11 -13 17.5t-27 6.5q-17 0 -37 -6.5t-44 -21t-53 -37.5t-66 -56l-59 -277h-75l96 453h75l-20 -95q15 13 25 22t17.5 15.5t15.5 12t17 12.5q31 22 65 33.5t66 11.5q119 0 92 -126l-72 -339h-75z" />
    <glyph glyph-name="o" unicode="o" horiz-adv-x="545" 
d="M458 226q8 36 3.5 67.5t-18.5 54.5t-36.5 36.5t-52.5 13.5t-59 -13.5t-53 -36.5t-41.5 -54.5t-25.5 -67.5t-3.5 -67.5t18.5 -54.5t37 -36.5t53 -13.5t58.5 13.5t52.5 36.5t41.5 54.5t25.5 67.5zM540 226q-10 -49 -37 -92.5t-64.5 -76t-82 -51.5t-90.5 -19t-83 19
t-60.5 51.5t-31.5 76t2 92.5t37 92.5t64.5 76t82.5 51.5t91 19t82.5 -19t60 -51.5t31.5 -76t-2 -92.5z" />
    <glyph glyph-name="p" unicode="p" horiz-adv-x="541" 
d="M458 238q7 34 4 63t-14.5 50t-31.5 32.5t-46 11.5q-20 0 -45.5 -8.5t-49.5 -22.5q-16 -10 -27.5 -20t-31.5 -30l-34 -157q-6 -29 -6.5 -38.5t3.5 -20.5q14 -39 83 -39q72 0 125 48.5t71 130.5zM539 239q-12 -55 -39 -101t-65 -79.5t-84.5 -52t-96.5 -18.5q-36 0 -59.5 7
t-41.5 24l-55 -258h-75l147 692h75l-12 -57q36 33 78.5 51.5t85.5 18.5q42 0 73.5 -16.5t50 -46.5t23.5 -72t-5 -92z" />
    <glyph glyph-name="q" unicode="q" horiz-adv-x="518" 
d="M453 382q-14 8 -28.5 11t-36.5 3q-81 0 -140 -51.5t-77 -138.5q-15 -70 11.5 -109t89.5 -39q32 0 60 8.5t60 26.5zM321 -239l55 257q-20 -9 -31 -13t-26 -8q-18 -5 -42 -8t-45 -3q-42 0 -73.5 15.5t-50.5 44t-24.5 68.5t4.5 88q12 58 41.5 106t71.5 83t94 54.5t110 19.5
q23 0 49 -2.5t44 -7.5q11 -3 19.5 -6t22.5 -10l-144 -678h-75z" />
    <glyph glyph-name="r" unicode="r" horiz-adv-x="322" 
d="M367 371q-17 18 -28 18q-41 0 -133 -119l-57 -270h-75l96 453h75l-17 -82q27 27 47 45t36 29t29 15.5t26 4.5q27 0 51 -31z" />
    <glyph glyph-name="s" unicode="s" horiz-adv-x="429" 
d="M405 117q-13 -61 -62 -95.5t-124 -34.5q-29 0 -61 6q-16 3 -28 6t-23 7.5t-22 10t-26 14.5l44 63l17.5 -10.5l12.5 -7.5q22 -11 48.5 -18t50.5 -7q35 0 61 17t32 43q1 8 0.5 17t-3.5 14q-5 10 -11.5 17.5t-18 15.5t-29.5 17.5t-46 21.5q-30 14 -49.5 27t-30.5 27.5
t-13.5 31t2.5 37.5q12 60 65.5 94t133.5 34q14 0 28.5 -1t28.5 -4q12 -2 21.5 -5t18.5 -6.5t18.5 -9t22.5 -13.5l-50 -61q-19 14 -31 19.5t-28 10.5q-27 8 -50 8q-38 0 -64.5 -15.5t-31.5 -41.5q-4 -17 5 -28q5 -7 10.5 -12t16 -11.5t27.5 -14.5t45 -21q33 -15 53.5 -29
t31.5 -30.5t12.5 -36t-4.5 -46.5z" />
    <glyph glyph-name="t" unicode="t" horiz-adv-x="329" 
d="M317 44q-23 -17 -40.5 -27.5t-32 -17.5t-27.5 -9.5t-26 -2.5q-39 0 -57 28t-8 73l64 302h-76l9 44l80 19l28 132h75l-28 -132h120l-13 -63h-120l-55 -258l-3 -20q-2 -11 -3 -17.5t-1 -10.5q-4 -22 21 -22q14 0 29.5 7t43.5 25z" />
    <glyph glyph-name="u" unicode="u" horiz-adv-x="523" 
d="M375 0l20 94q-101 -108 -203 -108q-121 0 -94 127l72 340h75l-68 -321q-9 -42 -0.5 -60.5t37.5 -18.5q18 0 42 9t50 25.5t53.5 39t52.5 49.5l59 277h76l-96 -453h-76z" />
    <glyph glyph-name="v" unicode="v" horiz-adv-x="456" 
d="M259 -13h-69l-71 466h82l47 -367l-2 -18l5 17l201 368h82z" />
    <glyph glyph-name="w" unicode="w" horiz-adv-x="695" 
d="M517 -13h-61l-42 283l-1 25l-12 -25l-167 -283h-63l-52 466h82l33 -361l-2 -13l4 13l161 282l-13 79h79l44 -360l-2 -14l4 14l189 360h75z" />
    <glyph glyph-name="x" unicode="x" horiz-adv-x="470" 
d="M329 0l-68 169l-142 -169h-84l201 229l-105 224h93l65 -168l136 168h86l-197 -221l107 -232h-92z" />
    <glyph glyph-name="y" unicode="y" horiz-adv-x="429" 
d="M228 -25q-25 -42 -45.5 -72.5t-46.5 -60.5q-9 -11 -17 -20.5t-17.5 -20t-22.5 -23.5l-31 -31l-50 46q21 19 36 33t27 26.5t23 26t25 31.5q12 16 22.5 30.5t21 30t22 34.5t27.5 45l-83 403h84l50 -277l6 -44l19 44l152 277h77z" />
    <glyph glyph-name="z" unicode="z" horiz-adv-x="460" 
d="M49 0l8 38l351 348h-264l14 67h377l-7 -32l-356 -354h281l-14 -67h-390z" />
    <glyph glyph-name="braceleft" unicode="{" horiz-adv-x="409" 
d="M278 -243q-71 0 -95 30.5t-9 101.5l47 220q24 113 -52 113h-36l12 55h36q76 0 100 113l47 220q15 71 52 101.5t108 30.5h56l-14 -63h-44q-16 0 -33.5 -8t-28.5 -22q-10 -11 -16 -26.5t-12 -44.5l-43 -201q-3 -14 -5.5 -25.5t-4.5 -19.5q-10 -29 -31 -50.5t-45 -26.5
l-26 -6l23 -4q25 -5 37 -32q4 -8 5.5 -16t1.5 -18t-2.5 -23.5t-6.5 -33.5l-43 -202q-6 -28 -6.5 -43t4.5 -27q5 -13 19.5 -21.5t30.5 -8.5h44l-14 -63h-56z" />
    <glyph glyph-name="bar" unicode="|" horiz-adv-x="250" 
d="M41 -239l206 968h70l-206 -968h-70z" />
    <glyph glyph-name="braceright" unicode="}" horiz-adv-x="409" 
d="M338 222q-37 0 -62.5 -29t-37.5 -84l-47 -220q-15 -71 -52 -101.5t-108 -30.5h-56l14 63h44q16 0 33.5 8t28.5 22q10 11 16 26.5t12 43.5l43 202q3 14 5.5 25t4.5 20q10 29 31 50.5t45 26.5l26 5l-23 5q-26 6 -37 32q-4 8 -5.5 16t-1.5 18t2.5 23.5t6.5 33.5l43 201
q6 29 6.5 44t-4.5 27q-5 13 -19.5 21.5t-30.5 8.5h-44l14 63h56q71 0 95 -30.5t9 -101.5l-47 -220q-24 -111 52 -113l36 -1l-12 -54h-36z" />
    <glyph glyph-name="asciitilde" unicode="~" horiz-adv-x="544" 
d="M579 232q-29 -18 -45 -26.5t-39 -16.5q-51 -17 -94 -17q-16 0 -29.5 1.5t-27 5.5t-29.5 11.5t-38 18.5q-20 11 -34.5 15.5t-31.5 4.5q-30 0 -65.5 -13t-70.5 -36l-20 42q14 10 24.5 17t20.5 12t20 9.5t23 9.5q49 18 85 18q17 0 36 -4.5t40 -15.5l45 -22q21 -10 35.5 -14
t31.5 -4q31 0 67 11q18 6 32.5 13.5t40.5 23.5z" />
    <glyph glyph-name="brokenbar" unicode="&#xa6;" horiz-adv-x="220" 
d="M25 -239l93 438h72l-93 -438h-72zM138 291l93 438h72l-93 -438h-72z" />
    <glyph glyph-name="guillemotleft" unicode="&#xab;" horiz-adv-x="560" 
d="M88 226l266 189l-17 -82l-155 -107l109 -107l-17 -81zM327 226l266 189l-17 -82l-155 -107l109 -107l-17 -81z" />
    <glyph glyph-name="Agrave" unicode="&#xc0;" horiz-adv-x="613" 
d="M421 572l-173 -302h215zM500 0l-27 195h-267l-109 -195h-88l390 679h88l101 -679h-88zM423 715l-89 118h88l70 -118h-69z" />
    <glyph glyph-name="Aacute" unicode="&#xc1;" horiz-adv-x="613" 
d="M421 572l-173 -302h215zM500 0l-27 195h-267l-109 -195h-88l390 679h88l101 -679h-88zM490 715h-70l120 118h88z" />
    <glyph glyph-name="Acircumflex" unicode="&#xc2;" horiz-adv-x="613" 
d="M421 572l-173 -302h215zM500 0l-27 195h-267l-109 -195h-88l390 679h88l101 -679h-88zM525 696l-62 67l-89 -67h-68l137 117h63l89 -117h-70z" />
    <glyph glyph-name="Atilde" unicode="&#xc3;" horiz-adv-x="613" 
d="M421 572l-173 -302h215zM500 0l-27 195h-267l-109 -195h-88l390 679h88l101 -679h-88zM659 758q-20 -16 -31.5 -22.5t-32.5 -14.5q-39 -16 -73 -16q-36 0 -81 27q-21 12 -30 15.5t-22 3.5q-19 0 -37 -8q-5 -2 -9 -4l-9 -4.5t-12.5 -6.5t-20.5 -11l-22 44q28 16 40.5 22.5
t27.5 12.5q33 15 65 15q8 0 12 -1q8 -1 14 -2t12.5 -4t16.5 -9.5t28 -16.5q15 -9 26 -13t23 -4q10 0 18.5 1.5t18.5 5.5t23 11t33 19z" />
    <glyph glyph-name="Adieresis" unicode="&#xc4;" horiz-adv-x="613" 
d="M421 572l-173 -302h215zM500 0l-27 195h-267l-109 -195h-88l390 679h88l101 -679h-88zM417 758q-4 -20 -22.5 -35t-39.5 -15q-20 0 -31.5 15t-7.5 35q5 21 23 36t38 15q21 0 33 -15t7 -36zM602 758q-4 -20 -22 -35t-39 -15t-32.5 15t-7.5 35q5 21 23 36t39 15t32.5 -15
t6.5 -36z" />
    <glyph glyph-name="Aring" unicode="&#xc5;" horiz-adv-x="613" 
d="M421 572l-173 -302h215zM509 788q4 17 -5.5 29.5t-26.5 12.5t-32 -12.5t-19 -29.5q-3 -17 7 -29t27 -12t31.5 12t17.5 29zM500 0l-27 195h-267l-109 -195h-88l390 679h88l101 -679h-88zM547 788q-7 -33 -34.5 -56t-60.5 -23t-52 23t-12 56q8 33 36 56.5t61 23.5
t51.5 -23.5t10.5 -56.5z" />
    <glyph glyph-name="AE" unicode="&#xc6;" horiz-adv-x="800" 
d="M503 608l-236 -338h164zM374 0l41 195h-195l-135 -195h-95l473 660h51h371l-14 -69h-294l-47 -220h243l-15 -69h-243l-49 -233h300l-15 -69h-377z" />
    <glyph glyph-name="Ccedilla" unicode="&#xc7;" horiz-adv-x="594" 
d="M652 547q-32 26 -67.5 38t-83.5 12q-53 0 -101 -19t-87 -53.5t-67 -82t-40 -104.5q-13 -62 -6 -113t33 -87t69 -55.5t101 -19.5q42 0 78.5 7t80.5 24l9 -64q-28 -12 -44 -17.5t-36 -10.5q-54 -13 -99 -13h-4l-49 -58h9q77 0 61 -76q-9 -42 -41.5 -67t-80.5 -25
q-24 0 -46.5 5t-55.5 18l35 51q26 -12 42 -17t30 -5q18 0 31.5 10.5t17.5 26.5q4 23 -9.5 32t-49.5 9h-31l79 97q-16 3 -29 5t-22.5 5t-19 7t-20.5 9q-39 20 -68 52t-44.5 73.5t-18.5 90t8 101.5q15 72 53.5 134t93 107.5t120.5 71.5t137 26q63 0 119 -22q20 -8 33 -16
t34 -25z" />
    <glyph glyph-name="Egrave" unicode="&#xc8;" horiz-adv-x="511" 
d="M82 0l140 660h371l-14 -69h-289l-47 -220h239l-15 -69h-239l-49 -233h298l-15 -69h-380zM418 715l-88 118h88l69 -118h-69z" />
    <glyph glyph-name="Eacute" unicode="&#xc9;" horiz-adv-x="511" 
d="M82 0l140 660h371l-14 -69h-289l-47 -220h239l-15 -69h-239l-49 -233h298l-15 -69h-380zM471 715h-70q-14 -14 -2 -2.5t34.5 34l48 48t39.5 38.5h88z" />
    <glyph glyph-name="Ecircumflex" unicode="&#xca;" horiz-adv-x="511" 
d="M82 0l140 660h371l-14 -69h-289l-47 -220h239l-15 -69h-239l-49 -233h298l-15 -69h-380zM506 696l-61 67l-90 -67h-67l136 117h63l90 -117h-71z" />
    <glyph glyph-name="Edieresis" unicode="&#xcb;" horiz-adv-x="511" 
d="M82 0l140 660h371l-14 -69h-289l-47 -220h239l-15 -69h-239l-49 -233h298l-15 -69h-380zM401 761q-5 -21 -23 -36t-38 -15q-21 0 -33 15t-7 36q4 21 22 35.5t39 14.5q20 0 32 -14.5t8 -35.5zM586 761q-5 -21 -22.5 -36t-38.5 -15t-32.5 15t-6.5 36q4 21 21.5 35.5
t38.5 14.5t32.5 -14.5t7.5 -35.5z" />
    <glyph glyph-name="Igrave" unicode="&#xcc;" horiz-adv-x="281" 
d="M86 0l140 660h82l-140 -660h-82zM270 715l-88 118h88l69 -118h-69z" />
    <glyph glyph-name="Iacute" unicode="&#xcd;" horiz-adv-x="278" 
d="M95 0l140 660h82l-140 -660h-82zM303 715h-69l119 118h88z" />
    <glyph glyph-name="Icircumflex" unicode="&#xce;" horiz-adv-x="323" 
d="M112 0l140 660h82l-140 -660h-82zM381 696l-62 67l-89 -67h-68l137 117h63l89 -117h-70z" />
    <glyph glyph-name="Idieresis" unicode="&#xcf;" horiz-adv-x="286" 
d="M96 0l140 660h82l-140 -660h-82zM275 758q-4 -20 -22 -35t-39 -15t-32 15t-7 35q5 21 22.5 36t38.5 15t32.5 -15t6.5 -36zM427 758q-4 -20 -22 -35t-39 -15t-32 15t-7 35q5 21 22.5 36t38.5 15t32.5 -15t6.5 -36z" />
    <glyph glyph-name="Ntilde" unicode="&#xd1;" horiz-adv-x="717" 
d="M527 -6l-224 515q-1 4 -3.5 9.5t-4.5 13.5q-2 5 -3 8.5t-2 6.5q-2 5 -3 10t-1 15l-122 -572h-82l140 660h107l220 -503q2 -3 3.5 -7t2.5 -9q1 -8 2 -12t4 -18v-4.5t1 -5.5l119 559h82l-141 -666h-95zM713 749q-20 -16 -31.5 -22.5t-32.5 -14.5q-39 -16 -73 -16
q-36 0 -81 27q-21 12 -30 15.5t-22 3.5q-19 0 -37 -8q-5 -2 -9 -4l-9 -4.5t-12.5 -6.5t-20.5 -11l-22 44q28 16 40.5 22.5t27.5 12.5q33 15 65 15q8 0 12 -1q8 -1 14 -2t12.5 -4t17 -9.5t27.5 -16.5q16 -9 26.5 -13t22.5 -4q10 0 18.5 1.5t18.5 5.5t23 11t33 19z" />
    <glyph glyph-name="Ograve" unicode="&#xd2;" horiz-adv-x="772" 
d="M688 330q12 54 3 102.5t-34 84.5t-64.5 57.5t-88.5 21.5t-97.5 -21.5t-89.5 -57.5t-70.5 -84.5t-41.5 -102.5q-11 -54 -2 -102.5t34.5 -85t65 -57.5t88.5 -21t97.5 21.5t89 57.5t70 84.5t40.5 102.5zM778 330q-16 -75 -53.5 -137.5t-92 -108.5t-120.5 -71.5t-138 -25.5
t-127.5 25.5t-89.5 71.5t-46 108.5t4 137.5q16 74 54.5 137t92 108.5t120 71t138.5 25.5t127 -25.5t90 -71t46 -108.5t-5 -137zM488 715l-88 118h88l69 -118h-69z" />
    <glyph glyph-name="Oacute" unicode="&#xd3;" horiz-adv-x="772" 
d="M688 330q12 54 3 102.5t-34 84.5t-64.5 57.5t-88.5 21.5t-97.5 -21.5t-89.5 -57.5t-70.5 -84.5t-41.5 -102.5q-11 -54 -2 -102.5t34.5 -85t65 -57.5t88.5 -21t97.5 21.5t89 57.5t70 84.5t40.5 102.5zM778 330q-16 -75 -53.5 -137.5t-92 -108.5t-120.5 -71.5t-138 -25.5
t-127.5 25.5t-89.5 71.5t-46 108.5t4 137.5q16 74 54.5 137t92 108.5t120 71t138.5 25.5t127 -25.5t90 -71t46 -108.5t-5 -137zM560 715h-69l119 118h88z" />
    <glyph glyph-name="Ocircumflex" unicode="&#xd4;" horiz-adv-x="772" 
d="M688 330q12 54 3 102.5t-34 84.5t-64.5 57.5t-88.5 21.5t-97.5 -21.5t-89.5 -57.5t-70.5 -84.5t-41.5 -102.5q-11 -54 -2 -102.5t34.5 -85t65 -57.5t88.5 -21t97.5 21.5t89 57.5t70 84.5t40.5 102.5zM778 330q-16 -75 -53.5 -137.5t-92 -108.5t-120.5 -71.5t-138 -25.5
t-127.5 25.5t-89.5 71.5t-46 108.5t4 137.5q16 74 54.5 137t92 108.5t120 71t138.5 25.5t127 -25.5t90 -71t46 -108.5t-5 -137zM599 696l-61 67l-90 -67h-68l137 117h63l90 -117h-71z" />
    <glyph glyph-name="Otilde" unicode="&#xd5;" horiz-adv-x="772" 
d="M688 330q12 54 3 102.5t-34 84.5t-64.5 57.5t-88.5 21.5t-97.5 -21.5t-89.5 -57.5t-70.5 -84.5t-41.5 -102.5q-11 -54 -2 -102.5t34.5 -85t65 -57.5t88.5 -21t97.5 21.5t89 57.5t70 84.5t40.5 102.5zM778 330q-16 -75 -53.5 -137.5t-92 -108.5t-120.5 -71.5t-138 -25.5
t-127.5 25.5t-89.5 71.5t-46 108.5t4 137.5q16 74 54.5 137t92 108.5t120 71t138.5 25.5t127 -25.5t90 -71t46 -108.5t-5 -137zM727 745q-20 -16 -31.5 -22.5t-32.5 -14.5q-39 -16 -73 -16q-36 0 -81 27q-21 12 -30 15.5t-22 3.5q-19 0 -37 -8q-5 -2 -9 -4l-9 -4.5
t-12.5 -6.5t-19.5 -11l-23 44q28 16 40.5 22.5t27.5 12.5q34 15 66 15q8 0 11 -1q8 -1 14 -2t12.5 -4t17 -9.5t28.5 -16.5q15 -9 25.5 -13t22.5 -4q10 0 19 1.5t18.5 5.5t22.5 11t33 19z" />
    <glyph glyph-name="Odieresis" unicode="&#xd6;" horiz-adv-x="772" 
d="M688 330q12 54 3 102.5t-34 84.5t-64.5 57.5t-88.5 21.5t-97.5 -21.5t-89.5 -57.5t-70.5 -84.5t-41.5 -102.5q-11 -54 -2 -102.5t34.5 -85t65 -57.5t88.5 -21t97.5 21.5t89 57.5t70 84.5t40.5 102.5zM778 330q-16 -75 -53.5 -137.5t-92 -108.5t-120.5 -71.5t-138 -25.5
t-127.5 25.5t-89.5 71.5t-46 108.5t4 137.5q16 74 54.5 137t92 108.5t120 71t138.5 25.5t127 -25.5t90 -71t46 -108.5t-5 -137zM490 760q-5 -21 -23 -36t-38 -15q-21 0 -33 15t-7 36q4 20 22 35t39 15q20 0 32 -15t8 -35zM692 760q-5 -21 -22.5 -36t-38.5 -15t-32.5 15
t-6.5 36q4 20 21.5 35t38.5 15t32.5 -15t7.5 -35z" />
    <glyph glyph-name="multiply" unicode="&#xd7;" horiz-adv-x="550" 
d="M469 -12l-155 196l-239 -197l-33 42l239 197l-155 197l51 42l155 -197l239 197l33 -42l-239 -197l155 -197z" />
    <glyph glyph-name="Ugrave" unicode="&#xd9;" horiz-adv-x="658" 
d="M638 226q-14 -66 -40.5 -108t-74.5 -76q-88 -61 -194 -61q-107 0 -169 61q-35 34 -43.5 76.5t5.5 107.5l92 434h82l-87 -409q-6 -31 -9 -51.5t-2.5 -36t5.5 -27.5t15 -25q38 -57 125 -57t151 57q14 13 24 25t17.5 27.5t13.5 36t12 51.5l87 409h82zM483 715l-89 118h88
l70 -118h-69z" />
    <glyph glyph-name="Uacute" unicode="&#xda;" horiz-adv-x="658" 
d="M638 226q-14 -66 -40.5 -108t-74.5 -76q-88 -61 -194 -61q-107 0 -169 61q-35 34 -43.5 76.5t5.5 107.5l92 434h82l-87 -409q-6 -31 -9 -51.5t-2.5 -36t5.5 -27.5t15 -25q38 -57 125 -57t151 57q14 13 24 25t17.5 27.5t13.5 36t12 51.5l87 409h82zM513 715h-69l119 118
h88z" />
    <glyph glyph-name="Ucircumflex" unicode="&#xdb;" horiz-adv-x="658" 
d="M638 226q-14 -66 -40.5 -108t-74.5 -76q-88 -61 -194 -61q-107 0 -169 61q-35 34 -43.5 76.5t5.5 107.5l92 434h82l-87 -409q-6 -31 -9 -51.5t-2.5 -36t5.5 -27.5t15 -25q38 -57 125 -57t151 57q14 13 24 25t17.5 27.5t13.5 36t12 51.5l87 409h82zM562 696l-61 67
l-90 -67h-68l137 117h63l90 -117h-71z" />
    <glyph glyph-name="Udieresis" unicode="&#xdc;" horiz-adv-x="658" 
d="M638 226q-14 -66 -40.5 -108t-74.5 -76q-88 -61 -194 -61q-107 0 -169 61q-35 34 -43.5 76.5t5.5 107.5l92 434h82l-87 -409q-6 -31 -9 -51.5t-2.5 -36t5.5 -27.5t15 -25q38 -57 125 -57t151 57q14 13 24 25t17.5 27.5t13.5 36t12 51.5l87 409h82zM450 762
q-4 -21 -22 -35.5t-39 -14.5t-32 14.5t-7 35.5t22 35.5t39 14.5t32 -14.5t7 -35.5zM652 762q-4 -21 -22 -35.5t-39 -14.5t-32 14.5t-7 35.5t22 35.5t39 14.5t32 -14.5t7 -35.5z" />
    <glyph glyph-name="agrave" unicode="&#xe0;" horiz-adv-x="437" 
d="M354 207l-179 -44q-12 -16 -16.5 -25.5t-7.5 -23.5q-6 -27 7.5 -43t41.5 -16q13 0 25 2.5t27 9t34.5 17.5t47.5 29zM402 -13q-46 3 -62 17t-12 46q-21 -15 -32.5 -22.5t-23.5 -13.5q-24 -12 -51 -19t-51 -7q-55 0 -81 32.5t-14 86.5q10 50 42.5 82t85.5 44l164 37l18 82
q12 56 -74 56q-69 0 -78 -39q-1 -6 1 -17l-80 -16q-3 9 -3 14.5t1 13.5q10 45 61 73t124 28q69 0 102 -30t22 -83l-52 -245l-7 -33q-1 -18 32 -24zM341 497l-79 163h88l60 -163h-69z" />
    <glyph glyph-name="aacute" unicode="&#xe1;" horiz-adv-x="436" 
d="M353 207l-179 -44q-12 -16 -16.5 -25.5t-7.5 -23.5q-6 -27 7.5 -43t41.5 -16q13 0 25 2.5t27 9t34.5 17.5t47.5 29zM401 -13q-46 3 -62 17t-12 46q-21 -15 -32.5 -22.5t-23.5 -13.5q-24 -12 -51 -19t-51 -7q-55 0 -81 32.5t-14 86.5q10 50 42.5 82t85.5 44l164 37l18 82
q12 56 -74 56q-69 0 -78 -39q-1 -6 1 -17l-80 -16q-3 9 -3 14.5t1 13.5q10 45 61 73t124 28q69 0 102 -30t22 -83l-52 -245l-7 -33q-1 -18 32 -24zM371 497h-69l128 163h88z" />
    <glyph glyph-name="acircumflex" unicode="&#xe2;" horiz-adv-x="437" 
d="M354 207l-179 -44q-12 -16 -16.5 -25.5t-7.5 -23.5q-6 -27 7.5 -43t41.5 -16q13 0 25 2.5t27 9t34.5 17.5t47.5 29zM402 -13q-46 3 -62 17t-12 46q-21 -15 -32.5 -22.5t-23.5 -13.5q-24 -12 -51 -19t-51 -7q-55 0 -81 32.5t-14 86.5q10 50 42.5 82t85.5 44l164 37l18 82
q12 56 -74 56q-69 0 -78 -39q-1 -6 1 -17l-80 -16q-3 9 -3 14.5t1 13.5q10 45 61 73t124 28q69 0 102 -30t22 -83l-52 -245l-7 -33q-1 -18 32 -24zM421 497l-53 107l-98 -107h-68l146 163h63l81 -163h-71z" />
    <glyph glyph-name="atilde" unicode="&#xe3;" horiz-adv-x="462" 
d="M362 207l-179 -44q-12 -16 -16.5 -25.5t-7.5 -23.5q-6 -27 7.5 -43t41.5 -16q13 0 25 2.5t27 9t34.5 17.5t47.5 29zM410 -13q-46 3 -62 17t-12 46q-21 -15 -32.5 -22.5t-23.5 -13.5q-24 -12 -51 -19t-51 -7q-55 0 -81 32.5t-14 86.5q10 50 42.5 82t85.5 44l164 37l18 82
q12 56 -74 56q-69 0 -78 -39q-1 -6 1 -17l-80 -16q-3 9 -3 14.5t1 13.5q10 45 61 73t124 28q69 0 102 -30t22 -83l-52 -245l-7 -33q-1 -18 32 -24zM565 578q-21 -16 -32 -22.5t-32 -14.5q-39 -16 -73 -16q-36 0 -82 27q-20 12 -29.5 15.5t-22.5 3.5q-19 0 -36 -8
q-6 -2 -10 -4l-9 -4.5t-12 -6.5t-20 -11l-23 44q29 16 41.5 22.5t27.5 12.5q33 15 65 15q8 0 12 -1q8 -1 13.5 -2t12.5 -4t17 -9.5t28 -16.5q15 -9 25.5 -13t22.5 -4q10 0 19 1.5t19 5.5t23 11t32 19z" />
    <glyph glyph-name="adieresis" unicode="&#xe4;" horiz-adv-x="441" 
d="M358 207l-179 -44q-12 -16 -16.5 -25.5t-7.5 -23.5q-6 -27 7.5 -43t41.5 -16q13 0 25 2.5t27 9t34.5 17.5t47.5 29zM406 -13q-46 3 -62 17t-12 46q-21 -15 -32.5 -22.5t-23.5 -13.5q-24 -12 -51 -19t-51 -7q-55 0 -81 32.5t-14 86.5q10 50 42.5 82t85.5 44l164 37l18 82
q12 56 -74 56q-69 0 -78 -39q-1 -6 1 -17l-80 -16q-3 9 -3 14.5t1 13.5q10 45 61 73t124 28q69 0 102 -30t22 -83l-52 -245l-7 -33q-1 -18 32 -24zM319 573q-4 -20 -22.5 -35t-38.5 -15q-21 0 -32.5 15t-7.5 35q4 21 22.5 36t39.5 15q20 0 31.5 -15t7.5 -36zM494 573
q-4 -20 -22.5 -35t-38.5 -15q-21 0 -32.5 15t-7.5 35q4 21 22.5 36t39.5 15q20 0 31.5 -15t7.5 -36z" />
    <glyph glyph-name="aring" unicode="&#xe5;" horiz-adv-x="437" 
d="M354 207l-179 -44q-12 -16 -16.5 -25.5t-7.5 -23.5q-6 -27 7.5 -43t41.5 -16q13 0 25 2.5t27 9t34.5 17.5t47.5 29zM405 586q3 17 -6.5 29.5t-26.5 12.5t-32 -12.5t-18 -29.5q-4 -17 6 -29t27 -12t31.5 12t18.5 29zM402 -13q-46 3 -62 17t-12 46q-21 -15 -32.5 -22.5
t-23.5 -13.5q-24 -12 -51 -19t-51 -7q-55 0 -81 32.5t-14 86.5q10 50 42.5 82t85.5 44l164 37l18 82q12 56 -74 56q-69 0 -78 -39q-1 -6 1 -17l-80 -16q-3 9 -3 14.5t1 13.5q10 45 61 73t124 28q69 0 102 -30t22 -83l-52 -245l-7 -33q-1 -18 32 -24zM443 586q-7 -33 -35 -56
t-61 -23t-51.5 23t-11.5 56t35.5 56.5t61.5 23.5t51 -23.5t11 -56.5z" />
    <glyph glyph-name="ccedilla" unicode="&#xe7;" horiz-adv-x="482" 
d="M440 35q-14 -8 -25 -13.5t-20.5 -9.5t-20 -7.5t-24.5 -7.5q-20 -5 -30.5 -7t-29.5 -3l-43 -56q35 0 50.5 -19.5t7.5 -56.5q-8 -40 -40 -65.5t-74 -25.5q-10 0 -18.5 1t-19 3t-24 6.5t-32.5 11.5l35 51q26 -12 42 -17t31 -5q17 0 30.5 10.5t17.5 26.5q4 23 -9.5 32
t-48.5 9h-32l77 94q-96 23 -132 80.5t-16 154.5q11 53 38 97.5t65.5 77t86 50.5t99.5 18q34 0 65 -9q21 -6 34 -13.5t33 -23.5l-56 -61q-21 22 -42 30.5t-52 8.5q-69 0 -120.5 -47.5t-67.5 -124.5q-17 -78 16 -123.5t106 -45.5q33 0 59 8.5t58 29.5z" />
    <glyph glyph-name="egrave" unicode="&#xe8;" horiz-adv-x="484" 
d="M410 289q11 53 -8.5 80.5t-66.5 27.5q-48 0 -85 -27.5t-62 -80.5h222zM171 233q-18 -83 11.5 -130t98.5 -47q30 0 57.5 9.5t69.5 35.5l18 -59q-28 -16 -51 -26.5t-43.5 -17t-40 -9t-41.5 -2.5q-47 0 -82.5 17t-56.5 48.5t-26.5 75.5t5.5 98q12 54 36.5 98t59.5 75.5
t78 48.5t91 17q40 0 69 -13.5t47 -38t23 -59.5t-4 -77l-9 -44h-310zM361 497l-79 163h88l60 -163h-69z" />
    <glyph glyph-name="eacute" unicode="&#xe9;" horiz-adv-x="502" 
d="M413 289q11 53 -8.5 80.5t-66.5 27.5q-48 0 -85 -27.5t-62 -80.5h222zM174 233q-18 -83 11.5 -130t98.5 -47q30 0 57.5 9.5t69.5 35.5l18 -59q-28 -16 -51 -26.5t-43.5 -17t-40 -9t-41.5 -2.5q-47 0 -82.5 17t-56.5 48.5t-26.5 75.5t5.5 98q12 54 36.5 98t59.5 75.5
t78 48.5t91 17q40 0 69 -13.5t47 -38t23 -59.5t-4 -77l-9 -44h-310zM383 497h-70l129 163h88z" />
    <glyph glyph-name="ecircumflex" unicode="&#xea;" horiz-adv-x="499" 
d="M410 289q11 53 -8.5 80.5t-66.5 27.5q-48 0 -85 -27.5t-62 -80.5h222zM171 233q-18 -83 11.5 -130t98.5 -47q30 0 57.5 9.5t69.5 35.5l18 -59q-28 -16 -51 -26.5t-43.5 -17t-40 -9t-41.5 -2.5q-47 0 -82.5 17t-56.5 48.5t-26.5 75.5t5.5 98q12 54 36.5 98t59.5 75.5
t78 48.5t91 17q40 0 69 -13.5t47 -38t23 -59.5t-4 -77l-9 -44h-310zM436 497l-53 107l-98 -107h-69l147 163h63l79 -163h-69z" />
    <glyph glyph-name="edieresis" unicode="&#xeb;" horiz-adv-x="503" 
d="M410 289q11 53 -8.5 80.5t-66.5 27.5q-48 0 -85 -27.5t-62 -80.5h222zM171 233q-18 -83 11.5 -130t98.5 -47q30 0 57.5 9.5t69.5 35.5l18 -59q-28 -16 -51 -26.5t-43.5 -17t-40 -9t-41.5 -2.5q-47 0 -82.5 17t-56.5 48.5t-26.5 75.5t5.5 98q12 54 36.5 98t59.5 75.5
t78 48.5t91 17q40 0 69 -13.5t47 -38t23 -59.5t-4 -77l-9 -44h-310zM340 572q-5 -20 -23 -35t-38 -15q-21 0 -33 15t-7 35q4 21 22 36t39 15q20 0 32 -15t8 -36zM515 572q-5 -20 -23 -35t-38 -15q-21 0 -33 15t-7 35q4 21 22 36t39 15q20 0 32 -15t8 -36z" />
    <glyph glyph-name="igrave" unicode="&#xec;" horiz-adv-x="272" 
d="M112 0l96 453h75l-96 -453h-75zM237 497l-79 163h88l60 -163h-69z" />
    <glyph glyph-name="iacute" unicode="&#xed;" horiz-adv-x="246" 
d="M78 0l96 453h75l-96 -453h-75zM247 497h-69l128 163h88z" />
    <glyph glyph-name="icircumflex" unicode="&#xee;" horiz-adv-x="299" 
d="M119 0l96 453h75l-96 -453h-75zM338 497l-53 107l-98 -107h-69l147 163h63l79 -163h-69z" />
    <glyph glyph-name="idieresis" unicode="&#xef;" horiz-adv-x="276" 
d="M106 0l96 453h75l-96 -453h-75zM231 573q-4 -20 -22.5 -35t-38.5 -15q-21 0 -32.5 15t-7.5 35q4 21 22.5 36t39.5 15q20 0 31.5 -15t7.5 -36zM406 573q-4 -20 -22.5 -35t-38.5 -15q-21 0 -32.5 15t-7.5 35q4 21 22.5 36t39.5 15q20 0 31.5 -15t7.5 -36z" />
    <glyph glyph-name="ntilde" unicode="&#xf1;" horiz-adv-x="534" 
d="M378 0l68 321q5 23 5.5 33t-1.5 20q-2 11 -13 17.5t-27 6.5q-17 0 -37 -6.5t-44 -21t-53 -37.5t-66 -56l-59 -277h-75l96 453h75l-20 -95q15 13 25 22t17.5 15.5t15.5 12t17 12.5q31 22 65 33.5t66 11.5q119 0 92 -126l-72 -339h-75zM584 574q-20 -16 -31.5 -22.5
t-32.5 -14.5q-39 -16 -73 -16q-36 0 -82 27q-20 12 -29 15.5t-22 3.5q-19 0 -37 -8q-6 -2 -9.5 -4t-9 -4.5t-12.5 -6.5t-20 -11l-22 44q28 16 40.5 22.5t27.5 12.5q33 15 65 15q8 0 12 -1q8 -1 13.5 -2t12.5 -4t17 -9.5t28 -16.5q15 -9 26 -13t23 -4q10 0 18.5 1.5t18.5 5.5
t23 11t33 19z" />
    <glyph glyph-name="ograve" unicode="&#xf2;" horiz-adv-x="542" 
d="M455 226q8 36 3.5 67.5t-18.5 54.5t-36.5 36.5t-52.5 13.5t-59 -13.5t-53 -36.5t-41.5 -54.5t-25.5 -67.5t-3.5 -67.5t18.5 -54.5t37 -36.5t53 -13.5t58.5 13.5t52.5 36.5t41.5 54.5t25.5 67.5zM537 226q-10 -49 -37 -92.5t-64.5 -76t-82 -51.5t-90.5 -19t-83 19
t-60.5 51.5t-31.5 76t2 92.5t37 92.5t64.5 76t82.5 51.5t91 19t82.5 -19t60 -51.5t31.5 -76t-2 -92.5zM363 497l-86 163h88l67 -163h-69z" />
    <glyph glyph-name="oacute" unicode="&#xf3;" horiz-adv-x="545" 
d="M458 226q8 36 3.5 67.5t-18.5 54.5t-36.5 36.5t-52.5 13.5t-59 -13.5t-53 -36.5t-41.5 -54.5t-25.5 -67.5t-3.5 -67.5t18.5 -54.5t37 -36.5t53 -13.5t58.5 13.5t52.5 36.5t41.5 54.5t25.5 67.5zM540 226q-10 -49 -37 -92.5t-64.5 -76t-82 -51.5t-90.5 -19t-83 19
t-60.5 51.5t-31.5 76t2 92.5t37 92.5t64.5 76t82.5 51.5t91 19t82.5 -19t60 -51.5t31.5 -76t-2 -92.5zM400 497h-66l120 163h88z" />
    <glyph glyph-name="ocircumflex" unicode="&#xf4;" horiz-adv-x="542" 
d="M455 226q8 36 3.5 67.5t-18.5 54.5t-36.5 36.5t-52.5 13.5t-59 -13.5t-53 -36.5t-41.5 -54.5t-25.5 -67.5t-3.5 -67.5t18.5 -54.5t37 -36.5t53 -13.5t58.5 13.5t52.5 36.5t41.5 54.5t25.5 67.5zM537 226q-10 -49 -37 -92.5t-64.5 -76t-82 -51.5t-90.5 -19t-83 19
t-60.5 51.5t-31.5 76t2 92.5t37 92.5t64.5 76t82.5 51.5t91 19t82.5 -19t60 -51.5t31.5 -76t-2 -92.5zM451 497l-54 107l-97 -107h-69l147 163h63l79 -163h-69z" />
    <glyph glyph-name="otilde" unicode="&#xf5;" horiz-adv-x="561" 
d="M458 226q8 36 3.5 67.5t-18.5 54.5t-36.5 36.5t-52.5 13.5t-59 -13.5t-53 -36.5t-41.5 -54.5t-25.5 -67.5t-3.5 -67.5t18.5 -54.5t37 -36.5t53 -13.5t58.5 13.5t52.5 36.5t41.5 54.5t25.5 67.5zM540 226q-10 -49 -37 -92.5t-64.5 -76t-82 -51.5t-90.5 -19t-83 19
t-60.5 51.5t-31.5 76t2 92.5t37 92.5t64.5 76t82.5 51.5t91 19t82.5 -19t60 -51.5t31.5 -76t-2 -92.5zM573 574q-20 -16 -31.5 -22.5t-32.5 -14.5q-39 -16 -73 -16q-36 0 -82 27q-20 12 -29 15.5t-22 3.5q-19 0 -37 -8q-6 -2 -9.5 -4t-9 -4.5t-12.5 -6.5t-20 -11l-22 44
q28 16 40.5 22.5t27.5 12.5q33 15 65 15q8 0 12 -1q8 -1 13.5 -2t12.5 -4t17 -9.5t28 -16.5q15 -9 26 -13t23 -4q10 0 18.5 1.5t18.5 5.5t23 11t33 19z" />
    <glyph glyph-name="odieresis" unicode="&#xf6;" horiz-adv-x="542" 
d="M455 226q8 36 3.5 67.5t-18.5 54.5t-36.5 36.5t-52.5 13.5t-59 -13.5t-53 -36.5t-41.5 -54.5t-25.5 -67.5t-3.5 -67.5t18.5 -54.5t37 -36.5t53 -13.5t58.5 13.5t52.5 36.5t41.5 54.5t25.5 67.5zM537 226q-10 -49 -37 -92.5t-64.5 -76t-82 -51.5t-90.5 -19t-83 19
t-60.5 51.5t-31.5 76t2 92.5t37 92.5t64.5 76t82.5 51.5t91 19t82.5 -19t60 -51.5t31.5 -76t-2 -92.5zM355 572q-5 -20 -23 -35t-38 -15q-21 0 -33 15t-7 35q4 21 22 36t39 15q20 0 32 -15t8 -36zM530 572q-5 -20 -23 -35t-38 -15q-21 0 -33 15t-7 35q4 21 22 36t39 15
q20 0 32 -15t8 -36z" />
    <glyph glyph-name="divide" unicode="&#xf7;" horiz-adv-x="550" 
d="M345 48q-5 -25 -25.5 -42t-44.5 -17q-25 0 -38.5 17t-8.5 42q5 24 26 41t46 17q24 0 37 -17t8 -41zM69 208l12 57h500l-12 -57h-500zM426 427q-5 -24 -26 -41t-45 -17q-25 0 -38 17t-8 41q5 25 25.5 42t45.5 17q24 0 37.5 -17t8.5 -42z" />
    <glyph glyph-name="ugrave" unicode="&#xf9;" horiz-adv-x="521" 
d="M373 0l20 94q-101 -108 -203 -108q-121 0 -94 127l72 340h75l-68 -321q-9 -42 -0.5 -60.5t37.5 -18.5q18 0 42 9t50 25.5t53.5 39t52.5 49.5l59 277h76l-96 -453h-76zM354 497l-79 163h88l60 -163h-69z" />
    <glyph glyph-name="uacute" unicode="&#xfa;" horiz-adv-x="523" 
d="M375 0l20 94q-101 -108 -203 -108q-121 0 -94 127l72 340h75l-68 -321q-9 -42 -0.5 -60.5t37.5 -18.5q18 0 42 9t50 25.5t53.5 39t52.5 49.5l59 277h76l-96 -453h-76zM393 497h-69l129 163h88z" />
    <glyph glyph-name="ucircumflex" unicode="&#xfb;" horiz-adv-x="521" 
d="M373 0l20 94q-101 -108 -203 -108q-121 0 -94 127l72 340h75l-68 -321q-9 -42 -0.5 -60.5t37.5 -18.5q18 0 42 9t50 25.5t53.5 39t52.5 49.5l59 277h76l-96 -453h-76zM442 497l-54 107l-97 -107h-69l147 163h63l79 -163h-69z" />
    <glyph glyph-name="udieresis" unicode="&#xfc;" horiz-adv-x="521" 
d="M373 0l20 94q-101 -108 -203 -108q-121 0 -94 127l72 340h75l-68 -321q-9 -42 -0.5 -60.5t37.5 -18.5q18 0 42 9t50 25.5t53.5 39t52.5 49.5l59 277h76l-96 -453h-76zM352 572q-5 -20 -23 -35t-38 -15q-21 0 -33 15t-7 35q4 21 22 36t39 15q20 0 32 -15t8 -36zM527 572
q-5 -20 -23 -35t-38 -15q-21 0 -33 15t-7 35q4 21 22 36t39 15q20 0 32 -15t8 -36z" />
    <glyph glyph-name="ydieresis" unicode="&#xff;" horiz-adv-x="429" 
d="M228 -25q-25 -42 -45.5 -72.5t-46.5 -60.5q-9 -11 -17 -20.5t-17.5 -20t-22.5 -23.5l-31 -31l-50 46q21 19 36 33t27 26.5t23 26t25 31.5q12 16 22.5 30.5t21 30t22 34.5t27.5 45l-83 403h84l50 -277l6 -44l19 44l152 277h77zM300 547q-4 -20 -22 -35t-38 -15
q-21 0 -33 15t-8 35q5 21 23 36t39 15q20 0 32 -15t7 -36zM475 547q-4 -20 -22 -35t-38 -15q-21 0 -33 15t-8 35q5 21 23 36t39 15q20 0 32 -15t7 -36z" />
    <glyph glyph-name="Ydieresis" unicode="&#x178;" horiz-adv-x="518" 
d="M376 308l-65 -308h-82l64 302l-144 358h88l117 -283l242 283h87zM380 758q-4 -21 -22.5 -36t-39.5 -15t-32 15t-7 36q4 20 22 35t39 15t32.5 -15t7.5 -35zM582 758q-4 -21 -22.5 -36t-39.5 -15q-20 0 -31.5 15t-7.5 36q4 20 22.5 35t38.5 15q21 0 32.5 -15t7.5 -35z" />
    <glyph glyph-name="endash" unicode="&#x2013;" horiz-adv-x="500" 
d="M44 208l12 57h500l-12 -57h-500z" />
    <glyph glyph-name="quoteleft" unicode="&#x2018;" horiz-adv-x="252" 
d="M283 433q-19 -11 -32 -14.5t-30 -3.5q-58 0 -44 64q5 23 19 52q11 22 26 44t43 60l18 25h44q-11 -17 -17 -27.5t-17 -29.5q-5 -11 -9 -18.5t-7.5 -14t-6.5 -13.5t-7 -17z" />
    <glyph glyph-name="quoteright" unicode="&#x2019;" horiz-adv-x="252" 
d="M306 608q-7 -35 -34 -82.5t-70 -97.5h-50q8 9 13 15.5t9 12.5t8.5 13.5t11.5 19.5q8 16 13.5 27.5t13.5 31.5l-21 107q13 6 21.5 9t15 5t12.5 2.5t14 0.5q57 0 43 -64z" />
    <glyph glyph-name="quotesinglbase" unicode="&#x201a;" horiz-adv-x="252" 
d="M184 36q-5 -23 -20 -53q-5 -11 -11.5 -22t-14.5 -23t-18 -26t-24 -33l-18 -24h-44q11 16 17 26.5t17 30.5q5 10 9.5 17.5t7 14t6 13.5t7.5 17l-20 108q19 11 32 14.5t30 3.5q57 0 44 -64z" />
    <glyph glyph-name="quotedblleft" unicode="&#x201c;" horiz-adv-x="437" 
d="M284 433q-12 -6 -21 -9l-15 -5t-12.5 -2.5t-14.5 -0.5q-58 0 -44 64q7 35 34 82t70 98h51q-16 -18 -23 -28.5t-19 -32.5q-8 -16 -13.5 -27.5t-13.5 -31.5zM468 433q-13 -6 -21.5 -9t-14.5 -5t-12.5 -2.5t-14.5 -0.5q-58 0 -44 64q7 35 35 82.5t69 97.5h51
q-8 -9 -13 -15.5t-9.5 -12.5t-8.5 -13.5t-11 -19.5q-8 -16 -13.5 -27.5t-13.5 -31.5z" />
    <glyph glyph-name="quotedblright" unicode="&#x201d;" horiz-adv-x="437" 
d="M306 608q-7 -35 -34 -82.5t-70 -97.5h-50q8 9 13 15.5t9 12.5t8.5 13.5t11.5 19.5q8 16 13.5 27.5t13.5 31.5l-21 107q13 6 21.5 9t15 5t12.5 2.5t14 0.5q57 0 43 -64zM490 608q-7 -35 -34 -82t-70 -98h-50q8 9 13.5 15.5t9.5 13t9 14t10 18.5q8 16 13 27.5t14 31.5
l-21 107q12 6 20.5 9t15 5t13 2.5t14.5 0.5q57 0 43 -64z" />
    <glyph glyph-name="quotedblbase" unicode="&#x201e;" horiz-adv-x="437" 
d="M184 35q-7 -35 -34 -82.5t-70 -96.5h-50q8 9 13 15t9.5 12.5t9 14t10.5 18.5q10 17 14.5 28t13.5 31l-22 107q14 6 22 9.5t14.5 5.5t12.5 2.5t14 0.5q57 0 43 -65zM368 35q-7 -35 -34 -81.5t-70 -97.5h-50q8 9 13.5 15.5t10 12.5t9 13.5t9.5 18.5q9 16 13.5 27.5
t14.5 31.5l-22 107q13 6 21 9.5t14.5 5.5t13 2.5t14.5 0.5q57 0 43 -65z" />
    <glyph glyph-name="bullet" unicode="&#x2022;" horiz-adv-x="352" 
d="M342 231q-5 -24 -18.5 -45.5t-33 -37.5t-43 -25t-47.5 -9t-43.5 9t-32 25t-17 37.5t0.5 45.5t18.5 45.5t33 37.5t43 25t47.5 9t43.5 -9t32 -25t17 -37.5t-0.5 -45.5z" />
    <glyph glyph-name="ellipsis" unicode="&#x2026;" horiz-adv-x="750" 
d="M191 45q-5 -23 -25 -39.5t-43 -16.5t-36.5 16.5t-8.5 39.5q5 24 25.5 40.5t43.5 16.5t36 -16.5t8 -40.5zM450 45q-5 -23 -25 -39.5t-44 -16.5q-23 0 -36 16.5t-8 39.5q5 24 25 40.5t43 16.5q24 0 37 -16.5t8 -40.5zM700 45q-5 -23 -25 -39.5t-44 -16.5q-23 0 -36 16.5
t-8 39.5q5 24 25 40.5t43 16.5q24 0 37 -16.5t8 -40.5z" />
    <glyph glyph-name="guilsinglleft" unicode="&#x2039;" horiz-adv-x="321" 
d="M88 226l266 189l-17 -82l-155 -107l109 -107l-17 -81z" />
    <glyph glyph-name="guilsinglright" unicode="&#x203a;" horiz-adv-x="321" 
d="M62 38l17 81l156 107l-110 107l17 82l187 -189z" />
  </font>
</defs>
</svg>
