<?xml version="1.0" standalone="no"?>
<!DOCTYPE svg PUBLIC "-//W3C//DTD SVG 1.1//EN" "http://www.w3.org/Graphics/SVG/1.1/DTD/svg11.dtd" >
<svg xmlns="http://www.w3.org/2000/svg" xmlns:xlink="http://www.w3.org/1999/xlink" version="1.1">
<metadata>
Created by FontForge 20170731 at Tue Apr 10 07:07:07 2018
 By Aleksey,,,
Attribution-ShareAlike 4.0 International
</metadata>
<defs>
<font id="ScalySans-BoldItalic" horiz-adv-x="587" >
  <font-face 
    font-family="Scaly Sans"
    font-weight="700"
    font-style="italic"
    font-stretch="normal"
    units-per-em="1000"
    panose-1="2 0 8 3 6 0 0 2 0 3"
    ascent="800"
    descent="-200"
    x-height="473"
    cap-height="680"
    bbox="-97 -288 1050 888"
    underline-thickness="37"
    underline-position="-237"
    unicode-range="U+001D-203A"
  />
<missing-glyph horiz-adv-x="250" 
 />
    <glyph glyph-name=".notdef" horiz-adv-x="250" 
 />
    <glyph glyph-name=".null" horiz-adv-x="0" 
 />
    <glyph glyph-name=".null" horiz-adv-x="0" 
 />
    <glyph glyph-name="nonmarkingreturn" horiz-adv-x="250" 
 />
    <glyph glyph-name="space" unicode=" " horiz-adv-x="250" 
 />
    <glyph glyph-name="space" unicode="&#xa0;" horiz-adv-x="250" 
 />
    <glyph glyph-name="exclam" unicode="!" horiz-adv-x="282" 
d="M232 44q-6 -30 -34.5 -53.5t-63.5 -23.5t-53.5 23.5t-12.5 53.5q7 30 35.5 53.5t63.5 23.5t53.5 -23.5t11.5 -53.5zM241 175h-126l117 581h139z" />
    <glyph glyph-name="numbersign" unicode="#" horiz-adv-x="626" 
d="M359 381l-37 -90h93l37 90h-93zM677 381h-113l-36 -90h114l-38 -97h-116l-87 -214h-112l86 214h-92l-89 -214h-112l89 214h-115l38 97h117l38 90h-116l38 97h116l83 200h110l-81 -200h92l82 200h112l-81 -200h110z" />
    <glyph glyph-name="dollar" unicode="$" horiz-adv-x="536" 
d="M413 162q7 30 3 40q-4 7 -46 49q-7 7 19 7l-36 -170q5 1 29.5 22.5t30.5 51.5zM361 572q-53 -9 -66 -70q-8 -36 20 -57q32 -26 33 -28q4 -4 -7 4t-19 -31zM572 516q-30 23 -37 27t-13 7.5t-13 6.5t-15 7q-11 4 -18 6.5t-13 3.5t-14 2t7 0l-42 -199q-2 1 1.5 -1t7.5 -4
q36 -24 59 -40.5t33 -27.5q24 -22 32 -57.5t0 -74.5q-10 -44 -35.5 -83.5t-63.5 -66.5q-16 -11 -30.5 -19.5t-31 -14.5t-35.5 -10.5t-23 -4.5l-13 -62h-94l12 57q-23 1 -49 6t-51 17q-19 8 -35 18.5t-57 43.5l87 101q32 -25 41 -31.5t15.5 -11t13 -8t13.5 -7.5q16 -7 30 -10
t16 -3l44 208l-27 18q-35 24 -59 45t-38 43.5t-17.5 46t2.5 52.5q17 79 81 130t142 60l15 63h93l-13 -60q-5 0 9 -1t26 -2.5t23.5 -4.5t24.5 -7q21 -8 36.5 -16.5t54.5 -34.5z" />
    <glyph glyph-name="percent" unicode="%" horiz-adv-x="900" 
d="M429 495q5 21 1 38.5t-14 30t-24.5 19.5t-32.5 7q-17 0 -34 -7t-32.5 -19.5t-26.5 -30t-16 -38.5q-4 -21 -0.5 -38.5t13.5 -30t24 -19.5t32 -7t35.5 7t32.5 19.5t26.5 30t15.5 38.5zM789 162q5 21 1 38.5t-13.5 30t-24 19.5t-31.5 7q-18 0 -35.5 -7t-32.5 -19.5
t-26.5 -30t-16.5 -38.5q-4 -21 0 -38t13.5 -29.5t24.5 -19.5t32 -7q18 0 35 7t32 19.5t26.5 29.5t15.5 38zM539 495q-8 -39 -30.5 -74.5t-55.5 -62.5t-73 -42.5t-82 -15.5t-76 15.5t-54.5 42.5t-28.5 62.5t0 74.5q9 39 31.5 74.5t55 62.5t73 43t82.5 16t75.5 -16t55 -43
t29 -62.5t-1.5 -74.5zM197 -64h-127l768 776h127zM900 162q-8 -39 -31 -74.5t-55 -62t-72.5 -42.5t-82.5 -16t-75.5 16t-55 42.5t-29 62t0.5 74.5q9 39 31 74.5t55 62.5t73.5 42.5t82.5 15.5t75.5 -15.5t54.5 -42.5t29 -62.5t-1 -74.5z" />
    <glyph glyph-name="ampersand" unicode="&#x26;" horiz-adv-x="759" 
d="M322 309l-22 -15q-48 -33 -69 -58.5t-29 -59.5q-10 -48 14 -74t75 -26q34 0 64 12q14 6 29 14.5t32 20.5zM803 106q-24 -28 -33.5 -38.5t-18 -18.5t-16.5 -15t-19 -16q-60 -50 -128 -50q-17 0 -32.5 3t-28.5 9q-22 10 -38 26t-26 29q-35 -27 -89.5 -47.5t-120.5 -20.5
q-51 0 -90 14.5t-63 41.5t-32.5 63.5t0.5 80.5q6 28 18.5 53t33.5 49.5t51 49.5t73 55l34 24q-1 1 -7.5 13t-11.5 23q-23 42 -29 73t2 67q9 40 31.5 74t57 59.5t78.5 39t93 13.5q44 0 79 -12t58.5 -33.5t31.5 -51.5t1 -65q-8 -38 -41.5 -77t-87.5 -74l-79 -50l-48 84l64 41
q30 21 44 37t19 37q5 27 -12.5 43.5t-52.5 16.5q-38 0 -68 -21.5t-37 -55.5q-2 -11 -1 -26q0 -11 1.5 -19t5.5 -18.5t11 -25.5t19 -39l123 -241q-14 -11 -4.5 -2t16.5 17t13 16.5t12 18.5t11.5 20t9.5 20.5t9.5 25.5t16.5 53h119q-13 -45 -18.5 -61.5t-11.5 -31t-12 -26.5
t-14 -25q-10 -16 -20.5 -30t-23.5 -28t-30 -29.5t-27 -25.5q14 -24 27 -34.5t26 -10.5q14 0 32 12.5t75 75.5z" />
    <glyph glyph-name="quotesingle" unicode="'" horiz-adv-x="220" 
d="M140 414l57 266h119l-57 -266h-119z" />
    <glyph glyph-name="parenleft" unicode="(" horiz-adv-x="318" 
d="M165 -265q-15 26 -22 38.5t-12 28t-10 34.5t-10 49q-18 83 -18 162.5t18 165.5q18 85 51.5 163t87.5 164q21 33 35 54t25 35t22.5 25.5t37.5 31.5h133q-69 -64 -103.5 -114t-65 -109t-54 -124.5t-36.5 -128.5q-14 -64 -18 -129t1 -124t19 -108.5t55 -113.5h-136z" />
    <glyph glyph-name="parenright" unicode=")" horiz-adv-x="324" 
d="M302 213q-18 -85 -50.5 -162t-88.5 -166q-17 -27 -29.5 -46t-24 -34.5t-24.5 -28.5l-39 -41h-137q69 64 103.5 113.5t65 108.5t54 124t37.5 129q13 63 17 128.5t-1 124.5t-18.5 109t-54.5 114h134q16 -20 23 -31t12 -25.5t10 -35.5t12 -54q17 -86 17 -164t-18 -163z" />
    <glyph glyph-name="asterisk" unicode="*" horiz-adv-x="523" 
d="M200 200l-82 70l166 166l72 -60zM292 399l-196 59l58 109l189 -75zM392 200l-81 176l96 62l96 -167zM407 471h-106l37 209h122zM383 399l-12 93l221 75l12 -109z" />
    <glyph glyph-name="plus" unicode="+" horiz-adv-x="549" 
d="M356 188l-44 -208h-106l44 208h-209l21 97h209l44 209h106l-44 -209h209l-21 -97h-209z" />
    <glyph glyph-name="comma" unicode="," horiz-adv-x="212" 
d="M190 36q-6 -25 -21 -57q-6 -12 -12.5 -23.5t-15 -24t-18.5 -26.5t-24 -34l-28 -36h-95q27 42 33 52t17 30q5 10 9 17t7 13.5t6.5 13.5t5.5 12l-22 115q37 23 54.5 27.5t39.5 4.5q82 0 64 -84z" />
    <glyph glyph-name="hyphen" unicode="-" horiz-adv-x="300" 
d="M61 170l25 116h241l-25 -116h-241z" />
    <glyph glyph-name="hyphen" unicode="&#xad;" horiz-adv-x="300" 
d="M61 170l25 116h241l-25 -116h-241z" />
    <glyph glyph-name="period" unicode="." horiz-adv-x="198" 
d="M179 45q-7 -31 -35 -54t-63 -23q-36 0 -54 23t-11 54q6 30 34 53t64 23q35 0 53 -23t12 -53z" />
    <glyph glyph-name="slash" unicode="/" horiz-adv-x="347" 
d="M23 -265h-120l464 945h120z" />
    <glyph glyph-name="zero" unicode="0" 
d="M522 321q11 52 7.5 95.5t-18 75.5t-37 49t-49.5 17q-28 0 -57.5 -17t-58.5 -49t-51 -75.5t-33 -95.5q-11 -51 -7.5 -95.5t18.5 -76.5t37.5 -48.5t50.5 -16.5q27 0 56.5 16.5t58 48.5t50.5 76.5t33 95.5zM647 321q-15 -72 -49 -136.5t-80 -113.5t-103.5 -79t-116.5 -30
q-60 0 -104.5 30t-70 79t-32 113.5t8.5 136.5q16 72 50 137t80 114t103.5 79t117.5 30q59 0 103.5 -30t70 -79t32 -114t-9.5 -137z" />
    <glyph glyph-name="one" unicode="1" 
d="M250 -20l122 575h-151l27 127h301l-149 -702h-150z" />
    <glyph glyph-name="two" unicode="2" 
d="M57 -20l16 78l296 279q57 52 71 121q10 44 -4 68t-39 24q-12 0 -26.5 -5t-25.5 -14q-8 -6 -14.5 -11t-15 -14t-22 -23t-57.5 -65l-66 86q32 37 45.5 52.5t23 26t17.5 18.5t20 17q33 29 74 46t83 17q86 0 121.5 -61t14.5 -158q-11 -51 -32 -92q-9 -16 -18.5 -30.5
t-24.5 -31.5t-35.5 -37t-50.5 -49l-127 -116h255l-27 -126h-452z" />
    <glyph glyph-name="three" unicode="3" 
d="M526 220q-13 -59 -47 -106.5t-85 -82t-117 -53t-141 -18.5h-50l22 103q58 2 82.5 4t44 6t35.5 9.5t33 14.5q38 19 64 49.5t33 66.5q11 50 -13 75t-81 25h-75l19 90q92 20 134 51t52 77q6 30 -4.5 44.5t-32.5 14.5q-9 0 -17.5 -2t-20 -7t-27.5 -14.5t-62 -42.5l-55 82
q30 23 42 31t22 14q35 20 76 32.5t79 12.5q73 0 106 -43.5t19 -113.5q-25 -115 -102 -150q-22 7 -11 2.5t22 -10.5q39 -25 53 -66.5t3 -94.5z" />
    <glyph glyph-name="four" unicode="4" 
d="M478 489l-222 -231l25 23l-40 -8h157l47 224l-25 -88zM498 170l-45 -210h-122l45 210h-315l10 44l465 480h74l-90 -421h116l-22 -103h-116z" />
    <glyph glyph-name="five" unicode="5" 
d="M525 225q-14 -64 -54 -117.5t-100 -88.5q-51 -28 -113 -40q-15 -4 -27 -5.5t-25.5 -3t-30 -2.5t-65.5 -3l21 103q49 2 65.5 3.5t28.5 3t23.5 4.5t25.5 7q47 14 79 48t43 86q15 70 -16 106q-11 13 -32.5 19.5t-63.5 8.5l-72 3l72 341h321l-22 -103h-199l-29 -138l16 -1
q94 -8 134.5 -70t19.5 -161z" />
    <glyph glyph-name="six" unicode="6" 
d="M456 202q5 25 1.5 45.5t-13 34.5t-24.5 21t-35 7q-9 0 -23.5 -2t-30.5 -6q-12 -3 -22.5 -6t-21.5 -7.5t-23 -9.5l-18 -7q-1 -5 -3 -13t-3 -16q-9 -42 -7 -76t13.5 -56.5t29.5 -33.5t42 -11q21 0 42.5 9.5t40.5 27t34 43.5t21 56zM574 210q-12 -53 -37.5 -98.5t-62.5 -79
t-83.5 -53.5t-97.5 -20q-56 0 -96 23t-61.5 63.5t-25 96t11.5 124.5q39 184 165 311q59 58 124 85.5t145 27.5q16 0 29.5 -1t58.5 -5l-21 -103q-46 5 -55 5.5t-22 0.5q-21 0 -41 -2t-34 -7q-49 -15 -101 -66q-20 -19 -34 -35t-26 -34.5t-23 -42t-8 -15.5q-20 -9 -8.5 -4
t24.5 10q33 12 65.5 18t61.5 6q44 0 77 -16t52.5 -43.5t25.5 -64.5t-3 -81z" />
    <glyph glyph-name="seven" unicode="7" 
d="M418 259q-15 -24 -34 -51.5t-42 -58.5q-20 -26 -36 -45.5t-32 -37.5t-35 -37.5t-67 -65.5l-77 79q31 29 43.5 41t19.5 19q44 44 87 99.5t74 107.5l161 270h-288l23 109h440l-13 -61z" />
    <glyph glyph-name="eight" unicode="8" 
d="M427 156q5 23 -3.5 44t-34.5 51l-37 41l-52 -36q-67 -46 -79 -100q-9 -43 11.5 -64t69.5 -21q52 0 84 22t41 63zM483 540q6 28 -11.5 43.5t-55.5 15.5q-34 0 -58.5 -18.5t-31.5 -48.5q-7 -35 27 -71l30 -30l45 31q20 14 35 35.5t20 42.5zM556 149q-9 -40 -33.5 -73.5
t-62 -58.5t-84.5 -38.5t-99 -13.5q-50 0 -88.5 13.5t-63.5 38t-34 58t-1 73.5q10 44 35 79q16 21 44 48t51 42l62 42l-39 40q-16 17 -27.5 32t-17 30t-5.5 30t4 34q8 38 30 69.5t55.5 55t75 36t87.5 12.5q44 0 78.5 -11.5t57 -32.5t31 -50t1.5 -64q-16 -76 -99 -133l-61 -42
l53 -56q16 -14 29 -38q21 -32 25 -58t-4 -64z" />
    <glyph glyph-name="nine" unicode="9" 
d="M499 412q9 43 7 77t-13.5 56.5t-29.5 33.5t-43 11q-21 0 -42 -9.5t-40 -27t-33.5 -44t-21.5 -56.5q-10 -50 10.5 -79t60.5 -29q9 0 23 1.5t30 6.5q25 6 44.5 13t40.5 17q2 5 3.5 13t3.5 16zM617 389q-20 -90 -61 -168.5t-104 -140.5q-59 -59 -124.5 -87t-144.5 -28
q-17 0 -29.5 1t-58.5 5l22 104l54 -6q9 -1 21 -1q45 0 75 10q24 6 50 23t53 42q19 18 33 34.5t26 35t23.5 42.5t7.5 15q21 10 9 5t-23 -9q-70 -26 -130 -26q-44 0 -77 16t-52.5 43.5t-25.5 64.5t4 81q11 53 36.5 98t62.5 79.5t84 54.5t97 20q114 0 157.5 -84t14.5 -224z" />
    <glyph glyph-name="colon" unicode=":" horiz-adv-x="254" 
d="M215 45q-7 -31 -35 -54t-63 -23q-36 0 -54 23t-11 54q6 30 34 53t64 23q35 0 53 -23t12 -53zM292 409q-7 -31 -35 -54t-62 -23q-36 0 -54.5 23t-11.5 54q6 30 34 53t64 23q35 0 53 -23t12 -53z" />
    <glyph glyph-name="semicolon" unicode=";" horiz-adv-x="263" 
d="M215 36q-6 -25 -21 -57q-11 -24 -25.5 -47t-45.5 -61l-28 -36h-97q30 42 36 52l16 30q7 10 10.5 17t6.5 13.5t6.5 13.5t5.5 12l-22 115q37 23 54 27.5t40 4.5q82 0 64 -84zM301 409q-7 -31 -35 -54t-63 -23t-53.5 23t-11.5 54q6 30 34 53t63 23q36 0 54 -23t12 -53z" />
    <glyph glyph-name="semicolon" unicode="&#x37e;" horiz-adv-x="263" 
d="M215 36q-6 -25 -21 -57q-11 -24 -25.5 -47t-45.5 -61l-28 -36h-97q30 42 36 52l16 30q7 10 10.5 17t6.5 13.5t6.5 13.5t5.5 12l-22 115q37 23 54 27.5t40 4.5q82 0 64 -84zM301 409q-7 -31 -35 -54t-63 -23t-53.5 23t-11.5 54q6 30 34 53t63 23q36 0 54 -23t12 -53z" />
    <glyph glyph-name="less" unicode="&#x3c;" horiz-adv-x="568" 
d="M51 198l17 78l571 232l-23 -109l-404 -162l335 -162l-23 -109z" />
    <glyph glyph-name="equal" unicode="=" horiz-adv-x="632" 
d="M62 114l21 97h550l-21 -97h-550zM92 253l20 97h550l-20 -97h-550z" />
    <glyph glyph-name="greater" unicode="&#x3e;" horiz-adv-x="585" 
d="M33 -34l23 109l404 162l-335 162l23 109l473 -232l-17 -78z" />
    <glyph glyph-name="question" unicode="?" horiz-adv-x="416" 
d="M221 45q-7 -31 -35 -54t-63 -23q-36 0 -54 23t-11 54q6 30 34 53t64 23q35 0 53 -23t12 -53zM468 446q-9 -42 -26 -72t-51 -58q-13 -10 -25.5 -18.5t-26.5 -13t-28.5 -6.5t-33.5 -2h-26l-23 -107h-125l46 216h161q10 10 17.5 24t11.5 35q9 40 3 74.5t-24.5 60t-48 42
t-96.5 25.5l63 117q44 -11 60.5 -14.5t29 -8.5t23.5 -10.5t23 -13.5q31 -21 53 -50.5t34.5 -64.5t15 -74.5t-6.5 -80.5z" />
    <glyph glyph-name="at" unicode="@" horiz-adv-x="964" 
d="M631 385q-4 2 -19.5 5.5t-28.5 3.5q-22 0 -48.5 -17.5t-53 -51.5t-48 -81.5t-33.5 -101.5q-9 -42 -3 -42q1 0 17 10.5t44 33.5q11 9 24.5 23t29.5 31q39 44 62.5 77.5t39.5 70.5zM964 265q-14 -66 -44 -120t-74 -93t-99.5 -60t-119.5 -21q-129 0 -105 115q3 11 7.5 26.5
t12.5 32.5l-52 -122q75 93 41 60.5t-68.5 -55.5t-69.5 -37t-66 -14q-47 0 -58.5 48.5t3.5 119.5q15 72 47.5 135.5t77 111.5t98.5 77t112 29q14 0 29.5 -1.5t33.5 -3.5q13 -3 22.5 -5t20 -4.5t21.5 -6t44 -14.5l-127 -341q-5 -14 -8 -24t-5 -16q-2 -10 5 -16t20 -6
q6 0 17.5 3t23.5 7q115 47 145 189q13 63 1 117t-43.5 93.5t-79.5 62t-108 22.5q-71 0 -137 -24.5t-119.5 -68t-92 -105.5t-53.5 -136q-17 -79 -2 -136t64 -102q36 -34 76.5 -48t101.5 -14q22 0 39.5 1.5t34.5 5t35 9.5t69 26l17 -97q-45 -20 -57 -24q-73 -26 -162 -26
q-44 0 -80.5 5t-68 16t-58 29t-50.5 42q-63 60 -81 136t3 175q21 96 70 176t121 139.5t161 92.5t188 33q91 0 160 -29.5t112 -82t57.5 -125t-3.5 -157.5z" />
    <glyph glyph-name="A" unicode="A" horiz-adv-x="613" 
d="M405 499l-119 -209h149zM477 -20l-27 195h-229l-109 -195h-140l413 719h125l107 -719h-140z" />
    <glyph glyph-name="B" unicode="B" horiz-adv-x="577" 
d="M432 182q10 50 -14 75t-81 25h-88l-41 -193h88q41 0 59 4.5t33 14.5q14 10 26.5 30.5t17.5 43.5zM472 491q9 42 -8 64q-6 9 -18.5 12.5t-47.5 3.5h-88l-37 -174h82q17 0 27.5 1t18.5 3.5t15 6.5t17 12q30 25 39 71zM567 176q-9 -42 -30.5 -77.5t-54 -62.5t-74 -41.5
t-86.5 -14.5h-269l149 700h239q52 0 84.5 -10.5t55.5 -37.5q22 -26 30 -61t0 -73q-13 -59 -56.5 -104.5t-34.5 -42.5q3 0 33 -50t14 -125z" />
    <glyph glyph-name="C" unicode="C" horiz-adv-x="594" 
d="M653 516q-50 40 -81.5 50.5t-74.5 10.5q-47 0 -89.5 -16.5t-77.5 -48t-61.5 -76t-37.5 -98.5q-13 -59 -6 -107t30 -80.5t61.5 -50t91.5 -17.5q39 0 72.5 6.5t103.5 33.5l15 -102q-36 -16 -48.5 -20.5t-24 -8.5t-23 -7t-24.5 -6q-29 -7 -52.5 -9.5t-48.5 -2.5
q-81 0 -142.5 27.5t-99.5 77t-50 116t5 145.5q16 75 56.5 140t98.5 114t129.5 77t148.5 28q68 0 129 -24q22 -8 36 -17t50 -37z" />
    <glyph glyph-name="D" unicode="D" horiz-adv-x="698" 
d="M594 334q11 52 2 96t-33.5 75t-63 48.5t-89.5 17.5h-100l-102 -482h100q60 0 98 12t71 40q20 17 39 40t34.5 48.5t27 52.5t16.5 52zM730 333q-15 -68 -52.5 -132.5t-94.5 -115.5q-60 -57 -127.5 -81t-158.5 -24h-244l149 700h245q77 0 137.5 -26.5t98.5 -73t50.5 -110
t-3.5 -137.5z" />
    <glyph glyph-name="E" unicode="E" horiz-adv-x="511" 
d="M53 -20l149 700h421l-24 -109h-289l-38 -180h239l-23 -109h-239l-41 -193h298l-23 -109h-430z" />
    <glyph glyph-name="F" unicode="F" horiz-adv-x="485" 
d="M310 571l-39 -186h239l-24 -110h-239l-62 -295h-132l149 700h421l-24 -109h-289z" />
    <glyph glyph-name="G" unicode="G" horiz-adv-x="680" 
d="M639 12q-34 -11 -47.5 -15.5t-22.5 -6.5q-38 -11 -86.5 -17t-92.5 -6q-81 0 -144 28.5t-103 77.5t-54.5 115.5t1.5 142.5q17 76 58.5 142t101.5 114.5t135 76t156 27.5q36 0 75.5 -4t65.5 -12q23 -7 38.5 -14.5t54.5 -31.5l-72 -108q-33 22 -40.5 26t-11.5 7
q-24 10 -56.5 16.5t-69.5 6.5q-65 0 -111 -17t-89 -58q-36 -34 -61 -76.5t-34 -88.5q-12 -57 -2 -104t38 -80.5t71.5 -52.5t99.5 -19q23 0 44 3t42 7l48 224h132z" />
    <glyph glyph-name="H" unicode="H" horiz-adv-x="729" 
d="M524 -20l64 302h-339l-64 -302h-132l149 700h132l-61 -283h339l61 283h132l-149 -700h-132z" />
    <glyph glyph-name="I" unicode="I" horiz-adv-x="258" 
d="M53 -20l149 700h132l-149 -700h-132z" />
    <glyph glyph-name="J" unicode="J" horiz-adv-x="264" 
d="M190 -21q-12 -23 -20.5 -39t-17.5 -30t-19 -27.5t-24 -28.5q-12 -14 -23 -26t-23 -23.5t-26 -23t-55 -44.5l-70 73q35 32 49 45.5t24.5 23.5t17 18t12.5 17q19 27 34.5 63.5t24.5 79.5l133 623h132z" />
    <glyph glyph-name="K" unicode="K" horiz-adv-x="552" 
d="M53 -20l149 700h132l-149 -700h-132zM416 -20l-205 353l348 347h153l-346 -341l210 -359h-160z" />
    <glyph glyph-name="L" unicode="L" horiz-adv-x="484" 
d="M53 -20l149 700h132l-126 -591h295l-23 -109h-427z" />
    <glyph glyph-name="M" unicode="M" horiz-adv-x="836" 
d="M631 -20l80 380q44 202 63 192.5t14 -18.5t-11 -19t-14 -24l-309 -511h-112l-81 499q-2 14 -3.5 23.5t-2.5 19.5t22.5 19.5t-27.5 -220.5l-72 -341h-125l149 700h156l91 -542q4 -22 4 -31t-40 -49q-3 47 1 55.5t12 23.5l329 543h157l-149 -700h-132z" />
    <glyph glyph-name="N" unicode="N" horiz-adv-x="717" 
d="M507 -26l-228 527q-1 4 -3.5 9.5t-5.5 13.5q-1 5 -2.5 9t-2.5 7q-2 5 20 12.5t-10 -149.5l-90 -423h-132l149 700h147l224 -514q2 -3 4 -8t3 -11q1 -7 2 -11.5t4 -17.5q1 -4 0.5 -6t-32.5 69l107 499h132l-151 -706h-135z" />
    <glyph glyph-name="O" unicode="O" horiz-adv-x="772" 
d="M663 330q11 52 3 98.5t-31 80t-58 52.5t-77 19q-43 0 -86 -19t-80 -52.5t-65 -80t-39 -98.5q-11 -53 -3 -99.5t31 -80t58 -52.5t78 -19q42 0 85 19t80 52.5t65 80t39 99.5zM803 330q-16 -78 -56 -143.5t-98 -115t-129.5 -77t-149.5 -27.5t-138.5 27.5t-97 77t-48.5 115
t4 143.5q16 77 56.5 143t98 115t129.5 76.5t150 27.5t138 -27.5t97 -76.5t48.5 -115t-4.5 -143z" />
    <glyph glyph-name="P" unicode="P" horiz-adv-x="559" 
d="M489 460q12 59 -11 89q-10 12 -27 17t-53 5h-88l-50 -235q12 -1 29.5 -2t33.5 -1q48 0 77 11q31 12 55.5 42.5t33.5 73.5zM625 465q-12 -55 -39 -99.5t-68 -76.5t-93.5 -49.5t-111.5 -17.5q-11 0 -20.5 0.5t-20.5 1.5t-25.5 2.5t-9.5 1.5l-52 -248h-132l149 700h232
q64 0 103 -13t64 -47q23 -29 28.5 -67t-4.5 -88z" />
    <glyph glyph-name="Q" unicode="Q" horiz-adv-x="772" 
d="M664 330q11 52 3 98.5t-31 80t-58 52.5t-78 19t-86 -19t-80 -52.5t-65.5 -80t-39.5 -98.5q-11 -53 -3 -99.5t31 -80t58.5 -52.5t78.5 -19t86 19t80 52.5t65 80t39 99.5zM803 329q-14 -68 -47.5 -127.5t-82 -107t-110 -80.5t-97.5 -39q-6 11 -2 5t13 -18q20 -27 41 -45
q11 -10 20 -17.5t19.5 -14t24.5 -14t55 -26.5l-93 -99q-41 24 -57 34.5t-29 20t-25 19t-25 22.5q-15 13 -26 26t-22 27t-20 29.5t-21 34.5l-7 10q-4 1 -15 2.5t-19.5 4t-15.5 4.5t-16 6q-48 17 -83 51.5t-55.5 80.5t-25 100t7.5 112q16 77 56 143t98 115t130 76.5t150 27.5
t138 -27.5t97 -77t48.5 -115t-4.5 -143.5z" />
    <glyph glyph-name="R" unicode="R" horiz-adv-x="577" 
d="M480 481q12 54 -12 77q-4 4 -8.5 6t-12 4t-20.5 2.5t-35 0.5h-82l-42 -199h82q107 0 130 109zM415 -20l-122 283h-48l-60 -283h-132l149 700h226q31 0 55.5 -2.5t44.5 -9t35 -18t28 -26.5q21 -26 28.5 -63.5t-1.5 -78.5q-8 -42 -33 -81.5t-62 -68.5q-27 -22 -55 -35
t-38 -15l135 -302h-150z" />
    <glyph glyph-name="S" unicode="S" horiz-adv-x="506" 
d="M554 518q-44 28 -54.5 34.5t-23.5 10.5q-16 6 -39 9.5t-41 3.5q-47 0 -78 -20t-38 -53q-3 -15 -0.5 -26.5t15 -25t39.5 -32t70 -44.5q65 -39 94 -70q23 -24 30.5 -59.5t-1.5 -74.5q-19 -93 -96.5 -148.5t-188.5 -55.5q-73 0 -127 24q-20 8 -36 18.5t-57 43.5l87 101
q43 -34 56 -42t27 -14q36 -15 81 -15q49 0 78.5 20t38.5 60q5 26 0 39q-8 27 -38 46q-6 5 -30.5 18.5t-66.5 39.5q-70 43 -97 88t-15 102q9 43 34 79t63 62t86 40t102 14q31 0 60.5 -4.5t55.5 -12.5q21 -8 36.5 -16.5t54.5 -34.5z" />
    <glyph glyph-name="T" unicode="T" horiz-adv-x="509" 
d="M470 571l-125 -591h-132l125 591h-220l24 109h572l-24 -109h-220z" />
    <glyph glyph-name="U" unicode="U" horiz-adv-x="658" 
d="M663 226q-15 -69 -43.5 -114.5t-81.5 -83.5q-97 -67 -213 -67q-118 0 -186 67q-38 37 -47 83.5t5 114.5l97 454h132l-92 -429q-6 -30 -9 -50t-2 -33.5t5 -23.5t12 -21q33 -49 108 -49q74 0 128 49q13 11 21.5 21t15 23.5t12 33.5t11.5 50l92 429h132z" />
    <glyph glyph-name="V" unicode="V" horiz-adv-x="610" 
d="M345 -37h-87l-123 717h140l88 -530q1 -8 1.5 -16t-38.5 -49q-11 38 -7 47t9 18l306 530h134z" />
    <glyph glyph-name="W" unicode="W" horiz-adv-x="892" 
d="M634 -33h-88l-45 264l-158 -264h-80l-128 713h140l79 -496l120 202l-49 294h127l21 -125l75 125h120l-168 -282l36 -212l281 494h133z" />
    <glyph glyph-name="X" unicode="X" horiz-adv-x="599" 
d="M461 -20l-115 247l-222 -247h-151l320 357l-160 343h150l111 -233l208 233h150l-308 -344l168 -356h-151z" />
    <glyph glyph-name="Y" unicode="Y" horiz-adv-x="518" 
d="M400 303l-68 -323h-132l67 318l-153 382h143l107 -259l221 259h144z" />
    <glyph glyph-name="Z" unicode="Z" horiz-adv-x="583" 
d="M15 -20l13 63l477 528h-365l24 109h544l-15 -69l-476 -522h383l-23 -109h-562z" />
    <glyph glyph-name="bracketleft" unicode="[" horiz-adv-x="250" 
d="M-8 -265l201 945h214l-21 -96h-88l-160 -753h88l-20 -96h-214z" />
    <glyph glyph-name="backslash" unicode="\" horiz-adv-x="409" 
d="M219 -265l-63 945h121l62 -945h-120z" />
    <glyph glyph-name="bracketright" unicode="]" horiz-adv-x="250" 
d="M-68 -265l20 96h88l160 753h-88l21 96h214l-201 -945h-214z" />
    <glyph glyph-name="asciicircum" unicode="^" horiz-adv-x="522" 
d="M413 -19l-81 355l-231 -355h-116l336 512h89l119 -512h-116z" />
    <glyph glyph-name="underscore" unicode="_" horiz-adv-x="500" 
d="M-41 -77l20 97h550l-20 -97h-550z" />
    <glyph glyph-name="a" unicode="a" horiz-adv-x="437" 
d="M323 180l-133 -33q-4 -6 -7.5 -13.5t-6.5 -19.5q-4 -20 4 -29.5t24 -9.5q10 0 18.5 2t21 7.5t31 15.5t36.5 22zM417 -34q-76 5 -97.5 24t-22.5 12q25 19 12 10.5t-26 -14.5q-27 -14 -58 -22t-59 -8q-67 0 -98 39t-18 100q12 56 50 93.5t100 51.5l146 33l14 67
q7 36 -54 36q-44 0 -48 -19q0 -3 4 -31l-127 -26q-9 27 -9.5 34.5t1.5 17.5q12 55 72.5 88t141.5 33q79 0 118.5 -36t26.5 -97l-52 -245l-7 -32q0 -3 40 -10z" />
    <glyph glyph-name="b" unicode="b" horiz-adv-x="539" 
d="M431 244q14 65 -8 97.5t-73 32.5q-27 0 -50.5 -7t-41.5 -18l-57 -269q1 0 12 -2.5t28 -2.5q18 0 33 3q18 4 35 11t33 17q38 23 57.5 53.5t31.5 84.5zM564 247q-14 -62 -45 -113t-77 -88.5t-104.5 -58t-123.5 -20.5q-22 0 -49.5 3t-46.5 8q-12 3 -21.5 6t-37.5 18l159 747
h125l-59 -279q-21 -9 -9 -5t28 9q21 6 47.5 8.5t48.5 2.5q49 0 85.5 -18t58 -50t26.5 -75.5t-5 -94.5z" />
    <glyph glyph-name="c" unicode="c" horiz-adv-x="482" 
d="M471 29q-33 -17 -41 -21.5t-14 -6.5q-70 -34 -146 -34q-58 0 -101.5 19t-70 53.5t-35 80.5t3.5 101q12 57 41 104.5t71 83.5t95 56t111 20q38 0 72 -10q24 -7 39.5 -15.5t49.5 -36.5l-91 -98q-37 39 -53.5 45.5t-42.5 6.5q-56 0 -100 -40.5t-59 -111.5
q-15 -72 12.5 -110.5t88.5 -38.5q28 0 49 7t78 43z" />
    <glyph glyph-name="d" unicode="d" horiz-adv-x="532" 
d="M422 295q5 25 6 34.5t-2 17.5q-8 26 -63 26q-59 0 -104.5 -41t-61.5 -117q-7 -32 -4.5 -58t12 -44t25 -26.5t34.5 -8.5q15 0 35.5 6.5t41.5 19.5q13 8 23.5 17t25.5 23zM355 -20l3 14q15 14 -33 -6.5t-98 -20.5q-49 0 -84.5 19t-56.5 52.5t-26.5 78.5t5.5 97
q13 58 41.5 107t70.5 85.5t94 57.5t108 21q40 0 68 -8.5t14 4.5l57 268h126l-163 -769h-126z" />
    <glyph glyph-name="e" unicode="e" horiz-adv-x="487" 
d="M392 309q5 27 -9 47.5t-49 20.5q-37 0 -67 -22t-41 -46h166zM194 213q-12 -57 13 -97t81 -40q25 0 48 8t92 50l30 -98q-47 -26 -71 -37.5t-47 -18.5t-45 -10t-46 -3q-53 0 -93.5 19.5t-64 54.5t-29.5 81.5t6 103.5t38.5 104t65 81.5t87.5 54t103 19.5q46 0 80 -15.5
t54 -43.5t25.5 -66t-3.5 -83l-14 -64h-310z" />
    <glyph glyph-name="f" unicode="f" horiz-adv-x="310" 
d="M518 628q-42 15 -55.5 18t-27.5 3q-90 0 -120 -140l-7 -36h107l-22 -103h-107l-83 -390h-125l83 390h-76l16 79l80 19l13 60q11 51 34.5 93t59 73t80 48t95.5 17q33 0 57 -5.5t67 -27.5z" />
    <glyph glyph-name="g" unicode="g" horiz-adv-x="515" 
d="M360 -71q5 26 -29 26h-154l-10 -12q-28 -33 -38 -47.5t-12 -23.5q-3 -15 15.5 -26.5t57.5 -11.5q29 0 59 8.5t53 21.5t38.5 30t19.5 35zM368 295q4 21 1 38.5t-11 29.5t-20.5 18.5t-27.5 6.5q-14 0 -28 -6.5t-27.5 -19t-24 -30t-14.5 -37.5q-5 -20 -1.5 -37.5t11.5 -30
t20 -19t26 -6.5t28.5 6t28 18.5t24 30t15.5 38.5zM505 370q7 -16 -5 -74q-8 -38 -31 -72.5t-55.5 -60.5t-72.5 -42t-83 -16q-6 0 -13 0.5t-16 1.5q-2 0 -6 0.5t3 0.5q-27 -19 -40 -31.5t-14 -16.5q0 3 -1 3.5t15 0.5h169q73 0 103 -31.5t17 -94.5q-10 -44 -39 -82t-72 -67
t-95.5 -45.5t-108.5 -16.5q-40 0 -74 9.5t-58 27t-36 41.5t-7 51q5 23 28 54q15 21 31.5 38t23.5 23q-7 3 -24.5 19.5t-11.5 44.5t36.5 57.5t62.5 52.5q-65 39 -42 147q9 41 31.5 76.5t55.5 61.5t74 40.5t86 14.5q14 0 25.5 -1t23 -3.5t24 -6t24.5 -8.5h63l110 9l-22 -105
h-79z" />
    <glyph glyph-name="h" unicode="h" horiz-adv-x="533" 
d="M356 -20l72 341q5 22 6 30.5t-1 15.5q-3 11 -20 11q-26 0 -67 -24.5t-104 -82.5l-62 -291h-125l163 769h125l-70 -330q-41 -37 -31.5 -27.5t18 16.5t16.5 13t18 13q35 25 74.5 38t76.5 13q144 0 113 -146l-76 -359h-126z" />
    <glyph glyph-name="i" unicode="i" horiz-adv-x="249" 
d="M61 -20l105 493h125l-105 -493h-125zM332 611q-6 -27 -31.5 -48t-57.5 -21t-48.5 21t-10.5 48t31.5 48t57.5 21q31 0 48 -21t11 -48z" />
    <glyph glyph-name="j" unicode="j" horiz-adv-x="264" 
d="M167 -78q-14 -22 -23 -36t-17.5 -26t-17 -22.5t-19.5 -24.5q-9 -11 -17 -20l-16 -18q-8 -9 -18 -18.5t-44 -44.5l-70 71q29 31 39.5 42.5t18.5 21t14.5 18.5t16.5 22q15 22 25.5 47.5t18.5 59.5l102 479h125zM325 612q-6 -27 -31.5 -48t-57.5 -21q-31 0 -48 21t-11 48
t31.5 48t57.5 21t48.5 -21t10.5 -48z" />
    <glyph glyph-name="k" unicode="k" horiz-adv-x="468" 
d="M55 -20l163 769h125l-163 -769h-125zM330 -20l-146 267l252 226h160l-261 -229l153 -264h-158z" />
    <glyph glyph-name="l" unicode="l" horiz-adv-x="231" 
d="M55 -20l163 769h125l-163 -769h-125z" />
    <glyph glyph-name="m" unicode="m" horiz-adv-x="825" 
d="M649 -20l72 341q5 24 6 31t-1 14q-2 6 -7 9t-14 3q-23 0 -57.5 -20t-94.5 -71l-20 -17l-61 -290h-125l72 341q5 24 6 31t-1 14q-2 6 -7 9t-14 3q-12 0 -27.5 -5t-37 -18t-49 -35t-57.5 -49l-62 -291h-125l105 493h125l-12 -54q-41 -36 -31 -27t18.5 16t16.5 13t18 13
q35 25 74 38t76 13q135 0 124 -71q-36 -32 -26 -23t19 16.5t17 13.5t18 13q35 25 74 38t76 13q144 0 113 -146l-76 -359h-125z" />
    <glyph glyph-name="n" unicode="n" horiz-adv-x="523" 
d="M347 -20l72 341q5 22 5.5 30.5t-1.5 16.5q-1 4 -6 7t-14 3q-12 0 -27.5 -5t-37 -18t-49 -35t-57.5 -49l-62 -291h-125l105 493h125l-12 -54q-41 -36 -31 -27t18.5 16t16.5 13t18 13q35 25 74 38t76 13q144 0 113 -146l-76 -359h-125z" />
    <glyph glyph-name="o" unicode="o" horiz-adv-x="545" 
d="M433 226q7 33 3 62t-16 49t-30 30.5t-41 10.5q-22 0 -45 -10.5t-44 -30.5t-37 -49t-23 -62t-3 -62t16 -49t30.5 -30.5t41.5 -10.5q22 0 44.5 10.5t43.5 30.5t37 49t23 62zM565 226q-11 -52 -39.5 -98.5t-69.5 -82t-91 -57t-103 -21.5t-94.5 21.5t-67 57t-34.5 82t2 98.5
t39.5 98.5t69.5 82t92 57t103 21.5q53 0 94 -21.5t66.5 -57t34.5 -82t-2 -98.5z" />
    <glyph glyph-name="p" unicode="p" horiz-adv-x="541" 
d="M433 238q6 32 3.5 58t-12 44t-24.5 26.5t-34 8.5q-15 0 -36 -7t-42 -19q-13 -9 -23.5 -17.5t-24.5 -23.5l-33 -151q-6 -28 -6 -35.5t2 -15.5q10 -27 63 -27q59 0 104.5 41.5t62.5 117.5zM564 239q-12 -58 -41.5 -107t-70.5 -85.5t-93.5 -57.5t-108.5 -21q-40 0 -67.5 8.5
t-14.5 -4.5l-49 -231h-125l156 732h125l-3 -14q-17 -15 31.5 6t97.5 21t85.5 -19t57 -52.5t26 -78.5t-5.5 -97z" />
    <glyph glyph-name="q" unicode="q" horiz-adv-x="518" 
d="M426 371q-1 0 -12 2.5t-30 2.5q-69 0 -120 -44.5t-68 -125.5q-14 -64 8 -96t73 -32q27 0 50.5 7t41.5 17zM292 -259l51 241q21 9 9 5t-28 -9q-21 -5 -47 -8.5t-49 -3.5q-48 0 -85 18t-58 50t-27 74.5t5 93.5q13 61 44 112t77 89.5t103.5 60t121.5 21.5q25 0 52.5 -2.5
t47.5 -8.5q12 -3 21.5 -6.5t37.5 -16.5l-151 -710h-125z" />
    <glyph glyph-name="r" unicode="r" horiz-adv-x="322" 
d="M366 336q-31 33 -32 33q-24 0 -103 -103l-61 -286h-125l105 493h125l-7 -32q-32 -32 -10.5 -13t40 32t36.5 19t36 6q39 0 77 -48z" />
    <glyph glyph-name="s" unicode="s" horiz-adv-x="429" 
d="M430 117q-15 -69 -72.5 -109.5t-142.5 -40.5q-32 0 -67 6q-16 4 -29 7t-25.5 8t-24.5 11t-43 24l72 102q32 -20 39.5 -24.5t11.5 -7.5q20 -10 43.5 -16t43.5 -6q25 0 42.5 11t21.5 29q1 6 0.5 12t-1.5 9q-5 9 -10 14.5t-15 12.5t-27.5 16t-43.5 21q-32 15 -54 29.5
t-34.5 31.5t-15.5 36.5t2 43.5q14 69 76.5 108.5t151.5 39.5q15 0 31.5 -1t30.5 -4t24.5 -6t20.5 -7t20.5 -10t38.5 -25l-80 -98q-38 28 -48.5 33t-24.5 9q-24 7 -43 7q-29 0 -46 -10t-20 -27q-3 -10 0 -14q6 -8 10.5 -11.5t14 -9.5t25.5 -13.5t44 -20.5q35 -16 57.5 -31.5
t35.5 -35t14.5 -42t-4.5 -51.5z" />
    <glyph glyph-name="t" unicode="t" horiz-adv-x="329" 
d="M347 40q-39 -27 -57.5 -38.5t-36 -20t-34 -11.5t-32.5 -3q-52 0 -74.5 35t-11.5 86l60 282h-76l16 79l80 19l30 137h125l-28 -132h120l-22 -103h-120l-51 -238l-3 -19q-1 -11 -2.5 -17t-1.5 -10v-4q7 0 18 5t65 40z" />
    <glyph glyph-name="u" unicode="u" horiz-adv-x="523" 
d="M346 -20l8 40q-50 -54 -166 -54q-146 0 -115 147l77 360h125l-73 -341q-8 -37 -3 -48t20 -11q12 0 31 7.5t43 22.5t49.5 36t46.5 42l62 292h126l-105 -493h-126z" />
    <glyph glyph-name="v" unicode="v" horiz-adv-x="456" 
d="M273 -33h-106l-77 506h135l49 -384l-48 -28l1 27l210 385h135z" />
    <glyph glyph-name="w" unicode="w" horiz-adv-x="695" 
d="M532 -33h-99l-44 298l20 23l16 -23l-177 -298h-100l-57 506h134l34 -378l-23 -37l-25 37l160 279l-16 99h132l45 -377l-41 -53l-6 53l198 377h127z" />
    <glyph glyph-name="x" unicode="x" horiz-adv-x="470" 
d="M309 -20l-58 144l-121 -144h-141l218 249l-113 244h150l54 -142l116 142h143l-214 -241l115 -252h-149z" />
    <glyph glyph-name="y" unicode="y" horiz-adv-x="429" 
d="M250 -31q-25 -42 -46 -73.5t-47 -62.5q-9 -11 -17.5 -20.5t-18.5 -20.5t-23 -24l-52 -52l-81 75q36 32 50.5 46t26 25.5t22 24.5t24.5 31l22 30q11 14 21 29t21 34t23 39l-86 423h137l53 -292l-6 41l-18 -42l160 293h130z" />
    <glyph glyph-name="z" unicode="z" horiz-adv-x="460" 
d="M20 -20l13 64l325 322h-243l23 107h427l-13 -58l-330 -328h260l-22 -107h-440z" />
    <glyph glyph-name="braceleft" unicode="{" horiz-adv-x="409" 
d="M274 -263q-83 0 -112 37t-13 115l47 220q20 93 -31 93h-61l20 95h61q51 0 71 93l47 220q16 78 61 115t128 37h81l-22 -103h-69q-9 0 -19.5 -5t-18.5 -14q-8 -8 -12.5 -21t-10.5 -41l-43 -201q-3 -14 -5.5 -26t-5.5 -21q-10 -33 -36.5 -60t-60.5 -34l73 17l-69 12
q35 -8 51 -43q4 -9 6.5 -18.5t2 -21t-3 -26t-6.5 -34.5l-43 -202q-6 -27 -6.5 -39.5t3.5 -21.5q4 -8 12.5 -13.5t17.5 -5.5h69l-22 -103h-81z" />
    <glyph glyph-name="bar" unicode="|" horiz-adv-x="250" 
d="M12 -259l214 1008h120l-214 -1008h-120z" />
    <glyph glyph-name="braceright" unicode="}" horiz-adv-x="409" 
d="M334 202q-22 0 -41 -21.5t-30 -71.5l-47 -220q-16 -78 -61 -115t-128 -37h-81l22 103h69q9 0 20 5t18 14q8 8 12.5 21t10.5 40l43 202q3 14 5.5 25.5t5.5 21.5q11 33 37.5 60t60.5 34l-73 -14l68 -14q-36 8 -51 42q-4 9 -6 18.5t-2 21t2.5 26t6.5 34.5l43 201
q6 28 6.5 40.5t-3.5 21.5q-4 8 -12.5 13.5t-17.5 5.5h-69l22 103h81q83 0 112 -37t13 -115l-47 -220q-20 -92 32 -93l60 -2l-20 -93h-61z" />
    <glyph glyph-name="asciitilde" unicode="~" horiz-adv-x="544" 
d="M610 228q-47 -30 -65 -39t-44 -18q-57 -19 -105 -19q-17 0 -32.5 1.5t-31 6.5t-32 12.5t-39.5 19.5q-19 10 -30.5 13.5t-24.5 3.5q-24 0 -54.5 -11.5t-89.5 -49.5l-37 77q30 21 41.5 28.5t22.5 13.5t22 10.5t25 10.5q55 20 96 20q21 0 43 -5t45 -18l45 -21q19 -10 31 -13
t25 -3q26 0 56 9q16 5 28.5 12t62.5 38z" />
    <glyph glyph-name="brokenbar" unicode="&#xa6;" horiz-adv-x="220" 
d="M-4 -259l102 478h122l-102 -478h-122zM109 271l101 478h122l-101 -478h-122z" />
    <glyph glyph-name="guillemotleft" unicode="&#xab;" horiz-adv-x="560" 
d="M54 226l336 239l-30 -140l-143 -99l101 -99l-29 -138zM293 226l336 239l-30 -140l-143 -99l101 -99l-29 -138z" />
    <glyph glyph-name="Agrave" unicode="&#xc0;" horiz-adv-x="613" 
d="M405 499l-119 -209h149zM477 -20l-27 195h-229l-109 -195h-140l413 719h125l107 -719h-140zM407 695l-119 158h152l93 -158h-126z" />
    <glyph glyph-name="Aacute" unicode="&#xc1;" horiz-adv-x="613" 
d="M405 499l-119 -209h149zM477 -20l-27 195h-229l-109 -195h-140l413 719h125l107 -719h-140zM498 695h-128l161 158h152z" />
    <glyph glyph-name="Acircumflex" unicode="&#xc2;" horiz-adv-x="613" 
d="M405 499l-119 -209h149zM477 -20l-27 195h-229l-109 -195h-140l413 719h125l107 -719h-140zM510 676l-53 57l-76 -57h-130l184 157h87l120 -157h-132z" />
    <glyph glyph-name="Atilde" unicode="&#xc3;" horiz-adv-x="613" 
d="M405 499l-119 -209h149zM477 -20l-27 195h-229l-109 -195h-140l413 719h125l107 -719h-140zM689 756q-36 -28 -49.5 -36t-36.5 -17q-45 -18 -85 -18q-44 0 -94 30q-19 11 -25.5 13.5t-14.5 2.5q-12 0 -24 -6q-5 -1 -8 -2.5t-7.5 -4t-11.5 -6.5t-45 -25l-40 79
q48 27 61 34t30 13q39 18 78 18q11 0 17 -1t14 -2.5t17 -5.5t19.5 -10.5t27.5 -16.5q14 -8 21.5 -11t14.5 -3t13 1t13 4t19 9t56 33z" />
    <glyph glyph-name="Adieresis" unicode="&#xc4;" horiz-adv-x="613" 
d="M405 499l-119 -209h149zM477 -20l-27 195h-229l-109 -195h-140l413 719h125l107 -719h-140zM442 758q-6 -27 -32 -48.5t-59 -21.5q-32 0 -49 21.5t-11 48.5q6 28 32 49.5t58 21.5q33 0 50 -21.5t11 -49.5zM627 758q-6 -27 -31.5 -48.5t-58.5 -21.5t-50 21.5t-11 48.5
q6 28 32 49.5t59 21.5t49.5 -21.5t10.5 -49.5z" />
    <glyph glyph-name="Aring" unicode="&#xc5;" horiz-adv-x="613" 
d="M405 499l-119 -209h149zM484 788q3 10 -1.5 16t-9.5 6t-12 -6t-10 -16q-2 -10 3 -15.5t10 -5.5t11.5 5.5t8.5 15.5zM477 -20l-27 195h-229l-109 -195h-140l413 719h125l107 -719h-140zM572 788q-8 -40 -44 -69.5t-81 -29.5q-44 0 -68 29.5t-16 69.5q9 40 45.5 70t81.5 30
t68 -30t14 -70z" />
    <glyph glyph-name="AE" unicode="&#xc6;" horiz-adv-x="800" 
d="M456 501l-148 -211h103zM345 -20l41 195h-153l-135 -195h-149l502 700h68h396l-24 -109h-294l-38 -180h243l-23 -109h-243l-41 -193h300l-23 -109h-427z" />
    <glyph glyph-name="Ccedilla" unicode="&#xc7;" horiz-adv-x="594" 
d="M653 516q-50 40 -81.5 50.5t-74.5 10.5q-47 0 -89.5 -16.5t-77.5 -48t-61.5 -76t-37.5 -98.5q-13 -59 -6 -107t30 -80.5t61.5 -50t91.5 -17.5q39 0 72.5 6.5t103.5 33.5l15 -102q-49 -21 -65.5 -27t-38.5 -11q-59 -14 -108 -14h12l-15 -18h-31q102 0 81 -96
q-10 -49 -51.5 -80.5t-100.5 -31.5q-27 0 -51.5 5.5t-80.5 27.5l63 89q47 -22 60 -26t23 -4q7 0 12.5 4t7.5 13q2 13 -4 17t-34 4h-71l84 103q13 -3 0 -0.5t-24.5 6t-21.5 7.5t-21 9q-43 22 -74 56.5t-47.5 78.5t-20 94.5t8.5 105.5q16 75 56.5 140t98.5 114t129.5 77
t148.5 28q68 0 129 -24q22 -8 36 -17t50 -37z" />
    <glyph glyph-name="Egrave" unicode="&#xc8;" horiz-adv-x="511" 
d="M53 -20l149 700h421l-24 -109h-289l-38 -180h239l-23 -109h-239l-41 -193h298l-23 -109h-430zM402 695l-118 158h152l92 -158h-126z" />
    <glyph glyph-name="Eacute" unicode="&#xc9;" horiz-adv-x="511" 
d="M53 -20l149 700h421l-24 -109h-289l-38 -180h239l-23 -109h-239l-41 -193h298l-23 -109h-430zM479 695h-69q-40 18 -29 29t34 33.5t48.5 48t48.5 47.5h152z" />
    <glyph glyph-name="Ecircumflex" unicode="&#xca;" horiz-adv-x="511" 
d="M53 -20l149 700h421l-24 -109h-289l-38 -180h239l-23 -109h-239l-41 -193h298l-23 -109h-430zM491 676l-52 57l-77 -57h-128l182 157h87l121 -157h-133z" />
    <glyph glyph-name="Edieresis" unicode="&#xcb;" horiz-adv-x="511" 
d="M53 -20l149 700h421l-24 -109h-289l-38 -180h239l-23 -109h-239l-41 -193h298l-23 -109h-430zM426 761q-6 -28 -32.5 -49.5t-57.5 -21.5q-33 0 -50 21.5t-11 49.5t32 49t59 21q31 0 48.5 -21t11.5 -49zM611 761q-6 -28 -31.5 -49.5t-58.5 -21.5t-49.5 21.5t-10.5 49.5
t31.5 49t58.5 21q32 0 49 -21t11 -49z" />
    <glyph glyph-name="Igrave" unicode="&#xcc;" horiz-adv-x="281" 
d="M57 -20l149 700h132l-149 -700h-132zM254 695l-118 158h152l92 -158h-126z" />
    <glyph glyph-name="Iacute" unicode="&#xcd;" horiz-adv-x="278" 
d="M66 -20l149 700h132l-149 -700h-132zM311 695h-127l160 158h152z" />
    <glyph glyph-name="Icircumflex" unicode="&#xce;" horiz-adv-x="323" 
d="M83 -20l149 700h132l-149 -700h-132zM366 676l-53 57l-76 -57h-130l184 157h87l120 -157h-132z" />
    <glyph glyph-name="Idieresis" unicode="&#xcf;" horiz-adv-x="286" 
d="M67 -20l149 700h132l-149 -700h-132zM300 758q-6 -27 -31.5 -48.5t-58.5 -21.5t-49.5 21.5t-10.5 48.5q6 28 31.5 49.5t58.5 21.5t49.5 -21.5t10.5 -49.5zM452 758q-6 -27 -31.5 -48.5t-58.5 -21.5t-49.5 21.5t-10.5 48.5q6 28 31.5 49.5t58.5 21.5t49.5 -21.5
t10.5 -49.5z" />
    <glyph glyph-name="Ntilde" unicode="&#xd1;" horiz-adv-x="717" 
d="M507 -26l-228 527q-1 4 -3.5 9.5t-5.5 13.5q-1 5 -2.5 9t-2.5 7q-2 5 -3 11t13 -148l-90 -423h-132l149 700h147l224 -514q2 -3 4 -8t3 -11q1 -7 2 -11.5t4 -17.5q1 -4 0.5 -6t-32.5 69l107 499h132l-151 -706h-135zM743 747q-36 -28 -49.5 -36t-36.5 -17
q-45 -18 -85 -18q-44 0 -94 30q-19 11 -25.5 13.5t-14.5 2.5q-12 0 -24 -6q-4 -1 -7.5 -2.5t-8 -4t-11.5 -6.5t-45 -25l-40 79q48 27 61 34t30 13q39 18 78 18q11 0 17 -1q7 -1 14.5 -2.5t16.5 -5.5t19.5 -10.5t27.5 -16.5q14 -8 21.5 -11t14.5 -3t13 1t13 4t19 9t56 33z
" />
    <glyph glyph-name="Ograve" unicode="&#xd2;" horiz-adv-x="772" 
d="M663 330q11 51 3 96.5t-31.5 78.5t-58 52t-77.5 19q-42 0 -85 -19t-80 -52t-65 -78.5t-39 -96.5t-2 -96.5t32 -79t58 -52t77 -18.5t85 19t80 52t64.5 78.5t38.5 96.5zM803 330q-16 -78 -56 -143.5t-98 -115t-129.5 -77t-149.5 -27.5t-138.5 27.5t-97 77t-48.5 115
t4 143.5q16 77 56.5 143t98 115t129.5 76.5t150 27.5t138 -27.5t97 -76.5t48.5 -115t-4.5 -143zM472 695l-118 158h152l92 -158h-126z" />
    <glyph glyph-name="Oacute" unicode="&#xd3;" horiz-adv-x="772" 
d="M663 330q11 51 3 96.5t-31.5 78.5t-58 52t-77.5 19q-42 0 -85 -19t-80 -52t-65 -78.5t-39 -96.5t-2 -96.5t32 -79t58 -52t77 -18.5t85 19t80 52t64.5 78.5t38.5 96.5zM803 330q-16 -78 -56 -143.5t-98 -115t-129.5 -77t-149.5 -27.5t-138.5 27.5t-97 77t-48.5 115
t4 143.5q16 77 56.5 143t98 115t129.5 76.5t150 27.5t138 -27.5t97 -76.5t48.5 -115t-4.5 -143zM568 695h-127l160 158h152z" />
    <glyph glyph-name="Ocircumflex" unicode="&#xd4;" horiz-adv-x="772" 
d="M663 330q11 51 3 96.5t-31.5 78.5t-58 52t-77.5 19q-42 0 -85 -19t-80 -52t-65 -78.5t-39 -96.5t-2 -96.5t32 -79t58 -52t77 -18.5t85 19t80 52t64.5 78.5t38.5 96.5zM803 330q-16 -78 -56 -143.5t-98 -115t-129.5 -77t-149.5 -27.5t-138.5 27.5t-97 77t-48.5 115
t4 143.5q16 77 56.5 143t98 115t129.5 76.5t150 27.5t138 -27.5t97 -76.5t48.5 -115t-4.5 -143zM584 676l-52 57l-77 -57h-130l184 157h87l121 -157h-133z" />
    <glyph glyph-name="Otilde" unicode="&#xd5;" horiz-adv-x="772" 
d="M663 330q11 51 3 96.5t-31.5 78.5t-58 52t-77.5 19q-42 0 -85 -19t-80 -52t-65 -78.5t-39 -96.5t-2 -96.5t32 -79t58 -52t77 -18.5t85 19t80 52t64.5 78.5t38.5 96.5zM803 330q-16 -78 -56 -143.5t-98 -115t-129.5 -77t-149.5 -27.5t-138.5 27.5t-97 77t-48.5 115
t4 143.5q16 77 56.5 143t98 115t129.5 76.5t150 27.5t138 -27.5t97 -76.5t48.5 -115t-4.5 -143zM758 743q-37 -28 -50.5 -36t-36.5 -17q-45 -18 -85 -18q-43 0 -94 30q-19 11 -25 13.5t-14 2.5q-12 0 -25 -6q-4 -1 -7 -3l-8 -4q-5 -2 -12 -6t-45 -25l-40 79q48 27 61.5 34
t29.5 13q39 18 78 18q12 0 17 -1q7 -1 14.5 -2.5t16.5 -5.5t19.5 -10.5t27.5 -16.5q14 -8 21.5 -11t14.5 -3q8 0 13.5 1t12.5 4t19 9t56 33z" />
    <glyph glyph-name="Odieresis" unicode="&#xd6;" horiz-adv-x="772" 
d="M663 330q11 51 3 96.5t-31.5 78.5t-58 52t-77.5 19q-42 0 -85 -19t-80 -52t-65 -78.5t-39 -96.5t-2 -96.5t32 -79t58 -52t77 -18.5t85 19t80 52t64.5 78.5t38.5 96.5zM803 330q-16 -78 -56 -143.5t-98 -115t-129.5 -77t-149.5 -27.5t-138.5 27.5t-97 77t-48.5 115
t4 143.5q16 77 56.5 143t98 115t129.5 76.5t150 27.5t138 -27.5t97 -76.5t48.5 -115t-4.5 -143zM515 760q-6 -28 -32.5 -49.5t-58.5 -21.5t-49 21.5t-11 49.5q5 27 31.5 48.5t58.5 21.5t49 -21.5t12 -48.5zM717 760q-6 -28 -31.5 -49.5t-59.5 -21.5q-33 0 -49 21.5t-10 49.5
q5 27 30.5 48.5t58.5 21.5q34 0 50 -21.5t11 -48.5z" />
    <glyph glyph-name="multiply" unicode="&#xd7;" horiz-adv-x="550" 
d="M463 -44l-156 196l-239 -197l-58 74l239 197l-155 197l90 74l155 -197l239 197l58 -74l-239 -197l155 -197z" />
    <glyph glyph-name="Ugrave" unicode="&#xd9;" horiz-adv-x="658" 
d="M663 226q-15 -69 -43.5 -114.5t-81.5 -83.5q-97 -67 -213 -67q-118 0 -186 67q-38 37 -47 83.5t5 114.5l97 454h132l-92 -429q-6 -30 -9 -50t-2 -33.5t5 -23.5t12 -21q33 -49 108 -49q74 0 128 49q13 11 21.5 21t15 23.5t12 33.5t11.5 50l92 429h132zM467 695l-119 158
h152l93 -158h-126z" />
    <glyph glyph-name="Uacute" unicode="&#xda;" horiz-adv-x="658" 
d="M663 226q-15 -69 -43.5 -114.5t-81.5 -83.5q-97 -67 -213 -67q-118 0 -186 67q-38 37 -47 83.5t5 114.5l97 454h132l-92 -429q-6 -30 -9 -50t-2 -33.5t5 -23.5t12 -21q33 -49 108 -49q74 0 128 49q13 11 21.5 21t15 23.5t12 33.5t11.5 50l92 429h132zM521 695h-127
l160 158h152z" />
    <glyph glyph-name="Ucircumflex" unicode="&#xdb;" horiz-adv-x="658" 
d="M663 226q-15 -69 -43.5 -114.5t-81.5 -83.5q-97 -67 -213 -67q-118 0 -186 67q-38 37 -47 83.5t5 114.5l97 454h132l-92 -429q-6 -30 -9 -50t-2 -33.5t5 -23.5t12 -21q33 -49 108 -49q74 0 128 49q13 11 21.5 21t15 23.5t12 33.5t11.5 50l92 429h132zM547 676l-52 57
l-77 -57h-130l184 157h87l121 -157h-133z" />
    <glyph glyph-name="Udieresis" unicode="&#xdc;" horiz-adv-x="658" 
d="M663 226q-15 -69 -43.5 -114.5t-81.5 -83.5q-97 -67 -213 -67q-118 0 -186 67q-38 37 -47 83.5t5 114.5l97 454h132l-92 -429q-6 -30 -9 -50t-2 -33.5t5 -23.5t12 -21q33 -49 108 -49q74 0 128 49q13 11 21.5 21t15 23.5t12 33.5t11.5 50l92 429h132zM475 762
q-6 -28 -31.5 -49t-58.5 -21t-49.5 21t-10.5 49t31.5 49t58.5 21t49.5 -21t10.5 -49zM677 762q-6 -28 -31.5 -49t-58.5 -21t-49.5 21t-10.5 49t31.5 49t58.5 21t49.5 -21t10.5 -49z" />
    <glyph glyph-name="agrave" unicode="&#xe0;" horiz-adv-x="437" 
d="M323 180l-133 -33q-4 -6 -7.5 -13.5t-6.5 -19.5q-4 -20 4 -29.5t24 -9.5q10 0 18.5 2t21 7.5t31 15.5t36.5 22zM417 -34q-76 5 -97.5 24t-22.5 12q25 19 12 10.5t-26 -14.5q-27 -14 -58 -22t-59 -8q-67 0 -98 39t-18 100q12 56 50 93.5t100 51.5l146 33l14 67
q7 36 -54 36q-44 0 -48 -19q0 -3 4 -31l-127 -26q-9 27 -9.5 34.5t1.5 17.5q12 55 72.5 88t141.5 33q79 0 118.5 -36t26.5 -97l-52 -245l-7 -32q0 -3 40 -10zM322 477l-98 203h146l74 -203h-122z" />
    <glyph glyph-name="aacute" unicode="&#xe1;" horiz-adv-x="436" 
d="M322 180l-133 -33q-4 -6 -7.5 -13.5t-6.5 -19.5q-4 -20 4 -29.5t24 -9.5q10 0 18.5 2t21 7.5t31 15.5t36.5 22zM416 -34q-76 5 -97.5 24t-22.5 12q25 19 12 10.5t-26 -14.5q-27 -14 -58 -22t-59 -8q-67 0 -98 39t-18 100q12 56 50 93.5t100 51.5l146 33l14 67
q7 36 -54 36q-44 0 -48 -19q0 -3 4 -31l-127 -26q-9 27 -9.5 34.5t1.5 17.5q12 55 72.5 88t141.5 33q79 0 118.5 -36t26.5 -97l-52 -245l-7 -32q0 -3 40 -10zM381 477h-123l161 203h146z" />
    <glyph glyph-name="acircumflex" unicode="&#xe2;" horiz-adv-x="437" 
d="M323 180l-133 -33q-4 -6 -7.5 -13.5t-6.5 -19.5q-4 -20 4 -29.5t24 -9.5q10 0 18.5 2t21 7.5t31 15.5t36.5 22zM417 -34q-76 5 -97.5 24t-22.5 12q25 19 12 10.5t-26 -14.5q-27 -14 -58 -22t-59 -8q-67 0 -98 39t-18 100q12 56 50 93.5t100 51.5l146 33l14 67
q7 36 -54 36q-44 0 -48 -19q0 -3 4 -31l-127 -26q-9 27 -9.5 34.5t1.5 17.5q12 55 72.5 88t141.5 33q79 0 118.5 -36t26.5 -97l-52 -245l-7 -32q0 -3 40 -10zM402 477l-42 87l-80 -87h-125l183 203h92l100 -203h-128z" />
    <glyph glyph-name="atilde" unicode="&#xe3;" horiz-adv-x="462" 
d="M331 180l-133 -33q-4 -6 -7.5 -13.5t-6.5 -19.5q-4 -20 4 -29.5t24 -9.5q10 0 18.5 2t21 7.5t31 15.5t36.5 22zM425 -34q-76 5 -97.5 24t-22.5 12q25 19 12 10.5t-26 -14.5q-27 -14 -58 -22t-59 -8q-67 0 -98 39t-18 100q12 56 50 93.5t100 51.5l146 33l14 67
q7 36 -54 36q-44 0 -48 -19q0 -3 4 -31l-127 -26q-9 27 -9.5 34.5t1.5 17.5q12 55 72.5 88t141.5 33q79 0 118.5 -36t26.5 -97l-52 -245l-7 -32q0 -3 40 -10zM595 576q-36 -28 -49.5 -36t-36.5 -17q-45 -18 -86 -18q-43 0 -94 30q-19 11 -25 13.5t-14 2.5q-12 0 -24 -6
q-5 -1 -8 -3l-8 -4q-5 -2 -12 -6t-44 -25l-41 79q48 27 61.5 34t29.5 13q39 18 78 18q12 0 18 -1t13.5 -2.5t16.5 -5.5t19.5 -10.5t28.5 -16.5q14 -8 21.5 -11t14.5 -3t12.5 1t13 4t19 9t55.5 33z" />
    <glyph glyph-name="adieresis" unicode="&#xe4;" horiz-adv-x="441" 
d="M327 180l-133 -33q-4 -6 -7.5 -13.5t-6.5 -19.5q-4 -20 4 -29.5t24 -9.5q10 0 18.5 2t21 7.5t31 15.5t36.5 22zM421 -34q-76 5 -97.5 24t-22.5 12q25 19 12 10.5t-26 -14.5q-27 -14 -58 -22t-59 -8q-67 0 -98 39t-18 100q12 56 50 93.5t100 51.5l146 33l14 67
q7 36 -54 36q-44 0 -48 -19q0 -3 4 -31l-127 -26q-9 27 -9.5 34.5t1.5 17.5q12 55 72.5 88t141.5 33q79 0 118.5 -36t26.5 -97l-52 -245l-7 -32q0 -3 40 -10zM344 573q-6 -27 -32 -48.5t-58 -21.5q-33 0 -50 21.5t-11 48.5q6 28 32 49.5t59 21.5q32 0 49 -21.5t11 -49.5z
M519 573q-6 -27 -32 -48.5t-58 -21.5q-33 0 -50 21.5t-11 48.5q6 28 32 49.5t59 21.5q32 0 49 -21.5t11 -49.5z" />
    <glyph glyph-name="aring" unicode="&#xe5;" horiz-adv-x="437" 
d="M323 180l-133 -33q-4 -6 -7.5 -13.5t-6.5 -19.5q-4 -20 4 -29.5t24 -9.5q10 0 18.5 2t21 7.5t31 15.5t36.5 22zM380 586q2 10 -2.5 16t-9.5 6t-12 -6t-9 -16q-3 -10 2 -15.5t10 -5.5t11.5 5.5t9.5 15.5zM417 -34q-76 5 -97.5 24t-22.5 12q25 19 12 10.5t-26 -14.5
q-27 -14 -58 -22t-59 -8q-67 0 -98 39t-18 100q12 56 50 93.5t100 51.5l146 33l14 67q7 36 -54 36q-44 0 -48 -19q0 -3 4 -31l-127 -26q-9 27 -9.5 34.5t1.5 17.5q12 55 72.5 88t141.5 33q79 0 118.5 -36t26.5 -97l-52 -245l-7 -32q0 -3 40 -10zM468 586q-9 -40 -45 -69.5
t-80 -29.5q-45 0 -69 29.5t-15 69.5q8 40 44.5 70t81.5 30t68 -30t15 -70z" />
    <glyph glyph-name="ccedilla" unicode="&#xe7;" horiz-adv-x="482" 
d="M471 29q-34 -18 -45.5 -24t-22.5 -10.5t-22 -8t-27 -8.5q-21 -5 -33 -7.5t-18 -2.5l-13 -17q8 0 28.5 -26t11.5 -70q-10 -47 -50 -79t-93 -32q-12 0 -21.5 1t-21.5 3.5t-26.5 7t-55.5 19.5l63 90q47 -22 60 -26t24 -4q6 0 11.5 4t7.5 13q2 13 -4 17t-33 4h-72l83 101
q-77 19 -117 82t-18 166q12 56 41 103.5t71 83.5t95 56t111 20q38 0 72 -10q24 -7 39.5 -15.5t49.5 -36.5l-91 -98q-37 39 -53.5 45.5t-42.5 6.5q-56 0 -100 -40.5t-59 -111.5q-15 -72 12.5 -110.5t88.5 -38.5q28 0 49 7t78 43z" />
    <glyph glyph-name="egrave" unicode="&#xe8;" horiz-adv-x="484" 
d="M389 309q5 27 -9 47.5t-49 20.5q-37 0 -67 -22t-41 -46h166zM191 213q-12 -57 13 -97t81 -40q25 0 48 8t92 50l30 -98q-47 -26 -71 -37.5t-47 -18.5t-45 -10t-46 -3q-53 0 -93.5 19.5t-64 54.5t-29.5 81.5t6 103.5t38.5 104t65 81.5t87.5 54t103 19.5q46 0 80 -15.5
t54 -43.5t25.5 -66t-3.5 -83l-14 -64h-310zM342 477l-98 203h146l74 -203h-122z" />
    <glyph glyph-name="eacute" unicode="&#xe9;" horiz-adv-x="502" 
d="M392 309q5 27 -9 47.5t-49 20.5q-37 0 -67 -22t-41 -46h166zM194 213q-12 -57 13 -97t81 -40q25 0 48 8t92 50l30 -98q-47 -26 -71 -37.5t-47 -18.5t-45 -10t-46 -3q-53 0 -93.5 19.5t-64 54.5t-29.5 81.5t6 103.5t38.5 104t65 81.5t87.5 54t103 19.5q46 0 80 -15.5
t54 -43.5t25.5 -66t-3.5 -83l-14 -64h-310zM393 477h-124l162 203h146z" />
    <glyph glyph-name="ecircumflex" unicode="&#xea;" horiz-adv-x="499" 
d="M389 309q5 27 -9 47.5t-49 20.5q-37 0 -67 -22t-41 -46h166zM191 213q-12 -57 13 -97t81 -40q25 0 48 8t92 50l30 -98q-47 -26 -71 -37.5t-47 -18.5t-45 -10t-46 -3q-53 0 -93.5 19.5t-64 54.5t-29.5 81.5t6 103.5t38.5 104t65 81.5t87.5 54t103 19.5q46 0 80 -15.5
t54 -43.5t25.5 -66t-3.5 -83l-14 -64h-310zM417 477l-42 87l-80 -87h-126l184 203h92l98 -203h-126z" />
    <glyph glyph-name="edieresis" unicode="&#xeb;" horiz-adv-x="503" 
d="M389 309q5 27 -9 47.5t-49 20.5q-37 0 -67 -22t-41 -46h166zM191 213q-12 -57 13 -97t81 -40q25 0 48 8t92 50l30 -98q-47 -26 -71 -37.5t-47 -18.5t-45 -10t-46 -3q-53 0 -93.5 19.5t-64 54.5t-29.5 81.5t6 103.5t38.5 104t65 81.5t87.5 54t103 19.5q46 0 80 -15.5
t54 -43.5t25.5 -66t-3.5 -83l-14 -64h-310zM365 572q-6 -27 -32 -48.5t-58 -21.5q-33 0 -50 21.5t-11 48.5q5 28 31.5 49.5t59.5 21.5q31 0 48 -21.5t12 -49.5zM540 572q-6 -27 -32 -48.5t-58 -21.5q-33 0 -50 21.5t-11 48.5q5 28 31.5 49.5t59.5 21.5q31 0 48 -21.5
t12 -49.5z" />
    <glyph glyph-name="igrave" unicode="&#xec;" horiz-adv-x="272" 
d="M83 -20l105 493h125l-105 -493h-125zM218 477l-98 203h146l74 -203h-122z" />
    <glyph glyph-name="iacute" unicode="&#xed;" horiz-adv-x="246" 
d="M49 -20l105 493h125l-105 -493h-125zM257 477h-123l161 203h146z" />
    <glyph glyph-name="icircumflex" unicode="&#xee;" horiz-adv-x="299" 
d="M90 -20l105 493h125l-105 -493h-125zM319 477l-42 87l-80 -87h-126l184 203h92l98 -203h-126z" />
    <glyph glyph-name="idieresis" unicode="&#xef;" horiz-adv-x="276" 
d="M77 -20l105 493h125l-105 -493h-125zM256 573q-6 -27 -32 -48.5t-58 -21.5q-33 0 -50 21.5t-11 48.5q6 28 32 49.5t59 21.5q32 0 49 -21.5t11 -49.5zM431 573q-6 -27 -32 -48.5t-58 -21.5q-33 0 -50 21.5t-11 48.5q6 28 32 49.5t59 21.5q32 0 49 -21.5t11 -49.5z" />
    <glyph glyph-name="ntilde" unicode="&#xf1;" horiz-adv-x="534" 
d="M349 -20l72 341q5 22 5.5 30.5t-1.5 16.5q-1 4 -6 7t-14 3q-12 0 -27.5 -5t-37 -18t-49 -35t-57.5 -49l-62 -291h-125l105 493h125l-12 -54q-41 -36 -31 -27t18.5 16t16.5 13t18 13q35 25 74 38t76 13q144 0 113 -146l-76 -359h-125zM614 572q-36 -28 -49.5 -36
t-36.5 -17q-45 -18 -86 -18q-43 0 -94 30q-18 11 -24.5 13.5t-14.5 2.5q-12 0 -24 -6q-5 -1 -8 -2.5t-7.5 -4t-11.5 -6.5t-45 -25l-41 79q48 27 61.5 34t30.5 13q39 18 78 18q11 0 17 -1t13.5 -2.5t16.5 -5.5t20 -10.5t28 -16.5q14 -8 21.5 -11t14.5 -3t13 1t13 4t19 9
t56 33z" />
    <glyph glyph-name="ograve" unicode="&#xf2;" horiz-adv-x="542" 
d="M430 226q7 33 3 62t-16 49t-30 30.5t-41 10.5q-22 0 -45 -10.5t-44 -30.5t-37 -49t-23 -62t-3 -62t16 -49t30.5 -30.5t41.5 -10.5q22 0 44.5 10.5t43.5 30.5t37 49t23 62zM562 226q-11 -52 -39.5 -98.5t-69.5 -82t-91 -57t-103 -21.5t-94.5 21.5t-67 57t-34.5 82t2 98.5
t39.5 98.5t69.5 82t92 57t103 21.5q53 0 94 -21.5t66.5 -57t34.5 -82t-2 -98.5zM344 477l-106 203h147l83 -203h-124z" />
    <glyph glyph-name="oacute" unicode="&#xf3;" horiz-adv-x="545" 
d="M433 226q7 33 3 62t-16 49t-30 30.5t-41 10.5q-22 0 -45 -10.5t-44 -30.5t-37 -49t-23 -62t-3 -62t16 -49t30.5 -30.5t41.5 -10.5q22 0 44.5 10.5t43.5 30.5t37 49t23 62zM565 226q-11 -52 -39.5 -98.5t-69.5 -82t-91 -57t-103 -21.5t-94.5 21.5t-67 57t-34.5 82t2 98.5
t39.5 98.5t69.5 82t92 57t103 21.5q53 0 94 -21.5t66.5 -57t34.5 -82t-2 -98.5zM410 477h-118l150 203h146z" />
    <glyph glyph-name="ocircumflex" unicode="&#xf4;" horiz-adv-x="542" 
d="M430 226q7 33 3 62t-16 49t-30 30.5t-41 10.5q-22 0 -45 -10.5t-44 -30.5t-37 -49t-23 -62t-3 -62t16 -49t30.5 -30.5t41.5 -10.5q22 0 44.5 10.5t43.5 30.5t37 49t23 62zM562 226q-11 -52 -39.5 -98.5t-69.5 -82t-91 -57t-103 -21.5t-94.5 21.5t-67 57t-34.5 82t2 98.5
t39.5 98.5t69.5 82t92 57t103 21.5q53 0 94 -21.5t66.5 -57t34.5 -82t-2 -98.5zM432 477l-43 87l-79 -87h-126l184 203h92l98 -203h-126z" />
    <glyph glyph-name="otilde" unicode="&#xf5;" horiz-adv-x="561" 
d="M433 226q7 33 3 62t-16 49t-30 30.5t-41 10.5q-22 0 -45 -10.5t-44 -30.5t-37 -49t-23 -62t-3 -62t16 -49t30.5 -30.5t41.5 -10.5q22 0 44.5 10.5t43.5 30.5t37 49t23 62zM565 226q-11 -52 -39.5 -98.5t-69.5 -82t-91 -57t-103 -21.5t-94.5 21.5t-67 57t-34.5 82t2 98.5
t39.5 98.5t69.5 82t92 57t103 21.5q53 0 94 -21.5t66.5 -57t34.5 -82t-2 -98.5zM603 572q-36 -28 -49.5 -36t-36.5 -17q-45 -18 -86 -18q-43 0 -94 30q-18 11 -24.5 13.5t-14.5 2.5q-12 0 -24 -6q-5 -1 -8 -2.5t-7.5 -4t-11.5 -6.5t-45 -25l-41 79q48 27 61.5 34t30.5 13
q39 18 78 18q11 0 17 -1t13.5 -2.5t16.5 -5.5t20 -10.5t28 -16.5q14 -8 21.5 -11t14.5 -3t13 1t13 4t19 9t56 33z" />
    <glyph glyph-name="odieresis" unicode="&#xf6;" horiz-adv-x="542" 
d="M430 226q7 33 3 62t-16 49t-30 30.5t-41 10.5q-22 0 -45 -10.5t-44 -30.5t-37 -49t-23 -62t-3 -62t16 -49t30.5 -30.5t41.5 -10.5q22 0 44.5 10.5t43.5 30.5t37 49t23 62zM562 226q-11 -52 -39.5 -98.5t-69.5 -82t-91 -57t-103 -21.5t-94.5 21.5t-67 57t-34.5 82t2 98.5
t39.5 98.5t69.5 82t92 57t103 21.5q53 0 94 -21.5t66.5 -57t34.5 -82t-2 -98.5zM380 572q-6 -27 -32 -48.5t-58 -21.5q-33 0 -50 21.5t-11 48.5q5 28 31.5 49.5t59.5 21.5q31 0 48 -21.5t12 -49.5zM555 572q-6 -27 -32 -48.5t-58 -21.5q-33 0 -50 21.5t-11 48.5
q5 28 31.5 49.5t59.5 21.5q31 0 48 -21.5t12 -49.5z" />
    <glyph glyph-name="divide" unicode="&#xf7;" horiz-adv-x="550" 
d="M370 48q-7 -32 -35.5 -55.5t-64.5 -23.5t-55 23.5t-12 55.5q7 31 35.5 54.5t65.5 23.5q36 0 54.5 -23.5t11.5 -54.5zM40 188l21 97h550l-21 -97h-550zM451 427q-7 -31 -35.5 -54.5t-64.5 -23.5q-37 0 -55.5 23.5t-11.5 54.5q7 32 35.5 55.5t65.5 23.5q35 0 54 -23.5
t12 -55.5z" />
    <glyph glyph-name="ugrave" unicode="&#xf9;" horiz-adv-x="521" 
d="M344 -20l8 40q-50 -54 -166 -54q-146 0 -115 147l77 360h125l-73 -341q-8 -37 -3 -48t20 -11q12 0 31 7.5t43 22.5t49.5 36t46.5 42l62 292h126l-105 -493h-126zM335 477l-98 203h146l74 -203h-122z" />
    <glyph glyph-name="uacute" unicode="&#xfa;" horiz-adv-x="523" 
d="M346 -20l8 40q-50 -54 -166 -54q-146 0 -115 147l77 360h125l-73 -341q-8 -37 -3 -48t20 -11q12 0 31 7.5t43 22.5t49.5 36t46.5 42l62 292h126l-105 -493h-126zM403 477h-123l162 203h146z" />
    <glyph glyph-name="ucircumflex" unicode="&#xfb;" horiz-adv-x="521" 
d="M344 -20l8 40q-50 -54 -166 -54q-146 0 -115 147l77 360h125l-73 -341q-8 -37 -3 -48t20 -11q12 0 31 7.5t43 22.5t49.5 36t46.5 42l62 292h126l-105 -493h-126zM423 477l-43 87l-79 -87h-126l184 203h92l98 -203h-126z" />
    <glyph glyph-name="udieresis" unicode="&#xfc;" horiz-adv-x="521" 
d="M344 -20l8 40q-50 -54 -166 -54q-146 0 -115 147l77 360h125l-73 -341q-8 -37 -3 -48t20 -11q12 0 31 7.5t43 22.5t49.5 36t46.5 42l62 292h126l-105 -493h-126zM377 572q-6 -27 -32 -48.5t-58 -21.5q-33 0 -50 21.5t-11 48.5q5 28 31.5 49.5t59.5 21.5q31 0 48 -21.5
t12 -49.5zM552 572q-6 -27 -32 -48.5t-58 -21.5q-33 0 -50 21.5t-11 48.5q5 28 31.5 49.5t59.5 21.5q31 0 48 -21.5t12 -49.5z" />
    <glyph glyph-name="ydieresis" unicode="&#xff;" horiz-adv-x="429" 
d="M250 -31q-25 -42 -46 -73.5t-47 -62.5q-9 -11 -17.5 -20.5t-18.5 -20.5t-23 -24l-52 -52l-81 75q36 32 50.5 46t26 25.5t22 24.5t24.5 31l22 30q11 14 21 29t21 34t23 39l-86 423h137l53 -292l-6 41l-18 -42l160 293h130zM325 547q-5 -27 -31.5 -48.5t-58.5 -21.5
t-49 21.5t-12 48.5q6 28 32.5 49.5t58.5 21.5t49 -21.5t11 -49.5zM500 547q-5 -27 -31.5 -48.5t-58.5 -21.5t-49 21.5t-12 48.5q6 28 32.5 49.5t58.5 21.5t49 -21.5t11 -49.5z" />
    <glyph glyph-name="Ydieresis" unicode="&#x178;" horiz-adv-x="518" 
d="M400 303l-68 -323h-132l67 318l-153 382h143l107 -259l221 259h144zM405 758q-6 -28 -32 -49.5t-59 -21.5t-49.5 21.5t-10.5 49.5q6 27 31.5 48.5t58.5 21.5t50 -21.5t11 -48.5zM607 758q-6 -28 -32 -49.5t-59 -21.5q-32 0 -49 21.5t-11 49.5q6 27 32 48.5t58 21.5
q33 0 50 -21.5t11 -48.5z" />
    <glyph glyph-name="endash" unicode="&#x2013;" horiz-adv-x="500" 
d="M15 188l21 97h550l-21 -97h-550z" />
    <glyph glyph-name="quoteleft" unicode="&#x2018;" horiz-adv-x="252" 
d="M311 426q-39 -22 -56 -26.5t-38 -4.5q-83 0 -65 84q5 25 20 56q12 23 27.5 46t43.5 61l28 38h97q-30 -43 -35.5 -53t-16.5 -29l-9 -18l-7 -14q-3 -6 -6 -12.5t-5 -12.5z" />
    <glyph glyph-name="quoteright" unicode="&#x2019;" horiz-adv-x="252" 
d="M331 608q-8 -38 -36.5 -87.5t-81.5 -112.5h-107q33 37 37.5 43t8.5 11.5t8 12.5t11 19q8 15 13 26t12 26l-24 118q33 15 42.5 18t18 6t17 3.5t17.5 0.5q82 0 64 -84z" />
    <glyph glyph-name="quotesinglbase" unicode="&#x201a;" horiz-adv-x="252" 
d="M209 36q-6 -25 -21 -57q-6 -12 -12.5 -23.5t-15 -24t-18.5 -26.5t-24 -34l-28 -36h-95q27 42 33 52t17 30q5 10 9 17t7 13.5t6.5 13.5t5.5 12l-22 115q37 23 54.5 27.5t39.5 4.5q82 0 64 -84z" />
    <glyph glyph-name="quotedblleft" unicode="&#x201c;" horiz-adv-x="437" 
d="M312 425q-32 -15 -42 -18.5t-18.5 -6.5t-17 -3.5t-17.5 -0.5q-83 0 -65 84q8 38 36.5 87t81.5 113h108q-40 -46 -46.5 -55.5t-17.5 -30.5q-9 -15 -14 -26t-11 -26zM496 424q-33 -15 -42 -18l-18 -6q-9 -3 -17.5 -3.5t-17.5 -0.5q-83 0 -65 84q8 38 37 87.5t81 112.5h108
q-33 -38 -38 -44t-8.5 -11t-8 -12.5t-9.5 -18.5q-9 -15 -14 -26t-11 -26z" />
    <glyph glyph-name="quotedblright" unicode="&#x201d;" horiz-adv-x="437" 
d="M331 608q-8 -38 -36.5 -87.5t-81.5 -112.5h-107q33 37 37.5 43t8.5 11.5t8 12.5t11 19q8 15 13 26t12 26l-24 118q33 15 42.5 18t18 6t17 3.5t17.5 0.5q82 0 64 -84zM515 608q-8 -38 -36 -87t-82 -113h-107q33 38 38 44t9 11.5t8 12.5t9 17q9 16 13.5 27t11.5 27l-23 116
q32 15 41.5 18.5t18 6.5t17.5 3.5t18 0.5q82 0 64 -84z" />
    <glyph glyph-name="quotedblbase" unicode="&#x201e;" horiz-adv-x="437" 
d="M209 35q-8 -38 -36 -87.5t-82 -111.5h-106q33 38 37 43t8 11t8 14l11 17q9 16 13.5 26.5t11.5 25.5l-24 118q33 14 42 18t18 7t17.5 3.5t18.5 0.5q82 0 63 -85zM393 35q-8 -38 -36 -86.5t-82 -112.5h-106q33 38 38 44t8.5 11t8 12t9.5 17q8 16 13 27t12 27l-23 116
q30 15 39.5 19t18.5 7t18 3.5t19 0.5q82 0 63 -85z" />
    <glyph glyph-name="bullet" unicode="&#x2022;" horiz-adv-x="352" 
d="M367 231q-6 -27 -21.5 -52t-38.5 -44t-52 -30t-59 -11t-54 11t-39 30t-20.5 44t0.5 52t21.5 52t38.5 44t52 30t59 11t54.5 -11t39.5 -30t20 -44t-1 -52z" />
    <glyph glyph-name="ellipsis" unicode="&#x2026;" horiz-adv-x="750" 
d="M216 45q-7 -30 -35 -53t-63 -23q-34 0 -53 23t-12 53q6 31 34.5 54t63.5 23t53 -23t12 -54zM475 45q-7 -30 -35 -53t-64 -23q-34 0 -52.5 23t-11.5 53q6 31 34 54t63 23q36 0 54 -23t12 -54zM725 45q-7 -30 -35 -53t-64 -23q-34 0 -52.5 23t-11.5 53q6 31 34 54t63 23
q36 0 54 -23t12 -54z" />
    <glyph glyph-name="guilsinglleft" unicode="&#x2039;" horiz-adv-x="321" 
d="M54 226l336 239l-30 -140l-143 -99l101 -99l-29 -138z" />
    <glyph glyph-name="guilsinglright" unicode="&#x203a;" horiz-adv-x="321" 
d="M27 -11l29 138l144 99l-102 99l30 140l236 -239z" />
  </font>
</defs>
</svg>
