<?xml version="1.0" standalone="no"?>
<!DOCTYPE svg PUBLIC "-//W3C//DTD SVG 1.1//EN" "http://www.w3.org/Graphics/SVG/1.1/DTD/svg11.dtd" >
<svg xmlns="http://www.w3.org/2000/svg" xmlns:xlink="http://www.w3.org/1999/xlink" version="1.1">
<metadata>
Created by FontForge 20170731 at Tue May 30 07:30:41 2017
 By Aleksey,,,
Attribution-ShareAlike 4.0 International
</metadata>
<defs>
<font id="ScalySansCaps-Bold" horiz-adv-x="500" >
  <font-face 
    font-family="Scaly Sans Caps"
    font-weight="700"
    font-variant="small-caps"
    font-stretch="normal"
    units-per-em="1000"
    panose-1="2 0 8 3 4 0 0 2 0 4"
    ascent="800"
    descent="-200"
    x-height="498"
    cap-height="680"
    bbox="-54 -265 1225 888"
    underline-thickness="50"
    underline-position="-225"
    unicode-range="U+001D-221E"
  />
<missing-glyph 
 />
    <glyph glyph-name=".notdef" 
 />
    <glyph glyph-name=".null" horiz-adv-x="0" 
 />
    <glyph glyph-name=".null" horiz-adv-x="0" 
 />
    <glyph glyph-name="nonmarkingreturn" horiz-adv-x="250" 
 />
    <glyph glyph-name="space" unicode=" " horiz-adv-x="250" 
 />
    <glyph glyph-name="exclam" unicode="!" horiz-adv-x="264" 
d="M200 175h-126l-6 581h138zM195.5 -9.5q-23.5 -23.5 -58.5 -23.5t-58.5 23.5t-23.5 53.5t23.5 53.5t58.5 23.5t58.5 -23.5t23.5 -53.5t-23.5 -53.5z" />
    <glyph glyph-name="dollar" unicode="$" horiz-adv-x="534" 
d="M452 516q-35 23 -43.5 27t-15 7.5t-14 6.5t-16.5 7l-20 6q-7 3 -13 4t-14.5 2t7.5 0v-199q-2 1 2 -1l8 -4q41 -24 67.5 -40.5t39.5 -27.5q28 -22 43.5 -57.5t15.5 -74.5q0 -44 -17 -83.5t-50 -66.5q-13 -11 -26 -19.5t-28 -14.5t-33.5 -10.5t-21.5 -4.5v-62h-94l-1 57
q-22 1 -49.5 6t-54.5 17q-20 8 -38.5 18.5t-66.5 43.5l65 101q38 -25 48 -31.5t17.5 -11t15 -8t14.5 -7.5q18 -7 32.5 -10t16.5 -3v208l-30 18q-41 22 -70 43.5t-47.5 44.5t-26.5 47t-8 52q0 79 53 130t129 60l1 63h94v-60q-5 0 9 -1t26 -2.5t24.5 -4.5t26.5 -7
q22 -8 39.5 -16.5t62.5 -34.5zM228 572q-51 -9 -51 -70q0 -36 32 -57q38 -26 40 -28q5 -4 -8 4t-13 -31v182zM362 202q-5 7 -57 49q-8 7 18 7v-170q5 1 25 22.5t20 51.5t-6 40z" />
    <glyph glyph-name="percent" unicode="%" horiz-adv-x="850" 
d="M394 420.5q-15 -35.5 -42 -62.5t-64 -42.5t-79 -15.5t-79 15.5t-63.5 42.5t-42 62.5t-15.5 74.5t15.5 74.5t42 62.5t63.5 43t79 16t79 -16t64 -43t42 -62.5t15 -74.5t-15 -74.5zM186 -64h-128l603 776h128zM825.5 87.5q-15.5 -35.5 -42 -62t-63.5 -42.5t-79 -16t-79 16
t-64 42.5t-42 62t-15 74.5t15 74.5t42 62.5t64 42.5t79 15.5t79 -15.5t63.5 -42.5t42 -62.5t15.5 -74.5t-15.5 -74.5zM291.5 533.5q-7.5 17.5 -20 30t-28.5 19.5t-34 7t-33.5 -7t-28 -19.5t-20 -30t-7.5 -38.5t7.5 -38.5t20 -30t28 -19.5t33.5 -7t34 7t28.5 19.5t20 30
t7.5 38.5t-7.5 38.5zM722.5 200.5q-7.5 17.5 -20 30t-28 19.5t-33.5 7t-34 -7t-28.5 -19.5t-20 -30t-7.5 -38.5t7.5 -38t20 -29.5t28.5 -19.5t34 -7t33.5 7t28 19.5t20 29.5t7.5 38t-7.5 38.5z" />
    <glyph glyph-name="ampersand" unicode="&#x26;" horiz-adv-x="625" 
d="M616.5 25q-8.5 -10 -20.5 -20q-43 -35 -100 -35q-41 0 -69.5 15t-38.5 27q-20 -14 -63.5 -28t-96.5 -14q-41 0 -75.5 10.5t-59.5 29.5t-38.5 44.5t-13.5 54.5q0 19 3.5 38t14.5 39t32 38t53 36l13 7q-6 6 -28 36t-22 63q0 27 11.5 52.5t34.5 45.5t55.5 31t72.5 11
q75 0 118.5 -37.5t43.5 -101.5q0 -35 -19.5 -57.5t-64.5 -46.5l-37 -19l-69 76l43 21q11 6 17.5 11t7.5 14q1 17 -9.5 30t-32.5 13q-26 0 -37 -12.5t-11 -28.5q0 -7 1 -12t5 -11t12 -16t23 -27l131 -145q-5 -5 5 4.5t15.5 19t8 22t2.5 52.5h115q-2 -55 -8 -79t-18 -42
t-28.5 -33.5t-21.5 -18.5q-3 3 3.5 -2.5t10 -7.5t8 -2.5t11.5 -0.5q10 0 21 7.5t48 50.5l76 -59q-26 -33 -34.5 -43zM226 192l-2 -1q-18 -10 -28.5 -18t-15.5 -15.5t-7 -17t-2 -23.5q0 -9 5 -17t13.5 -14t18 -9.5t17.5 -3.5q14 0 27.5 0.5t26.5 3t26.5 8t12.5 4.5z" />
    <glyph glyph-name="parenleft" unicode="(" horiz-adv-x="363" 
d="M261 -265q-21 26 -30.5 38.5t-18 28t-17.5 34.5t-21 49q-35 83 -52 162.5t-17 165.5q0 85 17 163t52 164q14 33 23.5 54t17.5 35t17 25.5t31 31.5h133q-55 -64 -79 -114t-41.5 -109t-27.5 -124.5t-10 -128.5q0 -64 10 -129t27.5 -124t41.5 -108.5t79 -113.5h-135z" />
    <glyph glyph-name="parenright" unicode=")" horiz-adv-x="363" 
d="M249.5 51q-16.5 -77 -52.5 -166q-11 -27 -20 -46t-17.5 -34.5t-18.5 -28.5l-30 -41h-136q55 64 79 113.5t41.5 108.5t27.5 124t10 129q0 63 -10 128.5t-27.5 124.5t-41.5 109t-79 114h134q20 -20 29.5 -31t17.5 -25.5t17.5 -35.5t23.5 -54q35 -86 52 -164t17 -163
t-16.5 -162z" />
    <glyph glyph-name="asterisk" unicode="*" 
d="M304 471h-106l-8 209h123zM295 399l-32 93l206 75l35 -109zM204 399l-209 59l35 109l206 -75zM346 200l-118 176l83 62l131 -167zM155 200l-97 70l131 166l84 -60z" />
    <glyph glyph-name="plus" unicode="+" horiz-adv-x="550" 
d="M328 188v-208h-106v208h-209v97h209v209h106v-209h209v-97h-209z" />
    <glyph glyph-name="comma" unicode="," horiz-adv-x="252" 
d="M199.5 7.5q-1.5 -14.5 -7.5 -29.5q-6 -23 -16.5 -45.5t-30.5 -61.5l-20 -36h-95q18 42 22 52t11 30q3 10 5.5 17t3.5 13.5t3 13.5t3 12l-46 115q33 23 49.5 27.5t37.5 4.5q82 0 82 -84q0 -14 -1.5 -28.5z" />
    <glyph glyph-name="hyphen" unicode="-" horiz-adv-x="276" 
d="M17 170v116h241v-116h-241z" />
    <glyph glyph-name="period" unicode="." horiz-adv-x="251" 
d="M184 -9q-23 -23 -58 -23q-36 0 -59 23t-23 54q0 30 23 53t59 23q35 0 58 -23t23 -53q0 -31 -23 -54z" />
    <glyph glyph-name="slash" unicode="/" horiz-adv-x="409" 
d="M132 -265h-120l263 945h120z" />
    <glyph glyph-name="zero" unicode="0" 
d="M484.5 187.5q-16.5 -66.5 -48 -115.5t-78 -78t-103.5 -29t-103.5 29t-77.5 78t-47.5 115.5t-16.5 146.5t16.5 146t47.5 115t77.5 78t103.5 29t103.5 -29t78 -78t48 -115t16.5 -146t-16.5 -146.5zM354 442.5q-9 48.5 -25 81t-35.5 47.5t-39.5 15q-19 0 -38 -15t-34.5 -48
t-24.5 -81t-9 -108q0 -61 9 -109t25 -81t35 -48t39 -15q19 0 38 15t35 48t25 81.5t9 108.5t-9 108.5z" />
    <glyph glyph-name="one" unicode="1" horiz-adv-x="499" 
d="M197 -20v585h-138v115h270v-700h-132z" />
    <glyph glyph-name="two" unicode="2" 
d="M21 -20v65l164 205q23 27 43.5 55.5t40.5 58.5q12 19 21 35.5t14 30t7.5 27t2.5 29.5q0 45 -18.5 65t-51.5 20q-28 0 -50 -11q-8 -4 -14.5 -8t-14.5 -10.5t-21 -17t-53 -47.5l-80 90q25 23 35.5 31t19.5 15q45 36 89.5 52.5t95.5 16.5q91 0 142.5 -53.5t51.5 -143.5
q0 -21 -2.5 -39.5t-8.5 -34.5q-11 -33 -37 -75.5t-57 -82.5l-127 -158h257v-115h-449z" />
    <glyph glyph-name="three" unicode="3" 
d="M415.5 115q-18.5 -43 -51 -75t-78 -50.5t-97.5 -18.5q-19 0 -36.5 1.5t-35 7t-36.5 14t-59 29.5l49 108q47 -24 62 -31t26 -11t20.5 -5.5t18.5 -1.5q21 0 38 7.5t30.5 22.5t22 37t8.5 48q0 44 -25 67.5t-69 23.5h-69v89q32 13 43.5 18.5t20 11t16 12t15.5 16.5
q18 20 27 42t9 43q0 29 -12 42t-32 13q-10 0 -18 -1.5t-17.5 -6t-23.5 -14.5t-58 -43l-71 90q31 24 43.5 33t23.5 16t20 11l19 10q45 18 100 18q75 0 119.5 -44t44.5 -113q0 -29 -7.5 -54.5t-24.5 -51.5q-7 -11 -13.5 -19.5t-15 -16.5t-18 -16t16.5 10q16 -2 54.5 -53.5
t38.5 -123.5q0 -48 -18.5 -91z" />
    <glyph glyph-name="four" unicode="4" 
d="M398 150v-170h-125v170h-271v75l306 455h90v-421h82v-109h-82zM273 419l-109 -160h109v160z" />
    <glyph glyph-name="five" unicode="5" 
d="M422 116.5q-16 -44.5 -46 -77.5t-73 -52.5t-93 -19.5q-39 0 -75 10q-14 3 -26 7t-23.5 9.5t-23 12.5t-43.5 26l59 106q46 -28 59.5 -36t24.5 -12t20 -5.5t21 -1.5q22 0 41 8t33 24.5t23 39.5t9 52q0 93 -78 118q-13 4 -23.5 6.5t-23.5 4t-31 2t-45 0.5h-32v342h339v-115
h-208v-119q12 -1 38.5 -4.5t48.5 -10t39 -16.5t33 -25q72 -62 72 -177q0 -52 -16 -96.5z" />
    <glyph glyph-name="six" unicode="6" 
d="M469.5 117.5q-15.5 -44.5 -43.5 -78.5t-68.5 -54t-89.5 -20q-116 0 -175.5 87.5t-59.5 240.5q0 93 21.5 162.5t70.5 128.5q36 44 91 71q19 9 37 15t39 9.5t46 5t59 1.5l44 -2v-112h-34q-28 0 -48 -1.5t-35.5 -4t-29 -7.5t-27.5 -13q-14 -7 -26 -16.5t-22 -21.5
t-16.5 -24.5t-12.5 -28t-10.5 -37t-4.5 -17.5q11 4 50 11.5t77 7.5q86 0 134.5 -57t48.5 -148q0 -53 -15.5 -97.5zM333 284q-20 25 -53 25q-23 0 -56 -7.5t-56 -15.5q6 -206 102 -206q15 0 29.5 8.5t27 24.5t19.5 40.5t7 54.5q0 51 -20 76z" />
    <glyph glyph-name="seven" unicode="7" 
d="M363 296q-14 -38 -27.5 -69.5t-25.5 -58.5l-20 -39q-9 -19 -21 -40.5t-27.5 -47.5t-50.5 -85l-109 70q26 41 38 60t21 35q11 19 25.5 47.5t28.5 59.5t27.5 61.5t23.5 55.5l85 220h-268v115h421v-73z" />
    <glyph glyph-name="eight" unicode="8" 
d="M458 83q-17 -37 -48 -64.5t-75 -42.5t-96 -15q-46 0 -86 13.5t-69.5 38t-46 57t-16.5 70.5t22 75.5t75 89.5l42 41l-55 50q-28 25 -43 59.5t-15 70.5q0 38 15.5 70t43 56t66 37t82.5 13q83 0 133 -46.5t50 -119.5q0 -38 -13.5 -68.5t-45.5 -62.5l-45 -46l55 -44
q24 -20 41 -38t27 -35.5t14.5 -36.5t4.5 -41q0 -44 -17 -81zM289.5 576q-17.5 15 -42.5 15q-28 0 -46 -17t-18 -48q0 -17 6.5 -30.5t22.5 -30.5l32 -35l25 27q17 18 27.5 40.5t10.5 39.5q0 24 -17.5 39zM328.5 189.5q-8.5 15.5 -34.5 38.5l-50 44l-40 -44q-27 -30 -36.5 -48
t-9.5 -39q0 -30 23.5 -48.5t63.5 -18.5q41 0 66.5 21t25.5 57q0 22 -8.5 37.5z" />
    <glyph glyph-name="nine" unicode="9" 
d="M455.5 195q-21.5 -70 -68.5 -126q-39 -48 -93 -73q-18 -9 -36.5 -15t-39.5 -9.5t-46 -5t-58 -1.5h-45v114h35q28 0 48 1.5t35 4t28 7.5t29 13q27 13 47 38q10 11 16.5 23.5t12.5 28.5t10 37.5t4 16.5q-10 -3 -49 -11t-77 -8q-86 0 -134.5 57t-48.5 148q0 53 15.5 97.5
t43.5 79t69 54t89 19.5q116 0 175.5 -87t59.5 -240q0 -93 -21.5 -163zM240 571q-15 0 -29.5 -8.5t-26.5 -24.5t-19.5 -41t-7.5 -54q0 -51 20 -76t53 -25q23 0 56 7.5t56 15.5q-6 206 -102 206z" />
    <glyph glyph-name="colon" unicode=":" horiz-adv-x="251" 
d="M184 355q-23 -23 -58 -23q-36 0 -59 23t-23 54q0 30 23 53t59 23q35 0 58 -23t23 -53q0 -31 -23 -54zM184 -9q-23 -23 -58 -23q-36 0 -59 23t-23 54q0 30 23 53t59 23q35 0 58 -23t23 -53q0 -31 -23 -54z" />
    <glyph glyph-name="semicolon" unicode=";" horiz-adv-x="251" 
d="M185 355q-23 -23 -59 -23q-35 0 -58 23t-23 54q0 30 23 53t58 23q36 0 59 -23t23 -53q0 -31 -23 -54zM192 -21q-6 -24 -16.5 -46.5t-30.5 -61.5l-21 -36h-97q21 42 24 52l11 30q4 10 6.5 17t3.5 13.5t3 13.5t3 12l-46 115q32 23 48.5 27.5t38.5 4.5q82 0 82 -84
q0 -25 -9 -57z" />
    <glyph glyph-name="less" unicode="&#x3c;" horiz-adv-x="550" 
d="M14 198v78l522 232v-109l-369 -162l369 -162v-109z" />
    <glyph glyph-name="equal" unicode="=" horiz-adv-x="550" 
d="M0 253v97h550v-97h-550zM0 114v97h550v-97h-550z" />
    <glyph glyph-name="greater" unicode="&#x3e;" horiz-adv-x="550" 
d="M14 -34v109l369 162l-369 162v109l522 -232v-78z" />
    <glyph glyph-name="question" unicode="?" horiz-adv-x="418" 
d="M379.5 374q-10.5 -30 -38.5 -58q-11 -10 -21.5 -18.5t-23.5 -13t-27.5 -6.5t-33.5 -2h-26v-107h-125v216h161q8 10 12.5 24t4.5 35q0 40 -13.5 74.5t-37 60t-57 42t-101.5 25.5l38 117q46 -11 63 -14.5t31 -8.5t26 -10.5t25 -13.5q37 -21 65 -50.5t48 -64.5t30.5 -74.5
t10.5 -80.5q0 -42 -10.5 -72zM205 -9q-23 -23 -58 -23q-36 0 -59 23t-23 54q0 30 23 53t59 23q35 0 58 -23t23 -53q0 -31 -23 -54z" />
    <glyph glyph-name="A" unicode="A" horiz-adv-x="595" 
d="M480 -20l-68 195h-229l-68 -195h-140l260 719h126l259 -719h-140zM298 499l-75 -209h149z" />
    <glyph glyph-name="B" unicode="B" horiz-adv-x="591" 
d="M542.5 98.5q-14.5 -35.5 -41 -62.5t-65 -41.5t-83.5 -14.5h-269v700h239q52 0 87 -10.5t64 -37.5q27 -26 42.5 -61t15.5 -73q0 -59 -34 -104.5t-25 -42.5q2 0 43 -50t41 -125q0 -42 -14.5 -77.5zM373 555q-8 9 -21.5 12.5t-47.5 3.5h-88v-174h82q16 0 27 1t18 3.5t13 6.5
t14 12q25 25 25 71q0 42 -22 64zM390.5 257q-29.5 25 -86.5 25h-88v-193h88q41 0 58.5 4.5t29.5 14.5t20 30.5t8 43.5q0 50 -29.5 75z" />
    <glyph glyph-name="C" unicode="C" horiz-adv-x="605" 
d="M548 516q-58 40 -92 50.5t-77 10.5q-47 0 -85.5 -16.5t-67 -48t-45.5 -76t-17 -98.5q0 -59 17 -107t47 -80.5t72.5 -50t94.5 -17.5q39 0 71 6.5t96 33.5l37 -102q-32 -16 -44 -20.5t-22.5 -8.5t-21 -7t-23.5 -6q-27 -7 -50 -9.5t-48 -2.5q-81 0 -148.5 27.5t-116 77
t-74.5 116t-26 145.5q0 75 27 140t74.5 114t113 77t142.5 28q73 0 134 -24q12 -4 21 -8t18.5 -9t20 -11.5t37.5 -26.5z" />
    <glyph glyph-name="D" unicode="D" horiz-adv-x="711" 
d="M662 200.5q-24 -64.5 -70 -115.5q-48 -57 -110 -81t-154 -24h-244v700h245q78 0 144 -26.5t113.5 -73t73.5 -110t26 -137.5q0 -68 -24 -132.5zM532 430q-18 44 -49.5 75t-74 48.5t-92.5 17.5h-100v-482h100q60 0 95.5 12t62.5 40q17 17 31 40t24 48.5t15.5 52.5t5.5 52
q0 52 -18 96z" />
    <glyph glyph-name="E" unicode="E" horiz-adv-x="539" 
d="M84 -20v700h421v-109h-289v-180h239v-109h-239v-193h298v-109h-430z" />
    <glyph glyph-name="F" unicode="F" horiz-adv-x="522" 
d="M216 571v-186h239v-110h-239v-295h-132v700h421v-109h-289z" />
    <glyph glyph-name="G" unicode="G" horiz-adv-x="708" 
d="M597 -3.5q-13 -4.5 -21 -6.5q-36 -11 -83 -17t-91 -6q-81 0 -150 28.5t-119.5 77.5t-79 115.5t-28.5 142.5t28 142t77.5 114.5t118.5 76t150 27.5q37 0 76.5 -4t68.5 -12q24 -7 41 -14.5t61 -31.5l-49 -108q-37 22 -45.5 26t-13.5 7q-25 10 -59.5 16.5t-71.5 6.5
q-64 0 -106.5 -17t-76.5 -58q-29 -34 -45 -76.5t-16 -88.5q0 -57 20 -104t55.5 -80.5t83 -52.5t103.5 -19q23 0 43.5 3t40.5 7v224h132v-303q-31 -11 -44 -15.5z" />
    <glyph glyph-name="H" unicode="H" horiz-adv-x="771" 
d="M555 -20v302h-339v-302h-132v700h132v-283h339v283h132v-700h-132z" />
    <glyph glyph-name="I" unicode="I" horiz-adv-x="300" 
d="M84 -20v700h132v-700h-132z" />
    <glyph glyph-name="J" unicode="J" horiz-adv-x="300" 
d="M204 -60q-5 -16 -11 -30t-13.5 -27.5t-17.5 -28.5q-9 -14 -17.5 -26t-18 -23.5t-21 -23t-45.5 -44.5l-86 73q29 32 40 45.5t19 23.5t13 18t10 17q13 27 20.5 63.5t7.5 79.5v623h132v-701q-7 -23 -12 -39z" />
    <glyph glyph-name="K" unicode="K" horiz-adv-x="571" 
d="M447 -20l-279 353l273 347h154l-274 -341l286 -359h-160zM84 -20v700h132v-700h-132z" />
    <glyph glyph-name="L" unicode="L" horiz-adv-x="495" 
d="M84 -20v700h132v-591h295v-109h-427z" />
    <glyph glyph-name="M" unicode="M" horiz-adv-x="878" 
d="M662 -20v380q-2 204 2.5 240.5t19 -19.5t11 -66t-8.5 -24l-201 -511h-112l-187 498q-6 13 -9.5 23.5t12.5 65t17 21t3 -266.5v-341h-125v700h156l207 -543q7 -21 9.5 -29.5t-10.5 -16.5q-32 14 -29.5 22.5t7.5 23.5l214 543h156v-700h-132z" />
    <glyph glyph-name="N" unicode="N" horiz-adv-x="759" 
d="M540 -26l-341 527q-2 4 -5.5 9.5t-7.5 13.5q-3 5 -5.5 9t-3.5 7q-11 60 16 50.5t23 -187.5v-423h-132v700h147l334 -514q2 -3 5 -8t6 -11q3 -8 5 -12t7 -18q1 -3 1.5 -5t-46.5 69v499h132v-706h-135z" />
    <glyph glyph-name="O" unicode="O" horiz-adv-x="763" 
d="M712.5 186.5q-25.5 -65.5 -73.5 -115t-113.5 -77t-143.5 -27.5t-144 27.5t-113.5 77t-73.5 115t-26 143.5q0 77 26 143t73.5 115t113.5 76.5t144 27.5t143.5 -27.5t113.5 -76.5t73.5 -115t25.5 -143q0 -78 -25.5 -143.5zM580 428.5q-18 46.5 -48 80t-69 52.5t-81 19
q-43 0 -82 -19t-69 -52.5t-48 -80t-18 -98.5q0 -53 18 -99.5t48 -80t69 -52.5t82 -19q42 0 81 19t69 52.5t48 80t18 99.5q0 52 -18 98.5z" />
    <glyph glyph-name="P" unicode="P" horiz-adv-x="556" 
d="M535 365.5q-18 -44.5 -52 -76.5t-82.5 -49.5t-107.5 -17.5q-11 0 -20.5 0.5t-21 1.5t-26.5 2.5t-9 1.5v-248h-132v700h232q65 0 106.5 -13t74.5 -47q29 -29 42.5 -67t13.5 -88q0 -55 -18 -99.5zM388 549q-12 12 -30 17t-54 5h-88v-235q12 -1 29.5 -2t33.5 -1q48 0 75 11
q28 12 46 42.5t18 73.5q0 59 -30 89z" />
    <glyph glyph-name="Q" unicode="Q" horiz-adv-x="763" 
d="M717.5 201.5q-20.5 -59.5 -59 -107t-93 -80.5t-89.5 -39q-8 11 -2 5l16 -18q26 -27 51 -45q13 -10 23.5 -17.5t22.5 -14t27.5 -14t60.5 -26.5l-72 -99q-46 24 -64.5 34.5t-33.5 20t-29 19t-29 22.5q-18 13 -32.5 26t-28 26.5t-26.5 29t-28 36.5l-8 9q-6 2 -16.5 3.5
t-19.5 3.5t-17 4t-17 6q-52 17 -94 52t-72.5 80.5t-46.5 99.5t-16 112q0 77 25.5 143t73.5 115t114 76.5t144 27.5t143.5 -27.5t113.5 -77t73.5 -115t25.5 -143.5q0 -68 -20.5 -127.5zM581 428.5q-18 46.5 -48 80t-69 52.5t-82 19t-82 -19t-69 -52.5t-48.5 -80t-18.5 -98.5
q0 -53 18 -99.5t48 -80t69.5 -52.5t82.5 -19t82 19t69 52.5t48 80t18 99.5q0 52 -18 98.5z" />
    <glyph glyph-name="R" unicode="R" horiz-adv-x="584" 
d="M446 -20l-182 283h-48v-283h-132v700h226q32 0 57 -2.5t46 -9t39 -18t33 -26.5q27 -26 42.5 -63.5t15.5 -78.5q0 -42 -16.5 -81.5t-47.5 -68.5q-22 -22 -47 -35t-35 -15l199 -302h-150zM377 558q-6 4 -11 6t-12.5 4t-20.5 2.5t-35 0.5h-82v-199h82q107 0 107 109
q0 54 -28 77z" />
    <glyph glyph-name="S" unicode="S" horiz-adv-x="534" 
d="M452 518q-50 28 -62 34.5t-26 10.5q-17 6 -40.5 9.5t-41.5 3.5q-47 0 -74 -20t-27 -53q0 -15 5 -26.5t20.5 -25t46 -32t80.5 -44.5q72 -39 108 -70q28 -24 43 -59.5t15 -74.5q0 -93 -65.5 -148.5t-176.5 -55.5q-73 0 -133 24q-20 8 -38.5 18.5t-66.5 43.5l65 101
q51 -34 65.5 -42t29.5 -14q39 -15 84 -15q49 0 74.5 20t25.5 60q0 26 -8 39q-14 27 -48 46q-7 5 -34.5 18.5t-74.5 39.5q-79 43 -115.5 88t-36.5 102q0 43 17.5 79t49.5 62t77.5 40t98.5 14q31 0 61.5 -4.5t58.5 -12.5q22 -8 39.5 -16.5t62.5 -34.5z" />
    <glyph glyph-name="T" unicode="T" horiz-adv-x="539" 
d="M335 571v-591h-132v591h-220v109h572v-109h-220z" />
    <glyph glyph-name="U" unicode="U" horiz-adv-x="700" 
d="M614 111.5q-19 -45.5 -64 -83.5q-83 -67 -199 -67q-117 0 -200 67q-46 37 -65 83.5t-19 114.5v454h132v-429q0 -30 1.5 -50t5 -33.5t9.5 -23.5t17 -21q44 -49 118 -49t118 49q11 11 17 21t9.5 23.5t5 33.5t1.5 50v429h132v-454q0 -69 -19 -114.5z" />
    <glyph glyph-name="V" unicode="V" horiz-adv-x="583" 
d="M336 -37h-86l-276 717h140l201 -529q6 -14 2 -99q-44 71 -42 80t5 18l193 530h135z" />
    <glyph glyph-name="W" unicode="W" horiz-adv-x="864" 
d="M625 -33h-88l-101 264l-102 -264h-80l-280 713h141l183 -496l78 202l-112 294h127l48 -125l49 125h120l-109 -282l81 -212l176 494h133z" />
    <glyph glyph-name="X" unicode="X" horiz-adv-x="572" 
d="M454 -20l-167 247l-169 -247h-152l245 357l-234 343h151l160 -233l158 233h150l-235 -344l244 -356h-151z" />
    <glyph glyph-name="Y" unicode="Y" horiz-adv-x="550" 
d="M335 303v-323h-132v318l-235 382h143l162 -259l167 259h143z" />
    <glyph glyph-name="Z" unicode="Z" horiz-adv-x="595" 
d="M17 -20v63l365 528h-365v109h544v-69l-365 -522h383v-109h-562z" />
    <glyph glyph-name="bracketleft" unicode="[" horiz-adv-x="250" 
d="M48 -265v945h214v-96h-88v-753h88v-96h-214z" />
    <glyph glyph-name="backslash" unicode="\" horiz-adv-x="409" 
d="M275 -265l-263 945h120l263 -945h-120z" />
    <glyph glyph-name="bracketright" unicode="]" horiz-adv-x="250" 
d="M-12 -265v96h88v753h-88v96h214v-945h-214z" />
    <glyph glyph-name="underscore" unicode="_" 
d="M-25 -77v97h550v-97h-550z" />
    <glyph glyph-name="grave" unicode="`" horiz-adv-x="383" 
d="M174 499l-140 203h146l117 -203h-123z" />
    <glyph glyph-name="a" unicode="a" horiz-adv-x="516" 
d="M397 -20l-55 133h-169l-54 -133h-128l211 530h111l211 -530h-127zM258 341l-48 -126h95z" />
    <glyph glyph-name="b" unicode="b" horiz-adv-x="495" 
d="M456.5 71q-12.5 -27 -36 -48t-56 -32t-70.5 -11h-227v518h201q179 0 179 -138q0 -47 -27.5 -83.5t34.5 -24.5q-52 9 -18.5 -29.5t33.5 -92.5q0 -32 -12.5 -59zM307.5 386q-12.5 9 -51.5 9h-63v-98h56q17 0 26 0.5t13 1t6.5 2t8.5 6.5q17 13 17 42q0 28 -12.5 37zM334 166
q-5 12 -15 18q-11 9 -26 10h-37h-63v-111h63h30q9 0 13 0.5t8 2.5t9 4q10 6 16.5 19t6.5 29t-5 28z" />
    <glyph glyph-name="c" unicode="c" horiz-adv-x="516" 
d="M456 351q-41 29 -48.5 33.5t-17.5 8.5q-13 4 -31.5 7t-36.5 3q-35 0 -63.5 -11t-49.5 -31.5t-33 -50t-12 -65.5q0 -39 13.5 -72.5t37.5 -56.5q23 -23 53 -33t78 -10q16 0 27 1t21 3.5t20.5 6.5t51.5 25l38 -97q-62 -26 -98.5 -33.5t-74.5 -7.5q-65 0 -120 20.5
t-94.5 56.5t-61 85.5t-21.5 107.5q0 55 21.5 103.5t60.5 84.5t92 57t116 21q50 0 91.5 -12t99.5 -48z" />
    <glyph glyph-name="d" unicode="d" horiz-adv-x="609" 
d="M564.5 140.5q-19.5 -49.5 -56.5 -88.5q-34 -36 -87 -54t-128 -18h-201v518h201q74 0 127.5 -18t90.5 -56q16 -16 29.5 -38.5t23 -47t15 -50t5.5 -49.5q0 -49 -19.5 -98.5zM438.5 312.5q-15.5 33.5 -41.5 55.5q-9 8 -18.5 13t-21.5 8t-29 4.5t-41 1.5h-69v-312h63
q48 0 72.5 6.5t45.5 22.5q24 20 39.5 55t15.5 73q0 39 -15.5 72.5z" />
    <glyph glyph-name="e" unicode="e" horiz-adv-x="478" 
d="M92 -20v518h346v-103h-220v-98h182v-103h-182v-111h226v-103h-352z" />
    <glyph glyph-name="f" unicode="f" horiz-adv-x="463" 
d="M218 395v-105h182v-103h-182v-207h-126v518h346v-103h-220z" />
    <glyph glyph-name="g" unicode="g" horiz-adv-x="624" 
d="M509.5 -6.5q-9.5 -2.5 -16.5 -4.5q-34 -9 -75.5 -14t-73.5 -5q-67 0 -124 20.5t-98.5 57.5t-64.5 86t-23 106q0 56 22.5 104.5t63 84.5t96.5 56.5t121 20.5q30 0 62.5 -3t55.5 -9q19 -5 34.5 -11.5t59.5 -28.5l-52 -102q-48 27 -56 32q-20 8 -48.5 14t-53.5 6
q-38 0 -69.5 -11.5t-55 -32.5t-37 -50.5t-13.5 -65.5q0 -38 15 -69t41 -53.5t60.5 -35.5t75.5 -13q16 0 34.5 2t32.5 4v155h126v-229q-30 -9 -39.5 -11.5z" />
    <glyph glyph-name="h" unicode="h" horiz-adv-x="687" 
d="M470 -20v214h-252v-214h-126v518h126v-201h252v201h125v-518h-125z" />
    <glyph glyph-name="i" unicode="i" horiz-adv-x="310" 
d="M92 -20v518h126v-518h-126z" />
    <glyph glyph-name="j" unicode="j" horiz-adv-x="291" 
d="M186 -49q-5 -13 -11 -24t-12 -21t-13 -20q-6 -10 -12 -18t-13.5 -16.5t-16.5 -18t-38 -38.5l-89 66q25 28 33.5 37.5t14.5 16.5t10 13t10 16q12 19 18 47t6 72v435h126v-514q-8 -20 -13 -33z" />
    <glyph glyph-name="k" unicode="k" horiz-adv-x="534" 
d="M387 -20l-218 259l212 259h161l-219 -259l232 -259h-168zM92 -20v518h126v-518h-126z" />
    <glyph glyph-name="l" unicode="l" horiz-adv-x="436" 
d="M92 -20v518h126v-415h226v-103h-352z" />
    <glyph glyph-name="m" unicode="m" horiz-adv-x="763" 
d="M545 -20v209q1 190 19 207.5t11 -77.5l-154 -339h-95l-138 319q24 136 27.5 109.5t2.5 -374.5v-54h-126v518h140l161 -367q5 -12 6.5 -19.5t-27.5 -75.5q-17 65 -15 72t7 23l168 367h138v-518h-125z" />
    <glyph glyph-name="n" unicode="n" horiz-adv-x="668" 
d="M468 -26l-277 355q19 122 20 91t1 -288v-152h-120v518h115l277 -349q-1 -151 -15 -100t-12 321v128h119v-524h-108z" />
    <glyph glyph-name="o" unicode="o" horiz-adv-x="647" 
d="M592.5 133q-21.5 -49 -60 -85t-92.5 -56.5t-116 -20.5q-63 0 -116.5 20.5t-92.5 56.5t-60 85t-21 106t21 106t60 85t92.5 56.5t116.5 20.5q62 0 116 -20.5t92.5 -56.5t60 -85t21.5 -106t-21.5 -106zM470.5 306q-12.5 31 -34 52t-50.5 33t-62 12t-62 -12t-51 -33.5
t-34.5 -52t-12.5 -66.5t12.5 -67t34.5 -52.5t51 -33.5t62 -12t62 12t50.5 33.5t34 52.5t12.5 67t-12.5 67z" />
    <glyph glyph-name="p" unicode="p" horiz-adv-x="495" 
d="M469.5 263.5q-13.5 -31.5 -39 -54.5t-61 -36t-76.5 -13q-31 0 -62 3t-13 -2v-181h-126v518h191q97 0 148.5 -43.5t51.5 -123.5q0 -36 -13.5 -67.5zM339.5 382q-17.5 13 -64.5 13h-57v-127q-10 2 13 -1.5t54 -3.5q33 0 52.5 18t19.5 53t-17.5 48z" />
    <glyph glyph-name="q" unicode="q" horiz-adv-x="647" 
d="M556.5 72.5q-57.5 -69.5 -132.5 -88.5q-7 9 0.5 0.5t15 -15t15 -12.5t19.5 -12q11 -9 19 -14t17.5 -10t21.5 -9.5t55 -21.5l-68 -87q-41 16 -57 23t-29.5 14t-25 13.5t-24.5 15.5q-31 21 -56.5 46t-52.5 58q-21 5 -45 11t-44.5 15.5t-37.5 21.5t-33 28q-39 39 -59.5 87.5
t-20.5 102.5q0 57 21 106t60 85t92.5 56.5t116.5 20.5q62 0 116 -20.5t92.5 -56.5t60 -85t21.5 -106q0 -97 -57.5 -166.5zM470.5 306q-12.5 31 -34 52t-50.5 33t-62 12t-62 -12t-51 -33.5t-34.5 -52t-12.5 -66.5t12.5 -67t34.5 -52.5t51 -33.5t62 -12t62 12t50.5 33.5
t34 52.5t12.5 67t-12.5 67z" />
    <glyph glyph-name="r" unicode="r" horiz-adv-x="513" 
d="M373 -20l-126 195h-29v-195h-126v518h186q97 0 150 -41t53 -115q0 -62 -35.5 -106.5t-63.5 -48.5l135 -207h-144zM329 387l-7 5q-3 1 -7 1.5t-15.5 1t-31.5 0.5h-50v-117h50q17 0 27.5 0.5t15.5 1.5t9 4l10 7q19 18 19 48q0 33 -20 48z" />
    <glyph glyph-name="s" unicode="s" horiz-adv-x="464" 
d="M387 349q-45 30 -55 34.5t-26 9.5q-31 9 -58 9q-38 0 -55.5 -10.5t-17.5 -28.5q0 -11 3 -16q4 -6 9 -10.5t16.5 -11t32.5 -17.5t56 -28q35 -18 59.5 -34t41 -34.5t23.5 -39.5t7 -45q0 -72 -54 -114t-145 -42q-61 0 -108 17q-17 7 -31.5 14.5t-56.5 33.5l55 105
q48 -36 59 -42.5t23 -11.5q33 -14 68 -14q33 0 48.5 11.5t15.5 32.5q0 19 -9 30.5t-31 22.5l-89 43q-60 28 -89 63.5t-29 79.5q0 69 54.5 109.5t144.5 40.5q52 0 97 -13q19 -6 32.5 -12t53.5 -27z" />
    <glyph glyph-name="t" unicode="t" horiz-adv-x="448" 
d="M287 395v-415h-125v415h-170v103h465v-103h-170z" />
    <glyph glyph-name="u" unicode="u" horiz-adv-x="614" 
d="M520 76.5q-18 -44.5 -62 -70.5q-31 -18 -71.5 -29t-79.5 -11t-79.5 11t-72.5 29q-44 27 -61.5 70.5t-17.5 118.5v303h125v-316q0 -112 106 -112t106 112v316h125v-303q0 -74 -18 -118.5z" />
    <glyph glyph-name="v" unicode="v" horiz-adv-x="503" 
d="M291 -32h-76l-225 530h135l150 -358q6 -13 -19 -64q-24 45 -22.5 50.5t4.5 12.5l140 359h135z" />
    <glyph glyph-name="w" unicode="w" horiz-adv-x="729" 
d="M521 -29h-75l-80 176l-76 -176h-72l-228 527h135l134 -328l48 113l-91 215h123l30 -70l28 70h122l-91 -209l54 -119l129 328h128z" />
    <glyph glyph-name="x" unicode="x" horiz-adv-x="497" 
d="M369 -20l-124 163l-118 -163h-145l190 265l-181 253h149l111 -151l112 151h146l-191 -253l198 -265h-147z" />
    <glyph glyph-name="y" unicode="y" horiz-adv-x="478" 
d="M295 209v-229h-125v229l-186 289h144l111 -172l111 172h145z" />
    <glyph glyph-name="z" unicode="z" horiz-adv-x="509" 
d="M25 -20v70l269 345h-269v103h446v-70l-269 -345h282v-103h-459z" />
    <glyph glyph-name="braceleft" unicode="{" horiz-adv-x="409" 
d="M330 -263q-83 0 -120 37t-37 115v220q0 93 -51 93h-61v95h61q51 0 51 93v220q0 78 37 115t120 37h81v-103h-69q-9 0 -18.5 -5t-15.5 -14q-6 -8 -8 -21t-2 -41v-201v-26q0 -12 -1 -21q-4 -33 -24.5 -60t-52.5 -34l69 17l-72 12q38 -8 61 -43q6 -9 10 -18.5t6.5 -21t3 -26
t0.5 -34.5v-202q0 -27 2 -39.5t8 -21.5q5 -8 15 -13.5t19 -5.5h69v-103h-81z" />
    <glyph glyph-name="bar" unicode="|" horiz-adv-x="250" 
d="M67 -259v1008h120v-1008h-120z" />
    <glyph glyph-name="braceright" unicode="}" horiz-adv-x="409" 
d="M291 202q-22 0 -36.5 -21.5t-14.5 -71.5v-220q0 -78 -37 -115t-120 -37h-81v103h69q9 0 18.5 5t15.5 14q6 8 8 21t2 40v202v25q0 12 1 22q4 33 24.5 60t53.5 34l-70 -14l71 -14q-37 7 -60 42q-6 9 -10 18.5t-6.5 21t-3 26t-0.5 34.5v201q0 28 -2 40.5t-8 21.5
q-5 8 -15 13.5t-19 5.5h-69v103h81q83 0 120 -37t37 -115v-220q0 -93 51 -93l61 -2v-93h-61z" />
    <glyph glyph-name="asciitilde" unicode="~" horiz-adv-x="544" 
d="M505 189q-16 -9 -40 -18q-53 -19 -101 -19q-18 0 -33.5 1.5t-32 6.5t-35 12.5t-42.5 19.5q-21 10 -33.5 13.5t-25.5 3.5q-24 0 -52.5 -11.5t-78.5 -49.5l-54 77q25 21 35 28.5t20.5 13.5t20 10.5t22.5 10.5q50 20 92 20q20 0 43.5 -5t48.5 -18l50 -21q21 -10 33.5 -13
t25.5 -3q26 0 54 9q15 5 26 12t55 38l59 -79q-41 -30 -57 -39z" />
    <glyph glyph-name="uni00A0" unicode="&#xa0;" 
 />
    <glyph glyph-name="dieresis" unicode="&#xa8;" horiz-adv-x="406" 
d="M344.5 523.5q-21.5 -21.5 -53.5 -21.5q-33 0 -54.5 21.5t-21.5 48.5q0 28 21.5 49.5t54.5 21.5q32 0 53.5 -21.5t21.5 -49.5q0 -27 -21.5 -48.5zM169.5 523.5q-21.5 -21.5 -53.5 -21.5q-33 0 -54.5 21.5t-21.5 48.5q0 28 21.5 49.5t54.5 21.5q32 0 53.5 -21.5t21.5 -49.5
q0 -27 -21.5 -48.5z" />
    <glyph glyph-name="acute" unicode="&#xb4;" horiz-adv-x="383" 
d="M247 477h-123l117 203h146z" />
    <glyph glyph-name="Agrave" unicode="&#xc0;" horiz-adv-x="595" 
d="M258 695l-153 158h152l128 -158h-127zM480 -20l-68 195h-229l-68 -195h-140l260 719h126l259 -719h-140zM298 499l-75 -209h149z" />
    <glyph glyph-name="Aacute" unicode="&#xc1;" horiz-adv-x="595" 
d="M349 695h-128l128 158h151zM480 -20l-68 195h-229l-68 -195h-140l260 719h126l259 -719h-140zM298 499l-75 -209h149z" />
    <glyph glyph-name="Acircumflex" unicode="&#xc2;" horiz-adv-x="595" 
d="M365 676l-65 57l-64 -57h-129l150 157h87l153 -157h-132zM480 -20l-68 195h-229l-68 -195h-140l260 719h126l259 -719h-140zM298 499l-75 -209h149z" />
    <glyph glyph-name="Atilde" unicode="&#xc3;" horiz-adv-x="595" 
d="M485.5 720q-11.5 -8 -32.5 -17q-42 -18 -82 -18q-43 0 -100 30q-22 11 -28.5 13.5t-14.5 2.5q-12 0 -23 -6q-4 -1 -7 -2.5t-7 -4t-10.5 -6.5t-39.5 -25l-57 79q42 27 54 34t27 13q35 18 74 18q12 0 17 -1q7 -1 15 -2.5t18 -5.5t22 -10.5t31 -16.5q16 -8 24 -11t15 -3
t12.5 1t12.5 4t17 9t49 33l56 -72q-31 -28 -42.5 -36zM480 -20l-68 195h-229l-68 -195h-140l260 719h126l259 -719h-140zM298 499l-75 -209h149z" />
    <glyph glyph-name="Adieresis" unicode="&#xc4;" horiz-adv-x="595" 
d="M444 709.5q-21 -21.5 -54 -21.5t-54.5 21.5t-21.5 48.5q0 28 21.5 49.5t54.5 21.5t54 -21.5t21 -49.5q0 -27 -21 -48.5zM258.5 709.5q-21.5 -21.5 -54.5 -21.5q-32 0 -53.5 21.5t-21.5 48.5q0 28 21.5 49.5t53.5 21.5q33 0 54.5 -21.5t21.5 -49.5q0 -27 -21.5 -48.5z
M480 -20l-68 195h-229l-68 -195h-140l260 719h126l259 -719h-140zM298 499l-75 -209h149z" />
    <glyph glyph-name="Aring" unicode="&#xc5;" horiz-adv-x="595" 
d="M374.5 718.5q-29.5 -29.5 -74.5 -29.5t-75 29.5t-30 69.5t30 70t75 30t74.5 -30t29.5 -70t-29.5 -69.5zM480 -20l-68 195h-229l-68 -195h-140l260 719h126l259 -719h-140zM310.5 804q-5.5 6 -10.5 6t-11 -6t-6 -16t6 -15.5t11 -5.5t10.5 5.5t5.5 15.5t-5.5 16zM298 499
l-75 -209h149z" />
    <glyph glyph-name="AE" unicode="&#xc6;" horiz-adv-x="794" 
d="M342 -20v195h-153l-94 -195h-149l353 700h68h396v-109h-294v-180h243v-109h-243v-193h300v-109h-427zM342 501l-103 -211h103v211z" />
    <glyph glyph-name="Egrave" unicode="&#xc8;" horiz-adv-x="539" 
d="M281 695l-151 158h152l125 -158h-126zM84 -20v700h421v-109h-289v-180h239v-109h-239v-193h298v-109h-430z" />
    <glyph glyph-name="Eacute" unicode="&#xc9;" horiz-adv-x="539" 
d="M358 695h-128l128 158h151zM84 -20v700h421v-109h-289v-180h239v-109h-239v-193h298v-109h-430z" />
    <glyph glyph-name="Ecircumflex" unicode="&#xca;" horiz-adv-x="539" 
d="M374 676l-64 57l-65 -57h-128l149 157h87l154 -157h-133zM84 -20v700h421v-109h-289v-180h239v-109h-239v-193h298v-109h-430z" />
    <glyph glyph-name="Edieresis" unicode="&#xcb;" horiz-adv-x="539" 
d="M455 711.5q-21 -21.5 -54 -21.5t-54 21.5t-21 49.5t21 49t54 21t54 -21t21 -49t-21 -49.5zM269.5 711.5q-21.5 -21.5 -53.5 -21.5q-33 0 -54.5 21.5t-21.5 49.5t21.5 49t54.5 21q32 0 53.5 -21t21.5 -49t-21.5 -49.5zM84 -20v700h421v-109h-289v-180h239v-109h-239v-193
h298v-109h-430z" />
    <glyph glyph-name="Igrave" unicode="&#xcc;" horiz-adv-x="300" 
d="M129 695l-151 158h152l125 -158h-126zM84 -20v700h132v-700h-132z" />
    <glyph glyph-name="Iacute" unicode="&#xcd;" horiz-adv-x="300" 
d="M177 695h-126l125 158h152zM84 -20v700h132v-700h-132z" />
    <glyph glyph-name="Icircumflex" unicode="&#xce;" horiz-adv-x="300" 
d="M219 676l-65 57l-64 -57h-129l150 157h87l153 -157h-132zM84 -20v700h132v-700h-132z" />
    <glyph glyph-name="Idieresis" unicode="&#xcf;" horiz-adv-x="300" 
d="M283 709.5q-21 -21.5 -54 -21.5t-54 21.5t-21 48.5q0 28 21 49.5t54 21.5t54 -21.5t21 -49.5q0 -27 -21 -48.5zM131 709.5q-21 -21.5 -54 -21.5t-54 21.5t-21 48.5q0 28 21 49.5t54 21.5t54 -21.5t21 -49.5q0 -27 -21 -48.5zM84 -20v700h132v-700h-132z" />
    <glyph glyph-name="Ograve" unicode="&#xd2;" horiz-adv-x="763" 
d="M329 695l-151 158h152l125 -158h-126zM712.5 186.5q-25.5 -65.5 -73.5 -115t-113.5 -77t-143.5 -27.5t-144 27.5t-113.5 77t-73.5 115t-26 143.5q0 77 26 143t73.5 115t113.5 76.5t144 27.5t143.5 -27.5t113.5 -76.5t73.5 -115t25.5 -143q0 -78 -25.5 -143.5zM580 426.5
q-18 45.5 -48 78.5t-69 52t-81 19t-81 -19t-69 -52t-48.5 -78.5t-18.5 -96.5t18.5 -96.5t48.5 -79t69 -52t81 -18.5t81 19t69 52t48 78.5t18 96.5t-18 96.5z" />
    <glyph glyph-name="Oacute" unicode="&#xd3;" horiz-adv-x="763" 
d="M425 695h-126l125 158h152zM712.5 186.5q-25.5 -65.5 -73.5 -115t-113.5 -77t-143.5 -27.5t-144 27.5t-113.5 77t-73.5 115t-26 143.5q0 77 26 143t73.5 115t113.5 76.5t144 27.5t143.5 -27.5t113.5 -76.5t73.5 -115t25.5 -143q0 -78 -25.5 -143.5zM580 426.5
q-18 45.5 -48 78.5t-69 52t-81 19t-81 -19t-69 -52t-48.5 -78.5t-18.5 -96.5t18.5 -96.5t48.5 -79t69 -52t81 -18.5t81 19t69 52t48 78.5t18 96.5t-18 96.5z" />
    <glyph glyph-name="Ocircumflex" unicode="&#xd4;" horiz-adv-x="763" 
d="M445 676l-64 57l-65 -57h-129l150 157h87l154 -157h-133zM712.5 186.5q-25.5 -65.5 -73.5 -115t-113.5 -77t-143.5 -27.5t-144 27.5t-113.5 77t-73.5 115t-26 143.5q0 77 26 143t73.5 115t113.5 76.5t144 27.5t143.5 -27.5t113.5 -76.5t73.5 -115t25.5 -143
q0 -78 -25.5 -143.5zM580 426.5q-18 45.5 -48 78.5t-69 52t-81 19t-81 -19t-69 -52t-48.5 -78.5t-18.5 -96.5t18.5 -96.5t48.5 -79t69 -52t81 -18.5t81 19t69 52t48 78.5t18 96.5t-18 96.5z" />
    <glyph glyph-name="Otilde" unicode="&#xd5;" horiz-adv-x="763" 
d="M562.5 707q-11.5 -8 -32.5 -17q-42 -18 -82 -18q-43 0 -100 30q-22 11 -28.5 13.5t-14.5 2.5q-12 0 -23 -6q-4 -1 -7 -2.5t-7 -4t-10.5 -6.5t-39.5 -25l-57 79q42 27 54 34t27 13q35 18 74 18q12 0 17 -1q7 -1 15 -2.5t18 -5.5t22 -10.5t31 -16.5q16 -8 24 -11t15 -3
t12.5 1t12.5 4t17 9t49 33l56 -72q-31 -28 -42.5 -36zM712.5 186.5q-25.5 -65.5 -73.5 -115t-113.5 -77t-143.5 -27.5t-144 27.5t-113.5 77t-73.5 115t-26 143.5q0 77 26 143t73.5 115t113.5 76.5t144 27.5t143.5 -27.5t113.5 -76.5t73.5 -115t25.5 -143q0 -78 -25.5 -143.5
zM580 426.5q-18 45.5 -48 78.5t-69 52t-81 19t-81 -19t-69 -52t-48.5 -78.5t-18.5 -96.5t18.5 -96.5t48.5 -79t69 -52t81 -18.5t81 19t69 52t48 78.5t18 96.5t-18 96.5z" />
    <glyph glyph-name="Odieresis" unicode="&#xd6;" horiz-adv-x="763" 
d="M539 710.5q-21 -21.5 -54 -21.5t-54 21.5t-21 49.5q0 27 21 48.5t54 21.5t54 -21.5t21 -48.5q0 -28 -21 -49.5zM336.5 710.5q-21.5 -21.5 -53.5 -21.5q-33 0 -54.5 21.5t-21.5 49.5q0 27 21.5 48.5t54.5 21.5q32 0 53.5 -21.5t21.5 -48.5q0 -28 -21.5 -49.5zM712.5 186.5
q-25.5 -65.5 -73.5 -115t-113.5 -77t-143.5 -27.5t-144 27.5t-113.5 77t-73.5 115t-26 143.5q0 77 26 143t73.5 115t113.5 76.5t144 27.5t143.5 -27.5t113.5 -76.5t73.5 -115t25.5 -143q0 -78 -25.5 -143.5zM580 426.5q-18 45.5 -48 78.5t-69 52t-81 19t-81 -19t-69 -52
t-48.5 -78.5t-18.5 -96.5t18.5 -96.5t48.5 -79t69 -52t81 -18.5t81 19t69 52t48 78.5t18 96.5t-18 96.5z" />
    <glyph glyph-name="Ugrave" unicode="&#xd9;" horiz-adv-x="700" 
d="M337 695l-153 158h152l128 -158h-127zM614 111.5q-19 -45.5 -64 -83.5q-83 -67 -199 -67q-117 0 -200 67q-46 37 -65 83.5t-19 114.5v454h132v-429q0 -30 1.5 -50t5 -33.5t9.5 -23.5t17 -21q44 -49 118 -49t118 49q11 11 17 21t9.5 23.5t5 33.5t1.5 50v429h132v-454
q0 -69 -19 -114.5z" />
    <glyph glyph-name="Uacute" unicode="&#xda;" horiz-adv-x="700" 
d="M391 695h-126l125 158h152zM614 111.5q-19 -45.5 -64 -83.5q-83 -67 -199 -67q-117 0 -200 67q-46 37 -65 83.5t-19 114.5v454h132v-429q0 -30 1.5 -50t5 -33.5t9.5 -23.5t17 -21q44 -49 118 -49t118 49q11 11 17 21t9.5 23.5t5 33.5t1.5 50v429h132v-454
q0 -69 -19 -114.5z" />
    <glyph glyph-name="Ucircumflex" unicode="&#xdb;" horiz-adv-x="700" 
d="M421 676l-64 57l-65 -57h-129l150 157h87l154 -157h-133zM614 111.5q-19 -45.5 -64 -83.5q-83 -67 -199 -67q-117 0 -200 67q-46 37 -65 83.5t-19 114.5v454h132v-429q0 -30 1.5 -50t5 -33.5t9.5 -23.5t17 -21q44 -49 118 -49t118 49q11 11 17 21t9.5 23.5t5 33.5t1.5 50
v429h132v-454q0 -69 -19 -114.5z" />
    <glyph glyph-name="Udieresis" unicode="&#xdc;" horiz-adv-x="700" 
d="M512 713q-21 -21 -54 -21t-54 21t-21 49t21 49t54 21t54 -21t21 -49t-21 -49zM310 713q-21 -21 -54 -21t-54 21t-21 49t21 49t54 21t54 -21t21 -49t-21 -49zM614 111.5q-19 -45.5 -64 -83.5q-83 -67 -199 -67q-117 0 -200 67q-46 37 -65 83.5t-19 114.5v454h132v-429
q0 -30 1.5 -50t5 -33.5t9.5 -23.5t17 -21q44 -49 118 -49t118 49q11 11 17 21t9.5 23.5t5 33.5t1.5 50v429h132v-454q0 -69 -19 -114.5z" />
    <glyph glyph-name="agrave" unicode="&#xe0;" horiz-adv-x="516" 
d="M237 499l-140 203h146l117 -203h-123zM397 -20l-55 133h-169l-54 -133h-128l211 530h111l211 -530h-127zM258 341l-48 -126h95z" />
    <glyph glyph-name="aacute" unicode="&#xe1;" horiz-adv-x="516" 
d="M290 498h-123l117 204h146zM397 -20l-55 133h-169l-54 -133h-128l211 530h111l211 -530h-127zM258 341l-48 -126h95z" />
    <glyph glyph-name="acircumflex" unicode="&#xe2;" horiz-adv-x="516" 
d="M327 499l-62 87l-61 -87h-124l139 203h93l141 -203h-126zM397 -20l-55 133h-169l-54 -133h-128l211 530h111l211 -530h-127zM258 341l-48 -126h95z" />
    <glyph glyph-name="atilde" unicode="&#xe3;" horiz-adv-x="516" 
d="M438.5 537q-11.5 -8 -32.5 -17q-42 -18 -82 -18q-43 0 -100 30q-22 11 -28.5 13.5t-14.5 2.5q-12 0 -23 -6q-4 -1 -7 -2.5t-7 -4t-10.5 -6.5t-39.5 -25l-57 79q42 27 54 34t27 13q35 18 74 18q12 0 17 -1q7 -1 15 -2.5t18 -5.5t22 -10.5t31 -16.5q16 -8 24 -11t15 -3
t12.5 1t12.5 4t17 9t49 33l56 -72q-31 -28 -42.5 -36zM397 -20l-55 133h-169l-54 -133h-128l211 530h111l211 -530h-127zM258 341l-48 -126h95z" />
    <glyph glyph-name="adieresis" unicode="&#xe4;" horiz-adv-x="516" 
d="M403.5 523.5q-21.5 -21.5 -53.5 -21.5q-33 0 -54.5 21.5t-21.5 48.5q0 28 21.5 49.5t54.5 21.5q32 0 53.5 -21.5t21.5 -49.5q0 -27 -21.5 -48.5zM228.5 523.5q-21.5 -21.5 -53.5 -21.5q-33 0 -54.5 21.5t-21.5 48.5q0 28 21.5 49.5t54.5 21.5q32 0 53.5 -21.5t21.5 -49.5
q0 -27 -21.5 -48.5zM397 -20l-55 133h-169l-54 -133h-128l211 530h111l211 -530h-127zM258 341l-48 -126h95z" />
    <glyph glyph-name="aring" unicode="&#xe5;" horiz-adv-x="516" 
d="M334.5 526.5q-29.5 -29.5 -74.5 -29.5t-75 29.5t-30 69.5t30 70t75 30t74.5 -30t29.5 -70t-29.5 -69.5zM397 -20l-55 133h-169l-54 -133h-128l211 530h111l211 -530h-127zM270.5 612q-5.5 6 -10.5 6t-11 -6t-6 -16t6 -15.5t11 -5.5t10.5 5.5t5.5 15.5t-5.5 16zM258 341
l-48 -126h95z" />
    <glyph glyph-name="ae" unicode="&#xe6;" horiz-adv-x="686" 
d="M301 -21v135h-121l-77 -135h-142l306 519h59h321v-103h-221v-98h183v-103h-182v-111h225v-104h-351zM296 324l-58 -104h58v104z" />
    <glyph glyph-name="egrave" unicode="&#xe8;" horiz-adv-x="478" 
d="M238 499l-140 203h146l117 -203h-123zM92 -20v518h346v-103h-220v-98h182v-103h-182v-111h226v-103h-352z" />
    <glyph glyph-name="eacute" unicode="&#xe9;" horiz-adv-x="478" 
d="M318 498h-123l117 204h146zM92 -20v518h346v-103h-220v-98h182v-103h-182v-111h226v-103h-352z" />
    <glyph glyph-name="ecircumflex" unicode="&#xea;" horiz-adv-x="478" 
d="M331 499l-62 87l-61 -87h-124l139 203h93l141 -203h-126zM92 -20v518h346v-103h-220v-98h182v-103h-182v-111h226v-103h-352z" />
    <glyph glyph-name="edieresis" unicode="&#xeb;" horiz-adv-x="478" 
d="M409.5 521.5q-21.5 -21.5 -53.5 -21.5q-33 0 -54.5 21.5t-21.5 48.5q0 28 21.5 49.5t54.5 21.5q32 0 53.5 -21.5t21.5 -49.5q0 -27 -21.5 -48.5zM234.5 521.5q-21.5 -21.5 -53.5 -21.5q-33 0 -54.5 21.5t-21.5 48.5q0 28 21.5 49.5t54.5 21.5q32 0 53.5 -21.5t21.5 -49.5
q0 -27 -21.5 -48.5zM92 -20v518h346v-103h-220v-98h182v-103h-182v-111h226v-103h-352z" />
    <glyph glyph-name="igrave" unicode="&#xec;" horiz-adv-x="310" 
d="M133 499l-140 203h146l117 -203h-123zM92 -20v518h126v-518h-126z" />
    <glyph glyph-name="iacute" unicode="&#xed;" horiz-adv-x="310" 
d="M183 498h-124l118 204h146zM92 -20v518h126v-518h-126z" />
    <glyph glyph-name="icircumflex" unicode="&#xee;" horiz-adv-x="310" 
d="M220 499l-61 86l-61 -86h-124l139 203h91l144 -203h-128zM92 -20v518h126v-518h-126z" />
    <glyph glyph-name="idieresis" unicode="&#xef;" horiz-adv-x="310" 
d="M286.5 523.5q-21.5 -21.5 -53.5 -21.5q-33 0 -54.5 21.5t-21.5 48.5q0 28 21.5 49.5t54.5 21.5q32 0 53.5 -21.5t21.5 -49.5q0 -27 -21.5 -48.5zM136.5 523.5q-21.5 -21.5 -53.5 -21.5q-33 0 -54.5 21.5t-21.5 48.5q0 28 21.5 49.5t54.5 21.5q32 0 53.5 -21.5t21.5 -49.5
q0 -27 -21.5 -48.5zM92 -20v518h126v-518h-126z" />
    <glyph glyph-name="ograve" unicode="&#xf2;" horiz-adv-x="647" 
d="M285 499l-140 203h146l117 -203h-123zM592.5 133q-21.5 -49 -60 -85t-92.5 -56.5t-116 -20.5q-63 0 -116.5 20.5t-92.5 56.5t-60 85t-21 106t21 106t60 85t92.5 56.5t116.5 20.5q62 0 116 -20.5t92.5 -56.5t60 -85t21.5 -106t-21.5 -106zM470.5 306q-12.5 31 -34 52
t-50.5 33t-62 12t-62 -12t-51 -33.5t-34.5 -52t-12.5 -66.5t12.5 -67t34.5 -52.5t51 -33.5t62 -12t62 12t50.5 33.5t34 52.5t12.5 67t-12.5 67z" />
    <glyph glyph-name="oacute" unicode="&#xf3;" horiz-adv-x="647" 
d="M362 498h-123l117 204h146zM592.5 133q-21.5 -49 -60 -85t-92.5 -56.5t-116 -20.5q-63 0 -116.5 20.5t-92.5 56.5t-60 85t-21 106t21 106t60 85t92.5 56.5t116.5 20.5q62 0 116 -20.5t92.5 -56.5t60 -85t21.5 -106t-21.5 -106zM470.5 306q-12.5 31 -34 52t-50.5 33
t-62 12t-62 -12t-51 -33.5t-34.5 -52t-12.5 -66.5t12.5 -67t34.5 -52.5t51 -33.5t62 -12t62 12t50.5 33.5t34 52.5t12.5 67t-12.5 67z" />
    <glyph glyph-name="ocircumflex" unicode="&#xf4;" horiz-adv-x="647" 
d="M391 499l-62 87l-61 -87h-124l139 203h93l141 -203h-126zM592.5 133q-21.5 -49 -60 -85t-92.5 -56.5t-116 -20.5q-63 0 -116.5 20.5t-92.5 56.5t-60 85t-21 106t21 106t60 85t92.5 56.5t116.5 20.5q62 0 116 -20.5t92.5 -56.5t60 -85t21.5 -106t-21.5 -106zM470.5 306
q-12.5 31 -34 52t-50.5 33t-62 12t-62 -12t-51 -33.5t-34.5 -52t-12.5 -66.5t12.5 -67t34.5 -52.5t51 -33.5t62 -12t62 12t50.5 33.5t34 52.5t12.5 67t-12.5 67z" />
    <glyph glyph-name="otilde" unicode="&#xf5;" horiz-adv-x="647" 
d="M498.5 536q-11.5 -8 -32.5 -17q-42 -18 -82 -18q-43 0 -100 30q-22 11 -28.5 13.5t-14.5 2.5q-12 0 -23 -6q-4 -1 -7 -2.5t-7 -4t-10.5 -6.5t-39.5 -25l-57 79q42 27 54 34t27 13q35 18 74 18q12 0 17 -1q7 -1 15 -2.5t18 -5.5t22 -10.5t31 -16.5q16 -8 24 -11t15 -3
t12.5 1t12.5 4t17 9t49 33l56 -72q-31 -28 -42.5 -36zM592.5 133q-21.5 -49 -60 -85t-92.5 -56.5t-116 -20.5q-63 0 -116.5 20.5t-92.5 56.5t-60 85t-21 106t21 106t60 85t92.5 56.5t116.5 20.5q62 0 116 -20.5t92.5 -56.5t60 -85t21.5 -106t-21.5 -106zM470.5 306
q-12.5 31 -34 52t-50.5 33t-62 12t-62 -12t-51 -33.5t-34.5 -52t-12.5 -66.5t12.5 -67t34.5 -52.5t51 -33.5t62 -12t62 12t50.5 33.5t34 52.5t12.5 67t-12.5 67z" />
    <glyph glyph-name="odieresis" unicode="&#xf6;" horiz-adv-x="647" 
d="M492 523.5q-21 -21.5 -54 -21.5t-54 21.5t-21 48.5q0 28 21 49.5t54 21.5t54 -21.5t21 -49.5q0 -27 -21 -48.5zM257 523.5q-21 -21.5 -54 -21.5t-54 21.5t-21 48.5q0 28 21 49.5t54 21.5t54 -21.5t21 -49.5q0 -27 -21 -48.5zM592.5 133q-21.5 -49 -60 -85t-92.5 -56.5
t-116 -20.5q-63 0 -116.5 20.5t-92.5 56.5t-60 85t-21 106t21 106t60 85t92.5 56.5t116.5 20.5q62 0 116 -20.5t92.5 -56.5t60 -85t21.5 -106t-21.5 -106zM470.5 306q-12.5 31 -34 52t-50.5 33t-62 12t-62 -12t-51 -33.5t-34.5 -52t-12.5 -66.5t12.5 -67t34.5 -52.5
t51 -33.5t62 -12t62 12t50.5 33.5t34 52.5t12.5 67t-12.5 67z" />
    <glyph glyph-name="divide" unicode="&#xf7;" horiz-adv-x="550" 
d="M336.5 372.5q-23.5 -23.5 -59.5 -23.5q-37 0 -60.5 23.5t-23.5 54.5q0 32 23.5 55.5t60.5 23.5q36 0 59.5 -23.5t23.5 -55.5q0 -31 -23.5 -54.5zM0 188v97h550v-97h-550zM336.5 -7.5q-23.5 -23.5 -59.5 -23.5q-37 0 -60.5 23.5t-23.5 55.5q0 31 23.5 54.5t60.5 23.5
q36 0 59.5 -23.5t23.5 -54.5q0 -32 -23.5 -55.5z" />
    <glyph glyph-name="ugrave" unicode="&#xf9;" horiz-adv-x="614" 
d="M269 499l-140 203h146l117 -203h-123zM520 76.5q-18 -44.5 -62 -70.5q-31 -18 -71.5 -29t-79.5 -11t-79.5 11t-72.5 29q-44 27 -61.5 70.5t-17.5 118.5v303h125v-316q0 -112 106 -112t106 112v316h125v-303q0 -74 -18 -118.5z" />
    <glyph glyph-name="uacute" unicode="&#xfa;" horiz-adv-x="614" 
d="M347 498h-123l117 204h146zM520 76.5q-18 -44.5 -62 -70.5q-31 -18 -71.5 -29t-79.5 -11t-79.5 11t-72.5 29q-44 27 -61.5 70.5t-17.5 118.5v303h125v-316q0 -112 106 -112t106 112v316h125v-303q0 -74 -18 -118.5z" />
    <glyph glyph-name="ucircumflex" unicode="&#xfb;" horiz-adv-x="614" 
d="M373 499l-62 87l-61 -87h-124l139 203h91l144 -203h-127zM520 76.5q-18 -44.5 -62 -70.5q-31 -18 -71.5 -29t-79.5 -11t-79.5 11t-72.5 29q-44 27 -61.5 70.5t-17.5 118.5v303h125v-316q0 -112 106 -112t106 112v316h125v-303q0 -74 -18 -118.5z" />
    <glyph glyph-name="udieresis" unicode="&#xfc;" horiz-adv-x="614" 
d="M449 522.5q-21 -21.5 -54 -21.5t-54 21.5t-21 48.5q0 28 21 49.5t54 21.5t54 -21.5t21 -49.5q0 -27 -21 -48.5zM271 522.5q-21 -21.5 -54 -21.5t-54 21.5t-21 48.5q0 28 21 49.5t54 21.5t54 -21.5t21 -49.5q0 -27 -21 -48.5zM520 76.5q-18 -44.5 -62 -70.5
q-31 -18 -71.5 -29t-79.5 -11t-79.5 11t-72.5 29q-44 27 -61.5 70.5t-17.5 118.5v303h125v-316q0 -112 106 -112t106 112v316h125v-303q0 -74 -18 -118.5z" />
    <glyph glyph-name="ydieresis" unicode="&#xff;" horiz-adv-x="478" 
d="M384.5 524.5q-21.5 -21.5 -53.5 -21.5q-33 0 -54.5 21.5t-21.5 48.5q0 28 21.5 49.5t54.5 21.5q32 0 53.5 -21.5t21.5 -49.5q0 -27 -21.5 -48.5zM209.5 524.5q-21.5 -21.5 -53.5 -21.5q-33 0 -54.5 21.5t-21.5 48.5q0 28 21.5 49.5t54.5 21.5q32 0 53.5 -21.5t21.5 -49.5
q0 -27 -21.5 -48.5zM295 209v-229h-125v229l-186 289h144l111 -172l111 172h145z" />
    <glyph glyph-name="Ydieresis" unicode="&#x178;" horiz-adv-x="550" 
d="M423.5 708.5q-21.5 -21.5 -54.5 -21.5q-32 0 -53.5 21.5t-21.5 49.5q0 27 21.5 48.5t53.5 21.5q33 0 54.5 -21.5t21.5 -48.5q0 -28 -21.5 -49.5zM221.5 708.5q-21.5 -21.5 -54.5 -21.5t-54 21.5t-21 49.5q0 27 21 48.5t54 21.5t54.5 -21.5t21.5 -48.5q0 -28 -21.5 -49.5z
M335 303v-323h-132v318l-235 382h143l162 -259l167 259h143z" />
    <glyph glyph-name="tilde" unicode="&#x2dc;" horiz-adv-x="454" 
d="M394.5 537q-11.5 -8 -32.5 -17q-42 -18 -82 -18q-43 0 -100 30q-22 11 -28.5 13.5t-14.5 2.5q-12 0 -23 -6q-4 -1 -7 -2.5t-7 -4t-10.5 -6.5t-39.5 -25l-57 79q42 27 54 34t27 13q35 18 74 18q12 0 17 -1q7 -1 15 -2.5t18 -5.5t22 -10.5t31 -16.5q16 -8 24 -11t15 -3
t12.5 1t12.5 4t17 9t49 33l56 -72q-31 -28 -42.5 -36z" />
    <glyph glyph-name="hungarumlaut" unicode="&#x2dd;" horiz-adv-x="383" 
d="M267 477h-123l117 203h146zM130 477h-124l118 203h146z" />
    <glyph glyph-name="endash" unicode="&#x2013;" horiz-adv-x="550" 
d="M0 188v97h550v-97h-550z" />
    <glyph glyph-name="quoteleft" unicode="&#x2018;" horiz-adv-x="252" 
d="M170 399.5q-16 -4.5 -37 -4.5q-83 0 -83 84q0 25 9 56q6 24 16.5 46.5t31.5 61.5l19 37h97q-20 -43 -23.5 -53t-10.5 -29q-3 -10 -5.5 -18t-4 -14t-3 -12.5t-2.5 -12.5l46 -115q-34 -22 -50 -26.5z" />
    <glyph glyph-name="quoteright" unicode="&#x2019;" horiz-adv-x="252" 
d="M199.5 580.5q-1.5 -14.5 -7.5 -29.5q-6 -23 -16.5 -46t-30.5 -61l-19 -37h-97q20 43 23.5 53.5t10.5 28.5q3 10 5.5 17.5t3.5 14t3 13.5t3 12l-46 114q33 23 49.5 27.5t37.5 4.5q82 0 82 -84q0 -13 -1.5 -27.5z" />
    <glyph glyph-name="quotesinglbase" unicode="&#x201a;" horiz-adv-x="252" 
d="M199.5 7.5q-1.5 -14.5 -7.5 -29.5q-6 -23 -16.5 -45.5t-30.5 -61.5l-20 -36h-95q18 42 22 52t11 30q3 10 5.5 17t3.5 13.5t3 13.5t3 12l-46 115q33 23 49.5 27.5t37.5 4.5q82 0 82 -84q0 -14 -1.5 -28.5z" />
    <glyph glyph-name="quotedblleft" unicode="&#x201c;" horiz-adv-x="437" 
d="M367.5 406q-8.5 -3 -16.5 -6t-16.5 -3.5t-17.5 -0.5q-83 0 -83 84q0 38 18.5 87.5t57.5 112.5h108q-26 -38 -29.5 -44t-6 -11t-5 -12.5t-6.5 -18.5q-5 -15 -7.5 -26t-5.5 -26l48 -118q-30 -15 -38.5 -18zM184 406.5q-9 -3.5 -17 -6.5t-16.5 -3.5t-17.5 -0.5q-83 0 -83 84
q0 38 18 87t58 113h108q-31 -46 -35.5 -55.5t-11.5 -30.5q-5 -15 -7.5 -26t-5.5 -26l48 -117q-29 -15 -38 -18.5z" />
    <glyph glyph-name="quotedblright" unicode="&#x201d;" horiz-adv-x="437" 
d="M368 521q-18 -49 -58 -113h-107q26 38 29.5 44t6 11.5t5 12.5t6.5 18q5 15 7 26t6 27l-48 116q29 15 37.5 18.5t16.5 6.5t17 3.5t18 0.5q82 0 82 -84q0 -38 -18 -87zM184 520.5q-18 -49.5 -58 -112.5h-107q25 37 28.5 43t6 11.5t5.5 12.5t7 19q5 15 7.5 26t5.5 26
l-48 118q30 15 38.5 18t16.5 6t16.5 3.5t17.5 0.5q82 0 82 -84q0 -38 -18 -87.5z" />
    <glyph glyph-name="quotedblbase" unicode="&#x201e;" horiz-adv-x="437" 
d="M368 -51.5q-18 -48.5 -58 -112.5h-107q26 38 29.5 44t6 11t5 12t6.5 18q5 15 7 26t6 27l-48 116q28 15 36.5 19t17 7t17.5 3.5t18 0.5q82 0 82 -85q0 -38 -18 -86.5zM184 -52.5q-18 -49.5 -58 -111.5h-107q26 38 29 43t5.5 11t5.5 14l7 17q5 16 7.5 27t5.5 25l-48 118
q29 14 37.5 18t17 7t17 3.5t17.5 0.5q82 0 82 -85q0 -38 -18 -87.5z" />
    <glyph glyph-name="perthousand" unicode="&#x2030;" horiz-adv-x="1234" 
d="M394 420.5q-15 -35.5 -42 -62.5t-64 -42.5t-79 -15.5t-79 15.5t-63.5 42.5t-42 62.5t-15.5 74.5t15.5 74.5t42 62.5t63.5 43t79 16t79 -16t64 -43t42 -62.5t15 -74.5t-15 -74.5zM186 -64h-128l603 776h128zM1209.5 87.5q-15.5 -35.5 -42 -62t-63.5 -42.5t-79 -16t-79 16
t-64 42.5t-42 62t-15 74.5t15 74.5t42 62.5t64 42.5t79 15.5t79 -15.5t63.5 -42.5t42 -62.5t15.5 -74.5t-15.5 -74.5zM825.5 87.5q-15.5 -35.5 -42 -62t-63.5 -42.5t-79 -16t-79 16t-64 42.5t-42 62t-15 74.5t15 74.5t42 62.5t64 42.5t79 15.5t79 -15.5t63.5 -42.5t42 -62.5
t15.5 -74.5t-15.5 -74.5zM291.5 533.5q-7.5 17.5 -20 30t-28.5 19.5t-34 7t-33.5 -7t-28 -19.5t-20 -30t-7.5 -38.5t7.5 -38.5t20 -30t28 -19.5t33.5 -7t34 7t28.5 19.5t20 30t7.5 38.5t-7.5 38.5zM1107.5 200.5q-7.5 17.5 -20.5 30t-28.5 19.5t-33.5 7t-34 -7t-28.5 -19.5
t-20 -30t-7.5 -38.5t7.5 -38t20 -29.5t28.5 -19.5t34 -7t33.5 7t28.5 19.5t20.5 29.5t7.5 38t-7.5 38.5zM722.5 200.5q-7.5 17.5 -20 30t-28 19.5t-33.5 7t-34 -7t-28.5 -19.5t-20 -30t-7.5 -38.5t7.5 -38t20 -29.5t28.5 -19.5t34 -7t33.5 7t28 19.5t20 29.5t7.5 38
t-7.5 38.5z" />
    <glyph glyph-name="guilsinglleft" unicode="&#x2039;" horiz-adv-x="321" 
d="M6 226l285 239v-140l-122 -99l122 -99v-138z" />
    <glyph glyph-name="guilsinglright" unicode="&#x203a;" horiz-adv-x="321" 
d="M29 -11v138l123 99l-123 99v140l287 -239z" />
    <glyph glyph-name="uni2215" unicode="&#x2215;" horiz-adv-x="333" 
d="M154 90h-145l156 260h152z" />
    <glyph glyph-name="infinity" unicode="&#x221e;" horiz-adv-x="550" 
d="M472 -44l-197 196l-197 -197l-74 74l197 197l-197 197l74 74l197 -197l197 197l74 -74l-197 -197l197 -197z" />
  </font>
</defs>
</svg>
