<?xml version="1.0" standalone="no"?>
<!DOCTYPE svg PUBLIC "-//W3C//DTD SVG 1.1//EN" "http://www.w3.org/Graphics/SVG/1.1/DTD/svg11.dtd" >
<svg xmlns="http://www.w3.org/2000/svg" xmlns:xlink="http://www.w3.org/1999/xlink" version="1.1">
<metadata>
Created by FontForge 20170731 at Tue Dec  8 03:00:56 2015
 By Aleksey,,,
Attribution-ShareAlike 4.0 International
</metadata>
<defs>
<font id="ScalySans" horiz-adv-x="587" >
  <font-face 
    font-family="Scaly Sans"
    font-weight="400"
    font-stretch="normal"
    units-per-em="1000"
    panose-1="2 0 5 3 6 0 0 2 0 3"
    ascent="800"
    descent="-200"
    x-height="453"
    cap-height="660"
    bbox="-16 -256 883 868"
    underline-thickness="37"
    underline-position="-201"
    unicode-range="U+001D-203A"
  />
<missing-glyph horiz-adv-x="250" 
 />
    <glyph glyph-name=".notdef" horiz-adv-x="250" 
 />
    <glyph glyph-name=".null" horiz-adv-x="0" 
 />
    <glyph glyph-name=".null" horiz-adv-x="0" 
 />
    <glyph glyph-name="nonmarkingreturn" horiz-adv-x="250" 
 />
    <glyph glyph-name="space" unicode=" " horiz-adv-x="250" 
 />
    <glyph glyph-name="space" unicode="&#xa0;" horiz-adv-x="250" 
 />
    <glyph glyph-name="exclam" unicode="!" horiz-adv-x="282" 
d="M198 44q0 -23 -17 -40t-40 -17t-40 17t-17 40t17 40t40 17t40 -17t17 -40zM179 195h-76l-6 541h88z" />
    <glyph glyph-name="numbersign" unicode="#" horiz-adv-x="626" 
d="M257 401l-26 -130h143l26 130h-143zM574 401h-112l-25 -130h114l-10 -57h-116l-41 -214h-62l41 214h-143l-43 -214h-61l43 214h-115l10 57h116l27 130h-116l10 57h116l40 200h60l-39 -200h143l39 200h62l-39 -200h111z" />
    <glyph glyph-name="dollar" unicode="$" horiz-adv-x="536" 
d="M404 162q0 35 -9 49q-7 10 -61 54q-16 13 -25 13v-215q44 8 69.5 35t25.5 64zM264 597q-101 -18 -101 -95q0 -45 41 -72q36 -25 37 -26q7 -6 15 -11t8 -3v207zM453 548q-11 7 -19.5 11.5t-16 8.5t-15.5 7t-18 7q-12 4 -20.5 7t-16.5 4.5t-17 2.5t-21 2v-230q7 -5 12 -8
t9 -5q40 -23 65.5 -39t37.5 -26q24 -19 38 -50.5t14 -67.5q0 -41 -15.5 -76.5t-44.5 -59.5q-12 -10 -23 -17.5t-24 -12.5t-29.5 -9t-39.5 -7v-59h-44l-1 56q-44 2 -68.5 6.5t-49.5 15.5q-19 7 -36 17t-49 32l42 65q14 -9 24.5 -16t19 -12t16 -8.5t15.5 -7.5q21 -9 38 -12.5
t48 -5.5v240l-41 24q-39 23 -66 43t-43.5 40t-24 41t-7.5 47q0 72 47 117t135 56l1 60h44v-59q18 -1 31.5 -2t24.5 -2.5t22 -4t24 -6.5q20 -7 36 -15t44 -24z" />
    <glyph glyph-name="percent" unicode="%" horiz-adv-x="900" 
d="M349 495q0 24 -9 44.5t-24.5 36.5t-36.5 25t-45 9t-44.5 -9t-36 -25t-24.5 -36.5t-9 -44.5t9 -45t24.5 -36.5t36 -24.5t44.5 -9t45 9t36.5 24.5t24.5 36.5t9 45zM780 162q0 24 -9 45t-24.5 36.5t-36 24.5t-44.5 9t-45 -9t-36.5 -24.5t-24.5 -36.5t-9 -45t9 -44.5
t24.5 -36t36.5 -24.5t45 -9t44.5 9t36 24.5t24.5 36t9 44.5zM409 495q0 -36 -13.5 -68t-37.5 -56t-56 -37.5t-68 -13.5t-68 13.5t-55.5 37.5t-37.5 56t-14 68t14 68t37.5 56t55.5 38t68 14t68 -14t56 -38t37.5 -56t13.5 -68zM197 -44h-69l572 736h69zM841 162q0 -36 -14 -68
t-37.5 -55.5t-55.5 -37.5t-68 -14t-68 14t-56 37.5t-37.5 55.5t-13.5 68t13.5 68t37.5 56t56 37.5t68 13.5t68 -13.5t55.5 -37.5t37.5 -56t14 -68z" />
    <glyph glyph-name="ampersand" unicode="&#x26;" horiz-adv-x="759" 
d="M262 342l-42 -34q-44 -35 -62 -64.5t-18 -67.5q0 -55 36.5 -87.5t98.5 -32.5q40 0 73 14q15 7 29.5 16.5t43.5 33.5zM749 101q-9 -14 -16 -24t-13 -17.5t-12 -14t-13 -13.5q-44 -44 -100 -44q-14 0 -27.5 2.5t-25.5 7.5q-20 8 -37.5 22.5t-47.5 46.5q-46 -43 -91.5 -61.5
t-105.5 -18.5q-46 0 -83 13t-63.5 36.5t-41 56.5t-14.5 74q0 26 6.5 48.5t21 45t38 46.5t58.5 53l43 35q-11 14 -20 26t-17 23q-30 40 -41.5 68.5t-11.5 61.5q0 37 14 67.5t39.5 52.5t61.5 34t80 12q40 0 73 -10.5t57 -29t37 -45t13 -57.5q0 -33 -23 -68.5t-66 -67.5
l-46 -34l-39 50l40 30q29 23 42 42.5t13 45.5q0 35 -28.5 57.5t-73.5 22.5q-49 0 -81.5 -27.5t-32.5 -69.5q0 -13 5 -30q3 -12 6.5 -21t10 -20.5t17 -27t28.5 -39.5l192 -266q12 12 20 22t14 19t10.5 18t9.5 20q4 11 7.5 21.5t5.5 22t4 26.5t4 35h69q-2 -23 -4 -39.5
t-4.5 -30t-6 -25t-8.5 -23.5q-6 -15 -13 -28t-16.5 -26.5t-22.5 -28.5t-31 -35q30 -38 50 -52t43 -14q24 0 44.5 16.5t50.5 60.5z" />
    <glyph glyph-name="quotesingle" unicode="'" horiz-adv-x="220" 
d="M77 434v226h69v-226h-69z" />
    <glyph glyph-name="parenleft" unicode="(" horiz-adv-x="318" 
d="M235 -245q-13 16 -22 28t-17 26.5t-16.5 33t-20.5 48.5q-35 82 -51.5 160t-16.5 162q0 83 16.5 159.5t51.5 161.5q14 33 23 53.5t16.5 33.5t15.5 23t21 22h75q-30 -35 -55 -86.5t-43 -112t-28 -127t-10 -130.5q0 -65 10 -131t28 -126.5t43 -111.5t55 -86h-75z" />
    <glyph glyph-name="parenright" unicode=")" horiz-adv-x="324" 
d="M232 213q0 -83 -16 -158.5t-52 -163.5q-11 -27 -19.5 -45.5t-16.5 -33t-17.5 -27.5t-22.5 -30h-75q30 35 55 86t43 111.5t28 126.5t10 131q0 64 -10 130.5t-28 127t-43 112t-55 86.5h75q12 -12 20.5 -22t16 -23t16.5 -33.5t23 -53.5q35 -85 51.5 -161.5t16.5 -159.5z" />
    <glyph glyph-name="asterisk" unicode="*" horiz-adv-x="523" 
d="M151 232l-58 42l104 132l48 -34zM190 425l-162 46l22 68l159 -58zM356 232l-94 140l47 35l104 -133zM283 491h-58l-6 169h71zM315 425l-19 56l159 58l22 -68z" />
    <glyph glyph-name="plus" unicode="+" horiz-adv-x="549" 
d="M291 208v-208h-56v208h-209v57h209v209h56v-209h209v-57h-209z" />
    <glyph glyph-name="comma" unicode="," horiz-adv-x="212" 
d="M157 36q0 -23 -8 -53q-3 -11 -7 -22t-9.5 -23t-12.5 -26t-17 -33l-13 -24h-44q7 16 11 26.5t11 30.5q3 10 5.5 17.5t4 14t3.5 13.5t4 17l-43 108q16 11 28.5 14.5t29.5 3.5q57 0 57 -64z" />
    <glyph glyph-name="hyphen" unicode="-" horiz-adv-x="300" 
d="M50 190v76h191v-76h-191z" />
    <glyph glyph-name="hyphen" unicode="&#xad;" horiz-adv-x="300" 
d="M50 190v76h191v-76h-191z" />
    <glyph glyph-name="period" unicode="." horiz-adv-x="198" 
d="M144 45q0 -24 -16.5 -40.5t-39.5 -16.5q-24 0 -40.5 16.5t-16.5 40.5q0 23 16.5 39.5t40.5 16.5q23 0 39.5 -16.5t16.5 -39.5z" />
    <glyph glyph-name="slash" unicode="/" horiz-adv-x="347" 
d="M59 -245h-69l252 905h69z" />
    <glyph glyph-name="zero" unicode="0" 
d="M479 321q0 54 -13.5 100t-37 81t-55 55.5t-67.5 20.5t-67.5 -20.5t-55.5 -55.5t-37.5 -81t-13.5 -100q0 -53 13.5 -100t37.5 -82t55.5 -55t67.5 -20t67.5 20t55 55t37 82t13.5 100zM554 321q0 -70 -19.5 -132t-53 -107.5t-79 -72.5t-96.5 -27q-52 0 -97.5 27t-79 72.5
t-53 107.5t-19.5 132t19.5 132.5t53 108t79 72.5t97.5 27q51 0 96.5 -27t79 -72.5t53 -108t19.5 -132.5z" />
    <glyph glyph-name="one" unicode="1" 
d="M300 -1v600h-172v63h251v-662z" />
    <glyph glyph-name="two" unicode="2" 
d="M86 0v68l235 255q50 57 64 133q4 56 -18.5 97.5t-76.5 46.5q-39 -6 -50 -14.5t-30 -29.5q-9 -10 -14.5 -16t-13.5 -15t-18.5 -22t-30.5 -37l-43 41q19 25 29 40.5t18 25t14 16.5t21 22q16 21 48.5 35.5t67.5 14.5q73 0 115.5 -54t42.5 -145q-2 -49 -12 -79
q-6 -20 -13 -33.5t-17 -30t-25 -37t-37 -44.5l-157 -168h303v-70h-402z" />
    <glyph glyph-name="three" unicode="3" 
d="M454 220q0 -55 -22 -99t-62 -75.5t-97.5 -48.5t-127.5 -17h-25v64q34 1 59.5 3t46 6.5t37.5 11t34 16.5q39 22 61 56.5t22 75.5q0 58 -36.5 89t-104.5 31h-50v55q77 17 118 53.5t41 89.5q0 36 -20 57.5t-54 21.5q-13 0 -24.5 -2.5t-24 -9t-27.5 -17t-34 -26.5l-44 50
q11 10 20.5 17.5t17.5 12.5q28 19 62.5 30t67.5 11q61 0 97 -37t36 -100q0 -104 -100 -154q22 -7 32.5 -11t21.5 -10q38 -21 58.5 -58t20.5 -86z" />
    <glyph glyph-name="four" unicode="4" 
d="M351 498l-171 -229l-12 -16h18h179l-1 244l2 31zM437 190v-210h-72v210h-315v19l352 465h35v-421h116v-63h-116z" />
    <glyph glyph-name="five" unicode="5" 
d="M452 225q0 -60 -26.5 -109.5t-74.5 -80.5q-40 -26 -95 -37q-13 -3 -24 -4.5t-23.5 -3t-28.5 -2.5t-38 -2v63q25 1 42 2.5t30 3.5t24.5 5t25.5 7q53 17 81.5 56.5t28.5 96.5q0 77 -44 119q-19 17 -46.5 25t-73.5 10l-49 2v302h271v-63h-199v-176l39 -3q84 -7 132 -62.5
t48 -148.5z" />
    <glyph glyph-name="six" unicode="6" 
d="M438 202q0 28 -9 51.5t-24.5 40.5t-37.5 26.5t-48 9.5q-11 0 -27 -2.5t-32 -6.5q-13 -3 -23.5 -6.5t-21.5 -8t-23 -10t-28 -13.5q-1 -16 -1 -24v-16q0 -44 10 -80.5t29 -62.5t44.5 -40t57.5 -14q28 0 52.5 12t42.5 33t28.5 49.5t10.5 61.5zM504 210q0 -50 -15 -92.5
t-42 -73t-64 -48t-81 -17.5q-49 0 -88.5 20t-67 57t-42 90t-14.5 120q0 178 96 300q43 54 96.5 79t126.5 25q15 0 28 -1t37 -3v-62q-19 2 -29 2.5t-24 0.5q-23 0 -44.5 -2.5t-36.5 -7.5q-54 -18 -100 -74q-16 -20 -27.5 -37t-20 -37t-15 -44.5t-13.5 -58.5q27 13 37 17.5
t20 8.5q30 12 58.5 17.5t54.5 5.5q38 0 69 -13.5t53.5 -38t35 -58.5t12.5 -75z" />
    <glyph glyph-name="seven" unicode="7" 
d="M339 265q-10 -24 -22.5 -51t-29.5 -57q-14 -26 -25.5 -45t-23.5 -36.5t-26.5 -36.5t-35.5 -44l-58 49q14 16 24 28t16 20q35 45 67 101.5t52 109.5l114 296h-297v69h390v-38z" />
    <glyph glyph-name="eight" unicode="8" 
d="M419 156q0 27 -15 51.5t-50 56.5l-63 57l-63 -51q-65 -52 -65 -114q0 -51 32 -78t92 -27q62 0 97 28t35 77zM393 540q0 36 -28 57.5t-76 21.5q-45 0 -73 -24.5t-28 -62.5q0 -43 49 -85l54 -45l55 45q22 18 34.5 43t12.5 50zM499 149q0 -36 -15.5 -66t-44 -52t-68 -34
t-87.5 -12q-45 0 -81.5 12t-63 33.5t-41 51.5t-14.5 66q0 40 16 72q10 19 31 44t39 39l71 55l-65 55q-19 16 -32 29.5t-20.5 26.5t-10.5 26t-3 30q0 34 13.5 62t38.5 48.5t59 31.5t76 11q39 0 71.5 -10t55.5 -28t36 -43.5t13 -56.5q0 -68 -63 -119l-69 -56l82 -70
q17 -13 34 -35q25 -29 33.5 -52.5t8.5 -58.5z" />
    <glyph glyph-name="nine" unicode="9" 
d="M436 412q0 45 -10 81.5t-28.5 62.5t-44.5 40t-58 14q-28 0 -52.5 -12t-42.5 -33t-28 -50t-10 -62q0 -56 33 -92t86 -36q11 0 26.5 2t32.5 7q25 6 44.5 14t50.5 24q1 16 1 24v16zM509 389q0 -88 -24 -163.5t-71 -135.5q-43 -54 -97 -79.5t-127 -25.5q-15 0 -27.5 1
t-36.5 3v63q18 -2 28 -3t24 -1q49 0 82 11q26 8 51.5 27t48.5 46q16 19 27.5 36.5t20 37.5t15 45t12.5 59q-26 -13 -36.5 -17.5t-20.5 -8.5q-59 -24 -113 -24q-38 0 -69 13.5t-53.5 38t-35 58.5t-12.5 75q0 50 15 92.5t42 73.5t64 48.5t81 17.5q100 0 156 -76.5t56 -211.5z
" />
    <glyph glyph-name="colon" unicode=":" horiz-adv-x="254" 
d="M180 45q0 -24 -16.5 -40.5t-39.5 -16.5q-24 0 -40.5 16.5t-16.5 40.5q0 23 16.5 39.5t40.5 16.5q23 0 39.5 -16.5t16.5 -39.5zM180 409q0 -24 -16.5 -40.5t-39.5 -16.5q-24 0 -40.5 16.5t-16.5 40.5q0 23 16.5 39.5t40.5 16.5q23 0 39.5 -16.5t16.5 -39.5z" />
    <glyph glyph-name="semicolon" unicode=";" horiz-adv-x="263" 
d="M182 36q0 -23 -8 -53q-6 -23 -15 -45t-31 -59l-14 -24h-44q8 16 11.5 26.5t10.5 30.5q4 10 6.5 17.5t4 14t3.5 13.5t4 17l-43 108q16 11 28 14.5t30 3.5q57 0 57 -64zM189 409q0 -24 -16.5 -40.5t-40.5 -16.5q-23 0 -39.5 16.5t-16.5 40.5q0 23 16.5 39.5t39.5 16.5
q24 0 40.5 -16.5t16.5 -39.5z" />
    <glyph glyph-name="semicolon" unicode="&#x37e;" horiz-adv-x="263" 
d="M182 36q0 -23 -8 -53q-6 -23 -15 -45t-31 -59l-14 -24h-44q8 16 11.5 26.5t10.5 30.5q4 10 6.5 17.5t4 14t3.5 13.5t4 17l-43 108q16 11 28 14.5t30 3.5q57 0 57 -64zM189 409q0 -24 -16.5 -40.5t-40.5 -16.5q-23 0 -39.5 16.5t-16.5 40.5q0 23 16.5 39.5t39.5 16.5
q24 0 40.5 -16.5t16.5 -39.5z" />
    <glyph glyph-name="less" unicode="&#x3c;" horiz-adv-x="568" 
d="M34 210v54l472 210v-63l-396 -174l396 -174v-63z" />
    <glyph glyph-name="equal" unicode="=" horiz-adv-x="632" 
d="M63 134v57h500v-57h-500zM63 273v57h500v-57h-500z" />
    <glyph glyph-name="greater" unicode="&#x3e;" horiz-adv-x="585" 
d="M65 0v63l396 174l-396 174v63l472 -210v-54z" />
    <glyph glyph-name="question" unicode="?" horiz-adv-x="416" 
d="M186 45q0 -24 -16.5 -40.5t-39.5 -16.5q-24 0 -40.5 16.5t-16.5 40.5q0 23 16.5 39.5t40.5 16.5q23 0 39.5 -16.5t16.5 -39.5zM348 446q0 -39 -9.5 -66t-32.5 -50q-11 -11 -19.5 -17.5t-18 -10t-21.5 -5t-29 -1.5h-51v-107h-75v176h151q16 23 21.5 39t5.5 40
q0 43 -14.5 80.5t-41 66t-64 47t-83.5 24.5l25 76q22 -5 38 -8.5t28.5 -8t23.5 -9.5t23 -12q33 -19 59 -46.5t45 -60.5t29 -70.5t10 -76.5z" />
    <glyph glyph-name="at" unicode="@" horiz-adv-x="964" 
d="M577 398q-25 8 -43 12t-35 4q-32 0 -60 -21.5t-49 -58.5t-33 -86.5t-12 -105.5q0 -62 31 -62q10 0 28.5 13.5t42.5 38.5q10 10 21 24.5t24 32.5q30 45 47.5 80t25.5 74zM883 265q0 -63 -17.5 -114t-50 -86.5t-78.5 -54.5t-104 -19q-104 0 -104 95q0 10 1.5 24.5t5.5 31.5
l5 23q-23 -39 -48.5 -70t-53 -52.5t-55 -33.5t-52.5 -12q-30 0 -48 40t-18 108q0 70 18 131t50 106t74.5 70.5t92.5 25.5q13 0 28 -1.5t32 -3.5q12 -2 21.5 -4t20 -4.5t22 -6t27.5 -8.5l-52 -326q-2 -14 -3 -24.5t-1 -17.5q0 -18 15.5 -30t38.5 -12q10 0 23.5 3.5t26.5 8.5
q119 53 119 207q0 66 -25 123.5t-68 100t-101 67t-124 24.5q-77 0 -142.5 -26.5t-113 -73.5t-74 -112t-26.5 -142q0 -82 29 -143t91 -109q47 -37 95 -52.5t114 -15.5q23 0 42 1.5t37 5.5t36 10.5t39 15.5l23 -59q-23 -11 -33 -15q-62 -24 -146 -24q-42 0 -77 4.5t-66 15
t-59.5 27t-56.5 39.5q-71 57 -103.5 129t-32.5 168q0 93 31 170t87 133t133 87t170 31q85 0 155.5 -27.5t121.5 -77t79.5 -118.5t28.5 -151z" />
    <glyph glyph-name="A" unicode="A" horiz-adv-x="613" 
d="M299 572l-108 -302h215zM500 0l-68 195h-267l-68 -195h-88l246 679h88l245 -679h-88z" />
    <glyph glyph-name="B" unicode="B" horiz-adv-x="577" 
d="M418 182q0 58 -36.5 89t-104.5 31h-113v-233h113q45 0 67 5.5t39 19.5q16 14 25.5 38t9.5 50zM393 491q0 49 -27 76q-13 14 -32 19t-57 5h-113v-214h107q18 0 31 1.5t23.5 5t19 9t16.5 13.5q32 32 32 85zM505 176q0 -39 -13 -71.5t-36.5 -56t-56.5 -36t-73 -12.5h-244
v660h214q48 0 77.5 -9t54.5 -32q24 -23 38 -54.5t14 -66.5q0 -54 -30 -94t-83 -58q66 -13 102 -57t36 -113z" />
    <glyph glyph-name="C" unicode="C" horiz-adv-x="594" 
d="M536 547q-38 26 -76 38t-86 12q-53 0 -97 -19t-75.5 -53.5t-49.5 -82t-18 -104.5q0 -62 18 -113t51.5 -87t81 -55.5t105.5 -19.5q42 0 77 7t75 24l23 -64q-15 -7 -26 -11.5t-21 -8t-20 -6.5t-22 -6q-25 -6 -46.5 -8.5t-44.5 -2.5q-75 0 -137.5 25.5t-107.5 71.5
t-70 109.5t-25 139.5q0 72 25.5 134t70 107.5t105 71.5t131.5 26q63 0 124 -22q22 -8 36.5 -16t39.5 -25z" />
    <glyph glyph-name="D" unicode="D" horiz-adv-x="698" 
d="M548 334q0 55 -19.5 102t-54 81.5t-82 54t-103.5 19.5h-125v-522h125q65 0 105.5 14t72.5 46q18 19 33 43.5t25.5 51.5t16.5 55t6 55zM634 333q0 -65 -23 -126.5t-66 -110.5q-45 -52 -101.5 -74t-142.5 -22h-219v660h220q72 0 133 -24.5t105.5 -68t69 -103.5t24.5 -131z
" />
    <glyph glyph-name="E" unicode="E" horiz-adv-x="511" 
d="M82 0v660h371v-69h-289v-220h239v-69h-239v-233h298v-69h-380z" />
    <glyph glyph-name="F" unicode="F" horiz-adv-x="485" 
d="M164 591v-226h239v-70h-239v-295h-82v660h371v-69h-289z" />
    <glyph glyph-name="G" unicode="G" horiz-adv-x="680" 
d="M611 25q-16 -6 -28 -10t-20 -6q-34 -11 -79 -16.5t-87 -5.5q-75 0 -139 26.5t-111.5 72.5t-74.5 109t-27 136t26.5 135.5t73 108t110.5 71t139 25.5q35 0 73 -4t64 -11q22 -6 37.5 -13t42.5 -22l-31 -68q-12 7 -20.5 11t-14.5 7q-29 12 -66 19t-77 7q-70 0 -118 -19.5
t-86 -64.5q-31 -36 -48 -81.5t-17 -94.5q0 -60 21.5 -110.5t60 -87t91 -57.5t114.5 -21q25 0 47 3t62 11v220h82v-270z" />
    <glyph glyph-name="H" unicode="H" horiz-adv-x="729" 
d="M553 0v302h-389v-302h-82v660h82v-283h389v283h82v-660h-82z" />
    <glyph glyph-name="I" unicode="I" horiz-adv-x="258" 
d="M82 0v660h82v-660h-82z" />
    <glyph glyph-name="J" unicode="J" horiz-adv-x="264" 
d="M169 -19q-6 -21 -11 -36.5t-10.5 -28.5t-12.5 -25.5t-17 -27.5q-9 -14 -17 -25.5t-17 -22t-20 -22t-27 -26.5l-53 45q17 19 28.5 32.5t20 24t14 19.5t10.5 19q14 29 22 67t8 83v603h82v-679z" />
    <glyph glyph-name="K" unicode="K" horiz-adv-x="552" 
d="M82 0v660h82v-660h-82zM434 0l-264 333l258 327h94l-258 -321l271 -339h-101z" />
    <glyph glyph-name="L" unicode="L" horiz-adv-x="484" 
d="M82 0v660h82v-591h295v-69h-377z" />
    <glyph glyph-name="M" unicode="M" horiz-adv-x="836" 
d="M660 0v578q-3 -13 -5 -22t-5 -17.5t-6.5 -18.5t-8.5 -23l-195 -497h-75l-182 484q-5 14 -8.5 23.5t-6.5 19t-5.5 20t-5.5 25.5v-572h-75v660h113l201 -528q8 -20 9.5 -28t3.5 -22q3 20 5 28t7 22l208 528h113v-660h-82z" />
    <glyph glyph-name="N" unicode="N" horiz-adv-x="717" 
d="M528 -6l-333 515q-2 4 -5.5 9.5t-7.5 13.5q-3 5 -5 8.5t-3 6.5q-3 5 -5 10t-5 15v-572h-82v660h107l327 -503q2 -3 4.5 -7t4.5 -9l4.5 -12t7.5 -18q1 -2 1.5 -4.5t2.5 -5.5v559h82v-666h-95z" />
    <glyph glyph-name="O" unicode="O" horiz-adv-x="772" 
d="M618 330q0 55 -19 104.5t-52 86t-77 58t-93 21.5q-50 0 -94 -21.5t-77 -58t-52 -86t-19 -104.5q0 -56 19 -105.5t52 -86t77 -58t94 -21.5q49 0 93 21.5t77 58t52 86t19 105.5zM708 330q0 -75 -24.5 -137.5t-69 -108.5t-105 -71.5t-132.5 -25.5t-133 25.5t-105 71.5
t-69 108.5t-25 137.5q0 74 25 137t69 108.5t105 71t133 25.5t132.5 -25.5t105 -71t69 -108.5t24.5 -137z" />
    <glyph glyph-name="P" unicode="P" horiz-adv-x="559" 
d="M416 460q0 66 -37 103q-15 15 -38.5 21.5t-63.5 6.5h-113v-272q34 -4 52.5 -5t35.5 -1q54 0 86 13q36 15 57 51t21 83zM501 465q0 -52 -16.5 -93t-47 -70t-74 -44.5t-97.5 -15.5q-10 0 -19 0.5t-20 1.5t-26 2.5t-37 3.5v-250h-82v660h207q60 0 96.5 -11.5t64.5 -40.5
q26 -26 38.5 -61t12.5 -82z" />
    <glyph glyph-name="Q" unicode="Q" horiz-adv-x="772" 
d="M619 330q0 55 -19 104.5t-52 86t-77 58t-94 21.5t-94 -21.5t-77 -58t-52.5 -86t-19.5 -104.5q0 -56 19 -105.5t52 -86t77.5 -58t94.5 -21.5t94 21.5t77 58t52 86t19 105.5zM708 329q0 -65 -19.5 -122t-55.5 -101.5t-87 -75t-114 -42.5q10 -13 16 -19.5t17 -18.5
q28 -29 54 -48q13 -10 24.5 -18t24.5 -15t29 -14.5t39 -17.5l-46 -63q-24 13 -42 23t-32.5 19t-28 18.5t-28.5 21.5q-17 13 -30.5 25.5t-26.5 26t-25.5 28.5t-28.5 34l-14 17q-15 3 -26 4.5t-19 3.5t-15 4t-16 5q-47 16 -86 48t-67.5 75.5t-44 95t-15.5 107.5q0 74 24.5 137
t69 108.5t105.5 71t133 25.5t132.5 -25.5t105 -71.5t69 -108.5t24.5 -137.5z" />
    <glyph glyph-name="R" unicode="R" horiz-adv-x="577" 
d="M403 481q0 62 -36 91q-8 6 -15.5 9.5t-18 6t-25.5 3t-37 0.5h-107v-239h107q132 0 132 129zM434 0l-182 283h-88v-283h-82v660h201q30 0 53 -2.5t41 -8t33 -15t29 -23.5q24 -23 38 -57t14 -72q0 -39 -15 -75t-43 -62q-20 -20 -41.5 -31t-58.5 -19l195 -295h-94z" />
    <glyph glyph-name="S" unicode="S" horiz-adv-x="506" 
d="M434 548q-26 15 -39.5 22t-29.5 12q-19 6 -45 10t-46 4q-57 0 -91.5 -25.5t-34.5 -67.5q0 -18 6.5 -33t24.5 -31t50 -35t82 -46q70 -37 104 -67q24 -20 37.5 -52t13.5 -68q0 -85 -58.5 -134.5t-158.5 -49.5q-67 0 -122 22q-19 7 -36 17t-49 32l42 65q28 -19 43.5 -27.5
t32.5 -15.5q45 -17 95 -17q59 0 92 26t33 74q0 30 -10 47q-17 32 -56 54q-8 5 -35.5 19t-74.5 40q-75 40 -108 81t-33 92q0 39 15.5 71.5t44 55.5t69 35.5t89.5 12.5q29 0 57 -4t54 -12q20 -7 36 -15t44 -24z" />
    <glyph glyph-name="T" unicode="T" horiz-adv-x="509" 
d="M324 591v-591h-82v591h-220v69h522v-69h-220z" />
    <glyph glyph-name="U" unicode="U" horiz-adv-x="658" 
d="M590 226q0 -66 -17.5 -108t-58.5 -76q-75 -61 -181 -61q-107 0 -182 61q-42 34 -59.5 76.5t-17.5 107.5v434h82v-409q0 -31 1.5 -51.5t5.5 -36t11.5 -27.5t19.5 -25q51 -57 138 -57t138 57q12 13 19.5 25t11.5 27.5t5.5 36t1.5 51.5v409h82v-434z" />
    <glyph glyph-name="V" unicode="V" horiz-adv-x="610" 
d="M334 -17h-50l-260 677h88l195 -515q2 -7 4 -14.5t3 -17.5q0 9 1.5 16.5t4.5 15.5l188 515h82z" />
    <glyph glyph-name="W" unicode="W" horiz-adv-x="892" 
d="M622 -13h-51l-119 312l-120 -312h-44l-264 673h88l202 -545l104 271l-104 274h75l66 -173l67 173h68l-101 -262l108 -282l194 544h81z" />
    <glyph glyph-name="X" unicode="X" horiz-adv-x="599" 
d="M480 0l-182 269l-184 -269h-95l231 337l-220 323h94l175 -254l173 254h93l-221 -324l230 -336h-94z" />
    <glyph glyph-name="Y" unicode="Y" horiz-adv-x="518" 
d="M311 308v-308h-82v302l-220 358h88l177 -283l182 283h87z" />
    <glyph glyph-name="Z" unicode="Z" horiz-adv-x="583" 
d="M44 0v38l382 553h-382v69h494v-44l-382 -547h400v-69h-512z" />
    <glyph glyph-name="bracketleft" unicode="[" horiz-adv-x="250" 
d="M73 -245v905h164v-56h-88v-793h88v-56h-164z" />
    <glyph glyph-name="backslash" unicode="\" horiz-adv-x="409" 
d="M295 -245l-252 905h69l252 -905h-69z" />
    <glyph glyph-name="bracketright" unicode="]" horiz-adv-x="250" 
d="M13 -245v56h88v793h-88v56h164v-905h-164z" />
    <glyph glyph-name="asciicircum" unicode="^" horiz-adv-x="522" 
d="M435 1l-174 395l-174 -395h-63l210 472h54l210 -472h-63z" />
    <glyph glyph-name="underscore" unicode="_" horiz-adv-x="500" 
d="M0 -57v57h500v-57h-500z" />
    <glyph glyph-name="a" unicode="a" horiz-adv-x="437" 
d="M310 207l-170 -44q-8 -16 -10.5 -25.5t-2.5 -23.5q0 -27 16.5 -43t44.5 -16q13 0 24.5 2.5t25 9t31 17.5t41.5 29v94zM405 -13q-47 3 -66 17t-22 46q-17 -15 -27 -22.5t-21 -13.5q-21 -12 -46.5 -19t-49.5 -7q-55 0 -88 32.5t-33 86.5q0 50 25.5 82t75.5 44l157 37v82
q0 56 -86 56q-69 0 -69 -39q0 -6 4 -17l-76 -16q-5 9 -6.5 14.5t-1.5 13.5q0 45 45 73t118 28q69 0 108.5 -30t39.5 -83v-245v-33q3 -18 37 -24z" />
    <glyph glyph-name="b" unicode="b" horiz-adv-x="539" 
d="M404 244q0 71 -35 110.5t-98 39.5q-32 0 -58 -8.5t-54 -27.5v-289q16 -8 31 -11t35 -3q22 0 39 4q20 4 38 12.5t34 19.5q38 27 53 61.5t15 91.5zM486 247q0 -59 -19 -107t-53.5 -82t-83.5 -52.5t-109 -18.5q-20 0 -46.5 3t-44.5 7q-12 3 -21 5.5t-25 10.5v716h75v-295
q18 9 28 13t24 8q17 5 40.5 7.5t44.5 2.5q43 0 78 -15.5t60 -44t38.5 -69t13.5 -89.5z" />
    <glyph glyph-name="c" unicode="c" horiz-adv-x="482" 
d="M433 35l-17.5 -10.5t-12.5 -6.5q-57 -31 -126 -31q-52 0 -94.5 17t-73 48t-47.5 74t-17 95q0 54 17.5 98.5t49 77t75 50.5t95.5 18q34 0 67 -9q22 -6 37 -13.5t38 -23.5l-43 -61q-26 22 -48.5 30.5t-53.5 8.5q-69 0 -110.5 -47.5t-41.5 -124.5q0 -78 42.5 -123.5
t115.5 -45.5q33 0 57 8.5t52 29.5z" />
    <glyph glyph-name="d" unicode="d" horiz-adv-x="532" 
d="M384 295q0 26 -1.5 37.5t-7.5 22.5q-20 38 -91 38q-72 0 -115 -48t-43 -130q0 -34 9 -63t25 -50t38.5 -32.5t48.5 -11.5q20 0 43.5 8t44.5 23q13 9 23 19t26 30v157zM384 0v57q-30 -34 -68.5 -52t-81.5 -18q-42 0 -76.5 16.5t-59.5 46.5t-39 72t-14 92q0 55 17 101
t48 79.5t73.5 52t92.5 18.5q36 0 61 -7t47 -24v295h76v-729h-76z" />
    <glyph glyph-name="e" unicode="e" horiz-adv-x="487" 
d="M352 289q-1 53 -26 80.5t-72 27.5q-48 0 -79.5 -27.5t-44.5 -80.5h222zM124 233q0 -83 39.5 -130t108.5 -47q30 0 55.5 9.5t62.5 35.5l30 -59q-25 -16 -45.5 -26.5t-39.5 -17t-38 -9t-41 -2.5q-47 0 -86 17t-67 48.5t-43 75.5t-15 98t15.5 98t43.5 75.5t67.5 48.5
t87.5 17q40 0 72 -13.5t55 -38t35.5 -59.5t12.5 -77v-44h-310z" />
    <glyph glyph-name="f" unicode="f" horiz-adv-x="310" 
d="M371 654q-24 8 -40.5 11.5t-33.5 3.5q-115 0 -115 -160v-56h107v-63h-107v-390h-75v390h-76v44l76 19v75q0 48 13.5 87t39 66.5t61.5 42.5t81 15q29 0 51.5 -5t48.5 -17z" />
    <glyph glyph-name="g" unicode="g" horiz-adv-x="515" 
d="M400 -71q0 46 -59 46h-169l-15 -23q-22 -34 -30 -50.5t-8 -29.5q0 -26 30 -42t76 -16q34 0 66 9.5t56 25t38.5 36.5t14.5 44zM330 295q0 24 -8 44.5t-21.5 35.5t-32.5 24t-40 9t-39 -9t-31.5 -24.5t-21.5 -36t-8 -43.5t8 -43.5t21.5 -36t32 -24.5t39.5 -9t39.5 8.5t32 24
t21.5 36t8 44.5zM385 390q27 -41 27 -94q0 -35 -14 -66t-38 -54t-56 -37t-68 -14q-5 0 -11.5 0.5t-16.5 1.5q-2 0 -6 0.5t-9 0.5q-32 -26 -45.5 -42t-13.5 -26q0 -9 8.5 -12.5t29.5 -3.5h169q63 0 92.5 -25.5t29.5 -80.5q0 -40 -19 -74.5t-52.5 -60.5t-78 -41t-95.5 -15
q-36 0 -68 8.5t-56 23.5t-38.5 35t-14.5 42q0 19 14 47q10 19 22 35t38 43q-35 10 -50 22t-15 32q0 22 21.5 48.5t67.5 64.5q-87 47 -87 144q0 38 13.5 70t37.5 55t57 35.5t73 12.5q12 0 22.5 -1t21.5 -3t23 -5.5t29 -9.5h69l82 7v-63h-95z" />
    <glyph glyph-name="h" unicode="h" horiz-adv-x="533" 
d="M385 0v321q0 23 -1 33t-6 20q-11 24 -45 24q-35 0 -75.5 -28t-98.5 -93v-277h-75v729h75v-371q12 13 19.5 22t14 15.5t13 12t14.5 12.5q26 22 58 33.5t64 11.5q119 0 119 -126v-339h-76z" />
    <glyph glyph-name="i" unicode="i" horiz-adv-x="249" 
d="M90 0v453h75v-453h-75zM177 611q0 -20 -14.5 -34.5t-34.5 -14.5t-34.5 14.5t-14.5 34.5t14.5 34.5t34.5 14.5t34.5 -14.5t14.5 -34.5z" />
    <glyph glyph-name="j" unicode="j" horiz-adv-x="264" 
d="M159 -75q-8 -19 -14 -32.5t-12 -25t-12 -22t-13 -22.5t-13 -21t-12 -17.5t-13.5 -18t-17.5 -22.5l-50 42q13 18 21.5 30t14.5 22t11 19t11 21q13 26 18.5 53t5.5 63v459h75v-528zM170 612q0 -20 -14.5 -34.5t-34.5 -14.5t-34.5 14.5t-14.5 34.5t14.5 34.5t34.5 14.5
t34.5 -14.5t14.5 -34.5z" />
    <glyph glyph-name="k" unicode="k" horiz-adv-x="468" 
d="M84 0v729h75v-729h-75zM348 0l-187 246l187 207h98l-193 -208l194 -245h-99z" />
    <glyph glyph-name="l" unicode="l" horiz-adv-x="231" 
d="M84 0v729h75v-729h-75z" />
    <glyph glyph-name="m" unicode="m" horiz-adv-x="825" 
d="M678 0v321q0 25 -1 33.5t-6 19.5t-17.5 17.5t-28.5 6.5q-32 0 -67 -23t-86 -76l-21 -22v-277h-75v321q0 25 -1 33.5t-6 19.5t-17.5 17.5t-28.5 6.5q-17 0 -35.5 -6.5t-39.5 -21t-45 -37.5t-54 -56v-277h-75v453h75v-95q12 13 20 22t14.5 15.5t13 12t14.5 12.5
q26 22 57.5 33.5t63.5 11.5q111 0 118 -108q12 13 20 22t15 16t13.5 12.5t14.5 12.5q26 22 57.5 33.5t63.5 11.5q119 0 119 -126v-339h-75z" />
    <glyph glyph-name="n" unicode="n" horiz-adv-x="523" 
d="M376 0v321q0 23 -1.5 33t-5.5 20q-5 11 -17.5 17.5t-28.5 6.5q-17 0 -35.5 -6.5t-39.5 -21t-45 -37.5t-54 -56v-277h-75v453h75v-95q12 13 20 22t14.5 15.5t13 12t14.5 12.5q26 22 57.5 33.5t63.5 11.5q119 0 119 -126v-339h-75z" />
    <glyph glyph-name="o" unicode="o" horiz-adv-x="545" 
d="M410 226q0 36 -11 67.5t-30 54.5t-44.5 36.5t-55.5 13.5t-56 -13.5t-45 -36.5t-30 -54.5t-11 -67.5t11 -67.5t30 -54.5t45 -36.5t56 -13.5t55.5 13.5t44.5 36.5t30 54.5t11 67.5zM492 226q0 -49 -17.5 -92.5t-48 -76t-71 -51.5t-86.5 -19t-87 19t-71.5 51.5t-48 76
t-17.5 92.5t17.5 92.5t48 76t71.5 51.5t87 19t86.5 -19t71 -51.5t48 -76t17.5 -92.5z" />
    <glyph glyph-name="p" unicode="p" horiz-adv-x="541" 
d="M407 238q0 34 -9 63t-25 50t-38.5 32.5t-48.5 11.5q-20 0 -43.5 -8.5t-44.5 -22.5q-14 -10 -23.5 -20t-25.5 -30v-157q0 -29 1.5 -38.5t7.5 -20.5q22 -39 91 -39q72 0 115 48.5t43 130.5zM488 239q0 -55 -17.5 -101t-48 -79.5t-73 -52t-92.5 -18.5q-36 0 -61 7t-47 24
v-258h-75v692h75v-57q29 33 67.5 51.5t81.5 18.5q42 0 77 -16.5t60 -46.5t39 -72t14 -92z" />
    <glyph glyph-name="q" unicode="q" horiz-adv-x="518" 
d="M372 382q-16 8 -31 11t-37 3q-81 0 -129 -51.5t-48 -138.5q0 -70 35 -109t98 -39q32 0 58 8.5t54 26.5v289zM372 -239v257q-18 -9 -28 -13t-24 -8q-17 -5 -40.5 -8t-44.5 -3q-42 0 -77 15.5t-60 44t-39 68.5t-14 88q0 58 19 106t53.5 83t82.5 54.5t106 19.5
q23 0 49.5 -2.5t45.5 -7.5q12 -3 21 -6t25 -10v-678h-75z" />
    <glyph glyph-name="r" unicode="r" horiz-adv-x="322" 
d="M288 371q-21 18 -32 18q-41 0 -107 -119v-270h-75v453h75v-82q21 27 37.5 45t30 29t25.5 15.5t25 4.5q27 0 58 -31z" />
    <glyph glyph-name="s" unicode="s" horiz-adv-x="429" 
d="M380 117q0 -61 -41.5 -95.5t-116.5 -34.5q-29 0 -63 6q-16 3 -28.5 6t-24.5 7.5t-24.5 10t-29.5 14.5l31 63q11 -6 19.5 -10.5t14.5 -7.5q24 -11 52 -18t52 -7q35 0 57.5 17t22.5 43q0 8 -2.5 17t-6.5 14q-7 10 -15 17.5t-21.5 15.5t-33.5 17.5t-50 21.5q-33 14 -55.5 27
t-36.5 27.5t-20 31t-6 37.5q0 60 46 94t126 34q14 0 29 -1t29 -4q13 -2 23 -5t19.5 -6.5t20.5 -9t25 -13.5l-37 -61q-22 14 -35 19.5t-30 10.5q-29 8 -52 8q-38 0 -61 -15.5t-23 -41.5q0 -17 11 -28q7 -7 13.5 -12t18.5 -11.5t30.5 -14.5t49.5 -21q36 -15 59.5 -29t38 -30.5
t20 -36t5.5 -46.5z" />
    <glyph glyph-name="t" unicode="t" horiz-adv-x="329" 
d="M308 44q-20 -17 -35 -27.5t-28 -17.5t-25.5 -9.5t-25.5 -2.5q-39 0 -63 28t-24 73v302h-76v44l76 19v132h75v-132h120v-63h-120v-258l1 -20q1 -11 1 -17.5t1 -10.5q1 -22 26 -22q14 0 28 7t38 25z" />
    <glyph glyph-name="u" unicode="u" horiz-adv-x="523" 
d="M375 0v94q-78 -108 -180 -108q-121 0 -121 127v340h75v-321q0 -42 12.5 -60.5t41.5 -18.5q18 0 40 9t44.5 25.5t45 39t42.5 49.5v277h76v-453h-76z" />
    <glyph glyph-name="v" unicode="v" horiz-adv-x="456" 
d="M262 -13h-69l-170 466h82l125 -367l2 -18l1 17l123 368h82z" />
    <glyph glyph-name="w" unicode="w" horiz-adv-x="695" 
d="M520 -13h-61l-102 283l-7 25l-6 -25l-107 -283h-63l-151 466h82l109 -361l1 -13l1 13l102 282l-30 79h79l120 -360l1 -14l1 14l113 360h75z" />
    <glyph glyph-name="x" unicode="x" horiz-adv-x="470" 
d="M329 0l-104 169l-106 -169h-84l152 229l-152 224h93l100 -168l101 168h86l-150 -221l156 -232h-92z" />
    <glyph glyph-name="y" unicode="y" horiz-adv-x="429" 
d="M233 -25q-16 -42 -30 -72.5t-33 -60.5q-7 -11 -13 -20.5t-13.5 -20t-17.5 -23.5t-24 -31l-60 46q17 19 29 33t21.5 26.5t17.5 26t18 31.5q9 16 16.5 30.5t14.5 30t14.5 34.5t17.5 45l-168 403h84l109 -277l15 -44l10 44l93 277h77z" />
    <glyph glyph-name="z" unicode="z" horiz-adv-x="460" 
d="M49 0v38l277 348h-264v67h377v-32l-281 -354h281v-67h-390z" />
    <glyph glyph-name="braceleft" unicode="{" horiz-adv-x="409" 
d="M330 -243q-71 0 -101.5 30.5t-30.5 101.5v220q0 113 -76 113h-36v55h36q76 0 76 113v220q0 71 30.5 101.5t101.5 30.5h56v-63h-44q-16 0 -32 -8t-24 -22q-8 -11 -10.5 -26.5t-2.5 -44.5v-201v-25.5t-1 -19.5q-3 -29 -19.5 -50.5t-39.5 -26.5l-25 -6l24 -4q26 -5 44 -32
q5 -8 8.5 -16t5.5 -18t2.5 -23.5t0.5 -33.5v-202q0 -28 2.5 -43t10.5 -27q8 -13 24 -21.5t32 -8.5h44v-63h-56z" />
    <glyph glyph-name="bar" unicode="|" horiz-adv-x="250" 
d="M92 -239v968h70v-968h-70z" />
    <glyph glyph-name="braceright" unicode="}" horiz-adv-x="409" 
d="M291 222q-37 0 -56.5 -29t-19.5 -84v-220q0 -71 -30.5 -101.5t-101.5 -30.5h-56v63h44q16 0 32 8t24 22q8 11 10.5 26.5t2.5 43.5v202v25t1 20q3 29 19.5 50.5t39.5 26.5l25 5l-24 5q-27 6 -44 32q-5 8 -8.5 16t-5.5 18t-2.5 23.5t-0.5 33.5v201q0 29 -2.5 44t-10.5 27
q-8 13 -24 21.5t-32 8.5h-44v63h56q71 0 101.5 -30.5t30.5 -101.5v-220q0 -111 76 -113l36 -1v-54h-36z" />
    <glyph glyph-name="asciitilde" unicode="~" horiz-adv-x="544" 
d="M530 232q-25 -18 -39.5 -26.5t-35.5 -16.5q-48 -17 -91 -17q-16 0 -29.5 1.5t-28 5.5t-32 11.5t-41.5 18.5q-23 11 -38.5 15.5t-32.5 4.5q-30 0 -62.5 -13t-62.5 -36l-29 42q12 10 21 17t18 12t18 9.5t21 9.5q45 18 81 18q17 0 37 -4.5t43 -15.5l50 -22q23 -10 38.5 -14
t32.5 -4q31 0 64 11q17 6 30 13.5t35 23.5z" />
    <glyph glyph-name="brokenbar" unicode="&#xa6;" horiz-adv-x="220" 
d="M76 -239v438h72v-438h-72zM76 291v438h72v-438h-72z" />
    <glyph glyph-name="guillemotleft" unicode="&#xab;" horiz-adv-x="560" 
d="M40 226l226 189v-82l-132 -107l132 -107v-81zM279 226l226 189v-82l-132 -107l132 -107v-81z" />
    <glyph glyph-name="Agrave" unicode="&#xc0;" horiz-adv-x="613" 
d="M299 572l-108 -302h215zM500 0l-68 195h-267l-68 -195h-88l246 679h88l245 -679h-88zM271 715l-114 118h88l95 -118h-69z" />
    <glyph glyph-name="Aacute" unicode="&#xc1;" horiz-adv-x="613" 
d="M299 572l-108 -302h215zM500 0l-68 195h-267l-68 -195h-88l246 679h88l245 -679h-88zM338 715h-70l95 118h88z" />
    <glyph glyph-name="Acircumflex" unicode="&#xc2;" horiz-adv-x="613" 
d="M299 572l-108 -302h215zM500 0l-68 195h-267l-68 -195h-88l246 679h88l245 -679h-88zM377 696l-76 67l-75 -67h-68l112 117h63l114 -117h-70z" />
    <glyph glyph-name="Atilde" unicode="&#xc3;" horiz-adv-x="613" 
d="M299 572l-108 -302h215zM500 0l-68 195h-267l-68 -195h-88l246 679h88l245 -679h-88zM498 758q-17 -16 -27 -22.5t-29 -14.5q-36 -16 -70 -16q-36 0 -87 27q-23 12 -33 15.5t-23 3.5q-19 0 -35 -8q-5 -2 -8.5 -4t-8 -4.5t-11 -6.5t-17.5 -11l-32 44q25 16 36 22.5
t25 12.5q30 15 62 15q8 0 12 -1q8 -1 14 -2t13.5 -4t19 -9.5t31.5 -16.5q17 -9 28.5 -13t23.5 -4q10 0 18.5 1.5t17.5 5.5t20.5 11t28.5 19z" />
    <glyph glyph-name="Adieresis" unicode="&#xc4;" horiz-adv-x="613" 
d="M299 572l-108 -302h215zM500 0l-68 195h-267l-68 -195h-88l246 679h88l245 -679h-88zM256 758q0 -20 -15 -35t-36 -15q-20 0 -35 15t-15 35q0 21 15 36t35 15q21 0 36 -15t15 -36zM441 758q0 -20 -14.5 -35t-35.5 -15t-36 15t-15 35q0 21 15 36t36 15t35.5 -15t14.5 -36z
" />
    <glyph glyph-name="Aring" unicode="&#xc5;" horiz-adv-x="613" 
d="M299 572l-108 -302h215zM342 788q0 17 -12 29.5t-29 12.5t-29.5 -12.5t-12.5 -29.5t12.5 -29t29.5 -12t29 12t12 29zM500 0l-68 195h-267l-68 -195h-88l246 679h88l245 -679h-88zM380 788q0 -33 -23 -56t-56 -23t-56.5 23t-23.5 56t23.5 56.5t56.5 23.5t56 -23.5
t23 -56.5z" />
    <glyph glyph-name="AE" unicode="&#xc6;" horiz-adv-x="800" 
d="M374 608l-164 -338h164v338zM374 0v195h-195l-94 -195h-95l333 660h51h371v-69h-294v-220h243v-69h-243v-233h300v-69h-377z" />
    <glyph glyph-name="Ccedilla" unicode="&#xc7;" horiz-adv-x="594" 
d="M536 547q-38 26 -76 38t-86 12q-53 0 -97 -19t-75.5 -53.5t-49.5 -82t-18 -104.5q0 -62 18 -113t51.5 -87t81 -55.5t105.5 -19.5q42 0 77 7t75 24l23 -64q-26 -12 -40.5 -17.5t-33.5 -10.5q-52 -13 -97 -13h-4l-36 -58h9q77 0 77 -76q0 -42 -27.5 -67t-75.5 -25
q-24 0 -47.5 5t-59.5 18l25 51q28 -12 45 -17t31 -5q18 0 29.5 10.5t11.5 26.5q0 23 -15.5 32t-51.5 9h-31l58 97q-17 3 -30 5t-23.5 5t-20.5 7t-22 9q-44 20 -79.5 52t-60 73.5t-38 90t-13.5 101.5q0 72 25.5 134t70 107.5t105 71.5t131.5 26q63 0 124 -22q22 -8 36.5 -16
t39.5 -25z" />
    <glyph glyph-name="Egrave" unicode="&#xc8;" horiz-adv-x="511" 
d="M82 0v660h371v-69h-289v-220h239v-69h-239v-233h298v-69h-380zM266 715l-113 118h88l94 -118h-69z" />
    <glyph glyph-name="Eacute" unicode="&#xc9;" horiz-adv-x="511" 
d="M82 0v660h371v-69h-289v-220h239v-69h-239v-233h298v-69h-380zM319 715h-70q-11 -14 -1.5 -2.5t27.5 34t38 48t31 38.5h88z" />
    <glyph glyph-name="Ecircumflex" unicode="&#xca;" horiz-adv-x="511" 
d="M82 0v660h371v-69h-289v-220h239v-69h-239v-233h298v-69h-380zM358 696l-75 67l-76 -67h-67l111 117h63l115 -117h-71z" />
    <glyph glyph-name="Edieresis" unicode="&#xcb;" horiz-adv-x="511" 
d="M82 0v660h371v-69h-289v-220h239v-69h-239v-233h298v-69h-380zM239 761q0 -21 -15 -36t-35 -15q-21 0 -36 15t-15 36t15 35.5t36 14.5q20 0 35 -14.5t15 -35.5zM424 761q0 -21 -14.5 -36t-35.5 -15t-35.5 15t-14.5 36t14.5 35.5t35.5 14.5t35.5 -14.5t14.5 -35.5z" />
    <glyph glyph-name="Igrave" unicode="&#xcc;" horiz-adv-x="281" 
d="M86 0v660h82v-660h-82zM118 715l-113 118h88l94 -118h-69z" />
    <glyph glyph-name="Iacute" unicode="&#xcd;" horiz-adv-x="278" 
d="M95 0v660h82v-660h-82zM151 715h-69l94 118h88z" />
    <glyph glyph-name="Icircumflex" unicode="&#xce;" horiz-adv-x="323" 
d="M112 0v660h82v-660h-82zM233 696l-76 67l-75 -67h-68l112 117h63l114 -117h-70z" />
    <glyph glyph-name="Idieresis" unicode="&#xcf;" horiz-adv-x="286" 
d="M96 0v660h82v-660h-82zM114 758q0 -20 -14.5 -35t-35.5 -15t-35.5 15t-14.5 35q0 21 14.5 36t35.5 15t35.5 -15t14.5 -36zM266 758q0 -20 -14.5 -35t-35.5 -15t-35.5 15t-14.5 35q0 21 14.5 36t35.5 15t35.5 -15t14.5 -36z" />
    <glyph glyph-name="Ntilde" unicode="&#xd1;" horiz-adv-x="717" 
d="M528 -6l-333 515q-2 4 -5.5 9.5t-7.5 13.5q-3 5 -5 8.5t-3 6.5q-3 5 -5 10t-5 15v-572h-82v660h107l327 -503q2 -3 4.5 -7t4.5 -9l4.5 -12t7.5 -18q1 -2 1.5 -4.5t2.5 -5.5v559h82v-666h-95zM554 749q-17 -16 -27 -22.5t-29 -14.5q-36 -16 -70 -16q-36 0 -87 27
q-23 12 -33 15.5t-23 3.5q-19 0 -35 -8q-5 -2 -8.5 -4t-8 -4.5t-11 -6.5t-17.5 -11l-32 44q25 16 36 22.5t25 12.5q30 15 62 15q8 0 12 -1q8 -1 14 -2t13.5 -4t19 -9.5t31.5 -16.5q17 -9 28.5 -13t23.5 -4q10 0 18.5 1.5t17.5 5.5t20.5 11t28.5 19z" />
    <glyph glyph-name="Ograve" unicode="&#xd2;" horiz-adv-x="772" 
d="M618 330q0 54 -19 102.5t-52 84.5t-77 57.5t-93 21.5t-93 -21.5t-77 -57.5t-52.5 -84.5t-19.5 -102.5t19.5 -102.5t52.5 -85t77 -57.5t93 -21t93 21.5t77 57.5t52 84.5t19 102.5zM708 330q0 -75 -24.5 -137.5t-69 -108.5t-105 -71.5t-132.5 -25.5t-133 25.5t-105 71.5
t-69 108.5t-25 137.5q0 74 25 137t69 108.5t105 71t133 25.5t132.5 -25.5t105 -71t69 -108.5t24.5 -137zM336 715l-113 118h88l94 -118h-69z" />
    <glyph glyph-name="Oacute" unicode="&#xd3;" horiz-adv-x="772" 
d="M618 330q0 54 -19 102.5t-52 84.5t-77 57.5t-93 21.5t-93 -21.5t-77 -57.5t-52.5 -84.5t-19.5 -102.5t19.5 -102.5t52.5 -85t77 -57.5t93 -21t93 21.5t77 57.5t52 84.5t19 102.5zM708 330q0 -75 -24.5 -137.5t-69 -108.5t-105 -71.5t-132.5 -25.5t-133 25.5t-105 71.5
t-69 108.5t-25 137.5q0 74 25 137t69 108.5t105 71t133 25.5t132.5 -25.5t105 -71t69 -108.5t24.5 -137zM408 715h-69l94 118h88z" />
    <glyph glyph-name="Ocircumflex" unicode="&#xd4;" horiz-adv-x="772" 
d="M618 330q0 54 -19 102.5t-52 84.5t-77 57.5t-93 21.5t-93 -21.5t-77 -57.5t-52.5 -84.5t-19.5 -102.5t19.5 -102.5t52.5 -85t77 -57.5t93 -21t93 21.5t77 57.5t52 84.5t19 102.5zM708 330q0 -75 -24.5 -137.5t-69 -108.5t-105 -71.5t-132.5 -25.5t-133 25.5t-105 71.5
t-69 108.5t-25 137.5q0 74 25 137t69 108.5t105 71t133 25.5t132.5 -25.5t105 -71t69 -108.5t24.5 -137zM451 696l-75 67l-76 -67h-68l112 117h63l115 -117h-71z" />
    <glyph glyph-name="Otilde" unicode="&#xd5;" horiz-adv-x="772" 
d="M618 330q0 54 -19 102.5t-52 84.5t-77 57.5t-93 21.5t-93 -21.5t-77 -57.5t-52.5 -84.5t-19.5 -102.5t19.5 -102.5t52.5 -85t77 -57.5t93 -21t93 21.5t77 57.5t52 84.5t19 102.5zM708 330q0 -75 -24.5 -137.5t-69 -108.5t-105 -71.5t-132.5 -25.5t-133 25.5t-105 71.5
t-69 108.5t-25 137.5q0 74 25 137t69 108.5t105 71t133 25.5t132.5 -25.5t105 -71t69 -108.5t24.5 -137zM569 745q-17 -16 -27 -22.5t-29 -14.5q-36 -16 -70 -16q-36 0 -87 27q-23 12 -33 15.5t-23 3.5q-19 0 -35 -8q-5 -2 -8.5 -4t-8 -4.5t-11 -6.5t-17.5 -11l-32 44
q25 16 36 22.5t25 12.5q30 15 62 15q8 0 12 -1q8 -1 14 -2t13.5 -4t19 -9.5t31.5 -16.5q17 -9 28.5 -13t23.5 -4q10 0 18.5 1.5t17.5 5.5t20.5 11t28.5 19z" />
    <glyph glyph-name="Odieresis" unicode="&#xd6;" horiz-adv-x="772" 
d="M618 330q0 54 -19 102.5t-52 84.5t-77 57.5t-93 21.5t-93 -21.5t-77 -57.5t-52.5 -84.5t-19.5 -102.5t19.5 -102.5t52.5 -85t77 -57.5t93 -21t93 21.5t77 57.5t52 84.5t19 102.5zM708 330q0 -75 -24.5 -137.5t-69 -108.5t-105 -71.5t-132.5 -25.5t-133 25.5t-105 71.5
t-69 108.5t-25 137.5q0 74 25 137t69 108.5t105 71t133 25.5t132.5 -25.5t105 -71t69 -108.5t24.5 -137zM328 760q0 -21 -15 -36t-35 -15q-21 0 -36 15t-15 36q0 20 15 35t36 15q20 0 35 -15t15 -35zM530 760q0 -21 -14.5 -36t-35.5 -15t-35.5 15t-14.5 36q0 20 14.5 35
t35.5 15t35.5 -15t14.5 -35z" />
    <glyph glyph-name="multiply" unicode="&#xd7;" horiz-adv-x="550" 
d="M472 -12l-197 196l-197 -197l-42 42l197 197l-197 197l42 42l197 -197l197 197l42 -42l-197 -197l197 -197z" />
    <glyph glyph-name="Ugrave" unicode="&#xd9;" horiz-adv-x="658" 
d="M590 226q0 -66 -17.5 -108t-58.5 -76q-75 -61 -181 -61q-107 0 -182 61q-42 34 -59.5 76.5t-17.5 107.5v434h82v-409q0 -31 1.5 -51.5t5.5 -36t11.5 -27.5t19.5 -25q51 -57 138 -57t138 57q12 13 19.5 25t11.5 27.5t5.5 36t1.5 51.5v409h82v-434zM331 715l-114 118h88
l95 -118h-69z" />
    <glyph glyph-name="Uacute" unicode="&#xda;" horiz-adv-x="658" 
d="M590 226q0 -66 -17.5 -108t-58.5 -76q-75 -61 -181 -61q-107 0 -182 61q-42 34 -59.5 76.5t-17.5 107.5v434h82v-409q0 -31 1.5 -51.5t5.5 -36t11.5 -27.5t19.5 -25q51 -57 138 -57t138 57q12 13 19.5 25t11.5 27.5t5.5 36t1.5 51.5v409h82v-434zM361 715h-69l94 118h88z
" />
    <glyph glyph-name="Ucircumflex" unicode="&#xdb;" horiz-adv-x="658" 
d="M590 226q0 -66 -17.5 -108t-58.5 -76q-75 -61 -181 -61q-107 0 -182 61q-42 34 -59.5 76.5t-17.5 107.5v434h82v-409q0 -31 1.5 -51.5t5.5 -36t11.5 -27.5t19.5 -25q51 -57 138 -57t138 57q12 13 19.5 25t11.5 27.5t5.5 36t1.5 51.5v409h82v-434zM414 696l-75 67l-76 -67
h-68l112 117h63l115 -117h-71z" />
    <glyph glyph-name="Udieresis" unicode="&#xdc;" horiz-adv-x="658" 
d="M590 226q0 -66 -17.5 -108t-58.5 -76q-75 -61 -181 -61q-107 0 -182 61q-42 34 -59.5 76.5t-17.5 107.5v434h82v-409q0 -31 1.5 -51.5t5.5 -36t11.5 -27.5t19.5 -25q51 -57 138 -57t138 57q12 13 19.5 25t11.5 27.5t5.5 36t1.5 51.5v409h82v-434zM288 762
q0 -21 -14.5 -35.5t-35.5 -14.5t-35.5 14.5t-14.5 35.5t14.5 35.5t35.5 14.5t35.5 -14.5t14.5 -35.5zM490 762q0 -21 -14.5 -35.5t-35.5 -14.5t-35.5 14.5t-14.5 35.5t14.5 35.5t35.5 14.5t35.5 -14.5t14.5 -35.5z" />
    <glyph glyph-name="agrave" unicode="&#xe0;" horiz-adv-x="437" 
d="M310 207l-170 -44q-8 -16 -10.5 -25.5t-2.5 -23.5q0 -27 16.5 -43t44.5 -16q13 0 24.5 2.5t25 9t31 17.5t41.5 29v94zM405 -13q-47 3 -66 17t-22 46q-17 -15 -27 -22.5t-21 -13.5q-21 -12 -46.5 -19t-49.5 -7q-55 0 -88 32.5t-33 86.5q0 50 25.5 82t75.5 44l157 37v82
q0 56 -86 56q-69 0 -69 -39q0 -6 4 -17l-76 -16q-5 9 -6.5 14.5t-1.5 13.5q0 45 45 73t118 28q69 0 108.5 -30t39.5 -83v-245v-33q3 -18 37 -24zM235 497l-113 163h88l94 -163h-69z" />
    <glyph glyph-name="aacute" unicode="&#xe1;" horiz-adv-x="436" 
d="M309 207l-170 -44q-8 -16 -10.5 -25.5t-2.5 -23.5q0 -27 16.5 -43t44.5 -16q13 0 24.5 2.5t25 9t31 17.5t41.5 29v94zM404 -13q-47 3 -66 17t-22 46q-17 -15 -27 -22.5t-21 -13.5q-21 -12 -46.5 -19t-49.5 -7q-55 0 -88 32.5t-33 86.5q0 50 25.5 82t75.5 44l157 37v82
q0 56 -86 56q-69 0 -69 -39q0 -6 4 -17l-76 -16q-5 9 -6.5 14.5t-1.5 13.5q0 45 45 73t118 28q69 0 108.5 -30t39.5 -83v-245v-33q3 -18 37 -24zM265 497h-69l94 163h88z" />
    <glyph glyph-name="acircumflex" unicode="&#xe2;" horiz-adv-x="437" 
d="M310 207l-170 -44q-8 -16 -10.5 -25.5t-2.5 -23.5q0 -27 16.5 -43t44.5 -16q13 0 24.5 2.5t25 9t31 17.5t41.5 29v94zM405 -13q-47 3 -66 17t-22 46q-17 -15 -27 -22.5t-21 -13.5q-21 -12 -46.5 -19t-49.5 -7q-55 0 -88 32.5t-33 86.5q0 50 25.5 82t75.5 44l157 37v82
q0 56 -86 56q-69 0 -69 -39q0 -6 4 -17l-76 -16q-5 9 -6.5 14.5t-1.5 13.5q0 45 45 73t118 28q69 0 108.5 -30t39.5 -83v-245v-33q3 -18 37 -24zM315 497l-75 107l-76 -107h-68l112 163h63l115 -163h-71z" />
    <glyph glyph-name="atilde" unicode="&#xe3;" horiz-adv-x="462" 
d="M318 207l-170 -44q-8 -16 -10.5 -25.5t-2.5 -23.5q0 -27 16.5 -43t44.5 -16q13 0 24.5 2.5t25 9t31 17.5t41.5 29v94zM413 -13q-47 3 -66 17t-22 46q-17 -15 -27 -22.5t-21 -13.5q-21 -12 -46.5 -19t-49.5 -7q-55 0 -88 32.5t-33 86.5q0 50 25.5 82t75.5 44l157 37v82
q0 56 -86 56q-69 0 -69 -39q0 -6 4 -17l-76 -16q-5 9 -6.5 14.5t-1.5 13.5q0 45 45 73t118 28q69 0 108.5 -30t39.5 -83v-245v-33q3 -18 37 -24zM442 578q-17 -16 -27 -22.5t-29 -14.5q-36 -16 -70 -16q-36 0 -87 27q-23 12 -33 15.5t-23 3.5q-19 0 -35 -8q-5 -2 -8.5 -4
t-8 -4.5t-11 -6.5t-17.5 -11l-32 44q25 16 36 22.5t25 12.5q30 15 62 15q8 0 12 -1q8 -1 14 -2t13.5 -4t19 -9.5t31.5 -16.5q17 -9 28.5 -13t23.5 -4q10 0 18.5 1.5t17.5 5.5t20.5 11t28.5 19z" />
    <glyph glyph-name="adieresis" unicode="&#xe4;" horiz-adv-x="441" 
d="M314 207l-170 -44q-8 -16 -10.5 -25.5t-2.5 -23.5q0 -27 16.5 -43t44.5 -16q13 0 24.5 2.5t25 9t31 17.5t41.5 29v94zM409 -13q-47 3 -66 17t-22 46q-17 -15 -27 -22.5t-21 -13.5q-21 -12 -46.5 -19t-49.5 -7q-55 0 -88 32.5t-33 86.5q0 50 25.5 82t75.5 44l157 37v82
q0 56 -86 56q-69 0 -69 -39q0 -6 4 -17l-76 -16q-5 9 -6.5 14.5t-1.5 13.5q0 45 45 73t118 28q69 0 108.5 -30t39.5 -83v-245v-33q3 -18 37 -24zM197 573q0 -20 -15 -35t-35 -15q-21 0 -36 15t-15 35q0 21 15 36t36 15q20 0 35 -15t15 -36zM372 573q0 -20 -15 -35t-35 -15
q-21 0 -36 15t-15 35q0 21 15 36t36 15q20 0 35 -15t15 -36z" />
    <glyph glyph-name="aring" unicode="&#xe5;" horiz-adv-x="437" 
d="M310 207l-170 -44q-8 -16 -10.5 -25.5t-2.5 -23.5q0 -27 16.5 -43t44.5 -16q13 0 24.5 2.5t25 9t31 17.5t41.5 29v94zM280 586q0 17 -12 29.5t-29 12.5t-29.5 -12.5t-12.5 -29.5t12.5 -29t29.5 -12t29 12t12 29zM405 -13q-47 3 -66 17t-22 46q-17 -15 -27 -22.5
t-21 -13.5q-21 -12 -46.5 -19t-49.5 -7q-55 0 -88 32.5t-33 86.5q0 50 25.5 82t75.5 44l157 37v82q0 56 -86 56q-69 0 -69 -39q0 -6 4 -17l-76 -16q-5 9 -6.5 14.5t-1.5 13.5q0 45 45 73t118 28q69 0 108.5 -30t39.5 -83v-245v-33q3 -18 37 -24zM318 586q0 -33 -23 -56
t-56 -23t-56.5 23t-23.5 56t23.5 56.5t56.5 23.5t56 -23.5t23 -56.5z" />
    <glyph glyph-name="ccedilla" unicode="&#xe7;" horiz-adv-x="482" 
d="M433 35q-13 -8 -22.5 -13.5t-18.5 -9.5t-18.5 -7.5t-22.5 -7.5q-19 -5 -29 -7t-29 -3l-31 -56q35 0 54.5 -19.5t19.5 -56.5q0 -40 -26.5 -65.5t-68.5 -25.5q-10 0 -18.5 1t-19.5 3t-25.5 6.5t-35.5 11.5l25 51q28 -12 45 -17t32 -5q17 0 28.5 10.5t11.5 26.5
q0 23 -15.5 32t-50.5 9h-32l57 94q-101 23 -149.5 80.5t-48.5 154.5q0 53 17.5 97.5t49 77t75 50.5t95.5 18q34 0 67 -9q22 -6 37 -13.5t38 -23.5l-43 -61q-26 22 -48.5 30.5t-53.5 8.5q-69 0 -110.5 -47.5t-41.5 -124.5q0 -78 42.5 -123.5t115.5 -45.5q33 0 57 8.5t52 29.5
z" />
    <glyph glyph-name="egrave" unicode="&#xe8;" horiz-adv-x="484" 
d="M349 289q-1 53 -26 80.5t-72 27.5q-48 0 -79.5 -27.5t-44.5 -80.5h222zM121 233q0 -83 39.5 -130t108.5 -47q30 0 55.5 9.5t62.5 35.5l30 -59q-25 -16 -45.5 -26.5t-39.5 -17t-38 -9t-41 -2.5q-47 0 -86 17t-67 48.5t-43 75.5t-15 98t15.5 98t43.5 75.5t67.5 48.5
t87.5 17q40 0 72 -13.5t55 -38t35.5 -59.5t12.5 -77v-44h-310zM255 497l-113 163h88l94 -163h-69z" />
    <glyph glyph-name="eacute" unicode="&#xe9;" horiz-adv-x="502" 
d="M352 289q-1 53 -26 80.5t-72 27.5q-48 0 -79.5 -27.5t-44.5 -80.5h222zM124 233q0 -83 39.5 -130t108.5 -47q30 0 55.5 9.5t62.5 35.5l30 -59q-25 -16 -45.5 -26.5t-39.5 -17t-38 -9t-41 -2.5q-47 0 -86 17t-67 48.5t-43 75.5t-15 98t15.5 98t43.5 75.5t67.5 48.5
t87.5 17q40 0 72 -13.5t55 -38t35.5 -59.5t12.5 -77v-44h-310zM277 497h-70l95 163h88z" />
    <glyph glyph-name="ecircumflex" unicode="&#xea;" horiz-adv-x="499" 
d="M349 289q-1 53 -26 80.5t-72 27.5q-48 0 -79.5 -27.5t-44.5 -80.5h222zM121 233q0 -83 39.5 -130t108.5 -47q30 0 55.5 9.5t62.5 35.5l30 -59q-25 -16 -45.5 -26.5t-39.5 -17t-38 -9t-41 -2.5q-47 0 -86 17t-67 48.5t-43 75.5t-15 98t15.5 98t43.5 75.5t67.5 48.5
t87.5 17q40 0 72 -13.5t55 -38t35.5 -59.5t12.5 -77v-44h-310zM330 497l-75 107l-76 -107h-69l113 163h63l113 -163h-69z" />
    <glyph glyph-name="edieresis" unicode="&#xeb;" horiz-adv-x="503" 
d="M349 289q-1 53 -26 80.5t-72 27.5q-48 0 -79.5 -27.5t-44.5 -80.5h222zM121 233q0 -83 39.5 -130t108.5 -47q30 0 55.5 9.5t62.5 35.5l30 -59q-25 -16 -45.5 -26.5t-39.5 -17t-38 -9t-41 -2.5q-47 0 -86 17t-67 48.5t-43 75.5t-15 98t15.5 98t43.5 75.5t67.5 48.5
t87.5 17q40 0 72 -13.5t55 -38t35.5 -59.5t12.5 -77v-44h-310zM218 572q0 -20 -15 -35t-35 -15q-21 0 -36 15t-15 35q0 21 15 36t36 15q20 0 35 -15t15 -36zM393 572q0 -20 -15 -35t-35 -15q-21 0 -36 15t-15 35q0 21 15 36t36 15q20 0 35 -15t15 -36z" />
    <glyph glyph-name="igrave" unicode="&#xec;" horiz-adv-x="272" 
d="M112 0v453h75v-453h-75zM131 497l-113 163h88l94 -163h-69z" />
    <glyph glyph-name="iacute" unicode="&#xed;" horiz-adv-x="246" 
d="M78 0v453h75v-453h-75zM141 497h-69l94 163h88z" />
    <glyph glyph-name="icircumflex" unicode="&#xee;" horiz-adv-x="299" 
d="M119 0v453h75v-453h-75zM232 497l-75 107l-76 -107h-69l113 163h63l113 -163h-69z" />
    <glyph glyph-name="idieresis" unicode="&#xef;" horiz-adv-x="276" 
d="M106 0v453h75v-453h-75zM109 573q0 -20 -15 -35t-35 -15q-21 0 -36 15t-15 35q0 21 15 36t36 15q20 0 35 -15t15 -36zM284 573q0 -20 -15 -35t-35 -15q-21 0 -36 15t-15 35q0 21 15 36t36 15q20 0 35 -15t15 -36z" />
    <glyph glyph-name="ntilde" unicode="&#xf1;" horiz-adv-x="534" 
d="M378 0v321q0 23 -1.5 33t-5.5 20q-5 11 -17.5 17.5t-28.5 6.5q-17 0 -35.5 -6.5t-39.5 -21t-45 -37.5t-54 -56v-277h-75v453h75v-95q12 13 20 22t14.5 15.5t13 12t14.5 12.5q26 22 57.5 33.5t63.5 11.5q119 0 119 -126v-339h-75zM462 574q-17 -16 -27 -22.5t-29 -14.5
q-36 -16 -70 -16q-36 0 -87 27q-23 12 -33 15.5t-23 3.5q-19 0 -35 -8q-5 -2 -8.5 -4t-8 -4.5t-11 -6.5t-17.5 -11l-32 44q25 16 36 22.5t25 12.5q30 15 62 15q8 0 12 -1q8 -1 14 -2t13.5 -4t19 -9.5t31.5 -16.5q17 -9 28.5 -13t23.5 -4q10 0 18.5 1.5t17.5 5.5t20.5 11
t28.5 19z" />
    <glyph glyph-name="ograve" unicode="&#xf2;" horiz-adv-x="542" 
d="M407 226q0 36 -11 67.5t-30 54.5t-44.5 36.5t-55.5 13.5t-56 -13.5t-45 -36.5t-30 -54.5t-11 -67.5t11 -67.5t30 -54.5t45 -36.5t56 -13.5t55.5 13.5t44.5 36.5t30 54.5t11 67.5zM489 226q0 -49 -17.5 -92.5t-48 -76t-71 -51.5t-86.5 -19t-87 19t-71.5 51.5t-48 76
t-17.5 92.5t17.5 92.5t48 76t71.5 51.5t87 19t86.5 -19t71 -51.5t48 -76t17.5 -92.5zM257 497l-120 163h88l101 -163h-69z" />
    <glyph glyph-name="oacute" unicode="&#xf3;" horiz-adv-x="545" 
d="M410 226q0 36 -11 67.5t-30 54.5t-44.5 36.5t-55.5 13.5t-56 -13.5t-45 -36.5t-30 -54.5t-11 -67.5t11 -67.5t30 -54.5t45 -36.5t56 -13.5t55.5 13.5t44.5 36.5t30 54.5t11 67.5zM492 226q0 -49 -17.5 -92.5t-48 -76t-71 -51.5t-86.5 -19t-87 19t-71.5 51.5t-48 76
t-17.5 92.5t17.5 92.5t48 76t71.5 51.5t87 19t86.5 -19t71 -51.5t48 -76t17.5 -92.5zM294 497h-66l86 163h88z" />
    <glyph glyph-name="ocircumflex" unicode="&#xf4;" horiz-adv-x="542" 
d="M407 226q0 36 -11 67.5t-30 54.5t-44.5 36.5t-55.5 13.5t-56 -13.5t-45 -36.5t-30 -54.5t-11 -67.5t11 -67.5t30 -54.5t45 -36.5t56 -13.5t55.5 13.5t44.5 36.5t30 54.5t11 67.5zM489 226q0 -49 -17.5 -92.5t-48 -76t-71 -51.5t-86.5 -19t-87 19t-71.5 51.5t-48 76
t-17.5 92.5t17.5 92.5t48 76t71.5 51.5t87 19t86.5 -19t71 -51.5t48 -76t17.5 -92.5zM345 497l-76 107l-75 -107h-69l113 163h63l113 -163h-69z" />
    <glyph glyph-name="otilde" unicode="&#xf5;" horiz-adv-x="561" 
d="M410 226q0 36 -11 67.5t-30 54.5t-44.5 36.5t-55.5 13.5t-56 -13.5t-45 -36.5t-30 -54.5t-11 -67.5t11 -67.5t30 -54.5t45 -36.5t56 -13.5t55.5 13.5t44.5 36.5t30 54.5t11 67.5zM492 226q0 -49 -17.5 -92.5t-48 -76t-71 -51.5t-86.5 -19t-87 19t-71.5 51.5t-48 76
t-17.5 92.5t17.5 92.5t48 76t71.5 51.5t87 19t86.5 -19t71 -51.5t48 -76t17.5 -92.5zM451 574q-17 -16 -27 -22.5t-29 -14.5q-36 -16 -70 -16q-36 0 -87 27q-23 12 -33 15.5t-23 3.5q-19 0 -35 -8q-5 -2 -8.5 -4t-8 -4.5t-11 -6.5t-17.5 -11l-32 44q25 16 36 22.5t25 12.5
q30 15 62 15q8 0 12 -1q8 -1 14 -2t13.5 -4t19 -9.5t31.5 -16.5q17 -9 28.5 -13t23.5 -4q10 0 18.5 1.5t17.5 5.5t20.5 11t28.5 19z" />
    <glyph glyph-name="odieresis" unicode="&#xf6;" horiz-adv-x="542" 
d="M407 226q0 36 -11 67.5t-30 54.5t-44.5 36.5t-55.5 13.5t-56 -13.5t-45 -36.5t-30 -54.5t-11 -67.5t11 -67.5t30 -54.5t45 -36.5t56 -13.5t55.5 13.5t44.5 36.5t30 54.5t11 67.5zM489 226q0 -49 -17.5 -92.5t-48 -76t-71 -51.5t-86.5 -19t-87 19t-71.5 51.5t-48 76
t-17.5 92.5t17.5 92.5t48 76t71.5 51.5t87 19t86.5 -19t71 -51.5t48 -76t17.5 -92.5zM233 572q0 -20 -15 -35t-35 -15q-21 0 -36 15t-15 35q0 21 15 36t36 15q20 0 35 -15t15 -36zM408 572q0 -20 -15 -35t-35 -15q-21 0 -36 15t-15 35q0 21 15 36t36 15q20 0 35 -15t15 -36z
" />
    <glyph glyph-name="divide" unicode="&#xf7;" horiz-adv-x="550" 
d="M335 48q0 -25 -17 -42t-41 -17q-25 0 -42 17t-17 42q0 24 17 41t42 17q24 0 41 -17t17 -41zM25 208v57h500v-57h-500zM335 427q0 -24 -17 -41t-41 -17q-25 0 -42 17t-17 41q0 25 17 42t42 17q24 0 41 -17t17 -42z" />
    <glyph glyph-name="ugrave" unicode="&#xf9;" horiz-adv-x="521" 
d="M373 0v94q-78 -108 -180 -108q-121 0 -121 127v340h75v-321q0 -42 12.5 -60.5t41.5 -18.5q18 0 40 9t44.5 25.5t45 39t42.5 49.5v277h76v-453h-76zM248 497l-113 163h88l94 -163h-69z" />
    <glyph glyph-name="uacute" unicode="&#xfa;" horiz-adv-x="523" 
d="M375 0v94q-78 -108 -180 -108q-121 0 -121 127v340h75v-321q0 -42 12.5 -60.5t41.5 -18.5q18 0 40 9t44.5 25.5t45 39t42.5 49.5v277h76v-453h-76zM287 497h-69l95 163h88z" />
    <glyph glyph-name="ucircumflex" unicode="&#xfb;" horiz-adv-x="521" 
d="M373 0v94q-78 -108 -180 -108q-121 0 -121 127v340h75v-321q0 -42 12.5 -60.5t41.5 -18.5q18 0 40 9t44.5 25.5t45 39t42.5 49.5v277h76v-453h-76zM336 497l-76 107l-75 -107h-69l113 163h63l113 -163h-69z" />
    <glyph glyph-name="udieresis" unicode="&#xfc;" horiz-adv-x="521" 
d="M373 0v94q-78 -108 -180 -108q-121 0 -121 127v340h75v-321q0 -42 12.5 -60.5t41.5 -18.5q18 0 40 9t44.5 25.5t45 39t42.5 49.5v277h76v-453h-76zM230 572q0 -20 -15 -35t-35 -15q-21 0 -36 15t-15 35q0 21 15 36t36 15q20 0 35 -15t15 -36zM405 572q0 -20 -15 -35
t-35 -15q-21 0 -36 15t-15 35q0 21 15 36t36 15q20 0 35 -15t15 -36z" />
    <glyph glyph-name="ydieresis" unicode="&#xff;" horiz-adv-x="429" 
d="M233 -25q-16 -42 -30 -72.5t-33 -60.5q-7 -11 -13 -20.5t-13.5 -20t-17.5 -23.5t-24 -31l-60 46q17 19 29 33t21.5 26.5t17.5 26t18 31.5q9 16 16.5 30.5t14.5 30t14.5 34.5t17.5 45l-168 403h84l109 -277l15 -44l10 44l93 277h77zM184 547q0 -20 -15 -35t-35 -15
q-21 0 -36 15t-15 35q0 21 15 36t36 15q20 0 35 -15t15 -36zM359 547q0 -20 -15 -35t-35 -15q-21 0 -36 15t-15 35q0 21 15 36t36 15q20 0 35 -15t15 -36z" />
    <glyph glyph-name="Ydieresis" unicode="&#x178;" horiz-adv-x="518" 
d="M311 308v-308h-82v302l-220 358h88l177 -283l182 283h87zM219 758q0 -21 -15 -36t-36 -15t-35.5 15t-14.5 36q0 20 14.5 35t35.5 15t36 -15t15 -35zM421 758q0 -21 -15 -36t-36 -15q-20 0 -35 15t-15 36q0 20 15 35t35 15q21 0 36 -15t15 -35z" />
    <glyph glyph-name="endash" unicode="&#x2013;" horiz-adv-x="500" 
d="M0 208v57h500v-57h-500z" />
    <glyph glyph-name="quoteleft" unicode="&#x2018;" horiz-adv-x="252" 
d="M191 433q-17 -11 -29 -14.5t-29 -3.5q-58 0 -58 64q0 23 8 52q6 22 16.5 44t30.5 60l13 25h44q-8 -17 -11.5 -27.5t-10.5 -29.5q-3 -11 -5.5 -18.5t-4.5 -14t-3.5 -13.5t-3.5 -17z" />
    <glyph glyph-name="quoteright" unicode="&#x2019;" horiz-adv-x="252" 
d="M177 608q0 -35 -17 -82.5t-49 -97.5h-50q6 9 9.5 15.5t6.5 12.5t6 13.5t7 19.5q5 16 8 27.5t7 31.5l-44 107q12 6 19.5 9t13.5 5t12 2.5t14 0.5q57 0 57 -64z" />
    <glyph glyph-name="quotesinglbase" unicode="&#x201a;" horiz-adv-x="252" 
d="M176 36q0 -23 -8 -53q-3 -11 -7 -22t-9.5 -23t-12.5 -26t-17 -33l-13 -24h-44q7 16 11 26.5t11 30.5q3 10 5.5 17.5t4 14t3.5 13.5t4 17l-43 108q16 11 28.5 14.5t29.5 3.5q57 0 57 -64z" />
    <glyph glyph-name="quotedblleft" unicode="&#x201c;" horiz-adv-x="437" 
d="M192 433q-11 -6 -19 -9t-14 -5t-12 -2.5t-14 -0.5q-58 0 -58 64q0 35 17 82t49 98h51q-12 -18 -17 -28.5t-12 -32.5q-5 -16 -8 -27.5t-7 -31.5zM376 433q-12 -6 -19.5 -9t-13.5 -5t-12 -2.5t-14 -0.5q-58 0 -58 64q0 35 17.5 82.5t48.5 97.5h51q-6 -9 -10 -15.5t-7 -12.5
t-5.5 -13.5l-6.5 -19.5q-5 -16 -8 -27.5t-7 -31.5z" />
    <glyph glyph-name="quotedblright" unicode="&#x201d;" horiz-adv-x="437" 
d="M177 608q0 -35 -17 -82.5t-49 -97.5h-50q6 9 9.5 15.5t6.5 12.5t6 13.5t7 19.5q5 16 8 27.5t7 31.5l-44 107q12 6 19.5 9t13.5 5t12 2.5t14 0.5q57 0 57 -64zM361 608q0 -35 -17 -82t-49 -98h-50q6 9 10 15.5t7 13t6 14t6 18.5q5 16 7.5 27.5t7.5 31.5l-44 107
q11 6 18.5 9t13.5 5t12.5 2.5t14.5 0.5q57 0 57 -64z" />
    <glyph glyph-name="quotedblbase" unicode="&#x201e;" horiz-adv-x="437" 
d="M177 35q0 -35 -17 -82.5t-49 -96.5h-50q6 9 9.5 15t6.5 12.5t6 14t7 18.5q6 17 8.5 28t6.5 31l-44 107q12 6 19.5 9.5t13.5 5.5t12 2.5t14 0.5q57 0 57 -65zM361 35q0 -35 -17 -81.5t-49 -97.5h-50q6 9 10 15.5t7 12.5t6 13.5t6 18.5q5 16 7.5 27.5t7.5 31.5l-44 107
q11 6 18.5 9.5t13.5 5.5t12.5 2.5t14.5 0.5q57 0 57 -65z" />
    <glyph glyph-name="bullet" unicode="&#x2022;" horiz-adv-x="352" 
d="M293 231q0 -24 -9 -45.5t-25 -37.5t-37.5 -25t-45.5 -9t-45.5 9t-37.5 25t-25 37.5t-9 45.5t9 45.5t25 37.5t37.5 25t45.5 9t45.5 -9t37.5 -25t25 -37.5t9 -45.5z" />
    <glyph glyph-name="ellipsis" unicode="&#x2026;" horiz-adv-x="750" 
d="M181 45q0 -23 -16.5 -39.5t-39.5 -16.5t-40 16.5t-17 39.5q0 24 17 40.5t40 16.5t39.5 -16.5t16.5 -40.5zM440 45q0 -23 -16.5 -39.5t-40.5 -16.5q-23 0 -39.5 16.5t-16.5 39.5q0 24 16.5 40.5t39.5 16.5q24 0 40.5 -16.5t16.5 -40.5zM690 45q0 -23 -16.5 -39.5
t-40.5 -16.5q-23 0 -39.5 16.5t-16.5 39.5q0 24 16.5 40.5t39.5 16.5q24 0 40.5 -16.5t16.5 -40.5z" />
    <glyph glyph-name="guilsinglleft" unicode="&#x2039;" horiz-adv-x="321" 
d="M40 226l226 189v-82l-132 -107l132 -107v-81z" />
    <glyph glyph-name="guilsinglright" unicode="&#x203a;" horiz-adv-x="321" 
d="M54 38v81l133 107l-133 107v82l227 -189z" />
  </font>
</defs>
</svg>
