<?xml version="1.0" standalone="no"?>
<!DOCTYPE svg PUBLIC "-//W3C//DTD SVG 1.1//EN" "http://www.w3.org/Graphics/SVG/1.1/DTD/svg11.dtd" >
<svg xmlns="http://www.w3.org/2000/svg" xmlns:xlink="http://www.w3.org/1999/xlink" version="1.1">
<metadata>
Created by FontForge 20170731 at Fri Jan  1 02:30:17 1904
 By Aleksey,,,
Attribution-ShareAlike 4.0 International
</metadata>
<defs>
<font id="ScalySansCaps" horiz-adv-x="500" >
  <font-face 
    font-family="Scaly Sans Caps"
    font-weight="400"
    font-variant="small-caps"
    font-stretch="normal"
    units-per-em="1000"
    panose-1="2 0 5 3 4 0 0 2 0 4"
    ascent="800"
    descent="-200"
    x-height="478"
    cap-height="660"
    bbox="-17 -245 1200 868"
    underline-thickness="50"
    underline-position="-175"
    unicode-range="U+0020-221E"
  />
<missing-glyph 
 />
    <glyph glyph-name=".notdef" 
 />
    <glyph glyph-name=".null" horiz-adv-x="0" 
 />
    <glyph glyph-name="nonmarkingreturn" horiz-adv-x="333" 
 />
    <glyph glyph-name="space" unicode=" " horiz-adv-x="250" 
 />
    <glyph glyph-name="exclam" unicode="!" horiz-adv-x="264" 
d="M181 736l-6 -541h-76l-6 541h88zM194 44q0 -23 -17 -40t-40 -17q-21 0 -40 17q-17 19 -17 40q0 23 17 40t40 17q24 0 40 -17q17 -16 17 -40z" />
    <glyph glyph-name="dollar" unicode="$" horiz-adv-x="534" 
d="M480 616l-38 -68q-9 7 -20 12q-8 5 -16 8q-7 4 -15 7q-16 7 -18 7q-4 1 -7.5 2.5t-7.5 2.5t-6 2q-14 5 -16 5q-5 2 -17 2q-12 2 -21 2v-230q2 -1 4.5 -2.5t4.5 -3t3 -2.5q8 -4 9 -5q41 -23 66 -39q20 -11 37 -26q25 -19 38 -51q14 -29 14 -67q0 -42 -16 -77
q-15 -36 -44 -59q-4 -3 -11.5 -9t-11.5 -9q-5 -4 -24 -12q-12 -4 -30 -9q-37 -7 -39 -7v-59h-44l-1 56q-48 3 -69 7q-32 8 -49 15q-12 5 -36 17q-4 3 -20.5 13.5t-28.5 18.5l42 65q16 -10 25 -16q4 -2 19 -12q6 -3 16 -9q8 -3 15 -7q17 -7 38 -13q3 0 48 -5v240l-41 24
q-44 25 -67 42q-27 21 -44 41q-15 20 -23 41q-7 25 -7 47q0 72 47 117q49 46 135 56l1 60h44v-59q14 0 32 -2q14 0 24 -3q14 -2 22 -4q3 -1 7.5 -2t8.5 -2l8 -2q21 -6 36 -15q18 -8 44 -24zM253 390v207q-101 -18 -101 -95q0 -45 41 -72q37 -25 37 -26q2 -2 7 -5.5t8 -5.5
q5 -3 6.5 -3.5t1.5 0.5zM393 162q0 36 -9 49q-5 9 -61 54q-14 13 -25 13v-215q46 9 70 35q25 25 25 64z" />
    <glyph glyph-name="percent" unicode="%" horiz-adv-x="850" 
d="M384 495q0 -37 -14 -68q-14 -33 -37 -56t-56 -38q-30 -13 -68 -13q-34 0 -68 14q-36 17 -56 37t-37 56q-14 34 -14 68q0 35 14 68q15 33 38 56q25 25 55 38q31 14 68 14q39 0 68 -14q30 -12 56 -38t38 -56q13 -27 13 -68zM744 692l-572 -736h-69l572 736h69zM816 162
q0 -37 -14 -68q-14 -32 -38 -56q-22 -22 -55 -37q-33 -14 -68 -14q-34 0 -68 14q-34 16 -56 38q-23 23 -38 55q-13 32 -13 68q0 35 14 68q16 35 37 56q25 24 56 38q29 13 68 13t68 -14q32 -13 56 -37t37 -56q14 -29 14 -68zM324 495q0 24 -9 45q-9 22 -25 36q-14 16 -36 25
q-21 9 -45 9t-45 -9q-19 -8 -36 -25q-14 -14 -24 -37q-9 -21 -9 -44q0 -24 9 -45q8 -18 25 -37q18 -16 36 -24q21 -9 44 -9q24 0 45 9t37 25q15 15 24 36t9 45zM755 162q0 24 -9 45q-10 23 -25 37q-13 14 -36 24q-21 9 -44 9q-24 0 -45 -9t-37 -25q-15 -15 -24 -36t-9 -45
t9 -45q7 -16 25 -36q18 -16 36 -24q21 -9 45 -9t45 9q19 8 36 25q15 15 24 36t9 44z" />
    <glyph glyph-name="ampersand" unicode="&#x26;" horiz-adv-x="625" 
d="M619 65q-4 -5 -9 -11t-8 -10t-6 -7q-10 -12 -18 -18q-35 -29 -82 -29q-33 0 -57 12q-23 12 -47 41q-37 -28 -77 -41q-39 -12 -87 -12q-37 0 -67 9q-28 8 -51 25q-20 16 -33 38q-11 21 -11 47q0 19 3 35q2 15 13 34t28 33q22 19 48 33l35 19q-17 17 -41 48q-20 28 -20 55
q0 23 10 46q10 22 29 39q18 16 47 26q24 9 63 9q66 0 101 -32q36 -30 36 -87q0 -30 -16 -47q-14 -17 -57 -40l-17 -9l-39 43l18 9q20 11 27 17q12 9 12 25q1 24 -16 44q-16 20 -51 20q-39 0 -56 -20t-17 -41q0 -6 2 -16q1 -2 2.5 -7t3.5 -8t6.5 -9.5t7.5 -9.5q2 -2 10 -11
t14 -16l149 -165q15 14 27 24q14 14 18 22q7 11 10 27q3 15 3 36h64q0 -29 -7 -55q-7 -25 -16 -37q-12 -17 -25 -30q-22 -20 -35 -30q8 -7 19 -18q2 -1 7.5 -5t8.5 -6q7 -2 15 -4q3 0 8 -0.5t8 -0.5q19 0 35 11q21 15 38 36zM352 86l-121 134l-22 -13q-20 -12 -32 -21
t-19 -20q-8 -14 -10 -22t-2 -27q0 -13 8 -26q10 -13 19 -20q6 -5 25 -13q17 -5 27 -5q5 0 15 0.5t15 0.5l30 3q9 2 32 10q17 7 35 19z" />
    <glyph glyph-name="parenleft" unicode="(" horiz-adv-x="363" 
d="M349 -245h-75q-4 6 -12 15.5t-10 12.5q-4 5 -17 27q-2 5 -8 16t-9 17q-6 13 -20 48q-34 80 -52 160q-16 76 -16 162q0 81 17 160q19 84 51 161q4 10 8.5 20t8.5 19.5t6 14.5q8 18 17 33q2 3 7 11.5t8 11.5q6 7 21 22h75q-29 -33 -55 -87q-27 -57 -43 -112
q-17 -57 -28 -127q-10 -73 -10 -130q0 -58 10 -131q11 -69 28 -127q16 -54 43 -111q25 -50 55 -86z" />
    <glyph glyph-name="parenright" unicode=")" horiz-adv-x="363" 
d="M241 213q0 -85 -16 -159q-14 -69 -52 -163q-7 -17 -20 -46q-2 -3 -7.5 -15t-8.5 -18q-5 -11 -18 -27q-3 -4 -10 -14t-12 -16h-75q33 40 55 86q23 47 43 112q20 69 28 126q10 63 10 131t-10 131q-8 61 -28 127q-18 63 -43 112q-22 48 -55 86h75q15 -15 21 -22q7 -7 16 -23
q3 -4 16 -34q1 -2 9.5 -21t13.5 -32q35 -82 52 -162q16 -68 16 -159z" />
    <glyph glyph-name="asterisk" unicode="*" 
d="M287 660l-7 -169h-58l-6 169h71zM474 471l-162 -46l-19 56l159 58zM206 481l-19 -56l-162 46l22 68zM410 274l-57 -42l-94 140l47 35zM242 372l-94 -140l-58 42l104 132z" />
    <glyph glyph-name="plus" unicode="+" horiz-adv-x="550" 
d="M512 208h-209v-208h-56v208h-209v57h209v209h56v-209h209v-57z" />
    <glyph glyph-name="comma" unicode="," horiz-adv-x="252" 
d="M176 36q0 -17 -2 -26q-2 -17 -6 -27q-7 -25 -16 -45q-7 -16 -30 -59l-13 -24h-44q9 19 11 27q10 26 11 30q3 10 6 18q2 6 4 14q1 3 2 7.5t1 5.5q2 5 4 17l-43 108q16 12 29 15q9 3 29 3q57 0 57 -64z" />
    <glyph glyph-name="hyphen" unicode="-" horiz-adv-x="276" 
d="M233 190h-191v76h191v-76z" />
    <glyph glyph-name="period" unicode="." horiz-adv-x="251" 
d="M182 45q0 -24 -17 -41q-16 -16 -39 -16q-22 0 -41 17q-16 17 -16 40t17 40q16 16 40 16t40 -17q16 -15 16 -39z" />
    <glyph glyph-name="slash" unicode="/" horiz-adv-x="409" 
d="M364 660l-252 -905h-69l252 905h69z" />
    <glyph glyph-name="zero" unicode="0" 
d="M476 334q0 -79 -16 -143q-14 -61 -46 -110q-30 -45 -70 -71q-40 -25 -89 -25q-47 0 -90 26q-39 26 -69 71q-29 47 -45 110q-16 70 -16 142q0 75 16 142q17 65 45 110q29 45 70 71q39 25 89 25q51 0 90 -26q40 -24 70 -71q30 -45 45 -109q16 -61 16 -142zM388 334
q0 63 -10 112q-9 49 -27 86q-19 37 -42 55q-22 19 -55 19q-30 0 -54 -20q-23 -18 -41 -55q-17 -37 -27 -86q-9 -49 -9 -111q0 -55 10 -112q12 -56 27 -86q17 -34 42 -56q25 -19 54 -19t54 20t42 55q18 36 27 87q9 44 9 111z" />
    <glyph glyph-name="one" unicode="1" horiz-adv-x="499" 
d="M304 0h-82v585h-138v75h220v-660z" />
    <glyph glyph-name="two" unicode="2" 
d="M445 0h-399v39l160 200q16 19 44 57q37 53 41 59q19 29 23 37q7 12 15 32q4 10 8 30q2 10 2 32q0 52 -25 78q-24 27 -70 27q-36 0 -63 -14q-8 -4 -17 -10q-10 -6 -16 -11q-7 -5 -22 -18q-1 0 -13 -11t-20 -18l-50 57q12 10 21 18q12 10 19 15q41 32 82 48q40 15 86 15
q80 0 124 -47q45 -47 45 -130q0 -19 -3 -37q-5 -27 -7 -32q-11 -32 -36 -73q-17 -29 -55 -79l-151 -189h277v-75z" />
    <glyph glyph-name="three" unicode="3" 
d="M409 206q0 -47 -17 -85q-15 -36 -47 -68q-31 -29 -70 -46q-39 -16 -86 -16q-13 0 -33 2q-4 1 -10 2t-11 2l-10 2q-4 2 -15 5.5t-18 6.5l-40 20l32 70q32 -16 37 -19l15 -6t14 -6q5 -2 14.5 -4t10.5 -2q16 -2 23 -2q25 0 50 10q22 10 39 28q16 16 26 43q9 22 9 54
q0 52 -32 81q-32 30 -87 30h-44v57q30 13 31 13q10 5 23 13q15 11 19 14q12 12 18 19q21 22 30 47q10 24 10 49q0 36 -19 55q-17 20 -50 20q-16 0 -24 -2q-9 -1 -24 -8q-15 -8 -27 -17q-26 -18 -37 -27l-44 56q15 12 28 22q4 3 22 15q9 6 18 10q14 7 17 8q39 16 89 16
q64 0 101 -38q38 -37 38 -99q0 -28 -7 -50q-5 -21 -22 -47q-2 -3 -6.5 -9t-6.5 -9q-8 -10 -13 -15q-4 -4 -16 -14q-3 -2 -10 -7.5t-12 -8.5q58 -8 91 -53q33 -43 33 -112z" />
    <glyph glyph-name="four" unicode="4" 
d="M455 170h-82v-170h-75v170h-271v50l296 440h50v-421h82v-69zM298 239v258l-176 -258h176z" />
    <glyph glyph-name="five" unicode="5" 
d="M413 213q0 -49 -15 -91q-14 -40 -42 -71q-26 -29 -65 -47q-39 -17 -81 -17q-35 0 -68 9q-4 1 -12 3.5t-12 3.5q-3 1 -9.5 3.5t-10.5 4.5q-6 4 -22 12q-4 3 -12.5 7.5t-13.5 7.5l38 69q8 -5 21 -12.5t15 -9.5q6 -3 16 -7.5t12 -5.5q9 -3 25 -7q16 -2 26 -2q28 0 53 11
q26 12 41 30q19 22 27 45q10 26 10 58q0 107 -94 137q-6 2 -26 7q-15 4 -27 5q-10 2 -33 2h-46h-7v302h289v-75h-208v-158q29 -1 59 -5q26 -3 44 -9t34 -15q17 -10 29 -21q65 -56 65 -164z" />
    <glyph glyph-name="six" unicode="6" 
d="M460 215q0 -50 -15 -92q-16 -45 -40 -73q-27 -31 -60 -48t-77 -17q-100 0 -156 80q-54 81 -54 228q0 92 21 158q21 67 65 120q38 44 85 67q8 4 33 14q11 4 35 8q25 4 43 5q8 1 56 1l20 -1v-73h-9q-36 0 -51 -2q-26 -2 -39 -4q-15 -3 -33 -9q-20 -8 -31 -14
q-17 -8 -30 -19q-13 -10 -25 -25q-10 -12 -19 -28q-7 -14 -13 -30q-2 -6 -11 -39q-4 -20 -9 -53q47 18 85 24q35 7 71 7q75 0 116 -50q42 -48 42 -135zM378 208q0 59 -26 89q-25 32 -72 32q-30 0 -62 -8q-36 -7 -75 -22q6 -239 127 -239q24 0 43 12q20 11 35 31q15 21 22 46
q8 24 8 59z" />
    <glyph glyph-name="seven" unicode="7" 
d="M459 610l-120 -308q-15 -40 -28 -70q-9 -21 -25 -57q-12 -26 -19 -39q-5 -10 -21 -40q-10 -18 -28 -47q-5 -9 -17.5 -30t-18.5 -32l-69 44q14 21 30 47q12 19 20 33q9 15 27 50q5 10 14.5 30t14.5 30q2 4 28 62q9 20 23 56l95 246h-277v75h371v-50z" />
    <glyph glyph-name="eight" unicode="8" 
d="M450 164q0 -42 -16 -75q-15 -34 -43 -57q-25 -22 -66 -38q-38 -13 -86 -13q-41 0 -77 12q-30 10 -61 34q-27 24 -41 50q-14 28 -14 63q0 34 20 68q22 37 71 84l55 54l-68 63q-24 22 -39 53q-13 30 -13 64q0 33 14 63q14 28 38 49q23 20 58 33q32 11 72 11q74 0 115 -40
q43 -39 43 -106q0 -35 -12 -62t-42 -57l-58 -59l70 -57q24 -18 39 -36q14 -14 24 -32q11 -18 13 -32q4 -15 4 -37zM332 537q0 32 -25 53q-24 21 -60 21q-39 0 -65 -24q-24 -24 -24 -61q0 -18 8 -37q10 -19 26 -36l52 -56l45 48q19 20 31 46q12 27 12 46zM362 152
q0 28 -11 45q-12 22 -39 44l-70 62l-58 -63q-26 -29 -40 -53q-11 -22 -11 -46q0 -37 31 -63q32 -24 81 -24q51 0 84 27t33 71z" />
    <glyph glyph-name="nine" unicode="9" 
d="M452 358q0 -90 -21 -158q-22 -68 -65 -120q-35 -43 -84 -67q-22 -10 -34 -14q-12 -5 -35 -8q-7 -1 -22 -2.5t-21 -2.5q-16 -1 -56 -1h-20v74h10q23 0 51 2q7 1 19.5 2t18.5 2q16 3 32 9q24 10 32 14q32 14 55 44q11 12 19 27q4 7 13 31q7 22 11 39q2 9 9 53
q-44 -15 -85 -25q-34 -7 -71 -7q-72 0 -116 50q-42 51 -42 135q0 50 15 92q16 45 40 73q28 33 61 48q34 17 76 17q103 0 156 -80q54 -77 54 -227zM367 352q-6 239 -127 239q-22 0 -43 -12q-23 -14 -35 -31q-12 -16 -22 -47q-8 -29 -8 -58q0 -55 26 -89q27 -32 72 -32
q24 0 62 8q41 10 75 22z" />
    <glyph glyph-name="colon" unicode=":" horiz-adv-x="251" 
d="M182 409q0 -24 -17 -41q-16 -16 -39 -16q-22 0 -41 17q-16 17 -16 40t17 40q16 16 40 16t40 -17q16 -15 16 -39zM182 45q0 -24 -17 -41q-16 -16 -39 -16q-22 0 -41 17q-16 17 -16 40t17 40q16 16 40 16t40 -17q16 -15 16 -39z" />
    <glyph glyph-name="semicolon" unicode=";" horiz-adv-x="251" 
d="M183 409q0 -24 -17 -41q-16 -16 -40 -16q-21 0 -40 17q-16 17 -16 40t17 40q16 16 39 16q25 0 41 -17q16 -15 16 -39zM176 36q0 -26 -8 -53q-7 -25 -16 -45q-7 -16 -30 -59l-14 -24h-44q9 17 12 27q4 11 10 30q2 4 4.5 10.5t2.5 7.5q2 6 4 14q1 3 2 7.5t1 5.5q2 5 4 17
l-43 108q17 12 28 15q8 3 30 3q57 0 57 -64z" />
    <glyph glyph-name="less" unicode="&#x3c;" horiz-adv-x="550" 
d="M511 0l-472 210v54l472 210v-63l-396 -174l396 -174v-63z" />
    <glyph glyph-name="equal" unicode="=" horiz-adv-x="550" 
d="M525 273h-500v57h500v-57zM525 134h-500v57h500v-57z" />
    <glyph glyph-name="greater" unicode="&#x3e;" horiz-adv-x="550" 
d="M511 210l-472 -210v63l396 174l-396 174v63l472 -210v-54z" />
    <glyph glyph-name="question" unicode="?" horiz-adv-x="418" 
d="M365 446q0 -40 -10 -66q-9 -27 -32 -50q-8 -8 -20 -18q-10 -6 -18 -10q-3 -1 -11 -2.5t-10 -2.5q-8 -1 -29 -1h-51v-107h-75v176h151q15 22 22 39q5 14 5 40q0 44 -15 81q-15 38 -41 66q-27 30 -64 47q-34 18 -83 24l25 76q24 -5 38 -9q20 -4 29 -8q17 -6 23 -9
q9 -4 23 -12q33 -18 59 -47q27 -27 45 -60q21 -35 29 -71q10 -36 10 -76zM203 45q0 -24 -17 -41q-16 -16 -39 -16q-22 0 -41 17q-16 17 -16 40t17 40q16 16 40 16t40 -17q16 -15 16 -39z" />
    <glyph glyph-name="A" unicode="A" horiz-adv-x="595" 
d="M587 0h-88l-68 195h-267l-68 -195h-88l246 679h88zM405 270l-107 302l-108 -302h215z" />
    <glyph glyph-name="B" unicode="B" horiz-adv-x="591" 
d="M532 176q0 -40 -13 -72q-11 -30 -37 -56q-22 -22 -56 -36q-33 -12 -73 -12h-244v660h214q48 0 78 -9q31 -9 54 -32q25 -24 38 -55q14 -29 14 -66q0 -54 -30 -94q-31 -41 -83 -58q66 -12 102 -57q36 -43 36 -113zM420 491q0 49 -27 76q-11 14 -32 19q-15 5 -57 5h-113
v-214h107q15 0 31 2q3 1 11.5 2.5t12.5 2.5q13 5 19 9q9 6 16 13q32 32 32 85zM445 182q0 59 -37 89q-35 31 -104 31h-113v-233h113q46 0 67 6q23 6 39 19q18 16 26 38q9 21 9 50z" />
    <glyph glyph-name="C" unicode="C" horiz-adv-x="605" 
d="M582 609l-41 -62q-35 26 -76 38q-38 12 -86 12q-53 0 -97 -19q-43 -18 -76 -54q-31 -34 -49 -82t-18 -104q0 -62 18 -113q17 -49 52 -87q34 -35 81 -56q47 -19 105 -19q37 0 77 7q36 8 75 24l23 -64q-10 -4 -26 -12q-3 -1 -10 -3.5t-11 -4.5q-6 -2 -20 -6q-6 -2 -22 -6
q-23 -6 -47 -9q-14 -2 -44 -2q-74 0 -138 26q-63 27 -107 71q-44 45 -70 110q-25 67 -25 139q0 71 26 134q29 67 70 108q43 45 105 71q59 26 131 26q68 0 124 -22q8 -2 20 -8q10 -3 17 -8q12 -6 18 -10q4 -2 21 -15z" />
    <glyph glyph-name="D" unicode="D" horiz-adv-x="711" 
d="M661 333q0 -67 -23 -127q-22 -60 -66 -110q-46 -52 -102 -74q-60 -22 -142 -22h-219v660h220q74 0 133 -25q62 -24 106 -68q45 -44 69 -103q24 -56 24 -131zM575 334q0 58 -20 102q-20 50 -54 82q-32 34 -82 54q-43 19 -103 19h-125v-522h125q64 0 106 14q40 14 72 46
q17 18 33 44q18 31 26 51q8 17 16 55q6 29 6 55z" />
    <glyph glyph-name="E" unicode="E" horiz-adv-x="539" 
d="M489 0h-380v660h371v-69h-289v-220h239v-69h-239v-233h298v-69z" />
    <glyph glyph-name="F" unicode="F" horiz-adv-x="522" 
d="M480 591h-289v-226h239v-70h-239v-295h-82v660h371v-69z" />
    <glyph glyph-name="G" unicode="G" horiz-adv-x="708" 
d="M616 25q-6 -2 -15.5 -5.5t-12.5 -4.5q-8 -2 -20 -6q-35 -11 -79 -17q-37 -5 -87 -5q-74 0 -139 27q-65 28 -112 72q-47 45 -74 109q-27 63 -27 136t27 136q27 64 73 108q47 45 110 71q60 25 139 25q40 0 73 -4q36 -3 64 -11q26 -7 38 -13q7 -3 42 -22l-31 -68
q-14 9 -21 11l-14 7q-32 14 -66 19q-34 7 -77 7q-72 0 -118 -20q-47 -19 -86 -64q-30 -36 -48 -82q-17 -46 -17 -94q0 -58 22 -111q22 -51 60 -87q39 -36 91 -57q54 -21 114 -21q26 0 47 3q16 2 62 11v220h82v-270z" />
    <glyph glyph-name="H" unicode="H" horiz-adv-x="771" 
d="M662 0h-82v302h-389v-302h-82v660h82v-283h389v283h82v-660z" />
    <glyph glyph-name="I" unicode="I" horiz-adv-x="300" 
d="M191 0h-82v660h82v-660z" />
    <glyph glyph-name="J" unicode="J" horiz-adv-x="300" 
d="M191 -19q-9 -32 -11 -37q-3 -10 -11 -28q-1 -3 -5 -12t-7 -14q-5 -9 -17 -27q-2 -2 -8 -11.5t-9 -14.5t-9 -12.5t-8 -9.5q-12 -14 -20 -22q-6 -7 -27 -26l-53 45q7 8 17 19.5t12 13.5q8 10 20 24q12 16 14 19t10 19q14 29 22 67q8 35 8 83v603h82v-679z" />
    <glyph glyph-name="K" unicode="K" horiz-adv-x="571" 
d="M562 0h-101l-264 333l258 327h94l-258 -321zM191 0h-82v660h82v-660z" />
    <glyph glyph-name="L" unicode="L" horiz-adv-x="495" 
d="M486 0h-377v660h82v-591h295v-69z" />
    <glyph glyph-name="M" unicode="M" horiz-adv-x="878" 
d="M769 0h-82v578q-1 -3 -2.5 -11t-2.5 -11q-1 -6 -5 -18q-3 -8 -7 -18q-7 -20 -8 -23l-195 -497h-75l-182 484q-1 3 -4.5 11.5t-5.5 11.5q-2 7 -6 19q-1 3 -2.5 10t-2.5 10q-1 5 -2.5 14t-2.5 12v-572h-75v660h113l201 -528q8 -20 9 -28q2 -6 4 -22q2 10 5 28q1 3 3 10
t4 12l208 528h113v-660z" />
    <glyph glyph-name="N" unicode="N" horiz-adv-x="759" 
d="M650 -6h-95l-333 515q-1 4 -6 10q-4 8 -7 13q-4 8 -5 9l-3 6l-5 10q0 2 -1 4t-2 5.5t-2 5.5v-572h-82v660h107l327 -503q1 -1 5 -7q2 -2 4 -9q1 -2 2.5 -6t2.5 -6q2 -2 7 -18q2 -2 2 -5q0 -1 1 -2.5t1 -2.5v559h82v-666z" />
    <glyph glyph-name="O" unicode="O" horiz-adv-x="763" 
d="M713 330q0 -76 -25 -138q-23 -61 -69 -108q-46 -46 -105 -72q-59 -25 -132 -25q-70 0 -133 26q-62 28 -105 71q-44 47 -69 109q-25 66 -25 137t25 137q26 65 69 109q43 45 105 71q57 25 133 25q75 0 133 -26q61 -25 105 -71q45 -45 69 -108q24 -59 24 -137zM623 330
q0 57 -19 105q-17 48 -52 86q-33 37 -77 58q-41 21 -93 21q-50 0 -94 -22q-45 -22 -77 -58q-33 -36 -52 -86q-19 -52 -19 -104t19 -106q19 -49 52 -86q32 -35 77 -58q45 -21 94 -21q47 0 93 22q44 22 77 58q35 40 52 86q19 50 19 105z" />
    <glyph glyph-name="P" unicode="P" horiz-adv-x="556" 
d="M528 465q0 -53 -17 -93q-17 -41 -47 -70q-31 -29 -74 -45q-44 -15 -97 -15q-3 0 -9.5 0.5t-9.5 0.5q-6 1 -20 1q-9 1 -26 3q-4 1 -37 3v-250h-82v660h207q61 0 97 -12q39 -13 64 -40q27 -26 39 -61q12 -31 12 -82zM443 460q0 67 -37 103q-16 16 -39 22q-19 6 -63 6h-113
v-272q12 -1 30 -3t23 -2q7 0 18.5 -0.5t16.5 -0.5q52 0 86 13q36 15 57 51t21 83z" />
    <glyph glyph-name="Q" unicode="Q" horiz-adv-x="763" 
d="M713 329q0 -68 -20 -122q-20 -58 -55 -102q-34 -42 -87 -75q-51 -30 -114 -42q3 -4 6 -7.5t6 -7.5t4 -5q10 -10 17 -18q28 -28 54 -48q9 -6 25 -18l24 -15q15 -7 29 -15q4 -2 17.5 -7.5t21.5 -9.5l-46 -63q-32 18 -42 23q-5 3 -16 9.5t-17 9.5q-5 3 -14 9.5t-14 9.5
q-4 3 -13.5 10t-14.5 11t-15.5 13t-15.5 13q-9 9 -27 25q-4 5 -13 14t-13 14q-2 2 -27 35l-14 17q-23 5 -26 5q-7 2 -19 4l-15 3q-2 1 -8 2.5t-8 2.5q-48 17 -86 49q-36 31 -68 75q-26 40 -44 95q-15 53 -15 107q0 71 25 137q27 67 69 109q43 45 105 71q57 25 133 25
q75 0 133 -26q61 -25 105 -71q44 -44 69 -109q24 -59 24 -137zM624 330q0 57 -19 105q-17 48 -52 86q-33 37 -77 58q-41 21 -94 21q-50 0 -94 -22q-45 -22 -77 -58q-32 -35 -53 -86q-19 -48 -19 -104q0 -52 19 -106q19 -49 52 -86q32 -35 78 -58q45 -21 94 -21q48 0 94 22
q44 22 77 58q35 40 52 86q19 50 19 105z" />
    <glyph glyph-name="R" unicode="R" horiz-adv-x="584" 
d="M555 0h-94l-182 283h-88v-283h-82v660h201q30 0 53 -3q27 -3 41 -8q22 -7 33 -15q18 -11 29 -23q25 -23 38 -57q14 -31 14 -72q0 -39 -15 -75q-15 -35 -43 -62q-18 -18 -42 -31q-20 -10 -58 -19zM430 481q0 63 -36 91q-10 8 -16 10q-4 3 -18 6q-10 3 -25 3h-37h-107v-239
h107q132 0 132 129z" />
    <glyph glyph-name="S" unicode="S" horiz-adv-x="534" 
d="M480 616l-38 -68q-32 19 -40 22q-14 8 -29 12q-22 8 -45 10q-23 4 -46 4q-57 0 -92 -26q-34 -25 -34 -67q0 -15 7 -33q8 -17 24 -31q19 -16 50 -35q10 -5 37 -20.5t45 -25.5q69 -35 104 -67q25 -20 38 -52q13 -27 13 -68q0 -85 -59 -135q-58 -49 -158 -49q-64 0 -122 22
q-12 5 -36 17q-4 3 -20.5 13.5t-28.5 18.5l42 65q7 -5 22.5 -15t21.5 -13q5 -3 32 -15q46 -17 95 -17q58 0 92 26q33 27 33 74q0 31 -10 47q-16 33 -56 54q-6 5 -36 19q-28 16 -74 40q-75 41 -108 81q-33 42 -33 92q0 37 16 72q17 33 44 55q31 25 69 36q37 12 89 12
q33 0 57 -4q28 -3 54 -12q21 -6 36 -15q18 -8 44 -24z" />
    <glyph glyph-name="T" unicode="T" horiz-adv-x="539" 
d="M530 591h-220v-591h-82v591h-220v69h522v-69z" />
    <glyph glyph-name="U" unicode="U" horiz-adv-x="700" 
d="M608 226q0 -66 -18 -108q-19 -44 -58 -76q-76 -61 -181 -61q-106 0 -182 61q-42 34 -60 77q-17 41 -17 107v434h82v-409q0 -24 2 -52q1 -4 2.5 -17t2.5 -19q5 -15 12 -27q17 -23 19 -25q51 -57 138 -57t138 57q15 17 20 25q7 10 11 28q5 17 6 36q1 7 1 51v409h82v-434z
" />
    <glyph glyph-name="V" unicode="V" horiz-adv-x="583" 
d="M574 660l-256 -677h-50l-260 677h88l195 -515q5 -11 7 -32q0 7 2 17q1 3 2 7.5t2 7.5l188 515h82z" />
    <glyph glyph-name="W" unicode="W" horiz-adv-x="864" 
d="M856 660l-250 -673h-51l-119 312l-120 -312h-44l-264 673h88l202 -545l104 271l-104 274h75l66 -173l67 173h68l-101 -262l108 -282l194 544h81z" />
    <glyph glyph-name="X" unicode="X" horiz-adv-x="572" 
d="M563 0h-94l-182 269l-184 -269h-95l231 337l-220 323h94l175 -254l173 254h93l-221 -324z" />
    <glyph glyph-name="Y" unicode="Y" horiz-adv-x="550" 
d="M542 660l-232 -352v-308h-82v302l-220 358h88l177 -283l182 283h87z" />
    <glyph glyph-name="Z" unicode="Z" horiz-adv-x="595" 
d="M554 0h-512v38l382 553h-382v69h494v-44l-382 -547h400v-69z" />
    <glyph glyph-name="bracketleft" unicode="[" horiz-adv-x="250" 
d="M237 -245h-164v905h164v-56h-88v-793h88v-56z" />
    <glyph glyph-name="backslash" unicode="\" horiz-adv-x="409" 
d="M364 -245h-69l-252 905h69z" />
    <glyph glyph-name="bracketright" unicode="]" horiz-adv-x="250" 
d="M177 -245h-164v56h88v793h-88v56h164v-905z" />
    <glyph glyph-name="underscore" unicode="_" 
d="M500 -57h-500v57h500v-57z" />
    <glyph glyph-name="grave" unicode="`" horiz-adv-x="383" 
d="M258 519h-69l-113 163h88z" />
    <glyph glyph-name="a" unicode="a" horiz-adv-x="516" 
d="M490 0h-75l-55 133h-205l-54 -133h-76l195 490h75zM339 195l-81 214l-82 -214h163z" />
    <glyph glyph-name="b" unicode="b" horiz-adv-x="495" 
d="M444 130q0 -31 -11 -53q-10 -23 -31 -41q-17 -16 -48 -27q-27 -9 -60 -9h-202v478h176q154 0 154 -118q0 -43 -23 -72q-22 -29 -60 -37q48 -8 77 -41q28 -31 28 -80zM345 349q0 37 -20 51q-19 15 -69 15h-88v-138h81q7 0 16.5 0.5t12.5 0.5t9 0.5t9 1.5l12 4q4 2 12 8
q25 21 25 57zM364 138q0 21 -7 35q-6 17 -21 26q-18 13 -42 15h-38h-88v-151h88h30q4 0 10.5 0.5t8.5 0.5q8 1 12 4q8 4 13 6q16 10 25 27q9 18 9 37z" />
    <glyph glyph-name="c" unicode="c" horiz-adv-x="516" 
d="M484 441l-36 -58q-11 8 -26 18q-8 5 -22 10q-14 6 -37 9q-14 3 -41 3q-42 0 -75 -13q-31 -11 -57 -37q-23 -23 -38 -56q-13 -32 -13 -72q0 -41 15 -79q15 -36 42 -63q28 -26 62 -38q36 -12 88 -12q6 0 16 0.5t14 0.5q16 2 25 4q8 2 24 8q4 2 13 5.5t14 6.5l22 -56
q-40 -16 -75 -24q-39 -7 -68 -7q-56 0 -110 19q-53 21 -86 51q-33 31 -56 79q-20 48 -20 101q0 51 20 97q22 47 56 78q38 35 84 52q48 19 105 19q50 0 84 -11q34 -9 76 -35z" />
    <glyph glyph-name="d" unicode="d" horiz-adv-x="609" 
d="M559 239q0 -46 -19 -93q-18 -47 -50 -80t-80 -50q-51 -16 -117 -16h-176v478h176q70 0 117 -16q47 -15 81 -50q17 -17 28 -36q12 -18 21 -43q10 -25 14 -48q5 -20 5 -46zM479 240q0 45 -17 80q-16 37 -47 62q-13 11 -23 16q-11 7 -27 10q-15 5 -34 6q-6 1 -44 1h-94v-352
h88q51 0 81 8q33 10 54 27q30 24 46 62q17 37 17 80z" />
    <glyph glyph-name="e" unicode="e" horiz-adv-x="478" 
d="M419 0h-302v478h296v-63h-220v-138h182v-63h-182v-151h226v-63z" />
    <glyph glyph-name="f" unicode="f" horiz-adv-x="463" 
d="M413 415h-220v-145h182v-63h-182v-207h-76v478h296v-63z" />
    <glyph glyph-name="g" unicode="g" horiz-adv-x="624" 
d="M524 19q-5 -1 -13 -3.5t-10 -3.5q-3 -1 -8 -2t-8 -2q-26 -6 -72 -13q-43 -5 -69 -5q-59 0 -114 19q-50 19 -90 53q-38 35 -60 79q-21 47 -21 99q0 53 21 98q20 43 58 78q40 35 88 52q47 18 111 18q30 0 60 -3q35 -3 50 -8q17 -4 32 -11q24 -10 39 -18l-32 -63
q-22 13 -33 18q-25 11 -55 17q-25 6 -59 6q-45 0 -80 -14q-37 -14 -63 -37q-27 -24 -42 -57t-15 -72t17 -76q19 -37 46 -61q29 -25 69 -40q38 -14 85 -14q12 0 38 2q45 6 54 8v151h76v-195z" />
    <glyph glyph-name="h" unicode="h" horiz-adv-x="687" 
d="M570 0h-75v214h-302v-214h-76v478h76v-201h302v201h75v-478z" />
    <glyph glyph-name="i" unicode="i" horiz-adv-x="310" 
d="M193 0h-76v478h76v-478z" />
    <glyph glyph-name="j" unicode="j" horiz-adv-x="291" 
d="M174 -13q-6 -17 -12 -30q-1 -4 -11 -23q-2 -4 -5.5 -10t-5.5 -10q-2 -2 -5.5 -8.5t-6.5 -10.5q-2 -3 -6 -8.5t-6 -8.5q-1 -2 -3.5 -4.5t-4.5 -5t-4 -5.5t-7.5 -9t-8.5 -9l-21 -21l-53 40q12 15 21 24q3 3 8 8.5t7 8.5q5 6 11 14q2 3 9 14q16 26 22 54q6 24 6 76v415h76
v-491z" />
    <glyph glyph-name="k" unicode="k" horiz-adv-x="534" 
d="M507 0h-107l-201 239l195 239h101l-202 -239zM193 0h-76v478h76v-478z" />
    <glyph glyph-name="l" unicode="l" horiz-adv-x="436" 
d="M419 0h-302v478h76v-415h226v-63z" />
    <glyph glyph-name="m" unicode="m" horiz-adv-x="763" 
d="M645 0h-75v381q-2 -8 -8 -29q-5 -15 -11 -27l-147 -325h-60l-132 305q-8 19 -13 32q-3 13 -6 31v-368h-76v478h97l155 -353q6 -10 6 -17q1 -6 3 -21q1 5 2.5 11t1.5 7q1 3 3 9.5t3 10.5l161 353h96v-478z" />
    <glyph glyph-name="n" unicode="n" horiz-adv-x="668" 
d="M551 -6h-69l-270 345q-16 22 -18 25q-1 2 -7 19v-383h-70v478h76l270 -340q7 -8 12 -21q5 -11 7 -23v384h69v-484z" />
    <glyph glyph-name="o" unicode="o" horiz-adv-x="647" 
d="M589 239q0 -56 -20 -100q-20 -46 -55 -78q-34 -32 -84 -52q-48 -18 -106 -18q-55 0 -107 19q-51 21 -84 51q-32 29 -55 79q-19 45 -19 99t20 100q21 47 55 78q38 35 84 52q46 18 106 18q59 0 106 -19q50 -18 84 -51q36 -33 55 -79q20 -43 20 -99zM508 239q0 42 -14 73
q-14 35 -39 59q-23 24 -58 38q-31 14 -73 14q-41 0 -73 -14q-34 -14 -59 -39q-24 -24 -39 -58q-14 -34 -14 -73q0 -37 14 -73q15 -34 39 -59q25 -24 59 -39q36 -14 73 -14q39 0 73 14q35 15 59 39q23 23 38 59q14 32 14 73z" />
    <glyph glyph-name="p" unicode="p" horiz-adv-x="495" 
d="M458 331q0 -33 -12 -61t-34 -48q-20 -18 -53 -31q-31 -11 -66 -11q-28 0 -58 3q-20 2 -42 7v-190h-76v478h166q87 0 131 -38q44 -37 44 -109zM382 334q0 44 -25 62q-23 19 -82 19h-82v-162q18 -3 34 -6q34 -4 58 -4q43 0 71 25q26 25 26 66z" />
    <glyph glyph-name="q" unicode="q" horiz-adv-x="647" 
d="M589 239q0 -92 -53 -155q-53 -64 -150 -89q2 -2 8.5 -10.5t10.5 -11.5q11 -11 16 -17q3 -2 8.5 -6.5t8.5 -7.5q12 -8 20 -13q5 -3 11.5 -8t8.5 -6q3 -2 10.5 -6t9.5 -5q4 -2 11.5 -5t11.5 -5q6 -2 30 -12l-41 -53q-24 10 -37 15q-10 5 -28 13q-12 7 -23 13q-4 3 -12.5 8
t-10.5 6q-33 25 -54 44q-21 21 -55 63q-32 6 -53 12q-28 8 -40 14q-19 10 -34 19q-11 9 -31 27q-35 37 -54 80q-19 47 -19 96q0 54 20 100q21 47 55 78q38 35 84 52q46 18 106 18q59 0 106 -19q50 -18 84 -51q36 -33 55 -79q20 -43 20 -99zM508 239q0 42 -14 73
q-14 35 -39 59q-23 24 -58 38q-31 14 -73 14q-41 0 -73 -14q-34 -14 -59 -39q-24 -24 -39 -58q-14 -34 -14 -73q0 -37 14 -73q15 -34 39 -59q25 -24 59 -39q36 -14 73 -14q39 0 73 14q35 15 59 39q23 23 38 59q14 32 14 73z" />
    <glyph glyph-name="r" unicode="r" horiz-adv-x="513" 
d="M476 0h-88l-126 195h-69v-195h-76v478h161q89 0 133 -35q45 -33 45 -101q0 -57 -31 -95q-28 -37 -81 -46zM374 339q0 43 -29 63q-6 4 -11 7q-6 4 -13 4q-10 2 -20 2h-33h-75v-157h75q6 0 16 0.5t14 0.5t11 0.5t10 1.5q9 3 15 6q1 1 14 11q26 23 26 61z" />
    <glyph glyph-name="s" unicode="s" horiz-adv-x="464" 
d="M402 446l-27 -63q-17 13 -31 18q-8 4 -29 11q-34 10 -67 10q-46 0 -72 -16q-26 -15 -26 -43q0 -16 6 -25l12 -15q2 -2 9 -6.5t11 -7.5q3 -2 15 -8l20 -10q22 -10 56 -28q32 -15 57 -32q22 -14 36 -31q14 -14 20 -33q6 -18 6 -40q0 -65 -47 -100q-47 -36 -127 -36
q-56 0 -98 15q-5 2 -14.5 6.5t-14.5 6.5q-3 2 -16 9.5t-23 13.5l34 65q32 -22 36 -25q13 -7 26 -13q42 -16 79 -16q41 0 66 17q23 17 23 47q0 25 -13 41q-11 16 -41 30l-87 42q-54 27 -81 57q-25 31 -25 69q0 60 47 95t127 35q49 0 89 -12q14 -4 29 -11q1 -1 13.5 -6.5
t21.5 -10.5z" />
    <glyph glyph-name="t" unicode="t" horiz-adv-x="448" 
d="M432 415h-170v-415h-75v415h-170v63h415v-63z" />
    <glyph glyph-name="u" unicode="u" horiz-adv-x="614" 
d="M513 195q0 -72 -16 -111q-15 -40 -54 -62q-29 -16 -64 -26q-40 -10 -72 -10q-30 0 -72 10q-35 10 -65 26q-38 24 -54 62q-15 39 -15 111v283h75v-296q0 -132 131 -132t131 132v296h75v-283z" />
    <glyph glyph-name="v" unicode="v" horiz-adv-x="503" 
d="M478 478l-205 -490h-40l-208 490h82l144 -345q5 -8 5 -22q2 10 2 12q1 4 4 10l134 345h82z" />
    <glyph glyph-name="w" unicode="w" horiz-adv-x="729" 
d="M704 478l-201 -487h-40l-98 216l-93 -216h-36l-211 487h82l151 -371l75 176l-82 195h70l50 -113l44 113h69l-82 -189l82 -182l145 371h75z" />
    <glyph glyph-name="x" unicode="x" horiz-adv-x="497" 
d="M472 0h-89l-138 182l-132 -182h-88l176 245l-167 233h92l125 -170l126 170h88l-176 -233z" />
    <glyph glyph-name="y" unicode="y" horiz-adv-x="478" 
d="M453 478l-183 -264v-214h-75v214l-170 264h88l126 -195l126 195h88z" />
    <glyph glyph-name="z" unicode="z" horiz-adv-x="509" 
d="M459 0h-409v44l289 371h-289v63h396v-44l-289 -371h302v-63z" />
    <glyph glyph-name="braceleft" unicode="{" horiz-adv-x="409" 
d="M386 -243h-56q-69 0 -102 31q-30 32 -30 101v220q0 113 -76 113h-36v55h36q76 0 76 113v220q0 71 31 102q30 30 101 30h56v-63h-44q-17 0 -32 -8t-24 -22q-8 -11 -11 -27q-2 -10 -2 -44v-201v-26q0 -13 -1 -19q-3 -30 -20 -51q-16 -20 -39 -26l-25 -6l24 -4q26 -4 44 -32
q6 -8 9 -16q3 -5 5 -18q3 -9 3 -24v-9v-12v-12v-202q0 -28 3 -43q3 -16 10 -27q10 -14 24 -22q15 -8 32 -8h44v-63z" />
    <glyph glyph-name="bar" unicode="|" horiz-adv-x="250" 
d="M162 -239h-70v968h70v-968z" />
    <glyph glyph-name="braceright" unicode="}" horiz-adv-x="409" 
d="M327 222h-36q-37 0 -57 -29q-19 -28 -19 -84v-220q0 -71 -31 -102q-30 -30 -101 -30h-56v63h44q16 0 32 8q17 9 24 22q8 10 11 27q2 11 2 43v202v25q0 4 0.5 10.5t0.5 9.5q3 29 20 51t39 26l25 5l-24 5q-27 6 -44 32q-3 6 -9 16q-1 3 -2.5 9t-2.5 9q-1 10 -3 24v33v201
q0 29 -3 44q-4 19 -10 27q-7 13 -24 22q-13 8 -32 8h-44v63h56q72 0 102 -31q30 -29 30 -101v-220q0 -113 76 -113l36 -1v-54z" />
    <glyph glyph-name="asciitilde" unicode="~" horiz-adv-x="544" 
d="M530 232q-20 -15 -40 -27q-6 -4 -35 -16q-49 -17 -91 -17q-10 0 -30 2q-5 1 -14.5 2.5t-13.5 2.5q-11 3 -32 12q-1 0 -41 18q-21 11 -39 16q-10 4 -32 4q-31 0 -63 -13q-31 -11 -62 -36l-29 42q14 13 21 17q9 7 18 12q6 4 18 10q4 3 21 9q45 18 81 18q21 0 37 -5
q25 -5 43 -15l50 -22q31 -12 39 -14q22 -4 32 -4q29 0 64 11q16 5 30 14q1 1 14 9t21 14z" />
    <glyph glyph-name="nbspace" unicode="&#xa0;" 
 />
    <glyph glyph-name="dieresis" unicode="&#xa8;" horiz-adv-x="406" 
d="M341 572q0 -20 -15 -35t-35 -15q-21 0 -36 15t-15 35q0 21 15 36t36 15q20 0 35 -15t15 -36zM166 572q0 -20 -15 -35t-35 -15q-21 0 -36 15t-15 35q0 21 15 36t36 15q20 0 35 -15t15 -36z" />
    <glyph glyph-name="acute" unicode="&#xb4;" horiz-adv-x="383" 
d="M345 660l-113 -163h-69l94 163h88z" />
    <glyph glyph-name="Agrave" unicode="&#xc0;" horiz-adv-x="595" 
d="M339 715h-69l-114 118h88zM587 0h-88l-68 195h-267l-68 -195h-88l246 679h88zM405 270l-107 302l-108 -302h215z" />
    <glyph glyph-name="Aacute" unicode="&#xc1;" horiz-adv-x="595" 
d="M450 833l-113 -118h-70l95 118h88zM587 0h-88l-68 195h-267l-68 -195h-88l246 679h88zM405 270l-107 302l-108 -302h215z" />
    <glyph glyph-name="Acircumflex" unicode="&#xc2;" horiz-adv-x="595" 
d="M446 696h-70l-76 67l-75 -67h-68l112 117h63zM587 0h-88l-68 195h-267l-68 -195h-88l246 679h88zM405 270l-107 302l-108 -302h215z" />
    <glyph glyph-name="Atilde" unicode="&#xc3;" horiz-adv-x="595" 
d="M497 758q-19 -17 -27 -23q-3 -2 -29 -14q-38 -16 -70 -16q-36 0 -87 27q-27 14 -33 16q-6 3 -23 3q-20 0 -35 -8q-6 -2 -9 -4q-1 0 -3.5 -2t-4.5 -3q-1 -1 -4.5 -3t-6.5 -3q-2 -1 -8 -5l-9 -6l-32 44q32 21 36 23q5 3 25 12q30 15 62 15q10 0 12 -1q6 0 14 -2q4 0 14 -4
q6 -2 19 -10q18 -9 31 -16q17 -8 29 -13q16 -4 23 -4t19 2q3 1 8.5 2.5t8.5 2.5t10 5t11 6q13 8 28 19zM587 0h-88l-68 195h-267l-68 -195h-88l246 679h88zM405 270l-107 302l-108 -302h215z" />
    <glyph glyph-name="Adieresis" unicode="&#xc4;" horiz-adv-x="595" 
d="M440 758q0 -20 -15 -35t-35 -15q-21 0 -36 15t-15 35q0 21 15 36t36 15t36 -15q14 -14 14 -36zM255 758q0 -20 -15 -35t-36 -15q-20 0 -35 15t-15 35q0 21 15 36t35 15q21 0 36 -15t15 -36zM587 0h-88l-68 195h-267l-68 -195h-88l246 679h88zM405 270l-107 302l-108 -302
h215z" />
    <glyph glyph-name="Aring" unicode="&#xc5;" horiz-adv-x="595" 
d="M379 788q0 -33 -23 -56t-56 -23q-32 0 -57 23q-23 23 -23 56t24 57q23 23 56 23q34 0 56 -24q23 -23 23 -56zM587 0h-88l-68 195h-267l-68 -195h-88l246 679h88zM341 788q0 18 -12 30q-11 12 -29 12q-17 0 -30 -13q-12 -12 -12 -29q0 -16 13 -29q14 -12 29 -12
q17 0 29 12t12 29zM405 270l-107 302l-108 -302h215z" />
    <glyph glyph-name="AE" unicode="&#xc6;" horiz-adv-x="794" 
d="M744 0h-377v195h-195l-94 -195h-95l333 660h51h371v-69h-294v-220h243v-69h-243v-233h300v-69zM367 270v338l-164 -338h164z" />
    <glyph glyph-name="Egrave" unicode="&#xc8;" horiz-adv-x="539" 
d="M362 715h-69l-113 118h88zM489 0h-380v660h371v-69h-289v-220h239v-69h-239v-233h298v-69z" />
    <glyph glyph-name="Eacute" unicode="&#xc9;" horiz-adv-x="539" 
d="M459 833l-113 -118h-70l95 118h88zM489 0h-380v660h371v-69h-289v-220h239v-69h-239v-233h298v-69z" />
    <glyph glyph-name="Ecircumflex" unicode="&#xca;" horiz-adv-x="539" 
d="M456 696h-71l-75 67l-76 -67h-67l111 117h63zM489 0h-380v660h371v-69h-289v-220h239v-69h-239v-233h298v-69z" />
    <glyph glyph-name="Edieresis" unicode="&#xcb;" horiz-adv-x="539" 
d="M451 761q0 -21 -15 -36t-35 -15q-21 0 -36 15q-14 14 -14 36q0 21 15 36q14 14 35 14t36 -15q14 -14 14 -35zM266 761q0 -21 -15 -36t-35 -15q-21 0 -36 15t-15 36t15 36q14 14 36 14q20 0 35 -15t15 -35zM489 0h-380v660h371v-69h-289v-220h239v-69h-239v-233h298v-69z
" />
    <glyph glyph-name="Igrave" unicode="&#xcc;" horiz-adv-x="300" 
d="M210 715h-69l-113 118h88zM191 0h-82v660h82v-660z" />
    <glyph glyph-name="Iacute" unicode="&#xcd;" horiz-adv-x="300" 
d="M278 833l-113 -118h-69l94 118h88zM191 0h-82v660h82v-660z" />
    <glyph glyph-name="Icircumflex" unicode="&#xce;" horiz-adv-x="300" 
d="M300 696h-70l-76 67l-75 -67h-68l112 117h63zM191 0h-82v660h82v-660z" />
    <glyph glyph-name="Idieresis" unicode="&#xcf;" horiz-adv-x="300" 
d="M279 758q0 -20 -15 -35t-35 -15q-21 0 -36 15q-14 14 -14 35t15 36t35 15q21 0 36 -15q14 -14 14 -36zM127 758q0 -20 -15 -35t-35 -15q-21 0 -36 15q-14 14 -14 35t15 36t35 15q21 0 36 -15q14 -14 14 -36zM191 0h-82v660h82v-660z" />
    <glyph glyph-name="Ograve" unicode="&#xd2;" horiz-adv-x="763" 
d="M410 715h-69l-113 118h88zM713 330q0 -76 -25 -138q-23 -61 -69 -108q-46 -46 -105 -72q-59 -25 -132 -25q-70 0 -133 26q-62 28 -105 71q-44 47 -69 109q-25 66 -25 137t25 137q26 65 69 109q43 45 105 71q57 25 133 25q75 0 133 -26q61 -25 105 -71q45 -45 69 -108
q24 -59 24 -137zM623 330q0 56 -19 103q-16 45 -52 84q-35 39 -77 58q-41 21 -93 21q-49 0 -93 -22q-44 -21 -77 -57q-32 -34 -53 -85q-19 -47 -19 -102q0 -52 20 -103q23 -52 52 -85q33 -36 77 -57q45 -21 93 -21q47 0 93 22q46 23 77 57q34 37 52 85q19 48 19 102z" />
    <glyph glyph-name="Oacute" unicode="&#xd3;" horiz-adv-x="763" 
d="M526 833l-113 -118h-69l94 118h88zM713 330q0 -76 -25 -138q-23 -61 -69 -108q-46 -46 -105 -72q-59 -25 -132 -25q-70 0 -133 26q-62 28 -105 71q-44 47 -69 109q-25 66 -25 137t25 137q26 65 69 109q43 45 105 71q57 25 133 25q75 0 133 -26q61 -25 105 -71
q45 -45 69 -108q24 -59 24 -137zM623 330q0 56 -19 103q-16 45 -52 84q-35 39 -77 58q-41 21 -93 21q-49 0 -93 -22q-44 -21 -77 -57q-32 -34 -53 -85q-19 -47 -19 -102q0 -52 20 -103q23 -52 52 -85q33 -36 77 -57q45 -21 93 -21q47 0 93 22q46 23 77 57q34 37 52 85
q19 48 19 102z" />
    <glyph glyph-name="Ocircumflex" unicode="&#xd4;" horiz-adv-x="763" 
d="M527 696h-71l-75 67l-76 -67h-68l112 117h63zM713 330q0 -76 -25 -138q-23 -61 -69 -108q-46 -46 -105 -72q-59 -25 -132 -25q-70 0 -133 26q-62 28 -105 71q-44 47 -69 109q-25 66 -25 137t25 137q26 65 69 109q43 45 105 71q57 25 133 25q75 0 133 -26q61 -25 105 -71
q45 -45 69 -108q24 -59 24 -137zM623 330q0 56 -19 103q-16 45 -52 84q-35 39 -77 58q-41 21 -93 21q-49 0 -93 -22q-44 -21 -77 -57q-32 -34 -53 -85q-19 -47 -19 -102q0 -52 20 -103q23 -52 52 -85q33 -36 77 -57q45 -21 93 -21q47 0 93 22q46 23 77 57q34 37 52 85
q19 48 19 102z" />
    <glyph glyph-name="Otilde" unicode="&#xd5;" horiz-adv-x="763" 
d="M574 745q-19 -17 -27 -23q-3 -2 -29 -14q-38 -16 -70 -16q-36 0 -87 27q-27 14 -33 16q-6 3 -23 3q-20 0 -35 -8q-6 -2 -9 -4q-1 0 -3.5 -2t-4.5 -3t-5 -3t-6 -3q-2 -1 -8 -5l-9 -6l-32 44q32 21 36 23q5 3 25 12q30 15 62 15q10 0 12 -1q6 0 14 -2q4 0 14 -4
q6 -2 19 -10q18 -9 31 -16q17 -9 29 -13q16 -4 23 -4t19 2q3 1 8.5 2.5t8.5 2.5t10 5t11 6q13 8 28 19zM713 330q0 -76 -25 -138q-23 -61 -69 -108q-46 -46 -105 -72q-59 -25 -132 -25q-70 0 -133 26q-62 28 -105 71q-44 47 -69 109q-25 66 -25 137t25 137q26 65 69 109
q43 45 105 71q57 25 133 25q75 0 133 -26q61 -25 105 -71q45 -45 69 -108q24 -59 24 -137zM623 330q0 56 -19 103q-16 45 -52 84q-35 39 -77 58q-41 21 -93 21q-49 0 -93 -22q-44 -21 -77 -57q-32 -34 -53 -85q-19 -47 -19 -102q0 -52 20 -103q23 -52 52 -85q33 -36 77 -57
q45 -21 93 -21q47 0 93 22q46 23 77 57q34 37 52 85q19 48 19 102z" />
    <glyph glyph-name="Odieresis" unicode="&#xd6;" horiz-adv-x="763" 
d="M535 760q0 -21 -15 -36t-35 -15q-21 0 -36 15q-14 14 -14 36q0 20 15 35t35 15q21 0 36 -15q14 -14 14 -35zM333 760q0 -21 -15 -36t-35 -15q-21 0 -36 15t-15 36q0 20 15 35t36 15q20 0 35 -15t15 -35zM713 330q0 -76 -25 -138q-23 -61 -69 -108q-46 -46 -105 -72
q-59 -25 -132 -25q-70 0 -133 26q-62 28 -105 71q-44 47 -69 109q-25 66 -25 137t25 137q26 65 69 109q43 45 105 71q57 25 133 25q75 0 133 -26q61 -25 105 -71q45 -45 69 -108q24 -59 24 -137zM623 330q0 56 -19 103q-16 45 -52 84q-35 39 -77 58q-41 21 -93 21
q-49 0 -93 -22q-44 -21 -77 -57q-32 -34 -53 -85q-19 -47 -19 -102q0 -52 20 -103q23 -52 52 -85q33 -36 77 -57q45 -21 93 -21q47 0 93 22q46 23 77 57q34 37 52 85q19 48 19 102z" />
    <glyph glyph-name="Ugrave" unicode="&#xd9;" horiz-adv-x="700" 
d="M418 715h-69l-114 118h88zM608 226q0 -66 -18 -108q-19 -44 -58 -76q-76 -61 -181 -61q-106 0 -182 61q-42 34 -60 77q-17 41 -17 107v434h82v-409q0 -24 2 -52q1 -4 2.5 -17t2.5 -19q5 -15 12 -27q17 -23 19 -25q51 -57 138 -57t138 57q15 17 20 25q7 10 11 28
q5 17 6 36q1 7 1 51v409h82v-434z" />
    <glyph glyph-name="Uacute" unicode="&#xda;" horiz-adv-x="700" 
d="M492 833l-113 -118h-69l94 118h88zM608 226q0 -66 -18 -108q-19 -44 -58 -76q-76 -61 -181 -61q-106 0 -182 61q-42 34 -60 77q-17 41 -17 107v434h82v-409q0 -24 2 -52q1 -4 2.5 -17t2.5 -19q5 -15 12 -27q17 -23 19 -25q51 -57 138 -57t138 57q15 17 20 25q7 10 11 28
q5 17 6 36q1 7 1 51v409h82v-434z" />
    <glyph glyph-name="Ucircumflex" unicode="&#xdb;" horiz-adv-x="700" 
d="M503 696h-71l-75 67l-76 -67h-68l112 117h63zM608 226q0 -66 -18 -108q-19 -44 -58 -76q-76 -61 -181 -61q-106 0 -182 61q-42 34 -60 77q-17 41 -17 107v434h82v-409q0 -24 2 -52q1 -4 2.5 -17t2.5 -19q5 -15 12 -27q17 -23 19 -25q51 -57 138 -57t138 57q15 17 20 25
q7 10 11 28q5 17 6 36q1 7 1 51v409h82v-434z" />
    <glyph glyph-name="Udieresis" unicode="&#xdc;" horiz-adv-x="700" 
d="M508 762q0 -21 -15 -36q-14 -14 -35 -14t-36 15q-14 14 -14 35t15 36q14 14 35 14t36 -15q14 -14 14 -35zM306 762q0 -21 -15 -36q-14 -14 -35 -14t-36 15q-14 14 -14 35t15 36q14 14 35 14t36 -15q14 -14 14 -35zM608 226q0 -66 -18 -108q-19 -44 -58 -76
q-76 -61 -181 -61q-106 0 -182 61q-42 34 -60 77q-17 41 -17 107v434h82v-409q0 -24 2 -52q1 -4 2.5 -17t2.5 -19q5 -15 12 -27q17 -23 19 -25q51 -57 138 -57t138 57q15 17 20 25q7 10 11 28q5 17 6 36q1 7 1 51v409h82v-434z" />
    <glyph glyph-name="agrave" unicode="&#xe0;" horiz-adv-x="516" 
d="M321 519h-69l-113 163h88zM490 0h-75l-55 133h-205l-54 -133h-76l195 490h75zM339 195l-81 214l-82 -214h163z" />
    <glyph glyph-name="aacute" unicode="&#xe1;" horiz-adv-x="516" 
d="M388 682l-113 -164h-69l94 164h88zM490 0h-75l-55 133h-205l-54 -133h-76l195 490h75zM339 195l-81 214l-82 -214h163z" />
    <glyph glyph-name="acircumflex" unicode="&#xe2;" horiz-adv-x="516" 
d="M411 519h-70l-76 107l-75 -107h-68l112 163h63zM490 0h-75l-55 133h-205l-54 -133h-76l195 490h75zM339 195l-81 214l-82 -214h163z" />
    <glyph glyph-name="atilde" unicode="&#xe3;" horiz-adv-x="516" 
d="M450 575q-19 -17 -27 -23q-3 -2 -29 -14q-38 -16 -70 -16q-36 0 -87 27q-27 14 -33 16q-6 3 -23 3q-20 0 -35 -8q-6 -2 -9 -4q-1 0 -3.5 -2t-4.5 -3q-1 -1 -4.5 -3t-6.5 -3q-2 -1 -8 -5l-9 -6l-32 44q32 21 36 23q5 3 25 12q30 15 62 15q10 0 12 -1q6 0 14 -2q4 0 14 -4
q6 -2 19 -10q18 -9 31 -16q17 -8 29 -13q16 -4 23 -4t19 2q3 1 8.5 2.5t8.5 2.5t10 5t11 6q13 8 28 19zM490 0h-75l-55 133h-205l-54 -133h-76l195 490h75zM339 195l-81 214l-82 -214h163z" />
    <glyph glyph-name="adieresis" unicode="&#xe4;" horiz-adv-x="516" 
d="M400 572q0 -20 -15 -35t-35 -15q-21 0 -36 15t-15 35q0 21 15 36t36 15q20 0 35 -15t15 -36zM225 572q0 -20 -15 -35t-35 -15q-21 0 -36 15t-15 35q0 21 15 36t36 15q20 0 35 -15t15 -36zM490 0h-75l-55 133h-205l-54 -133h-76l195 490h75zM339 195l-81 214l-82 -214h163
z" />
    <glyph glyph-name="aring" unicode="&#xe5;" horiz-adv-x="516" 
d="M339 596q0 -33 -23 -56t-56 -23q-32 0 -57 23q-23 23 -23 56t24 57q23 23 56 23q34 0 56 -24q23 -23 23 -56zM490 0h-75l-55 133h-205l-54 -133h-76l195 490h75zM301 596q0 18 -12 30q-11 12 -29 12q-17 0 -30 -13q-12 -12 -12 -29q0 -16 13 -29q13 -12 29 -12
q17 0 29 12t12 29zM339 195l-81 214l-82 -214h163z" />
    <glyph glyph-name="ae" unicode="&#xe6;" horiz-adv-x="686" 
d="M627 -1h-301v135h-162l-77 -135h-87l283 479h43h296v-63h-221v-138h183v-63h-182v-151h225v-64zM321 200v218l-121 -218h121z" />
    <glyph glyph-name="egrave" unicode="&#xe8;" horiz-adv-x="478" 
d="M322 519h-69l-113 163h88zM419 0h-302v478h296v-63h-220v-138h182v-63h-182v-151h226v-63z" />
    <glyph glyph-name="eacute" unicode="&#xe9;" horiz-adv-x="478" 
d="M416 682l-113 -164h-69l94 164h88zM419 0h-302v478h296v-63h-220v-138h182v-63h-182v-151h226v-63z" />
    <glyph glyph-name="ecircumflex" unicode="&#xea;" horiz-adv-x="478" 
d="M415 519h-70l-76 107l-75 -107h-68l112 163h63zM419 0h-302v478h296v-63h-220v-138h182v-63h-182v-151h226v-63z" />
    <glyph glyph-name="edieresis" unicode="&#xeb;" horiz-adv-x="478" 
d="M406 570q0 -20 -15 -35t-35 -15q-21 0 -36 15t-15 35q0 21 15 36t36 15q20 0 35 -15t15 -36zM231 570q0 -20 -15 -35t-35 -15q-21 0 -36 15t-15 35q0 21 15 36t36 15q20 0 35 -15t15 -36zM419 0h-302v478h296v-63h-220v-138h182v-63h-182v-151h226v-63z" />
    <glyph glyph-name="igrave" unicode="&#xec;" horiz-adv-x="310" 
d="M217 519h-69l-113 163h88zM193 0h-76v478h76v-478z" />
    <glyph glyph-name="iacute" unicode="&#xed;" horiz-adv-x="310" 
d="M281 682l-113 -164h-70l95 164h88zM193 0h-76v478h76v-478z" />
    <glyph glyph-name="icircumflex" unicode="&#xee;" horiz-adv-x="310" 
d="M305 519h-71l-75 107l-75 -107h-68l112 163h62zM193 0h-76v478h76v-478z" />
    <glyph glyph-name="idieresis" unicode="&#xef;" horiz-adv-x="310" 
d="M283 572q0 -20 -15 -35t-35 -15q-21 0 -36 15t-15 35q0 21 15 36t36 15q20 0 35 -15t15 -36zM133 572q0 -20 -15 -35t-35 -15q-21 0 -36 15t-15 35q0 21 15 36t36 15q20 0 35 -15t15 -36zM193 0h-76v478h76v-478z" />
    <glyph glyph-name="ograve" unicode="&#xf2;" horiz-adv-x="647" 
d="M369 519h-69l-113 163h88zM589 239q0 -56 -20 -100q-20 -46 -55 -78q-34 -32 -84 -52q-48 -18 -106 -18q-55 0 -107 19q-51 21 -84 51q-32 29 -55 79q-19 45 -19 99t20 100q21 47 55 78q38 35 84 52q46 18 106 18q59 0 106 -19q50 -18 84 -51q36 -33 55 -79
q20 -43 20 -99zM508 239q0 42 -14 73q-14 35 -39 59q-23 24 -58 38q-31 14 -73 14q-41 0 -73 -14q-34 -14 -59 -39q-24 -24 -39 -58q-14 -34 -14 -73q0 -37 14 -73q15 -34 39 -59q25 -24 59 -39q36 -14 73 -14q39 0 73 14q35 15 59 39q23 23 38 59q14 32 14 73z" />
    <glyph glyph-name="oacute" unicode="&#xf3;" horiz-adv-x="647" 
d="M460 682l-113 -164h-69l94 164h88zM589 239q0 -56 -20 -100q-20 -46 -55 -78q-34 -32 -84 -52q-48 -18 -106 -18q-55 0 -107 19q-51 21 -84 51q-32 29 -55 79q-19 45 -19 99t20 100q21 47 55 78q38 35 84 52q46 18 106 18q59 0 106 -19q50 -18 84 -51q36 -33 55 -79
q20 -43 20 -99zM508 239q0 42 -14 73q-14 35 -39 59q-23 24 -58 38q-31 14 -73 14q-41 0 -73 -14q-34 -14 -59 -39q-24 -24 -39 -58q-14 -34 -14 -73q0 -37 14 -73q15 -34 39 -59q25 -24 59 -39q36 -14 73 -14q39 0 73 14q35 15 59 39q23 23 38 59q14 32 14 73z" />
    <glyph glyph-name="ocircumflex" unicode="&#xf4;" horiz-adv-x="647" 
d="M475 519h-70l-76 107l-75 -107h-68l112 163h63zM589 239q0 -56 -20 -100q-20 -46 -55 -78q-34 -32 -84 -52q-48 -18 -106 -18q-55 0 -107 19q-51 21 -84 51q-32 29 -55 79q-19 45 -19 99t20 100q21 47 55 78q38 35 84 52q46 18 106 18q59 0 106 -19q50 -18 84 -51
q36 -33 55 -79q20 -43 20 -99zM508 239q0 42 -14 73q-14 35 -39 59q-23 24 -58 38q-31 14 -73 14q-41 0 -73 -14q-34 -14 -59 -39q-24 -24 -39 -58q-14 -34 -14 -73q0 -37 14 -73q15 -34 39 -59q25 -24 59 -39q36 -14 73 -14q39 0 73 14q35 15 59 39q23 23 38 59
q14 32 14 73z" />
    <glyph glyph-name="otilde" unicode="&#xf5;" horiz-adv-x="647" 
d="M510 574q-19 -17 -27 -23q-3 -2 -29 -14q-38 -16 -70 -16q-36 0 -87 27q-27 14 -33 16q-6 3 -23 3q-20 0 -35 -8q-6 -2 -9 -4q-1 0 -3.5 -2t-4.5 -3q-1 -1 -4.5 -3t-6.5 -3q-2 -1 -8 -5l-9 -6l-32 44q32 21 36 23q5 3 25 12q30 15 62 15q10 0 12 -1q6 0 14 -2q4 0 14 -4
q6 -2 19 -10q18 -9 31 -16q17 -8 29 -13q16 -4 23 -4t19 2q3 1 8.5 2.5t8.5 2.5t10 5t11 6q13 8 28 19zM589 239q0 -56 -20 -100q-20 -46 -55 -78q-34 -32 -84 -52q-48 -18 -106 -18q-55 0 -107 19q-51 21 -84 51q-32 29 -55 79q-19 45 -19 99t20 100q21 47 55 78
q38 35 84 52q46 18 106 18q59 0 106 -19q50 -18 84 -51q36 -33 55 -79q20 -43 20 -99zM508 239q0 42 -14 73q-14 35 -39 59q-23 24 -58 38q-31 14 -73 14q-41 0 -73 -14q-34 -14 -59 -39q-24 -24 -39 -58q-14 -34 -14 -73q0 -37 14 -73q15 -34 39 -59q25 -24 59 -39
q36 -14 73 -14q39 0 73 14q35 15 59 39q23 23 38 59q14 32 14 73z" />
    <glyph glyph-name="odieresis" unicode="&#xf6;" horiz-adv-x="647" 
d="M488 572q0 -20 -15 -35t-35 -15q-21 0 -36 15q-14 14 -14 35t15 36t35 15q21 0 36 -15q14 -14 14 -36zM253 572q0 -20 -15 -35t-35 -15q-21 0 -36 15q-14 14 -14 35t15 36t35 15q21 0 36 -15q14 -14 14 -36zM589 239q0 -56 -20 -100q-20 -46 -55 -78q-34 -32 -84 -52
q-48 -18 -106 -18q-55 0 -107 19q-51 21 -84 51q-32 29 -55 79q-19 45 -19 99t20 100q21 47 55 78q38 35 84 52q46 18 106 18q59 0 106 -19q50 -18 84 -51q36 -33 55 -79q20 -43 20 -99zM508 239q0 42 -14 73q-14 35 -39 59q-23 24 -58 38q-31 14 -73 14q-41 0 -73 -14
q-34 -14 -59 -39q-24 -24 -39 -58q-14 -34 -14 -73q0 -37 14 -73q15 -34 39 -59q25 -24 59 -39q36 -14 73 -14q39 0 73 14q35 15 59 39q23 23 38 59q14 32 14 73z" />
    <glyph glyph-name="divide" unicode="&#xf7;" horiz-adv-x="550" 
d="M335 427q0 -24 -17 -41t-41 -17q-23 0 -42 17q-17 19 -17 41q0 25 17 42t42 17t41 -17q17 -16 17 -42zM525 208h-500v57h500v-57zM335 48q0 -25 -17 -42t-41 -17q-23 0 -42 17q-17 19 -17 42q0 24 17 41t42 17t41 -17q17 -16 17 -41z" />
    <glyph glyph-name="ugrave" unicode="&#xf9;" horiz-adv-x="614" 
d="M353 519h-69l-113 163h88zM513 195q0 -72 -16 -111q-15 -40 -54 -62q-29 -16 -64 -26q-40 -10 -72 -10q-30 0 -72 10q-35 10 -65 26q-38 24 -54 62q-15 39 -15 111v283h75v-296q0 -132 131 -132t131 132v296h75v-283z" />
    <glyph glyph-name="uacute" unicode="&#xfa;" horiz-adv-x="614" 
d="M445 682l-113 -164h-69l94 164h88zM513 195q0 -72 -16 -111q-15 -40 -54 -62q-29 -16 -64 -26q-40 -10 -72 -10q-30 0 -72 10q-35 10 -65 26q-38 24 -54 62q-15 39 -15 111v283h75v-296q0 -132 131 -132t131 132v296h75v-283z" />
    <glyph glyph-name="ucircumflex" unicode="&#xfb;" horiz-adv-x="614" 
d="M457 519h-70l-76 107l-75 -107h-68l112 163h62zM513 195q0 -72 -16 -111q-15 -40 -54 -62q-29 -16 -64 -26q-40 -10 -72 -10q-30 0 -72 10q-35 10 -65 26q-38 24 -54 62q-15 39 -15 111v283h75v-296q0 -132 131 -132t131 132v296h75v-283z" />
    <glyph glyph-name="udieresis" unicode="&#xfc;" horiz-adv-x="614" 
d="M445 571q0 -20 -15 -35t-35 -15q-21 0 -36 15q-14 14 -14 35t15 36t35 15q21 0 36 -15q14 -14 14 -36zM267 571q0 -20 -15 -35t-35 -15q-21 0 -36 15q-14 14 -14 35t15 36t35 15q21 0 36 -15q14 -14 14 -36zM513 195q0 -72 -16 -111q-15 -40 -54 -62q-29 -16 -64 -26
q-40 -10 -72 -10q-30 0 -72 10q-35 10 -65 26q-38 24 -54 62q-15 39 -15 111v283h75v-296q0 -132 131 -132t131 132v296h75v-283z" />
    <glyph glyph-name="ydieresis" unicode="&#xff;" horiz-adv-x="478" 
d="M381 573q0 -20 -15 -35t-35 -15q-21 0 -36 15t-15 35q0 21 15 36t36 15q20 0 35 -15t15 -36zM206 573q0 -20 -15 -35t-35 -15q-21 0 -36 15t-15 35q0 21 15 36t36 15q20 0 35 -15t15 -36zM453 478l-183 -264v-214h-75v214l-170 264h88l126 -195l126 195h88z" />
    <glyph glyph-name="Ydieresis" unicode="&#x178;" horiz-adv-x="550" 
d="M420 758q0 -21 -15 -36t-36 -15q-20 0 -35 15t-15 36q0 20 15 35t35 15q21 0 36 -15t15 -35zM218 758q0 -21 -15 -36t-36 -15t-36 15q-14 14 -14 36q0 20 15 35t35 15q21 0 36 -15t15 -35zM542 660l-232 -352v-308h-82v302l-220 358h88l177 -283l182 283h87z" />
    <glyph glyph-name="tilde" unicode="&#x2dc;" horiz-adv-x="454" 
d="M406 575q-19 -17 -27 -23q-3 -2 -29 -14q-38 -16 -70 -16q-36 0 -87 27q-27 14 -33 16q-6 3 -23 3q-20 0 -35 -8q-6 -2 -9 -4q-1 0 -3.5 -2t-4.5 -3q-1 -1 -5 -3l-6 -3t-8 -5l-9 -6l-32 44q32 21 36 23q5 3 25 12q30 15 62 15q10 0 12 -1q6 0 14 -2q4 0 14 -4
q6 -2 19 -10q18 -9 31 -16q17 -8 29 -13q16 -4 23 -4t19 2q3 1 8.5 2.5t8.5 2.5t10 5t11 6q13 8 28 19z" />
    <glyph glyph-name="hungarumlaut" unicode="&#x2dd;" horiz-adv-x="383" 
d="M365 660l-113 -163h-69l94 163h88zM228 660l-113 -163h-70l95 163h88z" />
    <glyph glyph-name="endash" unicode="&#x2013;" horiz-adv-x="550" 
d="M525 208h-500v57h500v-57z" />
    <glyph glyph-name="quoteleft" unicode="&#x2018;" horiz-adv-x="252" 
d="M191 433q-16 -10 -29 -15q-12 -3 -29 -3q-58 0 -58 64q0 22 8 52q5 18 16 45q10 22 31 59l13 25h44q-9 -19 -12 -28q-3 -12 -10 -29q-2 -7 -6 -19q-1 -2 -2 -7t-2 -7q-2 -8 -4 -13q0 -1 -1 -7t-2 -10z" />
    <glyph glyph-name="quoteright" unicode="&#x2019;" horiz-adv-x="252" 
d="M176 608q0 -16 -2 -25q-2 -17 -6 -27q-7 -25 -16 -45q-10 -23 -30 -59l-13 -25h-44q9 18 12 27q3 6 10 30q3 11 6 19q2 6 4 14q1 3 2 7.5t1 5.5q2 5 4 17l-43 107q16 12 29 15q9 3 29 3q57 0 57 -64z" />
    <glyph glyph-name="quotesinglbase" unicode="&#x201a;" horiz-adv-x="252" 
d="M176 36q0 -17 -2 -26q-2 -17 -6 -27q-7 -25 -16 -45q-7 -16 -30 -59l-13 -24h-44q9 19 11 27q10 26 11 30q3 10 6 18q2 6 4 14q1 3 2 7.5t1 5.5q2 5 4 17l-43 108q16 12 29 15q9 3 29 3q57 0 57 -64z" />
    <glyph glyph-name="quotedblleft" unicode="&#x201c;" horiz-adv-x="437" 
d="M376 433q-14 -7 -20 -9q-2 -1 -6.5 -2.5t-6.5 -2.5l-12 -3h-14q-58 0 -58 64q0 35 18 83q18 47 48 97h51q-4 -6 -10 -16q-1 -2 -3.5 -6t-3.5 -6q-4 -8 -6 -14q-1 -2 -2.5 -8.5t-3.5 -10.5q-6 -20 -8 -28q-2 -10 -7 -31zM192 433q-11 -6 -19 -9q-2 -1 -7 -2.5t-7 -2.5
l-12 -3h-14q-58 0 -58 64q0 34 17 82q18 48 49 98h51q-10 -15 -17 -29q-6 -14 -12 -32q-6 -20 -8 -28q-2 -10 -7 -31z" />
    <glyph glyph-name="quotedblright" unicode="&#x201d;" horiz-adv-x="437" 
d="M361 608q0 -37 -17 -82q-18 -49 -49 -98h-50q8 12 10 16q3 5 7 13q1 2 3 6.5t3 7.5q1 2 2 5.5t2 6.5l2 6q3 9 8 28q1 4 3.5 15t3.5 16l-44 107q14 7 19 9q3 1 7 2.5t6 2.5q6 3 13 3h14q57 0 57 -64zM177 608q0 -38 -17 -83q-16 -45 -49 -97h-50q8 12 10 16l2 4t2 4.5
t2 3.5q2 4 6 14q1 2 3.5 8t3.5 11q3 9 8 28q6 23 7 31l-44 107q10 5 20 9q3 1 7 2.5t6 2.5q6 3 12 3h14q57 0 57 -64z" />
    <glyph glyph-name="quotedblbase" unicode="&#x201e;" horiz-adv-x="437" 
d="M361 35q0 -37 -17 -82q-17 -47 -49 -97h-50q8 12 10 16q6 10 7 12q2 4 6 14l6 18q3 9 8 28q1 4 3.5 15t3.5 16l-44 107q3 2 9.5 5.5t9.5 4.5q7 4 13 5q6 3 13 3h14q57 0 57 -65zM177 35q0 -38 -17 -83q-16 -46 -49 -96h-50l10 15q2 2 4 7t2 6q1 3 3 7.5t3 6.5t3.5 8
t3.5 10l8 28q6 23 7 31l-44 107q2 1 5.5 3t5.5 3t4.5 2t4.5 2q7 4 13 5q6 3 12 3h14q57 0 57 -65z" />
    <glyph glyph-name="perthousand" unicode="&#x2030;" horiz-adv-x="1234" 
d="M384 495q0 -37 -14 -68q-14 -33 -37 -56t-56 -38q-30 -13 -68 -13q-34 0 -68 14q-36 17 -56 37t-37 56q-14 34 -14 68q0 35 14 68q15 33 38 56q25 25 55 38q31 14 68 14q39 0 68 -14q30 -12 56 -38t38 -56q13 -27 13 -68zM744 692l-572 -736h-69l572 736h69zM1200 162
q0 -37 -14 -68t-38 -56q-22 -22 -55 -37q-33 -14 -68 -14q-34 0 -68 14q-34 16 -56 38q-23 23 -38 55q-13 32 -13 68q0 35 14 68q16 35 37 56q25 24 56 38q29 13 68 13t68 -14q32 -13 56 -37t37 -56q14 -29 14 -68zM816 162q0 -37 -14 -68q-14 -32 -38 -56q-22 -22 -55 -37
q-33 -14 -68 -14q-34 0 -68 14q-34 16 -56 38q-23 23 -38 55q-13 32 -13 68q0 35 14 68q16 35 37 56q25 24 56 38q29 13 68 13t68 -14q32 -13 56 -37t37 -56q14 -29 14 -68zM324 495q0 24 -9 45q-9 22 -25 36q-14 16 -36 25q-21 9 -45 9t-45 -9q-19 -8 -36 -25
q-14 -14 -24 -37q-9 -21 -9 -44q0 -24 9 -45q8 -18 25 -37q18 -16 36 -24q21 -9 44 -9q24 0 45 9t37 25q15 15 24 36t9 45zM1140 162q0 24 -9 45q-10 23 -25 37q-12 13 -37 24q-21 9 -44 9q-24 0 -45 -9t-37 -25q-15 -15 -24 -36t-9 -45t9 -45q7 -16 25 -36q18 -16 36 -24
q21 -9 45 -9t45 9q19 8 36 25t25 36q9 21 9 44zM755 162q0 24 -9 45q-10 23 -25 37q-13 14 -36 24q-21 9 -44 9q-24 0 -45 -9t-37 -25q-15 -15 -24 -36t-9 -45t9 -45q7 -16 25 -36q18 -16 36 -24q21 -9 45 -9t45 9q19 8 36 25q15 15 24 36t9 44z" />
    <glyph glyph-name="guilsinglleft" unicode="&#x2039;" horiz-adv-x="321" 
d="M266 38l-226 188l226 189v-82l-132 -107l132 -107v-81z" />
    <glyph glyph-name="guilsinglright" unicode="&#x203a;" horiz-adv-x="321" 
d="M281 226l-227 -188v81l133 107l-133 107v82z" />
    <glyph glyph-name="divisionslash" unicode="&#x2215;" horiz-adv-x="333" 
d="M277 330l-138 -220h-90l132 220h96z" />
    <glyph glyph-name="infinity" unicode="&#x221e;" horiz-adv-x="550" 
d="M514 29l-42 -41l-197 196l-197 -197l-42 42l197 197l-197 197l42 42l197 -197l197 197l42 -42l-197 -197z" />
    <glyph glyph-name="controlBS" horiz-adv-x="0" 
 />
    <glyph glyph-name="controlHT" horiz-adv-x="250" 
 />
  </font>
</defs>
</svg>
