<?xml version="1.0" standalone="no"?>
<!DOCTYPE svg PUBLIC "-//W3C//DTD SVG 1.1//EN" "http://www.w3.org/Graphics/SVG/1.1/DTD/svg11.dtd" >
<svg xmlns="http://www.w3.org/2000/svg" xmlns:xlink="http://www.w3.org/1999/xlink" version="1.1">
<metadata>
Created by FontForge 20170731 at Sun Dec  6 16:37:39 2015
 By Aleksey,,,
Attribution-ShareAlike 4.0 International
</metadata>
<defs>
<font id="ScalySans-Bold" horiz-adv-x="587" >
  <font-face 
    font-family="Scaly Sans"
    font-weight="700"
    font-stretch="normal"
    units-per-em="1000"
    panose-1="2 0 8 3 6 0 0 2 0 3"
    ascent="800"
    descent="-200"
    x-height="473"
    cap-height="680"
    bbox="-48 -288 908 888"
    underline-thickness="37"
    underline-position="-201"
    unicode-range="U+001D-203A"
  />
<missing-glyph horiz-adv-x="250" 
 />
    <glyph glyph-name=".notdef" horiz-adv-x="250" 
 />
    <glyph glyph-name=".null" horiz-adv-x="0" 
 />
    <glyph glyph-name=".null" horiz-adv-x="0" 
 />
    <glyph glyph-name="nonmarkingreturn" horiz-adv-x="250" 
 />
    <glyph glyph-name="space" unicode=" " horiz-adv-x="250" 
 />
    <glyph glyph-name="space" unicode="&#xa0;" horiz-adv-x="250" 
 />
    <glyph glyph-name="exclam" unicode="!" horiz-adv-x="282" 
d="M223 44q0 -30 -23.5 -53.5t-58.5 -23.5t-58.5 23.5t-23.5 53.5t23.5 53.5t58.5 23.5t58.5 -23.5t23.5 -53.5zM204 175h-126l-6 581h138z" />
    <glyph glyph-name="numbersign" unicode="#" horiz-adv-x="626" 
d="M278 381l-18 -90h93l18 90h-93zM596 381h-113l-17 -90h114l-17 -97h-117l-41 -214h-112l41 214h-93l-43 -214h-111l43 214h-115l17 97h117l19 90h-116l17 97h117l40 200h110l-39 -200h93l39 200h112l-39 -200h111z" />
    <glyph glyph-name="dollar" unicode="$" horiz-adv-x="536" 
d="M379 162q0 30 -6 40q-5 7 -57 49q-8 7 18 7v-170q5 1 25 22.5t20 51.5zM239 572q-51 -9 -51 -70q0 -36 32 -57q38 -26 40 -28q5 -4 -8 4t-13 -31v182zM463 516q-35 23 -43.5 27t-15 7.5t-14 6.5t-16.5 7l-19.5 6.5t-13.5 3.5t-14.5 2t7.5 0v-199q-2 1 2 -1l8 -4
q41 -24 67.5 -40.5t39.5 -27.5q28 -22 43.5 -57.5t15.5 -74.5q0 -44 -17 -83.5t-50 -66.5q-13 -11 -26 -19.5t-28 -14.5t-33.5 -10.5t-21.5 -4.5v-62h-94l-1 57q-22 1 -49.5 6t-54.5 17q-20 8 -38.5 18.5t-66.5 43.5l65 101q38 -25 48 -31.5t17.5 -11t15 -8t14.5 -7.5
q18 -7 32.5 -10t16.5 -3v208l-31 18q-40 24 -68.5 45t-47 43.5t-27 46t-8.5 52.5q0 79 53 130t129 60l1 63h94v-60q-5 0 9 -1t26 -2.5t24.5 -4.5t26.5 -7q22 -8 39.5 -16.5t62.5 -34.5z" />
    <glyph glyph-name="percent" unicode="%" horiz-adv-x="900" 
d="M324 495q0 21 -7.5 38.5t-20 30t-28.5 19.5t-34 7t-33.5 -7t-28 -19.5t-20 -30t-7.5 -38.5t7.5 -38.5t20 -30t28 -19.5t33.5 -7t34 7t28.5 19.5t20 30t7.5 38.5zM755 162q0 21 -7.5 38.5t-20 30t-28 19.5t-33.5 7t-34 -7t-28.5 -19.5t-20 -30t-7.5 -38.5t7.5 -38
t20 -29.5t28.5 -19.5t34 -7t33.5 7t28 19.5t20 29.5t7.5 38zM434 495q0 -39 -15 -74.5t-42 -62.5t-64 -42.5t-79 -15.5t-79 15.5t-63.5 42.5t-42 62.5t-15.5 74.5t15.5 74.5t42 62.5t63.5 43t79 16t79 -16t64 -43t42 -62.5t15 -74.5zM211 -64h-128l603 776h128zM866 162
q0 -39 -15.5 -74.5t-42 -62t-63.5 -42.5t-79 -16t-79 16t-64 42.5t-42 62t-15 74.5t15 74.5t42 62.5t64 42.5t79 15.5t79 -15.5t63.5 -42.5t42 -62.5t15.5 -74.5z" />
    <glyph glyph-name="ampersand" unicode="&#x26;" horiz-adv-x="759" 
d="M257 309l-19 -15q-41 -33 -57 -58.5t-16 -59.5q0 -48 29.5 -74t80.5 -26q34 0 61 12q13 6 26 14.5t28 20.5zM780 106q-18 -28 -25.5 -38.5t-13.5 -18.5t-12.5 -15t-15.5 -16q-50 -50 -118 -50q-17 0 -33 3t-31 9q-24 10 -43.5 26t-31.5 29q-29 -27 -79.5 -47.5
t-116.5 -20.5q-51 0 -93 14.5t-72 41.5t-46 63.5t-16 80.5q0 28 7 53t23 49.5t40.5 49.5t60.5 55l29 24q0 1 -9.5 13t-17.5 23q-31 42 -43.5 73t-12.5 67q0 40 15.5 74t45 59.5t70 39t89.5 13.5q45 0 82.5 -12t65 -33.5t42.5 -51.5t15 -65q0 -38 -25.5 -77t-71.5 -74
l-68 -50l-66 84l55 41q26 21 36.5 37t10.5 37q0 27 -21 43.5t-56 16.5q-38 0 -63.5 -21.5t-25.5 -55.5q0 -11 4 -26q3 -11 6 -19t9 -18.5t16.5 -25.5t28.5 -39l173 -241q-11 -11 -4 -2t12.5 17t10 16.5t8.5 18.5t7 20t5 20.5t4 25.5t6 53h119q-4 -45 -6 -61.5t-4.5 -31
t-6.5 -26.5t-9 -25q-7 -16 -14.5 -30t-17.5 -28t-23.5 -29.5t-21.5 -25.5q19 -24 34 -34.5t29 -10.5t29.5 12.5t58.5 75.5z" />
    <glyph glyph-name="quotesingle" unicode="'" horiz-adv-x="220" 
d="M52 414v266h119v-266h-119z" />
    <glyph glyph-name="parenleft" unicode="(" horiz-adv-x="318" 
d="M222 -265q-21 26 -30.5 38.5t-18 28t-17.5 34.5t-21 49q-35 83 -52 162.5t-17 165.5q0 85 17 163t52 164q14 33 23.5 54t17.5 35t17 25.5t31 31.5h133q-55 -64 -79 -114t-41.5 -109t-27.5 -124.5t-10 -128.5q0 -64 10 -129t27.5 -124t41.5 -108.5t79 -113.5h-135z" />
    <glyph glyph-name="parenright" unicode=")" horiz-adv-x="324" 
d="M257 213q0 -85 -16.5 -162t-52.5 -166q-11 -27 -20 -46t-17.5 -34.5t-18.5 -29l-30 -40.5h-136q55 64 79 113.5t41.5 108.5t27.5 124t10 129q0 63 -10 128.5t-27.5 124.5t-41.5 109t-79 114h134q20 -20 29.5 -31t17.5 -25.5t17.5 -35.5t23.5 -54q35 -86 52 -164t17 -163z
" />
    <glyph glyph-name="asterisk" unicode="*" horiz-adv-x="523" 
d="M158 200l-97 70l131 166l84 -60zM207 399l-209 59l35 109l206 -75zM349 200l-118 176l83 62l131 -167zM307 471h-106l-8 209h123zM298 399l-32 93l206 75l35 -109z" />
    <glyph glyph-name="plus" unicode="+" horiz-adv-x="549" 
d="M316 188v-208h-106v208h-209v97h209v209h106v-209h209v-97h-209z" />
    <glyph glyph-name="comma" unicode="," horiz-adv-x="212" 
d="M182 36q0 -25 -9 -57q-3 -12 -7 -23.5t-10 -24t-13 -26.5l-17 -34l-20 -36h-95q18 42 22 52t11 30q3 10 5.5 17t3.5 13.5t3 13.5t3 12l-46 115q33 23 49.5 27.5t37.5 4.5q82 0 82 -84z" />
    <glyph glyph-name="hyphen" unicode="-" horiz-adv-x="300" 
d="M25 170v116h241v-116h-241z" />
    <glyph glyph-name="hyphen" unicode="&#xad;" horiz-adv-x="300" 
d="M25 170v116h241v-116h-241z" />
    <glyph glyph-name="period" unicode="." horiz-adv-x="198" 
d="M169 45q0 -31 -23 -54t-58 -23q-36 0 -59 23t-23 54q0 30 23 53t59 23q35 0 58 -23t23 -53z" />
    <glyph glyph-name="slash" unicode="/" horiz-adv-x="347" 
d="M79 -265h-120l263 945h120z" />
    <glyph glyph-name="zero" unicode="0" 
d="M454 321q0 52 -13 95.5t-34.5 75.5t-47.5 49t-53 17t-53.5 -17t-48 -49t-34.5 -75.5t-13 -95.5q0 -51 13 -95.5t34.5 -76.5t47.5 -48.5t54 -16.5t53.5 16.5t47 48.5t34.5 76.5t13 95.5zM579 321q0 -72 -20.5 -136.5t-56 -113.5t-86.5 -79t-110 -30q-60 0 -111 30
t-86.5 79t-56 113.5t-20.5 136.5t20.5 137t56 114t86.5 79t111 30q59 0 110 -30t86.5 -79t56 -114t20.5 -137z" />
    <glyph glyph-name="one" unicode="1" 
d="M254 -20v575h-151v127h301v-702h-150z" />
    <glyph glyph-name="two" unicode="2" 
d="M61 -20v78l236 279q46 52 46 121q0 44 -19 68t-44 24q-11 0 -24.5 -5t-23.5 -14q-7 -6 -12 -11t-11.5 -14t-17 -23t-44.5 -65l-84 86q24 37 34 52.5t17.5 26t14 18.5t15.5 17q27 29 65 46t79 17q87 0 135 -61t48 -158q0 -51 -13 -92q-5 -16 -11.5 -30.5t-17.5 -31.5
t-27.5 -37t-40.5 -49l-102 -116h254v-126h-452z" />
    <glyph glyph-name="three" unicode="3" 
d="M479 220q0 -59 -24 -106.5t-68 -82t-106 -53t-136 -18.5h-50v103q57 2 81.5 4t43 6t33 9.5t30.5 14.5q34 19 53 49.5t19 66.5q0 50 -29.5 75t-86.5 25h-75v90q89 20 124 51t35 77q0 30 -13.5 44.5t-35.5 14.5q-10 0 -18 -2t-18 -7t-24 -14.5t-53 -42.5l-73 82
q25 23 35.5 31t18.5 14q31 20 69.5 32.5t76.5 12.5q73 0 115.5 -43.5t42.5 -113.5q0 -115 -70 -150q-23 7 -11.5 2.5t24.5 -10.5q44 -25 67 -66.5t23 -94.5z" />
    <glyph glyph-name="four" unicode="4" 
d="M374 489l-173 -231l20 23l-38 -8h157l-1 224l-6 -88zM462 170v-210h-122v210h-315v44l363 480h74v-421h116v-103h-116z" />
    <glyph glyph-name="five" unicode="5" 
d="M477 225q0 -64 -29 -117.5t-81 -88.5q-45 -28 -105 -40q-14 -4 -25.5 -5.5t-24.5 -3t-29.5 -2.5t-65.5 -3v103q48 2 64 3.5t28 3t22.5 4.5t23.5 7q45 14 69.5 48t24.5 86q0 70 -38 106q-14 13 -37 19.5t-65 8.5l-73 3v341h321v-103h-199v-138l16 -1q96 -8 149.5 -70
t53.5 -161z" />
    <glyph glyph-name="six" unicode="6" 
d="M413 202q0 25 -8 45.5t-20.5 34.5t-29 21t-36.5 7q-9 0 -23 -2t-29 -6q-12 -3 -21.5 -6t-19.5 -7.5t-21.5 -9.5t-16.5 -7v-13v-16q0 -42 9.5 -76t26 -56.5t36.5 -33.5t44 -11q21 0 40.5 9.5t34.5 27t24.5 43.5t9.5 56zM529 210q0 -53 -16 -98.5t-46 -79t-72 -53.5
t-93 -20q-56 0 -101 23t-75.5 63.5t-45.5 96t-15 124.5q0 184 100 311q46 58 105 85.5t139 27.5q16 0 29.5 -1t60.5 -5v-103q-46 5 -55.5 5.5t-22.5 0.5q-21 0 -40.5 -2t-32.5 -7q-45 -15 -87 -66q-15 -19 -26 -35t-19 -34.5t-14 -42t-5 -15.5q-18 -9 -7.5 -4t22.5 10
q31 12 62 18t60 6q44 0 80.5 -16t62 -43.5t39 -64.5t13.5 -81z" />
    <glyph glyph-name="seven" unicode="7" 
d="M363 259q-10 -24 -23 -51.5t-30 -58.5q-14 -26 -26 -45.5t-24 -37.5t-27 -37.5t-54 -65.5l-93 79q25 29 35 41t16 19q34 44 65.5 99.5t50.5 107.5l104 270h-288v109h440v-61z" />
    <glyph glyph-name="eight" unicode="8" 
d="M394 156q0 23 -13 44t-46 51l-45 41l-44 -36q-58 -46 -58 -100q0 -43 25 -64t74 -21q52 0 79.5 22t27.5 63zM368 540q0 28 -20.5 43.5t-58.5 15.5q-34 0 -55 -18.5t-21 -48.5q0 -35 42 -71l36 -30l39 31q17 14 27.5 35.5t10.5 42.5zM524 149q0 -40 -17.5 -73.5t-50 -58.5
t-76.5 -38.5t-96 -13.5q-50 0 -91 13.5t-71 38t-46.5 58t-16.5 73.5q0 44 18 79q11 21 33.5 48t42.5 42l53 42l-48 40q-20 17 -34.5 32t-23 30t-12 30t-3.5 34q0 38 15.5 69.5t44 55t67 36t85.5 12.5q43 0 80.5 -11.5t64 -32.5t41.5 -50t15 -64q0 -76 -70 -133l-53 -42
l66 -56q19 -14 37 -38q27 -32 36.5 -58t9.5 -64z" />
    <glyph glyph-name="nine" unicode="9" 
d="M411 412q0 43 -9.5 77t-25.5 56.5t-36 33.5t-45 11q-21 0 -40.5 -9.5t-34.5 -27t-24 -44t-9 -56.5q0 -50 26.5 -79t67.5 -29q9 0 22.5 1.5t28.5 6.5q24 6 42 13t37 17v13v16zM534 389q0 -90 -25 -168.5t-74 -140.5q-46 -59 -105.5 -87t-139.5 -28q-16 0 -29 1t-60 5v104
q46 -5 55 -6t22 -1q44 0 73 10q22 6 44.5 23t43.5 42q16 18 26.5 34.5t18.5 35t14 42.5t5 15q18 10 7 5t-21 -9q-64 -26 -124 -26q-44 0 -80.5 16t-62 43.5t-39 64.5t-13.5 81q0 53 16 98t46 79.5t72 54.5t93 20q114 0 175.5 -84t61.5 -224z" />
    <glyph glyph-name="colon" unicode=":" horiz-adv-x="254" 
d="M205 45q0 -31 -23 -54t-58 -23q-36 0 -59 23t-23 54q0 30 23 53t59 23q35 0 58 -23t23 -53zM205 409q0 -31 -23 -54t-58 -23q-36 0 -59 23t-23 54q0 30 23 53t59 23q35 0 58 -23t23 -53z" />
    <glyph glyph-name="semicolon" unicode=";" horiz-adv-x="263" 
d="M207 36q0 -25 -9 -57q-6 -24 -15.5 -47t-31.5 -61l-21 -36h-97q21 42 24.5 52l10.5 30q4 10 6.5 17t3.5 13.5t3 13.5t3 12l-46 115q32 23 48.5 27.5t38.5 4.5q82 0 82 -84zM214 409q0 -31 -23 -54t-59 -23q-35 0 -58 23t-23 54q0 30 23 53t58 23q36 0 59 -23t23 -53z" />
    <glyph glyph-name="semicolon" unicode="&#x37e;" horiz-adv-x="263" 
d="M207 36q0 -25 -9 -57q-6 -24 -15.5 -47t-31.5 -61l-21 -36h-97q21 42 24.5 52l10.5 30q4 10 6.5 17t3.5 13.5t3 13.5t3 12l-46 115q32 23 48.5 27.5t38.5 4.5q82 0 82 -84zM214 409q0 -31 -23 -54t-59 -23q-35 0 -58 23t-23 54q0 30 23 53t58 23q36 0 59 -23t23 -53z" />
    <glyph glyph-name="less" unicode="&#x3c;" horiz-adv-x="568" 
d="M9 198v78l522 232v-109l-369 -162l369 -162v-109z" />
    <glyph glyph-name="equal" unicode="=" horiz-adv-x="632" 
d="M38 114v97h550v-97h-550zM38 253v97h550v-97h-550z" />
    <glyph glyph-name="greater" unicode="&#x3e;" horiz-adv-x="585" 
d="M40 -34v109l369 162l-369 162v109l522 -232v-78z" />
    <glyph glyph-name="question" unicode="?" horiz-adv-x="416" 
d="M211 45q0 -31 -23 -54t-58 -23q-36 0 -59 23t-23 54q0 30 23 53t59 23q35 0 58 -23t23 -53zM373 446q0 -42 -10.5 -72t-38.5 -58q-11 -10 -21.5 -18.5t-23.5 -13t-27.5 -6.5t-33.5 -2h-26v-107h-125v216h161q8 10 12.5 24t4.5 35q0 40 -13.5 74.5t-37 60t-57 42
t-101.5 25.5l38 117q46 -11 63 -14.5t31 -8.5t26 -10.5t25 -13.5q37 -21 65 -50.5t48 -64.5t30.5 -74.5t10.5 -80.5z" />
    <glyph glyph-name="at" unicode="@" horiz-adv-x="964" 
d="M549 385q-5 2 -20.5 5.5t-29.5 3.5q-22 0 -44.5 -17.5t-42 -51.5t-31 -81.5t-11.5 -101.5q0 -42 6 -42q1 0 15 10.5t36 33.5q10 9 20 23t23 31q29 44 46 77.5t24 70.5zM908 265q0 -66 -18.5 -120t-54 -93t-87 -60t-115.5 -21q-129 0 -129 115q0 11 1.5 26.5t5.5 32.5
l-26 -122q55 93 28 60.5t-56.5 -55.5t-61.5 -37t-63 -14q-47 0 -69 48.5t-22 119.5q0 72 18.5 135.5t53 111.5t82.5 77t106 29q14 0 30 -1.5t34 -3.5q14 -3 24 -5t21 -4.5t23 -6t46 -14.5l-54 -341q-2 -14 -3 -24t-1 -16q0 -10 8 -16t21 -6q6 0 17 3t22 7q105 47 105 189
q0 63 -23.5 117t-63.5 93.5t-93 62t-113 22.5q-71 0 -131.5 -24.5t-105 -68t-69.5 -105.5t-25 -136q0 -79 27 -136t85 -102q44 -34 87.5 -48t104.5 -14q22 0 39.5 1.5t33.5 5t32.5 9.5t63.5 26l38 -97q-41 -20 -52 -24q-67 -26 -157 -26q-44 0 -81.5 5t-71 16t-64 29
t-60.5 42q-75 60 -109 136t-34 175q0 96 32.5 176t91.5 139.5t141 92.5t181 33q91 0 166.5 -29.5t129.5 -82t84 -125t30 -157.5z" />
    <glyph glyph-name="A" unicode="A" horiz-adv-x="613" 
d="M299 499l-75 -209h149zM481 -20l-68 195h-229l-68 -195h-140l260 719h126l259 -719h-140z" />
    <glyph glyph-name="B" unicode="B" horiz-adv-x="577" 
d="M393 182q0 50 -29.5 75t-86.5 25h-88v-193h88q41 0 58.5 4.5t29.5 14.5t20 30.5t8 43.5zM368 491q0 42 -22 64q-8 9 -21.5 12.5t-47.5 3.5h-88v-174h82q16 0 27 1t18 3.5t13 6.5t14 12q25 25 25 71zM530 176q0 -42 -14.5 -77.5t-41 -62.5t-65 -41.5t-83.5 -14.5h-269v700
h239q52 0 87 -10.5t64 -37.5q27 -26 42.5 -61t15.5 -73q0 -59 -34 -104.5t-25 -42.5q2 0 43 -50t41 -125z" />
    <glyph glyph-name="C" unicode="C" horiz-adv-x="594" 
d="M543 516q-58 40 -92 50.5t-77 10.5q-47 0 -85.5 -16.5t-67 -48t-45.5 -76t-17 -98.5q0 -59 17 -107t47 -80.5t72.5 -50t94.5 -17.5q39 0 71 6.5t96 33.5l37 -102q-32 -16 -44 -20.5t-22.5 -8.5t-21 -7t-23.5 -6q-27 -7 -50 -9.5t-48 -2.5q-81 0 -148.5 27.5t-116 77
t-74.5 116t-26 145.5q0 75 27 140t74.5 114t113 77t142.5 28q68 0 134 -24q24 -8 40 -17t57 -37z" />
    <glyph glyph-name="D" unicode="D" horiz-adv-x="698" 
d="M523 334q0 52 -18 96t-49.5 75t-74 48.5t-92.5 17.5h-100v-482h100q60 0 95.5 12t62.5 40q17 17 31 40t24 48.5t15.5 52.5t5.5 52zM659 333q0 -68 -24 -132.5t-70 -115.5q-48 -57 -110 -81t-154 -24h-244v700h245q78 0 144 -26.5t113.5 -73t73.5 -110t26 -137.5z" />
    <glyph glyph-name="E" unicode="E" horiz-adv-x="511" 
d="M57 -20v700h421v-109h-289v-180h239v-109h-239v-193h298v-109h-430z" />
    <glyph glyph-name="F" unicode="F" horiz-adv-x="485" 
d="M189 571v-186h239v-110h-239v-295h-132v700h421v-109h-289z" />
    <glyph glyph-name="G" unicode="G" horiz-adv-x="680" 
d="M636 12q-31 -11 -44 -15.5t-21 -6.5q-36 -11 -83 -17t-91 -6q-81 0 -150 28.5t-119.5 77.5t-79 115.5t-28.5 142.5t28 142t77.5 114.5t118.5 76t150 27.5q37 0 76.5 -4t68.5 -12q24 -7 41 -14.5t61 -31.5l-49 -108q-37 22 -45.5 26t-13.5 7q-25 10 -59.5 16.5t-71.5 6.5
q-64 0 -106.5 -17t-76.5 -58q-29 -34 -45 -76.5t-16 -88.5q0 -57 20 -104t55.5 -80.5t83 -52.5t103.5 -19q23 0 43.5 3t40.5 7v224h132v-303z" />
    <glyph glyph-name="H" unicode="H" horiz-adv-x="729" 
d="M528 -20v302h-339v-302h-132v700h132v-283h339v283h132v-700h-132z" />
    <glyph glyph-name="I" unicode="I" horiz-adv-x="258" 
d="M57 -20v700h132v-700h-132z" />
    <glyph glyph-name="J" unicode="J" horiz-adv-x="264" 
d="M194 -21q-7 -23 -12 -39t-11 -30t-13.5 -27.5t-17.5 -28.5q-9 -14 -17.5 -26t-18 -23.5t-21 -23t-45.5 -44.5l-86 73q29 32 40 45.5t19 23.5t13 18t10 17q13 27 20.5 63.5t7.5 79.5v623h132v-701z" />
    <glyph glyph-name="K" unicode="K" horiz-adv-x="552" 
d="M57 -20v700h132v-700h-132zM420 -20l-279 353l273 347h154l-274 -341l286 -359h-160z" />
    <glyph glyph-name="L" unicode="L" horiz-adv-x="484" 
d="M57 -20v700h132v-591h295v-109h-427z" />
    <glyph glyph-name="M" unicode="M" horiz-adv-x="836" 
d="M635 -20v380q1 202 21.5 192.5t17.5 -18.5t-6.5 -19t-8.5 -24l-201 -511h-112l-187 499q-5 14 -8.5 23.5t-6.5 19.5t18.5 19.5t19.5 -220.5v-341h-125v700h156l207 -542q8 -22 10 -31t-29 -49q-14 47 -11.5 55.5t7.5 23.5l214 543h156v-700h-132z" />
    <glyph glyph-name="N" unicode="N" horiz-adv-x="717" 
d="M513 -26l-341 527q-2 4 -5.5 9.5t-7.5 13.5q-3 5 -5.5 9t-3.5 7q-2 5 18 12.5t21 -149.5v-423h-132v700h147l334 -514q2 -3 5 -8t6 -11q2 -7 4 -11.5t7 -17.5q2 -4 2.5 -6t-46.5 69v499h132v-706h-135z" />
    <glyph glyph-name="O" unicode="O" horiz-adv-x="772" 
d="M593 330q0 52 -18 98.5t-48 80t-69 52.5t-81 19q-43 0 -82 -19t-69 -52.5t-48 -80t-18 -98.5q0 -53 18 -99.5t48 -80t69 -52.5t82 -19q42 0 81 19t69 52.5t48 80t18 99.5zM733 330q0 -78 -25.5 -143.5t-73.5 -115t-113.5 -77t-143.5 -27.5t-144 27.5t-113.5 77t-73.5 115
t-26 143.5q0 77 26 143t73.5 115t113.5 76.5t144 27.5t143.5 -27.5t113.5 -76.5t73.5 -115t25.5 -143z" />
    <glyph glyph-name="P" unicode="P" horiz-adv-x="559" 
d="M391 460q0 59 -30 89q-12 12 -30 17t-54 5h-88v-235q12 -1 29.5 -2t33.5 -1q48 0 75 11q28 12 46 42.5t18 73.5zM526 465q0 -55 -18 -99.5t-52 -76.5t-82.5 -49.5t-107.5 -17.5q-11 0 -20.5 0.5t-21 1.5t-26.5 2.5t-9 1.5v-248h-132v700h232q65 0 106.5 -13t74.5 -47
q29 -29 42.5 -67t13.5 -88z" />
    <glyph glyph-name="Q" unicode="Q" horiz-adv-x="772" 
d="M594 330q0 52 -18 98.5t-48 80t-69 52.5t-82 19t-82 -19t-69 -52.5t-48.5 -80t-18.5 -98.5q0 -53 18 -99.5t48 -80t69.5 -52.5t82.5 -19t82 19t69 52.5t48 80t18 99.5zM733 329q0 -68 -20.5 -127.5t-59 -107t-93 -80.5t-89.5 -39q-8 11 -2.5 5l16.5 -18q26 -27 51 -45
q13 -10 23.5 -17.5t22.5 -14t27.5 -14t60.5 -26.5l-72 -99q-46 24 -64.5 34.5t-33.5 20t-29 19t-29 22.5q-18 13 -32 26t-27.5 27t-26.5 29.5t-29 34.5l-8 10q-5 1 -16.5 2.5t-20.5 4t-16.5 4.5t-16.5 6q-52 17 -94 51.5t-72.5 80.5t-46.5 100t-16 112q0 77 25.5 143
t73.5 115t114 76.5t144 27.5t143.5 -27.5t113.5 -77t73.5 -115t25.5 -143.5z" />
    <glyph glyph-name="R" unicode="R" horiz-adv-x="577" 
d="M378 481q0 54 -28 77q-6 4 -11 6t-12.5 4t-20.5 2.5t-35 0.5h-82v-199h82q107 0 107 109zM419 -20l-182 283h-48v-283h-132v700h226q32 0 57 -2.5t46 -9t39 -18t33 -26.5q27 -26 42.5 -63.5t15.5 -78.5q0 -42 -16.5 -81.5t-47.5 -68.5q-22 -22 -47 -35t-35 -15l199 -302
h-150z" />
    <glyph glyph-name="S" unicode="S" horiz-adv-x="506" 
d="M444 518q-50 28 -62 34.5t-26 10.5q-17 6 -40.5 9.5t-41.5 3.5q-47 0 -74 -20t-27 -53q0 -15 5 -26.5t20.5 -25t46 -32t80.5 -44.5q72 -39 108 -70q28 -24 43 -59.5t15 -74.5q0 -93 -65.5 -148.5t-176.5 -55.5q-73 0 -133 24q-20 8 -38.5 18.5t-66.5 43.5l65 101
q51 -34 65.5 -42t29.5 -14q39 -15 84 -15q49 0 74.5 20t25.5 60q0 26 -8 39q-14 27 -48 46q-7 5 -34.5 18.5t-74.5 39.5q-79 43 -115.5 88t-36.5 102q0 43 17.5 79t49.5 62t77.5 40t98.5 14q31 0 61.5 -4.5t58.5 -12.5q22 -8 39.5 -16.5t62.5 -34.5z" />
    <glyph glyph-name="T" unicode="T" horiz-adv-x="509" 
d="M349 571v-591h-132v591h-220v109h572v-109h-220z" />
    <glyph glyph-name="U" unicode="U" horiz-adv-x="658" 
d="M615 226q0 -69 -19 -114.5t-64 -83.5q-83 -67 -199 -67q-117 0 -200 67q-46 37 -65 83.5t-19 114.5v454h132v-429q0 -30 1.5 -50t5 -33.5t9.5 -23.5t17 -21q44 -49 118 -49t118 49q11 11 17 21t9.5 23.5t5 33.5t1.5 50v429h132v-454z" />
    <glyph glyph-name="V" unicode="V" horiz-adv-x="610" 
d="M352 -37h-86l-276 717h140l201 -530q2 -8 4.5 -16t-27.5 -49q-19 38 -17 47t5 18l193 530h135z" />
    <glyph glyph-name="W" unicode="W" horiz-adv-x="892" 
d="M641 -33h-88l-101 264l-102 -264h-80l-280 713h141l183 -496l78 202l-112 294h127l48 -125l49 125h120l-109 -282l81 -212l176 494h133z" />
    <glyph glyph-name="X" unicode="X" horiz-adv-x="599" 
d="M465 -20l-167 247l-169 -247h-152l245 357l-234 343h151l160 -233l158 233h150l-235 -344l244 -356h-151z" />
    <glyph glyph-name="Y" unicode="Y" horiz-adv-x="518" 
d="M336 303v-323h-132v318l-235 382h143l162 -259l167 259h143z" />
    <glyph glyph-name="Z" unicode="Z" horiz-adv-x="583" 
d="M19 -20v63l365 528h-365v109h544v-69l-365 -522h383v-109h-562z" />
    <glyph glyph-name="bracketleft" unicode="[" horiz-adv-x="250" 
d="M48 -265v945h214v-96h-88v-753h88v-96h-214z" />
    <glyph glyph-name="backslash" unicode="\" horiz-adv-x="409" 
d="M275 -265l-263 945h120l263 -945h-120z" />
    <glyph glyph-name="bracketright" unicode="]" horiz-adv-x="250" 
d="M-12 -265v96h88v753h-88v96h214v-945h-214z" />
    <glyph glyph-name="asciicircum" unicode="^" horiz-adv-x="522" 
d="M417 -19l-156 355l-156 -355h-116l227 512h90l227 -512h-116z" />
    <glyph glyph-name="underscore" unicode="_" horiz-adv-x="500" 
d="M-25 -77v97h550v-97h-550z" />
    <glyph glyph-name="a" unicode="a" horiz-adv-x="437" 
d="M285 180l-126 -33q-3 -6 -5 -13.5t-2 -19.5q0 -20 10 -29.5t26 -9.5q10 0 18 2t19.5 7.5t28 15.5t31.5 22v58zM425 -34q-77 5 -103 24t-26 12q22 19 10.5 10.5t-23.5 -14.5q-24 -14 -53 -22t-57 -8q-67 0 -106.5 39t-39.5 100q0 56 30 93.5t89 51.5l139 33v67
q0 36 -61 36q-44 0 -44 -19q0 -3 10 -31l-121 -26q-15 27 -17 34.5t-2 17.5q0 55 53.5 88t134.5 33q79 0 126 -36t47 -97v-245v-32q0 -3 42 -10z" />
    <glyph glyph-name="b" unicode="b" horiz-adv-x="539" 
d="M379 244q0 65 -29 97.5t-79 32.5q-27 0 -49 -7t-38 -18v-269q1 0 12.5 -2.5t28.5 -2.5q19 0 33 3q17 4 32.5 11t29.5 17q33 23 46 53.5t13 84.5zM511 247q0 -62 -20.5 -113t-58 -88.5t-92 -58t-119.5 -20.5q-22 0 -50 3t-48 8q-13 3 -23.5 6t-40.5 18v747h125v-279
q-19 -9 -8 -5t27 9q19 6 44.5 8.5t48.5 2.5q49 0 89.5 -18t68.5 -50t42.5 -75.5t14.5 -94.5z" />
    <glyph glyph-name="c" unicode="c" horiz-adv-x="482" 
d="M465 29q-29 -17 -36.5 -21.5t-13.5 -6.5q-62 -34 -138 -34q-58 0 -105.5 19t-81 53.5t-52 80.5t-18.5 101q0 57 18.5 104.5t53.5 83.5t83.5 56t106.5 20q38 0 74 -10q26 -7 43 -15.5t57 -36.5l-70 -98q-46 39 -63.5 45.5t-43.5 6.5q-56 0 -91.5 -40.5t-35.5 -111.5
q0 -72 36 -110.5t97 -38.5q28 0 47.5 7t68.5 43z" />
    <glyph glyph-name="d" unicode="d" horiz-adv-x="532" 
d="M359 295q0 25 -1 34.5t-6 17.5q-13 26 -68 26q-59 0 -96 -41t-37 -117q0 -32 8 -58t21.5 -44t30.5 -26.5t36 -8.5q15 0 34.5 6.5t37.5 19.5q11 8 20 17t20 23v151zM359 -20v14q12 14 -31.5 -6.5t-93.5 -20.5q-49 0 -89 19t-67.5 52.5t-42.5 78.5t-15 97q0 58 18 107
t52 85.5t82 57.5t104 21q40 0 69.5 -8.5t13.5 4.5v268h126v-769h-126z" />
    <glyph glyph-name="e" unicode="e" horiz-adv-x="487" 
d="M327 309q-1 27 -20 47.5t-53 20.5q-37 0 -62.5 -22t-31.5 -46h167zM149 213q0 -57 33.5 -97t89.5 -40q25 0 46 8t82 50l50 -98q-41 -26 -63 -37.5t-43 -18.5t-42.5 -10t-45.5 -3q-53 0 -97.5 19.5t-75.5 54.5t-47 81.5t-16 103.5t16.5 104t47.5 81.5t76 54t99 19.5
q46 0 83 -15.5t63.5 -43.5t40 -66t13.5 -83v-64h-310z" />
    <glyph glyph-name="f" unicode="f" horiz-adv-x="310" 
d="M385 628q-46 15 -60 18t-28 3q-90 0 -90 -140v-36h107v-103h-107v-390h-125v390h-76v79l76 19v60q0 51 14.5 93t43.5 73t70 48t92 17q32 0 57.5 -5.5t73.5 -27.5z" />
    <glyph glyph-name="g" unicode="g" horiz-adv-x="515" 
d="M375 -71q0 26 -34 26h-154l-8 -12q-21 -33 -28 -47.5t-7 -23.5q0 -15 21 -26.5t60 -11.5q30 0 58 8.5t48.5 21.5t32 30t11.5 35zM305 295q0 21 -7 38.5t-17.5 29.5t-24.5 18.5t-28 6.5t-27 -6.5t-23.5 -19t-17.5 -30t-7 -37.5t7 -37.5t17.5 -30t24 -19t27.5 -6.5
q15 0 28 6t23.5 18.5t17.5 30t7 38.5zM426 370q11 -16 11 -74q0 -38 -15.5 -72.5t-42.5 -60.5t-64 -42t-79 -16q-6 0 -13.5 0.5t-15.5 1.5q-3 0 -7 0.5t3 0.5q-23 -19 -33.5 -31.5t-10.5 -16.5q0 3 -1 3.5t14 0.5h169q74 0 110.5 -31.5t36.5 -94.5q0 -44 -21 -82t-58 -67
t-86 -45.5t-105 -16.5q-40 0 -76 9.5t-63.5 27t-45 41.5t-17.5 51q0 23 16 54q11 21 23.5 38t18.5 23q-7 3 -28 19.5t-21 44.5t24 57.5t52 52.5q-74 39 -74 147q0 41 15 76.5t42.5 61.5t65.5 40.5t83 14.5q13 0 25 -1t24.5 -3.5t25.5 -6t26 -8.5h63l108 9v-105h-79z" />
    <glyph glyph-name="h" unicode="h" horiz-adv-x="533" 
d="M360 -20v341q0 22 -1 30.5t-4 15.5q-5 11 -22 11q-26 0 -62 -24.5t-87 -82.5v-291h-125v769h125v-330q-33 -37 -25.5 -27.5t14.5 16.5t14 13t15 13q29 25 66 38t74 13q144 0 144 -146v-359h-126z" />
    <glyph glyph-name="i" unicode="i" horiz-adv-x="249" 
d="M65 -20v493h125v-493h-125zM202 611q0 -27 -21 -48t-53 -21t-53 21t-21 48t21 48t53 21t53 -21t21 -48z" />
    <glyph glyph-name="j" unicode="j" horiz-adv-x="264" 
d="M184 -78q-9 -22 -15.5 -36t-12.5 -26t-12 -22.5l-14 -24.5q-7 -11 -13 -20t-12.5 -18t-14 -18.5t-34.5 -44.5l-85 71q22 31 30.5 42.5t14 21t10.5 18.5t12 22q11 22 16 47.5t5 59.5v479h125v-551zM195 612q0 -27 -21 -48t-53 -21t-53 21t-21 48t21 48t53 21t53 -21
t21 -48z" />
    <glyph glyph-name="k" unicode="k" horiz-adv-x="468" 
d="M59 -20v769h125v-769h-125zM334 -20l-203 267l204 226h161l-213 -229l209 -264h-158z" />
    <glyph glyph-name="l" unicode="l" horiz-adv-x="231" 
d="M59 -20v769h125v-769h-125z" />
    <glyph glyph-name="m" unicode="m" horiz-adv-x="825" 
d="M653 -20v341q0 24 -1 31t-4 14q-3 6 -8.5 9t-14.5 3q-23 0 -53.5 -20t-79.5 -71l-16 -17v-290h-125v341q0 24 -1 31t-4 14q-3 6 -8.5 9t-14.5 3q-12 0 -26.5 -5t-33 -18t-41.5 -35t-48 -49v-291h-125v493h125v-54q-33 -36 -25 -27t15 16t14 13t15 13q29 25 65.5 38
t73.5 13q135 0 139 -71q-29 -32 -21 -23t15.5 16.5t14.5 13.5t15 13q29 25 65.5 38t73.5 13q144 0 144 -146v-359h-125z" />
    <glyph glyph-name="n" unicode="n" horiz-adv-x="523" 
d="M351 -20v341q0 22 -1.5 30.5t-4.5 16.5q-2 4 -7.5 7t-14.5 3q-12 0 -26.5 -5t-33 -18t-41.5 -35t-48 -49v-291h-125v493h125v-54q-33 -36 -25 -27t15 16t14 13t15 13q29 25 65.5 38t73.5 13q144 0 144 -146v-359h-125z" />
    <glyph glyph-name="o" unicode="o" horiz-adv-x="545" 
d="M385 226q0 33 -10 62t-26.5 49t-36.5 30.5t-43 10.5t-43.5 -10.5t-37 -30.5t-26.5 -49t-10 -62t10 -62t26.5 -49t37 -30.5t43.5 -10.5t43 10.5t36.5 30.5t26.5 49t10 62zM517 226q0 -52 -18.5 -98.5t-52 -82t-79 -57t-98.5 -21.5t-99 21.5t-79.5 57t-52 82t-18.5 98.5
t18.5 98.5t52 82t79.5 57t99 21.5t98.5 -21.5t79 -57t52 -82t18.5 -98.5z" />
    <glyph glyph-name="p" unicode="p" horiz-adv-x="541" 
d="M382 238q0 32 -8 58t-21.5 44t-30.5 26.5t-36 8.5q-15 0 -34.5 -7t-37.5 -19q-12 -9 -20.5 -17.5t-19.5 -23.5v-151q0 -28 1 -35.5t6 -15.5q15 -27 68 -27q59 0 96 41.5t37 117.5zM513 239q0 -58 -18.5 -107t-52 -85.5t-81.5 -57.5t-104 -21q-40 0 -69.5 8.5t-13.5 -4.5
v-231h-125v732h125v-14q-13 -15 30.5 6t93.5 21q49 0 89 -19t68 -52.5t43 -78.5t15 -97z" />
    <glyph glyph-name="q" unicode="q" horiz-adv-x="518" 
d="M347 371q-1 0 -12.5 2.5t-30.5 2.5q-69 0 -110.5 -44.5t-41.5 -125.5q0 -64 29 -96t79 -32q27 0 49 7t38 17v269zM347 -259v241q19 9 8 5t-27 -9q-19 -5 -44.5 -8.5t-48.5 -3.5q-48 0 -88.5 18t-68.5 50t-43 74.5t-15 93.5q0 61 20.5 112t58 89.5t90.5 60t117 21.5
q24 0 52.5 -2.5t49.5 -8.5q13 -3 23.5 -6.5t40.5 -16.5v-710h-125z" />
    <glyph glyph-name="r" unicode="r" horiz-adv-x="322" 
d="M295 336l-39 33q-25 0 -82 -103v-286h-125v493h125v-32q-25 -32 -7.5 -13t33.5 32t32.5 19t34.5 6q39 0 87 -48z" />
    <glyph glyph-name="s" unicode="s" horiz-adv-x="429" 
d="M405 117q0 -69 -49 -109.5t-134 -40.5q-32 0 -68 6q-17 4 -31 7t-27 8t-26.5 11t-48.5 24l50 102q37 -20 45 -24.5t14 -7.5q21 -10 46 -16t45 -6q25 0 40 11t15 29q0 6 -1.5 12t-3.5 9q-7 9 -13 14.5t-18 12.5t-31 16t-48 21q-35 15 -59.5 29.5t-41.5 31.5t-24 36.5
t-7 43.5q0 69 53.5 108.5t143.5 39.5q15 0 31.5 -1t31.5 -4t26 -6t22 -7t23 -10t44 -25l-60 -98q-44 28 -55.5 33t-26.5 9q-25 7 -44 7q-29 0 -44 -10t-15 -27q0 -10 4 -14q7 -8 12.5 -11.5t16 -9.5t28 -13.5t48.5 -20.5q38 -16 64 -31.5t43 -35t23.5 -42t6.5 -51.5z" />
    <glyph glyph-name="t" unicode="t" horiz-adv-x="329" 
d="M338 40q-33 -27 -49 -38.5t-31.5 -20t-31.5 -11.5t-32 -3q-52 0 -82 35t-30 86v282h-76v79l76 19v137h125v-132h120v-103h-120v-238l1 -19q1 -11 1 -17t1 -10q0 -4 1 -4q7 0 17 5t56 40z" />
    <glyph glyph-name="u" unicode="u" horiz-adv-x="523" 
d="M350 -20v40q-39 -54 -155 -54q-146 0 -146 147v360h125v-341q0 -37 7.5 -48t21.5 -11q12 0 30 7.5t38.5 22.5t41.5 36t37 42v292h126v-493h-126z" />
    <glyph glyph-name="v" unicode="v" horiz-adv-x="456" 
d="M281 -33h-107l-184 506h134l131 -384l-42 -28l-5 27l129 385h135z" />
    <glyph glyph-name="w" unicode="w" horiz-adv-x="695" 
d="M539 -33h-99l-107 298l15 23l20 -23l-113 -298h-100l-164 506h134l114 -378l-15 -37l-33 37l101 279l-38 99h132l126 -377l-30 -53l-18 53l119 377h127z" />
    <glyph glyph-name="x" unicode="x" horiz-adv-x="470" 
d="M314 -20l-89 144l-91 -144h-140l165 249l-166 244h151l84 -142l85 142h144l-164 -241l170 -252h-149z" />
    <glyph glyph-name="y" unicode="y" horiz-adv-x="429" 
d="M257 -31q-16 -42 -30.5 -73.5t-34.5 -62.5q-7 -11 -13 -20.5t-13.5 -20.5t-18 -24t-40.5 -52l-98 75q30 32 41.5 46t20.5 25.5t16.5 24.5t17.5 31q9 16 16.5 30t14 29t14 34t15.5 39l-177 423h137l115 -292l-14 41l-9 -42l98 293h129z" />
    <glyph glyph-name="z" unicode="z" horiz-adv-x="460" 
d="M24 -20v64l257 322h-244v107h427v-58l-261 -328h261v-107h-440z" />
    <glyph glyph-name="braceleft" unicode="{" horiz-adv-x="409" 
d="M330 -263q-83 0 -120 37t-37 115v220q0 93 -51 93h-61v95h61q51 0 51 93v220q0 78 37 115t120 37h81v-103h-69q-9 0 -18.5 -5t-15.5 -14q-6 -8 -8 -21t-2 -41v-201v-26t-1 -21q-4 -33 -24.5 -60t-52.5 -34l69 17l-72 12q38 -8 61 -43q6 -9 10 -18.5t6.5 -21t3 -26
t0.5 -34.5v-202q0 -27 2 -39.5t8 -21.5q5 -8 15 -13.5t19 -5.5h69v-103h-81z" />
    <glyph glyph-name="bar" unicode="|" horiz-adv-x="250" 
d="M67 -259v1008h120v-1008h-120z" />
    <glyph glyph-name="braceright" unicode="}" horiz-adv-x="409" 
d="M291 202q-22 0 -36.5 -21.5t-14.5 -71.5v-220q0 -78 -37 -115t-120 -37h-81v103h69q9 0 18.5 5t15.5 14q6 8 8 21t2 40v202v25.5t1 21.5q4 33 24.5 60t53.5 34l-70 -14l71 -14q-38 8 -60 42q-6 9 -10 18.5t-6.5 21t-3 26t-0.5 34.5v201q0 28 -2 40.5t-8 21.5
q-5 8 -15 13.5t-19 5.5h-69v103h81q83 0 120 -37t37 -115v-220q0 -92 52 -93l60 -2v-93h-61z" />
    <glyph glyph-name="asciitilde" unicode="~" horiz-adv-x="544" 
d="M562 228q-41 -30 -57 -39t-40 -18q-53 -19 -101 -19q-18 0 -33.5 1.5t-32 6.5t-35 12.5t-42.5 19.5q-21 10 -33.5 13.5t-25.5 3.5q-24 0 -52.5 -11.5t-78.5 -49.5l-54 77q25 21 35 28.5t20.5 13.5t20 10.5t22.5 10.5q50 20 92 20q20 0 43.5 -5t48.5 -18l50 -21
q21 -10 33.5 -13t25.5 -3q26 0 54 9q15 5 26 12t55 38z" />
    <glyph glyph-name="brokenbar" unicode="&#xa6;" horiz-adv-x="220" 
d="M51 -259v478h122v-478h-122zM51 271v478h122v-478h-122z" />
    <glyph glyph-name="guillemotleft" unicode="&#xab;" horiz-adv-x="560" 
d="M6 226l285 239v-140l-122 -99l122 -99v-138zM245 226l285 239v-140l-122 -99l122 -99v-138z" />
    <glyph glyph-name="Agrave" unicode="&#xc0;" horiz-adv-x="613" 
d="M299 499l-75 -209h149zM481 -20l-68 195h-229l-68 -195h-140l260 719h126l259 -719h-140zM259 695l-153 158h152l128 -158h-127z" />
    <glyph glyph-name="Aacute" unicode="&#xc1;" horiz-adv-x="613" 
d="M299 499l-75 -209h149zM481 -20l-68 195h-229l-68 -195h-140l260 719h126l259 -719h-140zM350 695h-128l128 158h151z" />
    <glyph glyph-name="Acircumflex" unicode="&#xc2;" horiz-adv-x="613" 
d="M299 499l-75 -209h149zM481 -20l-68 195h-229l-68 -195h-140l260 719h126l259 -719h-140zM366 676l-65 57l-64 -57h-129l150 157h87l153 -157h-132z" />
    <glyph glyph-name="Atilde" unicode="&#xc3;" horiz-adv-x="613" 
d="M299 499l-75 -209h149zM481 -20l-68 195h-229l-68 -195h-140l260 719h126l259 -719h-140zM529 756q-31 -28 -42.5 -36t-32.5 -17q-42 -18 -82 -18q-43 0 -100 30q-22 11 -28.5 13.5t-14.5 2.5q-12 0 -23 -6q-4 -1 -7 -2.5t-7 -4t-10.5 -6.5t-39.5 -25l-57 79q42 27 54 34
t27 13q35 18 74 18q12 0 17 -1q7 -1 15 -2.5t18 -5.5t22 -10.5t31 -16.5q16 -8 24 -11t15 -3t12.5 1t12.5 4t17 9t49 33z" />
    <glyph glyph-name="Adieresis" unicode="&#xc4;" horiz-adv-x="613" 
d="M299 499l-75 -209h149zM481 -20l-68 195h-229l-68 -195h-140l260 719h126l259 -719h-140zM281 758q0 -27 -21.5 -48.5t-54.5 -21.5q-32 0 -53.5 21.5t-21.5 48.5q0 28 21.5 49.5t53.5 21.5q33 0 54.5 -21.5t21.5 -49.5zM466 758q0 -27 -21 -48.5t-54 -21.5t-54.5 21.5
t-21.5 48.5q0 28 21.5 49.5t54.5 21.5t54 -21.5t21 -49.5z" />
    <glyph glyph-name="Aring" unicode="&#xc5;" horiz-adv-x="613" 
d="M299 499l-75 -209h149zM317 788q0 10 -5.5 16t-10.5 6t-11 -6t-6 -16t6 -15.5t11 -5.5t10.5 5.5t5.5 15.5zM481 -20l-68 195h-229l-68 -195h-140l260 719h126l259 -719h-140zM405 788q0 -40 -29.5 -69.5t-74.5 -29.5t-75 29.5t-30 69.5t30 70t75 30t74.5 -30t29.5 -70z
" />
    <glyph glyph-name="AE" unicode="&#xc6;" horiz-adv-x="800" 
d="M349 501l-103 -211h103v211zM349 -20v195h-153l-94 -195h-149l353 700h68h396v-109h-294v-180h243v-109h-243v-193h300v-109h-427z" />
    <glyph glyph-name="Ccedilla" unicode="&#xc7;" horiz-adv-x="594" 
d="M543 516q-58 40 -92 50.5t-77 10.5q-47 0 -85.5 -16.5t-67 -48t-45.5 -76t-17 -98.5q0 -59 17 -107t47 -80.5t72.5 -50t94.5 -17.5q39 0 71 6.5t96 33.5l37 -102q-44 -21 -59.5 -27t-36.5 -11q-55 -14 -104 -14h11l-11 -18h-31q102 0 102 -96q0 -49 -34.5 -80.5
t-93.5 -31.5q-27 0 -53 5.5t-86 27.5l44 89q51 -22 65 -26t24 -4q7 0 11.5 4t4.5 13q0 13 -7 17t-35 4h-71l62 103q14 -3 0.5 -0.5t-26 6t-23 7.5t-23.5 9q-48 22 -86 56.5t-64 78.5t-40 94.5t-14 105.5q0 75 27 140t74.5 114t113 77t142.5 28q68 0 134 -24q24 -8 40 -17
t57 -37z" />
    <glyph glyph-name="Egrave" unicode="&#xc8;" horiz-adv-x="511" 
d="M57 -20v700h421v-109h-289v-180h239v-109h-239v-193h298v-109h-430zM254 695l-151 158h152l125 -158h-126z" />
    <glyph glyph-name="Eacute" unicode="&#xc9;" horiz-adv-x="511" 
d="M57 -20v700h421v-109h-289v-180h239v-109h-239v-193h298v-109h-430zM331 695h-68q-45 18 -36 29t27 33.5t38 48t39 47.5h151z" />
    <glyph glyph-name="Ecircumflex" unicode="&#xca;" horiz-adv-x="511" 
d="M57 -20v700h421v-109h-289v-180h239v-109h-239v-193h298v-109h-430zM347 676l-64 57l-65 -57h-128l149 157h87l154 -157h-133z" />
    <glyph glyph-name="Edieresis" unicode="&#xcb;" horiz-adv-x="511" 
d="M57 -20v700h421v-109h-289v-180h239v-109h-239v-193h298v-109h-430zM264 761q0 -28 -21.5 -49.5t-53.5 -21.5q-33 0 -54.5 21.5t-21.5 49.5t21.5 49t54.5 21q32 0 53.5 -21t21.5 -49zM449 761q0 -28 -21 -49.5t-54 -21.5t-54 21.5t-21 49.5t21 49t54 21t54 -21t21 -49z
" />
    <glyph glyph-name="Igrave" unicode="&#xcc;" horiz-adv-x="281" 
d="M61 -20v700h132v-700h-132zM106 695l-151 158h152l125 -158h-126z" />
    <glyph glyph-name="Iacute" unicode="&#xcd;" horiz-adv-x="278" 
d="M70 -20v700h132v-700h-132zM163 695h-126l125 158h152z" />
    <glyph glyph-name="Icircumflex" unicode="&#xce;" horiz-adv-x="323" 
d="M87 -20v700h132v-700h-132zM222 676l-65 57l-64 -57h-129l150 157h87l153 -157h-132z" />
    <glyph glyph-name="Idieresis" unicode="&#xcf;" horiz-adv-x="286" 
d="M71 -20v700h132v-700h-132zM139 758q0 -27 -21 -48.5t-54 -21.5t-54 21.5t-21 48.5q0 28 21 49.5t54 21.5t54 -21.5t21 -49.5zM291 758q0 -27 -21 -48.5t-54 -21.5t-54 21.5t-21 48.5q0 28 21 49.5t54 21.5t54 -21.5t21 -49.5z" />
    <glyph glyph-name="Ntilde" unicode="&#xd1;" horiz-adv-x="717" 
d="M513 -26l-341 527q-2 4 -5.5 9.5t-7.5 13.5q-3 5 -5.5 9t-3.5 7q-2 5 -4.5 11t43.5 -148v-423h-132v700h147l334 -514q2 -3 5 -8t6 -11q2 -7 4 -11.5t7 -17.5q2 -4 2.5 -6t-46.5 69v499h132v-706h-135zM585 747q-31 -28 -42.5 -36t-32.5 -17q-42 -18 -82 -18
q-43 0 -100 30q-22 11 -28.5 13.5t-14.5 2.5q-12 0 -23 -6q-4 -1 -7 -2.5t-7 -4t-10.5 -6.5t-39.5 -25l-57 79q42 27 54 34t27 13q35 18 74 18q12 0 17 -1q7 -1 15 -2.5t18 -5.5t22 -10.5t31 -16.5q16 -8 24 -11t15 -3t12.5 1t12.5 4t17 9t49 33z" />
    <glyph glyph-name="Ograve" unicode="&#xd2;" horiz-adv-x="772" 
d="M593 330q0 51 -18 96.5t-48 78.5t-69 52t-81 19t-81 -19t-69 -52t-48.5 -78.5t-18.5 -96.5t18.5 -96.5t48.5 -79t69 -52t81 -18.5t81 19t69 52t48 78.5t18 96.5zM733 330q0 -78 -25.5 -143.5t-73.5 -115t-113.5 -77t-143.5 -27.5t-144 27.5t-113.5 77t-73.5 115
t-26 143.5q0 77 26 143t73.5 115t113.5 76.5t144 27.5t143.5 -27.5t113.5 -76.5t73.5 -115t25.5 -143zM324 695l-151 158h152l125 -158h-126z" />
    <glyph glyph-name="Oacute" unicode="&#xd3;" horiz-adv-x="772" 
d="M593 330q0 51 -18 96.5t-48 78.5t-69 52t-81 19t-81 -19t-69 -52t-48.5 -78.5t-18.5 -96.5t18.5 -96.5t48.5 -79t69 -52t81 -18.5t81 19t69 52t48 78.5t18 96.5zM733 330q0 -78 -25.5 -143.5t-73.5 -115t-113.5 -77t-143.5 -27.5t-144 27.5t-113.5 77t-73.5 115
t-26 143.5q0 77 26 143t73.5 115t113.5 76.5t144 27.5t143.5 -27.5t113.5 -76.5t73.5 -115t25.5 -143zM420 695h-126l125 158h152z" />
    <glyph glyph-name="Ocircumflex" unicode="&#xd4;" horiz-adv-x="772" 
d="M593 330q0 51 -18 96.5t-48 78.5t-69 52t-81 19t-81 -19t-69 -52t-48.5 -78.5t-18.5 -96.5t18.5 -96.5t48.5 -79t69 -52t81 -18.5t81 19t69 52t48 78.5t18 96.5zM733 330q0 -78 -25.5 -143.5t-73.5 -115t-113.5 -77t-143.5 -27.5t-144 27.5t-113.5 77t-73.5 115
t-26 143.5q0 77 26 143t73.5 115t113.5 76.5t144 27.5t143.5 -27.5t113.5 -76.5t73.5 -115t25.5 -143zM440 676l-64 57l-65 -57h-129l150 157h87l154 -157h-133z" />
    <glyph glyph-name="Otilde" unicode="&#xd5;" horiz-adv-x="772" 
d="M593 330q0 51 -18 96.5t-48 78.5t-69 52t-81 19t-81 -19t-69 -52t-48.5 -78.5t-18.5 -96.5t18.5 -96.5t48.5 -79t69 -52t81 -18.5t81 19t69 52t48 78.5t18 96.5zM733 330q0 -78 -25.5 -143.5t-73.5 -115t-113.5 -77t-143.5 -27.5t-144 27.5t-113.5 77t-73.5 115
t-26 143.5q0 77 26 143t73.5 115t113.5 76.5t144 27.5t143.5 -27.5t113.5 -76.5t73.5 -115t25.5 -143zM600 743q-31 -28 -42.5 -36t-32.5 -17q-42 -18 -82 -18q-43 0 -100 30q-22 11 -28.5 13.5t-14.5 2.5q-12 0 -23 -6q-4 -1 -7 -2.5t-7 -4t-10.5 -6.5t-39.5 -25l-57 79
q42 27 54 34t27 13q35 18 74 18q12 0 17 -1q7 -1 15 -2.5t18 -5.5t22 -10.5t31 -16.5q16 -8 24 -11t15 -3t12.5 1t12.5 4t17 9t49 33z" />
    <glyph glyph-name="Odieresis" unicode="&#xd6;" horiz-adv-x="772" 
d="M593 330q0 51 -18 96.5t-48 78.5t-69 52t-81 19t-81 -19t-69 -52t-48.5 -78.5t-18.5 -96.5t18.5 -96.5t48.5 -79t69 -52t81 -18.5t81 19t69 52t48 78.5t18 96.5zM733 330q0 -78 -25.5 -143.5t-73.5 -115t-113.5 -77t-143.5 -27.5t-144 27.5t-113.5 77t-73.5 115
t-26 143.5q0 77 26 143t73.5 115t113.5 76.5t144 27.5t143.5 -27.5t113.5 -76.5t73.5 -115t25.5 -143zM353 760q0 -28 -21.5 -49.5t-53.5 -21.5q-33 0 -54.5 21.5t-21.5 49.5q0 27 21.5 48.5t54.5 21.5q32 0 53.5 -21.5t21.5 -48.5zM555 760q0 -28 -21 -49.5t-54 -21.5
t-54 21.5t-21 49.5q0 27 21 48.5t54 21.5t54 -21.5t21 -48.5z" />
    <glyph glyph-name="multiply" unicode="&#xd7;" horiz-adv-x="550" 
d="M472 -44l-197 196l-197 -197l-74 74l197 197l-197 197l74 74l197 -197l197 197l74 -74l-197 -197l197 -197z" />
    <glyph glyph-name="Ugrave" unicode="&#xd9;" horiz-adv-x="658" 
d="M615 226q0 -69 -19 -114.5t-64 -83.5q-83 -67 -199 -67q-117 0 -200 67q-46 37 -65 83.5t-19 114.5v454h132v-429q0 -30 1.5 -50t5 -33.5t9.5 -23.5t17 -21q44 -49 118 -49t118 49q11 11 17 21t9.5 23.5t5 33.5t1.5 50v429h132v-454zM319 695l-153 158h152l128 -158h-127
z" />
    <glyph glyph-name="Uacute" unicode="&#xda;" horiz-adv-x="658" 
d="M615 226q0 -69 -19 -114.5t-64 -83.5q-83 -67 -199 -67q-117 0 -200 67q-46 37 -65 83.5t-19 114.5v454h132v-429q0 -30 1.5 -50t5 -33.5t9.5 -23.5t17 -21q44 -49 118 -49t118 49q11 11 17 21t9.5 23.5t5 33.5t1.5 50v429h132v-454zM373 695h-126l125 158h152z" />
    <glyph glyph-name="Ucircumflex" unicode="&#xdb;" horiz-adv-x="658" 
d="M615 226q0 -69 -19 -114.5t-64 -83.5q-83 -67 -199 -67q-117 0 -200 67q-46 37 -65 83.5t-19 114.5v454h132v-429q0 -30 1.5 -50t5 -33.5t9.5 -23.5t17 -21q44 -49 118 -49t118 49q11 11 17 21t9.5 23.5t5 33.5t1.5 50v429h132v-454zM403 676l-64 57l-65 -57h-129
l150 157h87l154 -157h-133z" />
    <glyph glyph-name="Udieresis" unicode="&#xdc;" horiz-adv-x="658" 
d="M615 226q0 -69 -19 -114.5t-64 -83.5q-83 -67 -199 -67q-117 0 -200 67q-46 37 -65 83.5t-19 114.5v454h132v-429q0 -30 1.5 -50t5 -33.5t9.5 -23.5t17 -21q44 -49 118 -49t118 49q11 11 17 21t9.5 23.5t5 33.5t1.5 50v429h132v-454zM313 762q0 -28 -21 -49t-54 -21
t-54 21t-21 49t21 49t54 21t54 -21t21 -49zM515 762q0 -28 -21 -49t-54 -21t-54 21t-21 49t21 49t54 21t54 -21t21 -49z" />
    <glyph glyph-name="agrave" unicode="&#xe0;" horiz-adv-x="437" 
d="M285 180l-126 -33q-3 -6 -5 -13.5t-2 -19.5q0 -20 10 -29.5t26 -9.5q10 0 18 2t19.5 7.5t28 15.5t31.5 22v58zM425 -34q-77 5 -103 24t-26 12q22 19 10.5 10.5t-23.5 -14.5q-24 -14 -53 -22t-57 -8q-67 0 -106.5 39t-39.5 100q0 56 30 93.5t89 51.5l139 33v67
q0 36 -61 36q-44 0 -44 -19q0 -3 10 -31l-121 -26q-15 27 -17 34.5t-2 17.5q0 55 53.5 88t134.5 33q79 0 126 -36t47 -97v-245v-32q0 -3 42 -10zM220 477l-140 203h146l117 -203h-123z" />
    <glyph glyph-name="aacute" unicode="&#xe1;" horiz-adv-x="436" 
d="M284 180l-126 -33q-3 -6 -5 -13.5t-2 -19.5q0 -20 10 -29.5t26 -9.5q10 0 18 2t19.5 7.5t28 15.5t31.5 22v58zM424 -34q-77 5 -103 24t-26 12q22 19 10.5 10.5t-23.5 -14.5q-24 -14 -53 -22t-57 -8q-67 0 -106.5 39t-39.5 100q0 56 30 93.5t89 51.5l139 33v67
q0 36 -61 36q-44 0 -44 -19q0 -3 10 -31l-121 -26q-15 27 -17 34.5t-2 17.5q0 55 53.5 88t134.5 33q79 0 126 -36t47 -97v-245v-32q0 -3 42 -10zM280 477h-123l117 203h146z" />
    <glyph glyph-name="acircumflex" unicode="&#xe2;" horiz-adv-x="437" 
d="M285 180l-126 -33q-3 -6 -5 -13.5t-2 -19.5q0 -20 10 -29.5t26 -9.5q10 0 18 2t19.5 7.5t28 15.5t31.5 22v58zM425 -34q-77 5 -103 24t-26 12q22 19 10.5 10.5t-23.5 -14.5q-24 -14 -53 -22t-57 -8q-67 0 -106.5 39t-39.5 100q0 56 30 93.5t89 51.5l139 33v67
q0 36 -61 36q-44 0 -44 -19q0 -3 10 -31l-121 -26q-15 27 -17 34.5t-2 17.5q0 55 53.5 88t134.5 33q79 0 126 -36t47 -97v-245v-32q0 -3 42 -10zM301 477l-61 87l-62 -87h-124l139 203h92l144 -203h-128z" />
    <glyph glyph-name="atilde" unicode="&#xe3;" horiz-adv-x="462" 
d="M293 180l-126 -33q-3 -6 -5 -13.5t-2 -19.5q0 -20 10 -29.5t26 -9.5q10 0 18 2t19.5 7.5t28 15.5t31.5 22v58zM433 -34q-77 5 -103 24t-26 12q22 19 10.5 10.5t-23.5 -14.5q-24 -14 -53 -22t-57 -8q-67 0 -106.5 39t-39.5 100q0 56 30 93.5t89 51.5l139 33v67
q0 36 -61 36q-44 0 -44 -19q0 -3 10 -31l-121 -26q-15 27 -17 34.5t-2 17.5q0 55 53.5 88t134.5 33q79 0 126 -36t47 -97v-245v-32q0 -3 42 -10zM473 576q-31 -28 -42.5 -36t-32.5 -17q-42 -18 -82 -18q-43 0 -100 30q-22 11 -28.5 13.5t-14.5 2.5q-12 0 -23 -6
q-4 -1 -7 -2.5t-7 -4t-10.5 -6.5t-39.5 -25l-57 79q42 27 54 34t27 13q35 18 74 18q12 0 17 -1q7 -1 15 -2.5t18 -5.5t22 -10.5t31 -16.5q16 -8 24 -11t15 -3t12.5 1t12.5 4t17 9t49 33z" />
    <glyph glyph-name="adieresis" unicode="&#xe4;" horiz-adv-x="441" 
d="M289 180l-126 -33q-3 -6 -5 -13.5t-2 -19.5q0 -20 10 -29.5t26 -9.5q10 0 18 2t19.5 7.5t28 15.5t31.5 22v58zM429 -34q-77 5 -103 24t-26 12q22 19 10.5 10.5t-23.5 -14.5q-24 -14 -53 -22t-57 -8q-67 0 -106.5 39t-39.5 100q0 56 30 93.5t89 51.5l139 33v67
q0 36 -61 36q-44 0 -44 -19q0 -3 10 -31l-121 -26q-15 27 -17 34.5t-2 17.5q0 55 53.5 88t134.5 33q79 0 126 -36t47 -97v-245v-32q0 -3 42 -10zM222 573q0 -27 -21.5 -48.5t-53.5 -21.5q-33 0 -54.5 21.5t-21.5 48.5q0 28 21.5 49.5t54.5 21.5q32 0 53.5 -21.5t21.5 -49.5z
M397 573q0 -27 -21.5 -48.5t-53.5 -21.5q-33 0 -54.5 21.5t-21.5 48.5q0 28 21.5 49.5t54.5 21.5q32 0 53.5 -21.5t21.5 -49.5z" />
    <glyph glyph-name="aring" unicode="&#xe5;" horiz-adv-x="437" 
d="M285 180l-126 -33q-3 -6 -5 -13.5t-2 -19.5q0 -20 10 -29.5t26 -9.5q10 0 18 2t19.5 7.5t28 15.5t31.5 22v58zM255 586q0 10 -5.5 16t-10.5 6t-11 -6t-6 -16t6 -15.5t11 -5.5t10.5 5.5t5.5 15.5zM425 -34q-77 5 -103 24t-26 12q22 19 10.5 10.5t-23.5 -14.5
q-24 -14 -53 -22t-57 -8q-67 0 -106.5 39t-39.5 100q0 56 30 93.5t89 51.5l139 33v67q0 36 -61 36q-44 0 -44 -19q0 -3 10 -31l-121 -26q-15 27 -17 34.5t-2 17.5q0 55 53.5 88t134.5 33q79 0 126 -36t47 -97v-245v-32q0 -3 42 -10zM343 586q0 -40 -29.5 -69.5t-74.5 -29.5
t-75 29.5t-30 69.5t30 70t75 30t74.5 -30t29.5 -70z" />
    <glyph glyph-name="ccedilla" unicode="&#xe7;" horiz-adv-x="482" 
d="M465 29q-30 -18 -40.5 -24t-20.5 -10.5t-20.5 -8t-24.5 -8.5q-20 -5 -31.5 -7.5t-17.5 -2.5l-10 -17q9 0 35 -26t26 -70q0 -47 -33 -79t-87 -32q-12 0 -21.5 1t-22 3.5t-28 7t-59.5 19.5l44 90q51 -22 65 -26t25 -4q6 0 10.5 4t4.5 13q0 13 -7 17t-34 4h-72l62 101
q-81 19 -134.5 82t-53.5 166q0 56 18.5 103.5t53.5 83.5t83.5 56t106.5 20q38 0 74 -10q26 -7 43 -15.5t57 -36.5l-70 -98q-46 39 -63.5 45.5t-43.5 6.5q-56 0 -91.5 -40.5t-35.5 -111.5q0 -72 36 -110.5t97 -38.5q28 0 47.5 7t68.5 43z" />
    <glyph glyph-name="egrave" unicode="&#xe8;" horiz-adv-x="484" 
d="M324 309q-1 27 -20 47.5t-53 20.5q-37 0 -62.5 -22t-31.5 -46h167zM146 213q0 -57 33.5 -97t89.5 -40q25 0 46 8t82 50l50 -98q-41 -26 -63 -37.5t-43 -18.5t-42.5 -10t-45.5 -3q-53 0 -97.5 19.5t-75.5 54.5t-47 81.5t-16 103.5t16.5 104t47.5 81.5t76 54t99 19.5
q46 0 83 -15.5t63.5 -43.5t40 -66t13.5 -83v-64h-310zM240 477l-140 203h146l117 -203h-123z" />
    <glyph glyph-name="eacute" unicode="&#xe9;" horiz-adv-x="502" 
d="M327 309q-1 27 -20 47.5t-53 20.5q-37 0 -62.5 -22t-31.5 -46h167zM149 213q0 -57 33.5 -97t89.5 -40q25 0 46 8t82 50l50 -98q-41 -26 -63 -37.5t-43 -18.5t-42.5 -10t-45.5 -3q-53 0 -97.5 19.5t-75.5 54.5t-47 81.5t-16 103.5t16.5 104t47.5 81.5t76 54t99 19.5
q46 0 83 -15.5t63.5 -43.5t40 -66t13.5 -83v-64h-310zM292 477h-124l118 203h146z" />
    <glyph glyph-name="ecircumflex" unicode="&#xea;" horiz-adv-x="499" 
d="M324 309q-1 27 -20 47.5t-53 20.5q-37 0 -62.5 -22t-31.5 -46h167zM146 213q0 -57 33.5 -97t89.5 -40q25 0 46 8t82 50l50 -98q-41 -26 -63 -37.5t-43 -18.5t-42.5 -10t-45.5 -3q-53 0 -97.5 19.5t-75.5 54.5t-47 81.5t-16 103.5t16.5 104t47.5 81.5t76 54t99 19.5
q46 0 83 -15.5t63.5 -43.5t40 -66t13.5 -83v-64h-310zM316 477l-61 87l-62 -87h-125l140 203h93l140 -203h-125z" />
    <glyph glyph-name="edieresis" unicode="&#xeb;" horiz-adv-x="503" 
d="M324 309q-1 27 -20 47.5t-53 20.5q-37 0 -62.5 -22t-31.5 -46h167zM146 213q0 -57 33.5 -97t89.5 -40q25 0 46 8t82 50l50 -98q-41 -26 -63 -37.5t-43 -18.5t-42.5 -10t-45.5 -3q-53 0 -97.5 19.5t-75.5 54.5t-47 81.5t-16 103.5t16.5 104t47.5 81.5t76 54t99 19.5
q46 0 83 -15.5t63.5 -43.5t40 -66t13.5 -83v-64h-310zM243 572q0 -27 -21.5 -48.5t-53.5 -21.5q-33 0 -54.5 21.5t-21.5 48.5q0 28 21.5 49.5t54.5 21.5q32 0 53.5 -21.5t21.5 -49.5zM418 572q0 -27 -21.5 -48.5t-53.5 -21.5q-33 0 -54.5 21.5t-21.5 48.5q0 28 21.5 49.5
t54.5 21.5q32 0 53.5 -21.5t21.5 -49.5z" />
    <glyph glyph-name="igrave" unicode="&#xec;" horiz-adv-x="272" 
d="M87 -20v493h125v-493h-125zM116 477l-140 203h146l117 -203h-123z" />
    <glyph glyph-name="iacute" unicode="&#xed;" horiz-adv-x="246" 
d="M53 -20v493h125v-493h-125zM156 477h-123l117 203h146z" />
    <glyph glyph-name="icircumflex" unicode="&#xee;" horiz-adv-x="299" 
d="M94 -20v493h125v-493h-125zM218 477l-61 87l-62 -87h-125l140 203h93l140 -203h-125z" />
    <glyph glyph-name="idieresis" unicode="&#xef;" horiz-adv-x="276" 
d="M81 -20v493h125v-493h-125zM134 573q0 -27 -21.5 -48.5t-53.5 -21.5q-33 0 -54.5 21.5t-21.5 48.5q0 28 21.5 49.5t54.5 21.5q32 0 53.5 -21.5t21.5 -49.5zM309 573q0 -27 -21.5 -48.5t-53.5 -21.5q-33 0 -54.5 21.5t-21.5 48.5q0 28 21.5 49.5t54.5 21.5
q32 0 53.5 -21.5t21.5 -49.5z" />
    <glyph glyph-name="ntilde" unicode="&#xf1;" horiz-adv-x="534" 
d="M353 -20v341q0 22 -1.5 30.5t-4.5 16.5q-2 4 -7.5 7t-14.5 3q-12 0 -26.5 -5t-33 -18t-41.5 -35t-48 -49v-291h-125v493h125v-54q-33 -36 -25 -27t15 16t14 13t15 13q29 25 65.5 38t73.5 13q144 0 144 -146v-359h-125zM493 572q-31 -28 -42.5 -36t-32.5 -17
q-42 -18 -82 -18q-43 0 -100 30q-22 11 -28.5 13.5t-14.5 2.5q-12 0 -23 -6q-4 -1 -7 -2.5t-7 -4t-10.5 -6.5t-39.5 -25l-57 79q42 27 54 34t27 13q35 18 74 18q12 0 17 -1q7 -1 15 -2.5t18 -5.5t22 -10.5t31 -16.5q16 -8 24 -11t15 -3t12.5 1t12.5 4t17 9t49 33z" />
    <glyph glyph-name="ograve" unicode="&#xf2;" horiz-adv-x="542" 
d="M382 226q0 33 -10 62t-26.5 49t-36.5 30.5t-43 10.5t-43.5 -10.5t-37 -30.5t-26.5 -49t-10 -62t10 -62t26.5 -49t37 -30.5t43.5 -10.5t43 10.5t36.5 30.5t26.5 49t10 62zM514 226q0 -52 -18.5 -98.5t-52 -82t-79 -57t-98.5 -21.5t-99 21.5t-79.5 57t-52 82t-18.5 98.5
t18.5 98.5t52 82t79.5 57t99 21.5t98.5 -21.5t79 -57t52 -82t18.5 -98.5zM243 477l-150 203h147l126 -203h-123z" />
    <glyph glyph-name="oacute" unicode="&#xf3;" horiz-adv-x="545" 
d="M385 226q0 33 -10 62t-26.5 49t-36.5 30.5t-43 10.5t-43.5 -10.5t-37 -30.5t-26.5 -49t-10 -62t10 -62t26.5 -49t37 -30.5t43.5 -10.5t43 10.5t36.5 30.5t26.5 49t10 62zM517 226q0 -52 -18.5 -98.5t-52 -82t-79 -57t-98.5 -21.5t-99 21.5t-79.5 57t-52 82t-18.5 98.5
t18.5 98.5t52 82t79.5 57t99 21.5t98.5 -21.5t79 -57t52 -82t18.5 -98.5zM309 477h-119l108 203h145z" />
    <glyph glyph-name="ocircumflex" unicode="&#xf4;" horiz-adv-x="542" 
d="M382 226q0 33 -10 62t-26.5 49t-36.5 30.5t-43 10.5t-43.5 -10.5t-37 -30.5t-26.5 -49t-10 -62t10 -62t26.5 -49t37 -30.5t43.5 -10.5t43 10.5t36.5 30.5t26.5 49t10 62zM514 226q0 -52 -18.5 -98.5t-52 -82t-79 -57t-98.5 -21.5t-99 21.5t-79.5 57t-52 82t-18.5 98.5
t18.5 98.5t52 82t79.5 57t99 21.5t98.5 -21.5t79 -57t52 -82t18.5 -98.5zM331 477l-62 87l-61 -87h-125l140 203h93l140 -203h-125z" />
    <glyph glyph-name="otilde" unicode="&#xf5;" horiz-adv-x="561" 
d="M385 226q0 33 -10 62t-26.5 49t-36.5 30.5t-43 10.5t-43.5 -10.5t-37 -30.5t-26.5 -49t-10 -62t10 -62t26.5 -49t37 -30.5t43.5 -10.5t43 10.5t36.5 30.5t26.5 49t10 62zM517 226q0 -52 -18.5 -98.5t-52 -82t-79 -57t-98.5 -21.5t-99 21.5t-79.5 57t-52 82t-18.5 98.5
t18.5 98.5t52 82t79.5 57t99 21.5t98.5 -21.5t79 -57t52 -82t18.5 -98.5zM482 572q-31 -28 -42.5 -36t-32.5 -17q-42 -18 -82 -18q-43 0 -100 30q-22 11 -28.5 13.5t-14.5 2.5q-12 0 -23 -6q-4 -1 -7 -2.5t-7 -4t-10.5 -6.5t-39.5 -25l-57 79q42 27 54 34t27 13q35 18 74 18
q12 0 17 -1q7 -1 15 -2.5t18 -5.5t22 -10.5t31 -16.5q16 -8 24 -11t15 -3t12.5 1t12.5 4t17 9t49 33z" />
    <glyph glyph-name="odieresis" unicode="&#xf6;" horiz-adv-x="542" 
d="M382 226q0 33 -10 62t-26.5 49t-36.5 30.5t-43 10.5t-43.5 -10.5t-37 -30.5t-26.5 -49t-10 -62t10 -62t26.5 -49t37 -30.5t43.5 -10.5t43 10.5t36.5 30.5t26.5 49t10 62zM514 226q0 -52 -18.5 -98.5t-52 -82t-79 -57t-98.5 -21.5t-99 21.5t-79.5 57t-52 82t-18.5 98.5
t18.5 98.5t52 82t79.5 57t99 21.5t98.5 -21.5t79 -57t52 -82t18.5 -98.5zM258 572q0 -27 -21.5 -48.5t-53.5 -21.5q-33 0 -54.5 21.5t-21.5 48.5q0 28 21.5 49.5t54.5 21.5q32 0 53.5 -21.5t21.5 -49.5zM433 572q0 -27 -21.5 -48.5t-53.5 -21.5q-33 0 -54.5 21.5t-21.5 48.5
q0 28 21.5 49.5t54.5 21.5q32 0 53.5 -21.5t21.5 -49.5z" />
    <glyph glyph-name="divide" unicode="&#xf7;" horiz-adv-x="550" 
d="M360 48q0 -32 -23.5 -55.5t-59.5 -23.5q-37 0 -60.5 23.5t-23.5 55.5q0 31 23.5 54.5t60.5 23.5q36 0 59.5 -23.5t23.5 -54.5zM0 188v97h550v-97h-550zM360 427q0 -31 -23.5 -54.5t-59.5 -23.5q-37 0 -60.5 23.5t-23.5 54.5q0 32 23.5 55.5t60.5 23.5q36 0 59.5 -23.5
t23.5 -55.5z" />
    <glyph glyph-name="ugrave" unicode="&#xf9;" horiz-adv-x="521" 
d="M348 -20v40q-39 -54 -155 -54q-146 0 -146 147v360h125v-341q0 -37 7.5 -48t21.5 -11q12 0 30 7.5t38.5 22.5t41.5 36t37 42v292h126v-493h-126zM233 477l-140 203h146l117 -203h-123z" />
    <glyph glyph-name="uacute" unicode="&#xfa;" horiz-adv-x="523" 
d="M350 -20v40q-39 -54 -155 -54q-146 0 -146 147v360h125v-341q0 -37 7.5 -48t21.5 -11q12 0 30 7.5t38.5 22.5t41.5 36t37 42v292h126v-493h-126zM302 477h-123l118 203h146z" />
    <glyph glyph-name="ucircumflex" unicode="&#xfb;" horiz-adv-x="521" 
d="M348 -20v40q-39 -54 -155 -54q-146 0 -146 147v360h125v-341q0 -37 7.5 -48t21.5 -11q12 0 30 7.5t38.5 22.5t41.5 36t37 42v292h126v-493h-126zM322 477l-62 87l-61 -87h-125l140 203h93l140 -203h-125z" />
    <glyph glyph-name="udieresis" unicode="&#xfc;" horiz-adv-x="521" 
d="M348 -20v40q-39 -54 -155 -54q-146 0 -146 147v360h125v-341q0 -37 7.5 -48t21.5 -11q12 0 30 7.5t38.5 22.5t41.5 36t37 42v292h126v-493h-126zM255 572q0 -27 -21.5 -48.5t-53.5 -21.5q-33 0 -54.5 21.5t-21.5 48.5q0 28 21.5 49.5t54.5 21.5q32 0 53.5 -21.5
t21.5 -49.5zM430 572q0 -27 -21.5 -48.5t-53.5 -21.5q-33 0 -54.5 21.5t-21.5 48.5q0 28 21.5 49.5t54.5 21.5q32 0 53.5 -21.5t21.5 -49.5z" />
    <glyph glyph-name="ydieresis" unicode="&#xff;" horiz-adv-x="429" 
d="M257 -31q-16 -42 -30.5 -73.5t-34.5 -62.5q-7 -11 -13 -20.5t-13.5 -20.5t-18 -24t-40.5 -52l-98 75q30 32 41.5 46t20.5 25.5t16.5 24.5t17.5 31q9 16 16.5 30t14 29t14 34t15.5 39l-177 423h137l115 -292l-14 41l-9 -42l98 293h129zM209 547q0 -27 -21.5 -48.5
t-53.5 -21.5q-33 0 -54.5 21.5t-21.5 48.5q0 28 21.5 49.5t54.5 21.5q32 0 53.5 -21.5t21.5 -49.5zM384 547q0 -27 -21.5 -48.5t-53.5 -21.5q-33 0 -54.5 21.5t-21.5 48.5q0 28 21.5 49.5t54.5 21.5q32 0 53.5 -21.5t21.5 -49.5z" />
    <glyph glyph-name="Ydieresis" unicode="&#x178;" horiz-adv-x="518" 
d="M336 303v-323h-132v318l-235 382h143l162 -259l167 259h143zM244 758q0 -28 -21.5 -49.5t-54.5 -21.5t-54 21.5t-21 49.5q0 27 21 48.5t54 21.5t54.5 -21.5t21.5 -48.5zM446 758q0 -28 -21.5 -49.5t-54.5 -21.5q-32 0 -53.5 21.5t-21.5 49.5q0 27 21.5 48.5t53.5 21.5
q33 0 54.5 -21.5t21.5 -48.5z" />
    <glyph glyph-name="endash" unicode="&#x2013;" horiz-adv-x="500" 
d="M-25 188v97h550v-97h-550z" />
    <glyph glyph-name="quoteleft" unicode="&#x2018;" horiz-adv-x="252" 
d="M220 426q-34 -22 -50 -26.5t-37 -4.5q-83 0 -83 84q0 25 9 56q6 23 17 46t31 61l19 38h97q-20 -43 -23.5 -53t-10.5 -29q-3 -10 -5.5 -18t-4 -14t-3 -12.5t-2.5 -12.5z" />
    <glyph glyph-name="quoteright" unicode="&#x2019;" horiz-adv-x="252" 
d="M202 608q0 -38 -18 -87.5t-58 -112.5h-107q25 37 28.5 43t6 11.5t5.5 12.5t7 19q5 15 7.5 26t5.5 26l-48 118q30 15 38.5 18t16.5 6t16.5 3.5t17.5 0.5q82 0 82 -84z" />
    <glyph glyph-name="quotesinglbase" unicode="&#x201a;" horiz-adv-x="252" 
d="M201 36q0 -25 -9 -57q-3 -12 -7 -23.5t-10 -24t-13 -26.5l-17 -34l-20 -36h-95q18 42 22 52t11 30q3 10 5.5 17t3.5 13.5t3 13.5t3 12l-46 115q33 23 49.5 27.5t37.5 4.5q82 0 82 -84z" />
    <glyph glyph-name="quotedblleft" unicode="&#x201c;" horiz-adv-x="437" 
d="M222 425q-29 -15 -38 -18.5t-17 -6.5t-16.5 -3.5t-17.5 -0.5q-83 0 -83 84q0 38 18 87t58 113h108q-31 -46 -35.5 -55.5t-11.5 -30.5q-5 -15 -7.5 -26t-5.5 -26zM406 424q-30 -15 -38.5 -18t-16.5 -6t-16.5 -3.5t-17.5 -0.5q-83 0 -83 84q0 38 18.5 87.5t57.5 112.5h108
q-26 -38 -29.5 -44t-6 -11t-5 -12.5t-6.5 -18.5q-5 -15 -7.5 -26t-5.5 -26z" />
    <glyph glyph-name="quotedblright" unicode="&#x201d;" horiz-adv-x="437" 
d="M202 608q0 -38 -18 -87.5t-58 -112.5h-107q25 37 28.5 43t6 11.5t5.5 12.5t7 19q5 15 7.5 26t5.5 26l-48 118q30 15 38.5 18t16.5 6t16.5 3.5t17.5 0.5q82 0 82 -84zM386 608q0 -38 -18 -87t-58 -113h-107q26 38 29.5 44t6 11.5t5.5 12.5t6 17q5 16 7 27t6 27l-48 116
q29 15 37.5 18.5t16.5 6.5t17 3.5t18 0.5q82 0 82 -84z" />
    <glyph glyph-name="quotedblbase" unicode="&#x201e;" horiz-adv-x="437" 
d="M202 35q0 -38 -18 -87.5t-58 -111.5h-107q26 38 29 43t5.5 11t5.5 13.5l7 17.5q6 16 8 26.5t5 25.5l-48 118q29 14 37.5 18t17 7t17 3.5t17.5 0.5q82 0 82 -85zM386 35q0 -38 -18 -86.5t-58 -112.5h-107q26 38 29.5 44t6 11t5.5 12t6 17q5 16 7 27t6 27l-48 116
q28 15 36.5 19t17 7t17.5 3.5t18 0.5q82 0 82 -85z" />
    <glyph glyph-name="bullet" unicode="&#x2022;" horiz-adv-x="352" 
d="M318 231q0 -27 -10.5 -52t-29.5 -44t-45.5 -30t-56.5 -11t-56.5 11t-45.5 30t-29.5 44t-10.5 52t10.5 52t29.5 44t45.5 30t56.5 11t56.5 -11t45.5 -30t29.5 -44t10.5 -52z" />
    <glyph glyph-name="ellipsis" unicode="&#x2026;" horiz-adv-x="750" 
d="M206 45q0 -30 -23 -53t-58 -23t-58.5 23t-23.5 53q0 31 23.5 54t58.5 23t58 -23t23 -54zM465 45q0 -30 -23 -53t-59 -23q-35 0 -58 23t-23 53q0 31 23 54t58 23q36 0 59 -23t23 -54zM715 45q0 -30 -23 -53t-59 -23q-35 0 -58 23t-23 53q0 31 23 54t58 23q36 0 59 -23
t23 -54z" />
    <glyph glyph-name="guilsinglleft" unicode="&#x2039;" horiz-adv-x="321" 
d="M6 226l285 239v-140l-122 -99l122 -99v-138z" />
    <glyph glyph-name="guilsinglright" unicode="&#x203a;" horiz-adv-x="321" 
d="M29 -11v138l123 99l-123 99v140l287 -239z" />
  </font>
</defs>
</svg>
