<?xml version="1.0" standalone="no"?>
<!DOCTYPE svg PUBLIC "-//W3C//DTD SVG 1.1//EN" "http://www.w3.org/Graphics/SVG/1.1/DTD/svg11.dtd" >
<svg xmlns="http://www.w3.org/2000/svg" xmlns:xlink="http://www.w3.org/1999/xlink" version="1.1">
<metadata>
Created by FontForge 20170731 at Fri Jan  1 02:30:17 1904
 By Aleksey,,,
Attribution-ShareAlike 4.0 International
</metadata>
<defs>
<font id="ScalySansCaps-Italic" horiz-adv-x="500" >
  <font-face 
    font-family="Scaly Sans Caps"
    font-weight="400"
    font-style="italic"
    font-variant="small-caps"
    font-stretch="normal"
    units-per-em="1000"
    panose-1="2 0 5 3 4 0 0 9 0 4"
    ascent="800"
    descent="-200"
    x-height="478"
    cap-height="660"
    bbox="-39 -245 1238.76 868"
    underline-thickness="50"
    underline-position="-175"
    slope="-12"
    unicode-range="U+0020-221E"
  />
<missing-glyph 
 />
    <glyph glyph-name=".notdef" 
 />
    <glyph glyph-name=".null" horiz-adv-x="0" 
 />
    <glyph glyph-name="nonmarkingreturn" horiz-adv-x="333" 
 />
    <glyph glyph-name="space" unicode=" " horiz-adv-x="250" 
 />
    <glyph glyph-name="exclam" unicode="!" horiz-adv-x="264" 
d="M216 195l121 541h-88l-109 -541h76zM134 -13q22 0 44 17q21 18 25 40q6 24 -9 40q-13 17 -36 17q-24 0 -44 -17q-19 -15 -25 -40q-4 -22 9 -40q15 -17 36 -17z" />
    <glyph glyph-name="dollar" unicode="$" horiz-adv-x="534" 
d="M558 548l53 68q-24 16 -39 24q-14 9 -33 15q-10 4 -23 7q-9 2 -21 4q-7 2 -24 2q-18 2 -31 2l13 59h-44l-14 -60q-89 -10 -147 -56q-55 -44 -72 -117q-5 -27 -2 -47q3 -23 14 -42q9 -16 35 -40q26 -21 58 -42l36 -24l-51 -240q-31 3 -47 6q-26 8 -35 12q-7 5 -14 8
q-2 1 -15 8q-10 8 -16 12q-3 3 -21 16l-56 -65q8 -6 23 -17t20 -15q20 -12 32 -17q23 -10 47 -16q11 -2 66 -6l-11 -56h44l13 59q8 1 41 7q16 4 31 9q17 7 27 13q4 3 13 8.5t14 8.5q34 24 57 60q23 34 32 76q8 36 0 68q-6 32 -27 50q-9 11 -32 26q-17 13 -58 39q-2 2 -8 5
q-2 1 -5 4t-5 4l49 230q9 0 21 -2q8 0 16 -3q10 -2 16 -4q12 -4 19 -7q4 -1 10 -4t7 -3q8 -3 14 -7q5 -2 14 -9q7 -4 16 -11zM380 597l-44 -207q0 -2 -8 3q-2 2 -6 5.5t-6 5.5q0 2 -32 26q-34 27 -25 72q16 77 121 95zM429 211q7 -15 -2 -49q-6 -37 -39 -64q-30 -26 -77 -35
l46 215q10 0 22 -13q46 -44 50 -54z" />
    <glyph glyph-name="percent" unicode="%" horiz-adv-x="850" 
d="M277 320q35 0 71 14q40 17 64 37q27 22 50 56q21 33 27 68q9 35 1 68q-6 31 -26 56q-19 25 -47 38q-27 14 -65 14q-37 0 -71 -14q-32 -13 -64 -38q-31 -26 -50 -56q-18 -26 -28 -68q-6 -35 0 -68q7 -31 26 -56q19 -23 47 -38q29 -13 65 -13zM163 -44l728 736h-69
l-728 -736h69zM638 -13q35 0 71 14q37 16 64 38q26 21 49 55q23 35 28 68q9 35 1 68q-6 31 -26 56q-19 25 -47 38q-25 13 -65 13q-37 0 -71 -14q-35 -14 -64 -37q-31 -26 -50 -56q-18 -26 -28 -68q-6 -35 0 -68q8 -33 25 -56q17 -21 48 -37q31 -14 65 -14zM339 610
q25 0 43 -9q19 -9 31 -25q12 -15 17 -37q5 -19 -1 -44q-5 -25 -19 -45q-14 -22 -32 -37q-19 -16 -41 -24q-23 -9 -47 -9t-43 9q-15 8 -31 25q-11 15 -17 36q-4 19 1 45q6 25 19 45q16 23 32 36q18 16 42 25t46 9zM700 277q25 0 43 -9q18 -8 30 -25q13 -16 17 -36
q5 -19 -1 -45q-5 -24 -18 -45q-10 -17 -32 -36q-18 -15 -42 -24q-23 -9 -46 -9t-43 9q-18 9 -31 25q-11 15 -17 36q-4 21 0 44q5 21 19 45q14 22 32 37q16 14 42 24q24 9 47 9z" />
    <glyph glyph-name="ampersand" unicode="&#x26;" horiz-adv-x="625" 
d="M582 19q15 10 23 18l7 7l10.5 10.5l10.5 10.5l-34 31q-26 -25 -46 -37q-17 -10 -37 -10q-3 0 -8.5 0.5t-7.5 0.5q-4 1 -14 5q-1 1 -6 4.5t-8 5.5q-1 1 -5.5 7.5t-8.5 10.5q12 8 41 30q20 17 32 30q15 16 24 38q11 24 18 54h-64q-4 -18 -11 -36q-6 -16 -16 -27
q-9 -12 -23 -23q-5 -4 -15.5 -12t-15.5 -11l-114 165q-14 21 -19 28q-4 8 -10 18q-3 9 -3 15q0 4 2 16q6 24 26 42q19 19 60 19q35 0 47 -21q12 -22 7 -43q-5 -16 -18 -25q-8 -6 -30 -17l-20 -9l30 -43l19 9q47 24 65 40q20 17 26 47q12 57 -18 88q-28 31 -94 31
q-36 0 -65 -10q-31 -9 -53 -26q-23 -17 -37 -38q-12 -16 -19 -46q-6 -27 8 -55q16 -29 31 -48l-39 -19q-35 -17 -56 -33q-22 -16 -35 -33q-14 -19 -20 -34q-4 -11 -10 -35q-4 -23 2 -47q8 -22 25 -38q20 -17 45 -25q29 -9 65 -9q44 0 90 13q46 15 85 40q18 -29 39 -41
t54 -12q47 0 88 29zM278 220l92 -134q-24 -14 -39 -20q-19 -6 -35 -9q-11 -2 -31 -4h-29q-11 0 -26 5q-16 8 -23 14q-8 8 -14 20q-5 13 -2 25q2 13 8 28q5 11 15 22q10 12 24 20q13 9 35 20z" />
    <glyph glyph-name="parenleft" unicode="(" horiz-adv-x="363" 
d="M222 -245h75q-22 35 -37 86q-13 47 -19 112q-4 57 -1 126q5 67 18 131q13 62 38 131q26 70 55 127q35 67 66 112q33 49 74 86h-75q-20 -16 -26 -22q-5 -5 -21 -23q-4 -5 -23 -34q-5 -8 -17.5 -27t-16.5 -26q-54 -84 -87 -162q-32 -73 -50 -159q-18 -84 -18 -162
q0 -77 18 -160q8 -42 10 -49q1 -3 10 -33q8 -20 11 -26q6 -9 16 -28z" />
    <glyph glyph-name="parenright" unicode=")" horiz-adv-x="363" 
d="M150 -109q55 87 87 164q32 75 49 158q18 86 17 160q0 80 -16 161q-6 33 -12 54q-5 23 -10 33q-5 16 -11 23q-5 8 -15 22h-75q22 -34 36 -87q14 -46 20 -112q6 -60 0 -127q-5 -72 -17 -130q-13 -62 -38 -131q-25 -68 -55 -127q-28 -55 -67 -111q-35 -49 -73 -86h75
q6 6 15.5 16t13.5 14q16 18 23 28q12 15 24 33q13 18 29 45z" />
    <glyph glyph-name="asterisk" unicode="*" 
d="M384 491l43 169h-71l-30 -169h58zM402 425l172 46l-7 68l-172 -58zM277 425l31 56l-146 58l-37 -68zM402 232l66 42l-75 133l-55 -35zM197 232l124 140l-41 34l-132 -132z" />
    <glyph glyph-name="plus" unicode="+" horiz-adv-x="550" 
d="M347 208h209l12 57h-209l45 209h-56l-45 -209h-209l-12 -57h209l-44 -208h56z" />
    <glyph glyph-name="comma" unicode="," horiz-adv-x="252" 
d="M164 -17q8 13 13 27q1 3 7 26q13 64 -44 64q-18 0 -30 -4q-16 -4 -32 -14l20 -108q-3 -8 -8 -17q-2 -4 -6 -14l-7 -14q-2 -2 -4.5 -7.5t-4.5 -9.5q-3 -5 -9 -16t-8 -15q-7 -12 -17 -26h44l18 24q6 9 43 60q15 22 25 44z" />
    <glyph glyph-name="hyphen" unicode="-" horiz-adv-x="276" 
d="M82 190h191l17 76h-191z" />
    <glyph glyph-name="period" unicode="." horiz-adv-x="251" 
d="M123 -12q23 0 43 17t26 40q4 24 -9 40q-11 16 -36 16q-24 0 -44 -17t-24 -39q-6 -22 7 -41q13 -16 37 -16z" />
    <glyph glyph-name="slash" unicode="/" horiz-adv-x="409" 
d="M60 -245l444 905h-69l-444 -905h69z" />
    <glyph glyph-name="zero" unicode="0" 
d="M252 -15q49 0 95 26q47 27 85 71q40 48 69 110q30 66 46 142q17 75 14 142q-3 70 -22 110q-19 46 -55 71q-32 25 -84 25q-50 0 -95 -26q-49 -27 -85 -71q-37 -43 -68 -109q-26 -54 -46 -142q-17 -80 -14 -143q3 -65 22 -110q21 -45 54 -71q35 -25 84 -25zM383 606
q31 0 51 -20q22 -21 31 -55q10 -33 8 -86q0 -47 -14 -111q-12 -62 -33 -112q-19 -50 -46 -86q-26 -36 -54 -56q-28 -19 -57 -19t-51 20q-20 20 -30 55q-8 32 -8 86q1 47 14 112q14 62 33 111q20 48 45 86q26 37 54 56q27 19 57 19z" />
    <glyph glyph-name="one" unicode="1" horiz-adv-x="499" 
d="M222 0h82l140 660h-220l-16 -75h138z" />
    <glyph glyph-name="two" unicode="2" 
d="M46 0h399l16 75h-277l191 189q43 43 72 80q35 42 51 72q9 14 15 32q8 24 10 37q18 85 -17 130q-34 47 -114 47q-45 0 -90 -15q-41 -14 -92 -48q-18 -12 -22 -15q-9 -6 -25 -18l38 -57q20 15 40 29q20 15 26 18q3 2 7 4.5t6.5 4.5t5.5 3q3 2 6 3.5t6.5 3t5.5 2.5
q29 14 66 14q47 0 65 -27q19 -26 7 -78q-3 -17 -9 -32t-15 -30q-12 -20 -21 -32q-4 -6 -31 -37q-2 -2 -53 -59q-36 -38 -56 -57l-203 -200z" />
    <glyph glyph-name="three" unicode="3" 
d="M187 -9q45 0 90 17q47 19 80 45q35 29 61 69q26 39 35 84q15 66 -10 112q-24 46 -79 53q4 3 13 8.5t13 7.5q4 3 10.5 7.5t8.5 6.5q6 5 16 15q3 3 8 9t8 9q18 20 32 47q12 25 18 50q13 62 -17 100q-28 37 -93 37q-50 0 -92 -16q-9 -3 -19 -8q-7 -2 -21 -11q-4 -2 -7.5 -4
t-8.5 -5.5t-9 -5.5q-2 -2 -13 -9t-19 -12l32 -56q21 14 43 28q10 7 31 16q17 7 25 8q8 2 24 2q33 0 47 -20q15 -19 7 -55q-6 -23 -21 -49q-16 -26 -40 -47q-10 -10 -22 -19q-14 -10 -22 -15q-9 -5 -26 -12q-20 -8 -33 -13l-13 -57h44q56 0 81 -30q27 -30 15 -81
q-6 -29 -21 -54q-16 -26 -36 -43q-21 -18 -45 -28q-27 -10 -51 -10q-7 0 -23 2q-18 5 -23 7q-4 2 -13 5.5t-14 6.5q-4 2 -33 18l-46 -70q6 -4 18.5 -10.5t17.5 -9.5q11 -5 31 -13q2 -1 29 -6q10 -1 32 -1z" />
    <glyph glyph-name="four" unicode="4" 
d="M409 170h82l15 69h-82l89 421h-50l-389 -440l-11 -50h271l-36 -170h75zM404 497l-55 -258h-176z" />
    <glyph glyph-name="five" unicode="5" 
d="M207 -13q43 0 85 17q44 19 75 47q32 27 57 72t34 90q24 107 -30 164q-12 13 -25 22q-10 7 -30 14q-18 6 -43 9q-30 4 -57 5l33 158h208l16 75h-289l-64 -302h7q34 0 46 -1q24 0 33 -2q17 -2 26 -4q16 -4 24 -7q89 -30 65 -137q-6 -30 -23 -58q-14 -24 -36 -46
q-18 -17 -48 -30q-26 -10 -55 -10q-10 0 -26 2q-13 3 -23 7q-16 8 -25 14q-4 3 -31 21l-53 -69q19 -13 23 -16q17 -10 19 -11q3 -1 9.5 -4.5t9.5 -4.5q14 -4 22 -6q31 -9 66 -9z" />
    <glyph glyph-name="six" unicode="6" 
d="M265 -15q42 0 81 18q38 18 70 48q33 31 56 72q23 40 34 92q18 87 -14 135q-31 50 -105 50q-37 0 -73 -7q-38 -6 -90 -24q14 36 21 53q13 29 19 39q5 8 20 31q7 10 24 27q11 11 31 25q16 11 34 19q17 8 35 15q14 5 34 8q22 4 40 5q7 1 51 1h9l15 73l-19 1q-40 0 -57 -2
q-28 -2 -44 -4q-19 -3 -37 -9q-27 -9 -35 -13q-53 -23 -100 -67q-55 -54 -91 -121q-32 -61 -54 -157q-30 -148 7 -228q39 -80 138 -80zM350 329q49 0 66 -32q18 -30 6 -89q-6 -32 -21 -59q-14 -27 -32 -47t-41 -31q-21 -11 -45 -11q-121 0 -76 239q39 13 80 22q33 8 63 8z
" />
    <glyph glyph-name="seven" unicode="7" 
d="M403 302l186 308l10 50h-371l-16 -75h277l-147 -246l-35 -56q-23 -36 -42 -62l-42 -60q-6 -8 -18 -25t-18 -25q-11 -14 -28 -34q-1 -1 -15.5 -18t-23.5 -28l59 -44q11 13 28 34t22 28q8 10 21 26.5t17 21.5l30 40q13 17 26 38q29 44 38 58q28 44 42 69z" />
    <glyph glyph-name="eight" unicode="8" 
d="M235 -19q45 0 89 14q47 17 75 37q31 22 55 58q21 31 31 74q4 21 3 37q0 18 -6 33q-6 17 -17 32q-11 17 -31 35l-58 57l71 59q36 30 54 57q17 26 25 62q15 67 -21 106q-34 40 -106 40q-39 0 -75 -12q-37 -12 -65 -32q-27 -20 -48 -50q-20 -29 -27 -62q-6 -33 0 -64
q8 -31 27 -53l55 -63l-67 -54q-63 -51 -89 -84q-26 -32 -34 -68q-6 -34 1 -63q9 -29 30 -51q23 -22 54 -33q33 -12 74 -12zM377 611q37 0 56 -21q20 -20 13 -53q-3 -17 -22 -46q-20 -29 -40 -46l-56 -48l-40 56q-14 19 -18 36q-3 18 0 37q9 39 38 62t69 23zM363 241
q25 -25 31 -44q7 -16 0 -45q-9 -44 -48 -71t-90 -27q-48 0 -76 25q-24 25 -17 62q6 25 21 46q21 27 51 53l71 63z" />
    <glyph glyph-name="nine" unicode="9" 
d="M383 80q56 53 91 120q36 67 54 158q33 148 -6 228q-37 79 -139 79q-43 0 -80 -17q-37 -16 -71 -48q-31 -30 -56 -73q-21 -37 -34 -92q-18 -83 14 -135q33 -50 105 -50q33 0 73 8q55 13 90 24q-4 -11 -11 -28.5t-10 -24.5q-10 -24 -19 -39q-10 -19 -20 -31
q-14 -18 -24 -27q-30 -30 -64 -44q-18 -9 -36 -15q-12 -4 -34 -8q-7 -1 -20.5 -2.5t-18.5 -2.5q-14 -1 -50 -1h-10l-16 -74h20q24 0 56 2q8 1 22.5 2t21.5 2q19 3 38 9q24 8 36 13q53 24 98 67zM366 591q121 0 76 -239q-36 -12 -81 -22q-40 -8 -63 -8q-46 0 -66 32
q-18 33 -6 89q8 32 21 59q15 29 32 47q16 17 42 31q22 11 45 11z" />
    <glyph glyph-name="colon" unicode=":" horiz-adv-x="251" 
d="M201 352q23 0 43 17q21 18 25 40q6 23 -8 40q-11 16 -36 16q-24 0 -44 -17q-19 -16 -25 -39q-4 -23 8 -41q13 -16 37 -16zM123 -12q23 0 43 17t26 40q4 24 -9 40q-11 16 -36 16q-24 0 -44 -17t-24 -39q-6 -22 7 -41q13 -16 37 -16z" />
    <glyph glyph-name="semicolon" unicode=";" horiz-adv-x="251" 
d="M201 352q24 0 44 17q21 18 25 40q6 23 -8 40q-11 16 -37 16q-23 0 -43 -17q-19 -16 -25 -39q-4 -23 8 -41q13 -16 36 -16zM164 -17q16 31 20 53q13 64 -44 64q-19 0 -31 -4q-14 -3 -31 -14l20 -108q-3 -8 -8 -17q-2 -4 -6 -14l-7 -14q-6 -10 -10 -17q-3 -5 -9 -16t-8 -15
q-7 -12 -17 -26h44l19 24q6 9 43 60q15 22 25 44z" />
    <glyph glyph-name="less" unicode="&#x3c;" horiz-adv-x="550" 
d="M84 210l427 -210l13 63l-359 174l433 174l14 63l-517 -210z" />
    <glyph glyph-name="equal" unicode="=" horiz-adv-x="550" 
d="M83 273h500l12 57h-500zM53 134h500l13 57h-500z" />
    <glyph glyph-name="greater" unicode="&#x3e;" horiz-adv-x="550" 
d="M39 0l517 210l11 54l-427 210l-14 -63l359 -174l-433 -174z" />
    <glyph glyph-name="question" unicode="?" horiz-adv-x="418" 
d="M393 330q30 26 44 50q15 25 23 66q9 39 6 77q-1 35 -14 70q-14 37 -32 61q-19 28 -49 46q-11 8 -21 12q-6 4 -22 10q-9 5 -26 8q-3 1 -36 8l-41 -76q46 -6 78 -25q35 -19 54 -47q21 -29 27 -66q7 -37 -3 -80q-4 -22 -14 -40q-11 -19 -29 -39h-151l-38 -176h75l23 107h51
q14 0 30 2q21 5 22 5q14 6 20 10q19 14 23 17zM144 -12q23 0 43 17t26 40q4 24 -9 40q-11 16 -36 16q-24 0 -44 -17t-24 -39q-6 -22 7 -41q13 -16 37 -16z" />
    <glyph glyph-name="A" unicode="A" horiz-adv-x="595" 
d="M499 0h88l-101 679h-88l-390 -679h88l109 195h267zM420 572l42 -302h-215z" />
    <glyph glyph-name="B" unicode="B" horiz-adv-x="591" 
d="M353 0q37 0 76 13q38 14 64 36q28 23 48 56q21 32 28 71q15 69 -12 113q-27 45 -89 57q54 17 95 58q38 39 50 94q7 36 0 67q-6 30 -26 54q-20 23 -49 32q-27 9 -75 9h-214l-140 -660h244zM514 567q22 -28 10 -76q-10 -51 -50 -85q-12 -10 -19 -14q-4 -3 -21 -9l-25 -5
q-9 -1 -31 -1h-107l46 214h113q41 0 56 -5q18 -4 28 -19zM368 302q68 0 98 -31q30 -30 18 -89q-6 -26 -21 -50t-33 -38q-21 -14 -43 -20q-19 -5 -68 -5h-113l49 233h113z" />
    <glyph glyph-name="C" unicode="C" horiz-adv-x="605" 
d="M657 547l54 62q-9 9 -18 15q-10 8 -16 11q-6 5 -15 8q-6 4 -18 7q-50 22 -119 22q-73 0 -137 -26q-65 -25 -121 -72q-55 -46 -93 -107q-37 -59 -53 -134q-16 -78 -4 -140q12 -63 46 -109q37 -46 92 -72q56 -25 132 -25q24 0 45 3q33 4 49 8t23 6q4 1 11 3.5t10 3.5
q4 2 11.5 4t11.5 4t8.5 3.5t10 4t9.5 3.5l-9 64q-43 -16 -81 -24q-42 -7 -78 -7q-56 0 -101 20q-44 22 -69 55q-26 36 -33 87q-6 51 6 113q11 54 40 105q28 48 67 82q37 34 87 53q47 19 101 19q48 0 84 -12q37 -12 67 -38z" />
    <glyph glyph-name="D" unicode="D" horiz-adv-x="711" 
d="M592 96q54 50 90 111q37 65 50 126q15 72 3 131q-12 62 -47 104q-34 44 -91 68q-52 24 -128 24h-220l-140 -660h219q84 0 147 22q61 22 117 74zM442 591q59 0 99 -20q46 -21 71 -54q28 -34 37 -81q10 -43 -3 -102q-6 -26 -18 -55q-15 -34 -28 -55q-12 -22 -37 -52
q-24 -27 -42 -43q-37 -31 -82 -46q-45 -14 -108 -14h-125l111 522h125z" />
    <glyph glyph-name="E" unicode="E" horiz-adv-x="539" 
d="M109 0h380l15 69h-298l49 233h239l15 69h-239l47 220h289l14 69h-371z" />
    <glyph glyph-name="F" unicode="F" horiz-adv-x="522" 
d="M317 591h289l14 69h-371l-140 -660h82l63 295h239l15 70h-239z" />
    <glyph glyph-name="G" unicode="G" horiz-adv-x="708" 
d="M570 9q9 3 21 6l30 10l58 270h-82l-47 -220q-54 -10 -65 -11q-22 -3 -47 -3q-62 0 -110 21q-46 20 -79 58q-31 38 -42 87q-10 47 3 110q11 52 37 95q26 45 65 81q48 45 100 65q48 19 122 19q42 0 76 -7q32 -5 61 -19q1 -1 4 -2t5.5 -2.5t4.5 -2.5q5 -2 18 -11l45 68
q-30 19 -38 22q-11 6 -35 13q-26 8 -61 11q-32 4 -72 4q-77 0 -145 -26q-71 -26 -126 -71q-54 -43 -96 -108q-39 -63 -55 -135q-15 -71 -1 -136q15 -65 51 -109q40 -47 96 -73t133 -26q43 0 89 6q47 6 82 16z" />
    <glyph glyph-name="H" unicode="H" horiz-adv-x="771" 
d="M580 0h82l140 660h-82l-60 -283h-389l60 283h-82l-140 -660h82l64 302h389z" />
    <glyph glyph-name="I" unicode="I" horiz-adv-x="300" 
d="M109 0h82l140 660h-82z" />
    <glyph glyph-name="J" unicode="J" horiz-adv-x="300" 
d="M111 -137q12 13 23 28q4 5 10 13.5t8 11.5q6 9 16 29q12 22 19 36l144 679h-82l-128 -603q-9 -47 -26 -83q-18 -42 -36 -67q-8 -12 -15 -19q-10 -12 -18 -20q-3 -3 -11.5 -11t-13.5 -13q-18 -16 -35 -32l43 -45q18 13 34 27q10 8 24 22q1 1 9.5 9t12.5 13q4 4 7.5 8
t7.5 9t7 8z" />
    <glyph glyph-name="K" unicode="K" horiz-adv-x="571" 
d="M461 0h101l-199 339l326 321h-94l-327 -327zM109 0h82l140 660h-82z" />
    <glyph glyph-name="L" unicode="L" horiz-adv-x="495" 
d="M109 0h377l15 69h-295l125 591h-82z" />
    <glyph glyph-name="M" unicode="M" horiz-adv-x="878" 
d="M687 0h82l140 660h-113l-320 -528q-10 -18 -12 -22q-1 -1 -2.5 -5.5l-3.5 -10.5t-5 -12q1 10 1 22q0 9 -3 28l-89 528h-113l-140 -660h75l122 572v-26q1 -7 1 -20q1 -3 1.5 -9.5t0.5 -9.5q1 -3 2 -11t2 -12l79 -484h75l301 497q12 21 13 23t5 9t6 10q5 7 8 17
q1 3 4.5 10.5t5.5 11.5z" />
    <glyph glyph-name="N" unicode="N" horiz-adv-x="759" 
d="M554 -6h95l141 666h-82l-119 -559q0 1 -0.5 3t-0.5 3v4q-2 16 -4 18q-1 2 -1.5 6t-0.5 6q0 6 -3 9q-2 6 -3 7l-220 503h-107l-140 -660h82l122 572q0 -3 0.5 -8t0.5 -7q2 -6 3 -10q2 -4 2 -7q2 -4 3 -8q1 -2 2.5 -7t2.5 -7q3 -6 3 -9z" />
    <glyph glyph-name="O" unicode="O" horiz-adv-x="763" 
d="M379 -13q71 0 138 26q70 29 121 71q54 45 92 109q38 61 53 137q17 76 5 137q-11 65 -46 109q-33 45 -90 71q-50 25 -127 25q-74 0 -139 -26q-68 -26 -120 -71q-52 -43 -92 -108q-37 -60 -54 -137q-16 -78 -4 -138q11 -59 46 -108q34 -45 90 -72q56 -25 127 -25zM510 600
q50 0 88 -22q40 -22 65 -58q25 -33 34 -86q8 -46 -4 -104q-12 -55 -42 -106q-31 -51 -70 -86q-40 -36 -89 -58q-48 -21 -97 -21q-48 0 -90 22q-38 22 -65 58q-25 37 -34 86q-8 48 4 105q12 56 42 105q29 50 70 86q42 37 89 58q46 21 99 21z" />
    <glyph glyph-name="P" unicode="P" horiz-adv-x="556" 
d="M344 242q51 0 101 16q50 17 84 44q36 29 62 70q25 39 36 93q11 49 5 82q-4 35 -26 61q-20 28 -56 41q-30 11 -94 11h-207l-140 -660h82l53 250q26 -2 37 -4q4 0 12.5 -0.5t12.5 -1.5q8 0 20 -2h18zM526 563q30 -36 15 -103q-9 -47 -39 -83q-28 -36 -68 -51
q-36 -13 -88 -13q-5 0 -17 0.5t-19 0.5q-6 0 -23 2t-28 3l58 272h113q42 0 62 -7q22 -6 34 -21z" />
    <glyph glyph-name="Q" unicode="Q" horiz-adv-x="763" 
d="M434 -12q65 12 124 43q61 33 103 75q46 44 77 101q30 53 45 122q16 74 4 138q-13 66 -46 108q-35 47 -89 72q-50 25 -127 25q-74 0 -139 -26q-68 -26 -120 -71q-52 -43 -92 -108q-38 -64 -54 -137q-12 -54 -7 -108q6 -55 24 -94q24 -47 51 -76q31 -31 76 -48l15 -5
q8 -2 14 -4q1 0 8 -1t11 -2q3 0 24 -5l11 -17q9 -16 20 -35q7 -10 19 -28q3 -4 10.5 -12.5t11.5 -13.5l25 -25q9 -8 25 -22l24 -18q18 -12 28 -19q8 -4 37 -23l59 63q-8 4 -19.5 10t-15.5 8q-6 4 -26 14l-21 15q-9 9 -21 18q-23 21 -44 48q-10 16 -13 19q-9 15 -12 19z
M510 600q51 0 89 -22q40 -22 65 -58q25 -33 34 -86q8 -46 -4 -104q-12 -55 -42 -106q-31 -51 -70 -86q-40 -36 -89 -58q-48 -21 -98 -21q-48 0 -90 22q-40 23 -66 58q-25 37 -34 86q-8 48 4 105q12 56 42 105q28 48 71 86q42 37 89 58q46 21 99 21z" />
    <glyph glyph-name="R" unicode="R" horiz-adv-x="584" 
d="M461 0h94l-132 295q39 9 62 19q26 13 48 31q36 28 57 62q22 33 30 75q9 40 2 72q-6 34 -26 57q-10 15 -24 24q-9 8 -30 15q-13 5 -40 8q-15 2 -52 2h-201l-140 -660h82l60 283h88zM516 572q29 -28 16 -91q-27 -129 -159 -129h-107l51 239h107q27 0 37 -1q15 0 24 -3
q15 -4 17 -6q8 -3 14 -9z" />
    <glyph glyph-name="S" unicode="S" horiz-adv-x="534" 
d="M558 548l53 68q-24 16 -39 24q-14 9 -33 15q-24 9 -51 12q-24 4 -56 4q-50 0 -93 -13q-45 -12 -76 -35q-30 -21 -56 -56q-22 -32 -31 -71q-9 -52 14 -92t91 -81q10 -6 24.5 -15t24.5 -15t17 -10q25 -13 31 -19q34 -21 45 -54q6 -17 0 -47q-10 -46 -50 -74
q-40 -26 -97 -26q-48 0 -91 17q-20 10 -30 16q-9 6 -37 27l-56 -65q8 -6 23 -17t20 -15q20 -12 32 -17q53 -22 117 -22q99 0 169 50q69 51 87 134q9 35 1 68q-6 34 -26 52q-29 32 -90 67q-17 10 -42 26.5t-30 19.5q-29 21 -43 35q-13 14 -18 31q-2 12 1 33q9 42 49 68
q38 25 97 25q24 0 45 -4q20 -2 43 -10q15 -4 27 -12q11 -5 34 -22z" />
    <glyph glyph-name="T" unicode="T" horiz-adv-x="539" 
d="M436 591h220l14 69h-522l-14 -69h220l-126 -591h82z" />
    <glyph glyph-name="U" unicode="U" horiz-adv-x="700" 
d="M541 42q49 35 75 76t40 108l92 434h-82l-87 -409q-7 -33 -12 -52q-6 -22 -14 -36q-9 -18 -17 -27q-8 -10 -24 -25q-63 -57 -151 -57q-86 0 -125 57q-10 15 -15 25q-4 12 -6 28q0 15 3 36t9 51l87 409h-82l-92 -434q-14 -66 -5 -108t43 -76q64 -61 169 -61q106 0 194 61z
" />
    <glyph glyph-name="V" unicode="V" horiz-adv-x="583" 
d="M314 -17l400 677h-82l-297 -515q-6 -10 -8 -16q-1 -3 -2.5 -8.5t-2.5 -7.5q3 20 0 32l-86 515h-88l116 -677h50z" />
    <glyph glyph-name="W" unicode="W" horiz-adv-x="864" 
d="M603 -13l393 673h-81l-309 -544l-48 282l156 262h-68l-103 -173l-30 173h-75l46 -274l-162 -271l-86 545h-88l121 -673h44l187 312l52 -312h51z" />
    <glyph glyph-name="X" unicode="X" horiz-adv-x="572" 
d="M469 0h94l-159 336l290 324h-93l-227 -254l-121 254h-94l152 -323l-303 -337h95l241 269z" />
    <glyph glyph-name="Y" unicode="Y" horiz-adv-x="550" 
d="M375 308l307 352h-87l-242 -283l-117 283h-88l144 -358l-64 -302h82z" />
    <glyph glyph-name="Z" unicode="Z" horiz-adv-x="595" 
d="M42 0h512l15 69h-400l498 547l9 44h-494l-14 -69h382l-500 -553z" />
    <glyph glyph-name="bracketleft" unicode="[" horiz-adv-x="250" 
d="M21 -245h164l12 56h-88l168 793h88l12 56h-164z" />
    <glyph glyph-name="backslash" unicode="\" horiz-adv-x="409" 
d="M243 -245h69l-60 905h-69z" />
    <glyph glyph-name="bracketright" unicode="]" horiz-adv-x="250" 
d="M-39 -245h164l192 905h-164l-12 -56h88l-168 -793h-88z" />
    <glyph glyph-name="underscore" unicode="_" 
d="M-12 -57h500l12 57h-500z" />
    <glyph glyph-name="grave" unicode="`" horiz-adv-x="383" 
d="M299 519h69l-59 163h-88z" />
    <glyph glyph-name="a" unicode="a" horiz-adv-x="516" 
d="M415 0h75l-91 490h-75l-299 -490h76l82 133h205zM345 409l35 -214h-163z" />
    <glyph glyph-name="b" unicode="b" horiz-adv-x="495" 
d="M294 0q30 0 63 10q32 11 53 27q25 19 39 41q17 25 23 52q10 48 -12 81q-21 33 -68 40q40 8 69 37t38 72q13 59 -19.5 88.5t-109.5 29.5h-176l-102 -478h202zM344 415q50 0 66 -15q18 -15 9 -51q-8 -36 -37 -57q-10 -6 -14 -8t-13 -5q-3 -1 -9.5 -1.5t-9.5 -0.5h-28h-81
l29 138h88zM378 199q13 -10 16 -26q4 -13 -1 -35q-3 -18 -17 -37q-12 -17 -30 -27q-3 -1 -15 -7q-3 -1 -13 -3q-2 0 -8.5 -0.5t-10.5 -0.5h-30h-88l32 151h88h38q24 -2 39 -15z" />
    <glyph glyph-name="c" unicode="c" horiz-adv-x="516" 
d="M529 383l49 58q-34 25 -69 35q-32 11 -81 11q-57 0 -110 -19q-50 -17 -96 -52q-42 -33 -72 -78q-27 -41 -40 -97q-10 -53 -1 -101q11 -46 39 -79q29 -32 75 -52q47 -18 106 -18q30 0 70 7q34 7 80 24l-10 56q-6 -3 -16 -7t-14 -6q-8 -3 -26 -7q-9 -2 -26 -4
q-4 0 -14 -0.5t-16 -0.5q-53 0 -86 12q-31 11 -53 38q-19 25 -29 64q-7 36 2 78q10 41 29 72q22 34 49 57q30 24 66 36q36 13 77 13q24 0 41 -4q22 -3 34 -8q12 -4 20 -11q11 -8 22 -17z" />
    <glyph glyph-name="d" unicode="d" horiz-adv-x="609" 
d="M504 66q40 35 68 81q29 46 38 92q5 25 5 47q1 21 -4 47q-2 19 -13 44q-10 24 -19 35q-26 35 -71 50q-44 16 -113 16h-176l-102 -478h176q67 0 121 16q50 16 90 50zM496 382q25 -23 34 -63q9 -37 0 -79t-34 -80q-23 -37 -59 -62q-27 -19 -60 -28q-28 -7 -83 -7h-88l75 352
h94q32 0 44 -2q23 -2 33 -5q13 -3 25 -11q8 -4 19 -15z" />
    <glyph glyph-name="e" unicode="e" horiz-adv-x="478" 
d="M117 0h302l13 63h-226l32 151h182l14 63h-182l29 138h220l14 63h-296z" />
    <glyph glyph-name="f" unicode="f" horiz-adv-x="463" 
d="M281 415h220l14 63h-296l-102 -478h76l44 207h182l13 63h-182z" />
    <glyph glyph-name="g" unicode="g" horiz-adv-x="624" 
d="M487 8q3 1 8.5 2.5t8.5 2.5q10 3 24 6l41 195h-76l-32 -151l-56 -8q-26 -2 -38 -2q-45 0 -83 15q-37 15 -60 40q-25 28 -33 60q-9 36 0 76q9 39 30 72q23 33 54 57q34 25 72 38q35 13 82 13q30 0 58 -7q32 -6 51 -16q11 -5 29 -18l46 63q-17 11 -35 19q-10 5 -30 10
q-13 4 -49 8q-30 3 -59 3q-61 0 -115 -19q-54 -18 -99 -51q-44 -33 -75 -78q-29 -43 -41 -98q-11 -55 1 -100q12 -44 42 -79q31 -33 79 -52q51 -19 110 -19q26 0 71 5q45 6 74 13z" />
    <glyph glyph-name="h" unicode="h" horiz-adv-x="687" 
d="M495 0h75l102 478h-75l-43 -201h-302l43 201h-76l-102 -478h76l45 214h302z" />
    <glyph glyph-name="i" unicode="i" horiz-adv-x="310" 
d="M117 0h76l102 478h-76z" />
    <glyph glyph-name="j" unicode="j" horiz-adv-x="291" 
d="M106 -105q12 14 17 20q4 5 15 20q4 5 15 23q12 18 18 29l105 491h-76l-89 -415q-10 -49 -22 -76q-12 -30 -33 -54q-2 -3 -6.5 -7.5t-6.5 -7.5l-14 -14q-3 -3 -19 -17q-14 -12 -25 -23l45 -40q6 5 14.5 12.5t10.5 9.5q8 7 20 17l4.5 4.5t4.5 4t4 3.5t3 4q2 3 7 8z" />
    <glyph glyph-name="k" unicode="k" horiz-adv-x="534" 
d="M400 0h107l-163 239l253 239h-101l-246 -239zM117 0h76l102 478h-76z" />
    <glyph glyph-name="l" unicode="l" horiz-adv-x="436" 
d="M117 0h302l13 63h-226l89 415h-76z" />
    <glyph glyph-name="m" unicode="m" horiz-adv-x="763" 
d="M570 0h75l102 478h-96l-236 -353q-9 -17 -11 -21q-1 -1 -3.5 -6.5t-4.5 -10.5q2 10 2 21q0 10 -2 17l-80 353h-97l-102 -478h76l78 368v-32q1 -7 6 -31l67 -305h60l216 325q12 18 17 28q2 3 4 7t5 10.5t5 10.5z" />
    <glyph glyph-name="n" unicode="n" horiz-adv-x="668" 
d="M481 -6h69l103 484h-69l-82 -384q0 16 -2 24q-1 12 -8 20l-197 340h-76l-102 -478h70l81 383q0 -7 4 -19q0 -1 4 -10t8 -15z" />
    <glyph glyph-name="o" unicode="o" horiz-adv-x="647" 
d="M322 -9q55 0 110 19q56 20 95 51q41 32 72 79q29 45 41 99q12 53 1 100q-8 44 -38 78q-28 34 -73 52q-42 18 -102 18q-58 0 -111 -19q-51 -17 -95 -51q-43 -34 -72 -79q-27 -41 -40 -99q-11 -51 -2 -100q10 -45 39 -78q31 -34 73 -52q45 -18 102 -18zM414 423
q42 0 70 -14q32 -13 51 -39q20 -23 26 -58q7 -32 -2 -73q-7 -38 -30 -73q-22 -34 -51 -59q-30 -24 -67 -39q-37 -14 -76 -14q-37 0 -70 14q-30 15 -51 39q-18 23 -26 59q-6 33 2 73q9 41 30 73q25 38 51 59q27 23 67 38q35 14 76 14z" />
    <glyph glyph-name="p" unicode="p" horiz-adv-x="495" 
d="M331 180q34 0 69 11q35 13 59 31q25 19 44 48q20 31 25 61q17 72 -21 110q-34 37 -122 37h-166l-102 -478h76l40 190q22 -5 41 -7q28 -3 57 -3zM363 415q58 0 78 -19q21 -18 12 -62q-9 -42 -41 -67q-32 -24 -75 -24q-24 0 -58 4q-6 1 -13.5 2.5t-11.5 2.5t-7 1l34 162h82
z" />
    <glyph glyph-name="q" unicode="q" horiz-adv-x="647" 
d="M385 -5q103 26 169 89t86 155q12 53 1 100q-8 44 -38 78q-28 34 -73 52q-42 18 -102 18q-58 0 -111 -19q-51 -17 -95 -51q-43 -34 -72 -79q-27 -41 -40 -99q-10 -50 -1 -96q11 -46 36 -80q9 -10 26 -27q16 -12 30 -20q16 -8 37 -14q12 -3 50 -11q26 -42 43 -63
q24 -27 43 -44q12 -8 21 -15q9 -5 20 -13q16 -8 25 -13q28 -11 34 -14l52 53q-19 9 -28 12l-11 5.5t-10 5.5t-8.5 5.5t-8.5 5.5q-2 2 -8 6t-9 7q-5 3 -18 14q-2 2 -4 4.5t-5 5t-5 4.5q-1 2 -13 16q-2 3 -6.5 10.5t-6.5 11.5zM414 423q42 0 70 -14q32 -13 51 -39
q20 -23 26 -58q7 -32 -2 -73q-7 -38 -30 -73q-22 -34 -51 -59q-30 -24 -67 -39q-37 -14 -76 -14q-37 0 -70 14q-30 15 -51 39q-18 23 -26 59q-6 33 2 73q9 41 30 73q25 38 51 59q27 23 67 38q35 14 76 14z" />
    <glyph glyph-name="r" unicode="r" horiz-adv-x="513" 
d="M388 0h88l-89 201q53 9 91 47q39 39 51 94q15 66 -24 101q-36 35 -125 35h-161l-102 -478h76l41 195h69zM430 402q25 -21 16 -63q-7 -37 -39 -61q-15 -10 -17 -11q-10 -4 -16 -6q-9 -1 -21 -3h-30h-75l33 157h75q25 0 33 -1q15 0 20 -1q8 0 12 -4q6 -4 9 -7z" />
    <glyph glyph-name="s" unicode="s" horiz-adv-x="464" 
d="M456 383l41 63q-28 16 -32 18q-10 6 -26 10q-39 12 -87 12q-81 0 -135 -35q-54 -34 -66 -95q-7 -37 11 -69q20 -31 68 -57l78 -42q26 -13 35 -31q10 -18 4 -40q-6 -28 -34 -47q-28 -17 -69 -17q-38 0 -75 16q-8 4 -24 14q-3 3 -13 10.5t-17 13.5l-48 -65q9 -6 20.5 -13.5
t14.5 -9.5q4 -2 12.5 -6.5t12.5 -6.5q39 -15 95 -15q81 0 135 36t68 100q5 20 2 40q-4 22 -13 34q-10 16 -30 30q-23 18 -49 32q-25 15 -51 28q-5 3 -16 9.5t-15 9.5q-12 9 -17 14q-5 6 -8 14q-4 11 -1 25q6 29 36 44q27 15 75 15q34 0 65 -10q21 -8 27 -11q10 -4 26 -18z
" />
    <glyph glyph-name="t" unicode="t" horiz-adv-x="448" 
d="M350 415h170l14 63h-415l-14 -63h170l-88 -415h75z" />
    <glyph glyph-name="u" unicode="u" horiz-adv-x="614" 
d="M448 22q43 23 67 62q23 37 39 111l61 283h-75l-63 -296q-27 -132 -159 -132q-130 0 -103 132l63 296h-75l-61 -283q-15 -71 -7 -111q9 -40 40 -62q25 -16 59 -26q40 -10 70 -10q31 0 74 10q39 11 70 26z" />
    <glyph glyph-name="v" unicode="v" horiz-adv-x="503" 
d="M270 -12l310 490h-82l-208 -345q-1 -2 -3 -5.5t-3 -5.5q-2 -6 -4 -11q3 11 -1 22l-70 345h-82l103 -490h40z" />
    <glyph glyph-name="w" unicode="w" horiz-adv-x="729" 
d="M501 -9l305 487h-75l-224 -371l-44 182l123 189h-69l-68 -113l-26 113h-70l40 -195l-112 -176l-72 371h-82l107 -487h36l139 216l52 -216h40z" />
    <glyph glyph-name="x" unicode="x" horiz-adv-x="497" 
d="M383 0h89l-131 245l226 233h-88l-163 -170l-88 170h-92l117 -233l-228 -245h88l171 182z" />
    <glyph glyph-name="y" unicode="y" horiz-adv-x="478" 
d="M315 214l240 264h-88l-168 -195l-84 195h-88l113 -264l-45 -214h75z" />
    <glyph glyph-name="z" unicode="z" horiz-adv-x="509" 
d="M50 0h409l13 63h-302l368 371l10 44h-396l-14 -63h289l-368 -371z" />
    <glyph glyph-name="braceleft" unicode="{" horiz-adv-x="409" 
d="M278 -243h56l14 63h-44q-16 0 -31 9q-12 7 -19 21q-4 11 -4 27q3 29 6 43l43 202q1 7 3.5 18.5t3.5 15.5q2 10 2 23t-2 18q-2 11 -5 16q-12 28 -37 32l-23 4l26 6q24 6 45 27q23 25 31 50q1 3 2.5 9.5t2.5 9.5q1 4 2.5 13t2.5 13l43 201q6 30 12 45q5 13 16 26
q12 15 29 22q16 8 33 8h44l14 63h-56q-71 0 -108 -31t-52 -101l-47 -220q-24 -113 -100 -113h-36l-12 -55h36q76 0 52 -113l-47 -220q-15 -71 9 -102q24 -30 95 -30z" />
    <glyph glyph-name="bar" unicode="|" horiz-adv-x="250" 
d="M41 -239h70l206 968h-70z" />
    <glyph glyph-name="braceright" unicode="}" horiz-adv-x="409" 
d="M338 222h36l12 54l-36 1q-76 0 -52 113l47 220q15 72 -9 102q-23 30 -95 30h-56l-14 -63h44q16 0 31 -9t19 -21q6 -11 4 -27q0 -14 -6 -44l-43 -201q-1 -8 -4 -20.5t-3 -13.5q-2 -9 -2 -23q0 -6 2 -18q1 -3 2.5 -8.5t2.5 -7.5q11 -26 37 -32l23 -5l-26 -5q-24 -4 -45 -27
q-21 -21 -31 -50l-5 -20q0 -3 -1 -7t-2 -9t-2 -9l-43 -202q-6 -28 -12 -44q-6 -14 -16 -26t-29 -22q-19 -8 -33 -8h-44l-14 -63h56q71 0 108 31t52 101l47 220q12 55 38 84t62 29z" />
    <glyph glyph-name="asciitilde" unicode="~" horiz-adv-x="544" 
d="M495 189q28 11 39 17q28 15 45 26l-23 44q-7 -4 -21 -12.5t-20 -11.5q-14 -7 -32 -13q-38 -11 -67 -11q-12 0 -32 4q-8 2 -35 14l-45 22q-20 11 -40 16q-12 4 -36 4q-36 0 -85 -18q-16 -6 -23 -10q-2 -1 -9 -4t-11 -5q-9 -5 -21 -12q-4 -2 -12.5 -8.5t-11.5 -8.5l20 -42
q37 25 71 36q35 13 65 13q19 0 32 -5q19 -6 34 -15q29 -13 38 -19q8 -4 30 -11q4 -1 8.5 -2t10 -2t8.5 -2q10 -1 29 -1q41 0 94 17z" />
    <glyph glyph-name="nbspace" unicode="&#xa0;" 
 />
    <glyph glyph-name="dieresis" unicode="&#xa8;" horiz-adv-x="406" 
d="M402 522q20 0 38 15t23 35q4 21 -8 36t-32 15q-21 0 -39 -15q-17 -14 -22 -36q-5 -20 7 -35t33 -15zM227 522q20 0 38 15t23 35q4 21 -8 36t-32 15q-21 0 -39 -15q-17 -14 -22 -36q-5 -20 7 -35t33 -15z" />
    <glyph glyph-name="acute" unicode="&#xb4;" horiz-adv-x="383" 
d="M338 497l147 163h-88l-128 -163h69z" />
    <glyph glyph-name="Agrave" unicode="&#xc0;" horiz-adv-x="595" 
d="M422 715h69l-70 118h-88zM499 0h88l-101 679h-88l-390 -679h88l109 195h267zM420 572l42 -302h-215z" />
    <glyph glyph-name="Aacute" unicode="&#xc1;" horiz-adv-x="595" 
d="M489 715l138 118h-88l-120 -118h70zM499 0h88l-101 679h-88l-390 -679h88l109 195h267zM420 572l42 -302h-215z" />
    <glyph glyph-name="Acircumflex" unicode="&#xc2;" horiz-adv-x="595" 
d="M524 696h70l-89 117h-63l-137 -117h68l89 67zM499 0h88l-101 679h-88l-390 -679h88l109 195h267zM420 572l42 -302h-215z" />
    <glyph glyph-name="Atilde" unicode="&#xc3;" horiz-adv-x="595" 
d="M594 721q21 9 33 15q13 8 31 22l-22 40q-11 -7 -33 -19q-16 -8 -23 -11q-3 -1 -9.5 -3t-9.5 -3q-6 -1 -18 -1q-7 0 -23 4q-15 6 -26 13q-6 4 -15.5 9.5t-12.5 7.5q-5 4 -17 9q-8 4 -12 4q-8 2 -14 2q-2 1 -12 1q-32 0 -65 -15q-16 -7 -28 -13q-15 -7 -40 -22l22 -44
q17 9 21 11q6 3 12 7l5 2.5t4 1.5q3 2 9 4q16 8 37 8q14 0 22 -4q9 -3 30 -15q45 -27 81 -27q31 0 73 16zM499 0h88l-101 679h-88l-390 -679h88l109 195h267zM420 572l42 -302h-215z" />
    <glyph glyph-name="Adieresis" unicode="&#xc4;" horiz-adv-x="595" 
d="M540 708q21 0 39 15q19 16 22 35q6 20 -7 36q-12 15 -32 15q-21 0 -39 -15q-17 -14 -23 -36q-3 -21 8 -35q12 -15 32 -15zM354 708q22 0 40 15q19 14 22 35q6 20 -7 36q-12 15 -33 15q-20 0 -38 -15q-17 -14 -23 -36q-3 -21 8 -35q12 -15 31 -15zM499 0h88l-101 679h-88
l-390 -679h88l109 195h267zM420 572l42 -302h-215z" />
    <glyph glyph-name="Aring" unicode="&#xc5;" horiz-adv-x="595" 
d="M451 709q33 0 61 23q28 24 34 56q9 33 -11 57q-17 23 -51 23q-32 0 -61 -24q-27 -24 -36 -56q-6 -32 12 -56q20 -23 52 -23zM499 0h88l-101 679h-88l-390 -679h88l109 195h267zM476 830q18 0 27 -13q10 -11 5 -29q-3 -17 -18 -29t-31 -12q-17 0 -27 12q-10 13 -7 29
q5 18 19 30q13 12 32 12zM420 572l42 -302h-215z" />
    <glyph glyph-name="AE" unicode="&#xc6;" horiz-adv-x="794" 
d="M367 0h377l15 69h-300l49 233h243l15 69h-243l47 220h294l14 69h-371h-51l-473 -660h95l135 195h195zM496 608l-72 -338h-164z" />
    <glyph glyph-name="Egrave" unicode="&#xc8;" horiz-adv-x="539" 
d="M445 715h69l-69 118h-88zM109 0h380l15 69h-298l49 233h239l15 69h-239l47 220h289l14 69h-371z" />
    <glyph glyph-name="Eacute" unicode="&#xc9;" horiz-adv-x="539" 
d="M498 715l138 118h-88l-120 -118h70zM109 0h380l15 69h-298l49 233h239l15 69h-239l47 220h289l14 69h-371z" />
    <glyph glyph-name="Ecircumflex" unicode="&#xca;" horiz-adv-x="539" 
d="M533 696h71l-90 117h-63l-136 -117h67l90 67zM109 0h380l15 69h-298l49 233h239l15 69h-239l47 220h289l14 69h-371z" />
    <glyph glyph-name="Edieresis" unicode="&#xcb;" horiz-adv-x="539" 
d="M552 710q21 0 39 15q17 14 22 36q4 21 -8 36q-11 14 -32 14t-39 -15q-16 -14 -21 -35t7 -36t32 -15zM367 710q20 0 38 15q19 16 23 36q4 21 -8 36q-11 14 -32 14t-39 -15t-22 -35q-5 -21 7 -36t33 -15zM109 0h380l15 69h-298l49 233h239l15 69h-239l47 220h289l14 69
h-371z" />
    <glyph glyph-name="Igrave" unicode="&#xcc;" horiz-adv-x="300" 
d="M293 715h69l-69 118h-88zM109 0h82l140 660h-82z" />
    <glyph glyph-name="Iacute" unicode="&#xcd;" horiz-adv-x="300" 
d="M317 715l138 118h-88l-119 -118h69zM109 0h82l140 660h-82z" />
    <glyph glyph-name="Icircumflex" unicode="&#xce;" horiz-adv-x="300" 
d="M378 696h70l-89 117h-63l-137 -117h68l89 67zM109 0h82l140 660h-82z" />
    <glyph glyph-name="Idieresis" unicode="&#xcf;" horiz-adv-x="300" 
d="M379 708q21 0 39 15q19 16 22 35q6 20 -7 36q-12 15 -32 15q-21 0 -39 -15q-15 -13 -22 -36q-3 -20 7 -35q12 -15 32 -15zM227 708q21 0 39 15q19 16 22 35q6 20 -7 36q-12 15 -32 15q-21 0 -39 -15q-15 -13 -22 -36q-3 -20 7 -35q12 -15 32 -15zM109 0h82l140 660h-82z
" />
    <glyph glyph-name="Ograve" unicode="&#xd2;" horiz-adv-x="763" 
d="M493 715h69l-69 118h-88zM379 -13q71 0 138 26q70 29 121 71q54 45 92 109q38 61 53 137q17 76 5 137q-11 65 -46 109q-33 45 -90 71q-50 25 -127 25q-74 0 -139 -26q-68 -26 -120 -71q-52 -43 -92 -108q-37 -60 -54 -137q-16 -78 -4 -138q11 -59 46 -108q34 -45 90 -72
q56 -25 127 -25zM509 596q51 0 89 -22q40 -21 64 -57q25 -35 34 -85q9 -48 -3 -102q-10 -52 -41 -103q-32 -52 -70 -84q-40 -36 -89 -58q-48 -21 -97 -21q-48 0 -89 21q-36 19 -65 58q-25 37 -34 85q-9 47 2 102q12 56 42 103q29 47 70 84q44 38 90 58q46 21 97 21z" />
    <glyph glyph-name="Oacute" unicode="&#xd3;" horiz-adv-x="763" 
d="M565 715l138 118h-88l-119 -118h69zM379 -13q71 0 138 26q70 29 121 71q54 45 92 109q38 61 53 137q17 76 5 137q-11 65 -46 109q-33 45 -90 71q-50 25 -127 25q-74 0 -139 -26q-68 -26 -120 -71q-52 -43 -92 -108q-37 -60 -54 -137q-16 -78 -4 -138q11 -59 46 -108
q34 -45 90 -72q56 -25 127 -25zM509 596q51 0 89 -22q40 -21 64 -57q25 -35 34 -85q9 -48 -3 -102q-10 -52 -41 -103q-32 -52 -70 -84q-40 -36 -89 -58q-48 -21 -97 -21q-48 0 -89 21q-36 19 -65 58q-25 37 -34 85q-9 47 2 102q12 56 42 103q29 47 70 84q44 38 90 58
q46 21 97 21z" />
    <glyph glyph-name="Ocircumflex" unicode="&#xd4;" horiz-adv-x="763" 
d="M604 696h71l-90 117h-63l-137 -117h68l90 67zM379 -13q71 0 138 26q70 29 121 71q54 45 92 109q38 61 53 137q17 76 5 137q-11 65 -46 109q-33 45 -90 71q-50 25 -127 25q-74 0 -139 -26q-68 -26 -120 -71q-52 -43 -92 -108q-37 -60 -54 -137q-16 -78 -4 -138
q11 -59 46 -108q34 -45 90 -72q56 -25 127 -25zM509 596q51 0 89 -22q40 -21 64 -57q25 -35 34 -85q9 -48 -3 -102q-10 -52 -41 -103q-32 -52 -70 -84q-40 -36 -89 -58q-48 -21 -97 -21q-48 0 -89 21q-36 19 -65 58q-25 37 -34 85q-9 47 2 102q12 56 42 103q29 47 70 84
q44 38 90 58q46 21 97 21z" />
    <glyph glyph-name="Otilde" unicode="&#xd5;" horiz-adv-x="763" 
d="M668 708q21 9 33 15q13 8 31 22l-22 40q-11 -7 -33 -19q-16 -8 -23 -11l-18 -6q-6 -1 -19 -1q-7 0 -23 4q-12 5 -25 13q-4 3 -10.5 6.5t-10.5 6t-8 4.5q-7 5 -17 9q-8 4 -12 4q-8 2 -14 2q-2 1 -11 1q-32 0 -66 -15q-16 -7 -28 -13q-15 -7 -40 -22l23 -44q13 8 20 11
q6 3 12 7l5 2.5t4 1.5q3 2 9 4q16 8 37 8q14 0 22 -4q9 -3 30 -15q45 -27 81 -27q31 0 73 16zM379 -13q71 0 138 26q70 29 121 71q54 45 92 109q38 61 53 137q17 76 5 137q-11 65 -46 109q-33 45 -90 71q-50 25 -127 25q-74 0 -139 -26q-68 -26 -120 -71q-52 -43 -92 -108
q-37 -60 -54 -137q-16 -78 -4 -138q11 -59 46 -108q34 -45 90 -72q56 -25 127 -25zM509 596q51 0 89 -22q40 -21 64 -57q25 -35 34 -85q9 -48 -3 -102q-10 -52 -41 -103q-32 -52 -70 -84q-40 -36 -89 -58q-48 -21 -97 -21q-48 0 -89 21q-36 19 -65 58q-25 37 -34 85
q-9 47 2 102q12 56 42 103q29 47 70 84q44 38 90 58q46 21 97 21z" />
    <glyph glyph-name="Odieresis" unicode="&#xd6;" horiz-adv-x="763" 
d="M636 709q21 0 39 15q17 14 22 36q4 20 -8 35t-32 15q-21 0 -39 -15q-16 -14 -21 -35t7 -36t32 -15zM434 709q20 0 38 15q19 16 23 36t-8 35t-32 15q-21 0 -39 -15t-22 -35q-5 -21 7 -36t33 -15zM379 -13q71 0 138 26q70 29 121 71q54 45 92 109q38 61 53 137q17 76 5 137
q-11 65 -46 109q-33 45 -90 71q-50 25 -127 25q-74 0 -139 -26q-68 -26 -120 -71q-52 -43 -92 -108q-37 -60 -54 -137q-16 -78 -4 -138q11 -59 46 -108q34 -45 90 -72q56 -25 127 -25zM509 596q51 0 89 -22q40 -21 64 -57q25 -35 34 -85q9 -48 -3 -102q-10 -52 -41 -103
q-32 -52 -70 -84q-40 -36 -89 -58q-48 -21 -97 -21q-48 0 -89 21q-36 19 -65 58q-25 37 -34 85q-9 47 2 102q12 56 42 103q29 47 70 84q44 38 90 58q46 21 97 21z" />
    <glyph glyph-name="Ugrave" unicode="&#xd9;" horiz-adv-x="700" 
d="M501 715h69l-70 118h-88zM541 42q49 35 75 76t40 108l92 434h-82l-87 -409q-7 -33 -12 -52q-6 -22 -14 -36q-9 -18 -17 -27q-8 -10 -24 -25q-63 -57 -151 -57q-86 0 -125 57q-10 15 -15 25q-4 12 -6 28q0 15 3 36t9 51l87 409h-82l-92 -434q-14 -66 -5 -108t43 -76
q64 -61 169 -61q106 0 194 61z" />
    <glyph glyph-name="Uacute" unicode="&#xda;" horiz-adv-x="700" 
d="M531 715l138 118h-88l-119 -118h69zM541 42q49 35 75 76t40 108l92 434h-82l-87 -409q-7 -33 -12 -52q-6 -22 -14 -36q-9 -18 -17 -27q-8 -10 -24 -25q-63 -57 -151 -57q-86 0 -125 57q-10 15 -15 25q-4 12 -6 28q0 15 3 36t9 51l87 409h-82l-92 -434q-14 -66 -5 -108
t43 -76q64 -61 169 -61q106 0 194 61z" />
    <glyph glyph-name="Ucircumflex" unicode="&#xdb;" horiz-adv-x="700" 
d="M580 696h71l-90 117h-63l-137 -117h68l90 67zM541 42q49 35 75 76t40 108l92 434h-82l-87 -409q-7 -33 -12 -52q-6 -22 -14 -36q-9 -18 -17 -27q-8 -10 -24 -25q-63 -57 -151 -57q-86 0 -125 57q-10 15 -15 25q-4 12 -6 28q0 15 3 36t9 51l87 409h-82l-92 -434
q-14 -66 -5 -108t43 -76q64 -61 169 -61q106 0 194 61z" />
    <glyph glyph-name="Udieresis" unicode="&#xdc;" horiz-adv-x="700" 
d="M609 712q21 0 39 15q19 16 22 35q5 21 -7 36q-10 14 -32 14q-21 0 -39 -15t-22 -35q-3 -22 7 -36q11 -14 32 -14zM407 712q21 0 39 15q19 16 22 35q5 21 -7 36q-10 14 -32 14q-21 0 -39 -15t-22 -35q-3 -22 7 -36q11 -14 32 -14zM541 42q49 35 75 76t40 108l92 434h-82
l-87 -409q-7 -33 -12 -52q-6 -22 -14 -36q-9 -18 -17 -27q-8 -10 -24 -25q-63 -57 -151 -57q-86 0 -125 57q-10 15 -15 25q-4 12 -6 28q0 15 3 36t9 51l87 409h-82l-92 -434q-14 -66 -5 -108t43 -76q64 -61 169 -61q106 0 194 61z" />
    <glyph glyph-name="agrave" unicode="&#xe0;" horiz-adv-x="516" 
d="M362 519h69l-59 163h-88zM415 0h75l-91 490h-75l-299 -490h76l82 133h205zM345 409l35 -214h-163z" />
    <glyph glyph-name="aacute" unicode="&#xe1;" horiz-adv-x="516" 
d="M385 518l148 164h-88l-129 -164h69zM415 0h75l-91 490h-75l-299 -490h76l82 133h205zM345 409l35 -214h-163z" />
    <glyph glyph-name="acircumflex" unicode="&#xe2;" horiz-adv-x="516" 
d="M451 519h70l-79 163h-63l-147 -163h68l98 107zM415 0h75l-91 490h-75l-299 -490h76l82 133h205zM345 409l35 -214h-163z" />
    <glyph glyph-name="atilde" unicode="&#xe3;" horiz-adv-x="516" 
d="M508 538q21 9 33 15q13 8 31 22l-22 40q-11 -7 -33 -19q-16 -8 -23 -11q-3 -1 -9.5 -3t-9.5 -3q-6 -1 -18 -1q-7 0 -23 4q-10 4 -26 13q-22 14 -28 17q-7 5 -17 9q-8 4 -12 4q-8 2 -14 2q-2 1 -12 1q-32 0 -65 -15q-16 -7 -28 -13q-15 -7 -40 -22l23 -44q13 8 20 11
q6 3 12 7l5 2.5t4 1.5q3 2 9 4q16 8 37 8q14 0 22 -4q9 -3 30 -15q45 -27 81 -27q31 0 73 16zM415 0h75l-91 490h-75l-299 -490h76l82 133h205zM345 409l35 -214h-163z" />
    <glyph glyph-name="adieresis" unicode="&#xe4;" horiz-adv-x="516" 
d="M461 522q20 0 38 15t23 35q4 21 -8 36t-32 15q-21 0 -39 -15q-17 -14 -22 -36q-5 -20 7 -35t33 -15zM286 522q20 0 38 15t23 35q4 21 -8 36t-32 15q-21 0 -39 -15q-17 -14 -22 -36q-5 -20 7 -35t33 -15zM415 0h75l-91 490h-75l-299 -490h76l82 133h205zM345 409l35 -214
h-163z" />
    <glyph glyph-name="aring" unicode="&#xe5;" horiz-adv-x="516" 
d="M370 517q33 0 61 23q29 25 35 56q7 32 -11 57q-17 23 -51 23q-32 0 -62 -24q-28 -23 -35 -56q-6 -32 12 -56q20 -23 51 -23zM415 0h75l-91 490h-75l-299 -490h76l82 133h205zM396 638q17 0 26 -13q9 -12 6 -29q-3 -16 -19 -29q-15 -12 -31 -12t-27 12q-9 12 -6 29t19 30
q15 12 32 12zM345 409l35 -214h-163z" />
    <glyph glyph-name="ae" unicode="&#xe6;" horiz-adv-x="686" 
d="M326 -1h301l13 64h-225l32 151h182l14 63h-183l29 138h221l14 63h-296h-43l-385 -479h87l105 135h162zM410 418l-46 -218h-121z" />
    <glyph glyph-name="egrave" unicode="&#xe8;" horiz-adv-x="478" 
d="M363 519h69l-59 163h-88zM117 0h302l13 63h-226l32 151h182l14 63h-182l29 138h220l14 63h-296z" />
    <glyph glyph-name="eacute" unicode="&#xe9;" horiz-adv-x="478" 
d="M413 518l148 164h-88l-129 -164h69zM117 0h302l13 63h-226l32 151h182l14 63h-182l29 138h220l14 63h-296z" />
    <glyph glyph-name="ecircumflex" unicode="&#xea;" horiz-adv-x="478" 
d="M455 519h70l-79 163h-63l-147 -163h68l98 107zM117 0h302l13 63h-226l32 151h182l14 63h-182l29 138h220l14 63h-296z" />
    <glyph glyph-name="edieresis" unicode="&#xeb;" horiz-adv-x="478" 
d="M467 520q20 0 38 15q19 16 22 35q6 20 -7 36q-12 15 -32 15q-21 0 -39 -15q-17 -14 -23 -36q-3 -21 8 -35q12 -15 33 -15zM292 520q20 0 38 15q19 16 22 35q6 20 -7 36q-12 15 -32 15q-21 0 -39 -15q-17 -14 -23 -36q-3 -21 8 -35q12 -15 33 -15zM117 0h302l13 63h-226
l32 151h182l14 63h-182l29 138h220l14 63h-296z" />
    <glyph glyph-name="igrave" unicode="&#xec;" horiz-adv-x="310" 
d="M258 519h69l-59 163h-88zM117 0h76l102 478h-76z" />
    <glyph glyph-name="iacute" unicode="&#xed;" horiz-adv-x="310" 
d="M278 518l148 164h-88l-130 -164h70zM117 0h76l102 478h-76z" />
    <glyph glyph-name="icircumflex" unicode="&#xee;" horiz-adv-x="310" 
d="M344 519h71l-80 163h-62l-147 -163h68l98 107zM117 0h76l102 478h-76z" />
    <glyph glyph-name="idieresis" unicode="&#xef;" horiz-adv-x="310" 
d="M344 522q20 0 38 15t23 35q4 21 -8 36t-32 15q-21 0 -39 -15q-17 -14 -22 -36q-5 -20 7 -35t33 -15zM194 522q20 0 38 15t23 35q4 21 -8 36t-32 15q-21 0 -39 -15q-17 -14 -22 -36q-5 -20 7 -35t33 -15zM117 0h76l102 478h-76z" />
    <glyph glyph-name="ograve" unicode="&#xf2;" horiz-adv-x="647" 
d="M410 519h69l-59 163h-88zM322 -9q55 0 110 19q56 20 95 51q41 32 72 79q29 45 41 99q12 53 1 100q-8 44 -38 78q-28 34 -73 52q-42 18 -102 18q-58 0 -111 -19q-51 -17 -95 -51q-43 -34 -72 -79q-27 -41 -40 -99q-11 -51 -2 -100q10 -45 39 -78q31 -34 73 -52
q45 -18 102 -18zM414 423q42 0 70 -14q32 -13 51 -39q20 -23 26 -58q7 -32 -2 -73q-7 -38 -30 -73q-22 -34 -51 -59q-30 -24 -67 -39q-37 -14 -76 -14q-37 0 -70 14q-30 15 -51 39q-18 23 -26 59q-6 33 2 73q9 41 30 73q25 38 51 59q27 23 67 38q35 14 76 14z" />
    <glyph glyph-name="oacute" unicode="&#xf3;" horiz-adv-x="647" 
d="M457 518l148 164h-88l-129 -164h69zM322 -9q55 0 110 19q56 20 95 51q41 32 72 79q29 45 41 99q12 53 1 100q-8 44 -38 78q-28 34 -73 52q-42 18 -102 18q-58 0 -111 -19q-51 -17 -95 -51q-43 -34 -72 -79q-27 -41 -40 -99q-11 -51 -2 -100q10 -45 39 -78q31 -34 73 -52
q45 -18 102 -18zM414 423q42 0 70 -14q32 -13 51 -39q20 -23 26 -58q7 -32 -2 -73q-7 -38 -30 -73q-22 -34 -51 -59q-30 -24 -67 -39q-37 -14 -76 -14q-37 0 -70 14q-30 15 -51 39q-18 23 -26 59q-6 33 2 73q9 41 30 73q25 38 51 59q27 23 67 38q35 14 76 14z" />
    <glyph glyph-name="ocircumflex" unicode="&#xf4;" horiz-adv-x="647" 
d="M515 519h70l-79 163h-63l-147 -163h68l98 107zM322 -9q55 0 110 19q56 20 95 51q41 32 72 79q29 45 41 99q12 53 1 100q-8 44 -38 78q-28 34 -73 52q-42 18 -102 18q-58 0 -111 -19q-51 -17 -95 -51q-43 -34 -72 -79q-27 -41 -40 -99q-11 -51 -2 -100q10 -45 39 -78
q31 -34 73 -52q45 -18 102 -18zM414 423q42 0 70 -14q32 -13 51 -39q20 -23 26 -58q7 -32 -2 -73q-7 -38 -30 -73q-22 -34 -51 -59q-30 -24 -67 -39q-37 -14 -76 -14q-37 0 -70 14q-30 15 -51 39q-18 23 -26 59q-6 33 2 73q9 41 30 73q25 38 51 59q27 23 67 38q35 14 76 14z
" />
    <glyph glyph-name="otilde" unicode="&#xf5;" horiz-adv-x="647" 
d="M568 537q21 9 33 15q13 8 31 22l-22 40q-11 -7 -33 -19q-16 -8 -23 -11q-3 -1 -9.5 -3t-9.5 -3q-6 -1 -18 -1q-7 0 -23 4q-15 7 -26 13q-6 4 -15.5 9.5t-12.5 7.5q-5 4 -17 9q-8 4 -13 4q-8 2 -13 2q-2 1 -12 1q-32 0 -65 -15q-16 -7 -28 -13q-15 -7 -40 -22l22 -44
q18 10 20 11q5 3 13 7l5 2.5t4 1.5q4 3 9 4q16 8 37 8q14 0 22 -4q10 -3 29 -15q46 -27 82 -27q31 0 73 16zM322 -9q55 0 110 19q56 20 95 51q41 32 72 79q29 45 41 99q12 53 1 100q-8 44 -38 78q-28 34 -73 52q-42 18 -102 18q-58 0 -111 -19q-51 -17 -95 -51
q-43 -34 -72 -79q-27 -41 -40 -99q-11 -51 -2 -100q10 -45 39 -78q31 -34 73 -52q45 -18 102 -18zM414 423q42 0 70 -14q32 -13 51 -39q20 -23 26 -58q7 -32 -2 -73q-7 -38 -30 -73q-22 -34 -51 -59q-30 -24 -67 -39q-37 -14 -76 -14q-37 0 -70 14q-30 15 -51 39
q-18 23 -26 59q-6 33 2 73q9 41 30 73q25 38 51 59q27 23 67 38q35 14 76 14z" />
    <glyph glyph-name="odieresis" unicode="&#xf6;" horiz-adv-x="647" 
d="M549 522q21 0 39 15q17 14 22 35q4 21 -8 36t-32 15q-21 0 -39 -15q-16 -13 -21 -36q-5 -20 7 -35t32 -15zM314 522q21 0 39 15q17 14 22 35q4 21 -8 36t-32 15q-21 0 -39 -15q-16 -13 -21 -36q-5 -20 7 -35t32 -15zM322 -9q55 0 110 19q56 20 95 51q41 32 72 79
q29 45 41 99q12 53 1 100q-8 44 -38 78q-28 34 -73 52q-42 18 -102 18q-58 0 -111 -19q-51 -17 -95 -51q-43 -34 -72 -79q-27 -41 -40 -99q-11 -51 -2 -100q10 -45 39 -78q31 -34 73 -52q45 -18 102 -18zM414 423q42 0 70 -14q32 -13 51 -39q20 -23 26 -58q7 -32 -2 -73
q-7 -38 -30 -73q-22 -34 -51 -59q-30 -24 -67 -39q-37 -14 -76 -14q-37 0 -70 14q-30 15 -51 39q-18 23 -26 59q-6 33 2 73q9 41 30 73q25 38 51 59q27 23 67 38q35 14 76 14z" />
    <glyph glyph-name="divide" unicode="&#xf7;" horiz-adv-x="550" 
d="M355 369q23 0 45 17q22 19 26 41q6 25 -9 42q-13 17 -37 17q-26 0 -46 -17q-19 -15 -25 -42q-4 -23 8 -41q14 -17 38 -17zM69 208h500l12 57h-500zM275 -11q23 0 45 17q20 17 25 42q6 24 -8 41q-11 17 -37 17t-46 -17q-20 -15 -26 -41q-4 -24 9 -42q15 -17 38 -17z" />
    <glyph glyph-name="ugrave" unicode="&#xf9;" horiz-adv-x="614" 
d="M394 519h69l-59 163h-88zM448 22q43 23 67 62q23 37 39 111l61 283h-75l-63 -296q-27 -132 -159 -132q-130 0 -103 132l63 296h-75l-61 -283q-15 -71 -7 -111q9 -40 40 -62q25 -16 59 -26q40 -10 70 -10q31 0 74 10q39 11 70 26z" />
    <glyph glyph-name="uacute" unicode="&#xfa;" horiz-adv-x="614" 
d="M442 518l148 164h-88l-129 -164h69zM448 22q43 23 67 62q23 37 39 111l61 283h-75l-63 -296q-27 -132 -159 -132q-130 0 -103 132l63 296h-75l-61 -283q-15 -71 -7 -111q9 -40 40 -62q25 -16 59 -26q40 -10 70 -10q31 0 74 10q39 11 70 26z" />
    <glyph glyph-name="ucircumflex" unicode="&#xfb;" horiz-adv-x="614" 
d="M497 519h70l-80 163h-62l-147 -163h68l98 107zM448 22q43 23 67 62q23 37 39 111l61 283h-75l-63 -296q-27 -132 -159 -132q-130 0 -103 132l63 296h-75l-61 -283q-15 -71 -7 -111q9 -40 40 -62q25 -16 59 -26q40 -10 70 -10q31 0 74 10q39 11 70 26z" />
    <glyph glyph-name="udieresis" unicode="&#xfc;" horiz-adv-x="614" 
d="M506 521q21 0 39 15t21 35q6 20 -7 36q-12 15 -32 15q-21 0 -39 -15q-15 -13 -22 -36q-3 -21 8 -35q12 -15 32 -15zM328 521q21 0 39 15t21 35q6 20 -7 36q-12 15 -32 15q-21 0 -39 -15q-15 -13 -22 -36q-3 -21 8 -35q12 -15 32 -15zM448 22q43 23 67 62q23 37 39 111
l61 283h-75l-63 -296q-27 -132 -159 -132q-130 0 -103 132l63 296h-75l-61 -283q-15 -71 -7 -111q9 -40 40 -62q25 -16 59 -26q40 -10 70 -10q31 0 74 10q39 11 70 26z" />
    <glyph glyph-name="ydieresis" unicode="&#xff;" horiz-adv-x="478" 
d="M442 523q21 0 39 15q19 14 22 35q4 21 -8 36t-31 15q-20 0 -40 -15q-17 -14 -22 -36q-3 -21 8 -35q12 -15 32 -15zM267 523q21 0 39 15q19 14 22 35q4 21 -8 36t-31 15q-21 0 -40 -15q-17 -14 -22 -36q-3 -21 8 -35q12 -15 32 -15zM315 214l240 264h-88l-168 -195
l-84 195h-88l113 -264l-45 -214h75z" />
    <glyph glyph-name="Ydieresis" unicode="&#x178;" horiz-adv-x="550" 
d="M519 707q22 0 40 15q19 15 22 36q4 20 -8 35t-32 15q-19 0 -39 -15q-18 -15 -22 -35q-3 -22 8 -36q12 -15 31 -15zM317 707q22 0 40 15q19 15 22 36q4 20 -8 35t-32 15q-21 0 -39 -15t-22 -35q-3 -22 7 -36q12 -15 32 -15zM375 308l307 352h-87l-242 -283l-117 283h-88
l144 -358l-64 -302h82z" />
    <glyph glyph-name="tilde" unicode="&#x2dc;" horiz-adv-x="454" 
d="M464 538q21 9 33 15q13 8 31 22l-22 40q-11 -7 -33 -19q-16 -8 -23 -11q-3 -1 -9.5 -3t-9.5 -3q-6 -1 -18 -1q-7 0 -23 4q-10 4 -26 13q-22 14 -28 17q-7 5 -17 9q-8 4 -12 4q-8 2 -14 2q-2 1 -12 1q-32 0 -65 -15q-16 -7 -28 -13q-15 -7 -40 -22l23 -44q13 8 20 11
q6 3 12 7l5 2.5t4 1.5q3 2 9 4q16 8 37 8q14 0 22 -4q9 -3 30 -15q45 -27 81 -27q31 0 73 16z" />
    <glyph glyph-name="hungarumlaut" unicode="&#x2dd;" horiz-adv-x="383" 
d="M358 497l147 163h-88l-128 -163h69zM221 497l147 163h-88l-129 -163h70z" />
    <glyph glyph-name="endash" unicode="&#x2013;" horiz-adv-x="550" 
d="M69 208h500l12 57h-500z" />
    <glyph glyph-name="quoteleft" unicode="&#x2018;" horiz-adv-x="252" 
d="M221 415q14 0 30 4q19 6 32 14l-20 107q1 3 3.5 9t3.5 8l7 14q4 7 7 14q1 2 3 5.5t3.5 6.5t2.5 6q4 6 7 11.5l6 11t4 7.5q1 1 17 27h-44l-18 -25q-33 -43 -44 -60q-10 -14 -25 -44q-13 -27 -19 -52q-14 -64 44 -64z" />
    <glyph glyph-name="quoteright" unicode="&#x2019;" horiz-adv-x="252" 
d="M286 556q8 13 13 27q4 9 6 25q15 64 -43 64q-18 0 -31 -4q-15 -3 -31 -14l20 -107q-3 -8 -8 -17q-2 -4 -6 -14l-7 -14l-9 -18q-2 -4 -17 -30q-2 -2 -7.5 -11t-9.5 -16h44l18 25q14 19 43 59q13 20 25 45z" />
    <glyph glyph-name="quotesinglbase" unicode="&#x201a;" horiz-adv-x="252" 
d="M164 -17q8 13 13 27q1 3 7 26q13 64 -44 64q-18 0 -30 -4q-16 -4 -32 -14l20 -108q-3 -8 -8 -17q-2 -4 -6 -14l-7 -14q-2 -2 -4.5 -7.5t-4.5 -9.5q-3 -5 -9 -16t-8 -15q-7 -12 -17 -26h44l18 24q6 9 43 60q15 22 25 44z" />
    <glyph glyph-name="quotedblleft" unicode="&#x201c;" horiz-adv-x="437" 
d="M405 416q3 0 8 0.5t7 0.5t6 0.5t6 1.5t4 1.5t5.5 1.5t5.5 2q9 3 21 9l-21 107q12 28 14 32t6 13t7 14q8 13 11 20q1 3 9 13q2 2 5 7t4 6q2 3 6.5 7.5t6.5 7.5h-51q-39 -48 -69 -98q-28 -51 -35 -82q-14 -64 44 -64zM221 416q3 0 8 0.5t7 0.5t6 0.5t6 1.5l15 5q9 3 21 9
l-21 107q12 28 14 32t6 13t7 14q4 7 7.5 13.5t7 12t4.5 7.5t23 28h-51q-47 -57 -70 -98q-26 -45 -34 -82q-14 -64 44 -64z" />
    <glyph glyph-name="quotedblright" unicode="&#x201d;" horiz-adv-x="437" 
d="M386 428q41 48 70 98q29 51 34 82q15 64 -43 64q-10 0 -15 -1q-8 0 -13 -2l-15 -5q-6 -2 -20 -9l21 -107q-3 -6 -7.5 -17t-6.5 -15q-4 -10 -13 -27q-10 -17 -11 -19q-2 -2 -4.5 -7l-3.5 -7q-1 -1 -10 -13q-2 -2 -6 -7t-7 -8h50zM202 428q44 51 70 98q29 51 34 82
q15 64 -43 64q-10 0 -14 -1q-8 0 -13 -2l-15 -5q-3 -1 -21 -9l21 -107q-7 -17 -14 -32q-1 -2 -5.5 -11.5t-7.5 -15.5q-4 -8 -12 -20q-7 -12 -8 -13q-2 -5 -9 -13q-6 -8 -13 -15h50z" />
    <glyph glyph-name="quotedblbase" unicode="&#x201e;" horiz-adv-x="437" 
d="M264 -144q41 48 70 98q29 51 34 81q15 65 -43 65q-10 0 -15 -1q-8 0 -13 -2q-4 -1 -14 -6l-21 -9l22 -107q-12 -26 -15 -32q-4 -10 -13 -27q-4 -7 -10 -19q-3 -7 -9 -13q-6 -8 -10 -13q-2 -2 -6 -7t-7 -8h50zM80 -144q43 49 70 97q29 51 34 82q15 65 -43 65q-10 0 -14 -1
q-8 0 -13 -2q-4 -1 -14 -6q-2 -1 -9 -4t-13 -5l22 -107q-2 -5 -7 -16t-7 -15q-1 -3 -3 -7t-5.5 -10.5t-5.5 -10.5q-10 -17 -11 -19q-7 -11 -9 -14q-1 -1 -2.5 -3.5t-3 -4.5t-3.5 -4q-6 -8 -13 -15h50z" />
    <glyph glyph-name="perthousand" unicode="&#x2030;" horiz-adv-x="1234" 
d="M277 320q35 0 71 14q40 17 64 37q27 22 50 56q21 33 27 68q9 35 1 68q-6 31 -26 56q-19 25 -47 38q-27 14 -65 14q-37 0 -71 -14q-32 -13 -64 -38q-31 -26 -50 -56q-18 -26 -28 -68q-6 -35 0 -68q7 -31 26 -56q19 -23 47 -38q29 -13 65 -13zM163 -44l728 736h-69
l-728 -736h69zM1022 -13q35 0 71 14q37 16 64 38q26 21 49 55q23 35 28 68q9 35 1 68q-6 31 -26 56q-19 25 -47 38q-25 13 -65 13q-37 0 -71 -14q-35 -14 -64 -37q-31 -26 -50 -56q-18 -26 -28 -68q-6 -35 0 -68q8 -33 25 -56q17 -21 48 -37q31 -14 65 -14zM638 -13
q35 0 71 14q37 16 64 38q26 21 49 55q23 35 28 68q9 35 1 68q-6 31 -26 56q-19 25 -47 38q-25 13 -65 13q-37 0 -71 -14q-35 -14 -64 -37q-31 -26 -50 -56q-18 -26 -28 -68q-6 -35 0 -68q8 -33 25 -56q17 -21 48 -37q31 -14 65 -14zM339 610q25 0 43 -9q19 -9 31 -25
q12 -15 17 -37q5 -19 -1 -44q-5 -25 -19 -45q-14 -22 -32 -37q-19 -16 -41 -24q-23 -9 -47 -9t-43 9q-15 8 -31 25q-11 15 -17 36q-4 19 1 45q6 25 19 45q16 23 32 36q18 16 42 25t46 9zM1084 277q25 0 43 -9q19 -9 31 -25q12 -14 17 -36q5 -19 -1 -45q-4 -24 -18 -45
q-10 -18 -33 -36q-21 -16 -42 -24q-23 -9 -46 -9t-43 9q-18 9 -31 25q-11 15 -17 36q-4 21 0 44q5 21 19 45q14 22 32 37q16 14 42 24q24 9 47 9zM700 277q25 0 43 -9q18 -8 30 -25q13 -16 17 -36q5 -19 -1 -45q-5 -24 -18 -45q-10 -17 -32 -36q-18 -15 -42 -24
q-23 -9 -46 -9t-43 9q-18 9 -31 25q-11 15 -17 36q-4 21 0 44q5 21 19 45q14 22 32 37q16 14 42 24q24 9 47 9z" />
    <glyph glyph-name="guilsinglleft" unicode="&#x2039;" horiz-adv-x="321" 
d="M88 226l186 -188l17 81l-109 107l155 107l17 82z" />
    <glyph glyph-name="guilsinglright" unicode="&#x203a;" horiz-adv-x="321" 
d="M62 38l267 188l-187 189l-17 -82l110 -107l-156 -107z" />
    <glyph glyph-name="divisionslash" unicode="&#x2215;" horiz-adv-x="333" 
d="M162 110l185 220h-96l-179 -220h90z" />
    <glyph glyph-name="infinity" unicode="&#x221e;" horiz-adv-x="550" 
d="M469 -12l51 41l-155 197l239 197l-33 42l-239 -197l-155 197l-51 -42l155 -197l-239 -197l33 -42l239 197z" />
    <glyph glyph-name="controlBS" horiz-adv-x="0" 
 />
    <glyph glyph-name="controlHT" horiz-adv-x="250" 
 />
  </font>
</defs>
</svg>
