<?xml version="1.0" standalone="no"?>
<!DOCTYPE svg PUBLIC "-//W3C//DTD SVG 1.1//EN" "http://www.w3.org/Graphics/SVG/1.1/DTD/svg11.dtd" >
<svg xmlns="http://www.w3.org/2000/svg" xmlns:xlink="http://www.w3.org/1999/xlink" version="1.1">
<metadata>
Created by FontForge 20170731 at Sat Dec 12 09:21:14 2015
 By Aleksey,,,
Attribution-ShareAlike 4.0 International
</metadata>
<defs>
<font id="SolberaImitation" horiz-adv-x="1312" >
  <font-face 
    font-family="Solbera Imitation"
    font-weight="400"
    font-stretch="normal"
    units-per-em="2048"
    panose-1="2 0 5 0 0 0 0 0 0 0"
    ascent="1638"
    descent="-410"
    x-height="1434"
    cap-height="1495"
    bbox="-17 -431 1944 1827"
    underline-thickness="150"
    underline-position="-442"
    unicode-range="U+001D-007A"
  />
<missing-glyph horiz-adv-x="1024" 
d="M100 0v1434h824v-1434h-824zM150 50h724v1334h-724v-1334zM325 1148q31 28 58 43q53 30 112 30q92 0 148 -47.5t56 -127.5q0 -49 -23 -98.5t-87 -129.5q-63 -80 -99 -132t-36 -99q0 -38 24 -133h-32q-35 97 -35 148q0 76 81.5 218t81.5 217q0 57 -33 90t-91 33
q-38 0 -69 -17q-26 -15 -56 -40v45zM389 334l57 58q11 10 20 10q10 0 22 -11l56 -60q9 -11 9 -20q0 -11 -10 -22l-56 -62q-14 -14 -21 -14q-11 0 -20 10l-61 71q-7 9 -7 18q0 10 11 22z" />
    <glyph glyph-name=".notdef" horiz-adv-x="1024" 
d="M100 0v1434h824v-1434h-824zM150 50h724v1334h-724v-1334zM325 1148q31 28 58 43q53 30 112 30q92 0 148 -47.5t56 -127.5q0 -49 -23 -98.5t-87 -129.5q-63 -80 -99 -132t-36 -99q0 -38 24 -133h-32q-35 97 -35 148q0 76 81.5 218t81.5 217q0 57 -33 90t-91 33
q-38 0 -69 -17q-26 -15 -56 -40v45zM389 334l57 58q11 10 20 10q10 0 22 -11l56 -60q9 -11 9 -20q0 -11 -10 -22l-56 -62q-14 -14 -21 -14q-11 0 -20 10l-61 71q-7 9 -7 18q0 10 11 22z" />
    <glyph glyph-name=".null" horiz-adv-x="0" 
 />
    <glyph glyph-name=".null" horiz-adv-x="0" 
 />
    <glyph glyph-name="nonmarkingreturn" horiz-adv-x="508" 
 />
    <glyph glyph-name="space" unicode=" " horiz-adv-x="508" 
 />
    <glyph glyph-name="space" unicode="&#xa0;" horiz-adv-x="508" 
 />
    <glyph glyph-name="A" unicode="A" horiz-adv-x="1217" 
d="M412 1377q5 1 15 2l14 1h49q17 -1 50 -4q104 -26 163 -95q81 -113 81 -195v-346q0 -13 -13 -13h-210v-20h232q6 150 6 323v70q0 90 -89 211q-90 74 -203 74l-56 1l-14 -1l-13 -1l-14 -2l-5 -1l-4 -1q-87 -16 -120 -44q-37 -44 -37 -74q0 -66 64 -94q7 -4 21 -4h18
q51 0 70 72l-2 9q6 2 6 4q10 0 24 -48q2 -19 2 -29q0 -80 -100 -117q-4 0 -13 -4q-141 0 -172 85q-12 12 -18 74q0 75 70 135q62 38 133 57q94 23 155 23q159 0 275 -117q97 -85 274 -125q28 -4 44 -4l2 -4v-5q-3 -5 -37 -13q-68 -32 -103 -126q-37 -101 -37 -255
q0 -3 1 -66l4 -2h8q111 0 184 63q19 0 19 -21q0 -33 -89 -68q-43 -13 -120 -22l-6 -224q0 -157 69 -229q29 -26 76 -26l7 2q9 -2 9 -5v-6q-2 -3 -50 -16q-160 -81 -160 -316q0 -4 -4 -4h-4q-49 36 -76 332q4 378 4 483q-30 1 -234 5v-16q32 -2 188 -6q10 2 15 2q10 0 11 -19
v-441q0 -392 172 -477v2q-45 89 -45 146v7q0 102 95 182q51 33 96 33q47 0 79 -72v-15q0 -59 -70 -85h-8q-61 9 -61 59q0 31 45 46q13 0 37 -35v-5q0 -10 -6 -11h-3q-4 0 -6 18q-14 18 -24 18q-28 -8 -28 -25v-13q0 -30 39 -37h20q52 22 52 74q0 46 -59 68h-20
q-60 0 -122 -74q-43 -66 -43 -127q0 -85 58 -167v-3q0 -4 -4 -4q-76 23 -118 91q-34 48 -56 120q-35 143 -35 247v482l-199 6v-747q16 -13 16 -24q-3 -25 -26 -25q-24 6 -24 24q0 14 19 24v1178h-4q-33 -42 -33 -133v-157q0 -151 2 -403q0 -180 -50 -360l-22 -46h-4
q-3 0 -6 6q0 139 -73 247q-47 62 -130 85q-33 1 -33 7v4q0 7 55 13q66 22 93 65q27 51 27 90q15 41 15 144v35q-31 4 -37 4q-44 0 -61 -33q-22 -83 -83 -83l-2 3v26q-7 37 -37 37h-11q-62 -16 -62 -50v-9q0 -19 29 -52v-3q0 -3 -7 -6q-31 5 -59 32q-17 27 -17 49
q0 99 91 128q65 17 151 17q68 -2 103 -6v2q0 113 -13 214q0 124 146 179q3 0 32 8v66q-17 15 -17 28q6 24 24 24q26 -6 26 -24q0 -14 -18 -28v-434h208q2 224 2 286q0 109 -24 152q-79 188 -275 188q-131 0 -179 -74q-9 -20 -9 -37q0 -60 57 -60q46 12 46 40q0 22 -17 24h-2
q-6 0 -29 -11q-4 0 -4 4v3q0 9 35 19q23 0 32 -41q0 -24 -45 -48q-25 -5 -29 -5q-36 10 -52 37l-7 38q0 50 64 93q26 15 82 28z" />
    <glyph glyph-name="B" unicode="B" horiz-adv-x="1210" 
d="M742 1441q129 0 206 -106q48 -83 48 -161q0 -68 -43 -169q-38 -63 -87 -87q-27 -11 -29 -14q257 -132 257 -378q0 -265 -197 -392q-66 -34 -116 -34h-11q-101 0 -171 74h-3v-256q13 -11 14 -20q0 -21 -24 -23q-19 5 -19 23q5 19 16 19v286q0 10 -2 10l2 16v923
q-14 13 -14 24q8 21 22 21q17 0 21 -25q0 -12 -16 -19v-190q29 -9 53 -9h24q65 0 116 90q27 62 27 159q0 52 -37 122q-31 34 -66 50l-11 2h-2q-45 0 -62 -50v-18q9 -30 33 -30h10q16 0 16 38l3 2h4q1 0 4 -5q0 -48 -32 -48q-51 10 -51 51q0 39 46 64q14 7 28 7q36 0 90 -58
q22 -34 37 -103q1 -8 1 -16v-13q0 -201 -125 -251q-18 -6 -42 -6q-22 0 -64 10v-34q26 -3 53 -3q177 0 207 176q5 25 5 50v13q0 88 -24 134q-22 76 -92 112q-16 7 -22 7h-16q-76 0 -138 -90q-18 -48 -26 -95q1 -116 1 -184v-32q0 -264 -1 -670q0 -125 -47 -265
q-16 -43 -54 -81h-4q-3 0 -3 3v2q15 56 15 101v16q0 185 -193 250l-4 4v4q0 3 36 9q59 28 91 105q44 97 44 279q0 67 -3 100q-35 2 -52 2h-9q-80 -15 -90 -21q-36 0 -97 56v3l3 5l16 -1h8q44 6 44 51q13 78 40 85q0 3 18 7q52 0 77 -68q4 -24 5 -24q-2 -8 -5 -8h-2
q-21 10 -25 10h-4q-18 0 -21 -18v-19q4 -15 8 -15h81v48q0 96 -79 185q-31 28 -66 28q-32 0 -72 -24h-2q-3 0 -3 3v1q0 24 55 60q37 14 101 14q38 8 87 60q47 60 119 112q48 44 128 44q18 1 58 3zM596 878v-43h2q35 6 53 6h6q2 0 2 2l3 -2h6q86 0 145 -91q74 -84 74 -245
v-61q0 -149 -85 -188q-22 -10 -42 -10h-8q-43 0 -77 39q-47 48 -47 87v9q0 76 97 90h4q45 0 70 -49q4 -17 4 -24q-11 -70 -59 -70h-2q-31 0 -48 34q7 44 34 44q13 -4 13 -7v-3q0 -3 -4 -3h-16q-14 -9 -14 -26v-6q15 -21 34 -21q36 0 49 45v16q0 51 -64 59q-58 0 -83 -54
l-4 -42q7 -32 41 -69q33 -37 75 -37q82 0 113 101q6 25 6 64v65q0 155 -39 209q-22 48 -90 110q-31 23 -85 23q-30 0 -64 -8v-601q0 -13 67 -49q42 -19 73 -19h9q56 0 127 89q26 28 39 111q10 78 10 109v1q0 147 -34 230q-17 83 -71 140q-67 47 -108 47h-32q-24 0 -80 -2z
M167 857h3l22 -32q31 -24 61 -24h20q35 0 96 26q3 0 5 -7q2 -155 2 -213q0 -14 -2 -49q2 -3 2 -5q-29 -92 -108 -147l-71 -39q158 -71 211 -191q14 -42 14 -68q0 -81 -78 -145q-26 -8 -42 -8q-62 0 -122 68q-21 40 -21 74q0 52 49 87q8 3 23 6q74 -16 74 -69q0 -39 -40 -58
q-3 -2 -7 -2q-19 0 -30 46q2 6 5 6h3q3 -1 9 -27q7 -12 15 -12h2q23 0 32 47q-11 56 -63 56h-3q-40 0 -57 -70v-21q0 -75 100 -115q15 -3 24 -3h15q59 0 95 100q4 19 4 43q0 116 -164 221q-52 25 -67 29q-78 -12 -89 -17h-1q-56 0 -56 25q-2 0 -2 1q0 26 43 31h12
q20 0 93 -26q103 33 157 114q28 49 28 64q0 2 -2 2l2 8v164q0 26 -2 84h-1q-58 -23 -95 -23q-73 0 -102 65v1q1 3 4 3zM43 375v-6q6 -12 32 -12h6q10 0 71 12v3q-48 17 -77 17q-24 0 -32 -14z" />
    <glyph glyph-name="C" unicode="C" horiz-adv-x="1086" 
d="M581 1432h3q3 0 28 -63q93 -180 229 -228q29 -13 44 -13q67 0 88 77v5q0 63 -58 73h-14q-45 -8 -45 -43v-9q0 -21 30 -24h2q11 0 14 5q3 -2 5 -2v-5q-7 -8 -21 -8q-39 3 -39 40t38 52q14 3 20 3h5q50 -11 50 -22q11 0 24 -55q-9 -45 -31 -70q-35 -26 -70 -26
q-69 9 -162 85q-73 72 -82 99q-55 85 -62 125v1q1 3 4 3zM541 1424q157 -329 334 -329q72 0 142 57h3q3 -1 3 -3v-4q0 -16 -66 -75q-63 -49 -140 -49q-185 0 -424 255q-47 -36 -68 -82q-44 -95 -44 -131q-27 -106 -27 -250v-101q0 -268 32 -355q84 -295 282 -295l1 4v9
q-2 2 -42 16q-93 49 -156 211q-29 68 -60 210q-16 71 -16 176q9 318 25 371q10 65 35 107q26 36 54 36q42 -10 42 -41q0 -23 -36 -47h-5q-3 0 -3 3v3q32 23 32 40v6q-8 24 -29 24h-12q-28 -19 -29 -24q-58 -95 -58 -333h2q-7 -42 -7 -124v-38q0 -216 109 -445
q27 -51 77 -102q53 -36 76 -36l1 3v728q-14 0 -17 22q5 19 22 19q21 -5 21 -20q0 -10 -16 -22v-729q0 -3 3 -3q114 0 153 82q13 39 13 58v11q0 45 -51 63h-12q-9 0 -16 -23v-6q0 -16 12 -23h16q2 0 11 11h5v-7q-8 -15 -24 -15q-27 0 -31 38v3q12 33 34 33q21 0 52 -33
q15 -25 15 -52q0 -34 -29 -86q-50 -63 -143 -63h-5q-3 -1 -3 -4v-99q17 -11 17 -24q0 -16 -22 -20q-20 6 -20 20q0 10 15 23v50q0 3 -3 3q-125 0 -244 84q-76 67 -98 105q-50 76 -79 174q-39 146 -39 290q0 124 19 206q43 228 148 360q18 34 106 110q70 53 162 69zM726 401
h9q55 0 115 -58q30 -39 30 -82q0 -121 -139 -205q-45 -30 -113 -30h-3q-12 0 -13 5v3q4 4 36 16q134 67 134 153q0 15 2 20q0 82 -46 111q-18 17 -47 17q-28 0 -57 -21q-3 2 -5 2v3q0 23 59 58q22 8 38 8z" />
    <glyph glyph-name="D" unicode="D" horiz-adv-x="1184" 
d="M563 1555q23 -8 23 -27q0 -4 -18 -26v-96q73 25 112 25h14q176 0 301 -266q78 -184 78 -434v-19q0 -494 -338 -680q-65 -32 -91 -32q-51 168 -164 243q-94 70 -153 70q-83 0 -113 -60q-11 -25 -11 -51v-4q0 -63 78 -86q13 -2 22 -2q58 0 83 74q6 21 11 21h3
q25 -33 25 -69v-10q0 -34 -32 -78l-43 -25q-15 -5 -44 -9q-53 0 -108 50q-46 47 -46 108v3q0 68 43 110q29 45 132 80q45 25 68 67q9 27 12 48q-2 55 -2 87v189q0 4 -3 4h-11q-39 0 -67 -84q-24 -40 -62 -53h-4q-1 0 -5 6q12 19 12 30v10q0 23 -44 32h-14q-58 -9 -58 -42
q-2 0 -2 -11v-12q0 -34 23 -57v-3q0 -4 -4 -4q-34 0 -62 51q-5 15 -5 27v11q19 131 99 131h13v1q-9 28 -9 46q0 42 48 69h5q3 0 3 -3q-12 -29 -12 -37v-14q7 -27 35 -27h9q16 0 18 23v12q0 2 -4 20q1 3 4 3q41 -8 41 -37q19 -48 48 -48h3q9 0 11 6v195q0 53 -62 136
q-23 44 -73 44q-31 0 -87 -25q-1 0 -5 6q0 46 51 72q23 7 46 9q23 -3 34 -3q63 0 158 62q31 26 51 46q0 -2 2 -2q3 -397 3 -648q0 -62 -3 -261q0 -53 49 -115q179 -154 202 -170q7 -3 14 -3h4q26 3 78 113q16 37 32 96q0 5 -2 5q9 82 9 237v59q0 302 -20 354q-8 71 -63 186
q-29 59 -92 113q-78 59 -153 59h-16v-27q127 0 220 -147q51 -103 51 -138q14 -44 27 -168q14 -80 14 -241q0 -39 -4 -170l2 -18q0 -111 -67 -248q-13 -17 -14 -17h-4q-65 67 -131 99q-63 37 -106 127q-4 10 -5 25q0 41 53 62q11 4 14 4q51 -10 51 -45q0 -25 -33 -25h-4
q-9 0 -11 6v3q0 6 32 7l2 4v9q-4 26 -35 26h-6q-49 -14 -49 -46v-10q0 -35 79 -122q86 -45 147 -105h4q19 25 41 85q28 91 28 161q0 10 -2 16q4 65 4 177q0 182 -21 298q0 73 -50 205q-60 124 -158 160q-34 12 -65 12h-4v-703q16 -16 16 -25q0 -17 -23 -25q-25 6 -25 25
q0 11 18 25v823h-2q-29 -61 -79 -109q-63 -57 -128 -68q-127 -9 -127 -16q-64 -24 -64 -78v-17q0 -10 2 -30l-4 -2h-3q-7 0 -9 39q0 75 79 103q17 8 124 14q99 25 149 90q62 92 62 124v5q-16 13 -16 23v4q0 18 25 23zM294 292q118 0 161 -62q120 -121 135 -159
q15 -26 23 -60q-3 -9 -6 -9h-3q-4 4 -13 39q-14 45 -133 172q-52 61 -118 61q0 4 -48 4h-2q-48 -9 -48 -81v-2q0 -32 54 -48h14q27 0 35 30v12q0 16 -12 22h-7q-9 0 -27 -2l-2 4v3q0 7 27 9q35 0 35 -46q-15 -46 -53 -46h-3q-48 0 -73 56l-2 9q16 84 37 84q0 5 29 10z" />
    <glyph glyph-name="E" unicode="E" horiz-adv-x="1595" 
d="M530 1543q18 0 22 -25q0 -8 -12 -21v-60h746q10 0 12 -9q-1 -6 -47 -30q-68 -48 -178 -137h-6q-44 48 -93 71q-3 0 -9 3q-152 2 -226 2q-88 0 -109 -27q-54 -35 -90 -127v-23h2q78 152 162 152q16 -3 23 -3h208q60 0 118 -74q14 -29 16 -29h2q154 152 199 171q14 6 23 6
l2 -4v-3l-46 -25q-41 -26 -182 -164q-7 0 -23 40q-27 47 -98 69l-22 -2h-201q-2 0 -19 4h-7q-85 0 -157 -178v-201h155q61 16 87 51q10 17 17 42h2q66 -28 102 -112q11 -38 11 -60v-13q-2 -56 -11 -56h-3q-2 0 -18 46q-21 34 -51 42q-44 -2 -71 -2h-220v-72h4q46 53 84 53
q60 -15 60 -49q0 -28 -40 -64q-6 0 -9 -2q-35 0 -41 57q3 9 6 9h3q4 0 9 -38q8 -14 18 -14h8q32 25 32 48v4q0 27 -40 35h-15q-36 0 -79 -67v-407q97 -148 247 -200q26 -10 160 -10q163 0 200 37q76 45 144 120q25 24 62 157v21q0 94 -55 151q-13 6 -19 6h-18q-28 0 -40 -39
v-7q8 -37 37 -37h1q15 0 25 17v14q-6 11 -12 15h-4q-23 -6 -24 -6l-2 4v3q7 11 30 11q18 0 26 -35q-9 -36 -40 -36q-32 0 -48 41q-2 2 -2 12q13 55 55 55q0 2 10 2q74 0 94 -177q0 -35 -49 -155q-6 -20 -85 -90q-103 -83 -166 -91q-46 -6 -83 -6h-109q-183 0 -333 198h-2
v-41q46 -64 127 -121q109 -66 208 -66h27q196 0 347 99q54 46 84 99q62 107 62 192q0 99 -58 160q-32 25 -72 25q-85 -7 -85 -56v-2q0 -22 21 -71l-3 -1h-6q-52 0 -105 51q-22 36 -22 65q0 83 71 125q55 41 113 41q73 0 139 -62q90 -104 90 -284q0 -134 -67 -213
q-47 -72 -139 -134q-94 -56 -196 -92q-97 -25 -100 -35q0 -2 -34 -34h-3q-49 52 -62 52q-182 37 -295 130q0 2 -38 39h-4v-273q16 -14 16 -25q-6 -23 -23 -23q-18 0 -23 25q0 9 16 23v1579q-19 9 -19 21q0 16 23 25zM492 1483h4q5 -1 5 -14v-1158q0 -207 -95 -319h-3
q-4 0 -4 5q11 42 11 88v32q0 169 -159 255q-25 9 -25 13v3q3 4 36 13q63 35 102 167q24 118 24 162h-1l1 4q6 83 6 136v51q0 231 -81 319q-14 9 -14 10v4q58 39 112 90q63 67 76 116q0 23 5 23zM254 1227q82 0 97 -262l4 -115q0 -264 -34 -315q-37 -82 -118 -127l-51 -27
q163 -63 212 -171q26 -60 26 -109q-2 -9 -5 -9h-4q-4 0 -10 67q-41 119 -129 166q-76 44 -116 49q-70 -16 -106 -16q-30 0 -37 27q0 21 55 21h14q6 0 77 -16q103 31 155 102q53 67 53 219q4 63 4 145q0 315 -71 356q-17 5 -17 10q1 4 1 5zM-5 383q6 -11 20 -11h12q37 0 71 9
q0 5 -37 13q-66 0 -66 -11z" />
    <glyph glyph-name="F" unicode="F" horiz-adv-x="1132" 
d="M1026 1528q60 0 79 -91q-14 -52 -27 -52q-47 -42 -111 -42q-95 0 -223 102q-11 10 -11 12v4q0 3 3 3h3q127 -108 221 -108h19q62 0 106 51q8 30 8 37q-21 72 -60 72h-10q-48 0 -48 -59q4 -14 14 -20h18q12 0 24 12h2q3 -1 3 -4q0 -17 -37 -22q-28 0 -35 39q0 43 33 61
q14 5 29 5zM1215 1455q3 0 3 -3q-17 -61 -110 -152q-102 -82 -202 -101h-10q-91 0 -281 51q-78 23 -93 23v-1001q0 -13 2 -35q0 -77 -56 -201q-22 -39 -34 -48h-3q-3 0 -3 3q18 61 18 101v24q0 142 -189 239v3q60 32 110 85q30 16 45 166q9 103 9 191v59q0 245 -76 303
q-9 0 -10 5v4q60 30 148 109v5q-170 44 -219 44q-121 0 -160 -128q-2 -24 -7 -24h-3q-5 1 -5 14q0 134 153 190q74 22 148 22q7 -1 14 -1h3q53 0 230 -26h13q59 6 59 39q0 15 7 15q114 -103 234 -103h7q136 0 254 128h4zM583 1161q19 0 22 -26q0 -11 -17 -22v-349h163
q64 25 64 53l7 5h3q25 0 61 -84q7 -17 10 -48q-3 -21 -7 -32h-6q-35 46 -64 46h-231v-64h3q42 44 74 44q34 0 54 -51q0 -35 -42 -57q-4 0 -7 -2q-33 12 -33 51l3 1h3q3 -2 14 -32l8 -6h9q21 0 32 40v7q-15 35 -34 35h-15q-28 0 -69 -54v-694q12 -10 15 -20q0 -22 -25 -24
q-13 0 -21 20q0 12 17 26v1189q-14 15 -15 24q7 24 24 24zM294 1149q26 0 61 -52q32 -49 32 -228q-5 -344 -15 -344q-36 -98 -128 -146l-41 -21q0 -2 78 -49q110 -75 131 -131q9 -41 9 -59q0 -43 -22 -108q-39 -55 -103 -55q-74 0 -128 94q-5 22 -5 29q0 61 37 82
q22 17 39 17q30 0 66 -44q3 -4 6 -25q0 -31 -40 -46q-23 0 -36 34q1 3 4 3h3q15 -21 22 -23h9q18 0 25 29v10q0 30 -54 49h-10q-26 0 -54 -43q-4 -18 -4 -42v-10q0 -31 46 -72q35 -29 69 -29h10q65 0 93 59q13 55 13 81v22q0 72 -77 128q-125 93 -147 93q-84 -21 -114 -21
q-24 12 -24 24v3q18 24 76 24q34 0 64 -15h2q99 32 151 111q29 47 29 108q7 147 7 300q0 194 -46 229q-13 14 -39 25v5q0 4 5 4zM57 355q0 -7 15 -10q38 0 93 15v2q-21 8 -48 8q-53 -3 -60 -15z" />
    <glyph glyph-name="G" unicode="G" 
d="M729 1586q24 -9 24 -25q0 -10 -19 -26v-108h336q11 -1 11 -5v-4q-55 -43 -55 -160v-44l2 -19l-5 -3h-4q-88 55 -88 98q0 2 2 24q0 47 -96 64q-36 5 -72 5h-31v-416q73 -15 73 -58q-11 -79 -73 -79v-43h451q11 -1 11 -6q-100 -211 -100 -239q-35 -96 -35 -203
q0 -152 77 -198l12 -2h11q33 0 42 44v21q-6 35 -34 35h-13q-8 0 -13 -25v-8l9 -13v-1q0 -4 -3 -4h-6q-9 4 -14 24q7 42 38 42q49 -13 49 -50q2 0 2 -11q-9 -69 -64 -69q-45 0 -87 88q-19 59 -19 117v27q0 159 130 416h-444v-33h373q7 0 12 -7q-48 -94 -80 -192
q-29 -105 -29 -195q2 -42 2 -44h2q-2 -3 -2 -5q0 -112 73 -170l2 -4l-4 -7l-18 2q-35 -6 -117 -71q-87 -35 -132 -35q-62 -11 -100 -11q-224 0 -396 232q-58 74 -69 149q-11 38 -41 199q-25 80 -51 104q-21 21 -43 21l-2 3v4q42 28 49 38q42 49 53 106q45 253 86 308
q35 69 126 157q135 106 268 106h24v37h-48q-141 0 -305 -146q-73 -72 -111 -148q-69 -144 -69 -259v-17q-4 -53 -48 -115q-36 -32 -67 -32q-60 0 -86 69v2q0 75 66 91h11q58 -9 58 -46q0 -36 -51 -47q-19 0 -29 33q2 7 5 7h4l13 -24l9 -2h2q34 6 34 33t-45 33q-40 0 -55 -35
q-7 -16 -7 -34v-13q0 -27 45 -49q13 -4 20 -4q76 0 106 117q0 4 2 7q0 2 -2 18q0 180 137 371q187 204 380 204h12l19 -1v58q-18 15 -19 26q0 19 28 25zM386 756q0 -357 87 -510q14 -40 82 -116q70 -58 130 -73l18 1h15q153 0 250 64l2 4v4q-75 142 -75 314q7 126 7 171v33
q0 35 -18 35h-150v-462q17 -15 19 -26q0 -19 -28 -25q-24 9 -24 25q1 11 19 26v551h-9q-74 0 -97 80q-2 7 -2 17q0 75 71 95q15 3 35 3h2v416h-2q-113 0 -225 -184q-107 -141 -107 -443zM627 880v-22q13 -73 93 -73v168h-20q-73 -11 -73 -73zM734 953v-108h6q45 0 53 58v8
q0 29 -50 42h-9z" />
    <glyph glyph-name="H" unicode="H" horiz-adv-x="1401" 
d="M386 1432q154 0 407 -157q1 -2 1 -5q-45 -109 -45 -258v-3q0 -6 3 -36q0 -173 7 -332h2l-2 -3q5 -66 5 -118v-16q0 -3 1 -5q-1 -3 -1 -6v-22q0 -162 -41 -227q-70 -153 -242 -243l-7 2q-61 -20 -115 -20q-154 0 -218 160l-16 69q-1 15 -1 24q0 101 99 159q25 6 41 7
q58 0 105 -53q23 -33 23 -61v-1q0 -48 -73 -81q-18 -3 -25 -3q-26 4 -26 9v3q28 13 35 31q8 20 8 25q-11 40 -46 40q-31 -6 -44 -23q-24 -34 -24 -66q0 -114 67 -159q48 -44 111 -44h1q103 0 219 131q53 66 62 119q10 60 10 94v30q0 140 -93 242v3q85 97 85 204
q0 270 -59 393l1 3v3q-8 31 -66 103q-52 48 -127 48h-16q-94 -5 -108 -16q-61 -28 -82 -78q-5 -9 -5 -20v-7q0 -33 28 -42h4q9 0 20 17v16q1 3 3 3h5q33 -22 33 -57q0 -48 -39 -65q-18 -5 -23 -5q-50 6 -65 18q-33 28 -33 69q0 2 1 14l-1 3q5 53 40 100q38 52 137 79
q23 6 79 11zM391 1370q73 0 131 -90q102 -110 102 -402q0 -107 -78 -221q-16 -16 -16 -19q26 -18 45 -53q59 -83 59 -248q0 -119 -53 -170q-124 -132 -200 -132q-59 0 -142 98q-29 46 -29 85v4q0 54 45 76l9 2q30 -5 30 -31q-1 -15 -6 -15h-3q-2 0 -2 2q0 3 1 18
q-4 14 -19 14h-4q-28 0 -39 -55v-25q0 -66 101 -142q26 -20 60 -20q72 0 195 131q35 48 35 65q10 30 10 94v6q0 169 -64 250q-14 24 -42 43v3q96 116 96 229q0 224 -42 309q-15 51 -74 119q-15 33 -65 57q-19 7 -41 7h-6q-36 0 -84 -25q-3 0 -3 3v3q41 30 93 30zM1036 1208
h3q2 0 17 -42q52 -94 146 -94h1q29 0 72 10q2 -6 3 -6q0 -2 -43 -37q-71 -82 -82 -164q-11 -48 -17 -338q0 -199 57 -239q28 -26 61 -26h20q9 -1 9 -4v-3q0 -3 -42 -10q-37 -13 -56 -32q-37 -24 -65 -101q-19 -55 -19 -113q-2 -6 -4 -6h-3q-62 86 -62 321v391
q-181 -3 -229 -5v-27h201q5 -1 5 -9v-405q0 -167 62 -295q41 -60 82 -60h7v1q-42 56 -42 117q0 70 57 142q38 38 85 38q55 0 74 -42q9 -11 12 -30q0 -25 -36 -55q-22 -10 -26 -10q-35 0 -50 42q-2 2 -2 5q0 26 39 41h2q19 0 23 -28q-2 -7 -5 -7h-3q-3 0 -7 22l-4 3h-3
q-16 0 -29 -22q-1 -2 -1 -7v-4q0 -21 31 -34h3q41 0 56 49v8q0 17 -25 46q-23 11 -42 11h-18q-71 0 -112 -115q-7 -26 -7 -48v-14q0 -61 50 -115v-3q0 -3 -3 -3h-15q-115 0 -155 254q-10 65 -10 129v387h-194v-372q11 -12 11 -20q0 -12 -18 -19q-18 0 -21 21q5 18 16 18v735
q-11 8 -14 18q0 17 21 21q19 -6 19 -19q0 -9 -14 -20v-242h199v402q0 8 4 8h3q4 -1 4 -8v-410q-1 -4 -9 -4h-201v-32h229v447q0 11 4 12z" />
    <glyph glyph-name="I" unicode="I" horiz-adv-x="737" 
d="M586 1495q55 0 55 -45q0 -26 -26 -35h-2q-30 8 -30 30q2 18 7 18h3q3 -1 3 -3q-2 -12 -2 -19q0 -12 22 -14q13 6 13 16v14q0 26 -40 26h-6q-11 0 -19 -32v-763q0 -7 -4 -8h-3q-5 1 -5 8v759q0 1 -1 1q13 47 35 47zM528 1450q4 -2 4 -9v-1038q0 -186 -22 -219
q-32 -94 -107 -138q-65 -38 -137 -38v-19q9 0 15 -17q-5 -22 -21 -22q-20 6 -20 20q0 12 14 19v18q-2 3 -46 16q-77 34 -103 93q-9 29 -9 61v14q0 111 118 151q40 8 40 11v726q-12 9 -14 19q5 22 22 22q19 -7 19 -20q0 -12 -15 -19v-728q0 -3 3 -3h14q74 0 104 -106
q-9 -41 -28 -61q-31 -34 -73 -34h-20v-83q2 -6 10 -6h26q106 0 147 121q9 22 9 54q0 95 -95 158v5q31 29 41 74q18 72 18 120l-2 3q9 56 9 157q0 260 -28 314q-46 115 -136 115q-38 0 -83 -35q-21 -25 -21 -58q0 -23 13 -63l-2 -1h-3q-48 49 -48 102v3q0 85 161 136
q144 49 176 82q31 29 65 103h5zM140 188q0 -95 97 -122l17 -1v222q-16 3 -21 3q-65 0 -92 -87zM266 281v-109h3q30 35 30 54v15q0 20 -30 40h-3z" />
    <glyph glyph-name="J" unicode="J" horiz-adv-x="1040" 
d="M1025 1564q57 0 83 -70q1 -8 1 -13v-4q0 -57 -81 -96q-163 -48 -189 -61q-13 -13 -20 -42q2 -23 2 -35v-709q0 -163 -39 -270q-9 -54 -78 -138q-79 -79 -153 -103q-50 -23 -134 -23h-11q-214 0 -311 174q0 2 -2 4q2 3 2 5h5q53 -103 166 -149q68 -23 127 -23h37
q169 0 292 152q40 56 59 134q28 85 28 218v732q0 8 -1 23q0 33 28 60q20 11 195 63q68 38 68 82q-11 77 -73 77h-1q-40 0 -56 -37v-17q5 -41 27 -41q5 -3 9 -3q16 3 16 18v22q0 1 -2 1q2 6 4 6h3q6 0 6 -21v-2q-4 -36 -29 -36q-45 10 -45 62q0 46 67 60zM1003 1440q4 0 8 -7
q0 -33 -10 -33q-144 -38 -183 -56q-31 -27 -31 -64q1 -14 1 -22v-599q0 -62 1 -168q-11 -128 -37 -204q-31 -92 -87 -147q-72 -70 -141 -96q-68 -17 -114 -17q-139 0 -258 109q-76 79 -76 162q5 68 36 124q44 65 108 65l10 -2l10 2q48 0 89 -38q27 -33 27 -79
q-16 -50 -49 -69q-27 -14 -48 -14q-17 2 -17 5v5q29 22 29 37v7q-7 41 -32 41q-37 0 -59 -35q-8 -16 -8 -43v-3q0 -97 82 -171q58 -46 127 -46h55q87 0 161 67q71 110 71 247v925q0 15 24 18q309 97 311 99zM622 1414q18 0 20 -21q0 -9 -12 -19v-1024q10 -11 10 -20
q-5 -19 -19 -19q-17 0 -20 21q0 8 17 20v935q-137 -39 -180 -74q-61 -51 -61 -120q4 -34 23 -34h10q16 0 16 24l-2 3q0 4 9 8q21 0 41 -30q9 -21 9 -35q0 -42 -37 -56q-12 -4 -25 -4h-4q-72 3 -88 50q-8 20 -8 37q0 120 120 201q35 20 156 54q0 2 21 7v57q-10 0 -14 19
q5 20 18 20z" />
    <glyph glyph-name="K" unicode="K" 
d="M1070 1827q30 0 100 -29q68 -37 99 -101q23 -54 23 -95q0 -88 -94 -126q-10 -1 -11 -1q-43 0 -75 56q-5 22 -5 32q0 44 35 76h6q4 -42 31 -42h2q30 0 40 60q0 86 -63 109q-38 18 -87 18h-20q-79 0 -166 -131q-45 -70 -55 -142q-36 -179 -36 -340q-17 -397 -17 -605l1 -2
q0 -59 -29 -160q-50 -141 -173 -278q-124 -115 -276 -115h-12q-128 0 -233 133q-42 62 -42 159v13q0 112 36 161q52 78 128 78q61 0 120 -58q27 -32 27 -71v-8q0 -81 -79 -114q-21 -6 -41 -6h-9q-8 0 -9 5v2q0 3 33 21q18 24 18 46v13q0 43 -40 59q-7 3 -34 6q-27 0 -55 -38
q-25 -48 -25 -123q0 -71 25 -107q60 -131 192 -131q85 0 171 64q127 84 177 239q13 122 13 264q0 125 -85 221v4q110 116 110 256v19q0 6 -139 33h-3q-15 -3 -15 -21v-14q0 -20 18 -32h1q11 0 26 24h2q1 0 5 -5q-19 -110 -85 -110q-47 0 -47 38q-6 23 -6 77v37q0 36 -29 36
h-6q-2 0 -24 -3l-1 3v4q41 52 88 52q22 0 106 -42q75 -32 110 -32v1q2 115 2 145q0 162 -131 277v3q7 5 108 44q93 38 164 106q126 87 222 87h17q1 0 1 1zM1086 1767q7 -1 17 -1v1q52 -14 76 -47q20 -31 20 -63v-17q0 -7 -3 -9h-4q-3 0 -4 7l1 7q0 77 -65 104q-14 5 -38 5
q-80 0 -145 -66q-32 -53 -59 -126q-24 -73 -24 -167q-4 -18 -8 -131q55 5 165 56q54 37 54 67v29q0 63 -45 83q-10 2 -17 2h-2q-45 0 -72 -46q-2 -11 -2 -18v-12q0 -28 48 -39h7q20 0 20 16v26q0 2 3 2h2q5 0 7 -18q0 -28 -21 -35q-5 0 -13 -4q-65 14 -65 59q0 35 31 57
q24 22 52 22h8q46 0 65 -61q5 -17 5 -45v-2q0 -60 -65 -93q-86 -43 -111 -43q-19 -8 -63 -17l-4 6q9 213 22 260q37 126 72 174q32 40 89 64q42 13 66 13zM1156 1428q33 -14 75 -81q34 -51 34 -166v-12q0 -157 -112 -242q-76 -66 -76 -69v-5q55 -14 81 -51q79 -93 86 -170
q0 -55 68 -82q15 -1 15 -5v-5q-83 -73 -83 -183v-22q0 -44 45 -118q35 -43 83 -43q23 0 28 3q7 -1 7 -3v-4q-50 -57 -98 -57q-55 0 -104 71q-98 167 -98 301q0 11 4 46q0 93 -56 208q-22 57 -78 57q-36 0 -75 -32q-60 -40 -65 -47v-38h1q80 73 126 73q70 0 95 -136
q10 -142 35 -259q32 -122 64 -181q36 -68 128 -101q27 -6 40 -6q76 14 106 39q32 19 46 64q22 28 22 91q0 60 -14 78q-41 49 -73 49q-66 0 -91 -41q-23 -24 -23 -53v-6q0 -52 78 -70q8 -2 12 -2q41 0 47 46v6q0 53 -32 62h-6q-25 0 -33 -32l1 -13l-3 -1h-2q-5 0 -8 14
q0 23 37 41q7 1 10 1q39 0 48 -66v-8q0 -43 -41 -57q-7 -3 -17 -3h-8q-48 0 -87 51q-9 23 -9 36q0 49 70 96q17 8 52 10q42 0 92 -62q10 -18 10 -77v-9q0 -72 -52 -138q-37 -39 -123 -55q-6 -3 -14 -3q-44 0 -115 49q-55 52 -73 96q-32 68 -63 221q-15 92 -24 202
q-23 114 -86 114q-47 0 -123 -79v-461q14 -13 14 -20v-2q-4 -20 -19 -20q-17 0 -20 20v2q0 7 14 20v969q-16 11 -16 20q0 18 23 21q18 -5 18 -21v-1q0 -6 -14 -19v-342q49 0 122 77q78 105 78 178q0 64 -30 101q-11 9 -23 9h-5q-33 0 -39 -31q-2 -29 -7 -29h-2q-4 0 -4 11
q7 57 36 57q7 5 19 5q56 0 68 -119v-3q0 -68 -69 -169q-55 -74 -135 -97l-9 -1v-45q87 36 182 138q33 40 56 129q5 29 5 50v16q0 98 -110 128q-12 0 -15 6q0 5 40 17q110 42 143 110q9 16 14 60zM559 1130q100 -20 100 -25l2 -2q0 -69 -86 -209q-3 0 -31 -33q-2 0 -23 -21
q27 -33 53 -78q52 -60 52 -249v-23l1 -9q-10 -95 -33 -149q-50 -105 -97 -164q-81 -78 -188 -78h-2q-103 0 -176 130q-22 46 -23 90q0 54 36 108q16 10 30 10q28 0 36 -43q0 -23 -15 -40h-3q-4 0 -4 3v1q9 22 9 33v7q0 25 -27 29q-33 0 -49 -88q-2 -5 -2 -22
q0 -105 115 -189q30 -16 67 -16h14q108 0 184 85q96 139 110 239l7 46q-3 17 -3 29v27q0 174 -54 236q-16 34 -49 69q-41 -18 -75 -18q-12 0 -19 23v1q0 30 44 30q24 0 50 -21h3q27 17 57 59q5 0 48 85q30 75 30 106q-39 11 -91 20l-1 3v4q0 1 3 4zM426 840q0 -9 8 -12h15
q26 0 50 15q-16 17 -42 17q-22 0 -31 -15v-5z" />
    <glyph glyph-name="L" unicode="L" horiz-adv-x="1256" 
d="M529 1434q75 0 111 -80v-1q0 -3 -3 -3h-3q-34 31 -77 31h-16q-38 0 -86 -24q-102 -91 -102 -287v-874q0 -97 -87 -204h-6q-3 0 -3 4q38 102 38 176v22q-5 95 -16 116q-27 102 -117 217v5q67 66 88 146q0 9 -2 9q2 45 2 66v191q0 73 -23 108q-22 51 -103 150q0 8 47 20
q59 25 110 74q21 31 68 62q106 76 180 76zM541 1351q8 -1 15 -1v1q25 -3 62 -28q34 -33 34 -80q0 -39 -24 -81q-52 -63 -103 -82q-67 -33 -105 -136q-14 -37 -14 -56v-640q0 -10 30 -31h10q9 0 93 79q11 8 156 137q100 62 170 62q112 -11 203 -70q63 -42 99 -170
q7 -33 7 -61v-1q0 -105 -109 -163q-41 -26 -94 -26q-62 0 -118 41q-49 56 -49 98q4 58 30 103q6 6 13 11q3 -2 5 -2v-4q-26 -27 -34 -80q-3 -23 -3 -28q0 -41 50 -95q51 -33 100 -33h17q71 0 149 79q31 45 31 92v23q0 61 -55 163q-48 67 -174 100q-47 11 -68 11
q-78 0 -173 -65l-235 -209q-9 -4 -15 -4q-10 0 -33 20h-3v-22q31 -29 39 -29h9q14 0 71 53q232 205 248 214q40 21 87 21h9q191 0 265 -179q10 -35 10 -68q0 -52 -60 -124q-61 -67 -120 -67q-56 0 -109 65q-14 40 -14 67q0 52 34 96h3q4 0 8 -44q19 -45 62 -67q16 -7 23 -7
h6q81 0 96 91q2 7 2 23v7q0 75 -76 105q-22 7 -41 7q-80 0 -210 -127q-5 -7 -46 -38q-81 -73 -81 -145q0 -23 6 -30v-3q-1 -4 -12 -4h-9q-76 0 -197 90h-3v-130q11 -11 14 -19q0 -16 -23 -21q-11 0 -19 19q0 11 17 22v1073q-16 12 -17 20q0 18 22 21q13 0 20 -19
q-1 -8 -14 -21v-111q4 4 20 43q41 83 139 126q71 54 71 98q1 0 4 22v16q0 69 -77 89q-11 1 -25 1q-60 0 -86 -59q-9 -22 -9 -53q0 -47 36 -56q6 -3 16 -3h5q57 7 57 43v7q0 27 -16 35l-7 2q-10 0 -26 -15h-3q-3 0 -3 3v3q16 19 32 19q29 0 34 -43v-10q0 -42 -60 -55l-8 -1
q-43 0 -63 40q-4 16 -5 32q0 92 84 120q3 0 25 3zM81 1193h3q94 -89 109 -132q36 -76 36 -177v-8q0 -105 -39 -230q-31 -77 -88 -113q49 -46 100 -143q61 -119 61 -145q9 -35 9 -74q0 -105 -64 -219h-4q-3 0 -3 3q59 116 59 210v19q0 86 -70 203q-27 56 -69 114
q-21 23 -39 29v5q1 3 24 13q54 29 87 143q24 105 24 170v39q0 158 -102 247q0 3 -37 40v3q0 3 3 3z" />
    <glyph glyph-name="M" unicode="M" horiz-adv-x="1984" 
d="M1642 1435l7 -2q20 2 21 2q157 0 234 -110q27 -36 40 -124q-17 -110 -108 -110q-67 0 -88 63q-3 17 -3 30v2q0 1 -2 1l2 4v5q3 44 10 44h3q27 -33 48 -33h10q23 0 32 50q0 40 -38 78q-44 28 -108 28h-7q-11 0 -33 -1v-621q-3 -12 -3 -13q3 -138 51 -176h3q53 13 73 13
q67 0 98 -64q-1 -4 -1 -5h-2q-34 15 -61 15q-98 0 -163 -122q-74 -96 -149 -96h-4q-54 5 -54 15v3q111 73 111 151v720q0 107 -78 107q-80 0 -140 -95q-53 -74 -114 -229q-14 -33 -27 -80v-79q6 6 40 101q140 347 226 347q53 0 68 -83v-606q0 -18 2 -48q0 -57 -39 -131
q-26 -33 -54 -50q-67 -51 -67 -98v-5q0 -9 7 -29q0 -4 -3 -4h-4q-7 0 -13 35q0 36 46 90q-1 0 -1 1q-9 -3 -35 -3h-7q-1 0 -1 -2q-33 6 -55 29q-23 28 -23 63q0 40 20 63q29 38 64 38q75 -10 75 -58q0 -67 -58 -67h-3q-29 0 -32 35q4 28 25 28q16 0 25 -16v-5q0 -3 -4 -3h-3
q-10 11 -11 11h-12q-8 -4 -8 -16q0 -22 23 -22q45 0 45 40v21q0 30 -55 39h-17q-61 -19 -61 -85v-8q0 -57 58 -73q102 0 134 68q20 28 30 101q-1 57 -1 83v592q0 29 -34 58q-13 3 -16 3h-10q-79 0 -231 -393q-30 -81 -30 -89v-782q14 -13 14 -21v-2q-3 -23 -24 -23
q-12 0 -21 21q6 24 18 24v1262q-18 15 -18 23q5 24 23 24q22 -6 22 -20v-2q0 -11 -14 -23v-58h2q28 41 113 123q121 95 239 119q33 7 86 12zM895 1410h5q0 -5 130 -150q129 -144 129 -157v-1110q0 -9 -5 -10h-3q-5 2 -45 63q-43 61 -56 75v892q0 3 3 17q0 125 -96 176
q-33 15 -78 15q-62 0 -106 -68q-38 -74 -38 -161q1 -36 1 -53v-493q0 -264 -43 -310q-64 -130 -93 -148q-103 -98 -138 -98q-75 -25 -112 -25h-45q-83 0 -173 75q-64 90 -64 141q-3 0 -7 40q0 44 25 112q57 75 108 75h5q101 0 136 -81q5 -30 5 -42q0 -35 -35 -69
q-28 -22 -55 -22q-35 1 -35 8v4q33 37 33 58v10q0 28 -48 40h-1q-41 0 -60 -52q-3 -6 -5 -33q0 -67 55 -169q59 -53 106 -53h5q172 0 244 112q88 117 88 193q0 9 -2 23q3 266 5 340q-2 81 -2 179v120q-24 119 -88 196l-43 36v3q3 5 62 29q105 51 210 134q92 88 117 134z
M884 1197q83 -12 83 -21q48 -30 48 -100v-10q0 -70 -55 -109q-11 -7 -45 -12q-42 0 -81 47q-10 29 -10 51q0 52 68 75h7q40 0 58 -43q0 -4 2 -7q-8 -38 -22 -38q0 -5 -23 -7q-32 7 -32 27q5 1 5 3l18 -17l10 -1h2q25 0 28 30v5q-9 36 -48 36q-35 0 -60 -48v-28q0 -59 75 -72
h2q55 0 78 54q11 28 11 61q0 82 -61 103l-55 8h-5q-86 0 -116 -169v-723q0 -229 -179 -377q-120 -88 -242 -88h-20q-153 0 -249 123v3q0 3 3 3h4q94 -117 252 -117q123 0 224 71q108 63 167 219q27 75 27 144v734q11 80 36 122q41 68 95 68z" />
    <glyph glyph-name="N" unicode="N" horiz-adv-x="1629" 
d="M441 1436h4q5 -1 5 -10v-209q0 -28 25 -28q9 0 43 24h3q5 -1 5 -10v-68q0 -10 -32 -26q-42 -29 -43 -34v-914q0 -107 89 -165q13 -11 36 -14v-2q0 -13 -31 -13q0 -3 -36 -5q-84 0 -134 85q-120 143 -201 143h-14q-14 0 -27 -14q-7 2 -7 9q16 49 50 49q17 7 54 7h19
q13 0 32 -2q56 40 56 123v231q0 79 -24 97q0 3 -17 14v4q48 43 48 73v460h-20q-66 0 -138 -65q-17 -25 -17 -50q0 -34 25 -51q3 -1 10 -1q23 4 45 34h3q22 -25 22 -58q0 -57 -80 -99q-15 -3 -27 -3q-69 0 -104 90q-5 21 -5 37q0 91 138 220q112 82 194 101q32 12 51 40z
M782 1370q121 -32 185 -106q54 -63 63 -126v-1108q0 -93 82 -188q75 -66 182 -66q79 0 140 65q77 58 77 172q0 64 -73 129q-22 19 -67 19q-76 0 -92 -43q-15 -31 -15 -49v-17q0 -49 58 -77q3 -2 8 -2h4q23 2 23 23l9 5h2q2 0 5 -5v-17q0 -28 -55 -65q-24 -7 -42 -7
q-66 0 -104 39q-29 51 -29 97v5q0 122 136 172q49 14 87 14q95 0 169 -100q42 -59 42 -144q0 -92 -73 -172q-89 -107 -199 -107q-165 0 -273 126q-70 93 -99 237l2 17v7q0 96 -65 128l-1 8v846q0 31 1 75q-19 132 -34 132q-9 18 -35 18q-23 0 -74 -39q-143 -96 -173 -119
v-26h5l208 147q17 7 30 7q44 0 44 -75v-992q43 -27 60 -59q10 -18 15 -107q22 -122 80 -196q71 -81 115 -96q82 -64 172 -64h6q11 -1 11 -5v-4q-2 -5 -11 -5q-95 0 -201 77q-112 62 -168 224q-22 73 -22 150q-14 45 -48 67q-22 8 -22 12v1013q0 34 -21 46h-20q-16 0 -95 -61
q-26 -15 -138 -97v-876q17 -11 17 -27q0 -14 -22 -20q-17 0 -24 22q0 11 15 25v1022q-17 14 -17 26q8 22 26 22q12 0 22 -22q-2 -13 -17 -26v-14h3zM320 1224q9 -3 9 -12v-387q0 -36 -38 -92q-12 -12 -30 -27v-4q19 -6 46 -42q6 -8 15 -41v-240q-13 -126 -77 -126
q-32 6 -32 12v3q0 4 5 4q15 -6 26 -6h5q48 0 59 101v245q0 56 -69 90v6l25 17q32 19 49 81q2 9 2 17v361h-5q0 -5 -29 -29v-1q26 -36 26 -80v-7q0 -98 -99 -150q-26 -5 -31 -5q-56 0 -107 53l5 6q53 -45 94 -45h12q63 0 107 93q5 21 7 51q0 52 -28 80q-21 -5 -32 -5h-3
q-20 0 -28 22q0 23 29 26q10 0 40 -26h3q25 13 39 50q0 3 5 7zM218 1169v-3q0 -3 7 -7h24l8 2v3q-3 6 -18 15h-11q-10 0 -10 -10z" />
    <glyph glyph-name="O" unicode="O" horiz-adv-x="1322" 
d="M559 1471q162 0 307 -101q80 -77 144 -178q48 -62 117 -292q13 -41 23 -156q20 -82 57 -115q15 -13 54 -20v-5q0 -5 -33 -6q-37 -15 -61 -72q-17 -43 -23 -125q-17 -82 -42 -152q-76 -185 -221 -254q-6 2 -6 5v1q0 3 56 35q123 83 186 297q15 59 23 142q10 68 62 121
q12 8 16 8v3q-50 34 -69 101q-14 38 -22 139q0 48 -99 295q-39 69 -137 190q-64 71 -203 109q-58 17 -124 17h-5q-140 0 -241 -60q-81 -34 -116 -117q-9 -26 -9 -48v-23q0 -55 54 -74q9 -2 15 -2h18q10 -1 10 -5v-3q-2 -5 -10 -5h-10q-62 0 -86 64q-5 22 -5 38q0 96 104 170
q120 69 228 76q43 2 48 2zM553 1443q183 -25 183 -41q111 -74 160 -116q49 -50 104 -148q28 -42 78 -194q33 -110 33 -209q0 -51 46 -113l21 -15v-3q0 -2 -23 -10q-25 -22 -39 -101q0 -56 -50 -222q-50 -101 -89 -146q-84 -85 -134 -99q-121 -53 -205 -53h-26v-69
q17 -9 17 -20q0 -17 -25 -23q-22 8 -22 23q0 11 17 20v69h-2q-193 0 -282 73q-101 64 -134 167q-61 118 -61 218q-10 80 -10 148q14 197 25 197q7 59 77 213q93 119 141 137q58 36 99 41q29 12 74 22l73 -4v17q-41 0 -58 51v7q15 69 69 69h4q127 0 226 -190q71 -233 71 -350
q5 -38 8 -129q0 -168 -39 -389q-34 -116 -126 -195q-44 -39 -97 -45l-45 -5v-13h2q197 0 257 145q30 38 53 149q22 76 22 175v158q-16 369 -28 369q0 50 -75 204q0 31 -99 123q-50 46 -89 49q-52 13 -79 13q-116 0 -182 -34q-63 -28 -112 -108q-5 -14 -5 -24v-2
q0 -30 21 -58q-13 -18 -38 -18q-28 0 -46 43q-3 8 -3 12q0 48 31 95q82 82 126 94q79 45 185 45zM554 1265v-10q11 -40 37 -40h8v18q-17 14 -17 23q7 24 23 24q24 -8 24 -24q0 -9 -17 -23v-157q64 -34 64 -107q0 -43 -64 -74v-76h2q48 9 109 63q59 61 59 142q2 0 2 5v21
q0 49 -48 168q-62 98 -111 98h-25q-32 0 -46 -51zM691 1294q70 -78 78 -130q28 -90 28 -122v-17q-12 -84 -38 -117q-51 -72 -142 -101q-5 0 -5 -3v-562q2 -4 26 -14q40 -22 40 -70v-13q0 -44 -54 -61q-12 -1 -12 -5v-40h2q95 0 145 58q60 58 76 94q45 92 45 152
q26 168 26 319q0 265 -88 497q-27 51 -84 107q-18 18 -38 28h-5zM280 644q3 -144 3 -160q0 -6 -3 -47q12 -160 27 -188q38 -117 74 -160q47 -68 135 -68q13 -1 83 -5v7q-1 3 -51 15q-31 10 -52 46q-13 27 -13 48q0 63 58 101q31 11 58 11v562h-2q-87 0 -127 72
q-10 29 -10 56q0 104 96 141q20 5 28 5l15 -2v73q0 3 -3 3h-19q-98 0 -130 -36q-23 -10 -78 -70q-89 -142 -89 -404zM473 944v-24q0 -72 86 -98q20 -3 32 -3h8v244q0 3 -3 3h-17q-68 0 -102 -89q-4 -23 -4 -33zM612 1060v-150q51 21 51 52v10q0 66 -49 88h-2zM496 142v-23
q0 -29 42 -65q49 -16 61 -16v43q-55 12 -55 49q9 56 55 56v45h-8q-73 0 -93 -74q-2 -9 -2 -15zM612 226v-132h2q53 10 53 53v3q0 48 -24 61q-24 15 -31 15zM556 127q0 -25 41 -33h2v79h-7q-36 -6 -36 -46z" />
    <glyph glyph-name="P" unicode="P" horiz-adv-x="1235" 
d="M841 1434q212 0 282 -225q29 -110 29 -201v-24q0 -107 -31 -221q-76 -160 -111 -188q-122 -67 -186 -75q-90 -17 -136 -17h-21q-13 0 -40 2v-120q0 -153 -2 -461q17 -12 17 -24q0 -21 -28 -25q-22 6 -22 25v2q5 22 18 22q0 31 2 151q0 365 4 1051q-12 0 -19 22
q4 26 26 26h2q18 0 24 -26q0 -12 -18 -22q-2 -128 -2 -194v-331q9 0 31 -2q199 0 264 212q18 75 18 151v18q0 209 -66 317q-45 54 -89 54h-9q-63 0 -83 -78v-18q0 -32 42 -37h4q29 0 33 50q1 3 4 3h4q2 0 5 -7q-6 -59 -48 -59h-15q-27 0 -44 50v7q0 39 37 79q36 24 65 24
q62 0 112 -73q63 -116 63 -323q0 -285 -194 -366q-52 -17 -88 -17h-46q-2 -13 -2 -15q2 -3 2 -5q59 3 123 3h2q76 0 136 52q74 83 74 164q26 199 26 286q0 195 -135 315q-31 11 -48 11h-27q-92 0 -159 -67q-61 -71 -61 -223q0 -195 -5 -1054q2 -48 2 -64q0 -144 -72 -317
q-34 -70 -50 -70q-4 0 -4 4q4 45 4 71v91q0 188 -212 306l-26 13v3q6 7 56 20q79 39 116 133q35 83 35 266v5l-2 13h-85q-18 0 -22 -30v-7q0 -25 31 -35h4q18 0 33 24h4l6 -5q0 -55 -32 -109q-39 -35 -72 -35q-50 0 -86 151q-20 22 -41 22h-24q-18 -4 -20 -4l-2 4v2
q0 34 81 64q71 15 131 15q76 -2 88 -5q4 1 6 1q4 56 4 96v68q0 190 -65 264q-66 92 -131 92q-35 0 -81 -22l-3 5q46 80 105 80q8 0 42 -2q64 0 133 53q136 153 154 153q108 78 177 78q49 9 104 9zM168 348h4q4 -4 24 -47q29 -39 55 -39h16q36 0 94 51h4q3 0 8 -9
q-28 -98 -91 -149q-54 -55 -158 -90v-2q59 -8 142 -81q130 -144 130 -262q0 -43 -23 -101q-37 -50 -93 -50h-1q-31 0 -67 53q-3 17 -3 24q0 62 64 83q1 0 11 2q26 0 48 -48q0 -2 2 -5q-20 -43 -52 -43q-7 3 -7 6v4q1 3 27 11q17 13 17 24q-14 36 -33 36h-4q-48 0 -59 -66
v-11q0 -34 52 -55h15q46 0 75 49q17 46 17 83v11q0 107 -124 244q-86 79 -151 79h-18q-10 0 -15 9v4q0 5 50 16q134 45 195 137q33 53 33 68v2h-3q-49 -39 -89 -39q-66 0 -96 96v2q1 3 4 3z" />
    <glyph glyph-name="Q" unicode="Q" horiz-adv-x="1855" 
d="M901 1470q245 0 361 -148q109 -126 145 -226q62 -216 62 -280q19 -80 49 -102q8 -7 37 -13v-7q0 -5 -39 -13q-36 -22 -53 -78q-16 -53 -16 -161q-19 -133 -137 -307q18 -20 148 -111q142 -93 232 -93q66 0 87 51q4 19 4 25q0 50 -49 61h-22q-33 -5 -33 -33q0 -51 37 -51
h5q4 0 15 23h3q4 0 4 -3v-4q-6 -31 -26 -31q-51 12 -51 51v13q5 47 48 47q0 2 11 2q62 0 71 -76v-2q0 -59 -71 -82q-15 -4 -31 -4h-11q-120 0 -386 210q0 4 -2 4q10 20 37 58q104 159 104 301q0 140 70 196q10 7 14 7v4q-39 28 -56 98q-10 40 -19 115q-53 222 -93 272
q-45 80 -142 179q-109 94 -300 94h-14q-61 0 -105 -19v-3q35 3 75 3h6q192 0 285 -71q127 -72 199 -268q23 -57 23 -104q25 -201 66 -258q3 -14 33 -42v-4q-24 -11 -29 -16q-28 -24 -46 -205q-6 -78 -82 -252q-11 -27 -58 -89v-4q166 -104 253 -171q107 -55 190 -55h2
q81 0 104 64q13 34 13 78l4 2h3q28 0 55 -119q2 -28 2 -58v-9q0 -89 -95 -119q-14 -5 -55 -9q-115 0 -268 121q-36 43 -124 126q-80 70 -132 104q-162 -136 -367 -136h-2v-74q13 -14 13 -26q0 -18 -26 -24q-23 9 -23 28q0 10 22 25v64h-2q-173 -86 -205 -86
q-110 -33 -206 -33h-24q-244 1 -318 158q-16 49 -16 85q0 106 111 203q61 33 114 53v2q-39 123 -39 235q-7 56 -29 97q-22 27 -38 35q-2 0 -2 2v3q0 5 18 8q59 54 59 144q24 180 74 263q50 109 123 184q87 65 171 101q52 22 132 40q55 40 148 40zM707 1322q0 -124 103 -124
h5q14 0 15 6v74q-17 13 -17 24q6 26 24 26q26 -6 26 -26q0 -11 -19 -25v-68q54 21 79 68q7 16 13 47h5q3 0 6 -9q0 -58 -79 -110q-24 -10 -24 -14v-873q120 -33 208 -75q93 -49 95 -49q28 40 64 191q20 84 20 220q0 380 -25 456q-51 170 -154 278q-55 54 -160 54h-33
q-137 -3 -137 -16q-15 -29 -15 -55zM428 763v-62q0 -164 27 -348h2q59 3 86 3h11q120 0 276 -33v860h-8q-86 0 -118 68q-11 46 -11 58q0 28 12 64h-1q-33 -2 -99 -62q-177 -198 -177 -548zM470 298v-2q0 -7 7 -13q15 3 44 6q253 -26 309 -53v23q-31 16 -161 35q-79 7 -124 7
q-19 0 -75 -3zM479 270v-1q10 -53 80 -174q74 -102 236 -102h35v224q-23 27 -232 50l-79 7q-19 0 -40 -4zM844 256v-263h2q99 0 214 80q42 36 58 64v2q-91 60 -268 119q-4 -2 -6 -2zM189 62v-9q0 -86 155 -150q42 -14 98 -14h19q106 0 244 51v2q-141 25 -231 93
q-114 98 -141 162q-7 11 -9 11q-50 -21 -93 -82q-15 -26 -15 -46v-9q0 -82 142 -128v-5q0 -4 -5 -4q-100 28 -135 84q-16 33 -17 57q0 68 115 148q-7 25 -12 25q-71 -33 -106 -120q-9 -28 -9 -66z" />
    <glyph glyph-name="R" unicode="R" horiz-adv-x="1302" 
d="M836 1437q211 0 281 -223q29 -110 29 -200v-24q0 -106 -31 -220q-77 -162 -103 -177q-21 -26 -119 -63v-2q240 -80 240 -328v-86q0 -186 42 -220q30 -32 77 -53l2 -3v-4q-115 -123 -115 -227v-9q0 -10 -6 -11h-4q-155 123 -155 493q1 96 9 159q0 152 -110 222
q-72 31 -152 31h-75l-22 -2v-22q18 2 27 2h11q201 -1 253 -108q13 -34 13 -68v-2q0 -60 -37 -81q-17 -11 -35 -11q-44 0 -60 44q-4 8 -4 21v1q0 33 37 48q44 -10 44 -42q-2 -17 -7 -17h-4q-4 0 -4 4v24q-9 16 -31 16q-22 -10 -22 -31v-2q0 -35 31 -49q16 -4 22 -4
q46 0 55 63v29q0 115 -165 145q-32 5 -69 5h-46l-9 -2v-78q0 -153 -2 -459q16 -12 16 -23q0 -22 -27 -26q-22 7 -22 26v1q6 22 18 22q0 31 2 151q0 362 4 1044q-12 0 -19 22q4 26 26 26h2q18 0 24 -26q0 -12 -19 -22q-1 -127 -1 -192v-330q9 0 31 -2q197 0 262 211
q18 75 18 150v18q0 208 -66 316q-45 53 -88 53h-9q-63 0 -83 -77v-19q0 -31 43 -36h3q29 0 33 49q1 4 4 4h4q2 0 5 -7q-6 -59 -48 -59h-14q-28 0 -44 49v8q0 38 36 79q36 23 65 23q62 0 111 -73q63 -115 63 -321q0 -283 -193 -364q-52 -17 -88 -17h-45q-2 -13 -2 -14
q2 -4 2 -6q59 4 122 4h2q76 0 136 51q73 83 73 163q26 198 26 284q0 194 -134 313q-31 11 -48 11h-27q-91 0 -158 -65q-60 -72 -60 -222q0 -194 -6 -1048q2 -48 2 -64q0 -144 -71 -316q-34 -69 -50 -69q-4 0 -4 3q4 46 4 72v90q0 186 -211 304l-25 13v3q5 7 55 21
q79 38 115 131q35 83 35 264v6l-2 13h-84q-18 0 -22 -30v-7q0 -25 31 -35h4q17 0 33 24h3l6 -5q0 -55 -31 -109q-40 -34 -72 -34q-50 0 -86 150q-20 22 -40 22h-24q-18 -4 -20 -4l-2 4v2q0 34 81 64q70 14 130 14q75 -2 88 -5q3 2 5 2q4 56 4 95v68q0 189 -64 262
q-66 91 -130 91q-36 0 -81 -22l-4 6q46 79 105 79q9 0 42 -2q64 0 132 53q135 152 154 152q107 77 176 77q48 9 102 9zM167 358h4q4 -4 24 -48q29 -38 55 -38h16q36 0 94 51h4q2 0 7 -9q-28 -98 -90 -148q-54 -55 -158 -90v-2q59 -8 142 -81q130 -142 130 -260
q0 -43 -24 -101q-37 -49 -92 -49h-2q-30 0 -66 53q-3 17 -3 24q0 61 64 82q1 0 11 2q26 0 48 -47q0 -2 1 -6q-20 -42 -51 -42q-7 3 -7 5v4q1 3 27 11q17 13 17 24q-15 37 -33 37h-4q-48 0 -59 -66v-11q0 -34 52 -55h14q46 0 76 49q16 46 16 83v11q0 105 -123 241
q-86 79 -150 79h-18q-10 0 -15 9v4q0 6 49 17q134 43 195 135q33 53 33 68v2h-4q-48 -39 -88 -39q-65 0 -95 96v1q0 4 3 4z" />
    <glyph glyph-name="S" unicode="S" horiz-adv-x="1059" 
d="M592 1425q88 -116 198 -116h2q43 0 97 22h2q3 0 3 -3v-2q-70 -173 -183 -173q-102 0 -231 148h-5q-128 -93 -128 -163v-25q0 -74 143 -151q4 0 23 -9v148q-18 8 -18 22q5 23 22 23q23 -4 23 -23q0 -9 -13 -22v-119q9 -9 104 -62q42 -24 104 -93q143 -134 156 -166
q52 -59 52 -280q0 -144 -153 -307q-88 -76 -181 -91q-87 -11 -87 -19v-47q11 -23 11 -26q0 -13 -21 -22q-24 4 -24 23v2q0 12 20 23v44h-2q-55 -20 -55 -55v-15q0 -46 42 -69q6 -4 13 -4h11q33 0 67 71h5q3 -1 3 -3v-2q-36 -79 -80 -79q-53 0 -73 77q0 2 -1 17q0 46 70 77
v15h-8q-276 0 -354 192q-24 69 -24 132v12q0 101 27 113q85 82 200 82q70 0 161 -44h2v27q-31 21 -89 35q-38 9 -78 9q-99 0 -189 -51h-2q-3 0 -3 4v3q0 8 70 35q5 0 5 4v1q-87 23 -87 128q0 63 54 81q21 3 23 3q52 0 86 -52q5 -15 5 -22q-8 -62 -61 -62q-46 0 -60 34
q0 5 -2 5q0 23 40 37q26 -7 26 -22q0 -4 -4 -4h-3q-10 12 -17 12h-3q-25 -7 -25 -22v-1q0 -21 42 -26h16q37 8 37 42v12q0 39 -67 56h-17q-36 0 -52 -34q-5 -16 -5 -29v-18q0 -84 72 -106l21 -2h28q2 0 2 2l3 -2q31 6 67 7q74 0 167 -40v211q-128 74 -242 158
q-101 77 -101 141v9q0 93 133 176q277 203 288 208h2zM527 963l-2 -3v-12q0 -10 34 -28q92 -66 219 -188q133 -126 133 -294q0 -199 -161 -332q-51 -53 -69 -56q-47 -27 -139 -50q-20 -2 -20 -7v-12q133 19 174 44q117 47 210 237q24 56 24 109v47q0 207 -74 270
q-2 12 -190 193q-68 49 -139 82zM525 722l-3 -672q67 0 176 69q87 68 87 171v4q0 1 -1 1l1 4v35q0 129 -166 309q-84 79 -94 79zM181 270q4 -58 62 -136q80 -87 216 -87h17q11 0 34 1v209q-77 102 -160 102h-13q-79 0 -156 -87v-2z" />
    <glyph glyph-name="T" unicode="T" 
d="M1047 1526q60 0 79 -93q-14 -52 -24 -52q-52 -44 -116 -44q-98 0 -225 101q-16 14 -16 16v3q1 4 4 4h3q130 -111 228 -111h15q62 0 107 49q10 22 10 37v6q-4 32 -31 60q-15 9 -26 12q-46 0 -55 -21q-5 -15 -5 -20v-21q0 -11 14 -19h17q12 0 23 12h3q3 0 3 -3v-6
q-12 -17 -38 -17q-30 0 -36 42q8 65 52 65h14zM1235 1452h3q3 -1 3 -3v-2q-54 -134 -208 -219q-84 -38 -112 -38h-12q-57 0 -219 33v-619q0 -205 -67 -296h-4q-3 0 -3 3q10 62 10 92q0 162 -162 230q-8 2 -8 6v3q0 5 43 9q63 21 98 86q35 80 35 153v2q0 148 -63 227
q-85 -77 -132 -156q-98 -168 -98 -331q0 -184 108 -331q67 -91 214 -131q38 -7 86 -12v71h-7q-43 0 -50 53q12 64 57 64v732q-17 14 -17 26q0 14 22 22q24 -4 24 -24v-2q0 -7 -15 -22v-731q43 0 86 -34q17 -22 21 -47q0 -84 -90 -113q-1 0 -17 -5v-43h1q267 0 402 213
q40 70 62 162q9 39 17 102l5 5h4q3 0 5 -10q0 -240 -140 -405q-90 -91 -155 -121q-114 -53 -141 -53q-58 -15 -60 -18v-148q15 -13 15 -22v-2q-3 -24 -24 -24q-13 0 -22 22q0 13 17 26v148q-25 -3 -38 -3h-9q-134 0 -284 78q-159 90 -234 305q-38 124 -38 232v38q0 6 -2 16
q12 92 40 162q92 215 313 317q6 3 11 3h1q4 -1 4 -3v-4q-98 -98 -138 -181q-72 -155 -72 -286v-38q0 -210 132 -370q94 -92 167 -112q78 -29 144 -29h3v41h-7q-119 14 -181 48q-133 73 -193 228q-41 117 -41 210q0 183 129 377q32 46 107 121q-1 6 -36 32v4q2 4 34 14
q37 16 69 58v4q-305 81 -358 81q-131 0 -167 -135q-3 -20 -7 -20h-4q-5 1 -5 10v5q0 131 150 191q77 25 160 25q57 0 252 -28h10q62 6 62 41q0 13 5 14h4q114 -105 241 -105h5q135 0 259 131zM704 270q9 -29 31 -29h12v91q-3 0 -3 2q-38 -8 -38 -50q-2 -10 -2 -14zM761 334
v-173q56 14 79 45q14 20 14 67q0 30 -45 50q-25 11 -48 11z" />
    <glyph glyph-name="U" unicode="U" horiz-adv-x="1388" 
d="M345 1434h4q47 -16 84 -72q61 -100 61 -258v-16q0 -240 -134 -652q-5 -20 -5 -49q0 -199 246 -316q9 -1 16 -1h55q197 0 258 102q33 42 57 102q19 51 19 79v68q-4 -5 -31 -86q-34 -90 -95 -167q-57 -69 -156 -69h-42q-134 0 -162 87q-4 0 -9 39q0 46 34 92q28 16 53 18
q52 0 62 -69v-5q-12 -60 -51 -60q-45 0 -45 43q4 33 26 33q6 -3 6 -5v-3q-16 -8 -19 -13v-20q0 -22 26 -22h11q34 11 34 45v5q-7 58 -44 58h-9q-49 0 -65 -53q-6 -24 -6 -46q0 -54 55 -93q42 -20 115 -20q107 0 137 29q70 56 100 130q26 43 59 145q16 53 16 65v806
q-14 14 -15 23q0 15 21 23q17 0 25 -21q-3 -12 -15 -25q89 -168 196 -168h13q2 0 2 2q8 -2 8 -5v-3q0 -5 -23 -7q-100 0 -197 157h-2v-1201q13 -13 14 -21q-4 -23 -21 -23h-3q-14 0 -21 21q0 14 18 21v120h-5q-51 -94 -189 -144q-68 -21 -140 -21h-11q-83 0 -126 24
q-75 27 -190 102q-96 97 -121 97q-28 15 -87 28l-2 3v2q0 7 32 40q92 118 125 209q84 198 84 387v37q0 208 -99 334q-37 35 -61 35h-20q-28 0 -64 -47h-4q-2 0 -4 7q0 38 48 79q31 19 94 34q46 23 79 50zM198 1274q111 0 128 -149q21 -112 21 -223q0 -340 -220 -612l-44 -47
v-3h2q48 6 65 6h1q64 0 178 -121q120 -93 219 -112q8 -1 8 -5v-3l-5 -5q-167 43 -277 164q-73 71 -126 71q-9 0 -92 -12l-2 4v3q87 83 142 173q138 232 138 494v11q0 171 -39 297q-27 58 -113 58q-16 0 -31 -34v-12q0 -25 54 -40h4q18 0 18 26q-5 11 -14 11h-4q-8 0 -24 -1
l-1 8q12 6 24 6q31 -3 31 -29h1q-9 -34 -32 -34q-35 0 -68 45l-2 15q0 26 39 50h21zM1046 1187h4q56 -112 141 -112q22 2 29 2l3 -7q-76 -197 -76 -408q0 -206 78 -379q1 0 1 -1v-4q-61 -53 -61 -93v-17q17 -68 66 -68q43 0 94 57q8 -2 8 -11q0 -88 -89 -117
q-32 -10 -62 -10q-106 0 -131 161q-9 102 -9 137v860q1 10 4 10z" />
    <glyph glyph-name="V" unicode="V" horiz-adv-x="1343" 
d="M501 1546q24 -7 24 -24q0 -10 -17 -24v-1142q17 -9 17 -23q-7 -22 -25 -22q-13 0 -23 22q0 14 17 23v1142q-17 14 -17 24q8 24 24 24zM450 1484q7 -2 7 -12v-1108q0 -3 -4 -17q0 -87 81 -196q80 -82 127 -99q0 -2 29 -15q164 79 235 235q22 61 22 82v1050q0 9 9 13h3
q48 -65 126 -108q58 -26 61 -32q-44 -363 -44 -642v-26q0 -257 49 -363v-2q-3 -4 -56 -19q-78 -29 -199 -108q-80 -54 -199 -149h-4q-179 164 -420 249q-30 10 -32 13q66 199 66 232q45 196 45 400q0 229 -55 437q-13 19 -39 19q-49 0 -91 -45q-76 -57 -76 -106v-27
q15 -62 54 -62q15 0 15 22v22q0 4 -2 7q0 9 23 11q25 0 53 -60q7 -27 7 -37q0 -49 -54 -66q-21 -6 -37 -6q-99 0 -124 90q-5 12 -5 34v19q63 178 172 237q168 51 204 73q34 28 46 60h7zM1182 1261h4q3 0 3 -5q-53 -310 -53 -518v-67q0 -271 79 -444v-5q0 -5 -60 -12
q-168 -46 -388 -225q-60 -49 -60 -55v-2q17 -26 17 -49v-2q0 -26 -17 -36h-3q-28 0 -28 48q0 14 12 45q-33 42 -87 80q-94 67 -173 103q-97 46 -196 77q-3 0 -3 4v3q0 4 3 4h2q35 0 242 -98q111 -58 209 -149q11 -14 15 -14q116 99 206 159q172 111 292 126l-29 87
q-47 166 -47 379v17q0 244 57 548zM695 -82q-5 -15 -5 -20v-18q0 -27 12 -27q9 0 10 26q-6 39 -13 39h-4z" />
    <glyph glyph-name="W" unicode="W" horiz-adv-x="1346" 
d="M1241 1645h84q6 0 11 -6q-90 -96 -108 -96q-65 0 -78 -44q-9 -4 -12 -159q4 -639 4 -862q0 -44 48 -86q9 -8 32 -15q0 -3 1 -3q0 -6 -43 -19q-133 -55 -249 -161q-49 -56 -138 -192q-1 0 -1 -2q-3 0 -8 6q-2 88 -2 140v382h-21v-286q16 -13 16 -22q0 -17 -24 -23
q-21 9 -21 23q0 9 16 22v286h-21v-382q0 -52 -1 -138q0 -2 -7 -8q-5 0 -69 101q-42 63 -99 119q-105 84 -180 114q-37 20 -84 35q0 3 -1 3q0 6 30 16q35 24 49 73q3 13 3 16q1 506 1 806v29q0 1 -1 1l1 3v16q0 68 -85 68h-3q-113 0 -152 -93q-4 -6 -4 -10v-11q9 -74 65 -74
h20q48 13 69 43q5 7 7 26h5q22 -31 22 -61q0 -74 -99 -114q-20 -3 -28 -3q-75 0 -151 83q-14 36 -14 57v11q0 68 100 139q65 37 146 37h17q152 0 199 -106q4 -10 12 -45v-908q7 -51 80 -129q90 -89 109 -123h5v21q0 9 -61 65q-27 30 -103 110q-8 23 -8 41q0 39 40 55
q8 3 11 3q33 0 41 -46v-5q0 -34 -33 -34q-17 0 -17 16v5q0 17 8 22l6 -4l-1 -8v-16q0 -4 3 -4h3q19 0 19 24q0 37 -29 37h-1q-29 0 -37 -38v-15q0 -30 35 -61q96 -101 121 -123h3v364h-60q-2 0 -4 5v34q0 2 4 4h60v248q0 8 32 41h3q1 0 5 -4q-2 -56 -2 -81v-204h21v583
q-16 13 -16 24q8 21 23 21q14 0 22 -21q0 -11 -16 -24v-583h21v204q0 29 -2 79q3 6 5 6h3q32 -33 32 -41v-248h60q2 0 5 -4v-34q0 -2 -5 -5h-60v-364h4q154 153 154 167q1 11 1 17v15q-8 38 -37 38h-1q-29 0 -29 -40q0 -21 19 -21h3q4 0 4 4v16q0 3 -2 6l5 6q8 0 9 -22v-5
q0 -16 -17 -16q-32 0 -32 34v3q0 37 37 48h3q50 -14 50 -50q1 -2 1 -11q0 -41 -27 -58q-72 -76 -145 -152v-24h5q17 31 140 157q46 60 50 95v961q0 228 146 293q53 20 80 20zM1374 1641h21q12 0 13 -7q-1 -6 -13 -6h-24q-12 0 -120 -121q-21 -8 -58 -17q-24 -28 -24 -87
l5 -50l-2 -9q-6 -479 -6 -607v-64q0 -197 24 -212q22 -45 80 -71v-5q0 -3 -3 -3h-2q-49 16 -82 67q-30 29 -30 209v48q0 103 6 631l2 26q-2 1 -3 51q4 76 40 90q42 7 59 23q30 41 104 110q6 4 13 4zM344 1146h3q2 0 5 -6q5 -247 5 -438q0 -220 -23 -238q-21 -44 -67 -72
q-16 -10 -23 -10h-1q-4 0 -4 3v3q1 3 34 20q44 29 64 96q7 49 7 169v64q0 138 -4 374l-1 11q-4 0 -50 -32q-54 -29 -98 -29h-1q-66 0 -118 48v3q1 4 4 4t45 -28q32 -14 59 -14h18q70 0 146 72z" />
    <glyph glyph-name="X" unicode="X" horiz-adv-x="1796" 
d="M489 1440h3q2 0 14 -34q33 -67 106 -139q76 -63 144 -72q30 -29 176 -198l107 -120h3q272 343 318 407q2 3 2 8v20q0 2 -3 17v2q0 3 3 3l8 -2q58 8 152 12q134 0 173 -47q53 -28 77 -99q6 -26 6 -43v-14q0 -69 -72 -92q-14 -1 -21 -1q-59 0 -78 54l-2 8q0 29 40 59h3
q4 0 8 -24q11 -9 18 -9h5q19 0 24 33v20q0 63 -106 103q-12 2 -27 2h-2q-80 0 -131 -59q-6 -11 -91 -120q-2 -12 -35 -45l-208 -265q6 -11 24 -28q13 10 150 188q15 14 151 187h4q4 -1 4 -3q0 -9 -88 -114q-28 -38 -213 -267q27 -33 451 -514q37 -20 69 -20q5 -7 5 -10
q-7 -224 -21 -224q-9 0 -37 74q-30 66 -96 132q-69 59 -128 64l-811 938q-21 35 -77 35q-6 4 -6 11v181q0 2 5 5zM565 1173q15 0 23 -21q-3 -12 -3 -18l855 -969l4 -2l9 2q21 -6 21 -21t-21 -22q-22 4 -22 20q1 9 1 15l-441 500h-3q-290 -366 -301 -383q-11 -28 -11 -52v-16
q0 -10 1 -32l-3 -1q-21 5 -30 5h-18q-58 0 -204 -56q-58 -16 -93 -16h-16q-82 0 -143 51q-62 59 -62 197v1q0 108 59 141q60 57 104 57q60 0 98 -62q3 -16 3 -21q0 -66 -34 -96q-37 -19 -54 -19q-25 0 -45 21v3q2 4 35 21q16 12 16 26v7q-4 42 -28 42h-12q-63 0 -83 -93
l-3 -35q2 -8 2 -16v-22q16 -79 48 -104q63 -35 118 -35h3q47 0 127 38q112 92 214 198l251 322q-20 27 -352 401h-6q-2 0 -2 -1q-17 0 -22 24q0 12 20 21zM1015 590h2q57 -7 57 -56v-11q0 -24 -38 -24h-2q-25 11 -25 29q0 14 16 25h3q3 0 3 -3v-3q-11 -11 -11 -18v-6
q6 -9 11 -11h16q16 0 16 13v4q0 50 -48 50q-34 0 -67 -50q-45 -51 -189 -233q-42 -44 -42 -101v-27q0 -53 21 -53q35 -26 35 -38q-4 -19 -17 -19h-2q-21 0 -38 51q-4 21 -88 29h-11q-78 0 -162 -77h-3q-3 0 -3 3v3q16 19 21 19v5h-2q-78 -19 -144 -19h-37q-71 0 -139 58
q-72 73 -72 204v5q0 66 14 114h5q3 0 3 -5q-9 -57 -9 -91v-40q0 -140 101 -205q56 -29 91 -29q1 0 5 2q14 -2 17 -2q149 0 248 53q41 14 75 14q33 0 80 -17h3q-4 30 -4 49q0 76 51 127q138 178 222 270q13 11 37 11zM730 106q0 -2 -1 -2q5 -20 24 -35h3q6 3 6 8
q-10 19 -32 29z" />
    <glyph glyph-name="Y" unicode="Y" horiz-adv-x="1206" 
d="M320 1564q179 0 252 -164q5 -12 5 -16v-551q0 -7 -2 -19q32 -133 102 -133h154v16h-123q-73 0 -100 77q-8 35 -8 68v518q1 10 5 10h3q6 -2 6 -10v-530q0 -90 57 -114q18 -5 49 -5h111v766q-18 12 -20 24q5 25 25 25q23 -6 23 -23q0 -10 -14 -24v-1041q14 -12 15 -23
q-5 -25 -22 -25q-25 5 -25 25q5 21 18 21v163h-221q-9 0 -31 31q-67 52 -130 70v5q1 4 4 4h1q102 -30 156 -96h221v22h-198q-8 0 -40 37q-48 35 -90 51q-52 10 -54 14q-2 3 -2 7v728q0 41 -98 59h-7q-61 0 -154 -38q-50 -43 -50 -74v-19q0 -34 47 -61q28 -11 45 -11
q50 0 70 60l2 8h5q11 0 18 -66v-2q0 -98 -154 -122q-69 0 -116 64q-24 46 -24 91q5 59 65 125q96 78 224 78zM1065 1437h4q3 -1 3 -4v-3q-63 -62 -63 -163v-768q-12 -103 -28 -163q-54 -182 -166 -255q-109 -81 -210 -81q-134 0 -236 152q-34 61 -34 126q0 58 35 128
q65 74 126 74q47 0 95 -48q23 -52 23 -82q0 -69 -95 -87q-2 0 -9 7q32 40 32 57v7q0 30 -46 42h-12q-40 0 -54 -38q-9 -24 -9 -47v-18q11 -80 63 -157q16 -17 74 -34q46 -8 77 -8h3q109 0 193 134q43 98 43 181h2q-2 93 -2 148v807q0 20 30 23q109 31 144 57zM1116 1412
q3 -2 5 -2v-5q-53 -43 -63 -86q-5 -26 -5 -43v-779q0 -74 -63 -250q-37 -80 -88 -145q-83 -88 -143 -109q-31 -17 -131 -33h-30q-195 0 -285 226q-23 103 -67 103h-14q-47 -12 -47 -33v-34q0 -12 28 -31h9q23 0 28 30v5q0 8 -14 19v4q0 3 3 3q19 0 23 -30q-6 -45 -44 -45
q-47 19 -47 58q0 45 17 45q24 23 53 23q59 0 84 -116q51 -135 147 -183q60 -30 112 -30h37q15 0 91 14q77 22 154 91q96 106 133 227q40 131 40 182v774q0 102 77 150z" />
    <glyph glyph-name="Z" unicode="Z" horiz-adv-x="1413" 
d="M1000 1437h10q40 -3 40 -7v-6q-40 -51 -326 -441v-71h2q1 0 292 398q49 44 87 44q47 0 75 -64q3 -11 3 -17q0 -28 -33 -49q-25 -6 -29 -6q-50 9 -50 33q-2 8 -2 15v2q5 41 30 41q0 1 8 3q21 -4 21 -22v-2q0 -3 -3 -3h-3q-7 14 -14 14h-1q-27 0 -27 -31q0 -37 39 -37h3
q41 0 48 37v13q0 28 -42 56q-8 4 -15 4h-17q-33 0 -78 -48q-241 -329 -294 -404v-480q15 -111 75 -197q37 -52 102 -75q94 -22 157 -22q70 0 94 66q9 28 9 62q0 62 -64 100q-28 19 -44 19h-9q-32 0 -64 -56l-1 -10v-11q8 -56 34 -56q0 -1 6 -1h13q29 5 29 28q0 22 -26 22
l-2 3v3q2 5 10 5q29 0 29 -36q0 -28 -47 -38q-46 0 -57 64q-2 9 -2 14q0 33 53 72q10 6 28 9q49 0 113 -76q12 -25 12 -47v-8q0 -1 2 -1l-2 -3v-7q0 -85 -73 -123q-23 -4 -36 -4h-14q-145 11 -173 31q-86 37 -136 165q-12 39 -16 41v-97q11 -11 11 -22q0 -14 -22 -19
q-20 5 -20 21q0 13 19 23v714h-2q-366 -494 -447 -610q-11 -21 -11 -35q0 -28 51 -28q66 0 340 48q0 1 5 1l3 -1q-1 -21 -1 -31v-19q0 -109 129 -184q102 -55 214 -55h4q156 0 205 114q14 38 14 66q0 90 -88 170q-28 15 -56 15h-12q-33 0 -52 -14h-3q-1 0 -5 7q16 48 64 79
q27 14 71 14q138 0 193 -164q12 -39 12 -79q0 -91 -101 -175q-82 -73 -128 -73q-27 -8 -78 -8h-11q-139 0 -231 53q-90 40 -174 106q-53 67 -173 67h-13q-82 0 -109 -19q-88 -44 -114 -98l-1 -9v-5q0 -21 51 -45q11 -3 19 -3h1q2 0 2 1q2 0 8 -6q0 -11 -78 -25h-8
q-80 0 -112 94q-2 16 -2 25v18q0 105 105 222q12 11 154 214q45 61 365 508v137q-50 -16 -161 -114q-42 -43 -76 -84h-2q-14 23 -42 30l-115 28q-127 49 -127 161q1 30 18 82l3 2h3q4 -2 4 -10v-12q0 -93 102 -115q17 -2 29 -2h10q116 0 354 112v49q-17 12 -17 21
q0 17 23 22q20 -8 20 -22q0 -8 -14 -20v-42q60 28 161 81q68 35 115 35zM719 1231v-120h2q21 26 114 157v3h-1q-71 -13 -115 -40z" />
    <glyph glyph-name="a" unicode="a" horiz-adv-x="1217" 
d="M502 1425q159 0 275 -117q97 -85 274 -125q28 -4 44 -4l2 -4v-5q-3 -5 -37 -13q-68 -32 -103 -126q-37 -101 -37 -255q0 -3 1 -66l4 -2h8q111 0 184 63q19 0 19 -21q0 -33 -89 -68q-43 -13 -120 -22l-6 -224q0 -157 69 -229q29 -26 76 -26l7 2q9 -2 9 -5v-6
q-2 -3 -50 -16q-160 -81 -160 -316q0 -4 -4 -4h-4q-49 36 -76 332q4 378 4 483q-30 1 -234 5v-16q32 -2 188 -6q10 2 15 2q10 0 11 -19v-441q0 -392 172 -477v2q-45 89 -45 146v7q0 102 95 182q51 33 96 33q47 0 79 -72v-15q0 -59 -70 -85h-8q-61 9 -61 59q0 31 45 46
q13 0 37 -35v-5q0 -10 -6 -11h-3q-4 0 -6 18q-14 18 -24 18q-28 -8 -28 -25v-13q0 -30 39 -37h20q52 22 52 74q0 46 -59 68h-20q-60 0 -122 -74q-43 -66 -43 -127q0 -85 58 -167v-3q0 -4 -4 -4q-76 23 -118 91q-34 48 -56 120q-35 143 -35 247v482l-199 6v-747
q16 -13 16 -24q-3 -25 -26 -25q-24 6 -24 24q0 14 19 24v1178h-4q-33 -42 -33 -133v-157q0 -151 2 -403q0 -180 -50 -360l-22 -46h-4q-3 0 -6 6q0 139 -73 247q-47 62 -130 85q-33 1 -33 7v4q0 7 55 13q66 22 93 65q27 51 27 90q15 41 15 144v35q-31 4 -37 4q-44 0 -61 -33
q-22 -83 -83 -83l-2 3v26q-7 37 -37 37h-11q-62 -16 -62 -50v-9q0 -19 29 -52v-3q0 -3 -7 -6q-31 5 -59 32q-17 27 -17 49q0 99 91 128q65 17 151 17q68 -2 103 -6v2q0 113 -13 214q0 124 146 179q3 0 32 8v66q-17 15 -17 28q6 24 24 24q26 -6 26 -24q0 -14 -18 -28v-434
h208q2 224 2 286q0 109 -24 152q-79 188 -275 188q-131 0 -179 -74q-9 -20 -9 -37q0 -60 57 -60q46 12 46 40q0 22 -17 24h-2q-6 0 -29 -11q-4 0 -4 4v3q0 9 35 19q23 0 32 -41q0 -24 -45 -48q-25 -5 -29 -5q-36 10 -52 37l-7 38q0 50 64 93q26 15 76 28v1h-2
q-90 -14 -123 -42q-37 -44 -37 -74q0 -66 64 -94q7 -4 21 -4h18q51 0 70 72l-2 9q6 2 6 4q10 0 24 -48q2 -19 2 -29q0 -80 -100 -117q-4 0 -13 -4q-141 0 -172 85q-12 12 -18 74q0 75 70 135q62 38 133 57q94 23 155 23zM443 1380h6q3 0 3 4h-5q-4 -1 -4 -4zM486 1384
q0 -4 51 -9q104 -26 163 -95q81 -113 81 -195v-346q0 -13 -13 -13h-210v-20h232q6 150 6 323v70q0 90 -89 211q-90 74 -203 74h-18zM410 1377h2q20 1 20 5h-2q-20 -1 -20 -5z" />
    <glyph glyph-name="b" unicode="b" horiz-adv-x="1210" 
d="M742 1441q129 0 206 -106q48 -83 48 -161q0 -68 -43 -169q-38 -63 -87 -87q-27 -11 -29 -14q257 -132 257 -378q0 -265 -197 -392q-66 -34 -116 -34h-11q-101 0 -171 74h-3v-256q13 -11 14 -20q0 -21 -24 -23q-19 5 -19 23q5 19 16 19v286q0 10 -2 10l2 16v923
q-14 13 -14 24q8 21 22 21q17 0 21 -25q0 -12 -16 -19v-190q29 -9 53 -9h24q65 0 116 90q27 62 27 159q0 52 -37 122q-31 34 -66 50l-11 2h-2q-45 0 -62 -50v-18q9 -30 33 -30h10q16 0 16 38l3 2h4q1 0 4 -5q0 -48 -32 -48q-51 10 -51 51q0 39 46 64q14 7 28 7q36 0 90 -58
q22 -34 37 -103q1 -8 1 -16v-13q0 -201 -125 -251q-18 -6 -42 -6q-22 0 -64 10v-34q26 -3 53 -3q177 0 207 176q5 25 5 50v13q0 88 -24 134q-22 76 -92 112q-16 7 -22 7h-16q-76 0 -138 -90q-18 -48 -26 -95q1 -116 1 -184v-32q0 -264 -1 -670q0 -125 -47 -265
q-16 -43 -54 -81h-4q-3 0 -3 3v2q15 56 15 101v16q0 185 -193 250l-4 4v4q0 3 36 9q59 28 91 105q44 97 44 279q0 67 -3 100q-35 2 -52 2h-9q-80 -15 -90 -21q-36 0 -97 56v3l3 5l16 -1h8q44 6 44 51q13 78 40 85q0 3 18 7q52 0 77 -68q4 -24 5 -24q-2 -8 -5 -8h-2
q-21 10 -25 10h-4q-18 0 -21 -18v-19q4 -15 8 -15h81v48q0 96 -79 185q-31 28 -66 28q-32 0 -72 -24h-2q-3 0 -3 3v1q0 24 55 60q37 14 101 14q38 8 87 60q47 60 119 112q48 44 128 44q18 1 58 3zM596 878v-43h2q35 6 53 6h6q2 0 2 2l3 -2h6q86 0 145 -91q74 -84 74 -245
v-61q0 -149 -85 -188q-22 -10 -42 -10h-8q-43 0 -77 39q-47 48 -47 87v9q0 76 97 90h4q45 0 70 -49q4 -17 4 -24q-11 -70 -59 -70h-2q-31 0 -48 34q7 44 34 44q13 -4 13 -7v-3q0 -3 -4 -3h-16q-14 -9 -14 -26v-6q15 -21 34 -21q36 0 49 45v16q0 51 -64 59q-58 0 -83 -54
l-4 -42q7 -32 41 -69q33 -37 75 -37q82 0 113 101q6 25 6 64v65q0 155 -39 209q-22 48 -90 110q-31 23 -85 23q-30 0 -64 -8v-601q0 -13 67 -49q42 -19 73 -19h9q56 0 127 89q26 28 39 111q10 78 10 109v1q0 147 -34 230q-17 83 -71 140q-67 47 -108 47h-32q-24 0 -80 -2z
M167 857h3l22 -32q31 -24 61 -24h20q35 0 96 26q3 0 5 -7q2 -155 2 -213q0 -14 -2 -49q2 -3 2 -5q-29 -92 -108 -147l-71 -39q158 -71 211 -191q14 -42 14 -68q0 -81 -78 -145q-26 -8 -42 -8q-62 0 -122 68q-21 40 -21 74q0 52 49 87q8 3 23 6q74 -16 74 -69q0 -39 -40 -58
q-3 -2 -7 -2q-19 0 -30 46q2 6 5 6h3q3 -1 9 -27q7 -12 15 -12h2q23 0 32 47q-11 56 -63 56h-3q-40 0 -57 -70v-21q0 -75 100 -115q15 -3 24 -3h15q59 0 95 100q4 19 4 43q0 116 -164 221q-52 25 -67 29q-78 -12 -89 -17h-1q-56 0 -56 25q-2 0 -2 1q0 26 43 31h12
q20 0 93 -26q103 33 157 114q28 49 28 64q0 2 -2 2l2 8v164q0 26 -2 84h-1q-58 -23 -95 -23q-73 0 -102 65v1q1 3 4 3zM43 375v-6q6 -12 32 -12h6q10 0 71 12v3q-48 17 -77 17q-24 0 -32 -14z" />
    <glyph glyph-name="c" unicode="c" horiz-adv-x="1086" 
d="M581 1432h3q3 0 28 -63q93 -180 229 -228q29 -13 44 -13q67 0 88 77v5q0 63 -58 73h-14q-45 -8 -45 -43v-9q0 -21 30 -24h2q11 0 14 5q3 -2 5 -2v-5q-7 -8 -21 -8q-39 3 -39 40t38 52q14 3 20 3h5q50 -11 50 -22q11 0 24 -55q-9 -45 -31 -70q-35 -26 -70 -26
q-69 9 -162 85q-73 72 -82 99q-55 85 -62 125v1q1 3 4 3zM541 1424q157 -329 334 -329q72 0 142 57h3q3 -1 3 -3v-4q0 -16 -66 -75q-63 -49 -140 -49q-185 0 -424 255q-47 -36 -68 -82q-44 -95 -44 -131q-27 -106 -27 -250v-101q0 -268 32 -355q84 -295 282 -295l1 4v9
q-2 2 -42 16q-93 49 -156 211q-29 68 -60 210q-16 71 -16 176q9 318 25 371q10 65 35 107q26 36 54 36q42 -10 42 -41q0 -23 -36 -47h-5q-3 0 -3 3v3q32 23 32 40v6q-8 24 -29 24h-12q-28 -19 -29 -24q-58 -95 -58 -333h2q-7 -42 -7 -124v-38q0 -216 109 -445
q27 -51 77 -102q53 -36 76 -36l1 3v728q-14 0 -17 22q5 19 22 19q21 -5 21 -20q0 -10 -16 -22v-729q0 -3 3 -3q114 0 153 82q13 39 13 58v11q0 45 -51 63h-12q-9 0 -16 -23v-6q0 -16 12 -23h16q2 0 11 11h5v-7q-8 -15 -24 -15q-27 0 -31 38v3q12 33 34 33q21 0 52 -33
q15 -25 15 -52q0 -34 -29 -86q-50 -63 -143 -63h-5q-3 -1 -3 -4v-99q17 -11 17 -24q0 -16 -22 -20q-20 6 -20 20q0 10 15 23v50q0 3 -3 3q-125 0 -244 84q-76 67 -98 105q-50 76 -79 174q-39 146 -39 290q0 124 19 206q43 228 148 360q18 34 106 110q70 53 162 69zM726 401
h9q55 0 115 -58q30 -39 30 -82q0 -121 -139 -205q-45 -30 -113 -30h-3q-12 0 -13 5v3q4 4 36 16q134 67 134 153q0 15 2 20q0 82 -46 111q-18 17 -47 17q-28 0 -57 -21q-3 2 -5 2v3q0 23 59 58q22 8 38 8z" />
    <glyph glyph-name="d" unicode="d" horiz-adv-x="1184" 
d="M563 1555q23 -8 23 -27q0 -4 -18 -26v-96q73 25 112 25h14q176 0 301 -266q78 -184 78 -434v-19q0 -494 -338 -680q-65 -32 -91 -32q-51 168 -164 243q-94 70 -153 70q-83 0 -113 -60q-11 -25 -11 -51v-4q0 -63 78 -86q13 -2 22 -2q58 0 83 74q6 21 11 21h3
q25 -33 25 -69v-10q0 -34 -32 -78l-43 -25q-15 -5 -44 -9q-53 0 -108 50q-46 47 -46 108v3q0 68 43 110q29 45 132 80q45 25 68 67q9 27 12 48q-2 55 -2 87v189q0 4 -3 4h-11q-39 0 -67 -84q-24 -40 -62 -53h-4q-1 0 -5 6q12 19 12 30v10q0 23 -44 32h-14q-58 -9 -58 -42
q-2 0 -2 -11v-12q0 -34 23 -57v-3q0 -4 -4 -4q-34 0 -62 51q-5 15 -5 27v11q19 131 99 131h13v1q-9 28 -9 46q0 42 48 69h5q3 0 3 -3q-12 -29 -12 -37v-14q7 -27 35 -27h9q16 0 18 23v12q0 2 -4 20q1 3 4 3q41 -8 41 -37q19 -48 48 -48h3q9 0 11 6v195q0 53 -62 136
q-23 44 -73 44q-31 0 -87 -25q-1 0 -5 6q0 46 51 72q23 7 46 9q23 -3 34 -3q63 0 158 62q31 26 51 46q0 -2 2 -2q3 -397 3 -648q0 -62 -3 -261q0 -53 49 -115q179 -154 202 -170q7 -3 14 -3h4q26 3 78 113q16 37 32 96q0 5 -2 5q9 82 9 237v59q0 302 -20 354q-8 71 -63 186
q-29 59 -92 113q-78 59 -153 59h-16v-27q127 0 220 -147q51 -103 51 -138q14 -44 27 -168q14 -80 14 -241q0 -39 -4 -170l2 -18q0 -111 -67 -248q-13 -17 -14 -17h-4q-65 67 -131 99q-63 37 -106 127q-4 10 -5 25q0 41 53 62q11 4 14 4q51 -10 51 -45q0 -25 -33 -25h-4
q-9 0 -11 6v3q0 6 32 7l2 4v9q-4 26 -35 26h-6q-49 -14 -49 -46v-10q0 -35 79 -122q86 -45 147 -105h4q19 25 41 85q28 91 28 161q0 10 -2 16q4 65 4 177q0 182 -21 298q0 73 -50 205q-60 124 -158 160q-34 12 -65 12h-4v-703q16 -16 16 -25q0 -17 -23 -25q-25 6 -25 25
q0 11 18 25v823h-2q-29 -61 -79 -109q-63 -57 -128 -68q-127 -9 -127 -16q-64 -24 -64 -78v-17q0 -10 2 -30l-4 -2h-3q-7 0 -9 39q0 75 79 103q17 8 124 14q99 25 149 90q62 92 62 124v5q-16 13 -16 23v4q0 18 25 23zM294 292q118 0 161 -62q120 -121 135 -159
q15 -26 23 -60q-3 -9 -6 -9h-3q-4 4 -13 39q-14 45 -133 172q-52 61 -118 61q0 4 -48 4h-2q-48 -9 -48 -81v-2q0 -32 54 -48h14q27 0 35 30v12q0 16 -12 22h-7q-9 0 -27 -2l-2 4v3q0 7 27 9q35 0 35 -46q-15 -46 -53 -46h-3q-48 0 -73 56l-2 9q16 84 37 84q0 5 29 10z" />
    <glyph glyph-name="e" unicode="e" horiz-adv-x="1595" 
d="M530 1543q18 0 22 -25q0 -8 -12 -21v-60h746q10 0 12 -9q-1 -6 -47 -30q-68 -48 -178 -137h-6q-44 48 -93 71q-3 0 -9 3q-152 2 -226 2q-88 0 -109 -27q-54 -35 -90 -127v-23h2q78 152 162 152q16 -3 23 -3h208q60 0 118 -74q14 -29 16 -29h2q154 152 199 171q14 6 23 6
l2 -4v-3l-46 -25q-41 -26 -182 -164q-7 0 -23 40q-27 47 -98 69l-22 -2h-201q-2 0 -19 4h-7q-85 0 -157 -178v-201h155q61 16 87 51q10 17 17 42h2q66 -28 102 -112q11 -38 11 -60v-13q-2 -56 -11 -56h-3q-2 0 -18 46q-21 34 -51 42q-44 -2 -71 -2h-220v-72h4q46 53 84 53
q60 -15 60 -49q0 -28 -40 -64q-6 0 -9 -2q-35 0 -41 57q3 9 6 9h3q4 0 9 -38q8 -14 18 -14h8q32 25 32 48v4q0 27 -40 35h-15q-36 0 -79 -67v-407q97 -148 247 -200q26 -10 160 -10q163 0 200 37q76 45 144 120q25 24 62 157v21q0 94 -55 151q-13 6 -19 6h-18q-28 0 -40 -39
v-7q8 -37 37 -37h1q15 0 25 17v14q-6 11 -12 15h-4q-23 -6 -24 -6l-2 4v3q7 11 30 11q18 0 26 -35q-9 -36 -40 -36q-32 0 -48 41q-2 2 -2 12q13 55 55 55q0 2 10 2q74 0 94 -177q0 -35 -49 -155q-6 -20 -85 -90q-103 -83 -166 -91q-46 -6 -83 -6h-109q-183 0 -333 198h-2
v-41q46 -64 127 -121q109 -66 208 -66h27q196 0 347 99q54 46 84 99q62 107 62 192q0 99 -58 160q-32 25 -72 25q-85 -7 -85 -56v-2q0 -22 21 -71l-3 -1h-6q-52 0 -105 51q-22 36 -22 65q0 83 71 125q55 41 113 41q73 0 139 -62q90 -104 90 -284q0 -134 -67 -213
q-47 -72 -139 -134q-94 -56 -196 -92q-97 -25 -100 -35q0 -2 -34 -34h-3q-49 52 -62 52q-182 37 -295 130q0 2 -38 39h-4v-273q16 -14 16 -25q-6 -23 -23 -23q-18 0 -23 25q0 9 16 23v1579q-19 9 -19 21q0 16 23 25zM492 1483h4q5 -1 5 -14v-1158q0 -207 -95 -319h-3
q-4 0 -4 5q11 42 11 88v32q0 169 -159 255q-25 9 -25 13v3q3 4 36 13q63 35 102 167q24 118 24 162h-1l1 4q6 83 6 136v51q0 231 -81 319q-14 9 -14 10v4q58 39 112 90q63 67 76 116q0 23 5 23zM254 1227q82 0 97 -262l4 -115q0 -264 -34 -315q-37 -82 -118 -127l-51 -27
q163 -63 212 -171q26 -60 26 -109q-2 -9 -5 -9h-4q-4 0 -10 67q-41 119 -129 166q-76 44 -116 49q-70 -16 -106 -16q-30 0 -37 27q0 21 55 21h14q6 0 77 -16q103 31 155 102q53 67 53 219q4 63 4 145q0 315 -71 356q-17 5 -17 10q1 4 1 5zM-5 383q6 -11 20 -11h12q37 0 71 9
q0 5 -37 13q-66 0 -66 -11z" />
    <glyph glyph-name="f" unicode="f" horiz-adv-x="1132" 
d="M1026 1528q60 0 79 -91q-14 -52 -27 -52q-47 -42 -111 -42q-95 0 -223 102q-11 10 -11 12v4q0 3 3 3h3q127 -108 221 -108h19q62 0 106 51q8 30 8 37q-21 72 -60 72h-10q-48 0 -48 -59q4 -14 14 -20h18q12 0 24 12h2q3 -1 3 -4q0 -17 -37 -22q-28 0 -35 39q0 43 33 61
q14 5 29 5zM1215 1455q3 0 3 -3q-17 -61 -110 -152q-102 -82 -202 -101h-10q-91 0 -281 51q-78 23 -93 23v-1001q0 -13 2 -35q0 -77 -56 -201q-22 -39 -34 -48h-3q-3 0 -3 3q18 61 18 101v24q0 142 -189 239v3q60 32 110 85q30 16 45 166q9 103 9 191v59q0 245 -76 303
q-9 0 -10 5v4q60 30 148 109v5q-170 44 -219 44q-121 0 -160 -128q-2 -24 -7 -24h-3q-5 1 -5 14q0 134 153 190q74 22 148 22q7 -1 14 -1h3q53 0 230 -26h13q59 6 59 39q0 15 7 15q114 -103 234 -103h7q136 0 254 128h4zM583 1161q19 0 22 -26q0 -11 -17 -22v-349h163
q64 25 64 53l7 5h3q25 0 61 -84q7 -17 10 -48q-3 -21 -7 -32h-6q-35 46 -64 46h-231v-64h3q42 44 74 44q34 0 54 -51q0 -35 -42 -57q-4 0 -7 -2q-33 12 -33 51l3 1h3q3 -2 14 -32l8 -6h9q21 0 32 40v7q-15 35 -34 35h-15q-28 0 -69 -54v-694q12 -10 15 -20q0 -22 -25 -24
q-13 0 -21 20q0 12 17 26v1189q-14 15 -15 24q7 24 24 24zM294 1149q26 0 61 -52q32 -49 32 -228q-5 -344 -15 -344q-36 -98 -128 -146l-41 -21q0 -2 78 -49q110 -75 131 -131q9 -41 9 -59q0 -43 -22 -108q-39 -55 -103 -55q-74 0 -128 94q-5 22 -5 29q0 61 37 82
q22 17 39 17q30 0 66 -44q3 -4 6 -25q0 -31 -40 -46q-23 0 -36 34q1 3 4 3h3q15 -21 22 -23h9q18 0 25 29v10q0 30 -54 49h-10q-26 0 -54 -43q-4 -18 -4 -42v-10q0 -31 46 -72q35 -29 69 -29h10q65 0 93 59q13 55 13 81v22q0 72 -77 128q-125 93 -147 93q-84 -21 -114 -21
q-24 12 -24 24v3q18 24 76 24q34 0 64 -15h2q99 32 151 111q29 47 29 108q7 147 7 300q0 194 -46 229q-13 14 -39 25v5q0 4 5 4zM57 355q0 -7 15 -10q38 0 93 15v2q-21 8 -48 8q-53 -3 -60 -15z" />
    <glyph glyph-name="g" unicode="g" 
d="M729 1586q24 -9 24 -25q0 -10 -19 -26v-108h336q11 -1 11 -5v-4q-55 -43 -55 -160v-44l2 -19l-5 -3h-4q-88 55 -88 98q0 2 2 24q0 47 -96 64q-36 5 -72 5h-31v-416q73 -15 73 -58q-11 -79 -73 -79v-43h451q11 -1 11 -6q-100 -211 -100 -239q-35 -96 -35 -203
q0 -152 77 -198l12 -2h11q33 0 42 44v21q-6 35 -34 35h-13q-8 0 -13 -25v-8l9 -13v-1q0 -4 -3 -4h-6q-9 4 -14 24q7 42 38 42q49 -13 49 -50q2 0 2 -11q-9 -69 -64 -69q-45 0 -87 88q-19 59 -19 117v27q0 159 130 416h-444v-33h373q7 0 12 -7q-48 -94 -80 -192
q-29 -105 -29 -195q2 -42 2 -44h2q-2 -3 -2 -5q0 -112 73 -170l2 -4l-4 -7l-18 2q-35 -6 -117 -71q-87 -35 -132 -35q-62 -11 -100 -11q-224 0 -396 232q-58 74 -69 149q-11 38 -41 199q-25 80 -51 104q-21 21 -43 21l-2 3v4q42 28 49 38q42 49 53 106q45 253 86 308
q35 69 126 157q135 106 268 106h24v37h-48q-141 0 -305 -146q-73 -72 -111 -148q-69 -144 -69 -259v-17q-4 -53 -48 -115q-36 -32 -67 -32q-60 0 -86 69v2q0 75 66 91h11q58 -9 58 -46q0 -36 -51 -47q-19 0 -29 33q2 7 5 7h4l13 -24l9 -2h2q34 6 34 33t-45 33q-40 0 -55 -35
q-7 -16 -7 -34v-13q0 -27 45 -49q13 -4 20 -4q76 0 106 117q0 4 2 7q0 2 -2 18q0 180 137 371q187 204 380 204h12l19 -1v58q-18 15 -19 26q0 19 28 25zM386 756q0 -357 87 -510q14 -40 82 -116q70 -58 130 -73l18 1h15q153 0 250 64l2 4v4q-75 142 -75 314q7 126 7 171v33
q0 35 -18 35h-150v-462q17 -15 19 -26q0 -19 -28 -25q-24 9 -24 25q1 11 19 26v551h-9q-74 0 -97 80q-2 7 -2 17q0 75 71 95q15 3 35 3h2v416h-2q-113 0 -225 -184q-107 -141 -107 -443zM627 880v-22q13 -73 93 -73v168h-20q-73 -11 -73 -73zM734 953v-108h6q45 0 53 58v8
q0 29 -50 42h-9z" />
    <glyph glyph-name="h" unicode="h" horiz-adv-x="1401" 
d="M386 1432q154 0 407 -157q1 -2 1 -5q-45 -109 -45 -258v-3q0 -6 3 -36q0 -173 7 -332h2l-2 -3q5 -66 5 -118v-16q0 -3 1 -5q-1 -3 -1 -6v-22q0 -162 -41 -227q-70 -153 -242 -243l-7 2q-61 -20 -115 -20q-154 0 -218 160l-16 69q-1 15 -1 24q0 101 99 159q25 6 41 7
q58 0 105 -53q23 -33 23 -61v-1q0 -48 -73 -81q-18 -3 -25 -3q-26 4 -26 9v3q28 13 35 31q8 20 8 25q-11 40 -46 40q-31 -6 -44 -23q-24 -34 -24 -66q0 -114 67 -159q48 -44 111 -44h1q103 0 219 131q53 66 62 119q10 60 10 94v30q0 140 -93 242v3q85 97 85 204
q0 270 -59 393l1 3v3q-8 31 -66 103q-52 48 -127 48h-16q-94 -5 -108 -16q-61 -28 -82 -78q-5 -9 -5 -20v-7q0 -33 28 -42h4q9 0 20 17v16q1 3 3 3h5q33 -22 33 -57q0 -48 -39 -65q-18 -5 -23 -5q-50 6 -65 18q-33 28 -33 69q0 2 1 14l-1 3q5 53 40 100q38 52 137 79
q23 6 79 11zM391 1370q73 0 131 -90q102 -110 102 -402q0 -107 -78 -221q-16 -16 -16 -19q26 -18 45 -53q59 -83 59 -248q0 -119 -53 -170q-124 -132 -200 -132q-59 0 -142 98q-29 46 -29 85v4q0 54 45 76l9 2q30 -5 30 -31q-1 -15 -6 -15h-3q-2 0 -2 2q0 3 1 18
q-4 14 -19 14h-4q-28 0 -39 -55v-25q0 -66 101 -142q26 -20 60 -20q72 0 195 131q35 48 35 65q10 30 10 94v6q0 169 -64 250q-14 24 -42 43v3q96 116 96 229q0 224 -42 309q-15 51 -74 119q-15 33 -65 57q-19 7 -41 7h-6q-36 0 -84 -25q-3 0 -3 3v3q41 30 93 30zM1036 1208
h3q2 0 17 -42q52 -94 146 -94h1q29 0 72 10q2 -6 3 -6q0 -2 -43 -37q-71 -82 -82 -164q-11 -48 -17 -338q0 -199 57 -239q28 -26 61 -26h20q9 -1 9 -4v-3q0 -3 -42 -10q-37 -13 -56 -32q-37 -24 -65 -101q-19 -55 -19 -113q-2 -6 -4 -6h-3q-62 86 -62 321v391
q-181 -3 -229 -5v-27h201q5 -1 5 -9v-405q0 -167 62 -295q41 -60 82 -60h7v1q-42 56 -42 117q0 70 57 142q38 38 85 38q55 0 74 -42q9 -11 12 -30q0 -25 -36 -55q-22 -10 -26 -10q-35 0 -50 42q-2 2 -2 5q0 26 39 41h2q19 0 23 -28q-2 -7 -5 -7h-3q-3 0 -7 22l-4 3h-3
q-16 0 -29 -22q-1 -2 -1 -7v-4q0 -21 31 -34h3q41 0 56 49v8q0 17 -25 46q-23 11 -42 11h-18q-71 0 -112 -115q-7 -26 -7 -48v-14q0 -61 50 -115v-3q0 -3 -3 -3h-15q-115 0 -155 254q-10 65 -10 129v387h-194v-372q11 -12 11 -20q0 -12 -18 -19q-18 0 -21 21q5 18 16 18v735
q-11 8 -14 18q0 17 21 21q19 -6 19 -19q0 -9 -14 -20v-242h199v402q0 8 4 8h3q4 -1 4 -8v-410q-1 -4 -9 -4h-201v-32h229v447q0 11 4 12z" />
    <glyph glyph-name="i" unicode="i" horiz-adv-x="737" 
d="M586 1495q55 0 55 -45q0 -26 -26 -35h-2q-30 8 -30 30q2 18 7 18h3q3 -1 3 -3q-2 -12 -2 -19q0 -12 22 -14q13 6 13 16v14q0 26 -40 26h-6q-11 0 -19 -32v-763q0 -7 -4 -8h-3q-5 1 -5 8v759q0 1 -1 1q13 47 35 47zM528 1450q4 -2 4 -9v-1038q0 -186 -22 -219
q-32 -94 -107 -138q-65 -38 -137 -38v-19q9 0 15 -17q-5 -22 -21 -22q-20 6 -20 20q0 12 14 19v18q-2 3 -46 16q-77 34 -103 93q-9 29 -9 61v14q0 111 118 151q40 8 40 11v726q-12 9 -14 19q5 22 22 22q19 -7 19 -20q0 -12 -15 -19v-728q0 -3 3 -3h14q74 0 104 -106
q-9 -41 -28 -61q-31 -34 -73 -34h-20v-83q2 -6 10 -6h26q106 0 147 121q9 22 9 54q0 95 -95 158v5q31 29 41 74q18 72 18 120l-2 3q9 56 9 157q0 260 -28 314q-46 115 -136 115q-38 0 -83 -35q-21 -25 -21 -58q0 -23 13 -63l-2 -1h-3q-48 49 -48 102v3q0 85 161 136
q144 49 176 82q31 29 65 103h5zM140 188q0 -95 97 -122l17 -1v222q-16 3 -21 3q-65 0 -92 -87zM266 281v-109h3q30 35 30 54v15q0 20 -30 40h-3z" />
    <glyph glyph-name="j" unicode="j" horiz-adv-x="1040" 
d="M1025 1564q57 0 83 -70q1 -8 1 -13v-4q0 -57 -81 -96q-163 -48 -189 -61q-13 -13 -20 -42q2 -23 2 -35v-709q0 -163 -39 -270q-9 -54 -78 -138q-79 -79 -153 -103q-50 -23 -134 -23h-11q-214 0 -311 174q0 2 -2 4q2 3 2 5h5q53 -103 166 -149q68 -23 127 -23h37
q169 0 292 152q40 56 59 134q28 85 28 218v732q0 8 -1 23q0 33 28 60q20 11 195 63q68 38 68 82q-11 77 -73 77h-1q-40 0 -56 -37v-17q5 -41 27 -41q5 -3 9 -3q16 3 16 18v22q0 1 -2 1q2 6 4 6h3q6 0 6 -21v-2q-4 -36 -29 -36q-45 10 -45 62q0 46 67 60zM1003 1440q4 0 8 -7
q0 -33 -10 -33q-144 -38 -183 -56q-31 -27 -31 -64q1 -14 1 -22v-599q0 -62 1 -168q-11 -128 -37 -204q-31 -92 -87 -147q-72 -70 -141 -96q-68 -17 -114 -17q-139 0 -258 109q-76 79 -76 162q5 68 36 124q44 65 108 65l10 -2l10 2q48 0 89 -38q27 -33 27 -79
q-16 -50 -49 -69q-27 -14 -48 -14q-17 2 -17 5v5q29 22 29 37v7q-7 41 -32 41q-37 0 -59 -35q-8 -16 -8 -43v-3q0 -97 82 -171q58 -46 127 -46h55q87 0 161 67q71 110 71 247v925q0 15 24 18q309 97 311 99zM622 1414q18 0 20 -21q0 -9 -12 -19v-1024q10 -11 10 -20
q-5 -19 -19 -19q-17 0 -20 21q0 8 17 20v935q-137 -39 -180 -74q-61 -51 -61 -120q4 -34 23 -34h10q16 0 16 24l-2 3q0 4 9 8q21 0 41 -30q9 -21 9 -35q0 -42 -37 -56q-12 -4 -25 -4h-4q-72 3 -88 50q-8 20 -8 37q0 120 120 201q35 20 156 54q0 2 21 7v57q-10 0 -14 19
q5 20 18 20z" />
    <glyph glyph-name="k" unicode="k" 
d="M1070 1827q30 0 100 -29q68 -37 99 -101q23 -54 23 -95q0 -88 -94 -126q-10 -1 -11 -1q-43 0 -75 56q-5 22 -5 32q0 44 35 76h6q4 -42 31 -42h2q30 0 40 60q0 86 -63 109q-38 18 -87 18h-20q-79 0 -166 -131q-45 -70 -55 -142q-36 -179 -36 -340q-17 -397 -17 -605l1 -2
q0 -59 -29 -160q-50 -141 -173 -278q-124 -115 -276 -115h-12q-128 0 -233 133q-42 62 -42 159v13q0 112 36 161q52 78 128 78q61 0 120 -58q27 -32 27 -71v-8q0 -81 -79 -114q-21 -6 -41 -6h-9q-8 0 -9 5v2q0 3 33 21q18 24 18 46v13q0 43 -40 59q-7 3 -34 6q-27 0 -55 -38
q-25 -48 -25 -123q0 -71 25 -107q60 -131 192 -131q85 0 171 64q127 84 177 239q13 122 13 264q0 125 -85 221v4q110 116 110 256v19q0 6 -139 33h-3q-15 -3 -15 -21v-14q0 -20 18 -32h1q11 0 26 24h2q1 0 5 -5q-19 -110 -85 -110q-47 0 -47 38q-6 23 -6 77v37q0 36 -29 36
h-6q-2 0 -24 -3l-1 3v4q41 52 88 52q22 0 106 -42q75 -32 110 -32v1q2 115 2 145q0 162 -131 277v3q7 5 108 44q93 38 164 106q126 87 222 87h17q1 0 1 1zM1086 1767q7 -1 17 -1v1q52 -14 76 -47q20 -31 20 -63v-17q0 -7 -3 -9h-4q-3 0 -4 7l1 7q0 77 -65 104q-14 5 -38 5
q-80 0 -145 -66q-32 -53 -59 -126q-24 -73 -24 -167q-4 -18 -8 -131q55 5 165 56q54 37 54 67v29q0 63 -45 83q-10 2 -17 2h-2q-45 0 -72 -46q-2 -11 -2 -18v-12q0 -28 48 -39h7q20 0 20 16v26q0 2 3 2h2q5 0 7 -18q0 -28 -21 -35q-5 0 -13 -4q-65 14 -65 59q0 35 31 57
q24 22 52 22h8q46 0 65 -61q5 -17 5 -45v-2q0 -60 -65 -93q-86 -43 -111 -43q-19 -8 -63 -17l-4 6q9 213 22 260q37 126 72 174q32 40 89 64q42 13 66 13zM1156 1428q33 -14 75 -81q34 -51 34 -166v-12q0 -157 -112 -242q-76 -66 -76 -69v-5q55 -14 81 -51q79 -93 86 -170
q0 -55 68 -82q15 -1 15 -5v-5q-83 -73 -83 -183v-22q0 -44 45 -118q35 -43 83 -43q23 0 28 3q7 -1 7 -3v-4q-50 -57 -98 -57q-55 0 -104 71q-98 167 -98 301q0 11 4 46q0 93 -56 208q-22 57 -78 57q-36 0 -75 -32q-60 -40 -65 -47v-38h1q80 73 126 73q70 0 95 -136
q10 -142 35 -259q32 -122 64 -181q36 -68 128 -101q27 -6 40 -6q76 14 106 39q32 19 46 64q22 28 22 91q0 60 -14 78q-41 49 -73 49q-66 0 -91 -41q-23 -24 -23 -53v-6q0 -52 78 -70q8 -2 12 -2q41 0 47 46v6q0 53 -32 62h-6q-25 0 -33 -32l1 -13l-3 -1h-2q-5 0 -8 14
q0 23 37 41q7 1 10 1q39 0 48 -66v-8q0 -43 -41 -57q-7 -3 -17 -3h-8q-48 0 -87 51q-9 23 -9 36q0 49 70 96q17 8 52 10q42 0 92 -62q10 -18 10 -77v-9q0 -72 -52 -138q-37 -39 -123 -55q-6 -3 -14 -3q-44 0 -115 49q-55 52 -73 96q-32 68 -63 221q-15 92 -24 202
q-23 114 -86 114q-47 0 -123 -79v-461q14 -13 14 -20v-2q-4 -20 -19 -20q-17 0 -20 20v2q0 7 14 20v969q-16 11 -16 20q0 18 23 21q18 -5 18 -21v-1q0 -6 -14 -19v-342q49 0 122 77q78 105 78 178q0 64 -30 101q-11 9 -23 9h-5q-33 0 -39 -31q-2 -29 -7 -29h-2q-4 0 -4 11
q7 57 36 57q7 5 19 5q56 0 68 -119v-3q0 -68 -69 -169q-55 -74 -135 -97l-9 -1v-45q87 36 182 138q33 40 56 129q5 29 5 50v16q0 98 -110 128q-12 0 -15 6q0 5 40 17q110 42 143 110q9 16 14 60zM559 1130q100 -20 100 -25l2 -2q0 -69 -86 -209q-3 0 -31 -33q-2 0 -23 -21
q27 -33 53 -78q52 -60 52 -249v-23l1 -9q-10 -95 -33 -149q-50 -105 -97 -164q-81 -78 -188 -78h-2q-103 0 -176 130q-22 46 -23 90q0 54 36 108q16 10 30 10q28 0 36 -43q0 -23 -15 -40h-3q-4 0 -4 3v1q9 22 9 33v7q0 25 -27 29q-33 0 -49 -88q-2 -5 -2 -22
q0 -105 115 -189q30 -16 67 -16h14q108 0 184 85q96 139 110 239l7 46q-3 17 -3 29v27q0 174 -54 236q-16 34 -49 69q-41 -18 -75 -18q-12 0 -19 23v1q0 30 44 30q24 0 50 -21h3q27 17 57 59q5 0 48 85q30 75 30 106q-39 11 -91 20l-1 3v4q0 1 3 4zM426 840q0 -9 8 -12h15
q26 0 50 15q-16 17 -42 17q-22 0 -31 -15v-5z" />
    <glyph glyph-name="l" unicode="l" horiz-adv-x="1256" 
d="M529 1434q75 0 111 -80v-1q0 -3 -3 -3h-3q-34 31 -77 31h-16q-38 0 -86 -24q-102 -91 -102 -287v-874q0 -97 -87 -204h-6q-3 0 -3 4q38 102 38 176v22q-5 95 -16 116q-27 102 -117 217v5q67 66 88 146q0 9 -2 9q2 45 2 66v191q0 73 -23 108q-22 51 -103 150q0 8 47 20
q59 25 110 74q21 31 68 62q106 76 180 76zM541 1351q8 -1 15 -1v1q25 -3 62 -28q34 -33 34 -80q0 -39 -24 -81q-52 -63 -103 -82q-67 -33 -105 -136q-14 -37 -14 -56v-640q0 -10 30 -31h10q9 0 93 79q11 8 156 137q100 62 170 62q112 -11 203 -70q63 -42 99 -170
q7 -33 7 -61v-1q0 -105 -109 -163q-41 -26 -94 -26q-62 0 -118 41q-49 56 -49 98q4 58 30 103q6 6 13 11q3 -2 5 -2v-4q-26 -27 -34 -80q-3 -23 -3 -28q0 -41 50 -95q51 -33 100 -33h17q71 0 149 79q31 45 31 92v23q0 61 -55 163q-48 67 -174 100q-47 11 -68 11
q-78 0 -173 -65l-235 -209q-9 -4 -15 -4q-10 0 -33 20h-3v-22q31 -29 39 -29h9q14 0 71 53q232 205 248 214q40 21 87 21h9q191 0 265 -179q10 -35 10 -68q0 -52 -60 -124q-61 -67 -120 -67q-56 0 -109 65q-14 40 -14 67q0 52 34 96h3q4 0 8 -44q19 -45 62 -67q16 -7 23 -7
h6q81 0 96 91q2 7 2 23v7q0 75 -76 105q-22 7 -41 7q-80 0 -210 -127q-5 -7 -46 -38q-81 -73 -81 -145q0 -23 6 -30v-3q-1 -4 -12 -4h-9q-76 0 -197 90h-3v-130q11 -11 14 -19q0 -16 -23 -21q-11 0 -19 19q0 11 17 22v1073q-16 12 -17 20q0 18 22 21q13 0 20 -19
q-1 -8 -14 -21v-111q4 4 20 43q41 83 139 126q71 54 71 98q1 0 4 22v16q0 69 -77 89q-11 1 -25 1q-60 0 -86 -59q-9 -22 -9 -53q0 -47 36 -56q6 -3 16 -3h5q57 7 57 43v7q0 27 -16 35l-7 2q-10 0 -26 -15h-3q-3 0 -3 3v3q16 19 32 19q29 0 34 -43v-10q0 -42 -60 -55l-8 -1
q-43 0 -63 40q-4 16 -5 32q0 92 84 120q3 0 25 3zM81 1193h3q94 -89 109 -132q36 -76 36 -177v-8q0 -105 -39 -230q-31 -77 -88 -113q49 -46 100 -143q61 -119 61 -145q9 -35 9 -74q0 -105 -64 -219h-4q-3 0 -3 3q59 116 59 210v19q0 86 -70 203q-27 56 -69 114
q-21 23 -39 29v5q1 3 24 13q54 29 87 143q24 105 24 170v39q0 158 -102 247q0 3 -37 40v3q0 3 3 3z" />
    <glyph glyph-name="m" unicode="m" horiz-adv-x="1984" 
d="M1642 1435l7 -2q20 2 21 2q157 0 234 -110q27 -36 40 -124q-17 -110 -108 -110q-67 0 -88 63q-3 17 -3 30v2q0 1 -2 1l2 4v5q3 44 10 44h3q27 -33 48 -33h10q23 0 32 50q0 40 -38 78q-44 28 -108 28h-7q-11 0 -33 -1v-621q-3 -12 -3 -13q3 -138 51 -176h3q53 13 73 13
q67 0 98 -64q-1 -4 -1 -5h-2q-34 15 -61 15q-98 0 -163 -122q-74 -96 -149 -96h-4q-54 5 -54 15v3q111 73 111 151v720q0 107 -78 107q-80 0 -140 -95q-53 -74 -114 -229q-14 -33 -27 -80v-79q6 6 40 101q140 347 226 347q53 0 68 -83v-606q0 -18 2 -48q0 -57 -39 -131
q-26 -33 -54 -50q-67 -51 -67 -98v-5q0 -9 7 -29q0 -4 -3 -4h-4q-7 0 -13 35q0 36 46 90q-1 0 -1 1q-9 -3 -35 -3h-7q-1 0 -1 -2q-33 6 -55 29q-23 28 -23 63q0 40 20 63q29 38 64 38q75 -10 75 -58q0 -67 -58 -67h-3q-29 0 -32 35q4 28 25 28q16 0 25 -16v-5q0 -3 -4 -3h-3
q-10 11 -11 11h-12q-8 -4 -8 -16q0 -22 23 -22q45 0 45 40v21q0 30 -55 39h-17q-61 -19 -61 -85v-8q0 -57 58 -73q102 0 134 68q20 28 30 101q-1 57 -1 83v592q0 29 -34 58q-13 3 -16 3h-10q-79 0 -231 -393q-30 -81 -30 -89v-782q14 -13 14 -21v-2q-3 -23 -24 -23
q-12 0 -21 21q6 24 18 24v1262q-18 15 -18 23q5 24 23 24q22 -6 22 -20v-2q0 -11 -14 -23v-58h2q28 41 113 123q121 95 239 119q33 7 86 12zM895 1410h5q0 -5 130 -150q129 -144 129 -157v-1110q0 -9 -5 -10h-3q-5 2 -45 63q-43 61 -56 75v892q0 3 3 17q0 125 -96 176
q-33 15 -78 15q-62 0 -106 -68q-38 -74 -38 -161q1 -36 1 -53v-493q0 -264 -43 -310q-64 -130 -93 -148q-103 -98 -138 -98q-75 -25 -112 -25h-45q-83 0 -173 75q-64 90 -64 141q-3 0 -7 40q0 44 25 112q57 75 108 75h5q101 0 136 -81q5 -30 5 -42q0 -35 -35 -69
q-28 -22 -55 -22q-35 1 -35 8v4q33 37 33 58v10q0 28 -48 40h-1q-41 0 -60 -52q-3 -6 -5 -33q0 -67 55 -169q59 -53 106 -53h5q172 0 244 112q88 117 88 193q0 9 -2 23q3 266 5 340q-2 81 -2 179v120q-24 119 -88 196l-43 36v3q3 5 62 29q105 51 210 134q92 88 117 134z
M884 1197q83 -12 83 -21q48 -30 48 -100v-10q0 -70 -55 -109q-11 -7 -45 -12q-42 0 -81 47q-10 29 -10 51q0 52 68 75h7q40 0 58 -43q0 -4 2 -7q-8 -38 -22 -38q0 -5 -23 -7q-32 7 -32 27q5 1 5 3l18 -17l10 -1h2q25 0 28 30v5q-9 36 -48 36q-35 0 -60 -48v-28q0 -59 75 -72
h2q55 0 78 54q11 28 11 61q0 82 -61 103l-55 8h-5q-86 0 -116 -169v-723q0 -229 -179 -377q-120 -88 -242 -88h-20q-153 0 -249 123v3q0 3 3 3h4q94 -117 252 -117q123 0 224 71q108 63 167 219q27 75 27 144v734q11 80 36 122q41 68 95 68z" />
    <glyph glyph-name="n" unicode="n" horiz-adv-x="1629" 
d="M441 1436h4q5 -1 5 -10v-209q0 -28 25 -28q9 0 43 24h3q5 -1 5 -10v-68q0 -10 -32 -26q-42 -29 -43 -34v-914q0 -107 89 -165q13 -11 36 -14v-2q0 -13 -31 -13q0 -3 -36 -5q-84 0 -134 85q-120 143 -201 143h-14q-14 0 -27 -14q-7 2 -7 9q16 49 50 49q17 7 54 7h19
q13 0 32 -2q56 40 56 123v231q0 79 -24 97q0 3 -17 14v4q48 43 48 73v460h-20q-66 0 -138 -65q-17 -25 -17 -50q0 -34 25 -51q3 -1 10 -1q23 4 45 34h3q22 -25 22 -58q0 -57 -80 -99q-15 -3 -27 -3q-69 0 -104 90q-5 21 -5 37q0 91 138 220q112 82 194 101q32 12 51 40z
M782 1370q121 -32 185 -106q54 -63 63 -126v-1108q0 -93 82 -188q75 -66 182 -66q79 0 140 65q77 58 77 172q0 64 -73 129q-22 19 -67 19q-76 0 -92 -43q-15 -31 -15 -49v-17q0 -49 58 -77q3 -2 8 -2h4q23 2 23 23l9 5h2q2 0 5 -5v-17q0 -28 -55 -65q-24 -7 -42 -7
q-66 0 -104 39q-29 51 -29 97v5q0 122 136 172q49 14 87 14q95 0 169 -100q42 -59 42 -144q0 -92 -73 -172q-89 -107 -199 -107q-165 0 -273 126q-70 93 -99 237l2 17v7q0 96 -65 128l-1 8v846q0 31 1 75q-19 132 -34 132q-9 18 -35 18q-23 0 -74 -39q-143 -96 -173 -119
v-26h5l208 147q17 7 30 7q44 0 44 -75v-992q43 -27 60 -59q10 -18 15 -107q22 -122 80 -196q71 -81 115 -96q82 -64 172 -64h6q11 -1 11 -5v-4q-2 -5 -11 -5q-95 0 -201 77q-112 62 -168 224q-22 73 -22 150q-14 45 -48 67q-22 8 -22 12v1013q0 34 -21 46h-20q-16 0 -95 -61
q-26 -15 -138 -97v-876q17 -11 17 -27q0 -14 -22 -20q-17 0 -24 22q0 11 15 25v1022q-17 14 -17 26q8 22 26 22q12 0 22 -22q-2 -13 -17 -26v-14h3zM320 1224q9 -3 9 -12v-387q0 -36 -38 -92q-12 -12 -30 -27v-4q19 -6 46 -42q6 -8 15 -41v-240q-13 -126 -77 -126
q-32 6 -32 12v3q0 4 5 4q15 -6 26 -6h5q48 0 59 101v245q0 56 -69 90v6l25 17q32 19 49 81q2 9 2 17v361h-5q0 -5 -29 -29v-1q26 -36 26 -80v-7q0 -98 -99 -150q-26 -5 -31 -5q-56 0 -107 53l5 6q53 -45 94 -45h12q63 0 107 93q5 21 7 51q0 52 -28 80q-21 -5 -32 -5h-3
q-20 0 -28 22q0 23 29 26q10 0 40 -26h3q25 13 39 50q0 3 5 7zM218 1169v-3q0 -3 7 -7h24l8 2v3q-3 6 -18 15h-11q-10 0 -10 -10z" />
    <glyph glyph-name="o" unicode="o" horiz-adv-x="1322" 
d="M559 1471q162 0 307 -101q80 -77 144 -178q48 -62 117 -292q13 -41 23 -156q20 -82 57 -115q15 -13 54 -20v-5q0 -5 -33 -6q-37 -15 -61 -72q-17 -43 -23 -125q-17 -82 -42 -152q-76 -185 -221 -254q-6 2 -6 5v1q0 3 56 35q123 83 186 297q15 59 23 142q10 68 62 121
q12 8 16 8v3q-50 34 -69 101q-14 38 -22 139q0 48 -99 295q-39 69 -137 190q-64 71 -203 109q-58 17 -124 17h-5q-140 0 -241 -60q-81 -34 -116 -117q-9 -26 -9 -48v-23q0 -55 54 -74q9 -2 15 -2h18q10 -1 10 -5v-3q-2 -5 -10 -5h-10q-62 0 -86 64q-5 22 -5 38q0 96 104 170
q120 69 228 76q43 2 48 2zM553 1443q183 -25 183 -41q111 -74 160 -116q49 -50 104 -148q28 -42 78 -194q33 -110 33 -209q0 -51 46 -113l21 -15v-3q0 -2 -23 -10q-25 -22 -39 -101q0 -56 -50 -222q-50 -101 -89 -146q-84 -85 -134 -99q-121 -53 -205 -53h-26v-69
q17 -9 17 -20q0 -17 -25 -23q-22 8 -22 23q0 11 17 20v69h-2q-193 0 -282 73q-101 64 -134 167q-61 118 -61 218q-10 80 -10 148q14 197 25 197q7 59 77 213q93 119 141 137q58 36 99 41q29 12 74 22l73 -4v17q-41 0 -58 51v7q15 69 69 69h4q127 0 226 -190q71 -233 71 -350
q5 -38 8 -129q0 -168 -39 -389q-34 -116 -126 -195q-44 -39 -97 -45l-45 -5v-13h2q197 0 257 145q30 38 53 149q22 76 22 175v158q-16 369 -28 369q0 50 -75 204q0 31 -99 123q-50 46 -89 49q-52 13 -79 13q-116 0 -182 -34q-63 -28 -112 -108q-5 -14 -5 -24v-2
q0 -30 21 -58q-13 -18 -38 -18q-28 0 -46 43q-3 8 -3 12q0 48 31 95q82 82 126 94q79 45 185 45zM554 1265v-10q11 -40 37 -40h8v18q-17 14 -17 23q7 24 23 24q24 -8 24 -24q0 -9 -17 -23v-157q64 -34 64 -107q0 -43 -64 -74v-76h2q48 9 109 63q59 61 59 142q2 0 2 5v21
q0 49 -48 168q-62 98 -111 98h-25q-32 0 -46 -51zM691 1294q70 -78 78 -130q28 -90 28 -122v-17q-12 -84 -38 -117q-51 -72 -142 -101q-5 0 -5 -3v-562q2 -4 26 -14q40 -22 40 -70v-13q0 -44 -54 -61q-12 -1 -12 -5v-40h2q95 0 145 58q60 58 76 94q45 92 45 152
q26 168 26 319q0 265 -88 497q-27 51 -84 107q-18 18 -38 28h-5zM280 644q3 -144 3 -160q0 -6 -3 -47q12 -160 27 -188q38 -117 74 -160q47 -68 135 -68q13 -1 83 -5v7q-1 3 -51 15q-31 10 -52 46q-13 27 -13 48q0 63 58 101q31 11 58 11v562h-2q-87 0 -127 72
q-10 29 -10 56q0 104 96 141q20 5 28 5l15 -2v73q0 3 -3 3h-19q-98 0 -130 -36q-23 -10 -78 -70q-89 -142 -89 -404zM473 944v-24q0 -72 86 -98q20 -3 32 -3h8v244q0 3 -3 3h-17q-68 0 -102 -89q-4 -23 -4 -33zM612 1060v-150q51 21 51 52v10q0 66 -49 88h-2zM496 142v-23
q0 -29 42 -65q49 -16 61 -16v43q-55 12 -55 49q9 56 55 56v45h-8q-73 0 -93 -74q-2 -9 -2 -15zM612 226v-132h2q53 10 53 53v3q0 48 -24 61q-24 15 -31 15zM556 127q0 -25 41 -33h2v79h-7q-36 -6 -36 -46z" />
    <glyph glyph-name="p" unicode="p" horiz-adv-x="1235" 
d="M841 1434q212 0 282 -225q29 -110 29 -201v-24q0 -107 -31 -221q-76 -160 -111 -188q-122 -67 -186 -75q-90 -17 -136 -17h-21q-13 0 -40 2v-120q0 -153 -2 -461q17 -12 17 -24q0 -21 -28 -25q-22 6 -22 25v2q5 22 18 22q0 31 2 151q0 365 4 1051q-12 0 -19 22
q4 26 26 26h2q18 0 24 -26q0 -12 -18 -22q-2 -128 -2 -194v-331q9 0 31 -2q199 0 264 212q18 75 18 151v18q0 209 -66 317q-45 54 -89 54h-9q-63 0 -83 -78v-18q0 -32 42 -37h4q29 0 33 50q1 3 4 3h4q2 0 5 -7q-6 -59 -48 -59h-15q-27 0 -44 50v7q0 39 37 79q36 24 65 24
q62 0 112 -73q63 -116 63 -323q0 -285 -194 -366q-52 -17 -88 -17h-46q-2 -13 -2 -15q2 -3 2 -5q59 3 123 3h2q76 0 136 52q74 83 74 164q26 199 26 286q0 195 -135 315q-31 11 -48 11h-27q-92 0 -159 -67q-61 -71 -61 -223q0 -195 -5 -1054q2 -48 2 -64q0 -144 -72 -317
q-34 -70 -50 -70q-4 0 -4 4q4 45 4 71v91q0 188 -212 306l-26 13v3q6 7 56 20q79 39 116 133q35 83 35 266v5l-2 13h-85q-18 0 -22 -30v-7q0 -25 31 -35h4q18 0 33 24h4l6 -5q0 -55 -32 -109q-39 -35 -72 -35q-50 0 -86 151q-20 22 -41 22h-24q-18 -4 -20 -4l-2 4v2
q0 34 81 64q71 15 131 15q76 -2 88 -5q4 1 6 1q4 56 4 96v68q0 190 -65 264q-66 92 -131 92q-35 0 -81 -22l-3 5q46 80 105 80q8 0 42 -2q64 0 133 53q136 153 154 153q108 78 177 78q49 9 104 9zM168 348h4q4 -4 24 -47q29 -39 55 -39h16q36 0 94 51h4q3 0 8 -9
q-28 -98 -91 -149q-54 -55 -158 -90v-2q59 -8 142 -81q130 -144 130 -262q0 -43 -23 -101q-37 -50 -93 -50h-1q-31 0 -67 53q-3 17 -3 24q0 62 64 83q1 0 11 2q26 0 48 -48q0 -2 2 -5q-20 -43 -52 -43q-7 3 -7 6v4q1 3 27 11q17 13 17 24q-14 36 -33 36h-4q-48 0 -59 -66
v-11q0 -34 52 -55h15q46 0 75 49q17 46 17 83v11q0 107 -124 244q-86 79 -151 79h-18q-10 0 -15 9v4q0 5 50 16q134 45 195 137q33 53 33 68v2h-3q-49 -39 -89 -39q-66 0 -96 96v2q1 3 4 3z" />
    <glyph glyph-name="q" unicode="q" horiz-adv-x="1855" 
d="M901 1470q245 0 361 -148q109 -126 145 -226q62 -216 62 -280q19 -80 49 -102q8 -7 37 -13v-7q0 -5 -39 -13q-36 -22 -53 -78q-16 -53 -16 -161q-19 -133 -137 -307q18 -20 148 -111q142 -93 232 -93q66 0 87 51q4 19 4 25q0 50 -49 61h-22q-33 -5 -33 -33q0 -51 37 -51
h5q4 0 15 23h3q4 0 4 -3v-4q-6 -31 -26 -31q-51 12 -51 51v13q5 47 48 47q0 2 11 2q62 0 71 -76v-2q0 -59 -71 -82q-15 -4 -31 -4h-11q-120 0 -386 210q0 4 -2 4q10 20 37 58q104 159 104 301q0 140 70 196q10 7 14 7v4q-39 28 -56 98q-10 40 -19 115q-53 222 -93 272
q-45 80 -142 179q-109 94 -300 94h-14q-61 0 -105 -19v-3q35 3 75 3h6q192 0 285 -71q127 -72 199 -268q23 -57 23 -104q25 -201 66 -258q3 -14 33 -42v-4q-24 -11 -29 -16q-28 -24 -46 -205q-6 -78 -82 -252q-11 -27 -58 -89v-4q166 -104 253 -171q107 -55 190 -55h2
q81 0 104 64q13 34 13 78l4 2h3q28 0 55 -119q2 -28 2 -58v-9q0 -89 -95 -119q-14 -5 -55 -9q-115 0 -268 121q-36 43 -124 126q-80 70 -132 104q-162 -136 -367 -136h-2v-74q13 -14 13 -26q0 -18 -26 -24q-23 9 -23 28q0 10 22 25v64h-2q-173 -86 -205 -86
q-110 -33 -206 -33h-24q-244 1 -318 158q-16 49 -16 85q0 106 111 203q61 33 114 53v2q-39 123 -39 235q-7 56 -29 97q-22 27 -38 35q-2 0 -2 2v3q0 5 18 8q59 54 59 144q24 180 74 263q50 109 123 184q87 65 171 101q52 22 132 40q55 40 148 40zM707 1322q0 -124 103 -124
h5q14 0 15 6v74q-17 13 -17 24q6 26 24 26q26 -6 26 -26q0 -11 -19 -25v-68q54 21 79 68q7 16 13 47h5q3 0 6 -9q0 -58 -79 -110q-24 -10 -24 -14v-873q120 -33 208 -75q93 -49 95 -49q28 40 64 191q20 84 20 220q0 380 -25 456q-51 170 -154 278q-55 54 -160 54h-33
q-137 -3 -137 -16q-15 -29 -15 -55zM428 763v-62q0 -164 27 -348h2q59 3 86 3h11q120 0 276 -33v860h-8q-86 0 -118 68q-11 46 -11 58q0 28 12 64h-1q-33 -2 -99 -62q-177 -198 -177 -548zM470 298v-2q0 -7 7 -13q15 3 44 6q253 -26 309 -53v23q-31 16 -161 35q-79 7 -124 7
q-19 0 -75 -3zM479 270v-1q10 -53 80 -174q74 -102 236 -102h35v224q-23 27 -232 50l-79 7q-19 0 -40 -4zM844 256v-263h2q99 0 214 80q42 36 58 64v2q-91 60 -268 119q-4 -2 -6 -2zM189 62v-9q0 -86 155 -150q42 -14 98 -14h19q106 0 244 51v2q-141 25 -231 93
q-114 98 -141 162q-7 11 -9 11q-50 -21 -93 -82q-15 -26 -15 -46v-9q0 -82 142 -128v-5q0 -4 -5 -4q-100 28 -135 84q-16 33 -17 57q0 68 115 148q-7 25 -12 25q-71 -33 -106 -120q-9 -28 -9 -66z" />
    <glyph glyph-name="r" unicode="r" horiz-adv-x="1302" 
d="M836 1437q211 0 281 -223q29 -110 29 -200v-24q0 -106 -31 -220q-77 -162 -103 -177q-21 -26 -119 -63v-2q240 -80 240 -328v-86q0 -186 42 -220q30 -32 77 -53l2 -3v-4q-115 -123 -115 -227v-9q0 -10 -6 -11h-4q-155 123 -155 493q1 96 9 159q0 152 -110 222
q-72 31 -152 31h-75l-22 -2v-22q18 2 27 2h11q201 -1 253 -108q13 -34 13 -68v-2q0 -60 -37 -81q-17 -11 -35 -11q-44 0 -60 44q-4 8 -4 21v1q0 33 37 48q44 -10 44 -42q-2 -17 -7 -17h-4q-4 0 -4 4v24q-9 16 -31 16q-22 -10 -22 -31v-2q0 -35 31 -49q16 -4 22 -4
q46 0 55 63v29q0 115 -165 145q-32 5 -69 5h-46l-9 -2v-78q0 -153 -2 -459q16 -12 16 -23q0 -22 -27 -26q-22 7 -22 26v1q6 22 18 22q0 31 2 151q0 362 4 1044q-12 0 -19 22q4 26 26 26h2q18 0 24 -26q0 -12 -19 -22q-1 -127 -1 -192v-330q9 0 31 -2q197 0 262 211
q18 75 18 150v18q0 208 -66 316q-45 53 -88 53h-9q-63 0 -83 -77v-19q0 -31 43 -36h3q29 0 33 49q1 4 4 4h4q2 0 5 -7q-6 -59 -48 -59h-14q-28 0 -44 49v8q0 38 36 79q36 23 65 23q62 0 111 -73q63 -115 63 -321q0 -283 -193 -364q-52 -17 -88 -17h-45q-2 -13 -2 -14
q2 -4 2 -6q59 4 122 4h2q76 0 136 51q73 83 73 163q26 198 26 284q0 194 -134 313q-31 11 -48 11h-27q-91 0 -158 -65q-60 -72 -60 -222q0 -194 -6 -1048q2 -48 2 -64q0 -144 -71 -316q-34 -69 -50 -69q-4 0 -4 3q4 46 4 72v90q0 186 -211 304l-25 13v3q5 7 55 21
q79 38 115 131q35 83 35 264v6l-2 13h-84q-18 0 -22 -30v-7q0 -25 31 -35h4q17 0 33 24h3l6 -5q0 -55 -31 -109q-40 -34 -72 -34q-50 0 -86 150q-20 22 -40 22h-24q-18 -4 -20 -4l-2 4v2q0 34 81 64q70 14 130 14q75 -2 88 -5q3 2 5 2q4 56 4 95v68q0 189 -64 262
q-66 91 -130 91q-36 0 -81 -22l-4 6q46 79 105 79q9 0 42 -2q64 0 132 53q135 152 154 152q107 77 176 77q48 9 102 9zM167 358h4q4 -4 24 -48q29 -38 55 -38h16q36 0 94 51h4q2 0 7 -9q-28 -98 -90 -148q-54 -55 -158 -90v-2q59 -8 142 -81q130 -142 130 -260
q0 -43 -24 -101q-37 -49 -92 -49h-2q-30 0 -66 53q-3 17 -3 24q0 61 64 82q1 0 11 2q26 0 48 -47q0 -2 1 -6q-20 -42 -51 -42q-7 3 -7 5v4q1 3 27 11q17 13 17 24q-15 37 -33 37h-4q-48 0 -59 -66v-11q0 -34 52 -55h14q46 0 76 49q16 46 16 83v11q0 105 -123 241
q-86 79 -150 79h-18q-10 0 -15 9v4q0 6 49 17q134 43 195 135q33 53 33 68v2h-4q-48 -39 -88 -39q-65 0 -95 96v1q0 4 3 4z" />
    <glyph glyph-name="s" unicode="s" horiz-adv-x="1059" 
d="M592 1425q88 -116 198 -116h2q43 0 97 22h2q3 0 3 -3v-2q-70 -173 -183 -173q-102 0 -231 148h-5q-128 -93 -128 -163v-25q0 -74 143 -151q4 0 23 -9v148q-18 8 -18 22q5 23 22 23q23 -4 23 -23q0 -9 -13 -22v-119q9 -9 104 -62q42 -24 104 -93q143 -134 156 -166
q52 -59 52 -280q0 -144 -153 -307q-88 -76 -181 -91q-87 -11 -87 -19v-47q11 -23 11 -26q0 -13 -21 -22q-24 4 -24 23v2q0 12 20 23v44h-2q-55 -20 -55 -55v-15q0 -46 42 -69q6 -4 13 -4h11q33 0 67 71h5q3 -1 3 -3v-2q-36 -79 -80 -79q-53 0 -73 77q0 2 -1 17q0 46 70 77
v15h-8q-276 0 -354 192q-24 69 -24 132v12q0 101 27 113q85 82 200 82q70 0 161 -44h2v27q-31 21 -89 35q-38 9 -78 9q-99 0 -189 -51h-2q-3 0 -3 4v3q0 8 70 35q5 0 5 4v1q-87 23 -87 128q0 63 54 81q21 3 23 3q52 0 86 -52q5 -15 5 -22q-8 -62 -61 -62q-46 0 -60 34
q0 5 -2 5q0 23 40 37q26 -7 26 -22q0 -4 -4 -4h-3q-10 12 -17 12h-3q-25 -7 -25 -22v-1q0 -21 42 -26h16q37 8 37 42v12q0 39 -67 56h-17q-36 0 -52 -34q-5 -16 -5 -29v-18q0 -84 72 -106l21 -2h28q2 0 2 2l3 -2q31 6 67 7q74 0 167 -40v211q-128 74 -242 158
q-101 77 -101 141v9q0 93 133 176q277 203 288 208h2zM527 963l-2 -3v-12q0 -10 34 -28q92 -66 219 -188q133 -126 133 -294q0 -199 -161 -332q-51 -53 -69 -56q-47 -27 -139 -50q-20 -2 -20 -7v-12q133 19 174 44q117 47 210 237q24 56 24 109v47q0 207 -74 270
q-2 12 -190 193q-68 49 -139 82zM525 722l-3 -672q67 0 176 69q87 68 87 171v4q0 1 -1 1l1 4v35q0 129 -166 309q-84 79 -94 79zM181 270q4 -58 62 -136q80 -87 216 -87h17q11 0 34 1v209q-77 102 -160 102h-13q-79 0 -156 -87v-2z" />
    <glyph glyph-name="t" unicode="t" 
d="M1047 1526q60 0 79 -93q-14 -52 -24 -52q-52 -44 -116 -44q-98 0 -225 101q-16 14 -16 16v3q1 4 4 4h3q130 -111 228 -111h15q62 0 107 49q10 22 10 37v6q-4 32 -31 60q-15 9 -26 12q-46 0 -55 -21q-5 -15 -5 -20v-21q0 -11 14 -19h17q12 0 23 12h3q3 0 3 -3v-6
q-12 -17 -38 -17q-30 0 -36 42q8 65 52 65h14zM1235 1452h3q3 -1 3 -3v-2q-54 -134 -208 -219q-84 -38 -112 -38h-12q-57 0 -219 33v-619q0 -205 -67 -296h-4q-3 0 -3 3q10 62 10 92q0 162 -162 230q-8 2 -8 6v3q0 5 43 9q63 21 98 86q35 80 35 153v2q0 148 -63 227
q-85 -77 -132 -156q-98 -168 -98 -331q0 -184 108 -331q67 -91 214 -131q38 -7 86 -12v71h-7q-43 0 -50 53q12 64 57 64v732q-17 14 -17 26q0 14 22 22q24 -4 24 -24v-2q0 -7 -15 -22v-731q43 0 86 -34q17 -22 21 -47q0 -84 -90 -113q-1 0 -17 -5v-43h1q267 0 402 213
q40 70 62 162q9 39 17 102l5 5h4q3 0 5 -10q0 -240 -140 -405q-90 -91 -155 -121q-114 -53 -141 -53q-58 -15 -60 -18v-148q15 -13 15 -22v-2q-3 -24 -24 -24q-13 0 -22 22q0 13 17 26v148q-25 -3 -38 -3h-9q-134 0 -284 78q-159 90 -234 305q-38 124 -38 232v38q0 6 -2 16
q12 92 40 162q92 215 313 317q6 3 11 3h1q4 -1 4 -3v-4q-98 -98 -138 -181q-72 -155 -72 -286v-38q0 -210 132 -370q94 -92 167 -112q78 -29 144 -29h3v41h-7q-119 14 -181 48q-133 73 -193 228q-41 117 -41 210q0 183 129 377q32 46 107 121q-1 6 -36 32v4q2 4 34 14
q37 16 69 58v4q-305 81 -358 81q-131 0 -167 -135q-3 -20 -7 -20h-4q-5 1 -5 10v5q0 131 150 191q77 25 160 25q57 0 252 -28h10q62 6 62 41q0 13 5 14h4q114 -105 241 -105h5q135 0 259 131zM704 270q9 -29 31 -29h12v91q-3 0 -3 2q-38 -8 -38 -50q-2 -10 -2 -14zM761 334
v-173q56 14 79 45q14 20 14 67q0 30 -45 50q-25 11 -48 11z" />
    <glyph glyph-name="u" unicode="u" horiz-adv-x="1388" 
d="M345 1434h4q47 -16 84 -72q61 -100 61 -258v-16q0 -240 -134 -652q-5 -20 -5 -49q0 -199 246 -316q9 -1 16 -1h55q197 0 258 102q33 42 57 102q19 51 19 79v68q-4 -5 -31 -86q-34 -90 -95 -167q-57 -69 -156 -69h-42q-134 0 -162 87q-4 0 -9 39q0 46 34 92q28 16 53 18
q52 0 62 -69v-5q-12 -60 -51 -60q-45 0 -45 43q4 33 26 33q6 -3 6 -5v-3q-16 -8 -19 -13v-20q0 -22 26 -22h11q34 11 34 45v5q-7 58 -44 58h-9q-49 0 -65 -53q-6 -24 -6 -46q0 -54 55 -93q42 -20 115 -20q107 0 137 29q70 56 100 130q26 43 59 145q16 53 16 65v806
q-14 14 -15 23q0 15 21 23q17 0 25 -21q-3 -12 -15 -25q89 -168 196 -168h13q2 0 2 2q8 -2 8 -5v-3q0 -5 -23 -7q-100 0 -197 157h-2v-1201q13 -13 14 -21q-4 -23 -21 -23h-3q-14 0 -21 21q0 14 18 21v120h-5q-51 -94 -189 -144q-68 -21 -140 -21h-11q-83 0 -126 24
q-75 27 -190 102q-96 97 -121 97q-28 15 -87 28l-2 3v2q0 7 32 40q92 118 125 209q84 198 84 387v37q0 208 -99 334q-37 35 -61 35h-20q-28 0 -64 -47h-4q-2 0 -4 7q0 38 48 79q31 19 94 34q46 23 79 50zM198 1274q111 0 128 -149q21 -112 21 -223q0 -340 -220 -612l-44 -47
v-3h2q48 6 65 6h1q64 0 178 -121q120 -93 219 -112q8 -1 8 -5v-3l-5 -5q-167 43 -277 164q-73 71 -126 71q-9 0 -92 -12l-2 4v3q87 83 142 173q138 232 138 494v11q0 171 -39 297q-27 58 -113 58q-16 0 -31 -34v-12q0 -25 54 -40h4q18 0 18 26q-5 11 -14 11h-4q-8 0 -24 -1
l-1 8q12 6 24 6q31 -3 31 -29h1q-9 -34 -32 -34q-35 0 -68 45l-2 15q0 26 39 50h21zM1046 1187h4q56 -112 141 -112q22 2 29 2l3 -7q-76 -197 -76 -408q0 -206 78 -379q1 0 1 -1v-4q-61 -53 -61 -93v-17q17 -68 66 -68q43 0 94 57q8 -2 8 -11q0 -88 -89 -117
q-32 -10 -62 -10q-106 0 -131 161q-9 102 -9 137v860q1 10 4 10z" />
    <glyph glyph-name="v" unicode="v" horiz-adv-x="1343" 
d="M501 1546q24 -7 24 -24q0 -10 -17 -24v-1142q17 -9 17 -23q-7 -22 -25 -22q-13 0 -23 22q0 14 17 23v1142q-17 14 -17 24q8 24 24 24zM450 1484q7 -2 7 -12v-1108q0 -3 -4 -17q0 -87 81 -196q80 -82 127 -99q0 -2 29 -15q164 79 235 235q22 61 22 82v1050q0 9 9 13h3
q48 -65 126 -108q58 -26 61 -32q-44 -363 -44 -642v-26q0 -257 49 -363v-2q-3 -4 -56 -19q-78 -29 -199 -108q-80 -54 -199 -149h-4q-179 164 -420 249q-30 10 -32 13q66 199 66 232q45 196 45 400q0 229 -55 437q-13 19 -39 19q-49 0 -91 -45q-76 -57 -76 -106v-27
q15 -62 54 -62q15 0 15 22v22q0 4 -2 7q0 9 23 11q25 0 53 -60q7 -27 7 -37q0 -49 -54 -66q-21 -6 -37 -6q-99 0 -124 90q-5 12 -5 34v19q63 178 172 237q168 51 204 73q34 28 46 60h7zM1182 1261h4q3 0 3 -5q-53 -310 -53 -518v-67q0 -271 79 -444v-5q0 -5 -60 -12
q-168 -46 -388 -225q-60 -49 -60 -55v-2q17 -26 17 -49v-2q0 -26 -17 -36h-3q-28 0 -28 48q0 14 12 45q-33 42 -87 80q-94 67 -173 103q-97 46 -196 77q-3 0 -3 4v3q0 4 3 4h2q35 0 242 -98q111 -58 209 -149q11 -14 15 -14q116 99 206 159q172 111 292 126l-29 87
q-47 166 -47 379v17q0 244 57 548zM695 -82q-5 -15 -5 -20v-18q0 -27 12 -27q9 0 10 26q-6 39 -13 39h-4z" />
    <glyph glyph-name="w" unicode="w" horiz-adv-x="1346" 
d="M1241 1645h84q6 0 11 -6q-90 -96 -108 -96q-65 0 -78 -44q-9 -4 -12 -159q4 -639 4 -862q0 -44 48 -86q9 -8 32 -15q0 -3 1 -3q0 -6 -43 -19q-133 -55 -249 -161q-49 -56 -138 -192q-1 0 -1 -2q-3 0 -8 6q-2 88 -2 140v382h-21v-286q16 -13 16 -22q0 -17 -24 -23
q-21 9 -21 23q0 9 16 22v286h-21v-382q0 -52 -1 -138q0 -2 -7 -8q-5 0 -69 101q-42 63 -99 119q-105 84 -180 114q-37 20 -84 35q0 3 -1 3q0 6 30 16q35 24 49 73q3 13 3 16q1 506 1 806v29q0 1 -1 1l1 3v16q0 68 -85 68h-3q-113 0 -152 -93q-4 -6 -4 -10v-11q9 -74 65 -74
h20q48 13 69 43q5 7 7 26h5q22 -31 22 -61q0 -74 -99 -114q-20 -3 -28 -3q-75 0 -151 83q-14 36 -14 57v11q0 68 100 139q65 37 146 37h17q152 0 199 -106q4 -10 12 -45v-908q7 -51 80 -129q90 -89 109 -123h5v21q0 9 -61 65q-27 30 -103 110q-8 23 -8 41q0 39 40 55
q8 3 11 3q33 0 41 -46v-5q0 -34 -33 -34q-17 0 -17 16v5q0 17 8 22l6 -4l-1 -8v-16q0 -4 3 -4h3q19 0 19 24q0 37 -29 37h-1q-29 0 -37 -38v-15q0 -30 35 -61q96 -101 121 -123h3v364h-60q-2 0 -4 5v34q0 2 4 4h60v248q0 8 32 41h3q1 0 5 -4q-2 -56 -2 -81v-204h21v583
q-16 13 -16 24q8 21 23 21q14 0 22 -21q0 -11 -16 -24v-583h21v204q0 29 -2 79q3 6 5 6h3q32 -33 32 -41v-248h60q2 0 5 -4v-34q0 -2 -5 -5h-60v-364h4q154 153 154 167q1 11 1 17v15q-8 38 -37 38h-1q-29 0 -29 -40q0 -21 19 -21h3q4 0 4 4v16q0 3 -2 6l5 6q8 0 9 -22v-5
q0 -16 -17 -16q-32 0 -32 34v3q0 37 37 48h3q50 -14 50 -50q1 -2 1 -11q0 -41 -27 -58q-72 -76 -145 -152v-24h5q17 31 140 157q46 60 50 95v961q0 228 146 293q53 20 80 20zM1374 1641h21q12 0 13 -7q-1 -6 -13 -6h-24q-12 0 -120 -121q-21 -8 -58 -17q-24 -28 -24 -87
l5 -50l-2 -9q-6 -479 -6 -607v-64q0 -197 24 -212q22 -45 80 -71v-5q0 -3 -3 -3h-2q-49 16 -82 67q-30 29 -30 209v48q0 103 6 631l2 26q-2 1 -3 51q4 76 40 90q42 7 59 23q30 41 104 110q6 4 13 4zM344 1146h3q2 0 5 -6q5 -247 5 -438q0 -220 -23 -238q-21 -44 -67 -72
q-16 -10 -23 -10h-1q-4 0 -4 3v3q1 3 34 20q44 29 64 96q7 49 7 169v64q0 138 -4 374l-1 11q-4 0 -50 -32q-54 -29 -98 -29h-1q-66 0 -118 48v3q1 4 4 4t45 -28q32 -14 59 -14h18q70 0 146 72z" />
    <glyph glyph-name="x" unicode="x" horiz-adv-x="1796" 
d="M489 1440h3q2 0 14 -34q33 -67 106 -139q76 -63 144 -72q30 -29 176 -198l107 -120h3q272 343 318 407q2 3 2 8v20q0 2 -3 17v2q0 3 3 3l8 -2q58 8 152 12q134 0 173 -47q53 -28 77 -99q6 -26 6 -43v-14q0 -69 -72 -92q-14 -1 -21 -1q-59 0 -78 54l-2 8q0 29 40 59h3
q4 0 8 -24q11 -9 18 -9h5q19 0 24 33v20q0 63 -106 103q-12 2 -27 2h-2q-80 0 -131 -59q-6 -11 -91 -120q-2 -12 -35 -45l-208 -265q6 -11 24 -28q13 10 150 188q15 14 151 187h4q4 -1 4 -3q0 -9 -88 -114q-28 -38 -213 -267q27 -33 451 -514q37 -20 69 -20q5 -7 5 -10
q-7 -224 -21 -224q-9 0 -37 74q-30 66 -96 132q-69 59 -128 64l-811 938q-21 35 -77 35q-6 4 -6 11v181q0 2 5 5zM565 1173q15 0 23 -21q-3 -12 -3 -18l855 -969l4 -2l9 2q21 -6 21 -21t-21 -22q-22 4 -22 20q1 9 1 15l-441 500h-3q-290 -366 -301 -383q-11 -28 -11 -52v-16
q0 -10 1 -32l-3 -1q-21 5 -30 5h-18q-58 0 -204 -56q-58 -16 -93 -16h-16q-82 0 -143 51q-62 59 -62 197v1q0 108 59 141q60 57 104 57q60 0 98 -62q3 -16 3 -21q0 -66 -34 -96q-37 -19 -54 -19q-25 0 -45 21v3q2 4 35 21q16 12 16 26v7q-4 42 -28 42h-12q-63 0 -83 -93
l-3 -35q2 -8 2 -16v-22q16 -79 48 -104q63 -35 118 -35h3q47 0 127 38q112 92 214 198l251 322q-20 27 -352 401h-6q-2 0 -2 -1q-17 0 -22 24q0 12 20 21zM1015 590h2q57 -7 57 -56v-11q0 -24 -38 -24h-2q-25 11 -25 29q0 14 16 25h3q3 0 3 -3v-3q-11 -11 -11 -18v-6
q6 -9 11 -11h16q16 0 16 13v4q0 50 -48 50q-34 0 -67 -50q-45 -51 -189 -233q-42 -44 -42 -101v-27q0 -53 21 -53q35 -26 35 -38q-4 -19 -17 -19h-2q-21 0 -38 51q-4 21 -88 29h-11q-78 0 -162 -77h-3q-3 0 -3 3v3q16 19 21 19v5h-2q-78 -19 -144 -19h-37q-71 0 -139 58
q-72 73 -72 204v5q0 66 14 114h5q3 0 3 -5q-9 -57 -9 -91v-40q0 -140 101 -205q56 -29 91 -29q1 0 5 2q14 -2 17 -2q149 0 248 53q41 14 75 14q33 0 80 -17h3q-4 30 -4 49q0 76 51 127q138 178 222 270q13 11 37 11zM730 106q0 -2 -1 -2q5 -20 24 -35h3q6 3 6 8
q-10 19 -32 29z" />
    <glyph glyph-name="y" unicode="y" horiz-adv-x="1206" 
d="M320 1564q179 0 252 -164q5 -12 5 -16v-551q0 -7 -2 -19q32 -133 102 -133h154v16h-123q-73 0 -100 77q-8 35 -8 68v518q1 10 5 10h3q6 -2 6 -10v-530q0 -90 57 -114q18 -5 49 -5h111v766q-18 12 -20 24q5 25 25 25q23 -6 23 -23q0 -10 -14 -24v-1041q14 -12 15 -23
q-5 -25 -22 -25q-25 5 -25 25q5 21 18 21v163h-221q-9 0 -31 31q-67 52 -130 70v5q1 4 4 4h1q102 -30 156 -96h221v22h-198q-8 0 -40 37q-48 35 -90 51q-52 10 -54 14q-2 3 -2 7v728q0 41 -98 59h-7q-61 0 -154 -38q-50 -43 -50 -74v-19q0 -34 47 -61q28 -11 45 -11
q50 0 70 60l2 8h5q11 0 18 -66v-2q0 -98 -154 -122q-69 0 -116 64q-24 46 -24 91q5 59 65 125q96 78 224 78zM1065 1437h4q3 -1 3 -4v-3q-63 -62 -63 -163v-768q-12 -103 -28 -163q-54 -182 -166 -255q-109 -81 -210 -81q-134 0 -236 152q-34 61 -34 126q0 58 35 128
q65 74 126 74q47 0 95 -48q23 -52 23 -82q0 -69 -95 -87q-2 0 -9 7q32 40 32 57v7q0 30 -46 42h-12q-40 0 -54 -38q-9 -24 -9 -47v-18q11 -80 63 -157q16 -17 74 -34q46 -8 77 -8h3q109 0 193 134q43 98 43 181h2q-2 93 -2 148v807q0 20 30 23q109 31 144 57zM1116 1412
q3 -2 5 -2v-5q-53 -43 -63 -86q-5 -26 -5 -43v-779q0 -74 -63 -250q-37 -80 -88 -145q-83 -88 -143 -109q-31 -17 -131 -33h-30q-195 0 -285 226q-23 103 -67 103h-14q-47 -12 -47 -33v-34q0 -12 28 -31h9q23 0 28 30v5q0 8 -14 19v4q0 3 3 3q19 0 23 -30q-6 -45 -44 -45
q-47 19 -47 58q0 45 17 45q24 23 53 23q59 0 84 -116q51 -135 147 -183q60 -30 112 -30h37q15 0 91 14q77 22 154 91q96 106 133 227q40 131 40 182v774q0 102 77 150z" />
    <glyph glyph-name="z" unicode="z" horiz-adv-x="1413" 
d="M1000 1437h10q40 -3 40 -7v-6q-40 -51 -326 -441v-71h2q1 0 292 398q49 44 87 44q47 0 75 -64q3 -11 3 -17q0 -28 -33 -49q-25 -6 -29 -6q-50 9 -50 33q-2 8 -2 15v2q5 41 30 41q0 1 8 3q21 -4 21 -22v-2q0 -3 -3 -3h-3q-7 14 -14 14h-1q-27 0 -27 -31q0 -37 39 -37h3
q41 0 48 37v13q0 28 -42 56q-8 4 -15 4h-17q-33 0 -78 -48q-241 -329 -294 -404v-480q15 -111 75 -197q37 -52 102 -75q94 -22 157 -22q70 0 94 66q9 28 9 62q0 62 -64 100q-28 19 -44 19h-9q-32 0 -64 -56l-1 -10v-11q8 -56 34 -56q0 -1 6 -1h13q29 5 29 28q0 22 -26 22
l-2 3v3q2 5 10 5q29 0 29 -36q0 -28 -47 -38q-46 0 -57 64q-2 9 -2 14q0 33 53 72q10 6 28 9q49 0 113 -76q12 -25 12 -47v-8q0 -1 2 -1l-2 -3v-7q0 -85 -73 -123q-23 -4 -36 -4h-14q-145 11 -173 31q-86 37 -136 165q-12 39 -16 41v-97q11 -11 11 -22q0 -14 -22 -19
q-20 5 -20 21q0 13 19 23v714h-2q-366 -494 -447 -610q-11 -21 -11 -35q0 -28 51 -28q66 0 340 48q0 1 5 1l3 -1q-1 -21 -1 -31v-19q0 -109 129 -184q102 -55 214 -55h4q156 0 205 114q14 38 14 66q0 90 -88 170q-28 15 -56 15h-12q-33 0 -52 -14h-3q-1 0 -5 7q16 48 64 79
q27 14 71 14q138 0 193 -164q12 -39 12 -79q0 -91 -101 -175q-82 -73 -128 -73q-27 -8 -78 -8h-11q-139 0 -231 53q-90 40 -174 106q-53 67 -173 67h-13q-82 0 -109 -19q-88 -44 -114 -98l-1 -9v-5q0 -21 51 -45q11 -3 19 -3h1q2 0 2 1q2 0 8 -6q0 -11 -78 -25h-8
q-80 0 -112 94q-2 16 -2 25v18q0 105 105 222q12 11 154 214q45 61 365 508v137q-50 -16 -161 -114q-42 -43 -76 -84h-2q-14 23 -42 30l-115 28q-127 49 -127 161q1 30 18 82l3 2h3q4 -2 4 -10v-12q0 -93 102 -115q17 -2 29 -2h10q116 0 354 112v49q-17 12 -17 21
q0 17 23 22q20 -8 20 -22q0 -8 -14 -20v-42q60 28 161 81q68 35 115 35zM719 1231v-120h2q21 26 114 157v3h-1q-71 -13 -115 -40z" />
  </font>
</defs>
</svg>
