<?xml version="1.0" standalone="no"?>
<!DOCTYPE svg PUBLIC "-//W3C//DTD SVG 1.1//EN" "http://www.w3.org/Graphics/SVG/1.1/DTD/svg11.dtd" >
<svg xmlns="http://www.w3.org/2000/svg" xmlns:xlink="http://www.w3.org/1999/xlink" version="1.1">
<metadata>
Created by FontForge 20170731 at Sun Dec  6 16:39:21 2015
 By Aleksey,,,
Attribution-ShareAlike 4.0 International
</metadata>
<defs>
<font id="ZatannaMisdirection" horiz-adv-x="1515" >
  <font-face 
    font-family="Zatanna Misdirection"
    font-weight="400"
    font-stretch="normal"
    units-per-em="2048"
    panose-1="2 0 5 0 0 0 0 0 0 0"
    ascent="1638"
    descent="-410"
    x-height="1022"
    cap-height="1434"
    bbox="-259 -417 2021 1609"
    underline-thickness="150"
    underline-position="-442"
    unicode-range="U+001D-2026"
  />
<missing-glyph horiz-adv-x="1024" 
d="M100 0v1434h824v-1434h-824zM150 50h724v1334h-724v-1334zM325 1148q31 28 58 43q53 30 112 30q92 0 148 -47.5t56 -127.5q0 -49 -23 -98.5t-87 -129.5q-63 -80 -99 -132t-36 -99q0 -38 24 -133h-32q-35 97 -35 148q0 76 81.5 218t81.5 217q0 57 -33 90t-91 33
q-38 0 -69 -17q-26 -15 -56 -40v45zM389 334l57 58q11 10 20 10q10 0 22 -11l56 -60q9 -11 9 -20q0 -11 -10 -22l-56 -62q-14 -14 -21 -14q-11 0 -20 10l-61 71q-7 9 -7 18q0 10 11 22z" />
    <glyph glyph-name=".notdef" horiz-adv-x="1024" 
d="M100 0v1434h824v-1434h-824zM150 50h724v1334h-724v-1334zM325 1148q31 28 58 43q53 30 112 30q92 0 148 -47.5t56 -127.5q0 -49 -23 -98.5t-87 -129.5q-63 -80 -99 -132t-36 -99q0 -38 24 -133h-32q-35 97 -35 148q0 76 81.5 218t81.5 217q0 57 -33 90t-91 33
q-38 0 -69 -17q-26 -15 -56 -40v45zM389 334l57 58q11 10 20 10q10 0 22 -11l56 -60q9 -11 9 -20q0 -11 -10 -22l-56 -62q-14 -14 -21 -14q-11 0 -20 10l-61 71q-7 9 -7 18q0 10 11 22z" />
    <glyph glyph-name=".null" horiz-adv-x="0" 
 />
    <glyph glyph-name=".null" horiz-adv-x="0" 
 />
    <glyph glyph-name="nonmarkingreturn" horiz-adv-x="508" 
 />
    <glyph glyph-name="space" unicode=" " horiz-adv-x="508" 
 />
    <glyph glyph-name="space" unicode="&#xa0;" horiz-adv-x="508" 
 />
    <glyph glyph-name="exclam" unicode="!" horiz-adv-x="854" 
d="M765 1431q44 -14 44 -53q-50 -309 -176 -574q-55 -239 -195 -239q-50 0 -62 98q0 36 159 450q0 152 195 309q20 0 35 9zM217 212q64 0 98 -97q0 -115 -133 -115q-106 24 -106 97v18q0 92 141 97z" />
    <glyph glyph-name="quotedbl" unicode="&#x22;" horiz-adv-x="725" 
d="M205 1560q52 0 52 -189v-26q0 -190 -129 -190h-9q-43 20 -43 129v52q0 224 129 224zM542 1534q77 0 77 -138q11 0 26 -120q-12 -95 -78 -95h-25q-95 71 -95 215q13 138 95 138z" />
    <glyph glyph-name="percent" unicode="%" horiz-adv-x="1493" 
d="M439 1431q362 -113 362 -327q0 -265 -406 -362h-18q-169 0 -256 239v26q0 208 265 415zM280 1051v-35q10 -97 133 -97q229 25 229 168v26q0 97 -150 124h-26q-186 -50 -186 -186zM1075 1219h35q13 0 36 -44q0 -134 -530 -742l-239 -389q-54 -44 -106 -44h-9
q-44 23 -44 71q38 133 574 795q129 215 283 353zM1093 751q220 0 327 -398q0 -140 -310 -273q-46 -18 -114 -27q-170 0 -248 283q100 415 345 415zM898 371v-35q0 -124 133 -124q191 0 221 159q0 135 -106 212h-53q-150 0 -195 -212z" />
    <glyph glyph-name="ampersand" unicode="&#x26;" horiz-adv-x="1704" 
d="M404 1446q78 -28 469 -70q54 0 169 20q130 -26 130 -80q0 -89 -239 -89h-20q-40 0 -170 30h-70q-49 -20 -49 -70q0 -210 249 -210q140 -30 140 -99q0 -36 -130 -120l-10 -20q102 -319 249 -319q148 90 240 289q22 140 109 140q57 0 70 -110q-25 -173 -179 -359
q-60 -35 -60 -90v-50q0 -47 239 -79l30 -40q0 -120 -239 -120q-24 0 -309 100q-190 -100 -399 -100q-186 0 -389 170q-107 153 -110 239q0 409 249 508q90 32 90 100v10q0 28 -110 190l-40 129q14 100 90 100zM305 509v-50q0 -219 289 -279h109q160 19 160 99v40
q0 69 -289 439q-18 10 -40 10h-20q-172 0 -209 -259z" />
    <glyph glyph-name="quotesingle" unicode="'" horiz-adv-x="274" 
d="M149 1108h-30l-62 359q-4 23 -4 33q0 37 20.5 57t59.5 20t60.5 -19.5t21.5 -56.5q0 -8 -4 -34z" />
    <glyph glyph-name="parenleft" unicode="(" horiz-adv-x="681" 
d="M485 1434q106 -12 106 -80q0 -35 -187 -223q-98 -185 -98 -392q0 -329 205 -579q86 0 125 -98q0 -62 -89 -62q-285 0 -383 588q0 125 -9 125q0 468 258 703q33 18 72 18z" />
    <glyph glyph-name="parenright" unicode=")" horiz-adv-x="832" 
d="M380 1431q143 0 283 -479q7 -62 7 -95q0 -360 -312 -712q-154 -145 -262 -145q-94 14 -94 73v7q552 203 552 690v58q0 286 -240 538v29q0 21 66 36z" />
    <glyph glyph-name="asterisk" unicode="*" horiz-adv-x="667" 
d="M333 1609q40 0 40 -160h16q64 56 128 56q21 0 40 -40q0 -27 -96 -104v-24q136 -137 136 -176q-30 -64 -80 -64q-33 0 -88 40h-16v-64q16 -117 16 -128q0 -15 -72 -64q-72 14 -72 136v104l-144 -72h-24q-43 0 -56 40q0 26 120 168v40q0 25 -136 72v8q0 72 88 72
q32 -8 88 -8q28 168 112 168z" />
    <glyph glyph-name="plus" unicode="+" horiz-adv-x="994" 
d="M539 1071q46 -10 46 -47q0 -25 -55 -167v-9q0 -46 46 -65h65q178 47 222 47h10q12 0 46 -47v-37q-109 -148 -464 -148q-44 -25 -83 -214q-29 -46 -111 -46q-47 13 -47 65l28 130v65q0 20 -195 157l-9 19v28q35 55 83 55q134 -46 158 -46h28q22 1 158 223q29 22 74 37z
" />
    <glyph glyph-name="comma" unicode="," horiz-adv-x="414" 
d="M222 245q100 0 107 -166q-110 -331 -185 -331q-78 37 -78 97q39 183 39 244v68q0 88 117 88z" />
    <glyph glyph-name="hyphen" unicode="-" horiz-adv-x="595" 
d="M399 548q70 -14 106 -55q0 -95 -174 -95q-187 0 -252 68v34q0 43 320 48z" />
    <glyph glyph-name="hyphen" unicode="&#xad;" horiz-adv-x="595" 
d="M399 548q70 -14 106 -55q0 -95 -174 -95q-187 0 -252 68v34q0 43 320 48z" />
    <glyph glyph-name="period" unicode="." horiz-adv-x="428" 
d="M220 252q71 0 124 -72q0 -87 -124 -175h-46q-90 55 -90 144t136 103z" />
    <glyph glyph-name="zero" unicode="0" 
d="M856 1434q434 0 615 -630v-47q0 -469 -504 -741l-158 -16h-16q-525 0 -693 536l-16 142q0 498 583 725q140 31 189 31zM415 709v-63q0 -252 410 -347h31q284 90 284 363v173q0 243 -252 284h-16q-457 0 -457 -410z" />
    <glyph glyph-name="one" unicode="1" 
d="M830 1431q103 0 132 -413q0 -1018 -103 -1018h-29q-133 0 -133 177v516q0 325 -192 325q-59 62 -59 118q0 116 295 295h89z" />
    <glyph glyph-name="two" unicode="2" 
d="M801 1431q250 0 434 -411l24 -82q0 -315 -517 -563q-93 -102 -93 -152q36 0 222 12q294 0 294 -153q0 -62 -129 -70q-52 0 -423 47l-211 -59q-117 31 -117 141q20 89 446 434q270 175 270 399q-86 234 -270 234q-54 0 -305 -199q-38 -24 -59 -24q-59 19 -59 82
q187 364 493 364z" />
    <glyph glyph-name="three" unicode="3" 
d="M855 1431q292 -30 292 -50q0 -97 -252 -403l-10 -51v-40q0 -61 191 -222q69 -84 91 -212q0 -324 -564 -453h-61q-263 0 -302 222q0 10 40 30q31 0 353 -101h81q161 0 252 313v10q0 189 -283 221q-112 0 -151 71v20q313 332 313 423v20q0 15 -31 31q-192 -10 -262 -10
q0 -15 -50 -31q-81 0 -101 141q0 36 242 51q56 -10 81 -10q49 30 131 30z" />
    <glyph glyph-name="four" unicode="4" 
d="M873 1434q65 -33 65 -75q-105 -389 -300 -806q-16 0 -18 -66v-75q15 -37 65 -37q197 0 197 56q67 488 141 488q39 0 75 -66v-9q-29 -123 -29 -225v-225q121 0 150 -94q-18 -94 -140 -94v-94q-10 -112 -94 -112q-112 0 -112 122l9 84q-60 0 -122 10q-153 -10 -300 -10
q-131 12 -131 66q328 651 328 675q108 478 197 478z" />
    <glyph glyph-name="five" unicode="5" 
d="M727 1434h10q89 0 199 -10l60 10q70 0 120 -70q0 -119 -429 -119q-109 -46 -109 -80v-50q0 -119 259 -119q105 0 219 -159q109 -189 109 -289q0 -189 -219 -438q-132 -60 -338 -110q-219 0 -289 219q21 60 80 60q156 -70 199 -70h30q257 0 328 269v80q0 199 -249 239
q-318 0 -318 79q-20 90 -20 130v30q0 378 239 378q0 18 119 20z" />
    <glyph glyph-name="six" unicode="6" 
d="M949 1435q77 0 120 -90q0 -91 -291 -171q-311 -270 -311 -522v-20q0 -237 211 -391q65 -30 160 -30h40q202 0 241 191v50q-15 160 -140 160h-10q-81 0 -251 -160l-51 -10q-61 0 -80 90q174 301 422 301q260 0 331 -421q-85 -412 -562 -412q-259 0 -452 331
q-50 153 -50 321q0 270 321 633q78 40 352 150z" />
    <glyph glyph-name="seven" unicode="7" 
d="M1004 1434q117 -29 117 -79q-78 -140 -216 -628q-127 -336 -127 -629q-29 -70 -89 -98q-78 0 -78 147q0 263 157 747q49 193 49 236v49q-16 39 -69 39h-10q-38 0 -245 -20q-118 27 -118 108v20q0 80 629 108z" />
    <glyph glyph-name="eight" unicode="8" 
d="M818 1431h10q273 0 321 -224q39 -74 49 -117q-68 -167 -68 -194v-30q0 -43 107 -175q58 -141 58 -243q0 -367 -506 -448q-388 46 -428 214q-46 39 -78 244q0 141 224 379l10 68v10q-59 162 -59 214q0 263 360 302zM682 1188v-88q0 -92 136 -107h20q146 0 146 136
q0 102 -146 127h-39q-83 0 -117 -68zM487 477v-97q0 -152 273 -176h29q194 0 263 117v224q0 195 -224 195h-49q-292 -93 -292 -263z" />
    <glyph glyph-name="nine" unicode="9" 
d="M797 1438h47q200 0 343 -381q27 -47 48 -228q-54 -397 -191 -610q-158 -219 -266 -219h-10q-343 98 -343 238q0 25 48 48q149 -86 324 -86q82 0 162 219q85 218 85 429q-103 400 -228 400h-48q-266 -76 -266 -238v-10q0 -143 200 -143l181 48q57 -20 57 -76
q0 -162 -277 -162h-9q-301 0 -343 362q0 233 362 390q43 19 124 19z" />
    <glyph glyph-name="colon" unicode=":" horiz-adv-x="501" 
d="M269 954q123 -61 123 -142q0 -87 -123 -104q-113 0 -113 114q0 80 113 132zM269 255q123 -19 123 -85q-42 -170 -142 -170q-94 49 -94 151q0 75 113 104z" />
    <glyph glyph-name="semicolon" unicode=";" horiz-adv-x="602" 
d="M246 968q133 -66 133 -154q0 -94 -133 -112q-123 0 -123 123q41 143 123 143zM359 333q143 -52 143 -216v-10q0 -259 -184 -379h-52q0 8 -10 61q21 93 21 134v41q0 30 -93 164q83 205 175 205z" />
    <glyph glyph-name="semicolon" unicode="&#x37e;" horiz-adv-x="602" 
d="M246 968q133 -66 133 -154q0 -94 -133 -112q-123 0 -123 123q41 143 123 143zM359 333q143 -52 143 -216v-10q0 -259 -184 -379h-52q0 8 -10 61q21 93 21 134v41q0 30 -93 164q83 205 175 205z" />
    <glyph glyph-name="question" unicode="?" horiz-adv-x="854" 
d="M478 1434q257 -85 257 -287q17 0 40 -128q0 -150 -337 -337l-9 -19v-129l79 -89v-20q0 -27 -89 -49q-132 0 -178 247q0 172 257 267q118 118 118 178v20q0 101 -158 148h-69q-97 -63 -178 -69q-19 0 -59 49q77 178 197 178q8 25 129 40zM270 227q79 -37 79 -98
q0 -101 -128 -129q-62 0 -99 89q0 105 148 138z" />
    <glyph glyph-name="at" unicode="@" horiz-adv-x="2168" 
d="M1239 1434q359 0 672 -322q110 -178 110 -321q0 -247 -313 -616q-235 -175 -487 -175q-210 0 -257 175q0 88 138 202v9q0 70 -267 110q-59 40 -74 120q0 225 396 395q110 19 119 19q221 -44 221 -203q-15 -46 -55 -46q-203 74 -230 74h-46q-91 0 -156 -101v-46
q9 -120 119 -120h28q55 0 184 37q64 0 64 -83q0 -106 -184 -285v-18l46 -9h92q214 0 432 413q18 65 28 129q0 338 -423 469q-92 18 -184 18q-768 0 -956 -974h-28q-91 0 -110 138q22 286 368 689q355 322 753 322z" />
    <glyph glyph-name="A" unicode="A" horiz-adv-x="1353" 
d="M695 1434q136 0 250 -321q73 0 241 -632q33 0 80 -381q0 -53 -70 -100h-30q-71 0 -130 201q-46 90 -301 90h-40q-65 0 -141 -20q-80 29 -80 90q0 94 331 110q68 0 120 71v30q-155 531 -250 531h-10q-100 0 -141 -261q-24 -33 -220 -501v-100q0 -181 -151 -181
q-70 30 -70 90v20q0 66 120 432q0 23 121 301q0 36 120 260q126 271 251 271z" />
    <glyph glyph-name="B" unicode="B" horiz-adv-x="1363" 
d="M681 1434q407 -34 407 -250q-18 -109 -65 -231q167 -172 167 -204q46 -162 46 -268q-28 -383 -314 -425q-127 0 -269 -47h-138q-92 0 -222 -9q-75 0 -130 130q37 149 37 379v9q0 610 -37 768q0 139 241 139h111q79 0 166 9zM367 1147q36 -148 111 -148h18q352 53 352 176
v9q-104 83 -232 83h-83q-166 0 -166 -120zM394 731v-9q0 -26 -18 -250q0 -47 9 -139q-9 -36 -9 -74q35 -74 92 -74q433 0 555 167q19 85 19 148q0 274 -259 314h-157q-232 -28 -232 -83z" />
    <glyph glyph-name="C" unicode="C" horiz-adv-x="1369" 
d="M744 1436q408 0 491 -133q0 -10 10 -28q-40 -76 -85 -76q-151 67 -350 67h-104q-214 0 -377 -293q-38 -156 -38 -255v-10q78 -387 160 -387q154 -142 435 -142q28 0 293 123h18q76 -23 76 -94q0 -208 -510 -208q-486 0 -642 453q-38 151 -38 255q54 353 208 539
q248 189 453 189z" />
    <glyph glyph-name="D" unicode="D" horiz-adv-x="1403" 
d="M601 1434q558 -98 558 -179q89 -54 89 -598q0 -657 -866 -657q-199 45 -199 149q10 73 20 90q-10 68 -10 110v10q30 274 30 308q0 42 -20 100q10 54 10 89v20q0 23 -10 40q30 108 30 130q-50 93 -110 298q0 90 468 90h10zM432 1115q10 -114 20 -129q0 -60 -30 -737
q20 -54 60 -70h69q409 89 409 189q89 148 89 190q-24 557 -109 557q-100 120 -369 120q-139 -35 -139 -120z" />
    <glyph glyph-name="E" unicode="E" horiz-adv-x="1150" 
d="M473 1434h426q117 0 146 -107q-38 -96 -117 -96q-316 38 -436 38q-126 -26 -126 -126q0 -281 97 -281h88q278 0 329 -77q-30 -107 -184 -107h-194q-106 0 -106 -116q-20 -86 -20 -233v-48q35 -87 204 -87h58q124 0 271 9q174 -22 174 -116q0 -71 -125 -87h-311
q-474 0 -474 184q19 115 19 145q-19 63 -19 88q19 138 19 193v10q0 49 -19 49l9 96q-19 176 -19 194q31 427 107 427q0 38 203 48z" />
    <glyph glyph-name="F" unicode="F" horiz-adv-x="1235" 
d="M263 1435q31 0 71 -10q186 10 331 10h140q56 0 151 -20q151 10 211 10q78 0 140 -101q-38 -110 -201 -110q-183 20 -552 30q-88 0 -100 -221v-70q54 -90 191 -90l271 30q61 0 90 -70q0 -108 -161 -151q-149 10 -250 10h-41q-130 0 -130 -341v-140q0 -201 -140 -201h-10
q-22 0 -51 80q10 166 10 251v281q0 42 -10 110q20 55 20 281v51q0 81 -110 250q0 20 -10 20q0 83 140 111z" />
    <glyph glyph-name="G" unicode="G" horiz-adv-x="1391" 
d="M896 1434q277 -48 277 -191q-13 -48 -67 -48h-38q-284 57 -325 57q-326 0 -450 -363q-9 -16 -9 -48v-248q0 -252 382 -411q66 -10 105 -10h39q229 50 229 210v29q-19 38 -57 57h-67q-40 0 -211 -28q-76 33 -76 105q0 122 468 191h19q153 0 153 -248q0 -323 -277 -469
q-86 -19 -124 -19q-516 76 -516 143q-211 160 -211 316q-57 131 -57 248q0 242 239 603q0 57 574 124z" />
    <glyph glyph-name="H" unicode="H" horiz-adv-x="1601" 
d="M275 1434q163 -46 163 -132q-31 -240 -31 -295q0 -61 10 -183q-10 -67 -10 -132l10 -21q-30 -167 -30 -244l30 -315q-27 -112 -91 -112q-163 0 -163 315q0 35 10 214q-10 154 -10 213l41 214q-10 70 -10 112v203q10 163 81 163zM1251 1424h10q143 -29 143 -214
q0 -86 -21 -132l51 -692v-40q-21 -326 -152 -326q-43 0 -82 72q11 101 11 152q-15 590 -92 590q-6 0 -132 -10l-153 51l-193 -31q-153 35 -153 112q20 71 163 71h102q48 0 102 -10q345 0 345 92q11 63 11 142v10q-41 49 -41 81q15 82 81 82z" />
    <glyph glyph-name="I" unicode="I" horiz-adv-x="770" 
d="M462 1434h19q135 0 165 -87q0 -53 -126 -107q-19 -33 -29 -97q29 -355 39 -707q-20 -67 -20 -116v-20q0 -24 204 -155q0 -16 19 -58q0 -55 -106 -68h-78q-190 0 -358 -19q-107 16 -107 97q0 65 194 106q48 79 48 126q-19 188 -19 204q19 291 29 368q0 285 -213 378
q0 17 -20 58q0 79 359 97z" />
    <glyph glyph-name="J" unicode="J" horiz-adv-x="1447" 
d="M1122 1433q138 0 138 -319q21 -155 32 -413q-31 -522 -329 -659q-108 -42 -191 -42h-21q-489 0 -627 212l-31 106q10 125 10 181q0 74 -21 74q0 79 127 128q78 0 128 -319q154 -151 308 -159h169q171 0 234 350v106q-53 459 -53 531v74q14 149 127 149z" />
    <glyph glyph-name="K" unicode="K" horiz-adv-x="1248" 
d="M244 1434q95 0 121 -162v-10q0 -424 91 -424h10q294 197 464 475q92 91 152 111q63 -20 71 -51v-10q0 -83 -303 -484l-41 -81q106 -251 283 -505q51 -157 51 -212q0 -74 -112 -81q-67 3 -212 273q-26 8 -80 161q-96 111 -162 111h-20q-142 -20 -142 -91q21 -161 21 -242
q-72 -182 -162 -182h-20q-71 53 -71 91q10 211 10 344v202q0 62 -30 373v243q0 151 81 151z" />
    <glyph glyph-name="L" unicode="L" horiz-adv-x="1163" 
d="M309 1437q89 0 114 -135q-10 -74 -10 -125q31 -102 31 -136q0 -36 -21 -177q21 -58 32 -416q-21 -84 -21 -177q38 -42 166 -42q218 0 396 21q59 0 125 -83q0 -102 -146 -136q-192 11 -281 11q-341 -25 -427 -42q-104 41 -104 125q0 21 62 167q0 95 -10 593q0 35 10 302
q-20 99 -20 125q17 125 104 125z" />
    <glyph glyph-name="M" unicode="M" horiz-adv-x="1743" 
d="M1391 1432q136 0 136 -233q10 0 20 -332q-10 -114 -10 -165q20 -73 20 -98l-10 -58q19 -241 29 -273q-24 -176 -117 -176q-107 0 -107 566q-6 175 -49 175q-169 -184 -224 -448q0 -65 -175 -351l-30 -20h-29q-94 44 -292 556q-46 53 -146 224h-30l-19 -29v-458
q0 -21 49 -117q-73 -195 -147 -195q-87 0 -87 214l9 69q0 68 -9 282q9 194 9 263q0 24 -19 137q29 95 29 126q-19 161 -19 215q0 65 78 107q129 -5 409 -663q113 -292 205 -292q178 213 234 448q114 226 185 458q55 68 107 68z" />
    <glyph glyph-name="N" unicode="N" horiz-adv-x="1524" 
d="M1246 1437h10q91 0 91 -121q-30 -292 -40 -567q10 -111 30 -162q-30 -69 -30 -111v-102q0 -108 50 -293q-27 -81 -101 -81h-20q-64 0 -203 202q-259 236 -384 436q-162 101 -172 101q-71 -14 -71 -41v-40q0 -153 20 -243q0 -385 -101 -385q-77 0 -111 152q10 154 10 284
v30q0 10 -10 10q20 40 20 111v162q0 55 30 152v10q-101 319 -101 354q0 46 81 91q96 -6 354 -415l263 -293q149 -212 233 -212q51 23 51 91q0 143 -11 506q21 75 21 91q-21 91 -21 131q16 152 112 152z" />
    <glyph glyph-name="O" unicode="O" horiz-adv-x="1553" 
d="M704 1434q507 -101 507 -220q191 -194 191 -459q10 0 10 -28q0 -265 -182 -536q-190 -191 -487 -191h-96q-351 91 -468 258q-96 129 -96 344q0 412 134 507q284 307 487 325zM274 822q0 -444 191 -535q229 -115 335 -115q152 0 344 210q96 217 96 259v86q0 178 -182 411
q-120 95 -325 95q-297 0 -430 -287q-29 -93 -29 -124z" />
    <glyph glyph-name="P" unicode="P" horiz-adv-x="1524" 
d="M497 1431q716 0 867 -209q21 -39 63 -282q0 -265 -292 -449q-119 -31 -335 -31h-73l-63 -11q-125 32 -125 94q0 94 272 94q376 40 376 261v105q0 176 -355 230l-262 21q-135 0 -135 -188q-32 -281 -32 -481v-52q0 -122 42 -167q-16 -366 -104 -366h-11q-146 27 -146 104
q21 545 21 669q0 89 -42 439q0 186 261 209q32 0 73 10z" />
    <glyph glyph-name="Q" unicode="Q" horiz-adv-x="1597" 
d="M673 1431q573 0 751 -528q61 -95 61 -203q-97 -419 -315 -640q-175 -51 -253 -61v-193q0 -15 40 -40h31q34 0 223 30q152 -54 152 -81v-30q-41 -102 -274 -102h-101q-295 64 -295 234v71l10 121q-211 37 -375 193q-214 206 -214 539q-12 0 -30 101q104 406 183 406
q66 113 386 183h20zM358 862v-30q0 -335 315 -579l61 -10h81q264 0 264 61q183 273 183 426v41q0 100 -234 437q-23 0 -40 10q-16 0 -142 -10q-16 0 -163 10q-325 -73 -325 -356z" />
    <glyph glyph-name="R" unicode="R" horiz-adv-x="1492" 
d="M980 1434q361 0 361 -351q0 -68 -95 -314q-273 -256 -390 -256l-19 -29v-19q0 -157 371 -266l133 10q46 0 66 -67q0 -109 -190 -142q-149 0 -475 190q-182 255 -237 285h-57q-57 -29 -57 -86v-95q-13 -294 -114 -294q-72 0 -105 142q48 188 48 266q-29 93 -29 114
q0 15 10 152q-29 251 -29 295q0 49 10 161q-19 66 -19 114v57q0 96 190 123q511 10 627 10zM372 1130v-28q0 -437 66 -437h19q561 28 637 209q9 94 9 142v105q0 132 -256 132q-251 19 -304 19h-10q-161 0 -161 -142z" />
    <glyph glyph-name="S" unicode="S" horiz-adv-x="1319" 
d="M710 1437h109q148 0 308 -159v-39q-36 -60 -119 -60q-35 0 -278 90h-99q-243 0 -317 -209v-69q0 -100 218 -119l129 20q256 0 436 -139q99 -119 99 -257q0 -375 -505 -486q-52 -10 -119 -10q-417 43 -417 238q0 18 50 59q376 -79 476 -79h10q277 76 277 198
q-30 268 -228 268h-168q-36 0 -90 -10q-356 59 -356 188q-18 0 -40 119q0 297 377 436q148 20 247 20z" />
    <glyph glyph-name="T" unicode="T" horiz-adv-x="1282" 
d="M1242 1431q179 -32 179 -99q0 -100 -427 -100q-189 -16 -189 -159q0 -57 10 -159q-7 -59 -20 -59q10 -473 40 -696q-18 -159 -139 -159q-77 0 -119 119q20 45 20 129q-20 384 -20 418q0 52 10 169q-10 39 -10 69q20 158 20 199q-20 67 -70 90h-70q-94 0 -258 -20
q-102 0 -159 99q41 119 129 119l139 -10q50 0 149 10q168 -10 338 -10z" />
    <glyph glyph-name="U" unicode="U" horiz-adv-x="1498" 
d="M254 1431q109 0 146 -176l-11 -52l11 -93q0 -50 -11 -104q0 -736 166 -736q102 -63 239 -63q300 0 300 446q42 191 42 363q0 56 -31 270q17 124 103 124q125 0 125 -197l-11 -145l21 -104l-83 -725q-93 -229 -342 -229h-156q-23 0 -41 -10q-469 52 -487 239
q-11 296 -63 601q11 306 11 394q0 27 -21 104q0 48 93 93z" />
    <glyph glyph-name="V" unicode="V" horiz-adv-x="1420" 
d="M1312 1431q49 -19 86 -75v-33q-90 -189 -140 -419q-120 -189 -161 -474q-192 -430 -344 -430q-133 0 -323 301q-312 602 -312 936q22 183 65 183h32q111 0 150 -161q-10 -112 -10 -129q183 -732 344 -732h54q118 45 215 344q0 72 151 442q39 247 193 247z" />
    <glyph glyph-name="W" unicode="W" horiz-adv-x="2029" 
d="M1915 1432q92 -32 92 -102l-153 -594q-120 -271 -225 -675q-44 -41 -82 -41h-10q-137 0 -348 328q-92 163 -154 163q-102 0 -173 -225l10 -92q0 -194 -154 -194q-99 0 -174 266q-225 505 -225 552q-245 370 -245 481q35 92 102 92q114 0 256 -338q86 -133 266 -542
l20 -10h21q174 225 174 358q0 23 -164 399v41q43 41 92 61q175 0 358 -593q178 -348 235 -348h62q43 0 92 215q78 169 214 706q75 92 113 92z" />
    <glyph glyph-name="X" unicode="X" horiz-adv-x="1305" 
d="M1033 1431q92 0 118 -150q0 -33 -192 -192q-107 -317 -107 -341q17 -100 331 -438q0 -43 85 -128v-32q-17 -43 -74 -43q-134 0 -342 309q-79 65 -118 65q-113 0 -235 -267q-21 0 -64 -171q-48 -43 -96 -43q-81 0 -139 85v22q0 188 267 512q11 19 11 43v54q0 82 -352 480
q-43 75 -43 107v11q0 62 85 106q81 -39 257 -224q21 -74 213 -235q21 0 299 427q64 43 96 43z" />
    <glyph glyph-name="Y" unicode="Y" horiz-adv-x="1161" 
d="M187 1434q50 0 145 -206q232 -300 299 -300h52q211 145 309 454q65 52 103 52q57 0 93 -93q-124 -310 -309 -547q-136 -149 -145 -268v-51q21 -233 21 -248v-21q0 -157 -114 -206q-108 0 -144 330q-31 383 -93 454q-17 73 -289 382q-26 52 -41 144q26 124 113 124z" />
    <glyph glyph-name="Z" unicode="Z" horiz-adv-x="1046" 
d="M875 1434q99 -39 99 -110q-49 -124 -458 -707q-109 -234 -109 -278v-80q39 -80 129 -80h90q92 0 259 10q99 -17 99 -89q0 -100 -328 -100h-140q-398 36 -398 100q0 20 -10 20q55 196 139 328q0 50 379 628v19q0 140 -140 140h-179q-99 0 -199 20v30q56 119 299 119
q327 20 448 20z" />
    <glyph glyph-name="underscore" unicode="_" horiz-adv-x="1024" 
d="M129 -48q209 0 657 -13l161 13q51 -13 80 -53q0 -76 -147 -87h-771l-40 -7q-54 26 -54 67q25 80 114 80z" />
    <glyph glyph-name="a" unicode="a" horiz-adv-x="999" 
d="M513 1028q171 0 359 -619q22 -8 70 -279q13 0 30 -60q0 -63 -90 -70q-49 1 -139 150q-21 30 -240 60q-40 56 -40 69q0 60 140 100q30 26 30 60v50q-40 180 -130 180h-10q-85 0 -209 -549q-56 -120 -150 -120q-30 0 -60 60q160 606 299 808q21 160 140 160z" />
    <glyph glyph-name="b" unicode="b" horiz-adv-x="1075" 
d="M430 1024h193q202 0 274 -213v-10q-10 -86 -10 -142v-20l101 -335q0 -251 -395 -294q-203 -10 -305 -10q-121 0 -121 233q10 40 10 71q0 332 -61 588q0 132 314 132zM349 791v-91q31 -61 91 -61h51q153 0 203 91v61q-35 71 -122 71h-81q-92 0 -142 -71zM369 314v-10
q14 -142 122 -142q237 0 284 152v21q-46 131 -193 131h-60q-153 -18 -153 -152z" />
    <glyph glyph-name="c" unicode="c" horiz-adv-x="1150" 
d="M746 1023h54q131 0 131 -87q0 -69 -109 -76h-131q-370 -37 -370 -272v-131q0 -248 349 -283h21q140 0 283 76q68 0 109 -98q-56 -132 -359 -152h-54q-436 0 -544 326q-33 76 -44 196q76 359 185 359q111 142 479 142z" />
    <glyph glyph-name="d" unicode="d" horiz-adv-x="1091" 
d="M557 1025q208 0 354 -144q86 -221 86 -287v-125q0 -61 -48 -191q0 -222 -507 -259q-173 0 -173 -19q-97 0 -153 307q19 198 19 373q0 30 -9 182q0 129 431 163zM308 709q9 -200 9 -326v-105q0 -86 106 -86h105q268 50 268 268v86q0 261 -220 307h-96q-123 0 -172 -144z
" />
    <glyph glyph-name="e" unicode="e" horiz-adv-x="1049" 
d="M548 1025q432 0 432 -81v-20q0 -70 -543 -70q-110 -40 -110 -141v-30q0 -63 211 -90l261 30q75 -20 101 -70v-31q0 -83 -463 -100q-70 -44 -70 -121q0 -122 161 -140q183 10 231 10q191 -22 191 -81q-47 -90 -121 -90q-23 0 -150 20q-95 -10 -181 -10h-81
q-251 0 -251 161h-10l10 50v121q-20 387 -50 492q0 191 432 191z" />
    <glyph glyph-name="f" unicode="f" horiz-adv-x="1128" 
d="M254 1020q160 -11 234 -11h255q329 0 329 -116q-54 -96 -138 -96q-313 21 -340 21h-85q-149 -17 -149 -117v-10q0 -117 149 -117q99 0 202 21q159 -24 159 -85q0 -112 -286 -127l-128 10q-117 -41 -117 -127q0 -29 64 -149q0 -87 -159 -117h-32q-96 49 -96 138
q21 150 21 202q-21 68 -21 85q53 183 53 276l-32 192q0 86 117 127z" />
    <glyph glyph-name="g" unicode="g" horiz-adv-x="1138" 
d="M616 1028h59q172 0 208 -69v-10q-13 -89 -89 -89q-129 10 -208 10q-154 0 -306 -277v-138q0 -203 247 -287q38 -20 109 -20h19q188 29 188 178v20q0 15 -39 40h-99q-10 0 -10 -10q-119 19 -119 98q0 83 257 119q218 -25 218 -148q0 -445 -346 -445h-178q-369 0 -445 544
q0 74 129 316q180 168 405 168z" />
    <glyph glyph-name="h" unicode="h" horiz-adv-x="1344" 
d="M1130 1025q87 0 87 -109q0 -65 -21 -251q0 -16 21 -98q-11 -171 -11 -251q0 -23 11 -120q-47 -131 -120 -131q-83 0 -185 273q-112 76 -262 76h-43q-240 0 -240 -174q-6 -240 -98 -240q-69 0 -98 131q21 172 21 196q-11 177 -76 491q26 185 55 185h32q153 0 153 -305
q0 -87 87 -98h284q272 0 272 141q0 74 -22 175q0 109 153 109z" />
    <glyph glyph-name="i" unicode="i" horiz-adv-x="474" 
d="M221 1028q84 0 105 -147q0 -58 -11 -147q32 -303 32 -640q0 -70 -105 -94h-21q-105 92 -105 220q0 51 21 315q0 56 -21 399q59 94 105 94z" />
    <glyph glyph-name="j" unicode="j" horiz-adv-x="1013" 
d="M770 1023q105 -28 105 -190q0 -43 -10 -116l21 -137q-50 -380 -127 -380q-198 -200 -337 -200q-380 48 -380 264v10q0 64 74 95q46 0 126 -137q89 -53 169 -53q285 95 285 338v11q0 84 -21 327q32 168 95 168z" />
    <glyph glyph-name="k" unicode="k" horiz-adv-x="970" 
d="M194 1022h49q58 -29 58 -156q-20 -205 -20 -243l30 -20h29q143 66 233 166q130 253 254 253q58 -20 58 -78q0 -76 -224 -341l-10 -48q0 -25 156 -263q0 -8 78 -185v-49q-37 -58 -88 -58q-109 70 -282 341q-74 48 -88 48q-107 -37 -107 -107v-39q0 -40 10 -107
q0 -68 -107 -87q-97 0 -97 370q-10 84 -10 146v184q0 273 78 273z" />
    <glyph glyph-name="l" unicode="l" horiz-adv-x="930" 
d="M208 1022q112 0 112 -225l11 -71q-21 -52 -21 -72q21 -162 21 -204q-11 -87 -11 -133q83 -92 256 -92h123l61 10q163 -33 163 -112q0 -82 -296 -82q-292 -41 -358 -41q-107 0 -133 204q21 133 21 246l-41 439q0 77 92 133z" />
    <glyph glyph-name="m" unicode="m" horiz-adv-x="1496" 
d="M1169 1022q160 0 188 -428l52 -500q-26 -94 -52 -94h-31q-50 0 -136 271q11 107 11 167v31q0 82 -63 115h-21q-94 0 -188 -250q-58 -282 -187 -282q-71 0 -198 376q-146 156 -199 156q-15 0 -31 -31v-63q-31 -239 -73 -427q-37 -41 -52 -42q-73 24 -73 135q21 119 21 167
v52q0 43 -11 84q11 40 11 83q0 165 -21 219q0 219 115 219q183 0 490 -511l21 -10h62q46 9 157 261q13 0 156 281q52 0 52 21z" />
    <glyph glyph-name="n" unicode="n" horiz-adv-x="1199" 
d="M950 1022h47q51 -26 75 -103q0 -21 -9 -38q9 -324 9 -506v-225q-13 -150 -65 -150h-28q-93 0 -460 469q-101 65 -131 65q-75 -15 -75 -121v-141q19 -91 19 -103v-10q0 -37 -113 -84q-103 0 -103 159v10l28 159q-9 89 -9 169v47q0 21 -10 37q8 16 19 113q-19 43 -19 94
q0 72 122 121q106 0 347 -346q34 0 197 -197l19 -10h28q75 10 75 85v93q0 40 -28 310q0 57 65 103z" />
    <glyph glyph-name="o" unicode="o" horiz-adv-x="1249" 
d="M585 1025q332 -81 474 -232q67 -186 67 -290q-70 -397 -164 -397q-141 -106 -377 -106q-370 0 -493 377l-10 87q0 414 454 551q33 0 49 10zM275 483q61 -309 310 -309h97q251 59 251 290q0 329 -222 329q-127 19 -155 19q-197 0 -281 -261v-68z" />
    <glyph glyph-name="p" unicode="p" horiz-adv-x="1121" 
d="M699 1028q208 0 277 -148q22 -28 40 -119q0 -287 -188 -385q-95 -70 -208 -70h-39q-149 0 -149 89q0 63 257 99q149 80 149 188q0 178 -386 178q-148 0 -148 -227v-277q39 -56 39 -148v-10q0 -136 -89 -198h-19q-52 0 -109 257q-10 491 -10 633q0 128 257 128
q62 0 326 10z" />
    <glyph glyph-name="q" unicode="q" horiz-adv-x="1283" 
d="M605 1028h31q344 0 433 -322l10 -121v-10q0 -306 -302 -413v-20q193 -181 342 -181h20q34 0 151 40q40 -15 40 -30v-40q-78 -111 -211 -111q-295 0 -393 141q-51 60 -131 60q-81 0 -241 -30q-61 10 -61 30v10q0 10 111 111q-227 109 -262 242q-60 104 -60 141v20
q0 329 292 453q93 30 231 30zM293 605v-30q0 -222 252 -292h40q292 66 292 232v50q-22 282 -171 282q-80 20 -171 20h-20q-106 0 -151 -111q-71 -68 -71 -151z" />
    <glyph glyph-name="r" unicode="r" horiz-adv-x="1168" 
d="M542 1026q318 0 464 -194q20 -38 20 -106q0 -132 -204 -310v-10q0 -127 233 -280q7 -39 19 -39q-27 -66 -68 -87h-38q-119 0 -300 232q-78 68 -146 68q-150 0 -183 -68v-9q2 -97 19 -97q0 -73 -116 -116q-97 31 -97 184q19 136 19 183q0 76 -29 204l10 48v58
q0 30 -29 184q0 71 68 116h38q83 0 320 39zM319 687v-97q0 -116 97 -116h68q338 99 338 252q0 97 -309 126q-161 0 -194 -165z" />
    <glyph glyph-name="s" unicode="s" horiz-adv-x="909" 
d="M403 1029q312 0 373 -131q-23 -60 -101 -60q-68 30 -111 30h-30q-162 0 -262 -121v-51q0 -43 323 -131q252 -114 252 -232q-63 -333 -484 -333q-212 22 -212 141q12 81 80 81q91 -20 132 -20h60q192 12 192 81v20q0 149 -444 192q-91 83 -91 211q0 151 242 313
q39 10 81 10z" />
    <glyph glyph-name="t" unicode="t" horiz-adv-x="920" 
d="M137 1022l104 -11h11q211 0 521 11q90 0 125 -94q0 -73 -292 -136q-62 -87 -62 -187v-438q-15 -167 -73 -167h-11q-125 0 -125 344q0 78 10 365q-49 56 -291 135q-59 49 -63 73q0 67 146 105z" />
    <glyph glyph-name="u" unicode="u" horiz-adv-x="1093" 
d="M242 1028q77 0 126 -147q-32 -156 -32 -503q59 -189 179 -189h63q167 0 199 220v21q0 103 -21 357q0 209 126 231q46 0 73 -105q-10 -55 -10 -63q10 -231 10 -346l11 -42q0 -462 -430 -462q-307 0 -410 304q0 24 -10 42q10 72 10 116v52q0 38 -10 94q31 109 31 305
q0 76 95 115z" />
    <glyph glyph-name="v" unicode="v" horiz-adv-x="1045" 
d="M129 1023q120 0 218 -272q122 -261 152 -261q19 -11 44 -11q97 0 196 283q23 6 98 185q46 44 87 44q45 -15 65 -55v-22q-94 -327 -272 -598q-54 -316 -174 -316h-22q-120 0 -327 642q-136 159 -152 283q0 50 87 98z" />
    <glyph glyph-name="w" unicode="w" horiz-adv-x="1432" 
d="M141 1024q117 0 220 -430q47 -44 88 -44q69 0 154 342q48 62 122 99q68 -22 77 -55v-198q78 -298 209 -298h11q43 0 99 254q61 195 99 264q40 33 77 33h22q17 0 44 -44v-11q-52 -310 -143 -606q-23 -308 -132 -308q-131 0 -319 319q-41 33 -78 33h-11q-91 0 -110 -242
q0 -96 -99 -132q-145 0 -198 352q-66 198 -231 540v22q0 75 99 110z" />
    <glyph glyph-name="x" unicode="x" horiz-adv-x="1030" 
d="M800 1022h21q14 0 30 -30q0 -62 -223 -405l-10 -71v-30q172 -162 274 -284q118 -63 141 -121q0 -71 -111 -71q-136 20 -334 253q-53 41 -111 41q-41 -17 -223 -274q-51 -23 -51 -30q-60 0 -60 71q0 52 151 314q21 102 21 121q-98 178 -213 334q0 19 -20 71q20 81 71 81
q18 0 263 -263h71q12 0 202 232q66 61 111 61z" />
    <glyph glyph-name="y" unicode="y" horiz-adv-x="1044" 
d="M951 1025q45 0 71 -61q-127 -200 -194 -359q-110 -95 -144 -164q0 -62 -10 -185q10 -107 10 -174q-82 -82 -123 -82q-69 0 -133 349q-380 482 -400 563q40 103 113 103q76 0 174 -215q99 -175 236 -175q75 0 287 339q60 61 113 61z" />
    <glyph glyph-name="z" unicode="z" horiz-adv-x="954" 
d="M142 1028q71 0 357 -20q144 20 203 20q53 0 82 -51v-10q-180 -399 -234 -570l-11 -71q0 -98 265 -143q59 0 153 -102q0 -81 -306 -81h-50q-357 0 -357 92q12 165 204 509q30 118 30 152q0 105 -346 143q-132 17 -132 51q20 81 142 81z" />
    <glyph glyph-name="quoteleft" unicode="&#x2018;" horiz-adv-x="274" 
d="M149 1108h-30l-62 359q-4 23 -4 33q0 37 20.5 57t59.5 20t60.5 -19.5t21.5 -56.5q0 -8 -4 -34z" />
    <glyph glyph-name="quoteright" unicode="&#x2019;" horiz-adv-x="274" 
d="M149 1108h-30l-62 359q-4 23 -4 33q0 37 20.5 57t59.5 20t60.5 -19.5t21.5 -56.5q0 -8 -4 -34z" />
    <glyph glyph-name="quotedblleft" unicode="&#x201c;" horiz-adv-x="702" 
d="M182 1560q52 0 52 -189v-26q0 -190 -129 -190h-9q-43 20 -43 129v52q0 224 129 224zM519 1534q77 0 77 -138q11 0 26 -120q-12 -95 -78 -95h-25q-95 71 -95 215q13 138 95 138z" />
    <glyph glyph-name="quotedblright" unicode="&#x201d;" horiz-adv-x="702" 
d="M182 1560q52 0 52 -189v-26q0 -190 -129 -190h-9q-43 20 -43 129v52q0 224 129 224zM519 1534q77 0 77 -138q11 0 26 -120q-12 -95 -78 -95h-25q-95 71 -95 215q13 138 95 138z" />
    <glyph glyph-name="ellipsis" unicode="&#x2026;" horiz-adv-x="427" 
d="M220 252q71 0 124 -72q0 -87 -124 -175h-46q-90 55 -90 144t136 103zM572 250q71 0 124 -72q0 -87 -124 -175h-46q-90 55 -90 144t136 103zM-123 252q71 0 124 -72q0 -87 -124 -175h-46q-90 55 -90 144t136 103z" />
  </font>
</defs>
</svg>
